%TF.GenerationSoftware,KiCad,Pcbnew,(5.1.8)-1*%
%TF.CreationDate,2021-04-26T00:43:02-04:00*%
%TF.ProjectId,Dogekey,446f6765-6b65-4792-9e6b-696361645f70,rev?*%
%TF.SameCoordinates,Original*%
%TF.FileFunction,Copper,L1,Top*%
%TF.FilePolarity,Positive*%
%FSLAX46Y46*%
G04 Gerber Fmt 4.6, Leading zero omitted, Abs format (unit mm)*
G04 Created by KiCad (PCBNEW (5.1.8)-1) date 2021-04-26 00:43:02*
%MOMM*%
%LPD*%
G01*
G04 APERTURE LIST*
%TA.AperFunction,SMDPad,CuDef*%
%ADD10C,0.100000*%
%TD*%
%TA.AperFunction,ViaPad*%
%ADD11C,0.500000*%
%TD*%
%TA.AperFunction,Conductor*%
%ADD12C,0.406400*%
%TD*%
%TA.AperFunction,Conductor*%
%ADD13C,0.152400*%
%TD*%
%TA.AperFunction,Conductor*%
%ADD14C,0.100000*%
%TD*%
G04 APERTURE END LIST*
%TA.AperFunction,SMDPad,CuDef*%
D10*
%TO.P,J1,3*%
%TO.N,D+*%
G36*
X32938816Y-54210197D02*
G01*
X24407573Y-45678954D01*
X25305598Y-44780929D01*
X33836841Y-53312172D01*
X32938816Y-54210197D01*
G37*
%TD.AperFunction*%
%TA.AperFunction,SMDPad,CuDef*%
%TO.P,J1,2*%
%TO.N,D-*%
G36*
X31412172Y-55736841D02*
G01*
X22880929Y-47205598D01*
X23778954Y-46307573D01*
X32310197Y-54838816D01*
X31412172Y-55736841D01*
G37*
%TD.AperFunction*%
%TA.AperFunction,SMDPad,CuDef*%
%TO.P,J1,4*%
%TO.N,GND*%
G36*
X34869570Y-52279443D02*
G01*
X25889314Y-43299187D01*
X26787340Y-42401161D01*
X35767596Y-51381417D01*
X34869570Y-52279443D01*
G37*
%TD.AperFunction*%
%TA.AperFunction,SMDPad,CuDef*%
%TO.P,J1,1*%
%TO.N,+5VP*%
G36*
X29481417Y-57667596D02*
G01*
X20501161Y-48687340D01*
X21399187Y-47789314D01*
X30379443Y-56769570D01*
X29481417Y-57667596D01*
G37*
%TD.AperFunction*%
%TD*%
D11*
%TO.N,GND*%
X35700000Y-52200000D03*
X39700000Y-65500000D03*
X40900000Y-62800000D03*
X33400000Y-61000000D03*
X30700000Y-62500000D03*
X30500000Y-65900000D03*
X27400000Y-66000000D03*
X39400000Y-56100000D03*
X40100000Y-52400000D03*
X41600000Y-52400000D03*
X51400000Y-53700000D03*
%TO.N,+5VP*%
X30300000Y-57500000D03*
%TO.N,D+*%
X33800000Y-54100000D03*
%TO.N,D-*%
X32200000Y-55500000D03*
%TD*%
D12*
%TO.N,GND*%
X30840302Y-47340302D02*
X35700000Y-52200000D01*
X30828455Y-47340302D02*
X30840302Y-47340302D01*
%TO.N,+5VP*%
X25528455Y-52728455D02*
X30300000Y-57500000D01*
X25440302Y-52728455D02*
X25528455Y-52728455D01*
D13*
%TO.N,D+*%
X29195563Y-49495563D02*
X29122207Y-49495563D01*
X33800000Y-54100000D02*
X29195563Y-49495563D01*
%TO.N,D-*%
X27722207Y-51022207D02*
X27595563Y-51022207D01*
X32200000Y-55500000D02*
X27722207Y-51022207D01*
%TD*%
%TO.N,GND*%
X107399426Y-91168300D02*
X19156610Y-91168300D01*
X19156610Y-67468610D01*
X23756070Y-62869144D01*
X65771400Y-62869144D01*
X65771400Y-63130856D01*
X65822457Y-63387538D01*
X65922610Y-63629328D01*
X66068009Y-63846933D01*
X66253067Y-64031991D01*
X66470672Y-64177390D01*
X66712462Y-64277543D01*
X66969144Y-64328600D01*
X67230856Y-64328600D01*
X67487538Y-64277543D01*
X67729328Y-64177390D01*
X67946933Y-64031991D01*
X68131991Y-63846933D01*
X68277390Y-63629328D01*
X68377543Y-63387538D01*
X68428600Y-63130856D01*
X68428600Y-62869144D01*
X68377543Y-62612462D01*
X68277390Y-62370672D01*
X68131991Y-62153067D01*
X67946933Y-61968009D01*
X67729328Y-61822610D01*
X67487538Y-61722457D01*
X67230856Y-61671400D01*
X66969144Y-61671400D01*
X66712462Y-61722457D01*
X66470672Y-61822610D01*
X66253067Y-61968009D01*
X66068009Y-62153067D01*
X65922610Y-62370672D01*
X65822457Y-62612462D01*
X65771400Y-62869144D01*
X23756070Y-62869144D01*
X26056068Y-60569144D01*
X50271400Y-60569144D01*
X50271400Y-60830856D01*
X50322457Y-61087538D01*
X50422610Y-61329328D01*
X50568009Y-61546933D01*
X50753067Y-61731991D01*
X50970672Y-61877390D01*
X51212462Y-61977543D01*
X51469144Y-62028600D01*
X51730856Y-62028600D01*
X51987538Y-61977543D01*
X52229328Y-61877390D01*
X52446933Y-61731991D01*
X52631991Y-61546933D01*
X52777390Y-61329328D01*
X52877543Y-61087538D01*
X52928600Y-60830856D01*
X52928600Y-60569144D01*
X52877543Y-60312462D01*
X52777390Y-60070672D01*
X52631991Y-59853067D01*
X52446933Y-59668009D01*
X52229328Y-59522610D01*
X51987538Y-59422457D01*
X51730856Y-59371400D01*
X51469144Y-59371400D01*
X51212462Y-59422457D01*
X50970672Y-59522610D01*
X50753067Y-59668009D01*
X50568009Y-59853067D01*
X50422610Y-60070672D01*
X50322457Y-60312462D01*
X50271400Y-60569144D01*
X26056068Y-60569144D01*
X28101201Y-58524009D01*
X28113728Y-58513728D01*
X28124009Y-58501201D01*
X28124014Y-58501196D01*
X28154793Y-58463693D01*
X28185305Y-58406608D01*
X28204094Y-58344667D01*
X28210439Y-58280250D01*
X28204094Y-58215833D01*
X28185305Y-58153892D01*
X28171101Y-58127319D01*
X28154792Y-58096806D01*
X28124014Y-58059303D01*
X28124012Y-58059301D01*
X28113729Y-58046771D01*
X28101197Y-58036486D01*
X19364710Y-49300000D01*
X19977369Y-48687340D01*
X20271455Y-48687340D01*
X20275869Y-48732153D01*
X20288940Y-48775245D01*
X20310167Y-48814958D01*
X20338734Y-48849767D01*
X29318990Y-57830023D01*
X29353799Y-57858590D01*
X29393512Y-57879817D01*
X29436604Y-57892888D01*
X29481417Y-57897302D01*
X29526230Y-57892888D01*
X29569322Y-57879817D01*
X29609035Y-57858590D01*
X29643844Y-57830023D01*
X29831605Y-57642262D01*
X29847461Y-57658118D01*
X29875870Y-57726702D01*
X29928247Y-57805090D01*
X29994910Y-57871753D01*
X30073298Y-57924130D01*
X30160397Y-57960208D01*
X30252862Y-57978600D01*
X30347138Y-57978600D01*
X30439603Y-57960208D01*
X30526702Y-57924130D01*
X30605090Y-57871753D01*
X30671753Y-57805090D01*
X30724130Y-57726702D01*
X30760208Y-57639603D01*
X30778600Y-57547138D01*
X30778600Y-57452862D01*
X30760208Y-57360397D01*
X30724130Y-57273298D01*
X30671753Y-57194910D01*
X30605090Y-57128247D01*
X30526702Y-57075870D01*
X30458118Y-57047461D01*
X30442262Y-57031605D01*
X30541870Y-56931997D01*
X30570437Y-56897188D01*
X30591664Y-56857475D01*
X30604735Y-56814383D01*
X30609149Y-56769570D01*
X30604735Y-56724757D01*
X30591664Y-56681665D01*
X30570437Y-56641952D01*
X30541870Y-56607143D01*
X21561614Y-47626887D01*
X21526805Y-47598320D01*
X21487092Y-47577093D01*
X21444000Y-47564022D01*
X21399187Y-47559608D01*
X21354374Y-47564022D01*
X21311282Y-47577093D01*
X21271569Y-47598320D01*
X21236760Y-47626887D01*
X20338734Y-48524913D01*
X20310167Y-48559722D01*
X20288940Y-48599435D01*
X20275869Y-48642527D01*
X20271455Y-48687340D01*
X19977369Y-48687340D01*
X21459109Y-47205598D01*
X22651223Y-47205598D01*
X22655637Y-47250411D01*
X22668708Y-47293503D01*
X22689935Y-47333216D01*
X22718502Y-47368025D01*
X31249745Y-55899268D01*
X31284554Y-55927835D01*
X31324267Y-55949062D01*
X31367359Y-55962133D01*
X31412172Y-55966547D01*
X31456985Y-55962133D01*
X31500077Y-55949062D01*
X31539790Y-55927835D01*
X31574599Y-55899268D01*
X31767462Y-55706405D01*
X31775870Y-55726702D01*
X31828247Y-55805090D01*
X31894910Y-55871753D01*
X31973298Y-55924130D01*
X32060397Y-55960208D01*
X32152862Y-55978600D01*
X32247138Y-55978600D01*
X32339603Y-55960208D01*
X32426702Y-55924130D01*
X32505090Y-55871753D01*
X32571753Y-55805090D01*
X32624130Y-55726702D01*
X32660208Y-55639603D01*
X32678600Y-55547138D01*
X32678600Y-55452862D01*
X32660208Y-55360397D01*
X32624130Y-55273298D01*
X32571753Y-55194910D01*
X32505090Y-55128247D01*
X32426702Y-55075870D01*
X32406405Y-55067462D01*
X32472624Y-55001243D01*
X32501191Y-54966434D01*
X32522418Y-54926721D01*
X32535489Y-54883629D01*
X32539903Y-54838816D01*
X32535489Y-54794003D01*
X32522418Y-54750911D01*
X32501191Y-54711198D01*
X32472624Y-54676389D01*
X23941381Y-46145146D01*
X23906572Y-46116579D01*
X23866859Y-46095352D01*
X23823767Y-46082281D01*
X23778954Y-46077867D01*
X23734141Y-46082281D01*
X23691049Y-46095352D01*
X23651336Y-46116579D01*
X23616527Y-46145146D01*
X22718502Y-47043171D01*
X22689935Y-47077980D01*
X22668708Y-47117693D01*
X22655637Y-47160785D01*
X22651223Y-47205598D01*
X21459109Y-47205598D01*
X22985751Y-45678954D01*
X24177867Y-45678954D01*
X24182281Y-45723767D01*
X24195352Y-45766859D01*
X24216579Y-45806572D01*
X24245146Y-45841381D01*
X32776389Y-54372624D01*
X32811198Y-54401191D01*
X32850911Y-54422418D01*
X32894003Y-54435489D01*
X32938816Y-54439903D01*
X32983629Y-54435489D01*
X33026721Y-54422418D01*
X33066434Y-54401191D01*
X33101243Y-54372624D01*
X33322284Y-54151583D01*
X33339792Y-54239603D01*
X33375870Y-54326702D01*
X33428247Y-54405090D01*
X33494910Y-54471753D01*
X33573298Y-54524130D01*
X33660397Y-54560208D01*
X33752862Y-54578600D01*
X33847138Y-54578600D01*
X33939603Y-54560208D01*
X34026702Y-54524130D01*
X34105090Y-54471753D01*
X34171753Y-54405090D01*
X34224130Y-54326702D01*
X34260208Y-54239603D01*
X34278600Y-54147138D01*
X34278600Y-54052862D01*
X34260208Y-53960397D01*
X34224130Y-53873298D01*
X34171753Y-53794910D01*
X34105090Y-53728247D01*
X34026702Y-53675870D01*
X33939603Y-53639792D01*
X33851583Y-53622284D01*
X33999268Y-53474599D01*
X34027835Y-53439790D01*
X34049062Y-53400077D01*
X34062133Y-53356985D01*
X34066547Y-53312172D01*
X34062133Y-53267359D01*
X34049062Y-53224267D01*
X34027835Y-53184554D01*
X33999268Y-53149745D01*
X29074380Y-48224857D01*
X30195347Y-48224857D01*
X30195347Y-48431403D01*
X34454479Y-52694534D01*
X34543436Y-52767537D01*
X34644925Y-52821785D01*
X34755047Y-52855190D01*
X34869570Y-52866470D01*
X34984093Y-52855190D01*
X35094215Y-52821785D01*
X35195705Y-52767537D01*
X35284661Y-52694534D01*
X35502678Y-52472518D01*
X35502678Y-52265972D01*
X30828455Y-47591749D01*
X30195347Y-48224857D01*
X29074380Y-48224857D01*
X25468025Y-44618502D01*
X25433216Y-44589935D01*
X25393503Y-44568708D01*
X25350411Y-44555637D01*
X25305598Y-44551223D01*
X25260785Y-44555637D01*
X25217693Y-44568708D01*
X25177980Y-44589935D01*
X25143171Y-44618502D01*
X24245146Y-45516527D01*
X24216579Y-45551336D01*
X24195352Y-45591049D01*
X24182281Y-45634141D01*
X24177867Y-45678954D01*
X22985751Y-45678954D01*
X25307956Y-43356748D01*
X25313567Y-43413710D01*
X25346972Y-43523832D01*
X25401220Y-43625321D01*
X25474223Y-43714278D01*
X29737354Y-47973410D01*
X29943900Y-47973410D01*
X30577008Y-47340302D01*
X31079902Y-47340302D01*
X35754125Y-52014525D01*
X35960671Y-52014525D01*
X36182687Y-51796508D01*
X36255690Y-51707552D01*
X36309938Y-51606062D01*
X36343343Y-51495940D01*
X36354623Y-51381417D01*
X36343343Y-51266894D01*
X36309938Y-51156772D01*
X36255690Y-51055283D01*
X36182687Y-50966326D01*
X31919556Y-46707194D01*
X31713010Y-46707194D01*
X31079902Y-47340302D01*
X30577008Y-47340302D01*
X30562866Y-47326160D01*
X30814313Y-47074713D01*
X30828455Y-47088855D01*
X31461563Y-46455747D01*
X31461563Y-46249201D01*
X27202431Y-41986070D01*
X27113474Y-41913067D01*
X27011985Y-41858819D01*
X26901863Y-41825414D01*
X26844899Y-41819803D01*
X27431532Y-41233171D01*
X36168033Y-49969673D01*
X36178313Y-49982199D01*
X36190838Y-49992478D01*
X36190844Y-49992484D01*
X36228347Y-50023262D01*
X36285432Y-50053774D01*
X36285434Y-50053775D01*
X36347375Y-50072564D01*
X36411791Y-50078909D01*
X36476207Y-50072564D01*
X36538149Y-50053774D01*
X36595234Y-50023262D01*
X36632737Y-49992484D01*
X36632743Y-49992478D01*
X36645269Y-49982198D01*
X36655549Y-49969672D01*
X45599770Y-41025440D01*
X107399783Y-41025440D01*
X107399426Y-91168300D01*
%TA.AperFunction,Conductor*%
D14*
G36*
X107399426Y-91168300D02*
G01*
X19156610Y-91168300D01*
X19156610Y-67468610D01*
X23756070Y-62869144D01*
X65771400Y-62869144D01*
X65771400Y-63130856D01*
X65822457Y-63387538D01*
X65922610Y-63629328D01*
X66068009Y-63846933D01*
X66253067Y-64031991D01*
X66470672Y-64177390D01*
X66712462Y-64277543D01*
X66969144Y-64328600D01*
X67230856Y-64328600D01*
X67487538Y-64277543D01*
X67729328Y-64177390D01*
X67946933Y-64031991D01*
X68131991Y-63846933D01*
X68277390Y-63629328D01*
X68377543Y-63387538D01*
X68428600Y-63130856D01*
X68428600Y-62869144D01*
X68377543Y-62612462D01*
X68277390Y-62370672D01*
X68131991Y-62153067D01*
X67946933Y-61968009D01*
X67729328Y-61822610D01*
X67487538Y-61722457D01*
X67230856Y-61671400D01*
X66969144Y-61671400D01*
X66712462Y-61722457D01*
X66470672Y-61822610D01*
X66253067Y-61968009D01*
X66068009Y-62153067D01*
X65922610Y-62370672D01*
X65822457Y-62612462D01*
X65771400Y-62869144D01*
X23756070Y-62869144D01*
X26056068Y-60569144D01*
X50271400Y-60569144D01*
X50271400Y-60830856D01*
X50322457Y-61087538D01*
X50422610Y-61329328D01*
X50568009Y-61546933D01*
X50753067Y-61731991D01*
X50970672Y-61877390D01*
X51212462Y-61977543D01*
X51469144Y-62028600D01*
X51730856Y-62028600D01*
X51987538Y-61977543D01*
X52229328Y-61877390D01*
X52446933Y-61731991D01*
X52631991Y-61546933D01*
X52777390Y-61329328D01*
X52877543Y-61087538D01*
X52928600Y-60830856D01*
X52928600Y-60569144D01*
X52877543Y-60312462D01*
X52777390Y-60070672D01*
X52631991Y-59853067D01*
X52446933Y-59668009D01*
X52229328Y-59522610D01*
X51987538Y-59422457D01*
X51730856Y-59371400D01*
X51469144Y-59371400D01*
X51212462Y-59422457D01*
X50970672Y-59522610D01*
X50753067Y-59668009D01*
X50568009Y-59853067D01*
X50422610Y-60070672D01*
X50322457Y-60312462D01*
X50271400Y-60569144D01*
X26056068Y-60569144D01*
X28101201Y-58524009D01*
X28113728Y-58513728D01*
X28124009Y-58501201D01*
X28124014Y-58501196D01*
X28154793Y-58463693D01*
X28185305Y-58406608D01*
X28204094Y-58344667D01*
X28210439Y-58280250D01*
X28204094Y-58215833D01*
X28185305Y-58153892D01*
X28171101Y-58127319D01*
X28154792Y-58096806D01*
X28124014Y-58059303D01*
X28124012Y-58059301D01*
X28113729Y-58046771D01*
X28101197Y-58036486D01*
X19364710Y-49300000D01*
X19977369Y-48687340D01*
X20271455Y-48687340D01*
X20275869Y-48732153D01*
X20288940Y-48775245D01*
X20310167Y-48814958D01*
X20338734Y-48849767D01*
X29318990Y-57830023D01*
X29353799Y-57858590D01*
X29393512Y-57879817D01*
X29436604Y-57892888D01*
X29481417Y-57897302D01*
X29526230Y-57892888D01*
X29569322Y-57879817D01*
X29609035Y-57858590D01*
X29643844Y-57830023D01*
X29831605Y-57642262D01*
X29847461Y-57658118D01*
X29875870Y-57726702D01*
X29928247Y-57805090D01*
X29994910Y-57871753D01*
X30073298Y-57924130D01*
X30160397Y-57960208D01*
X30252862Y-57978600D01*
X30347138Y-57978600D01*
X30439603Y-57960208D01*
X30526702Y-57924130D01*
X30605090Y-57871753D01*
X30671753Y-57805090D01*
X30724130Y-57726702D01*
X30760208Y-57639603D01*
X30778600Y-57547138D01*
X30778600Y-57452862D01*
X30760208Y-57360397D01*
X30724130Y-57273298D01*
X30671753Y-57194910D01*
X30605090Y-57128247D01*
X30526702Y-57075870D01*
X30458118Y-57047461D01*
X30442262Y-57031605D01*
X30541870Y-56931997D01*
X30570437Y-56897188D01*
X30591664Y-56857475D01*
X30604735Y-56814383D01*
X30609149Y-56769570D01*
X30604735Y-56724757D01*
X30591664Y-56681665D01*
X30570437Y-56641952D01*
X30541870Y-56607143D01*
X21561614Y-47626887D01*
X21526805Y-47598320D01*
X21487092Y-47577093D01*
X21444000Y-47564022D01*
X21399187Y-47559608D01*
X21354374Y-47564022D01*
X21311282Y-47577093D01*
X21271569Y-47598320D01*
X21236760Y-47626887D01*
X20338734Y-48524913D01*
X20310167Y-48559722D01*
X20288940Y-48599435D01*
X20275869Y-48642527D01*
X20271455Y-48687340D01*
X19977369Y-48687340D01*
X21459109Y-47205598D01*
X22651223Y-47205598D01*
X22655637Y-47250411D01*
X22668708Y-47293503D01*
X22689935Y-47333216D01*
X22718502Y-47368025D01*
X31249745Y-55899268D01*
X31284554Y-55927835D01*
X31324267Y-55949062D01*
X31367359Y-55962133D01*
X31412172Y-55966547D01*
X31456985Y-55962133D01*
X31500077Y-55949062D01*
X31539790Y-55927835D01*
X31574599Y-55899268D01*
X31767462Y-55706405D01*
X31775870Y-55726702D01*
X31828247Y-55805090D01*
X31894910Y-55871753D01*
X31973298Y-55924130D01*
X32060397Y-55960208D01*
X32152862Y-55978600D01*
X32247138Y-55978600D01*
X32339603Y-55960208D01*
X32426702Y-55924130D01*
X32505090Y-55871753D01*
X32571753Y-55805090D01*
X32624130Y-55726702D01*
X32660208Y-55639603D01*
X32678600Y-55547138D01*
X32678600Y-55452862D01*
X32660208Y-55360397D01*
X32624130Y-55273298D01*
X32571753Y-55194910D01*
X32505090Y-55128247D01*
X32426702Y-55075870D01*
X32406405Y-55067462D01*
X32472624Y-55001243D01*
X32501191Y-54966434D01*
X32522418Y-54926721D01*
X32535489Y-54883629D01*
X32539903Y-54838816D01*
X32535489Y-54794003D01*
X32522418Y-54750911D01*
X32501191Y-54711198D01*
X32472624Y-54676389D01*
X23941381Y-46145146D01*
X23906572Y-46116579D01*
X23866859Y-46095352D01*
X23823767Y-46082281D01*
X23778954Y-46077867D01*
X23734141Y-46082281D01*
X23691049Y-46095352D01*
X23651336Y-46116579D01*
X23616527Y-46145146D01*
X22718502Y-47043171D01*
X22689935Y-47077980D01*
X22668708Y-47117693D01*
X22655637Y-47160785D01*
X22651223Y-47205598D01*
X21459109Y-47205598D01*
X22985751Y-45678954D01*
X24177867Y-45678954D01*
X24182281Y-45723767D01*
X24195352Y-45766859D01*
X24216579Y-45806572D01*
X24245146Y-45841381D01*
X32776389Y-54372624D01*
X32811198Y-54401191D01*
X32850911Y-54422418D01*
X32894003Y-54435489D01*
X32938816Y-54439903D01*
X32983629Y-54435489D01*
X33026721Y-54422418D01*
X33066434Y-54401191D01*
X33101243Y-54372624D01*
X33322284Y-54151583D01*
X33339792Y-54239603D01*
X33375870Y-54326702D01*
X33428247Y-54405090D01*
X33494910Y-54471753D01*
X33573298Y-54524130D01*
X33660397Y-54560208D01*
X33752862Y-54578600D01*
X33847138Y-54578600D01*
X33939603Y-54560208D01*
X34026702Y-54524130D01*
X34105090Y-54471753D01*
X34171753Y-54405090D01*
X34224130Y-54326702D01*
X34260208Y-54239603D01*
X34278600Y-54147138D01*
X34278600Y-54052862D01*
X34260208Y-53960397D01*
X34224130Y-53873298D01*
X34171753Y-53794910D01*
X34105090Y-53728247D01*
X34026702Y-53675870D01*
X33939603Y-53639792D01*
X33851583Y-53622284D01*
X33999268Y-53474599D01*
X34027835Y-53439790D01*
X34049062Y-53400077D01*
X34062133Y-53356985D01*
X34066547Y-53312172D01*
X34062133Y-53267359D01*
X34049062Y-53224267D01*
X34027835Y-53184554D01*
X33999268Y-53149745D01*
X29074380Y-48224857D01*
X30195347Y-48224857D01*
X30195347Y-48431403D01*
X34454479Y-52694534D01*
X34543436Y-52767537D01*
X34644925Y-52821785D01*
X34755047Y-52855190D01*
X34869570Y-52866470D01*
X34984093Y-52855190D01*
X35094215Y-52821785D01*
X35195705Y-52767537D01*
X35284661Y-52694534D01*
X35502678Y-52472518D01*
X35502678Y-52265972D01*
X30828455Y-47591749D01*
X30195347Y-48224857D01*
X29074380Y-48224857D01*
X25468025Y-44618502D01*
X25433216Y-44589935D01*
X25393503Y-44568708D01*
X25350411Y-44555637D01*
X25305598Y-44551223D01*
X25260785Y-44555637D01*
X25217693Y-44568708D01*
X25177980Y-44589935D01*
X25143171Y-44618502D01*
X24245146Y-45516527D01*
X24216579Y-45551336D01*
X24195352Y-45591049D01*
X24182281Y-45634141D01*
X24177867Y-45678954D01*
X22985751Y-45678954D01*
X25307956Y-43356748D01*
X25313567Y-43413710D01*
X25346972Y-43523832D01*
X25401220Y-43625321D01*
X25474223Y-43714278D01*
X29737354Y-47973410D01*
X29943900Y-47973410D01*
X30577008Y-47340302D01*
X31079902Y-47340302D01*
X35754125Y-52014525D01*
X35960671Y-52014525D01*
X36182687Y-51796508D01*
X36255690Y-51707552D01*
X36309938Y-51606062D01*
X36343343Y-51495940D01*
X36354623Y-51381417D01*
X36343343Y-51266894D01*
X36309938Y-51156772D01*
X36255690Y-51055283D01*
X36182687Y-50966326D01*
X31919556Y-46707194D01*
X31713010Y-46707194D01*
X31079902Y-47340302D01*
X30577008Y-47340302D01*
X30562866Y-47326160D01*
X30814313Y-47074713D01*
X30828455Y-47088855D01*
X31461563Y-46455747D01*
X31461563Y-46249201D01*
X27202431Y-41986070D01*
X27113474Y-41913067D01*
X27011985Y-41858819D01*
X26901863Y-41825414D01*
X26844899Y-41819803D01*
X27431532Y-41233171D01*
X36168033Y-49969673D01*
X36178313Y-49982199D01*
X36190838Y-49992478D01*
X36190844Y-49992484D01*
X36228347Y-50023262D01*
X36285432Y-50053774D01*
X36285434Y-50053775D01*
X36347375Y-50072564D01*
X36411791Y-50078909D01*
X36476207Y-50072564D01*
X36538149Y-50053774D01*
X36595234Y-50023262D01*
X36632737Y-49992484D01*
X36632743Y-49992478D01*
X36645269Y-49982198D01*
X36655549Y-49969672D01*
X45599770Y-41025440D01*
X107399783Y-41025440D01*
X107399426Y-91168300D01*
G37*
%TD.AperFunction*%
%TD*%
M02*
