%TF.GenerationSoftware,KiCad,Pcbnew,(5.1.8)-1*%
%TF.CreationDate,2021-04-26T00:43:02-04:00*%
%TF.ProjectId,Dogekey,446f6765-6b65-4792-9e6b-696361645f70,rev?*%
%TF.SameCoordinates,Original*%
%TF.FileFunction,Soldermask,Bot*%
%TF.FilePolarity,Negative*%
%FSLAX46Y46*%
G04 Gerber Fmt 4.6, Leading zero omitted, Abs format (unit mm)*
G04 Created by KiCad (PCBNEW (5.1.8)-1) date 2021-04-26 00:43:02*
%MOMM*%
%LPD*%
G01*
G04 APERTURE LIST*
%ADD10R,0.270000X0.750000*%
%ADD11R,3.600000X3.600000*%
%ADD12R,1.060000X0.650000*%
%ADD13R,1.400000X1.250000*%
%ADD14C,2.200000*%
%ADD15C,1.500000*%
G04 APERTURE END LIST*
D10*
%TO.C,U3*%
X35050000Y-61850000D03*
X34550000Y-61850000D03*
X34050000Y-61850000D03*
X33550000Y-61850000D03*
X33550000Y-58950000D03*
X34050000Y-58950000D03*
X34550000Y-58950000D03*
X35050000Y-58950000D03*
%TD*%
%TO.C,C1*%
G36*
G01*
X39825000Y-54525000D02*
X40375000Y-54525000D01*
G75*
G02*
X40575000Y-54725000I0J-200000D01*
G01*
X40575000Y-55125000D01*
G75*
G02*
X40375000Y-55325000I-200000J0D01*
G01*
X39825000Y-55325000D01*
G75*
G02*
X39625000Y-55125000I0J200000D01*
G01*
X39625000Y-54725000D01*
G75*
G02*
X39825000Y-54525000I200000J0D01*
G01*
G37*
G36*
G01*
X39825000Y-52875000D02*
X40375000Y-52875000D01*
G75*
G02*
X40575000Y-53075000I0J-200000D01*
G01*
X40575000Y-53475000D01*
G75*
G02*
X40375000Y-53675000I-200000J0D01*
G01*
X39825000Y-53675000D01*
G75*
G02*
X39625000Y-53475000I0J200000D01*
G01*
X39625000Y-53075000D01*
G75*
G02*
X39825000Y-52875000I200000J0D01*
G01*
G37*
%TD*%
%TO.C,C2*%
G36*
G01*
X42625000Y-65225000D02*
X42625000Y-65775000D01*
G75*
G02*
X42425000Y-65975000I-200000J0D01*
G01*
X42025000Y-65975000D01*
G75*
G02*
X41825000Y-65775000I0J200000D01*
G01*
X41825000Y-65225000D01*
G75*
G02*
X42025000Y-65025000I200000J0D01*
G01*
X42425000Y-65025000D01*
G75*
G02*
X42625000Y-65225000I0J-200000D01*
G01*
G37*
G36*
G01*
X40975000Y-65225000D02*
X40975000Y-65775000D01*
G75*
G02*
X40775000Y-65975000I-200000J0D01*
G01*
X40375000Y-65975000D01*
G75*
G02*
X40175000Y-65775000I0J200000D01*
G01*
X40175000Y-65225000D01*
G75*
G02*
X40375000Y-65025000I200000J0D01*
G01*
X40775000Y-65025000D01*
G75*
G02*
X40975000Y-65225000I0J-200000D01*
G01*
G37*
%TD*%
%TO.C,C3*%
G36*
G01*
X41875000Y-55325000D02*
X41325000Y-55325000D01*
G75*
G02*
X41125000Y-55125000I0J200000D01*
G01*
X41125000Y-54725000D01*
G75*
G02*
X41325000Y-54525000I200000J0D01*
G01*
X41875000Y-54525000D01*
G75*
G02*
X42075000Y-54725000I0J-200000D01*
G01*
X42075000Y-55125000D01*
G75*
G02*
X41875000Y-55325000I-200000J0D01*
G01*
G37*
G36*
G01*
X41875000Y-53675000D02*
X41325000Y-53675000D01*
G75*
G02*
X41125000Y-53475000I0J200000D01*
G01*
X41125000Y-53075000D01*
G75*
G02*
X41325000Y-52875000I200000J0D01*
G01*
X41875000Y-52875000D01*
G75*
G02*
X42075000Y-53075000I0J-200000D01*
G01*
X42075000Y-53475000D01*
G75*
G02*
X41875000Y-53675000I-200000J0D01*
G01*
G37*
%TD*%
%TO.C,C6*%
G36*
G01*
X27875000Y-64825000D02*
X27875000Y-65375000D01*
G75*
G02*
X27675000Y-65575000I-200000J0D01*
G01*
X27275000Y-65575000D01*
G75*
G02*
X27075000Y-65375000I0J200000D01*
G01*
X27075000Y-64825000D01*
G75*
G02*
X27275000Y-64625000I200000J0D01*
G01*
X27675000Y-64625000D01*
G75*
G02*
X27875000Y-64825000I0J-200000D01*
G01*
G37*
G36*
G01*
X29525000Y-64825000D02*
X29525000Y-65375000D01*
G75*
G02*
X29325000Y-65575000I-200000J0D01*
G01*
X28925000Y-65575000D01*
G75*
G02*
X28725000Y-65375000I0J200000D01*
G01*
X28725000Y-64825000D01*
G75*
G02*
X28925000Y-64625000I200000J0D01*
G01*
X29325000Y-64625000D01*
G75*
G02*
X29525000Y-64825000I0J-200000D01*
G01*
G37*
%TD*%
%TO.C,C7*%
G36*
G01*
X32525000Y-64825000D02*
X32525000Y-65375000D01*
G75*
G02*
X32325000Y-65575000I-200000J0D01*
G01*
X31925000Y-65575000D01*
G75*
G02*
X31725000Y-65375000I0J200000D01*
G01*
X31725000Y-64825000D01*
G75*
G02*
X31925000Y-64625000I200000J0D01*
G01*
X32325000Y-64625000D01*
G75*
G02*
X32525000Y-64825000I0J-200000D01*
G01*
G37*
G36*
G01*
X30875000Y-64825000D02*
X30875000Y-65375000D01*
G75*
G02*
X30675000Y-65575000I-200000J0D01*
G01*
X30275000Y-65575000D01*
G75*
G02*
X30075000Y-65375000I0J200000D01*
G01*
X30075000Y-64825000D01*
G75*
G02*
X30275000Y-64625000I200000J0D01*
G01*
X30675000Y-64625000D01*
G75*
G02*
X30875000Y-64825000I0J-200000D01*
G01*
G37*
%TD*%
%TO.C,R1*%
G36*
G01*
X27925000Y-61575000D02*
X28475000Y-61575000D01*
G75*
G02*
X28675000Y-61775000I0J-200000D01*
G01*
X28675000Y-62175000D01*
G75*
G02*
X28475000Y-62375000I-200000J0D01*
G01*
X27925000Y-62375000D01*
G75*
G02*
X27725000Y-62175000I0J200000D01*
G01*
X27725000Y-61775000D01*
G75*
G02*
X27925000Y-61575000I200000J0D01*
G01*
G37*
G36*
G01*
X27925000Y-63225000D02*
X28475000Y-63225000D01*
G75*
G02*
X28675000Y-63425000I0J-200000D01*
G01*
X28675000Y-63825000D01*
G75*
G02*
X28475000Y-64025000I-200000J0D01*
G01*
X27925000Y-64025000D01*
G75*
G02*
X27725000Y-63825000I0J200000D01*
G01*
X27725000Y-63425000D01*
G75*
G02*
X27925000Y-63225000I200000J0D01*
G01*
G37*
%TD*%
%TO.C,R2*%
G36*
G01*
X40975000Y-63725000D02*
X40975000Y-64275000D01*
G75*
G02*
X40775000Y-64475000I-200000J0D01*
G01*
X40375000Y-64475000D01*
G75*
G02*
X40175000Y-64275000I0J200000D01*
G01*
X40175000Y-63725000D01*
G75*
G02*
X40375000Y-63525000I200000J0D01*
G01*
X40775000Y-63525000D01*
G75*
G02*
X40975000Y-63725000I0J-200000D01*
G01*
G37*
G36*
G01*
X42625000Y-63725000D02*
X42625000Y-64275000D01*
G75*
G02*
X42425000Y-64475000I-200000J0D01*
G01*
X42025000Y-64475000D01*
G75*
G02*
X41825000Y-64275000I0J200000D01*
G01*
X41825000Y-63725000D01*
G75*
G02*
X42025000Y-63525000I200000J0D01*
G01*
X42425000Y-63525000D01*
G75*
G02*
X42625000Y-63725000I0J-200000D01*
G01*
G37*
%TD*%
%TO.C,R3*%
G36*
G01*
X50125000Y-62025000D02*
X50125000Y-62575000D01*
G75*
G02*
X49925000Y-62775000I-200000J0D01*
G01*
X49525000Y-62775000D01*
G75*
G02*
X49325000Y-62575000I0J200000D01*
G01*
X49325000Y-62025000D01*
G75*
G02*
X49525000Y-61825000I200000J0D01*
G01*
X49925000Y-61825000D01*
G75*
G02*
X50125000Y-62025000I0J-200000D01*
G01*
G37*
G36*
G01*
X48475000Y-62025000D02*
X48475000Y-62575000D01*
G75*
G02*
X48275000Y-62775000I-200000J0D01*
G01*
X47875000Y-62775000D01*
G75*
G02*
X47675000Y-62575000I0J200000D01*
G01*
X47675000Y-62025000D01*
G75*
G02*
X47875000Y-61825000I200000J0D01*
G01*
X48275000Y-61825000D01*
G75*
G02*
X48475000Y-62025000I0J-200000D01*
G01*
G37*
%TD*%
%TO.C,R4*%
G36*
G01*
X62375000Y-62725000D02*
X62375000Y-63275000D01*
G75*
G02*
X62175000Y-63475000I-200000J0D01*
G01*
X61775000Y-63475000D01*
G75*
G02*
X61575000Y-63275000I0J200000D01*
G01*
X61575000Y-62725000D01*
G75*
G02*
X61775000Y-62525000I200000J0D01*
G01*
X62175000Y-62525000D01*
G75*
G02*
X62375000Y-62725000I0J-200000D01*
G01*
G37*
G36*
G01*
X64025000Y-62725000D02*
X64025000Y-63275000D01*
G75*
G02*
X63825000Y-63475000I-200000J0D01*
G01*
X63425000Y-63475000D01*
G75*
G02*
X63225000Y-63275000I0J200000D01*
G01*
X63225000Y-62725000D01*
G75*
G02*
X63425000Y-62525000I200000J0D01*
G01*
X63825000Y-62525000D01*
G75*
G02*
X64025000Y-62725000I0J-200000D01*
G01*
G37*
%TD*%
%TO.C,R5*%
G36*
G01*
X38875000Y-53675000D02*
X38325000Y-53675000D01*
G75*
G02*
X38125000Y-53475000I0J200000D01*
G01*
X38125000Y-53075000D01*
G75*
G02*
X38325000Y-52875000I200000J0D01*
G01*
X38875000Y-52875000D01*
G75*
G02*
X39075000Y-53075000I0J-200000D01*
G01*
X39075000Y-53475000D01*
G75*
G02*
X38875000Y-53675000I-200000J0D01*
G01*
G37*
G36*
G01*
X38875000Y-55325000D02*
X38325000Y-55325000D01*
G75*
G02*
X38125000Y-55125000I0J200000D01*
G01*
X38125000Y-54725000D01*
G75*
G02*
X38325000Y-54525000I200000J0D01*
G01*
X38875000Y-54525000D01*
G75*
G02*
X39075000Y-54725000I0J-200000D01*
G01*
X39075000Y-55125000D01*
G75*
G02*
X38875000Y-55325000I-200000J0D01*
G01*
G37*
%TD*%
%TO.C,U1*%
G36*
G01*
X42750000Y-57687500D02*
X42750000Y-57812500D01*
G75*
G02*
X42687500Y-57875000I-62500J0D01*
G01*
X42012500Y-57875000D01*
G75*
G02*
X41950000Y-57812500I0J62500D01*
G01*
X41950000Y-57687500D01*
G75*
G02*
X42012500Y-57625000I62500J0D01*
G01*
X42687500Y-57625000D01*
G75*
G02*
X42750000Y-57687500I0J-62500D01*
G01*
G37*
G36*
G01*
X42750000Y-58187500D02*
X42750000Y-58312500D01*
G75*
G02*
X42687500Y-58375000I-62500J0D01*
G01*
X42012500Y-58375000D01*
G75*
G02*
X41950000Y-58312500I0J62500D01*
G01*
X41950000Y-58187500D01*
G75*
G02*
X42012500Y-58125000I62500J0D01*
G01*
X42687500Y-58125000D01*
G75*
G02*
X42750000Y-58187500I0J-62500D01*
G01*
G37*
G36*
G01*
X42750000Y-58687500D02*
X42750000Y-58812500D01*
G75*
G02*
X42687500Y-58875000I-62500J0D01*
G01*
X42012500Y-58875000D01*
G75*
G02*
X41950000Y-58812500I0J62500D01*
G01*
X41950000Y-58687500D01*
G75*
G02*
X42012500Y-58625000I62500J0D01*
G01*
X42687500Y-58625000D01*
G75*
G02*
X42750000Y-58687500I0J-62500D01*
G01*
G37*
G36*
G01*
X42750000Y-59187500D02*
X42750000Y-59312500D01*
G75*
G02*
X42687500Y-59375000I-62500J0D01*
G01*
X42012500Y-59375000D01*
G75*
G02*
X41950000Y-59312500I0J62500D01*
G01*
X41950000Y-59187500D01*
G75*
G02*
X42012500Y-59125000I62500J0D01*
G01*
X42687500Y-59125000D01*
G75*
G02*
X42750000Y-59187500I0J-62500D01*
G01*
G37*
G36*
G01*
X42750000Y-59687500D02*
X42750000Y-59812500D01*
G75*
G02*
X42687500Y-59875000I-62500J0D01*
G01*
X42012500Y-59875000D01*
G75*
G02*
X41950000Y-59812500I0J62500D01*
G01*
X41950000Y-59687500D01*
G75*
G02*
X42012500Y-59625000I62500J0D01*
G01*
X42687500Y-59625000D01*
G75*
G02*
X42750000Y-59687500I0J-62500D01*
G01*
G37*
G36*
G01*
X42750000Y-60187500D02*
X42750000Y-60312500D01*
G75*
G02*
X42687500Y-60375000I-62500J0D01*
G01*
X42012500Y-60375000D01*
G75*
G02*
X41950000Y-60312500I0J62500D01*
G01*
X41950000Y-60187500D01*
G75*
G02*
X42012500Y-60125000I62500J0D01*
G01*
X42687500Y-60125000D01*
G75*
G02*
X42750000Y-60187500I0J-62500D01*
G01*
G37*
G36*
G01*
X42750000Y-60687500D02*
X42750000Y-60812500D01*
G75*
G02*
X42687500Y-60875000I-62500J0D01*
G01*
X42012500Y-60875000D01*
G75*
G02*
X41950000Y-60812500I0J62500D01*
G01*
X41950000Y-60687500D01*
G75*
G02*
X42012500Y-60625000I62500J0D01*
G01*
X42687500Y-60625000D01*
G75*
G02*
X42750000Y-60687500I0J-62500D01*
G01*
G37*
G36*
G01*
X42750000Y-61187500D02*
X42750000Y-61312500D01*
G75*
G02*
X42687500Y-61375000I-62500J0D01*
G01*
X42012500Y-61375000D01*
G75*
G02*
X41950000Y-61312500I0J62500D01*
G01*
X41950000Y-61187500D01*
G75*
G02*
X42012500Y-61125000I62500J0D01*
G01*
X42687500Y-61125000D01*
G75*
G02*
X42750000Y-61187500I0J-62500D01*
G01*
G37*
G36*
G01*
X41775000Y-61612500D02*
X41775000Y-62287500D01*
G75*
G02*
X41712500Y-62350000I-62500J0D01*
G01*
X41587500Y-62350000D01*
G75*
G02*
X41525000Y-62287500I0J62500D01*
G01*
X41525000Y-61612500D01*
G75*
G02*
X41587500Y-61550000I62500J0D01*
G01*
X41712500Y-61550000D01*
G75*
G02*
X41775000Y-61612500I0J-62500D01*
G01*
G37*
G36*
G01*
X41275000Y-61612500D02*
X41275000Y-62287500D01*
G75*
G02*
X41212500Y-62350000I-62500J0D01*
G01*
X41087500Y-62350000D01*
G75*
G02*
X41025000Y-62287500I0J62500D01*
G01*
X41025000Y-61612500D01*
G75*
G02*
X41087500Y-61550000I62500J0D01*
G01*
X41212500Y-61550000D01*
G75*
G02*
X41275000Y-61612500I0J-62500D01*
G01*
G37*
G36*
G01*
X40775000Y-61612500D02*
X40775000Y-62287500D01*
G75*
G02*
X40712500Y-62350000I-62500J0D01*
G01*
X40587500Y-62350000D01*
G75*
G02*
X40525000Y-62287500I0J62500D01*
G01*
X40525000Y-61612500D01*
G75*
G02*
X40587500Y-61550000I62500J0D01*
G01*
X40712500Y-61550000D01*
G75*
G02*
X40775000Y-61612500I0J-62500D01*
G01*
G37*
G36*
G01*
X40275000Y-61612500D02*
X40275000Y-62287500D01*
G75*
G02*
X40212500Y-62350000I-62500J0D01*
G01*
X40087500Y-62350000D01*
G75*
G02*
X40025000Y-62287500I0J62500D01*
G01*
X40025000Y-61612500D01*
G75*
G02*
X40087500Y-61550000I62500J0D01*
G01*
X40212500Y-61550000D01*
G75*
G02*
X40275000Y-61612500I0J-62500D01*
G01*
G37*
G36*
G01*
X39775000Y-61612500D02*
X39775000Y-62287500D01*
G75*
G02*
X39712500Y-62350000I-62500J0D01*
G01*
X39587500Y-62350000D01*
G75*
G02*
X39525000Y-62287500I0J62500D01*
G01*
X39525000Y-61612500D01*
G75*
G02*
X39587500Y-61550000I62500J0D01*
G01*
X39712500Y-61550000D01*
G75*
G02*
X39775000Y-61612500I0J-62500D01*
G01*
G37*
G36*
G01*
X39275000Y-61612500D02*
X39275000Y-62287500D01*
G75*
G02*
X39212500Y-62350000I-62500J0D01*
G01*
X39087500Y-62350000D01*
G75*
G02*
X39025000Y-62287500I0J62500D01*
G01*
X39025000Y-61612500D01*
G75*
G02*
X39087500Y-61550000I62500J0D01*
G01*
X39212500Y-61550000D01*
G75*
G02*
X39275000Y-61612500I0J-62500D01*
G01*
G37*
G36*
G01*
X38775000Y-61612500D02*
X38775000Y-62287500D01*
G75*
G02*
X38712500Y-62350000I-62500J0D01*
G01*
X38587500Y-62350000D01*
G75*
G02*
X38525000Y-62287500I0J62500D01*
G01*
X38525000Y-61612500D01*
G75*
G02*
X38587500Y-61550000I62500J0D01*
G01*
X38712500Y-61550000D01*
G75*
G02*
X38775000Y-61612500I0J-62500D01*
G01*
G37*
G36*
G01*
X38275000Y-61612500D02*
X38275000Y-62287500D01*
G75*
G02*
X38212500Y-62350000I-62500J0D01*
G01*
X38087500Y-62350000D01*
G75*
G02*
X38025000Y-62287500I0J62500D01*
G01*
X38025000Y-61612500D01*
G75*
G02*
X38087500Y-61550000I62500J0D01*
G01*
X38212500Y-61550000D01*
G75*
G02*
X38275000Y-61612500I0J-62500D01*
G01*
G37*
G36*
G01*
X37850000Y-61187500D02*
X37850000Y-61312500D01*
G75*
G02*
X37787500Y-61375000I-62500J0D01*
G01*
X37112500Y-61375000D01*
G75*
G02*
X37050000Y-61312500I0J62500D01*
G01*
X37050000Y-61187500D01*
G75*
G02*
X37112500Y-61125000I62500J0D01*
G01*
X37787500Y-61125000D01*
G75*
G02*
X37850000Y-61187500I0J-62500D01*
G01*
G37*
G36*
G01*
X37850000Y-60687500D02*
X37850000Y-60812500D01*
G75*
G02*
X37787500Y-60875000I-62500J0D01*
G01*
X37112500Y-60875000D01*
G75*
G02*
X37050000Y-60812500I0J62500D01*
G01*
X37050000Y-60687500D01*
G75*
G02*
X37112500Y-60625000I62500J0D01*
G01*
X37787500Y-60625000D01*
G75*
G02*
X37850000Y-60687500I0J-62500D01*
G01*
G37*
G36*
G01*
X37850000Y-60187500D02*
X37850000Y-60312500D01*
G75*
G02*
X37787500Y-60375000I-62500J0D01*
G01*
X37112500Y-60375000D01*
G75*
G02*
X37050000Y-60312500I0J62500D01*
G01*
X37050000Y-60187500D01*
G75*
G02*
X37112500Y-60125000I62500J0D01*
G01*
X37787500Y-60125000D01*
G75*
G02*
X37850000Y-60187500I0J-62500D01*
G01*
G37*
G36*
G01*
X37850000Y-59687500D02*
X37850000Y-59812500D01*
G75*
G02*
X37787500Y-59875000I-62500J0D01*
G01*
X37112500Y-59875000D01*
G75*
G02*
X37050000Y-59812500I0J62500D01*
G01*
X37050000Y-59687500D01*
G75*
G02*
X37112500Y-59625000I62500J0D01*
G01*
X37787500Y-59625000D01*
G75*
G02*
X37850000Y-59687500I0J-62500D01*
G01*
G37*
G36*
G01*
X37850000Y-59187500D02*
X37850000Y-59312500D01*
G75*
G02*
X37787500Y-59375000I-62500J0D01*
G01*
X37112500Y-59375000D01*
G75*
G02*
X37050000Y-59312500I0J62500D01*
G01*
X37050000Y-59187500D01*
G75*
G02*
X37112500Y-59125000I62500J0D01*
G01*
X37787500Y-59125000D01*
G75*
G02*
X37850000Y-59187500I0J-62500D01*
G01*
G37*
G36*
G01*
X37850000Y-58687500D02*
X37850000Y-58812500D01*
G75*
G02*
X37787500Y-58875000I-62500J0D01*
G01*
X37112500Y-58875000D01*
G75*
G02*
X37050000Y-58812500I0J62500D01*
G01*
X37050000Y-58687500D01*
G75*
G02*
X37112500Y-58625000I62500J0D01*
G01*
X37787500Y-58625000D01*
G75*
G02*
X37850000Y-58687500I0J-62500D01*
G01*
G37*
G36*
G01*
X37850000Y-58187500D02*
X37850000Y-58312500D01*
G75*
G02*
X37787500Y-58375000I-62500J0D01*
G01*
X37112500Y-58375000D01*
G75*
G02*
X37050000Y-58312500I0J62500D01*
G01*
X37050000Y-58187500D01*
G75*
G02*
X37112500Y-58125000I62500J0D01*
G01*
X37787500Y-58125000D01*
G75*
G02*
X37850000Y-58187500I0J-62500D01*
G01*
G37*
G36*
G01*
X37850000Y-57687500D02*
X37850000Y-57812500D01*
G75*
G02*
X37787500Y-57875000I-62500J0D01*
G01*
X37112500Y-57875000D01*
G75*
G02*
X37050000Y-57812500I0J62500D01*
G01*
X37050000Y-57687500D01*
G75*
G02*
X37112500Y-57625000I62500J0D01*
G01*
X37787500Y-57625000D01*
G75*
G02*
X37850000Y-57687500I0J-62500D01*
G01*
G37*
G36*
G01*
X38275000Y-56712500D02*
X38275000Y-57387500D01*
G75*
G02*
X38212500Y-57450000I-62500J0D01*
G01*
X38087500Y-57450000D01*
G75*
G02*
X38025000Y-57387500I0J62500D01*
G01*
X38025000Y-56712500D01*
G75*
G02*
X38087500Y-56650000I62500J0D01*
G01*
X38212500Y-56650000D01*
G75*
G02*
X38275000Y-56712500I0J-62500D01*
G01*
G37*
G36*
G01*
X38775000Y-56712500D02*
X38775000Y-57387500D01*
G75*
G02*
X38712500Y-57450000I-62500J0D01*
G01*
X38587500Y-57450000D01*
G75*
G02*
X38525000Y-57387500I0J62500D01*
G01*
X38525000Y-56712500D01*
G75*
G02*
X38587500Y-56650000I62500J0D01*
G01*
X38712500Y-56650000D01*
G75*
G02*
X38775000Y-56712500I0J-62500D01*
G01*
G37*
G36*
G01*
X39275000Y-56712500D02*
X39275000Y-57387500D01*
G75*
G02*
X39212500Y-57450000I-62500J0D01*
G01*
X39087500Y-57450000D01*
G75*
G02*
X39025000Y-57387500I0J62500D01*
G01*
X39025000Y-56712500D01*
G75*
G02*
X39087500Y-56650000I62500J0D01*
G01*
X39212500Y-56650000D01*
G75*
G02*
X39275000Y-56712500I0J-62500D01*
G01*
G37*
G36*
G01*
X39775000Y-56712500D02*
X39775000Y-57387500D01*
G75*
G02*
X39712500Y-57450000I-62500J0D01*
G01*
X39587500Y-57450000D01*
G75*
G02*
X39525000Y-57387500I0J62500D01*
G01*
X39525000Y-56712500D01*
G75*
G02*
X39587500Y-56650000I62500J0D01*
G01*
X39712500Y-56650000D01*
G75*
G02*
X39775000Y-56712500I0J-62500D01*
G01*
G37*
G36*
G01*
X40275000Y-56712500D02*
X40275000Y-57387500D01*
G75*
G02*
X40212500Y-57450000I-62500J0D01*
G01*
X40087500Y-57450000D01*
G75*
G02*
X40025000Y-57387500I0J62500D01*
G01*
X40025000Y-56712500D01*
G75*
G02*
X40087500Y-56650000I62500J0D01*
G01*
X40212500Y-56650000D01*
G75*
G02*
X40275000Y-56712500I0J-62500D01*
G01*
G37*
G36*
G01*
X40775000Y-56712500D02*
X40775000Y-57387500D01*
G75*
G02*
X40712500Y-57450000I-62500J0D01*
G01*
X40587500Y-57450000D01*
G75*
G02*
X40525000Y-57387500I0J62500D01*
G01*
X40525000Y-56712500D01*
G75*
G02*
X40587500Y-56650000I62500J0D01*
G01*
X40712500Y-56650000D01*
G75*
G02*
X40775000Y-56712500I0J-62500D01*
G01*
G37*
G36*
G01*
X41275000Y-56712500D02*
X41275000Y-57387500D01*
G75*
G02*
X41212500Y-57450000I-62500J0D01*
G01*
X41087500Y-57450000D01*
G75*
G02*
X41025000Y-57387500I0J62500D01*
G01*
X41025000Y-56712500D01*
G75*
G02*
X41087500Y-56650000I62500J0D01*
G01*
X41212500Y-56650000D01*
G75*
G02*
X41275000Y-56712500I0J-62500D01*
G01*
G37*
G36*
G01*
X41775000Y-56712500D02*
X41775000Y-57387500D01*
G75*
G02*
X41712500Y-57450000I-62500J0D01*
G01*
X41587500Y-57450000D01*
G75*
G02*
X41525000Y-57387500I0J62500D01*
G01*
X41525000Y-56712500D01*
G75*
G02*
X41587500Y-56650000I62500J0D01*
G01*
X41712500Y-56650000D01*
G75*
G02*
X41775000Y-56712500I0J-62500D01*
G01*
G37*
D11*
X39900000Y-59500000D03*
%TD*%
D12*
%TO.C,U2*%
X29800000Y-63450000D03*
X29800000Y-62500000D03*
X29800000Y-61550000D03*
X32000000Y-61550000D03*
X32000000Y-63450000D03*
%TD*%
D13*
%TO.C,U4*%
X49750000Y-60700000D03*
X53450000Y-60700000D03*
D14*
X51600000Y-60700000D03*
%TD*%
%TO.C,U5*%
X67100000Y-63000000D03*
D13*
X68950000Y-63000000D03*
X65250000Y-63000000D03*
%TD*%
D15*
%TO.C,TP1*%
X47600000Y-60100000D03*
%TD*%
%TO.C,TP2*%
X49400000Y-58300000D03*
%TD*%
%TO.C,TP3*%
X51200000Y-56500000D03*
%TD*%
%TO.C,TP4*%
X53000000Y-54700000D03*
%TD*%
%TO.C,TP5*%
X36300000Y-54800000D03*
%TD*%
M02*
