<?xml version="1.0" encoding="UTF-8" standalone="no"?>
<svg
   xmlns:dc="http://purl.org/dc/elements/1.1/"
   xmlns:cc="http://creativecommons.org/ns#"
   xmlns:rdf="http://www.w3.org/1999/02/22-rdf-syntax-ns#"
   xmlns:svg="http://www.w3.org/2000/svg"
   xmlns="http://www.w3.org/2000/svg"
   xmlns:sodipodi="http://sodipodi.sourceforge.net/DTD/sodipodi-0.dtd"
   xmlns:inkscape="http://www.inkscape.org/namespaces/inkscape"
   width="100.0mm"
   height="120.0mm"
   viewBox="0 0 100.0 120.0"
   version="1.1"
   id="svg864"
   inkscape:version="1.0.1 (3bc2e813f5, 2020-09-07)"
   sodipodi:docname="adric-pcb-lgoo.svg">
  <defs
     id="defs858" />
  <sodipodi:namedview
     id="base"
     pagecolor="#ffffff"
     bordercolor="#666666"
     borderopacity="1.0"
     inkscape:pageopacity="0.0"
     inkscape:pageshadow="2"
     inkscape:zoom="64"
     inkscape:cx="172.17677"
     inkscape:cy="285.86103"
     inkscape:document-units="mm"
     inkscape:current-layer="g3459"
     inkscape:document-rotation="0"
     showgrid="false"
     inkscape:window-width="1267"
     inkscape:window-height="1009"
     inkscape:window-x="24"
     inkscape:window-y="0"
     inkscape:window-maximized="0" />
  <metadata
     id="metadata861">
    <rdf:RDF>
      <cc:Work
         rdf:about="">
        <dc:format>image/svg+xml</dc:format>
        <dc:type
           rdf:resource="http://purl.org/dc/dcmitype/StillImage" />
        <dc:title></dc:title>
      </cc:Work>
    </rdf:RDF>
  </metadata>
  <g
     inkscape:label="[fixed] BG"
     inkscape:groupmode="layer"
     sodipodi:insensitive="true"
     id="g3455"
     style="display:none">
    <rect
       x="0"
       y="0"
       width="100"
       height="120"
       style="fill:#ffffff;fill-opacity:1;stroke:none"
       id="rect3453" />
  </g>
  <g
     inkscape:label="B.Mask"
     inkscape:groupmode="layer"
     id="g3457"
     style="display:none" />
  <g
     inkscape:label="F.Cu"
     inkscape:groupmode="layer"
     id="g3459"
     style="display:inline">
    <path
       style="color:#000000;font-style:normal;font-variant:normal;font-weight:normal;font-stretch:normal;font-size:medium;line-height:normal;font-family:sans-serif;font-variant-ligatures:normal;font-variant-position:normal;font-variant-caps:normal;font-variant-numeric:normal;font-variant-alternates:normal;font-variant-east-asian:normal;font-feature-settings:normal;font-variation-settings:normal;text-indent:0;text-align:start;text-decoration:none;text-decoration-line:none;text-decoration-style:solid;text-decoration-color:#000000;letter-spacing:normal;word-spacing:normal;text-transform:none;writing-mode:lr-tb;direction:ltr;text-orientation:mixed;dominant-baseline:auto;baseline-shift:baseline;text-anchor:start;white-space:normal;shape-padding:0;shape-margin:0;inline-size:0;clip-rule:nonzero;display:inline;overflow:visible;visibility:visible;opacity:1;isolation:auto;mix-blend-mode:normal;color-interpolation:sRGB;color-interpolation-filters:linearRGB;solid-color:#000000;solid-opacity:1;vector-effect:none;fill:#000000;fill-opacity:1;fill-rule:nonzero;stroke:none;stroke-width:1;stroke-linecap:round;stroke-linejoin:round;stroke-miterlimit:4;stroke-dasharray:none;stroke-dashoffset:0;stroke-opacity:1;paint-order:stroke fill markers;color-rendering:auto;image-rendering:auto;shape-rendering:auto;text-rendering:auto;enable-background:accumulate;stop-color:#000000"
       d="m 45.879759,62.831101 c -5e-4,-5.1e-5 -0.25728,0.04273 -0.25781,0.04297 -2.65e-4,1.21e-4 -0.0798,0.04473 -0.0801,0.04492 -2.91e-4,1.95e-4 -0.04,0.03139 -0.0547,0.04492 -0.0587,0.05413 -0.0777,0.08836 -0.0937,0.115235 -0.064,0.107486 -0.0586,0.127643 -0.0703,0.167969 -0.0235,0.08065 -0.0425,0.167182 -0.0645,0.277343 -0.044,0.220322 -0.0937,0.518983 -0.13672,0.830078 -0.006,0.0443 -0.052,0.337124 -0.0957,0.607422 -0.0221,-0.03065 -0.0447,-0.06489 -0.0644,-0.0918 l -0.18359,-0.25 c -0.1182,-0.161085 -0.32095,-0.236347 -0.51563,-0.191406 -0.0232,-0.03495 -0.0403,-0.05628 -0.0644,-0.09375 -0.0908,-0.140861 -0.1745,-0.268473 -0.24024,-0.363281 -0.0329,-0.0474 -0.0609,-0.08575 -0.0879,-0.121094 -0.0135,-0.01767 -0.0241,-0.03342 -0.0488,-0.06055 -0.0124,-0.01356 -0.024,-0.02863 -0.0703,-0.06445 -0.0116,-0.009 -0.0465,-0.03105 -0.0469,-0.03125 -3.3e-4,-2.01e-4 -0.0915,-0.04483 -0.0918,-0.04492 -2.6e-4,-9.4e-5 -0.20488,-0.02736 -0.20508,-0.02734 -9e-5,6e-6 -0.16203,0.03903 -0.16211,0.03906 -8e-5,3.4e-5 -0.15423,0.103454 -0.15429,0.103516 -6.62e-4,6.64e-4 -10e-4,0.0013 -0.002,0.002 -5e-5,5.8e-5 -0.11324,0.173722 -0.11328,0.173828 -4e-5,1.06e-4 -0.0273,0.103362 -0.0273,0.103515 -5e-5,3.07e-4 -0.007,0.07729 -0.006,0.09766 0.001,0.04074 0.003,0.0564 0.006,0.07031 0.005,0.02783 0.008,0.03982 0.0117,0.05273 0.007,0.02582 0.0137,0.0462 0.0215,0.07227 0.0156,0.05212 0.0353,0.119253 0.0606,0.197266 0.0506,0.156025 0.119989,0.358497 0.189449,0.5625 0.0515,0.151214 0.0981,0.287514 0.14453,0.419922 -0.006,-0.0021 -0.008,-0.003 -0.0176,-0.0059 -0.01,-0.0031 -0.0407,-0.01165 -0.041,-0.01172 -2.91e-4,-6.3e-5 -0.0938,-0.01126 -0.0977,-0.01172 h -0.002 c -0.004,4.77e-4 -0.151939,0.01941 -0.152339,0.01953 -4.24e-4,1.18e-4 -0.0933,0.03687 -0.0937,0.03711 -8.74e-4,4.5e-4 -0.0632,0.04146 -0.0879,0.06055 l -0.0234,-0.01367 c -0.1241,-0.07355 -0.2391,-0.138796 -0.32811,-0.187496 -0.0445,-0.02435 -0.0808,-0.04469 -0.11719,-0.0625 -0.0182,-0.0089 -0.0339,-0.01729 -0.0645,-0.0293 -0.0153,-0.006 -0.0315,-0.01287 -0.0762,-0.02344 -0.0223,-0.0053 -0.11269,-0.01367 -0.11328,-0.01367 -2.91e-4,-3e-6 -0.13261,0.01753 -0.13281,0.01758 -1.1e-4,2.7e-5 -0.10539,0.03902 -0.10547,0.03906 -8e-5,4.1e-5 -0.12299,0.09174 -0.12305,0.0918 -0.003,0.0045 -0.12106,0.199125 -0.12109,0.199219 -3e-5,9.4e-5 -0.0234,0.156122 -0.0234,0.15625 0,2.54e-4 0.0253,0.151961 0.0254,0.152343 2.49e-4,7.68e-4 0.0329,0.08217 0.043,0.09961 0.0202,0.03488 0.0299,0.04626 0.0391,0.05859 0.0183,0.02466 0.0324,0.04095 0.0488,0.06055 0.0329,0.0392 0.0742,0.08412 0.12305,0.138672 0.0976,0.109106 0.22468,0.250206 0.35546,0.390625 0.13079,0.14042 0.26406,0.280099 0.36915,0.388672 0.0525,0.05429 0.0986,0.09942 0.13671,0.13672 0.0191,0.01865 0.0346,0.03478 0.0547,0.05273 0.0101,0.009 0.0207,0.01895 0.0391,0.0332 0.009,0.0071 0.0198,0.0149 0.0391,0.02734 0.01,0.0062 0.0219,0.01434 0.0391,0.02344 0.004,0.0023 0.0114,0.0042 0.0195,0.0078 0.003,0.01929 -0.0193,0.06516 -0.0176,0.08203 0.01,0.09453 0.0559,0.166014 0.0918,0.242187 -0.0199,0.0433 -0.0333,0.09305 -0.0449,0.142579 -0.006,-0.002 -0.0111,-0.0038 -0.0176,-0.0059 -0.16072,-0.05011 -1.1842,-0.378696 -2.24414,-0.720704 -0.53046,-0.171159 -1.01469,-0.326536 -1.36719,-0.439453 -0.17625,-0.05646 -0.31945,-0.100948 -0.41992,-0.132812 -0.0502,-0.01593 -0.0888,-0.02828 -0.11719,-0.03711 -0.0142,-0.0044 -0.025,-0.0087 -0.0351,-0.01172 -0.005,-0.0015 -0.0103,-0.0019 -0.0176,-0.0039 -0.004,-10e-4 -0.008,-0.0036 -0.0176,-0.0059 -0.005,-0.0011 -0.0213,-0.0039 -0.0215,-0.0039 -1.71e-4,-3.4e-5 -0.0995,-0.0098 -0.0996,-0.0098 -2.1e-4,0 -0.171701,0.02923 -0.17188,0.0293 -1.8e-4,6.5e-5 -0.15415,0.08972 -0.1543,0.08984 -1.5e-4,1.28e-4 -0.0956,0.109184 -0.0957,0.109375 -1.2e-4,1.91e-4 -0.0468,0.0935 -0.0469,0.09375 -2e-4,5.03e-4 -0.0258,0.09175 -0.0293,0.121093 -0.004,0.02935 -0.004,0.05091 -0.004,0.06836 8e-4,0.06979 0.009,0.09027 0.0137,0.113281 0.01,0.04603 0.017,0.07419 0.0274,0.107422 0.0208,0.06646 0.0475,0.13901 0.0762,0.214844 0.0286,0.07583 0.0584,0.153155 0.0879,0.220703 0.0147,0.03377 0.03,0.06442 0.0469,0.09766 0.0118,0.02312 0.0427,0.06697 0.0762,0.111328 8.99e-4,0.02075 7e-5,0.04886 0.002,0.0625 0.007,0.05114 0.0148,0.07532 0.0215,0.09766 0.0134,0.04468 0.0248,0.07606 0.0391,0.111329 0.0285,0.07054 0.0645,0.147289 0.10156,0.224609 0.0371,0.07732 0.0741,0.152127 0.11133,0.21875 0.0186,0.03331 0.0365,0.06361 0.0625,0.101562 0.0126,0.01842 0.0256,0.03844 0.0566,0.07227 9.2e-4,0.001 9.89e-4,9.26e-4 0.002,0.002 0.007,0.06858 0.0272,0.135078 0.0606,0.195313 l 0.16211,0.291015 c 0.0471,0.08363 0.0958,0.152432 0.14453,0.220703 -0.0147,0.0067 -0.0303,0.01499 -0.0508,0.02734 -0.022,0.01329 -0.0796,0.05815 -0.0801,0.05859 -4.9e-4,4.5e-4 -0.10327,0.130409 -0.10352,0.130859 -2.4e-4,4.5e-4 -0.0605,0.241731 -0.0605,0.242188 0,9.79e-4 0.008,0.09056 0.0117,0.109375 0.004,0.01882 0.007,0.03105 0.01,0.04102 0.006,0.01993 0.0108,0.03289 0.0156,0.04687 0.01,0.02796 0.0203,0.05643 0.0332,0.08984 0.0259,0.06683 0.0603,0.151629 0.10156,0.251953 0.0825,0.200648 0.19092,0.460086 0.30078,0.716797 0.10987,0.256711 0.22065,0.510071 0.30664,0.703125 0.043,0.09653 0.0802,0.176594 0.10938,0.238281 0.0146,0.03084 0.0249,0.05701 0.0391,0.08398 0.003,0.0052 0.009,0.01379 0.0117,0.01953 0.006,0.02018 0.008,0.06809 0.0137,0.08594 0.0132,0.0422 0.0291,0.08078 0.0449,0.121093 0.0316,0.08064 0.0684,0.166589 0.10743,0.25 0.0391,0.08341 0.077,0.160354 0.11718,0.230469 0.004,0.0076 0.0135,0.02001 0.0176,0.02734 -0.0103,0.05539 -0.0203,0.111584 -0.0273,0.160156 -0.004,0.02904 -0.007,0.05296 -0.01,0.08984 -10e-4,0.01844 -0.004,0.03579 0,0.08594 7e-5,9.79e-4 -7e-5,0.0029 0,0.0039 -0.0227,0.02457 -0.0473,0.02609 -0.0723,0.05859 -0.0769,0.09995 -0.14692,0.336556 -0.10547,0.498047 0.0414,0.161492 0.0991,0.214596 0.12695,0.251953 0.12786,0.171245 0.2275,0.221759 0.34375,0.291016 0.0581,0.03463 0.11474,0.06523 0.19336,0.09375 0.0393,0.01426 0.0824,0.02953 0.16211,0.03711 0.0798,0.0076 0.24842,0.02712 0.42383,-0.148437 6.61e-4,-6.61e-4 10e-4,-0.0013 0.002,-0.002 3.96e-4,-3.97e-4 0.0304,-0.0415 0.0547,-0.07422 0.0882,-0.0071 0.171809,-0.0176 0.251949,-0.0332 0.002,0.01771 0.004,0.03531 0.008,0.05273 l 0.0566,0.228516 c 0.001,0.0065 0.003,0.01305 0.004,0.01953 0.0207,0.08516 0.0424,0.159265 0.0723,0.234375 0.0149,0.03755 0.0257,0.06971 0.0742,0.140625 0.0243,0.03546 0.0452,0.08967 0.17187,0.162109 0.0317,0.01811 0.12245,0.04867 0.12305,0.04883 5.82e-4,1.58e-4 0.17718,0.01568 0.17773,0.01563 5.56e-4,-5.4e-5 0.18699,-0.05637 0.1875,-0.05664 5.03e-4,-2.65e-4 0.1304,-0.09912 0.13086,-0.09961 4.77e-4,-5.03e-4 0.0468,-0.05847 0.0547,-0.07031 0.008,-0.01184 0.0118,-0.01892 0.0156,-0.02539 0.008,-0.01294 0.0122,-0.02133 0.0176,-0.03125 0.0108,-0.01984 0.0237,-0.04243 0.0371,-0.06836 0.0268,-0.05186 0.06,-0.119735 0.10156,-0.203124 0.083,-0.16678 0.19322,-0.390012 0.31055,-0.632813 0.10317,-0.213511 0.20363,-0.415234 0.29102,-0.58789 h 0.59179 0.28125 c -0.0584,0.184447 -0.005,0.386027 0.13672,0.517577 l 0.54297,0.503907 c 0.005,0.0047 0.0103,0.0092 0.0156,0.01367 0.15771,0.146272 0.30308,0.278445 0.41796,0.376953 0.005,0.0045 0.009,0.0073 0.0137,0.01172 -0.006,0.02623 -0.0319,0.0689 -0.0352,0.08984 -0.0192,0.121908 -0.0156,0.209937 -0.0156,0.359375 0,0.146246 -0.009,0.234155 -0.004,0.207031 0.309067,-0.457626 -0.533304,0.625153 -0.54476,0.714843 -0.0225,0.451109 0.27259,0.921942 0.75586,1.095703 0.78855,0.283541 1.59474,-0.442638 1.43164,-1.257812 -0.0526,-0.263023 -0.3134,-0.391534 -0.52539,-0.556641 0.004,0.02196 -0.004,-0.0598 -0.004,-0.203125 0,-0.149438 0.004,-0.237467 -0.0156,-0.359375 -0.004,-0.02402 -0.0313,-0.07235 -0.0391,-0.103516 0.006,-0.0053 0.009,-0.0082 0.0156,-0.01367 0.11136,-0.09788 0.25625,-0.228242 0.41211,-0.371094 l 0.56054,-0.511719 c 0.14104,-0.130379 0.19494,-0.330024 0.13868,-0.513671 h 0.16992 0.53125 c 0.10512,0.21253 0.20778,0.421505 0.35547,0.728516 l 0.38867,0.808593 c 0.20084,0.421553 0.81861,0.362229 0.93555,-0.08984 l 0.0664,-0.257813 0.041,-0.156251 c 0.0267,0.0071 0.056,0.01351 0.0801,0.01953 0.007,0.02508 -0.006,0.03476 0.006,0.0625 0.073,0.165368 0.32134,0.31836 0.49219,0.31836 0.14068,0 0.15296,-0.01959 0.19141,-0.03125 0.0384,-0.01166 0.0713,-0.02339 0.10742,-0.03711 0.0723,-0.02744 0.15008,-0.06129 0.22656,-0.0957 0.0765,-0.03441 0.14922,-0.06851 0.21485,-0.103515 0.0328,-0.0175 0.0623,-0.03431 0.10156,-0.06055 0.0197,-0.01312 0.0424,-0.02563 0.0801,-0.06055 0.0188,-0.01746 0.0415,-0.0388 0.0742,-0.08594 0.0163,-0.02357 0.0544,-0.099 0.0547,-0.09961 2.5e-4,-6.08e-4 0.0371,-0.188937 0.0371,-0.189453 0,-0.153677 -0.0337,-0.207306 -0.0586,-0.265625 -0.0248,-0.05832 -0.0519,-0.106707 -0.082,-0.154297 -0.02,-0.03159 -0.0483,-0.06354 -0.0742,-0.0957 -0.005,-0.02877 0.0121,-0.09301 0.008,-0.115234 0.005,0.02385 -0.0233,-0.182616 -0.0352,-0.324219 -0.006,-0.07061 -0.012,-0.122365 -0.0176,-0.177735 0.005,-0.0099 0.0112,-0.0206 0.0156,-0.0293 0.0139,-0.02745 0.0283,-0.05378 0.043,-0.08594 0.0294,-0.06432 0.0644,-0.146249 0.10547,-0.242188 0.0821,-0.191876 0.18441,-0.440181 0.28516,-0.6875 0.10074,-0.247318 0.19976,-0.493076 0.27343,-0.683593 0.0368,-0.09526 0.067,-0.176035 0.0899,-0.240235 0.0102,-0.02874 0.019,-0.05344 0.0273,-0.08008 0.002,-0.0036 0.006,-0.01014 0.008,-0.01367 0.0233,-0.03732 0.0414,-0.06873 0.0606,-0.105468 0.0384,-0.07348 0.0791,-0.159924 0.11914,-0.248047 0.0401,-0.08812 0.078,-0.176204 0.10938,-0.25586 0.0157,-0.03983 0.0301,-0.07751 0.043,-0.117187 0.0129,-0.03968 0.0371,-0.03427 0.0371,-0.203125 0,-4.5e-4 -0.0662,-0.249555 -0.0664,-0.25 -2.6e-4,-4.5e-4 -0.10692,-0.13042 -0.10742,-0.130859 -5.03e-4,-4.5e-4 -0.0583,-0.044 -0.0801,-0.05664 -0.0218,-0.01264 -0.0395,-0.02077 -0.0547,-0.02734 0.073,-0.09993 0.13445,-0.194921 0.18945,-0.296875 0.0344,-0.06368 0.065,-0.122176 0.0918,-0.183594 0.0134,-0.03071 0.0245,-0.05931 0.0391,-0.109375 0.005,-0.01824 0.0106,-0.05022 0.0156,-0.08398 0.0479,-0.041 0.0877,-0.0907 0.11719,-0.146484 l 0.13939,-0.269396 c 0.0444,-0.08463 0.0832,-0.163025 0.11328,-0.234375 0.015,-0.03567 0.0271,-0.06718 0.041,-0.113281 0.007,-0.02305 0.0146,-0.04822 0.0215,-0.101562 0.002,-0.01463 10e-4,-0.04401 0.002,-0.06641 0.11926,-0.149521 0.14107,-0.251724 0.195319,-0.394531 0.036,-0.09483 0.0632,-0.179229 0.084,-0.261719 0.0104,-0.04124 0.0199,-0.07582 0.0254,-0.144531 0.003,-0.03435 0.0122,-0.07346 -0.0117,-0.173827 -0.006,-0.02509 -0.0151,-0.05385 -0.0312,-0.08984 -0.0161,-0.03599 -0.0777,-0.124497 -0.0781,-0.125 -4.5e-4,-5.03e-4 -0.16548,-0.126698 -0.16602,-0.126953 -5.29e-4,-2.54e-4 -0.21615,-0.04687 -0.21679,-0.04687 -3.18e-4,0 -0.0724,0.0036 -0.0859,0.0059 -0.0135,0.0023 -0.021,0.0044 -0.0274,0.0059 -0.0127,0.0028 -0.0183,0.004 -0.0254,0.0059 -0.0141,0.0037 -0.0266,0.0075 -0.041,0.01172 -0.0288,0.0084 -0.0662,0.01936 -0.11133,0.0332 -0.0904,0.02768 -0.21416,0.06694 -0.36719,0.115235 -0.30604,0.09658 -0.72318,0.228921 -1.17578,0.375 -0.90292,0.291417 -1.91259,0.616411 -2.23633,0.71875 -0.15789,0.04991 -0.22205,0.07702 -0.3164,0.109374 -3.18e-4,-0.0096 -0.0128,-0.02147 -0.0137,-0.03125 0.0119,-0.02646 0.0364,-0.0564 0.0449,-0.08203 0.0295,-0.08889 0.007,-0.205292 -0.002,-0.314453 0.01,-10e-4 0.0273,-0.0039 0.0273,-0.0039 1.1e-4,-2.5e-5 0.0682,-0.01948 0.0684,-0.01953 2.65e-4,-1.04e-4 0.053,-0.02457 0.0684,-0.0332 0.0307,-0.01726 0.0455,-0.0269 0.0566,-0.03516 0.0223,-0.01651 0.0316,-0.02493 0.041,-0.0332 0.0189,-0.01654 0.0312,-0.02978 0.0469,-0.04492 0.0313,-0.03028 0.0679,-0.06705 0.11133,-0.111328 0.0867,-0.08854 0.19828,-0.205342 0.31445,-0.328125 0.23233,-0.245567 0.46285,-0.489513 0.57617,-0.626953 0.0208,-0.02525 0.0354,-0.02986 0.0879,-0.126953 0.0131,-0.02427 0.032,-0.05511 0.0488,-0.123047 0.008,-0.03397 0.0137,-0.13999 0.0137,-0.140625 -2e-5,-6.35e-4 -0.0642,-0.228063 -0.0644,-0.228516 -2.6e-4,-4.5e-4 -0.19677,-0.195044 -0.19727,-0.195312 -5.03e-4,-2.67e-4 -0.1848,-0.05656 -0.18554,-0.05664 -7.41e-4,-8.2e-5 -0.0837,-0.0049 -0.11133,-0.002 -0.0276,0.0029 -0.0475,0.0077 -0.0645,0.01172 -0.13595,0.03197 -0.13559,0.05032 -0.17382,0.07031 -0.0382,0.02 -0.0793,0.04142 -0.13086,0.07031 -0.0787,0.04411 -0.18128,0.105208 -0.28125,0.164062 -0.002,-0.0017 -0.002,-0.0021 -0.004,-0.0039 -0.0201,-0.01632 -0.0462,-0.03536 -0.0918,-0.05859 -0.0228,-0.01162 -0.0875,-0.03503 -0.0879,-0.03516 -4.23e-4,-1.27e-4 -0.1422,-0.01953 -0.14257,-0.01953 -1.9e-4,0 -0.10127,0.0097 -0.10157,0.0098 -2.91e-4,6.1e-5 -0.0324,0.0085 -0.043,0.01172 -0.0112,0.0034 -0.0148,0.0054 -0.0215,0.0078 0.0494,-0.138114 0.10013,-0.283528 0.1543,-0.441407 0.0695,-0.202724 0.13667,-0.404227 0.18554,-0.55664 0.0244,-0.07621 0.0437,-0.138826 0.0586,-0.191406 0.007,-0.02629 0.014,-0.04599 0.0215,-0.08203 0.004,-0.01802 0.0101,-0.03003 0.0117,-0.101562 3.97e-4,-0.01788 -0.004,-0.07576 -0.004,-0.07617 -5e-5,-4.15e-4 -0.0565,-0.175555 -0.0566,-0.175781 -6e-5,-1.13e-4 -0.11906,-0.146419 -0.11914,-0.146485 -8e-5,-6.5e-5 -0.23428,-0.107405 -0.23437,-0.107422 -1e-4,-1.6e-5 -0.22255,0.0097 -0.22266,0.0098 -1.1e-4,3.2e-5 -0.12682,0.05656 -0.12695,0.05664 -4.5e-4,2.75e-4 -0.0739,0.05476 -0.0879,0.06836 -0.014,0.0136 -0.0209,0.02202 -0.0273,0.0293 -0.0129,0.01456 -0.0207,0.02275 -0.0273,0.03125 -0.0134,0.01699 -0.0231,0.03224 -0.0352,0.04883 -0.024,0.03317 -0.0528,0.07271 -0.0859,0.121094 -0.0664,0.09677 -0.15134,0.224699 -0.24219,0.363281 l -0.04881,0.07422 c -0.20063,-0.05232 -0.41274,0.0246 -0.5332,0.193359 l -0.23242,0.328125 c -0.0309,-0.176559 -0.0389,-0.207949 -0.0937,-0.53125 -0.0508,-0.299521 -0.0988,-0.581926 -0.13672,-0.796875 -0.019,-0.107474 -0.0344,-0.19745 -0.0469,-0.265625 -0.0125,-0.06817 -0.0121,-0.07918 -0.0312,-0.154297 -0.004,-0.01618 -0.0103,-0.03657 -0.0195,-0.06055 -0.009,-0.02398 -0.0445,-0.08919 -0.0449,-0.08984 -4.24e-4,-6.53e-4 -0.11869,-0.13051 -0.11914,-0.13086 -4.44e-4,-3.61e-4 -0.255354,-0.101523 -0.255854,-0.101574 z"
       id="path3265"
       sodipodi:nodetypes="csscscsccccccsscssssssssccccsssccsccscccssssssscsscscccscssccccccccssssscccssssscccscccccsccssscccccssscsccsssscccscccccscsccssssscccccccsssssccsscsccccccccssccsscscccccccccccccccsssssccccscsccccsscsscccscssscssccsccccccccsscssssssccccsssccsccccccccssscscssscssccssssscccccscssscssccccccccscsccsscc" />
  </g>
  <g
     inkscape:label="F.Mask"
     inkscape:groupmode="layer"
     id="g3461"
     style="display:inline">
    <path
       style="opacity:1;fill:#999999;stroke-width:1"
       d="m 45.698319,76.754965 c -0.59771,-0.214912 -0.55882,-0.99457 0.0587,-1.176737 0.0555,-0.01637 0.0644,-0.06748 0.0644,-0.369785 0,-0.287272 0.01,-0.350783 0.0552,-0.350783 0.0452,0 0.0552,0.06351 0.0552,0.350783 0,0.302083 0.009,0.353506 0.0644,0.370377 0.26228,0.07979 0.42567,0.247844 0.47351,0.48706 0.088,0.439803 -0.35766,0.837858 -0.77141,0.689085 z m 0.055,-0.369978 c 0,-0.01924 -0.0178,-0.0409 -0.0395,-0.04815 -0.0218,-0.0072 -0.0395,0.01441 -0.0395,0.04815 0,0.03374 0.0178,0.05541 0.0395,0.04815 0.0217,-0.0072 0.0395,-0.02892 0.0395,-0.04815 z m 0.25762,0 c 0,-0.01924 -0.0178,-0.0409 -0.0395,-0.04815 -0.0218,-0.0072 -0.0395,0.01441 -0.0395,0.04815 0,0.03374 0.0178,0.05541 0.0395,0.04815 0.0217,-0.0072 0.0395,-0.02892 0.0395,-0.04815 z m -0.26314,-0.294425 c 0,-0.09109 -0.0166,-0.165613 -0.0368,-0.165613 -0.0202,0 -0.0368,0.07453 -0.0368,0.165613 0,0.09109 0.0166,0.165615 0.0368,0.165615 0.0202,0 0.0368,-0.07453 0.0368,-0.165615 z m 0.33278,0.07196 c 0.0692,-0.07369 0.0796,-0.107044 0.0487,-0.156413 -0.0472,-0.0754 -0.19029,-0.103012 -0.24583,-0.04746 -0.0287,0.02869 -0.0119,0.03992 0.0595,0.03992 0.10751,0 0.13872,0.08743 0.0442,0.123718 -0.0574,0.02202 -0.0782,0.133902 -0.0248,0.133902 0.0167,0 0.07,-0.04215 0.11838,-0.09366 z m -3.98688,-1.771553 -0.0601,-0.247832 0.14579,-0.188978 c 0.13351,-0.173055 0.18677,-0.312682 0.1182,-0.309854 -0.0152,6.88e-4 -0.0837,0.07562 -0.15231,0.166652 -0.0686,0.09103 -0.13121,0.159016 -0.13915,0.151074 -0.008,-0.008 -0.0296,-0.06744 -0.0482,-0.132225 -0.0316,-0.110282 -0.0209,-0.131881 0.16984,-0.339267 0.11199,-0.121818 0.19435,-0.230755 0.18302,-0.242084 -0.0113,-0.01132 -0.11024,0.05599 -0.21979,0.149584 -0.19042,0.162687 -0.20016,0.166563 -0.22122,0.08804 -0.0433,-0.161245 -0.02,-0.202734 0.21378,-0.382254 0.16599,-0.127455 0.22782,-0.196353 0.20677,-0.230404 -0.023,-0.03717 -0.085,-0.01173 -0.26439,0.108354 -0.37778,0.252953 -0.36317,0.23136 -0.30517,0.451202 0.0276,0.104667 0.0382,0.202097 0.0237,0.216514 -0.0252,0.02496 -0.446,0.103219 -0.55816,0.103804 -0.0333,1.39e-4 -0.009,-0.04521 0.0644,-0.121083 0.12145,-0.1253 0.14419,-0.189108 0.0813,-0.227999 -0.0468,-0.02893 -0.552491,0.270334 -0.552491,0.326964 0,0.02355 0.0265,0.0807 0.0589,0.126997 0.0324,0.04629 0.0497,0.0934 0.0385,0.104667 -0.0353,0.03533 -0.292269,-0.117762 -0.368079,-0.219294 -0.0903,-0.120932 -0.0801,-0.134186 0.304479,-0.395838 0.162791,-0.110763 0.29631,-0.212491 0.29669,-0.226064 3.97e-4,-0.01358 -0.0488,-0.03555 -0.109239,-0.04883 -0.0805,-0.01768 -0.138751,-0.0037 -0.2173,0.05227 -0.059,0.04203 -0.11519,0.07643 -0.12477,0.07643 -0.0169,0 0.0753,-0.48201 0.0961,-0.502858 0.006,-0.0057 0.11027,0.03694 0.232409,0.0947 0.367791,0.173938 0.355841,0.174266 0.603861,-0.01658 0.12285,-0.09453 0.21483,-0.180422 0.204399,-0.190861 -0.0105,-0.01045 -0.104709,0.04927 -0.209489,0.132694 -0.10477,0.08342 -0.221871,0.151674 -0.260211,0.151674 -0.0384,0 -0.184809,-0.05796 -0.325499,-0.128811 -0.29274,-0.147427 -0.32113,-0.152829 -0.3384,-0.06441 -0.0118,0.06069 -0.28725,-0.527619 -0.28725,-0.613633 0,-0.02179 0.049,-0.03962 0.10898,-0.03962 h 0.10898 l 0.0106,-0.320039 0.0106,-0.320039 0.196069,0.320039 0.196061,0.320039 h 0.44449 c 0.42829,0 0.44227,-0.0025 0.38358,-0.06731 -0.0507,-0.05604 -0.061,-0.15563 -0.061,-0.595152 0,-0.439522 0.0102,-0.539111 0.061,-0.595151 0.0584,-0.06453 0.0513,-0.06731 -0.17131,-0.06731 -0.222651,0 -0.22972,0.0028 -0.17132,0.06731 0.0506,0.05592 0.0609,0.154982 0.0609,0.585839 0,0.285194 -0.0101,0.544731 -0.0223,0.576749 -0.014,0.0364 -0.0667,0.05822 -0.1408,0.05822 -0.13491,0 -0.19437,-0.05555 -0.41889,-0.39133 l -0.15093,-0.225718 0.0773,-0.06871 c 0.0425,-0.03779 0.10688,-0.116662 0.143,-0.175273 0.0609,-0.09885 0.0614,-0.113506 0.006,-0.202417 -0.1181,-0.190641 -0.19063,-0.222966 -0.50226,-0.223842 l -0.29093,-8.2e-4 0.0701,0.07737 c 0.0575,0.06345 0.0724,0.147044 0.0828,0.464674 0.0132,0.403439 -0.0147,0.709258 -0.0648,0.709258 -0.0265,0 -0.88639,-2.009235 -0.88639,-2.071215 0,-0.01461 0.12835,-0.02643 0.28522,-0.02627 l 0.28522,2.91e-4 0.0839,0.146929 c 0.0461,0.08081 0.10682,0.14693 0.13484,0.14693 0.028,0 0.20381,-0.05834 0.39064,-0.129634 0.18684,-0.0713 0.34551,-0.123837 0.35258,-0.116754 0.007,0.0071 -0.14022,0.09762 -0.32733,0.201199 -0.57374,0.317573 -0.58339,0.300298 0.16855,0.30164 l 0.65599,0.0011 0.21221,-0.202417 c 0.11672,-0.111329 0.22454,-0.202415 0.23962,-0.202415 0.0151,0 -0.0419,0.08695 -0.12654,0.193215 l -0.15395,0.193217 0.65686,0.0184 c 0.6112,0.01712 0.66513,0.0243 0.77581,0.103242 0.0654,0.04666 0.14409,0.120734 0.17481,0.164603 0.0308,0.04387 0.0558,0.06276 0.0558,0.04198 0,-0.04745 -0.21248,-0.250484 -0.31961,-0.305417 -0.0496,-0.02542 -0.30853,-0.04123 -0.67508,-0.04123 h -0.5947 l 0.15586,-0.186161 c 0.11183,-0.13358 0.14461,-0.197411 0.11601,-0.226002 -0.0286,-0.02859 -0.13036,0.01879 -0.36032,0.167754 l -0.32048,0.207601 h -0.43616 c -0.23988,0 -0.43616,-0.0072 -0.43616,-0.016 0,-0.0088 0.32405,-0.184351 0.72012,-0.390106 0.39606,-0.205756 0.71153,-0.382685 0.70104,-0.39318 -0.0105,-0.01049 -0.36524,0.107091 -0.78832,0.261297 -0.42308,0.154204 -0.78732,0.280373 -0.80942,0.280373 -0.0221,0 -0.10723,-0.111789 -0.18918,-0.248421 -0.1325,-0.220874 -0.14191,-0.251335 -0.0848,-0.274699 0.0353,-0.01445 0.46908,-0.09365 0.96396,-0.175991 0.84744,-0.141004 0.95658,-0.164481 0.9189,-0.197666 -0.008,-0.0075 -0.47077,0.0095 -1.02742,0.03756 -0.55664,0.02808 -1.04237,0.04659 -1.07941,0.04111 -0.0408,-0.006 -0.13185,-0.124537 -0.23121,-0.300943 l -0.16388,-0.290986 0.48883,0.02557 c 0.26886,0.01407 0.86146,0.04801 1.3169,0.07545 0.77157,0.04647 0.93427,0.04769 0.80573,0.006 -0.0494,-0.01601 -2.66984,-0.390258 -2.73109,-0.390059 -0.0328,1.11e-4 -0.29677,-0.55027 -0.2746,-0.572442 0.007,-0.0075 0.72259,0.160685 1.58909,0.373735 1.39833,0.343809 1.67021,0.399413 1.59751,0.326711 -0.0106,-0.01057 -0.74622,-0.227074 -1.63467,-0.481055 -0.88845,-0.253981 -1.6344,-0.481292 -1.65767,-0.505136 -0.0428,-0.04384 -0.24418,-0.576997 -0.21795,-0.576997 0.008,0 0.88176,0.279936 1.94213,0.62208 1.06037,0.342145 2.07216,0.667043 2.24842,0.721997 0.18722,0.05838 0.32046,0.119814 0.32046,0.147774 0,0.107446 -0.0494,0.164286 -0.14252,0.164286 -0.1665,0 -0.51172,0.217525 -0.64087,0.403821 -0.0925,0.133383 -0.0825,0.402715 0.0206,0.556815 0.11981,0.179096 0.35294,0.250228 0.82675,0.252253 l 0.37677,0.0016 0.12973,0.257621 0.12974,0.257621 h 1.9124 1.9124 l 0.12263,-0.266822 0.12264,-0.266822 0.439511,-7.3e-5 c 0.47332,-7.4e-5 0.57374,-0.02907 0.74841,-0.216049 0.12051,-0.129002 0.1442,-0.400404 0.0499,-0.571293 -0.0887,-0.160722 -0.31847,-0.326298 -0.56371,-0.406243 -0.12918,-0.04211 -0.20321,-0.08935 -0.22272,-0.142094 -0.0276,-0.0746 0.004,-0.08953 0.56723,-0.267566 0.32806,-0.103705 1.33568,-0.427136 2.23917,-0.718736 0.90347,-0.2916 1.65949,-0.530182 1.68004,-0.530182 0.0205,0 -0.0127,0.131847 -0.0739,0.292993 -0.1092,0.287466 -0.114521,0.294021 -0.281521,0.347417 -0.0936,0.02993 -0.824389,0.239484 -1.623939,0.46567 -0.79954,0.226186 -1.46641,0.418782 -1.481921,0.427991 -0.0155,0.0092 -0.0201,0.02982 -0.0102,0.0458 0.01,0.01598 0.7233,-0.144241 1.58539,-0.35605 0.86208,-0.211807 1.57617,-0.376364 1.58685,-0.36568 0.0107,0.01068 -0.0441,0.140778 -0.12186,0.289101 l -0.14129,0.269676 -1.32492,0.191391 c -0.7287,0.105265 -1.35803,0.199499 -1.39851,0.209411 -0.11029,0.027 0.96647,-0.01398 1.80335,-0.06865 0.40484,-0.02644 0.74348,-0.04108 0.75254,-0.03255 0.0218,0.02058 -0.18067,0.395945 -0.2741,0.508027 l -0.0736,0.0883 -0.95688,-0.05047 c -1.1893,-0.06273 -1.18244,-0.06262 -1.13885,-0.01902 0.0193,0.01935 0.4574,0.104846 0.97344,0.189999 0.51605,0.08515 0.94262,0.157861 0.94793,0.161573 0.019,0.01327 -0.29576,0.533328 -0.32279,0.533328 -0.0152,0 -0.37128,-0.124866 -0.79134,-0.277479 -0.420059,-0.152614 -0.78151,-0.27156 -0.803219,-0.264323 -0.0217,0.0072 0.25787,0.164459 0.62128,0.349386 0.918379,0.467325 0.90208,0.447446 0.36816,0.448867 l -0.43981,0.0011 -0.34376,-0.226674 c -0.4068,-0.268241 -0.48937,-0.255196 -0.26745,0.04225 0.0812,0.108745 0.14752,0.210857 0.14752,0.226916 0,0.01606 -0.25256,0.03423 -0.56125,0.04039 l -0.56125,0.0112 0.59806,0.0082 c 0.32892,0.0045 0.59804,-0.0057 0.59804,-0.02264 0,-0.01695 -0.0671,-0.124596 -0.14923,-0.239219 -0.0821,-0.114626 -0.13915,-0.208408 -0.12682,-0.208408 0.0123,0 0.13789,0.09937 0.279,0.220818 l 0.25657,0.220818 h 0.6247 c 0.34359,0 0.62451,-0.01243 0.62426,-0.0276 -2.91e-4,-0.01519 -0.15777,-0.108937 -0.35005,-0.208346 -0.46423,-0.240014 -0.50293,-0.301564 -0.0925,-0.147095 0.1833,0.06899 0.35762,0.125422 0.38738,0.125422 0.0297,0 0.0879,-0.06624 0.12922,-0.147212 l 0.0751,-0.147211 h 0.29368 c 0.16152,0 0.29368,0.01179 0.29368,0.02621 0,0.07235 -0.27749,0.682975 -0.31731,0.698255 -0.0253,0.0097 -0.0382,0.03824 -0.0286,0.06336 0.0149,0.03885 -0.76583,1.955454 -0.81769,2.007319 -0.01,0.01 -0.0321,-0.0044 -0.0491,-0.03189 -0.0239,-0.03856 -0.0617,-0.01931 -0.16483,0.08387 -0.12514,0.125135 -0.14884,0.133914 -0.36144,0.133914 -0.22159,0 -0.23211,-0.0045 -0.40276,-0.172596 -0.0964,-0.09493 -0.18402,-0.163812 -0.19476,-0.153075 -0.0107,0.01074 0.0808,0.11527 0.20355,0.232293 0.22068,0.210491 0.22503,0.212582 0.40617,0.195177 0.13318,-0.0128 0.22231,-0.04909 0.32684,-0.133096 0.16854,-0.135447 0.16762,-0.136757 0.20305,0.288917 0.0127,0.151814 0.0316,0.321567 0.0424,0.377231 0.0145,0.07588 0.005,0.101209 -0.0387,0.101209 -0.0321,0 -0.0581,-0.03063 -0.0581,-0.06865 0,-0.108487 -0.14196,-0.262585 -0.24189,-0.262585 -0.0491,0 -0.0893,0.02023 -0.0893,0.04494 0,0.05958 0.40797,0.470306 0.46714,0.470306 0.0442,0 0.15852,0.180739 0.15852,0.250691 0,0.03301 -0.51465,0.264553 -0.58801,0.264553 -0.0705,0 -0.0379,-0.129632 0.0418,-0.166088 0.0437,-0.01998 0.10322,-0.07292 0.13231,-0.117642 0.0497,-0.07636 0.0411,-0.09373 -0.13998,-0.285223 -0.2021,-0.213693 -0.25515,-0.238163 -0.32744,-0.15106 -0.0624,0.07522 0.007,0.187681 0.14449,0.235786 0.075,0.02615 0.11119,0.06334 0.11119,0.114281 0,0.101478 0.0111,0.102722 -0.67166,-0.07534 -0.17196,-0.04485 -0.18696,-0.153168 -0.0322,-0.233154 0.10783,-0.05577 0.15048,-0.146335 0.15138,-0.321464 4.23e-4,-0.07581 -0.0478,-0.136638 -0.21112,-0.26655 -0.18402,-0.146377 -0.23441,-0.168357 -0.38643,-0.168594 -0.0961,-1.4e-4 -0.17481,0.01257 -0.17481,0.02828 0,0.0157 0.11769,0.116629 0.26153,0.224271 0.24563,0.183824 0.26015,0.202611 0.23883,0.30919 -0.0125,0.06241 -0.0299,0.12062 -0.0385,0.129352 -0.009,0.0087 -0.0997,-0.05483 -0.20223,-0.141259 -0.1025,-0.08643 -0.19774,-0.145755 -0.21166,-0.131843 -0.014,0.01391 0.0671,0.120091 0.18004,0.235951 l 0.20533,0.210656 -0.0421,0.144025 -0.0421,0.144026 -0.12853,-0.17049 c -0.0707,-0.09377 -0.14094,-0.171002 -0.15612,-0.171629 -0.0685,-0.0028 -0.0154,0.136697 0.11765,0.309157 l 0.14526,0.188281 -0.067,0.256753 -0.067,0.256755 -0.3895,-0.809667 c -0.21422,-0.445316 -0.44879,-0.92407 -0.52127,-1.063896 l -0.13178,-0.254231 0.10022,-0.104599 0.10021,-0.104599 h 1.02853 c 0.94939,0 1.31309,-0.02965 1.31309,-0.107034 0,-0.01198 -2.30202,-0.02178 -5.115621,-0.02178 -2.81359,0 -5.11562,0.01079 -5.11562,0.024 0,0.07951 0.30781,0.104809 1.27519,0.104809 0.94341,0 1.04988,0.0062 1.11103,0.0644 0.0373,0.03543 0.0976,0.08172 0.13431,0.102885 0.0627,0.03619 0.0607,0.04749 -0.0334,0.189802 -0.0551,0.08323 -0.29096,0.546191 -0.52417,1.028808 -0.23322,0.482618 -0.43617,0.890346 -0.45102,0.906065 -0.0148,0.01572 -0.054,-0.08295 -0.0872,-0.219254 z m 3.06055,-2.437394 c 0.1302,-0.09271 0.13364,-0.104566 0.059,-0.203231 -0.0528,-0.0698 -0.0553,-0.06961 -0.14076,0.01066 -0.13203,0.124038 -0.31407,0.140148 -0.44245,0.03916 -0.20601,-0.16204 -0.25987,-0.447918 -0.13587,-0.721036 0.0752,-0.165739 0.16503,-0.232988 0.311,-0.232988 0.10799,0 0.28018,0.07148 0.28018,0.116316 0,0.05798 0.10245,0.03108 0.1272,-0.03341 0.0329,-0.08575 -0.12351,-0.219195 -0.29455,-0.251282 -0.17175,-0.03222 -0.42754,0.06597 -0.54953,0.210945 -0.0513,0.06099 -0.11172,0.184013 -0.13422,0.273379 -0.0225,0.08937 -0.0575,0.162482 -0.0778,0.162482 -0.0223,0 -0.0204,0.01998 0.005,0.05047 0.023,0.02777 0.0661,0.131937 0.0956,0.231505 0.0558,0.187789 0.19112,0.34825 0.34992,0.414839 0.14131,0.05926 0.41683,0.02512 0.54734,-0.06782 z m 0.99709,0.04494 c 0.0629,-0.04405 0.0929,-0.04941 0.10326,-0.0184 0.008,0.02421 0.0814,0.04372 0.16442,0.04372 0.14285,0 0.147,-0.0031 0.089,-0.06731 -0.0902,-0.09961 -0.0902,-1.090692 0,-1.190302 0.0581,-0.06417 0.0538,-0.06731 -0.092,-0.06731 h -0.15292 v 0.481271 0.481269 l -0.10758,0.107579 c -0.12238,0.122385 -0.25775,0.138628 -0.34566,0.04147 -0.048,-0.05305 -0.0618,-0.167447 -0.0701,-0.579649 l -0.0103,-0.513545 -0.16562,-0.01013 c -0.0993,-0.0061 -0.14693,0.0024 -0.11894,0.02099 0.0815,0.05434 0.11894,0.271098 0.11894,0.68916 0,0.31342 0.0135,0.425356 0.0592,0.490526 0.108891,0.155469 0.371541,0.200519 0.52841,0.09064 z m 2.33198,0.01192 c 0.15777,-0.06592 0.30647,-0.24671 0.36115,-0.4391 0.0242,-0.08511 0.0574,-0.170093 0.0737,-0.188841 0.0164,-0.01875 0.0157,-0.05187 -0.002,-0.0736 -0.0171,-0.02174 -0.0508,-0.10059 -0.0748,-0.175231 -0.0986,-0.30612 -0.37273,-0.496152 -0.65482,-0.453851 -0.21408,0.03211 -0.43499,0.227235 -0.49495,0.437192 -0.0239,0.0838 -0.0592,0.173073 -0.0784,0.198375 -0.0221,0.02914 -0.0215,0.06286 0.002,0.09201 0.02,0.02531 0.0562,0.107075 0.0802,0.181717 0.12141,0.377108 0.46002,0.558236 0.78766,0.421337 z m -0.3707,-0.171679 c -0.28132,-0.113106 -0.30974,-0.745025 -0.042,-0.932607 0.25986,-0.182011 0.58455,0.07084 0.58455,0.455228 0,0.179183 -0.0724,0.332798 -0.20665,0.438387 -0.1038,0.08165 -0.20162,0.09301 -0.33596,0.039 z m 1.68534,0.16573 c 0.0623,-0.03218 0.10859,-0.04004 0.10859,-0.0184 0,0.02076 0.0777,0.03775 0.17264,0.03775 0.15771,0 0.1665,-0.0045 0.10157,-0.05197 -0.0616,-0.04505 -0.0729,-0.10882 -0.0846,-0.479002 -0.0151,-0.475193 0.006,-0.653886 0.0905,-0.737549 0.0506,-0.05064 0.0393,-0.05639 -0.11186,-0.05639 h -0.16823 v 0.512572 c 0,0.509903 -5.03e-4,0.512968 -0.097,0.588849 -0.11316,0.089 -0.22802,0.09744 -0.32844,0.02412 -0.064,-0.04674 -0.0726,-0.107931 -0.0834,-0.58885 l -0.0119,-0.536689 h -0.15021 c -0.14041,0 -0.14645,0.0042 -0.0927,0.06441 0.0447,0.05014 0.0603,0.177143 0.0701,0.573498 l 0.0126,0.509095 0.120191,0.107358 c 0.13633,0.121771 0.28341,0.138431 0.45208,0.0512 z m 1.22681,-0.02067 c 0.0537,-0.04225 0.12748,-0.138525 0.16391,-0.213936 0.0652,-0.134914 0.0649,-0.139189 -0.0159,-0.266922 -0.0452,-0.0714 -0.166919,-0.184203 -0.27051,-0.25068 -0.1036,-0.06648 -0.20498,-0.151932 -0.22531,-0.189897 -0.0528,-0.09872 0.0192,-0.21624 0.13256,-0.21624 0.0499,0 0.12384,0.03312 0.16432,0.0736 0.0869,0.08693 0.123371,0.09148 0.180571,0.02255 0.0335,-0.04036 0.0184,-0.07118 -0.0719,-0.147223 -0.22395,-0.18844 -0.43485,-0.159465 -0.59255,0.08141 l -0.089,0.13594 0.0846,0.125487 c 0.0465,0.06902 0.16659,0.180728 0.266841,0.248246 0.22621,0.152335 0.273849,0.232069 0.21536,0.360427 -0.0614,0.134632 -0.19514,0.158316 -0.330211,0.05845 -0.0873,-0.06454 -0.12042,-0.07208 -0.16266,-0.03703 -0.0848,0.07037 -0.0626,0.125376 0.085,0.21094 0.17483,0.101333 0.340129,0.103061 0.46497,0.0049 z m -8.04607,-0.03339 c 0.13874,-0.08459 0.25645,-0.26098 0.28896,-0.43304 0.0125,-0.06601 0.037,-0.128881 0.0545,-0.139719 0.0175,-0.01084 0.0183,-0.04792 0.002,-0.0824 -0.28136,-0.586951 -0.34222,-0.625659 -0.94755,-0.602722 -0.2923,0.01107 -0.31117,0.01632 -0.23954,0.0665 0.073,0.05116 0.0778,0.08671 0.0778,0.586026 0,0.482486 -0.006,0.538352 -0.0736,0.605164 l -0.0736,0.07361 0.39563,-1.4e-4 c 0.32984,-1.1e-4 0.41558,-0.0123 0.51559,-0.07327 z m -0.49822,-0.09992 c -0.0829,-0.01589 -0.0837,-0.0219 -0.0736,-0.501029 l 0.0102,-0.484942 0.17323,-0.01116 c 0.1534,-0.0099 0.18889,0.0032 0.31009,0.114277 0.12321,0.112917 0.13826,0.147068 0.15083,0.342379 0.0169,0.262664 -0.0708,0.43213 -0.26574,0.51359 -0.12826,0.05359 -0.15399,0.05585 -0.30505,0.02688 z m 1.4434,0.121086 c -0.0652,-0.04773 -0.0714,-0.100355 -0.0714,-0.610217 0,-0.509863 0.006,-0.562484 0.0714,-0.610216 0.0645,-0.04716 0.0491,-0.05224 -0.1585,-0.05224 h -0.22993 l 0.0573,0.08179 c 0.045,0.06426 0.0573,0.188713 0.0573,0.580659 0,0.391948 -0.0123,0.516396 -0.0573,0.580659 l -0.0573,0.0818 h 0.22993 c 0.20761,0 0.223,-0.0051 0.1585,-0.05224 z m 3.62727,-0.03349 c 0,-0.08159 -0.012,-0.08559 -0.24842,-0.08281 l -0.24842,0.0029 -0.0101,-0.579648 -0.0101,-0.579649 h -0.14836 c -0.14597,0 -0.14745,0.0014 -0.0911,0.0818 0.045,0.06426 0.0573,0.188715 0.0573,0.580661 0,0.391947 -0.0123,0.516395 -0.0573,0.580659 l -0.0573,0.08179 h 0.40692 c 0.40157,0 0.40692,-0.0011 0.40692,-0.08573 z m -2.2703,2.065652 -0.55897,-0.518415 0.0897,-0.132047 c 0.10605,-0.156063 0.11795,-0.378262 0.035,-0.651956 -0.0301,-0.09936 -0.0549,-0.226206 -0.0552,-0.281872 l -3.97e-4,-0.101208 h 1.03101 1.03103 l -0.01,0.453083 c -0.009,0.439323 -0.006,0.456951 0.0869,0.58036 l 0.0966,0.127277 -0.55881,0.512186 c -0.30735,0.281702 -0.5744,0.51642 -0.59345,0.521595 -0.019,0.0052 -0.28617,-0.223876 -0.5936,-0.509003 z m 0.43015,-0.404425 c 0,-0.06628 0.0647,-0.02349 0.10795,0.07144 l 0.0462,0.101208 0.064,-0.123681 0.064,-0.123679 0.0472,0.114012 c 0.0561,0.135402 0.0938,0.123351 0.12747,-0.0407 l 0.0247,-0.120377 0.0623,0.101209 c 0.0904,0.147146 0.11861,0.125545 0.119989,-0.09201 l 8.21e-4,-0.193215 0.0691,0.08281 c 0.0908,0.10888 0.10294,0.104657 0.0833,-0.02905 -0.0106,-0.07265 0.006,-0.136204 0.0464,-0.181297 0.0757,-0.08369 0.12724,-0.516509 0.0614,-0.516509 -0.0231,0 -0.042,0.0414 -0.042,0.09201 v 0.09201 h -0.73721 c -0.62311,0 -0.73989,-0.0085 -0.75447,-0.05521 -0.01,-0.03036 -0.0259,-0.08242 -0.0365,-0.115677 -0.0106,-0.03326 -0.0265,-0.05325 -0.0353,-0.04442 -0.03,0.03 0.0939,0.488339 0.14827,0.548393 0.0375,0.04142 0.0467,0.0983 0.0298,0.18536 -0.0239,0.123883 -0.0233,0.1247 0.0504,0.05961 0.0678,-0.05989 0.0768,-0.06046 0.0976,-0.0062 0.0126,0.03289 0.0235,0.112273 0.0243,0.176403 l 0.002,0.1166 0.0859,-0.104988 0.0859,-0.104987 0.0265,0.141326 c 0.0248,0.132465 0.0298,0.136876 0.0784,0.07035 0.0286,-0.03903 0.0519,-0.08437 0.0519,-0.100743 z m -2.50355,-0.930072 0.113,-0.164243 -0.1089,-0.05632 c -0.23021,-0.119047 -0.17,-0.130443 0.68924,-0.130443 h 0.84396 l 0.0204,0.174814 c 0.0112,0.09615 0.0318,0.212077 0.0458,0.25762 l 0.0254,0.08281 h -0.87093 -0.87093 z m 3.69464,-0.0065 c 0.0129,-0.09391 0.0234,-0.209842 0.0234,-0.25762 v -0.08687 h 0.779269 0.779281 l -0.087,0.09265 -0.0871,0.09265 0.0801,0.16497 0.0802,0.164969 h -0.7958 -0.79579 z m -6.30671,-1.6326 c 0,-0.195914 0.0377,-0.225479 0.18642,-0.145917 0.13613,0.07285 0.0615,0.329932 -0.0957,0.329932 -0.0843,0 -0.0907,-0.01296 -0.0907,-0.184015 z m 3.65738,-1.103793 c 0.0632,-0.121287 0.12509,-0.220656 0.13753,-0.220819 0.0124,-1.39e-4 0.0512,0.07453 0.0861,0.165987 0.035,0.09146 0.088,0.190826 0.11804,0.220819 0.0482,0.04818 0.0461,0.05453 -0.0178,0.05453 -0.0398,0 -0.0818,-0.02484 -0.0935,-0.05521 -0.0117,-0.03036 -0.0614,-0.0552 -0.110411,-0.0552 -0.0491,0 -0.0987,0.02484 -0.11041,0.0552 -0.0117,0.03036 -0.0445,0.05521 -0.0729,0.05521 -0.0373,0 -0.0198,-0.06123 0.0632,-0.22052 z m 0.17013,-0.0187 c 0,-0.03036 -0.0148,-0.05521 -0.0329,-0.05521 -0.0181,0 -0.0424,0.02484 -0.054,0.05521 -0.0129,0.03362 -8e-5,0.05521 0.0329,0.05521 0.0298,0 0.054,-0.02484 0.054,-0.05521 z m 0.32517,7.4e-5 c 0.0122,-0.23824 0.0128,-0.239297 0.12202,-0.239297 0.19577,0 0.32409,0.09805 0.32511,0.248421 8.2e-4,0.134339 -0.12509,0.230008 -0.30306,0.230096 l -0.15642,7.4e-5 0.0123,-0.239297 z m 0.33802,0.09054 c 0.0221,-0.04125 0.0299,-0.107455 0.0173,-0.147127 -0.0241,-0.07593 -0.17059,-0.132862 -0.23671,-0.092 -0.0426,0.02634 -0.0537,0.250233 -0.0144,0.289584 0.0523,0.05224 0.19541,0.02135 0.23384,-0.05046 z m 0.23849,-0.09061 c 0,-0.230782 0.003,-0.2392 0.092,-0.238655 0.0506,2.64e-4 0.11684,0.01662 0.14721,0.03624 0.043,0.02781 0.0329,0.0358 -0.046,0.03624 -0.12364,6.88e-4 -0.13642,0.09075 -0.0183,0.129754 l 0.0828,0.02737 -0.0828,0.01629 c -0.12038,0.02367 -0.11255,0.158381 0.009,0.158381 0.0506,0 0.092,0.01656 0.092,0.03681 0,0.02024 -0.0621,0.03681 -0.138011,0.03681 H 45.32446 Z m 0.40483,0 c 0,-0.232968 0.002,-0.239219 0.0955,-0.239219 0.0525,0 0.12305,0.03044 0.15672,0.06763 0.0572,0.0632 0.0568,0.07164 -0.006,0.128811 -0.0372,0.03365 -0.087,0.06118 -0.11071,0.06118 -0.0237,0 -0.0431,0.04969 -0.0431,0.110408 0,0.06379 -0.0194,0.11041 -0.046,0.11041 -0.0321,0 -0.046,-0.07238 -0.046,-0.23922 z m 0.20242,-0.110409 c 0,-0.03036 -0.0248,-0.05521 -0.0552,-0.05521 -0.0304,0 -0.0552,0.02484 -0.0552,0.05521 0,0.03036 0.0248,0.05521 0.0552,0.05521 0.0303,0 0.0552,-0.02484 0.0552,-0.05521 z m 0.25182,0.147262 c 0.0116,-0.186591 0.006,-0.202466 -0.0666,-0.202466 -0.0436,0 -0.0689,-0.01656 -0.0564,-0.03681 0.0125,-0.02024 0.0963,-0.03681 0.18619,-0.03681 0.0899,0 0.16344,0.01656 0.16344,0.03681 0,0.02024 -0.0352,0.03681 -0.0782,0.03681 -0.0722,0 -0.0769,0.01533 -0.0614,0.202416 0.0139,0.167128 0.006,0.202425 -0.0415,0.202466 -0.0476,3.9e-5 -0.0559,-0.03698 -0.0457,-0.202416 z m 0.35704,0.156364 c -0.0395,-0.125535 -0.0436,-0.434161 -0.006,-0.42165 0.0224,0.0074 0.0458,0.09905 0.0519,0.203724 0.0102,0.174362 0.0187,0.190322 0.10122,0.190322 0.0496,0 0.0914,-0.0207 0.0931,-0.046 0.002,-0.02531 0.006,-0.110794 0.009,-0.189983 0.0107,-0.24834 0.0798,-0.187419 0.0798,0.07038 v 0.239219 h -0.15757 c -0.0938,0 -0.16343,-0.01862 -0.17204,-0.046 z m 0.50442,0.02163 c -0.0917,-0.03698 -0.0433,-0.08365 0.0645,-0.06211 0.14896,0.02979 0.14505,-0.04448 -0.009,-0.174869 -0.1119,-0.09459 -0.11566,-0.10515 -0.0583,-0.163865 0.0646,-0.06616 0.25153,-0.04997 0.25153,0.02179 0,0.02088 -0.0398,0.02681 -0.092,0.01372 -0.12446,-0.03124 -0.11599,0.02692 0.0184,0.12628 0.1258,0.09301 0.13382,0.124363 0.0526,0.205608 -0.0573,0.0573 -0.13864,0.06927 -0.22739,0.03345 z m -3.33192,-0.297652 -0.13123,-0.285224 0.11487,-0.119611 c 0.0631,-0.06578 0.14887,-0.118963 0.19044,-0.118174 0.0887,0.0017 0.33061,0.309145 0.30196,0.383799 -0.0317,0.08272 -0.28667,0.424433 -0.31665,0.424433 -0.0155,0 -0.0872,-0.128351 -0.15939,-0.285223 z m 3.82047,0.09757 c -0.0742,-0.103207 -0.14275,-0.208344 -0.15246,-0.233641 -0.016,-0.04177 0.29424,-0.461982 0.34111,-0.461982 0.0517,0 0.2318,0.156933 0.25159,0.219251 0.0139,0.04373 -0.0339,0.181926 -0.12705,0.367073 -0.0821,0.163323 -0.15584,0.296949 -0.16384,0.296949 -0.008,0 -0.0752,-0.08444 -0.14935,-0.18765 z m -4.79594,-0.550424 c -0.0447,-0.07776 -0.0814,-0.156606 -0.0814,-0.175216 0,-0.01861 0.0834,-0.05034 0.18543,-0.0705 0.16178,-0.03199 0.19698,-0.02757 0.27603,0.0346 0.12413,0.09764 0.11503,0.119952 -0.0653,0.16006 -0.10017,0.02229 -0.16972,0.06285 -0.19465,0.113556 -0.0371,0.07548 -0.0424,0.07278 -0.12016,-0.06249 z m 2.73013,0.05465 -0.025,-0.09949 -0.0608,0.08058 c -0.0602,0.07985 -0.0615,0.07881 -0.14005,-0.114583 -0.0485,-0.119528 -0.0712,-0.234379 -0.0585,-0.296367 0.0172,-0.08373 0.008,-0.101208 -0.0532,-0.101208 -0.0407,0 -0.0842,0.02665 -0.0967,0.05922 -0.0179,0.04658 -0.0521,0.05386 -0.16036,0.03408 -0.0756,-0.01382 -0.17491,-0.04917 -0.2205,-0.07852 -0.10925,-0.07037 -0.25978,-0.300977 -0.2863,-0.438622 -0.0182,-0.0941 -0.006,-0.11861 0.0891,-0.171322 l 0.1103,-0.06151 -0.007,-0.527334 c -0.006,-0.479483 3.95e-4,-0.54247 0.0751,-0.69413 0.14763,-0.299753 0.63879,-0.587667 1.002511,-0.587667 h 0.148119 v 0.840124 0.840125 l 0.17482,0.291569 0.17481,0.291569 0.19322,0.01113 c 0.10627,0.0061 0.19299,0.02268 0.19272,0.0368 -0.002,0.09995 -0.057,0.188886 -0.14026,0.226845 -0.0924,0.04208 -0.094,0.04724 -0.0301,0.09397 0.065,0.04755 0.0641,0.05693 -0.0235,0.245185 -0.0884,0.189741 -0.0923,0.192921 -0.12818,0.103733 l -0.037,-0.09201 -0.046,0.09915 -0.046,0.09915 -0.068,-0.08075 -0.068,-0.08075 -0.0247,0.08825 c -0.0235,0.08369 -0.0273,0.08475 -0.0743,0.02058 -0.0481,-0.06571 -0.051,-0.06571 -0.099,0 -0.0469,0.06418 -0.0508,0.06313 -0.0743,-0.02058 l -0.0248,-0.08825 -0.0717,0.08526 -0.0717,0.08526 z m 0.38244,-0.593452 c 0.0608,0.05503 0.0691,0.05383 0.11296,-0.01629 0.0406,-0.06502 0.0335,-0.103861 -0.05,-0.274549 -0.0535,-0.10935 -0.10916,-0.198819 -0.12368,-0.198819 -0.0145,0 -0.0721,0.0901 -0.12779,0.20022 -0.0865,0.170776 -0.0945,0.211149 -0.0549,0.274547 0.043,0.06879 0.0513,0.0699 0.1121,0.01489 0.0605,-0.05471 0.0709,-0.05471 0.13135,0 z m -0.38089,-0.621345 c 0.1234,-0.123404 0.13518,-0.188472 0.0448,-0.247678 -0.0922,-0.06039 -0.44344,-0.173033 -0.53676,-0.172123 -0.12884,0.0012 -0.16478,0.05826 -0.11403,0.180798 0.10551,0.254714 0.45314,0.391828 0.60597,0.239003 z m 2.56584,1.174096 c -0.0867,-0.168993 -0.24543,-0.269549 -0.42535,-0.269549 -0.12778,0 -0.18071,-0.05736 -0.0863,-0.09356 0.0253,-0.0097 0.23264,-0.05717 0.46076,-0.105479 0.40912,-0.08664 0.41528,-0.08686 0.45322,-0.01597 0.0315,0.05887 0.0213,0.08531 -0.0561,0.146246 -0.0558,0.04391 -0.11124,0.140635 -0.13527,0.236076 -0.0612,0.24312 -0.12318,0.273155 -0.21092,0.10224 z m -4.77164,-0.178615 -0.25762,-0.234435 0.092,-0.09232 0.092,-0.09232 0.43243,0.134155 c 0.26435,0.08201 0.43244,0.152938 0.43244,0.182474 0,0.02658 -0.0342,0.04832 -0.076,0.04832 -0.10068,0 -0.212471,0.05973 -0.34721,0.185505 l -0.11041,0.103064 z m 0.1492,-0.130945 c 0.0357,-0.05787 -0.0416,-0.121079 -0.11406,-0.09325 -0.0502,0.01926 -0.0532,0.03402 -0.0164,0.07849 0.0539,0.06489 0.0965,0.06971 0.13044,0.01476 z m 5.27182,0.28269 c -0.0549,-0.07563 -0.0809,-0.08288 -0.21163,-0.05899 -0.0819,0.01498 -0.14897,0.02061 -0.14897,0.01249 0,-0.02807 0.12726,-0.214686 0.16476,-0.241621 0.055,-0.03945 0.34242,-0.03418 0.36772,0.0067 0.0252,0.04078 -0.0517,0.37047 -0.086,0.368764 -0.0128,-6.88e-4 -0.0515,-0.03996 -0.0859,-0.08739 z M 46.532709,69.076 c 0.013,-0.08911 0.0343,-0.224116 0.0474,-0.300022 l 0.0238,-0.138012 -0.21643,-2.91e-4 -0.21643,-2.91e-4 -0.15641,-0.265865 -0.15642,-0.265863 v -0.842991 -0.84299 l 0.21166,0.01919 c 0.11642,0.01056 0.27464,0.04551 0.35161,0.07767 l 0.13996,0.05848 -0.14665,0.194265 c -0.27025,0.358003 -0.4465,0.863341 -0.27135,0.778011 0.0355,-0.01725 0.17485,-0.03145 0.30984,-0.03154 l 0.24542,-1.53e-4 0.0581,-0.131779 c 0.032,-0.07248 0.11542,-0.196688 0.18547,-0.276022 l 0.12737,-0.144244 0.002,0.594059 0.002,0.59406 0.092,0.02309 c 0.11473,0.0288 0.11454,0.06342 -0.002,0.396728 -0.10129,0.289027 -0.21315,0.419459 -0.49589,0.578238 l -0.15742,0.0884 0.0236,-0.162011 z m 0.098,-0.713846 c 0.15315,-0.0792 0.22122,-0.19615 0.22122,-0.380109 0,-0.134147 -0.0209,-0.182044 -0.12513,-0.286236 -0.10419,-0.104192 -0.15209,-0.12513 -0.28624,-0.12513 -0.18396,0 -0.30091,0.06806 -0.3801,0.221224 -0.19451,0.376133 0.19412,0.764756 0.57025,0.570251 z m -0.43153,-0.138222 c -0.17485,-0.188698 -0.087,-0.50357 0.15764,-0.564969 0.19331,-0.04852 0.42151,0.140264 0.42151,0.348701 0,0.03993 -0.0428,0.123565 -0.0953,0.185842 -0.0788,0.09363 -0.12227,0.113233 -0.25121,0.113233 -0.11444,0 -0.17635,-0.02204 -0.23266,-0.08281 z m 0.47041,-0.142058 c 0.12643,-0.305222 -0.3108,-0.508616 -0.46254,-0.215171 -0.0482,0.09328 -0.0498,0.126713 -0.01,0.210007 0.10434,0.217608 0.38315,0.220655 0.47241,0.0052 z m -0.30737,-0.04545 c -0.0843,-0.128631 -0.0814,-0.134522 0.0665,-0.134522 0.14546,0 0.15792,0.02949 0.0623,0.147551 l -0.0665,0.0821 z m 1.31179,0.543988 c -0.026,-0.068 0.0433,-0.236873 0.0972,-0.236873 0.0664,0 0.0401,-0.127938 -0.036,-0.175475 -0.0499,-0.03119 -0.0736,-0.08583 -0.0736,-0.16996 0,-0.120669 0.0743,-0.230458 0.12299,-0.181756 0.0133,0.01332 0.0243,-0.01802 0.0243,-0.06963 0,-0.0629 -0.0243,-0.100198 -0.0736,-0.113098 -0.0567,-0.01485 -0.0736,-0.0502 -0.0736,-0.15457 0,-0.172934 0.0842,-0.157035 0.11092,0.02095 0.0161,0.107131 0.0234,0.114919 0.0486,0.05228 0.0294,-0.07269 0.0304,-0.07272 0.0823,-0.0022 0.0489,0.06654 0.0526,0.06213 0.0526,-0.0644 0,-0.136326 0.0575,-0.183972 0.0971,-0.08056 0.0326,0.08516 -0.0185,0.239137 -0.0795,0.239137 -0.0345,0 -0.0545,0.036 -0.0545,0.09814 0,0.05398 0.0109,0.08724 0.0243,0.07393 0.0133,-0.01332 0.0464,-0.0058 0.0736,0.01678 0.0666,0.05525 0.0627,0.26949 -0.006,0.326402 -0.0477,0.03961 -0.0556,0.02156 -0.0581,-0.133505 -0.002,-0.09863 -0.0113,-0.15862 -0.0214,-0.133318 -0.0102,0.02531 -0.0407,0.046 -0.0676,0.046 -0.027,0 -0.0574,-0.0207 -0.0676,-0.046 -0.0102,-0.02531 -0.0186,0.02024 -0.0186,0.101209 0,0.08097 0.008,0.126511 0.0186,0.101209 0.0102,-0.02531 0.042,-0.046 0.0707,-0.046 0.0388,0 0.0521,0.05266 0.0521,0.204897 0,0.188148 -0.006,0.202986 -0.0736,0.181534 -0.0627,-0.01989 -0.0736,-0.0067 -0.0736,0.08953 0,0.118906 -0.0605,0.153066 -0.098,0.05533 z m 0.30717,0.03363 c -0.0138,-0.01383 -0.0252,-0.08174 -0.0252,-0.150894 0,-0.153269 0.0859,-0.147223 0.10408,0.0073 0.0123,0.105092 -0.0337,0.188817 -0.079,0.143571 z m -4.51512,-0.08241 c 0,-0.08582 0.13069,-0.253441 0.16835,-0.215919 0.0151,0.01505 -3e-5,0.05776 -0.0337,0.0949 -0.0336,0.03714 -0.0611,0.09521 -0.0611,0.129036 0,0.03383 -0.0166,0.06151 -0.0368,0.06151 -0.0202,0 -0.0368,-0.03129 -0.0368,-0.06953 z m 0.1104,0.03273 c 0,-0.02024 0.0662,-0.03681 0.14722,-0.03681 0.081,0 0.1472,0.01656 0.1472,0.03681 0,0.02024 -0.0662,0.03681 -0.1472,0.03681 -0.081,0 -0.14722,-0.01656 -0.14722,-0.03681 z m 0.341,-0.06375 c -0.025,-0.05704 -0.0921,-0.131307 -0.14923,-0.165034 -0.17534,-0.103579 -0.30217,-0.253381 -0.30217,-0.356896 0,-0.119867 0.0941,-0.260791 0.17411,-0.260791 0.0489,0 0.0453,0.01516 -0.0205,0.08518 -0.13907,0.148027 -0.10645,0.261008 0.124619,0.431714 0.211821,0.15648 0.25185,0.210329 0.230901,0.310608 -0.009,0.04109 -0.026,0.02754 -0.0577,-0.04478 z m -0.23979,-0.07103 c 0.0252,-0.01021 0.0667,-0.01021 0.092,0 0.0252,0.01021 0.004,0.01856 -0.046,0.01856 -0.0507,0 -0.0713,-0.0084 -0.046,-0.01856 z m 0.11961,-0.216337 c 0,-0.01095 0.0348,-0.06701 0.0774,-0.124607 0.10262,-0.138803 0.0691,-0.231912 -0.13345,-0.371306 -0.0888,-0.06112 -0.1871,-0.147648 -0.21836,-0.192283 -0.0631,-0.09021 -0.0776,-0.229141 -0.02,-0.193586 0.0202,0.01251 0.0368,0.05376 0.0368,0.09167 0,0.03791 0.0538,0.105843 0.119609,0.150961 0.32263,0.221274 0.39837,0.386441 0.26473,0.577245 -0.0521,0.07442 -0.12672,0.110861 -0.12672,0.0619 z m -0.11961,-0.114891 c 0.0252,-0.01021 0.0667,-0.01021 0.092,0 0.0252,0.01021 0.004,0.01856 -0.046,0.01856 -0.0507,0 -0.0713,-0.0084 -0.046,-0.01856 z m -0.0368,-0.148812 c 0.0455,-0.0088 0.12007,-0.0088 0.16561,0 0.0455,0.0088 0.008,0.01595 -0.0828,0.01595 -0.0911,0 -0.12835,-0.0071 -0.0828,-0.01595 z m 0.0368,-0.108809 c 0.0252,-0.01021 0.0667,-0.01021 0.092,0 0.0252,0.01021 0.004,0.01856 -0.046,0.01856 -0.0507,0 -0.0713,-0.0084 -0.046,-0.01856 z m 0.11961,-0.231075 c 0,-0.01905 0.0182,-0.04588 0.0404,-0.05962 0.0222,-0.01374 0.063,-0.07683 0.0906,-0.140183 0.048,-0.110429 0.0502,-0.111346 0.0515,-0.02217 8.2e-4,0.05116 -0.0243,0.129828 -0.0558,0.174815 -0.0587,0.08376 -0.12672,0.109087 -0.12672,0.04716 z m -0.14722,-0.112581 c 0,-0.02024 0.0331,-0.03681 0.0736,-0.03681 0.0405,0 0.0736,0.01656 0.0736,0.03681 0,0.02024 -0.0331,0.03681 -0.0736,0.03681 -0.0405,0 -0.0736,-0.01656 -0.0736,-0.03681 z m 2.50264,-0.08734 c 8e-5,-0.09319 0.22303,-0.503777 0.34972,-0.644003 0.12958,-0.143427 0.1401,-0.147907 0.23341,-0.09936 0.0537,0.02797 0.13727,0.0932 0.18564,0.144978 0.0873,0.09343 0.0874,0.09487 0.0183,0.191673 -0.0382,0.05365 -0.11921,0.171024 -0.17994,0.260845 -0.11033,0.163207 -0.11057,0.163316 -0.35883,0.175322 -0.16684,0.008 -0.24841,-0.0016 -0.24839,-0.02946 z m -2.51183,-0.04904 c 0.0455,-0.0088 0.12007,-0.0088 0.16561,0 0.0455,0.0088 0.008,0.01595 -0.0828,0.01595 -0.0911,0 -0.12836,-0.0071 -0.0828,-0.01595 z m 0.17682,-0.415663 c -0.21611,-0.182175 -0.40862,-0.331228 -0.42779,-0.331228 -0.0191,0 -0.0616,0.06693 -0.0944,0.148743 -0.0327,0.08181 -0.0739,0.143915 -0.0916,0.138012 -0.0445,-0.01488 -1.06305,-1.108458 -1.047211,-1.124294 0.007,-0.0071 0.209301,0.103603 0.449431,0.245897 l 0.436639,0.258716 0.0717,-0.146363 c 0.0394,-0.0805 0.0808,-0.146113 0.092,-0.14581 0.0112,2.91e-4 0.24373,0.123834 0.516751,0.274511 l 0.496409,0.273958 0.104811,-0.0997 c 0.15793,-0.150227 0.17757,-0.205557 0.12235,-0.344787 -0.0268,-0.06761 -0.0777,-0.201606 -0.11296,-0.297754 -0.0719,-0.19569 -0.10753,-0.210378 -0.23043,-0.09493 -0.0468,0.04393 -0.0927,0.07223 -0.10206,0.06286 -0.0302,-0.03018 -0.57348,-1.625766 -0.55862,-1.640613 0.008,-0.0079 0.15897,0.209981 0.33576,0.484145 0.17679,0.274165 0.33938,0.498481 0.36131,0.498481 0.022,0 0.0841,-0.04234 0.13808,-0.09408 l 0.0982,-0.09408 0.1835,0.250495 c 0.10092,0.137772 0.252849,0.354004 0.33762,0.480514 0.0848,0.126511 0.15883,0.23002 0.1646,0.23002 0.006,0 0.0848,-0.02533 0.17566,-0.05629 l 0.1652,-0.05628 0.0978,-0.596966 c 0.0537,-0.328331 0.10691,-0.663211 0.11811,-0.744178 0.0834,-0.603561 0.19599,-1.167228 0.21682,-1.08569 0.0129,0.0506 0.10632,0.580568 0.20755,1.177698 0.22622,1.334525 0.20569,1.247816 0.30402,1.28402 0.24328,0.08958 0.27416,0.08442 0.36101,-0.06037 0.0455,-0.07588 0.19055,-0.29025 0.32226,-0.476374 l 0.23948,-0.338407 0.13362,0.105827 0.13362,0.105826 0.32443,-0.494867 c 0.17843,-0.272176 0.33612,-0.502095 0.35042,-0.510929 0.0334,-0.02066 -0.51229,1.570032 -0.55435,1.615842 -0.0191,0.02085 -0.0655,0.0027 -0.11731,-0.046 -0.0472,-0.04427 -0.10244,-0.08048 -0.12293,-0.08048 -0.0344,0 -0.23612,0.523744 -0.23389,0.60725 5.03e-4,0.02024 0.0549,0.100557 0.12084,0.178478 l 0.11989,0.141676 0.50107,-0.279687 c 0.27559,-0.153827 0.51089,-0.279686 0.52288,-0.279686 0.012,0 0.0554,0.06595 0.0966,0.146561 l 0.0747,0.14656 0.2296,-0.139547 c 0.12628,-0.07675 0.32897,-0.195281 0.45042,-0.263401 0.20142,-0.112967 0.21435,-0.11601 0.14725,-0.03462 -0.1552,0.188232 -0.98423,1.0645 -1.0068,1.064143 -0.0131,-2.22e-4 -0.0514,-0.06645 -0.0854,-0.147212 -0.0339,-0.08076 -0.0753,-0.14657 -0.092,-0.146243 -0.0167,3.44e-4 -0.20423,0.148784 -0.41676,0.329904 -0.32394,0.276049 -0.39239,0.319971 -0.42324,0.271564 -0.40269,-0.631834 -0.84343,-0.919273 -1.47212,-0.960084 -0.65271,-0.04237 -1.25718,0.272103 -1.60283,0.833867 -0.0631,0.102635 -0.11977,0.186609 -0.12582,0.186609 -0.006,0 -0.1878,-0.149052 -0.40392,-0.331228 z"
       id="path847"
       sodipodi:nodetypes="ssssscssscscsscscsssssscssssssccsssssssssssssscssssssssssssssssssssscccccsssssssssscsssccssssccsssssccssscsssscscssscssssssssssssscssscsssssssssssssccccccccscsccsscsssccsscssscccccccsccccccsscccsssccscccsccsscccccsccsscccsssssssscscsssscscscccssccccccsccccccccssssssssssccccssssscsssscssccccsccscccssccscsccccsccsssscsccssssscscsccscscsccscccsccccsccscccccccsccscccsscssssccccssssssssssscscssscsscccscsssccsccccscccccccccscccscscsscsccsccsscscscsssccccccsccccscccscccccscsccccccccssssccssscscscsscsscscccscscsssccscscsssscccscssscccssssscscssssccsscsccscsscscsssccccscscssscsscsscscsssssccsscscscsccccscccccscsssscccccssscccccssssssssssccssssssccscccsssssccssssssscccsscscccscccsscscccsscccscccccsssssscsscsccscccssscscssscssscssscssccsccssscsscsccsscssssssssssssssssssscssssssssssssssssssssssssssssscssssssscssssssssssssscssscscscsscsscsssccssscccccssccccssssscsccscccsscscscsssscscscssccsssscsssscscc" />
  </g>
  <g
     inkscape:label="F.SilkS"
     inkscape:groupmode="layer"
     id="g3463" />
</svg>
