<?xml version="1.0" encoding="UTF-8" standalone="no"?>
<svg
   xmlns:dc="http://purl.org/dc/elements/1.1/"
   xmlns:cc="http://creativecommons.org/ns#"
   xmlns:rdf="http://www.w3.org/1999/02/22-rdf-syntax-ns#"
   xmlns:svg="http://www.w3.org/2000/svg"
   xmlns="http://www.w3.org/2000/svg"
   xmlns:sodipodi="http://sodipodi.sourceforge.net/DTD/sodipodi-0.dtd"
   xmlns:inkscape="http://www.inkscape.org/namespaces/inkscape"
   width="210mm"
   height="297mm"
   viewBox="0 0 210 297"
   version="1.1"
   id="svg4882"
   inkscape:version="1.0.1 (3bc2e813f5, 2020-09-07)"
   sodipodi:docname="board_outline.svg">
  <defs
     id="defs4876" />
  <sodipodi:namedview
     id="base"
     pagecolor="#ffffff"
     bordercolor="#666666"
     borderopacity="1.0"
     inkscape:pageopacity="0.0"
     inkscape:pageshadow="2"
     inkscape:zoom="0.28324503"
     inkscape:cx="400"
     inkscape:cy="560"
     inkscape:document-units="mm"
     inkscape:current-layer="layer1"
     inkscape:document-rotation="0"
     showgrid="false"
     inkscape:window-width="1267"
     inkscape:window-height="1009"
     inkscape:window-x="24"
     inkscape:window-y="0"
     inkscape:window-maximized="0" />
  <metadata
     id="metadata4879">
    <rdf:RDF>
      <cc:Work
         rdf:about="">
        <dc:format>image/svg+xml</dc:format>
        <dc:type
           rdf:resource="http://purl.org/dc/dcmitype/StillImage" />
        <dc:title></dc:title>
      </cc:Work>
    </rdf:RDF>
  </metadata>
  <g
     inkscape:label="Layer 1"
     inkscape:groupmode="layer"
     id="layer1">
    <path
       id="path1628"
       style="display:inline;opacity:0.996;fill:#000000;stroke-width:1"
       d="m 113.47809,18.077166 c -0.50225,-0.0094 -0.98971,0.0059 -1.44642,0.04754 -2.89149,0.263763 -5.10014,1.273581 -6.76858,3.094384 l -0.55966,0.610816 v -1.748214 -1.747697 h -4.16977 -4.169249 l -0.02585,1.616956 -0.02585,1.617472 -0.84336,-1.616955 -0.843854,-1.617473 H 84.196159 73.766305 V 40.84942 63.364841 l -1.815909,3.148129 c -2.09635,3.63432 -2.309752,4.041365 -2.582273,4.924764 -0.429318,1.39165 -0.350845,2.584453 0.245465,3.727421 0.609279,1.167842 1.794772,1.972852 3.389974,2.302703 l 0.762743,0.157612 v 3.49436 3.49436 H 92.119708 V 99.854087 H 104.18512 V 84.61419 h 17.11162 v -3.515545 -3.515548 h 0.21497 c 0.40551,0 1.33249,-0.284633 2.01745,-0.619085 2.32813,-1.136759 3.05423,-3.732199 1.80506,-6.45387 -0.14336,-0.312349 -1.11065,-2.037866 -2.14923,-3.834389 l -1.88825,-3.265951 V 44.16343 24.917576 l -0.39843,-0.05529 c -0.21913,-0.0305 -0.61968,-0.08272 -0.89038,-0.116272 -0.28916,-0.03585 -0.49248,-0.107976 -0.49248,-0.174666 0,-0.06244 0.38258,-1.052872 0.85008,-2.2009 0.4675,-1.148023 0.83122,-2.135648 0.80822,-2.194698 -0.0477,-0.12215 -2.35473,-1.12651 -3.20498,-1.395264 -1.34373,-0.424747 -2.98392,-0.675046 -4.49068,-0.703316 z" />
  </g>
</svg>
