M48
; DRILL file {KiCad (5.1.8)-1} date 05/14/21 20:15:24
; FORMAT={-:-/ absolute / inch / decimal}
; #@! TF.CreationDate,2021-05-14T20:15:24-04:00
; #@! TF.GenerationSoftware,Kicad,Pcbnew,(5.1.8)-1
; #@! TF.FileFunction,Plated,1,2,PTH
FMAT,2
INCH
T1C0.0100
%
G90
G05
T1
X4.1646Y-3.176
X4.3618Y-3.4039
X4.4272Y-2.248
X4.4378Y-2.8862
X4.4764Y-2.2067
X4.5039Y-2.1732
X4.5331Y-2.4343
X4.5374Y-2.9724
X4.5669Y-2.9724
X4.5965Y-2.9724
X4.626Y-2.9724
X4.6417Y-2.0394
X4.6555Y-2.9724
X4.6654Y-2.5197
X4.685Y-2.9724
X4.6949Y-2.5197
X4.7146Y-2.9724
X4.7244Y-2.5197
X4.7441Y-2.9724
X4.7539Y-2.5197
X4.7736Y-2.9724
X4.7835Y-2.5197
X4.8031Y-2.9724
X4.813Y-2.5197
X4.8327Y-2.9724
X4.8425Y-2.5197
X4.8622Y-2.9724
X4.872Y-2.5197
X4.8917Y-2.9724
X4.9016Y-2.5197
X4.9213Y-2.9724
X4.9311Y-2.5197
X4.9508Y-2.9724
X4.9606Y-2.5197
X4.9803Y-2.9724
X4.9902Y-2.5197
X5.0098Y-2.9724
X5.0197Y-2.5197
X5.0394Y-2.9724
X5.0492Y-2.5197
X5.0787Y-2.5197
X5.1083Y-2.5197
X5.1378Y-2.5197
X5.1567Y-1.7272
X5.1594Y-1.785
X5.1673Y-2.5197
X5.2618Y-1.8346
X5.2657Y-2.2441
X5.2657Y-2.2736
X5.2657Y-2.3031
X5.2657Y-2.3327
X5.2657Y-2.3622
X5.2657Y-2.3917
X5.2657Y-2.4213
X5.2657Y-2.4508
X5.2657Y-2.4803
X5.2894Y-1.8346
X5.4917Y-2.3244
X5.7476Y-2.1752
X6.5256Y-2.2047
X6.5256Y-2.2343
X6.5256Y-2.2638
X6.5256Y-2.2933
X6.5256Y-2.3228
X6.5256Y-2.3524
X6.5256Y-2.3819
X6.5256Y-2.4114
X6.5256Y-2.4409
X6.5354Y-2.7559
X6.5354Y-2.7854
X6.5354Y-2.815
X6.5354Y-2.8445
X6.5354Y-2.874
X6.5354Y-2.9035
X6.5354Y-2.9331
X6.5354Y-2.9626
X6.5354Y-2.9921
X6.5748Y-2.5197
X6.5945Y-3.0807
X6.6043Y-2.5197
X6.624Y-3.0807
X6.6339Y-2.5197
X6.6535Y-3.0807
X6.6634Y-2.5197
X6.6831Y-3.0807
X6.6929Y-2.5197
X6.7126Y-3.0807
X6.7224Y-2.5197
X6.7421Y-3.0807
X6.752Y-2.5197
X6.7717Y-3.0807
X6.7815Y-2.5197
X6.8012Y-3.0807
X6.811Y-2.5197
X6.8307Y-3.0807
X6.8406Y-2.5197
X6.8602Y-3.0807
X6.8701Y-2.5197
X6.8898Y-3.0807
X6.8996Y-2.5197
X6.9193Y-3.0807
X6.9248Y-3.3004
X6.9291Y-2.5197
X6.939Y-3.002
X6.9587Y-2.5197
X6.9587Y-2.9823
X6.9783Y-2.9626
X6.9882Y-2.5197
X6.998Y-2.9429
X7.0079Y-2.4902
X7.0177Y-2.9232
X7.0276Y-2.4606
X7.0374Y-2.9035
X7.0472Y-2.4311
X7.0669Y-2.4114
X7.0965Y-2.4114
X7.126Y-2.4114
X7.1358Y-2.711
X7.1374Y-3.4154
X7.1555Y-2.4114
X7.2299Y-2.2819
X7.2701Y-2.926
X7.3732Y-2.4031
T0
M30
