G04 #@! TF.GenerationSoftware,KiCad,Pcbnew,(5.1.8)-1*
G04 #@! TF.CreationDate,2021-05-14T20:15:16-04:00*
G04 #@! TF.ProjectId,DogeKey2,446f6765-4b65-4793-922e-6b696361645f,1*
G04 #@! TF.SameCoordinates,Original*
G04 #@! TF.FileFunction,Copper,L2,Bot*
G04 #@! TF.FilePolarity,Positive*
%FSLAX46Y46*%
G04 Gerber Fmt 4.6, Leading zero omitted, Abs format (unit mm)*
G04 Created by KiCad (PCBNEW (5.1.8)-1) date 2021-05-14 20:15:16*
%MOMM*%
%LPD*%
G01*
G04 APERTURE LIST*
G04 #@! TA.AperFunction,EtchedComponent*
%ADD10C,0.010000*%
G04 #@! TD*
G04 #@! TA.AperFunction,SMDPad,CuDef*
%ADD11R,0.800000X0.800000*%
G04 #@! TD*
G04 #@! TA.AperFunction,SMDPad,CuDef*
%ADD12R,0.400000X0.800000*%
G04 #@! TD*
G04 #@! TA.AperFunction,SMDPad,CuDef*
%ADD13R,0.600000X0.800000*%
G04 #@! TD*
G04 #@! TA.AperFunction,SMDPad,CuDef*
%ADD14R,0.750000X0.800000*%
G04 #@! TD*
G04 #@! TA.AperFunction,SMDPad,CuDef*
%ADD15R,0.800000X0.400000*%
G04 #@! TD*
G04 #@! TA.AperFunction,SMDPad,CuDef*
%ADD16R,0.800000X0.600000*%
G04 #@! TD*
G04 #@! TA.AperFunction,SMDPad,CuDef*
%ADD17R,0.800000X0.750000*%
G04 #@! TD*
G04 #@! TA.AperFunction,SMDPad,CuDef*
%ADD18C,0.152400*%
G04 #@! TD*
G04 #@! TA.AperFunction,SMDPad,CuDef*
%ADD19R,0.300000X1.400000*%
G04 #@! TD*
G04 #@! TA.AperFunction,ViaPad*
%ADD20C,0.508000*%
G04 #@! TD*
G04 #@! TA.AperFunction,Conductor*
%ADD21C,0.152400*%
G04 #@! TD*
G04 #@! TA.AperFunction,Conductor*
%ADD22C,0.508000*%
G04 #@! TD*
G04 #@! TA.AperFunction,Conductor*
%ADD23C,0.254000*%
G04 #@! TD*
G04 #@! TA.AperFunction,Conductor*
%ADD24C,0.762000*%
G04 #@! TD*
G04 APERTURE END LIST*
D10*
G36*
X158492737Y-41474941D02*
G01*
X158462813Y-41484021D01*
X158423198Y-41497587D01*
X158377769Y-41514358D01*
X158364685Y-41519395D01*
X158314885Y-41539055D01*
X158278664Y-41554634D01*
X158251950Y-41568569D01*
X158230671Y-41583296D01*
X158210755Y-41601250D01*
X158188131Y-41624868D01*
X158187797Y-41625228D01*
X158157929Y-41659586D01*
X158129354Y-41696163D01*
X158107774Y-41727616D01*
X158106063Y-41730463D01*
X158099414Y-41741757D01*
X158093292Y-41752587D01*
X158087514Y-41763890D01*
X158081896Y-41776602D01*
X158076254Y-41791657D01*
X158070406Y-41809992D01*
X158064166Y-41832542D01*
X158057352Y-41860243D01*
X158049780Y-41894030D01*
X158041267Y-41934839D01*
X158031628Y-41983605D01*
X158020680Y-42041265D01*
X158008240Y-42108754D01*
X157994124Y-42187007D01*
X157978148Y-42276960D01*
X157960128Y-42379549D01*
X157939882Y-42495709D01*
X157917224Y-42626376D01*
X157891973Y-42772485D01*
X157863944Y-42934973D01*
X157832953Y-43114774D01*
X157822682Y-43174370D01*
X157808181Y-43257776D01*
X157794439Y-43335424D01*
X157781819Y-43405352D01*
X157770688Y-43465599D01*
X157761410Y-43514204D01*
X157754351Y-43549205D01*
X157749875Y-43568641D01*
X157748686Y-43571950D01*
X157741568Y-43566739D01*
X157725373Y-43548158D01*
X157701737Y-43518300D01*
X157672299Y-43479262D01*
X157638695Y-43433139D01*
X157622826Y-43410878D01*
X157581355Y-43353675D01*
X157540604Y-43299943D01*
X157503011Y-43252747D01*
X157471017Y-43215151D01*
X157447471Y-43190599D01*
X157374387Y-43133794D01*
X157295511Y-43093965D01*
X157209240Y-43070567D01*
X157113972Y-43063050D01*
X157077405Y-43064113D01*
X156985513Y-43069132D01*
X156831571Y-42837177D01*
X156765704Y-42738434D01*
X156708611Y-42654220D01*
X156659060Y-42583135D01*
X156615819Y-42523774D01*
X156577653Y-42474736D01*
X156543332Y-42434617D01*
X156511622Y-42402015D01*
X156481290Y-42375527D01*
X156451105Y-42353752D01*
X156419832Y-42335285D01*
X156386240Y-42318725D01*
X156369355Y-42311225D01*
X156336384Y-42298037D01*
X156306106Y-42289114D01*
X156272599Y-42283306D01*
X156229938Y-42279465D01*
X156195630Y-42277535D01*
X156087445Y-42272203D01*
X155966605Y-42325824D01*
X155918537Y-42347358D01*
X155883703Y-42364113D01*
X155858114Y-42378884D01*
X155837781Y-42394467D01*
X155818717Y-42413658D01*
X155796931Y-42439253D01*
X155786349Y-42452171D01*
X155754603Y-42493176D01*
X155731862Y-42529194D01*
X155713746Y-42568189D01*
X155697057Y-42614569D01*
X155678472Y-42679023D01*
X155668297Y-42738791D01*
X155666606Y-42798490D01*
X155673473Y-42862736D01*
X155688971Y-42936145D01*
X155703027Y-42988567D01*
X155713118Y-43022324D01*
X155728548Y-43071586D01*
X155748553Y-43134058D01*
X155772368Y-43207447D01*
X155799230Y-43289458D01*
X155828375Y-43377797D01*
X155859040Y-43470172D01*
X155890462Y-43564288D01*
X155921875Y-43657851D01*
X155952517Y-43748567D01*
X155981623Y-43834143D01*
X156008431Y-43912285D01*
X156032175Y-43980699D01*
X156052094Y-44037091D01*
X156052616Y-44038550D01*
X156090888Y-44145433D01*
X156061441Y-44139544D01*
X155967093Y-44128473D01*
X155872484Y-44131974D01*
X155781429Y-44149350D01*
X155697745Y-44179904D01*
X155632107Y-44217936D01*
X155605198Y-44237097D01*
X155479432Y-44163532D01*
X155384327Y-44108277D01*
X155303260Y-44062192D01*
X155234320Y-44024473D01*
X155175593Y-43994315D01*
X155125166Y-43970913D01*
X155081126Y-43953461D01*
X155041560Y-43941156D01*
X155004555Y-43933191D01*
X154968198Y-43928761D01*
X154930576Y-43927062D01*
X154917295Y-43926963D01*
X154867031Y-43928917D01*
X154820193Y-43935740D01*
X154768066Y-43948870D01*
X154747932Y-43954920D01*
X154657519Y-43982877D01*
X154556917Y-44084272D01*
X154456316Y-44185667D01*
X154427627Y-44289148D01*
X154406880Y-44384808D01*
X154400823Y-44472373D01*
X154410079Y-44554451D01*
X154435272Y-44633649D01*
X154477027Y-44712573D01*
X154535966Y-44793830D01*
X154553425Y-44814775D01*
X154601505Y-44870058D01*
X154660986Y-44936721D01*
X154730015Y-45012788D01*
X154806740Y-45096282D01*
X154889307Y-45185230D01*
X154975866Y-45277654D01*
X155064561Y-45371581D01*
X155153542Y-45465035D01*
X155240956Y-45556039D01*
X155324949Y-45642620D01*
X155403669Y-45722801D01*
X155428926Y-45748277D01*
X155488194Y-45807704D01*
X155536226Y-45855295D01*
X155574909Y-45892696D01*
X155606129Y-45921555D01*
X155631772Y-45943520D01*
X155653724Y-45960238D01*
X155673872Y-45973355D01*
X155694102Y-45984521D01*
X155706445Y-45990669D01*
X155745382Y-46008354D01*
X155783545Y-46023687D01*
X155813557Y-46033736D01*
X155817064Y-46034647D01*
X155841732Y-46041688D01*
X155852115Y-46049551D01*
X155852411Y-46062590D01*
X155850788Y-46069662D01*
X155848319Y-46088493D01*
X155846167Y-46121623D01*
X155844550Y-46164534D01*
X155843685Y-46212711D01*
X155843650Y-46217444D01*
X155843512Y-46268008D01*
X155844316Y-46304071D01*
X155846732Y-46329946D01*
X155851427Y-46349945D01*
X155859070Y-46368379D01*
X155870332Y-46389562D01*
X155870354Y-46389602D01*
X155885110Y-46420082D01*
X155890805Y-46440937D01*
X155889168Y-46447635D01*
X155877947Y-46447131D01*
X155850755Y-46440834D01*
X155809351Y-46429258D01*
X155755491Y-46412913D01*
X155690933Y-46392310D01*
X155631185Y-46372578D01*
X155582679Y-46356473D01*
X155518183Y-46335268D01*
X155439633Y-46309589D01*
X155348962Y-46280064D01*
X155248104Y-46247319D01*
X155138991Y-46211981D01*
X155023558Y-46174676D01*
X154903738Y-46136032D01*
X154781466Y-46096674D01*
X154658674Y-46057231D01*
X154619889Y-46044790D01*
X154487333Y-46002277D01*
X154347279Y-45957343D01*
X154202605Y-45910913D01*
X154056187Y-45863911D01*
X153910903Y-45817259D01*
X153769629Y-45771883D01*
X153635241Y-45728705D01*
X153510618Y-45688651D01*
X153398635Y-45652643D01*
X153316963Y-45626367D01*
X153177060Y-45581400D01*
X153035498Y-45536014D01*
X152893711Y-45490660D01*
X152753131Y-45445791D01*
X152615188Y-45401861D01*
X152481317Y-45359323D01*
X152352949Y-45318630D01*
X152231516Y-45280234D01*
X152118451Y-45244590D01*
X152015185Y-45212149D01*
X151923152Y-45183365D01*
X151843782Y-45158692D01*
X151778509Y-45138581D01*
X151728765Y-45123487D01*
X151705086Y-45116478D01*
X151637794Y-45098639D01*
X151580599Y-45088303D01*
X151527183Y-45085274D01*
X151471224Y-45089359D01*
X151406404Y-45100360D01*
X151377907Y-45106363D01*
X151333303Y-45116491D01*
X151300757Y-45125760D01*
X151274367Y-45136963D01*
X151248230Y-45152892D01*
X151216444Y-45176338D01*
X151195382Y-45192694D01*
X151129792Y-45250220D01*
X151079018Y-45310124D01*
X151039241Y-45377382D01*
X151019845Y-45421369D01*
X151010738Y-45446891D01*
X151004625Y-45472357D01*
X151000937Y-45502453D01*
X150999105Y-45541866D01*
X150998562Y-45595280D01*
X150998560Y-45596778D01*
X150999293Y-45646084D01*
X151002072Y-45691435D01*
X151007584Y-45735799D01*
X151016516Y-45782143D01*
X151029555Y-45833432D01*
X151047390Y-45892633D01*
X151070706Y-45962713D01*
X151100192Y-46046638D01*
X151107537Y-46067148D01*
X151137094Y-46147637D01*
X151162919Y-46213428D01*
X151186557Y-46267883D01*
X151209552Y-46314365D01*
X151233449Y-46356237D01*
X151257233Y-46393100D01*
X151277183Y-46425450D01*
X151290119Y-46455668D01*
X151298823Y-46491546D01*
X151303798Y-46523553D01*
X151310079Y-46562660D01*
X151318490Y-46600771D01*
X151329991Y-46640330D01*
X151345537Y-46683782D01*
X151366087Y-46733572D01*
X151392599Y-46792145D01*
X151426029Y-46861946D01*
X151467336Y-46945420D01*
X151475063Y-46960852D01*
X151518791Y-47047659D01*
X151555436Y-47119325D01*
X151586052Y-47177669D01*
X151611694Y-47224514D01*
X151633416Y-47261681D01*
X151652273Y-47290992D01*
X151669321Y-47314267D01*
X151685612Y-47333330D01*
X151698130Y-47346113D01*
X151720472Y-47371377D01*
X151734104Y-47394085D01*
X151736519Y-47403918D01*
X151741452Y-47437464D01*
X151755433Y-47484167D01*
X151777231Y-47541425D01*
X151805615Y-47606635D01*
X151839357Y-47677194D01*
X151877224Y-47750500D01*
X151917988Y-47823951D01*
X151960417Y-47894943D01*
X151991520Y-47943395D01*
X152063689Y-48052111D01*
X152029456Y-48069954D01*
X151986069Y-48095842D01*
X151946799Y-48127274D01*
X151906815Y-48168476D01*
X151878544Y-48202018D01*
X151855871Y-48230744D01*
X151839298Y-48254872D01*
X151826620Y-48279209D01*
X151815630Y-48308567D01*
X151804123Y-48347753D01*
X151793674Y-48387068D01*
X151775232Y-48467356D01*
X151765855Y-48536017D01*
X151765702Y-48597995D01*
X151774933Y-48658235D01*
X151793706Y-48721683D01*
X151805453Y-48752963D01*
X151843427Y-48846680D01*
X151884724Y-48944413D01*
X151927917Y-49043056D01*
X151971578Y-49139506D01*
X152014279Y-49230659D01*
X152054592Y-49313412D01*
X152091089Y-49384661D01*
X152121412Y-49439704D01*
X152131707Y-49460868D01*
X152146287Y-49495357D01*
X152163342Y-49538696D01*
X152181065Y-49586409D01*
X152184118Y-49594926D01*
X152205186Y-49652544D01*
X152232124Y-49723827D01*
X152264253Y-49807121D01*
X152300895Y-49900771D01*
X152341374Y-50003124D01*
X152385011Y-50112527D01*
X152431129Y-50227324D01*
X152479050Y-50345863D01*
X152528095Y-50466489D01*
X152577589Y-50587548D01*
X152626851Y-50707386D01*
X152675206Y-50824350D01*
X152721975Y-50936786D01*
X152766481Y-51043039D01*
X152808045Y-51141456D01*
X152845990Y-51230382D01*
X152879639Y-51308165D01*
X152908313Y-51373149D01*
X152931334Y-51423682D01*
X152945876Y-51453885D01*
X152977168Y-51516030D01*
X152958900Y-51693774D01*
X152952431Y-51755829D01*
X152945869Y-51817207D01*
X152939731Y-51873188D01*
X152934533Y-51919050D01*
X152931328Y-51945851D01*
X152927472Y-51989588D01*
X152926196Y-52033742D01*
X152927762Y-52068986D01*
X152927869Y-52069926D01*
X152930236Y-52095624D01*
X152928700Y-52114786D01*
X152921201Y-52133207D01*
X152905678Y-52156686D01*
X152889081Y-52179038D01*
X152837491Y-52256139D01*
X152792601Y-52339903D01*
X152756650Y-52425274D01*
X152731874Y-52507199D01*
X152723130Y-52553874D01*
X152719072Y-52590221D01*
X152718168Y-52621683D01*
X152720811Y-52654598D01*
X152727393Y-52695302D01*
X152733974Y-52728959D01*
X152750025Y-52795838D01*
X152770482Y-52855824D01*
X152796749Y-52910163D01*
X152830228Y-52960101D01*
X152872323Y-53006883D01*
X152924436Y-53051757D01*
X152987970Y-53095966D01*
X153064329Y-53140759D01*
X153154914Y-53187379D01*
X153261130Y-53237075D01*
X153350522Y-53276520D01*
X153442571Y-53315534D01*
X153520371Y-53346534D01*
X153586314Y-53370284D01*
X153642792Y-53387552D01*
X153692196Y-53399101D01*
X153736917Y-53405698D01*
X153759569Y-53407450D01*
X153831964Y-53407631D01*
X153896690Y-53398764D01*
X153960658Y-53379335D01*
X154030217Y-53348112D01*
X154096951Y-53309991D01*
X154158498Y-53266182D01*
X154212713Y-53218929D01*
X154257452Y-53170476D01*
X154290574Y-53123065D01*
X154309933Y-53078939D01*
X154314148Y-53050983D01*
X154317061Y-53033564D01*
X154329378Y-53024279D01*
X154348035Y-53019663D01*
X154370775Y-53016235D01*
X154383680Y-53015884D01*
X154384479Y-53016264D01*
X154387449Y-53025804D01*
X154394449Y-53051063D01*
X154404812Y-53089544D01*
X154417868Y-53138747D01*
X154432949Y-53196173D01*
X154445391Y-53243923D01*
X154467331Y-53327027D01*
X154486140Y-53394438D01*
X154502849Y-53448808D01*
X154518491Y-53492792D01*
X154534097Y-53529045D01*
X154550700Y-53560219D01*
X154569332Y-53588970D01*
X154590672Y-53617502D01*
X154653706Y-53682944D01*
X154728117Y-53733747D01*
X154812846Y-53769396D01*
X154906838Y-53789373D01*
X154949748Y-53793012D01*
X155044564Y-53791928D01*
X155127718Y-53777979D01*
X155202250Y-53750039D01*
X155271200Y-53706983D01*
X155334871Y-53650476D01*
X155352389Y-53632460D01*
X155367583Y-53615745D01*
X155381599Y-53598327D01*
X155395585Y-53578205D01*
X155410686Y-53553375D01*
X155428049Y-53521835D01*
X155448821Y-53481582D01*
X155474148Y-53430613D01*
X155505177Y-53366927D01*
X155543055Y-53288520D01*
X155548163Y-53277926D01*
X155610837Y-53148013D01*
X155679638Y-53005524D01*
X155752463Y-52854803D01*
X155827214Y-52700196D01*
X155901787Y-52546046D01*
X155974083Y-52396698D01*
X156042000Y-52256497D01*
X156088396Y-52160796D01*
X156176225Y-51979704D01*
X156871650Y-51979704D01*
X156862899Y-52010216D01*
X156858860Y-52033736D01*
X156855808Y-52069484D01*
X156854249Y-52110878D01*
X156854148Y-52123798D01*
X156863098Y-52219383D01*
X156889335Y-52310590D01*
X156931937Y-52394313D01*
X156936302Y-52401013D01*
X156950439Y-52418059D01*
X156977605Y-52446623D01*
X157016757Y-52485735D01*
X157066852Y-52534420D01*
X157126849Y-52591708D01*
X157195705Y-52656625D01*
X157272378Y-52728200D01*
X157355826Y-52805460D01*
X157445008Y-52887433D01*
X157538880Y-52973147D01*
X157636400Y-53061629D01*
X157736528Y-53151908D01*
X157838219Y-53243010D01*
X157852070Y-53255373D01*
X157998622Y-53386111D01*
X157975121Y-53442556D01*
X157968246Y-53459750D01*
X157962797Y-53476188D01*
X157958551Y-53494359D01*
X157955287Y-53516749D01*
X157952782Y-53545848D01*
X157950815Y-53584142D01*
X157949163Y-53634121D01*
X157947605Y-53698271D01*
X157946162Y-53767111D01*
X157944509Y-53836627D01*
X157942545Y-53900221D01*
X157940380Y-53955401D01*
X157938130Y-53999677D01*
X157935906Y-54030556D01*
X157933823Y-54045549D01*
X157933482Y-54046352D01*
X157923777Y-54055265D01*
X157901363Y-54073049D01*
X157868879Y-54097696D01*
X157828966Y-54127198D01*
X157792371Y-54153728D01*
X157690186Y-54231213D01*
X157605288Y-54304579D01*
X157536846Y-54374790D01*
X157484032Y-54442811D01*
X157446016Y-54509607D01*
X157421970Y-54576143D01*
X157419062Y-54588164D01*
X157399424Y-54716657D01*
X157396222Y-54849825D01*
X157409037Y-54983983D01*
X157437450Y-55115447D01*
X157481040Y-55240535D01*
X157497588Y-55277481D01*
X157567129Y-55403805D01*
X157649835Y-55518414D01*
X157744316Y-55620546D01*
X157849184Y-55709439D01*
X157963048Y-55784331D01*
X158084518Y-55844460D01*
X158212206Y-55889064D01*
X158344722Y-55917381D01*
X158480675Y-55928649D01*
X158618676Y-55922105D01*
X158662389Y-55916227D01*
X158795938Y-55886082D01*
X158925112Y-55838591D01*
X159048180Y-55775041D01*
X159163412Y-55696713D01*
X159269076Y-55604892D01*
X159363442Y-55500861D01*
X159444778Y-55385904D01*
X159492583Y-55300518D01*
X159547045Y-55174693D01*
X159585146Y-55046992D01*
X159606231Y-54919999D01*
X159610519Y-54834034D01*
X159609802Y-54793122D01*
X159606618Y-54764216D01*
X159599415Y-54740526D01*
X159586639Y-54715267D01*
X159581221Y-54705914D01*
X159559066Y-54670690D01*
X159526859Y-54622894D01*
X159486204Y-54564720D01*
X159438708Y-54498365D01*
X159385975Y-54426023D01*
X159329612Y-54349890D01*
X159271224Y-54272161D01*
X159212415Y-54195031D01*
X159154793Y-54120696D01*
X159131987Y-54091667D01*
X159065183Y-54007000D01*
X159064869Y-53828259D01*
X159063529Y-53719419D01*
X159059861Y-53628203D01*
X159053774Y-53553552D01*
X159045172Y-53494408D01*
X159033965Y-53449714D01*
X159030815Y-53440859D01*
X159014546Y-53398259D01*
X159070231Y-53349852D01*
X159105484Y-53318811D01*
X159150876Y-53278219D01*
X159204904Y-53229463D01*
X159266065Y-53173933D01*
X159332855Y-53113016D01*
X159403771Y-53048101D01*
X159477310Y-52980575D01*
X159551969Y-52911826D01*
X159626244Y-52843243D01*
X159698631Y-52776214D01*
X159767629Y-52712126D01*
X159831732Y-52652368D01*
X159889439Y-52598328D01*
X159939246Y-52551395D01*
X159979649Y-52512955D01*
X160009145Y-52484398D01*
X160026231Y-52467111D01*
X160026255Y-52467085D01*
X160084019Y-52391277D01*
X160125911Y-52306376D01*
X160151415Y-52214168D01*
X160160013Y-52116437D01*
X160153439Y-52028997D01*
X160146068Y-51979513D01*
X160575104Y-51981960D01*
X161004141Y-51984407D01*
X161073374Y-52120815D01*
X161089104Y-52152016D01*
X161112318Y-52198363D01*
X161142161Y-52258135D01*
X161177778Y-52329612D01*
X161218314Y-52411074D01*
X161262912Y-52500801D01*
X161310718Y-52597074D01*
X161360876Y-52698171D01*
X161412529Y-52802374D01*
X161452374Y-52882815D01*
X161503257Y-52985255D01*
X161552420Y-53083610D01*
X161599125Y-53176446D01*
X161642637Y-53262327D01*
X161682219Y-53339819D01*
X161717137Y-53407488D01*
X161746652Y-53463898D01*
X161770031Y-53507614D01*
X161786536Y-53537202D01*
X161795043Y-53550746D01*
X161818250Y-53576368D01*
X161850919Y-53607133D01*
X161887041Y-53637480D01*
X161897510Y-53645564D01*
X161938762Y-53674644D01*
X161976572Y-53695647D01*
X162019080Y-53712609D01*
X162056445Y-53724372D01*
X162101266Y-53736897D01*
X162136106Y-53744173D01*
X162168769Y-53747081D01*
X162207063Y-53746503D01*
X162237174Y-53744772D01*
X162327371Y-53733140D01*
X162406774Y-53709786D01*
X162480472Y-53673079D01*
X162500676Y-53660254D01*
X162546588Y-53625608D01*
X162587805Y-53584978D01*
X162625160Y-53536673D01*
X162659486Y-53479001D01*
X162691617Y-53410272D01*
X162722385Y-53328795D01*
X162752624Y-53232879D01*
X162783166Y-53120832D01*
X162800317Y-53052042D01*
X162817789Y-52982244D01*
X162832871Y-52926475D01*
X162845222Y-52885874D01*
X162854497Y-52861580D01*
X162859837Y-52854593D01*
X162875119Y-52856111D01*
X162901921Y-52860011D01*
X162922550Y-52863416D01*
X162962068Y-52869537D01*
X163007369Y-52875562D01*
X163032328Y-52878436D01*
X163065142Y-52882662D01*
X163086224Y-52889329D01*
X163102596Y-52902417D01*
X163121278Y-52925905D01*
X163125001Y-52930962D01*
X163167410Y-52977502D01*
X163222869Y-53021855D01*
X163285696Y-53060038D01*
X163347931Y-53087282D01*
X163378271Y-53097264D01*
X163404189Y-53103708D01*
X163430870Y-53107135D01*
X163463499Y-53108071D01*
X163507261Y-53107038D01*
X163533408Y-53106010D01*
X163602931Y-53101270D01*
X163662725Y-53092306D01*
X163718878Y-53077469D01*
X163777480Y-53055113D01*
X163844620Y-53023588D01*
X163852477Y-53019647D01*
X163986515Y-52944308D01*
X164103272Y-52862150D01*
X164202663Y-52773255D01*
X164284609Y-52677708D01*
X164349026Y-52575590D01*
X164395183Y-52468889D01*
X164407010Y-52417533D01*
X164412785Y-52354156D01*
X164412585Y-52284525D01*
X164406487Y-52214407D01*
X164394568Y-52149569D01*
X164390742Y-52135051D01*
X164361212Y-52046709D01*
X164327765Y-51976751D01*
X164290406Y-51925186D01*
X164272788Y-51908375D01*
X164232209Y-51874455D01*
X164225993Y-51786029D01*
X164221312Y-51734931D01*
X164214536Y-51679581D01*
X164206974Y-51630421D01*
X164205429Y-51621967D01*
X164191081Y-51546331D01*
X164280229Y-51365555D01*
X164319650Y-51283667D01*
X164357172Y-51202017D01*
X164391749Y-51123154D01*
X164422335Y-51049628D01*
X164447883Y-50983989D01*
X164467346Y-50928788D01*
X164479678Y-50886575D01*
X164482657Y-50872284D01*
X164489270Y-50848025D01*
X164502528Y-50811070D01*
X164520784Y-50765611D01*
X164542395Y-50715843D01*
X164553833Y-50690889D01*
X164589638Y-50613335D01*
X164629760Y-50524848D01*
X164673596Y-50426859D01*
X164720541Y-50320796D01*
X164769989Y-50208091D01*
X164821335Y-50090174D01*
X164873976Y-49968475D01*
X164927306Y-49844424D01*
X164980719Y-49719452D01*
X165033613Y-49594988D01*
X165085380Y-49472463D01*
X165135418Y-49353308D01*
X165183120Y-49238952D01*
X165227882Y-49130826D01*
X165269099Y-49030359D01*
X165306166Y-48938983D01*
X165338479Y-48858127D01*
X165365432Y-48789221D01*
X165386421Y-48733697D01*
X165400841Y-48692983D01*
X165406600Y-48674435D01*
X165419518Y-48618631D01*
X165425218Y-48567239D01*
X165423578Y-48514679D01*
X165414475Y-48455370D01*
X165400437Y-48394128D01*
X165387425Y-48343955D01*
X165376449Y-48307214D01*
X165365324Y-48278997D01*
X165351865Y-48254402D01*
X165333886Y-48228522D01*
X165316602Y-48205935D01*
X165277132Y-48160558D01*
X165234055Y-48119735D01*
X165204781Y-48097052D01*
X165177144Y-48076834D01*
X165157283Y-48059821D01*
X165148916Y-48049253D01*
X165148892Y-48048376D01*
X165154817Y-48037114D01*
X165168966Y-48014302D01*
X165188861Y-47983865D01*
X165201010Y-47965805D01*
X165227509Y-47924968D01*
X165258777Y-47873846D01*
X165293139Y-47815470D01*
X165328923Y-47752872D01*
X165364454Y-47689083D01*
X165398058Y-47627135D01*
X165428063Y-47570060D01*
X165452795Y-47520889D01*
X165470579Y-47482654D01*
X165477954Y-47464148D01*
X165488874Y-47429067D01*
X165496589Y-47397692D01*
X165499313Y-47378281D01*
X165504509Y-47355163D01*
X165513465Y-47342019D01*
X165533383Y-47320027D01*
X165559268Y-47283093D01*
X165589876Y-47233652D01*
X165623962Y-47174138D01*
X165660281Y-47106988D01*
X165697589Y-47034635D01*
X165734639Y-46959515D01*
X165770187Y-46884063D01*
X165802989Y-46810713D01*
X165831798Y-46741902D01*
X165855371Y-46680064D01*
X165862631Y-46659097D01*
X165878235Y-46607466D01*
X165889249Y-46560747D01*
X165894429Y-46524432D01*
X165894667Y-46517482D01*
X165897032Y-46486428D01*
X165906152Y-46459816D01*
X165925067Y-46429277D01*
X165928391Y-46424599D01*
X165952201Y-46389006D01*
X165975819Y-46348363D01*
X166000147Y-46300657D01*
X166026087Y-46243874D01*
X166054541Y-46176000D01*
X166086410Y-46095023D01*
X166122597Y-45998928D01*
X166139049Y-45954259D01*
X166173067Y-45856015D01*
X166197926Y-45771383D01*
X166214217Y-45697879D01*
X166222525Y-45633020D01*
X166223926Y-45595712D01*
X166215603Y-45494845D01*
X166190773Y-45402878D01*
X166149643Y-45320177D01*
X166092420Y-45247112D01*
X166019312Y-45184051D01*
X165976399Y-45156110D01*
X165889764Y-45115188D01*
X165797188Y-45091763D01*
X165697776Y-45085634D01*
X165668889Y-45086970D01*
X165660057Y-45087705D01*
X165650333Y-45088865D01*
X165639117Y-45090638D01*
X165625811Y-45093212D01*
X165609818Y-45096776D01*
X165590537Y-45101519D01*
X165567371Y-45107627D01*
X165539721Y-45115291D01*
X165506988Y-45124697D01*
X165468574Y-45136035D01*
X165423881Y-45149493D01*
X165372309Y-45165259D01*
X165313260Y-45183522D01*
X165246137Y-45204469D01*
X165170339Y-45228290D01*
X165085268Y-45255172D01*
X164990327Y-45285304D01*
X164884916Y-45318875D01*
X164768437Y-45356072D01*
X164640291Y-45397084D01*
X164499880Y-45442099D01*
X164346605Y-45491306D01*
X164179867Y-45544893D01*
X163999069Y-45603048D01*
X163803611Y-45665960D01*
X163592895Y-45733817D01*
X163366322Y-45806808D01*
X163123294Y-45885120D01*
X162863212Y-45968942D01*
X162747889Y-46006113D01*
X162553120Y-46068861D01*
X162371935Y-46127171D01*
X162204701Y-46180926D01*
X162051784Y-46230009D01*
X161913550Y-46274303D01*
X161790366Y-46313691D01*
X161682597Y-46348056D01*
X161590612Y-46377282D01*
X161514775Y-46401252D01*
X161455453Y-46419848D01*
X161413014Y-46432953D01*
X161387822Y-46440452D01*
X161380427Y-46442330D01*
X161370505Y-46434256D01*
X161358106Y-46410279D01*
X161346397Y-46378584D01*
X161325163Y-46313723D01*
X161361053Y-46237134D01*
X161388502Y-46173525D01*
X161405181Y-46121757D01*
X161411779Y-46078752D01*
X161408988Y-46041431D01*
X161406902Y-46032618D01*
X161401235Y-46008758D01*
X161399243Y-45994303D01*
X161399660Y-45992613D01*
X161408795Y-45987172D01*
X161429181Y-45975360D01*
X161447467Y-45964855D01*
X161471682Y-45948310D01*
X161504886Y-45921996D01*
X161542785Y-45889473D01*
X161581086Y-45854297D01*
X161582746Y-45852714D01*
X161626238Y-45810139D01*
X161680553Y-45755353D01*
X161743989Y-45690184D01*
X161814840Y-45616457D01*
X161891402Y-45535998D01*
X161971971Y-45450634D01*
X162054842Y-45362191D01*
X162138310Y-45272495D01*
X162220672Y-45183373D01*
X162300223Y-45096650D01*
X162375258Y-45014154D01*
X162444072Y-44937710D01*
X162504963Y-44869145D01*
X162556224Y-44810285D01*
X162562947Y-44802442D01*
X162619829Y-44730340D01*
X162662112Y-44663260D01*
X162691838Y-44597452D01*
X162710515Y-44531736D01*
X162723271Y-44444498D01*
X162721869Y-44364729D01*
X162705548Y-44288110D01*
X162673549Y-44210326D01*
X162644734Y-44158344D01*
X162591026Y-44080808D01*
X162532436Y-44020139D01*
X162466337Y-43974524D01*
X162390102Y-43942150D01*
X162301104Y-43921205D01*
X162301037Y-43921194D01*
X162231930Y-43913375D01*
X162167662Y-43914483D01*
X162103875Y-43925369D01*
X162036209Y-43946883D01*
X161960307Y-43979876D01*
X161933879Y-43992840D01*
X161904416Y-44008139D01*
X161864613Y-44029556D01*
X161817327Y-44055477D01*
X161765417Y-44084290D01*
X161711742Y-44114381D01*
X161659160Y-44144138D01*
X161610530Y-44171948D01*
X161568710Y-44196197D01*
X161536559Y-44215273D01*
X161516934Y-44227562D01*
X161513283Y-44230175D01*
X161499354Y-44232090D01*
X161475327Y-44221951D01*
X161456839Y-44210848D01*
X161368652Y-44165320D01*
X161274244Y-44137415D01*
X161174271Y-44127245D01*
X161069391Y-44134921D01*
X161039307Y-44140268D01*
X161012586Y-44145612D01*
X161074227Y-43968084D01*
X161112447Y-43857507D01*
X161151630Y-43743216D01*
X161190910Y-43627791D01*
X161229423Y-43513815D01*
X161266304Y-43403869D01*
X161300687Y-43300534D01*
X161331707Y-43206394D01*
X161358501Y-43124029D01*
X161380202Y-43056022D01*
X161385852Y-43037963D01*
X161404553Y-42977183D01*
X161418225Y-42930388D01*
X161427647Y-42893668D01*
X161433601Y-42863111D01*
X161436868Y-42834809D01*
X161438229Y-42804851D01*
X161438471Y-42774556D01*
X161435769Y-42704932D01*
X161426433Y-42646075D01*
X161408541Y-42591691D01*
X161380173Y-42535490D01*
X161351286Y-42488999D01*
X161322330Y-42446846D01*
X161296738Y-42415507D01*
X161268949Y-42389234D01*
X161233407Y-42362276D01*
X161219258Y-42352407D01*
X161173734Y-42322940D01*
X161134131Y-42302516D01*
X161092525Y-42287443D01*
X161061696Y-42279028D01*
X161024762Y-42270231D01*
X160995435Y-42265116D01*
X160967579Y-42263413D01*
X160935060Y-42264848D01*
X160891744Y-42269150D01*
X160876884Y-42270827D01*
X160787985Y-42286386D01*
X160711471Y-42312174D01*
X160642948Y-42349909D01*
X160607401Y-42376115D01*
X160581535Y-42400099D01*
X160549944Y-42435298D01*
X160512016Y-42482535D01*
X160467139Y-42542631D01*
X160414703Y-42616410D01*
X160354095Y-42704692D01*
X160284705Y-42808299D01*
X160274933Y-42823048D01*
X160118330Y-43059689D01*
X160043619Y-43054569D01*
X159948286Y-43056833D01*
X159855646Y-43076036D01*
X159768877Y-43111128D01*
X159691155Y-43161060D01*
X159671667Y-43177363D01*
X159652452Y-43197099D01*
X159624629Y-43229357D01*
X159590474Y-43271313D01*
X159552263Y-43320142D01*
X159512270Y-43373019D01*
X159492950Y-43399225D01*
X159449644Y-43458024D01*
X159415945Y-43502610D01*
X159390774Y-43534258D01*
X159373054Y-43554241D01*
X159361707Y-43563834D01*
X159355654Y-43564311D01*
X159354641Y-43562698D01*
X159351319Y-43548594D01*
X159345567Y-43517622D01*
X159337664Y-43471534D01*
X159327885Y-43412081D01*
X159316508Y-43341014D01*
X159303810Y-43260086D01*
X159290067Y-43171047D01*
X159275558Y-43075649D01*
X159260559Y-42975643D01*
X159245346Y-42872780D01*
X159243358Y-42859222D01*
X159221868Y-42717079D01*
X159199461Y-42577292D01*
X159176548Y-42442060D01*
X159153538Y-42313582D01*
X159130843Y-42194061D01*
X159108873Y-42085695D01*
X159088039Y-41990684D01*
X159068751Y-41911229D01*
X159061099Y-41882625D01*
X159027500Y-41789562D01*
X158981312Y-41704492D01*
X158924511Y-41630124D01*
X158859071Y-41569165D01*
X158807616Y-41535044D01*
X158782523Y-41524783D01*
X158743612Y-41513206D01*
X158695735Y-41501344D01*
X158643741Y-41490227D01*
X158592482Y-41480885D01*
X158546807Y-41474349D01*
X158511566Y-41471649D01*
X158509093Y-41471630D01*
X158492737Y-41474941D01*
G37*
X158492737Y-41474941D02*
X158462813Y-41484021D01*
X158423198Y-41497587D01*
X158377769Y-41514358D01*
X158364685Y-41519395D01*
X158314885Y-41539055D01*
X158278664Y-41554634D01*
X158251950Y-41568569D01*
X158230671Y-41583296D01*
X158210755Y-41601250D01*
X158188131Y-41624868D01*
X158187797Y-41625228D01*
X158157929Y-41659586D01*
X158129354Y-41696163D01*
X158107774Y-41727616D01*
X158106063Y-41730463D01*
X158099414Y-41741757D01*
X158093292Y-41752587D01*
X158087514Y-41763890D01*
X158081896Y-41776602D01*
X158076254Y-41791657D01*
X158070406Y-41809992D01*
X158064166Y-41832542D01*
X158057352Y-41860243D01*
X158049780Y-41894030D01*
X158041267Y-41934839D01*
X158031628Y-41983605D01*
X158020680Y-42041265D01*
X158008240Y-42108754D01*
X157994124Y-42187007D01*
X157978148Y-42276960D01*
X157960128Y-42379549D01*
X157939882Y-42495709D01*
X157917224Y-42626376D01*
X157891973Y-42772485D01*
X157863944Y-42934973D01*
X157832953Y-43114774D01*
X157822682Y-43174370D01*
X157808181Y-43257776D01*
X157794439Y-43335424D01*
X157781819Y-43405352D01*
X157770688Y-43465599D01*
X157761410Y-43514204D01*
X157754351Y-43549205D01*
X157749875Y-43568641D01*
X157748686Y-43571950D01*
X157741568Y-43566739D01*
X157725373Y-43548158D01*
X157701737Y-43518300D01*
X157672299Y-43479262D01*
X157638695Y-43433139D01*
X157622826Y-43410878D01*
X157581355Y-43353675D01*
X157540604Y-43299943D01*
X157503011Y-43252747D01*
X157471017Y-43215151D01*
X157447471Y-43190599D01*
X157374387Y-43133794D01*
X157295511Y-43093965D01*
X157209240Y-43070567D01*
X157113972Y-43063050D01*
X157077405Y-43064113D01*
X156985513Y-43069132D01*
X156831571Y-42837177D01*
X156765704Y-42738434D01*
X156708611Y-42654220D01*
X156659060Y-42583135D01*
X156615819Y-42523774D01*
X156577653Y-42474736D01*
X156543332Y-42434617D01*
X156511622Y-42402015D01*
X156481290Y-42375527D01*
X156451105Y-42353752D01*
X156419832Y-42335285D01*
X156386240Y-42318725D01*
X156369355Y-42311225D01*
X156336384Y-42298037D01*
X156306106Y-42289114D01*
X156272599Y-42283306D01*
X156229938Y-42279465D01*
X156195630Y-42277535D01*
X156087445Y-42272203D01*
X155966605Y-42325824D01*
X155918537Y-42347358D01*
X155883703Y-42364113D01*
X155858114Y-42378884D01*
X155837781Y-42394467D01*
X155818717Y-42413658D01*
X155796931Y-42439253D01*
X155786349Y-42452171D01*
X155754603Y-42493176D01*
X155731862Y-42529194D01*
X155713746Y-42568189D01*
X155697057Y-42614569D01*
X155678472Y-42679023D01*
X155668297Y-42738791D01*
X155666606Y-42798490D01*
X155673473Y-42862736D01*
X155688971Y-42936145D01*
X155703027Y-42988567D01*
X155713118Y-43022324D01*
X155728548Y-43071586D01*
X155748553Y-43134058D01*
X155772368Y-43207447D01*
X155799230Y-43289458D01*
X155828375Y-43377797D01*
X155859040Y-43470172D01*
X155890462Y-43564288D01*
X155921875Y-43657851D01*
X155952517Y-43748567D01*
X155981623Y-43834143D01*
X156008431Y-43912285D01*
X156032175Y-43980699D01*
X156052094Y-44037091D01*
X156052616Y-44038550D01*
X156090888Y-44145433D01*
X156061441Y-44139544D01*
X155967093Y-44128473D01*
X155872484Y-44131974D01*
X155781429Y-44149350D01*
X155697745Y-44179904D01*
X155632107Y-44217936D01*
X155605198Y-44237097D01*
X155479432Y-44163532D01*
X155384327Y-44108277D01*
X155303260Y-44062192D01*
X155234320Y-44024473D01*
X155175593Y-43994315D01*
X155125166Y-43970913D01*
X155081126Y-43953461D01*
X155041560Y-43941156D01*
X155004555Y-43933191D01*
X154968198Y-43928761D01*
X154930576Y-43927062D01*
X154917295Y-43926963D01*
X154867031Y-43928917D01*
X154820193Y-43935740D01*
X154768066Y-43948870D01*
X154747932Y-43954920D01*
X154657519Y-43982877D01*
X154556917Y-44084272D01*
X154456316Y-44185667D01*
X154427627Y-44289148D01*
X154406880Y-44384808D01*
X154400823Y-44472373D01*
X154410079Y-44554451D01*
X154435272Y-44633649D01*
X154477027Y-44712573D01*
X154535966Y-44793830D01*
X154553425Y-44814775D01*
X154601505Y-44870058D01*
X154660986Y-44936721D01*
X154730015Y-45012788D01*
X154806740Y-45096282D01*
X154889307Y-45185230D01*
X154975866Y-45277654D01*
X155064561Y-45371581D01*
X155153542Y-45465035D01*
X155240956Y-45556039D01*
X155324949Y-45642620D01*
X155403669Y-45722801D01*
X155428926Y-45748277D01*
X155488194Y-45807704D01*
X155536226Y-45855295D01*
X155574909Y-45892696D01*
X155606129Y-45921555D01*
X155631772Y-45943520D01*
X155653724Y-45960238D01*
X155673872Y-45973355D01*
X155694102Y-45984521D01*
X155706445Y-45990669D01*
X155745382Y-46008354D01*
X155783545Y-46023687D01*
X155813557Y-46033736D01*
X155817064Y-46034647D01*
X155841732Y-46041688D01*
X155852115Y-46049551D01*
X155852411Y-46062590D01*
X155850788Y-46069662D01*
X155848319Y-46088493D01*
X155846167Y-46121623D01*
X155844550Y-46164534D01*
X155843685Y-46212711D01*
X155843650Y-46217444D01*
X155843512Y-46268008D01*
X155844316Y-46304071D01*
X155846732Y-46329946D01*
X155851427Y-46349945D01*
X155859070Y-46368379D01*
X155870332Y-46389562D01*
X155870354Y-46389602D01*
X155885110Y-46420082D01*
X155890805Y-46440937D01*
X155889168Y-46447635D01*
X155877947Y-46447131D01*
X155850755Y-46440834D01*
X155809351Y-46429258D01*
X155755491Y-46412913D01*
X155690933Y-46392310D01*
X155631185Y-46372578D01*
X155582679Y-46356473D01*
X155518183Y-46335268D01*
X155439633Y-46309589D01*
X155348962Y-46280064D01*
X155248104Y-46247319D01*
X155138991Y-46211981D01*
X155023558Y-46174676D01*
X154903738Y-46136032D01*
X154781466Y-46096674D01*
X154658674Y-46057231D01*
X154619889Y-46044790D01*
X154487333Y-46002277D01*
X154347279Y-45957343D01*
X154202605Y-45910913D01*
X154056187Y-45863911D01*
X153910903Y-45817259D01*
X153769629Y-45771883D01*
X153635241Y-45728705D01*
X153510618Y-45688651D01*
X153398635Y-45652643D01*
X153316963Y-45626367D01*
X153177060Y-45581400D01*
X153035498Y-45536014D01*
X152893711Y-45490660D01*
X152753131Y-45445791D01*
X152615188Y-45401861D01*
X152481317Y-45359323D01*
X152352949Y-45318630D01*
X152231516Y-45280234D01*
X152118451Y-45244590D01*
X152015185Y-45212149D01*
X151923152Y-45183365D01*
X151843782Y-45158692D01*
X151778509Y-45138581D01*
X151728765Y-45123487D01*
X151705086Y-45116478D01*
X151637794Y-45098639D01*
X151580599Y-45088303D01*
X151527183Y-45085274D01*
X151471224Y-45089359D01*
X151406404Y-45100360D01*
X151377907Y-45106363D01*
X151333303Y-45116491D01*
X151300757Y-45125760D01*
X151274367Y-45136963D01*
X151248230Y-45152892D01*
X151216444Y-45176338D01*
X151195382Y-45192694D01*
X151129792Y-45250220D01*
X151079018Y-45310124D01*
X151039241Y-45377382D01*
X151019845Y-45421369D01*
X151010738Y-45446891D01*
X151004625Y-45472357D01*
X151000937Y-45502453D01*
X150999105Y-45541866D01*
X150998562Y-45595280D01*
X150998560Y-45596778D01*
X150999293Y-45646084D01*
X151002072Y-45691435D01*
X151007584Y-45735799D01*
X151016516Y-45782143D01*
X151029555Y-45833432D01*
X151047390Y-45892633D01*
X151070706Y-45962713D01*
X151100192Y-46046638D01*
X151107537Y-46067148D01*
X151137094Y-46147637D01*
X151162919Y-46213428D01*
X151186557Y-46267883D01*
X151209552Y-46314365D01*
X151233449Y-46356237D01*
X151257233Y-46393100D01*
X151277183Y-46425450D01*
X151290119Y-46455668D01*
X151298823Y-46491546D01*
X151303798Y-46523553D01*
X151310079Y-46562660D01*
X151318490Y-46600771D01*
X151329991Y-46640330D01*
X151345537Y-46683782D01*
X151366087Y-46733572D01*
X151392599Y-46792145D01*
X151426029Y-46861946D01*
X151467336Y-46945420D01*
X151475063Y-46960852D01*
X151518791Y-47047659D01*
X151555436Y-47119325D01*
X151586052Y-47177669D01*
X151611694Y-47224514D01*
X151633416Y-47261681D01*
X151652273Y-47290992D01*
X151669321Y-47314267D01*
X151685612Y-47333330D01*
X151698130Y-47346113D01*
X151720472Y-47371377D01*
X151734104Y-47394085D01*
X151736519Y-47403918D01*
X151741452Y-47437464D01*
X151755433Y-47484167D01*
X151777231Y-47541425D01*
X151805615Y-47606635D01*
X151839357Y-47677194D01*
X151877224Y-47750500D01*
X151917988Y-47823951D01*
X151960417Y-47894943D01*
X151991520Y-47943395D01*
X152063689Y-48052111D01*
X152029456Y-48069954D01*
X151986069Y-48095842D01*
X151946799Y-48127274D01*
X151906815Y-48168476D01*
X151878544Y-48202018D01*
X151855871Y-48230744D01*
X151839298Y-48254872D01*
X151826620Y-48279209D01*
X151815630Y-48308567D01*
X151804123Y-48347753D01*
X151793674Y-48387068D01*
X151775232Y-48467356D01*
X151765855Y-48536017D01*
X151765702Y-48597995D01*
X151774933Y-48658235D01*
X151793706Y-48721683D01*
X151805453Y-48752963D01*
X151843427Y-48846680D01*
X151884724Y-48944413D01*
X151927917Y-49043056D01*
X151971578Y-49139506D01*
X152014279Y-49230659D01*
X152054592Y-49313412D01*
X152091089Y-49384661D01*
X152121412Y-49439704D01*
X152131707Y-49460868D01*
X152146287Y-49495357D01*
X152163342Y-49538696D01*
X152181065Y-49586409D01*
X152184118Y-49594926D01*
X152205186Y-49652544D01*
X152232124Y-49723827D01*
X152264253Y-49807121D01*
X152300895Y-49900771D01*
X152341374Y-50003124D01*
X152385011Y-50112527D01*
X152431129Y-50227324D01*
X152479050Y-50345863D01*
X152528095Y-50466489D01*
X152577589Y-50587548D01*
X152626851Y-50707386D01*
X152675206Y-50824350D01*
X152721975Y-50936786D01*
X152766481Y-51043039D01*
X152808045Y-51141456D01*
X152845990Y-51230382D01*
X152879639Y-51308165D01*
X152908313Y-51373149D01*
X152931334Y-51423682D01*
X152945876Y-51453885D01*
X152977168Y-51516030D01*
X152958900Y-51693774D01*
X152952431Y-51755829D01*
X152945869Y-51817207D01*
X152939731Y-51873188D01*
X152934533Y-51919050D01*
X152931328Y-51945851D01*
X152927472Y-51989588D01*
X152926196Y-52033742D01*
X152927762Y-52068986D01*
X152927869Y-52069926D01*
X152930236Y-52095624D01*
X152928700Y-52114786D01*
X152921201Y-52133207D01*
X152905678Y-52156686D01*
X152889081Y-52179038D01*
X152837491Y-52256139D01*
X152792601Y-52339903D01*
X152756650Y-52425274D01*
X152731874Y-52507199D01*
X152723130Y-52553874D01*
X152719072Y-52590221D01*
X152718168Y-52621683D01*
X152720811Y-52654598D01*
X152727393Y-52695302D01*
X152733974Y-52728959D01*
X152750025Y-52795838D01*
X152770482Y-52855824D01*
X152796749Y-52910163D01*
X152830228Y-52960101D01*
X152872323Y-53006883D01*
X152924436Y-53051757D01*
X152987970Y-53095966D01*
X153064329Y-53140759D01*
X153154914Y-53187379D01*
X153261130Y-53237075D01*
X153350522Y-53276520D01*
X153442571Y-53315534D01*
X153520371Y-53346534D01*
X153586314Y-53370284D01*
X153642792Y-53387552D01*
X153692196Y-53399101D01*
X153736917Y-53405698D01*
X153759569Y-53407450D01*
X153831964Y-53407631D01*
X153896690Y-53398764D01*
X153960658Y-53379335D01*
X154030217Y-53348112D01*
X154096951Y-53309991D01*
X154158498Y-53266182D01*
X154212713Y-53218929D01*
X154257452Y-53170476D01*
X154290574Y-53123065D01*
X154309933Y-53078939D01*
X154314148Y-53050983D01*
X154317061Y-53033564D01*
X154329378Y-53024279D01*
X154348035Y-53019663D01*
X154370775Y-53016235D01*
X154383680Y-53015884D01*
X154384479Y-53016264D01*
X154387449Y-53025804D01*
X154394449Y-53051063D01*
X154404812Y-53089544D01*
X154417868Y-53138747D01*
X154432949Y-53196173D01*
X154445391Y-53243923D01*
X154467331Y-53327027D01*
X154486140Y-53394438D01*
X154502849Y-53448808D01*
X154518491Y-53492792D01*
X154534097Y-53529045D01*
X154550700Y-53560219D01*
X154569332Y-53588970D01*
X154590672Y-53617502D01*
X154653706Y-53682944D01*
X154728117Y-53733747D01*
X154812846Y-53769396D01*
X154906838Y-53789373D01*
X154949748Y-53793012D01*
X155044564Y-53791928D01*
X155127718Y-53777979D01*
X155202250Y-53750039D01*
X155271200Y-53706983D01*
X155334871Y-53650476D01*
X155352389Y-53632460D01*
X155367583Y-53615745D01*
X155381599Y-53598327D01*
X155395585Y-53578205D01*
X155410686Y-53553375D01*
X155428049Y-53521835D01*
X155448821Y-53481582D01*
X155474148Y-53430613D01*
X155505177Y-53366927D01*
X155543055Y-53288520D01*
X155548163Y-53277926D01*
X155610837Y-53148013D01*
X155679638Y-53005524D01*
X155752463Y-52854803D01*
X155827214Y-52700196D01*
X155901787Y-52546046D01*
X155974083Y-52396698D01*
X156042000Y-52256497D01*
X156088396Y-52160796D01*
X156176225Y-51979704D01*
X156871650Y-51979704D01*
X156862899Y-52010216D01*
X156858860Y-52033736D01*
X156855808Y-52069484D01*
X156854249Y-52110878D01*
X156854148Y-52123798D01*
X156863098Y-52219383D01*
X156889335Y-52310590D01*
X156931937Y-52394313D01*
X156936302Y-52401013D01*
X156950439Y-52418059D01*
X156977605Y-52446623D01*
X157016757Y-52485735D01*
X157066852Y-52534420D01*
X157126849Y-52591708D01*
X157195705Y-52656625D01*
X157272378Y-52728200D01*
X157355826Y-52805460D01*
X157445008Y-52887433D01*
X157538880Y-52973147D01*
X157636400Y-53061629D01*
X157736528Y-53151908D01*
X157838219Y-53243010D01*
X157852070Y-53255373D01*
X157998622Y-53386111D01*
X157975121Y-53442556D01*
X157968246Y-53459750D01*
X157962797Y-53476188D01*
X157958551Y-53494359D01*
X157955287Y-53516749D01*
X157952782Y-53545848D01*
X157950815Y-53584142D01*
X157949163Y-53634121D01*
X157947605Y-53698271D01*
X157946162Y-53767111D01*
X157944509Y-53836627D01*
X157942545Y-53900221D01*
X157940380Y-53955401D01*
X157938130Y-53999677D01*
X157935906Y-54030556D01*
X157933823Y-54045549D01*
X157933482Y-54046352D01*
X157923777Y-54055265D01*
X157901363Y-54073049D01*
X157868879Y-54097696D01*
X157828966Y-54127198D01*
X157792371Y-54153728D01*
X157690186Y-54231213D01*
X157605288Y-54304579D01*
X157536846Y-54374790D01*
X157484032Y-54442811D01*
X157446016Y-54509607D01*
X157421970Y-54576143D01*
X157419062Y-54588164D01*
X157399424Y-54716657D01*
X157396222Y-54849825D01*
X157409037Y-54983983D01*
X157437450Y-55115447D01*
X157481040Y-55240535D01*
X157497588Y-55277481D01*
X157567129Y-55403805D01*
X157649835Y-55518414D01*
X157744316Y-55620546D01*
X157849184Y-55709439D01*
X157963048Y-55784331D01*
X158084518Y-55844460D01*
X158212206Y-55889064D01*
X158344722Y-55917381D01*
X158480675Y-55928649D01*
X158618676Y-55922105D01*
X158662389Y-55916227D01*
X158795938Y-55886082D01*
X158925112Y-55838591D01*
X159048180Y-55775041D01*
X159163412Y-55696713D01*
X159269076Y-55604892D01*
X159363442Y-55500861D01*
X159444778Y-55385904D01*
X159492583Y-55300518D01*
X159547045Y-55174693D01*
X159585146Y-55046992D01*
X159606231Y-54919999D01*
X159610519Y-54834034D01*
X159609802Y-54793122D01*
X159606618Y-54764216D01*
X159599415Y-54740526D01*
X159586639Y-54715267D01*
X159581221Y-54705914D01*
X159559066Y-54670690D01*
X159526859Y-54622894D01*
X159486204Y-54564720D01*
X159438708Y-54498365D01*
X159385975Y-54426023D01*
X159329612Y-54349890D01*
X159271224Y-54272161D01*
X159212415Y-54195031D01*
X159154793Y-54120696D01*
X159131987Y-54091667D01*
X159065183Y-54007000D01*
X159064869Y-53828259D01*
X159063529Y-53719419D01*
X159059861Y-53628203D01*
X159053774Y-53553552D01*
X159045172Y-53494408D01*
X159033965Y-53449714D01*
X159030815Y-53440859D01*
X159014546Y-53398259D01*
X159070231Y-53349852D01*
X159105484Y-53318811D01*
X159150876Y-53278219D01*
X159204904Y-53229463D01*
X159266065Y-53173933D01*
X159332855Y-53113016D01*
X159403771Y-53048101D01*
X159477310Y-52980575D01*
X159551969Y-52911826D01*
X159626244Y-52843243D01*
X159698631Y-52776214D01*
X159767629Y-52712126D01*
X159831732Y-52652368D01*
X159889439Y-52598328D01*
X159939246Y-52551395D01*
X159979649Y-52512955D01*
X160009145Y-52484398D01*
X160026231Y-52467111D01*
X160026255Y-52467085D01*
X160084019Y-52391277D01*
X160125911Y-52306376D01*
X160151415Y-52214168D01*
X160160013Y-52116437D01*
X160153439Y-52028997D01*
X160146068Y-51979513D01*
X160575104Y-51981960D01*
X161004141Y-51984407D01*
X161073374Y-52120815D01*
X161089104Y-52152016D01*
X161112318Y-52198363D01*
X161142161Y-52258135D01*
X161177778Y-52329612D01*
X161218314Y-52411074D01*
X161262912Y-52500801D01*
X161310718Y-52597074D01*
X161360876Y-52698171D01*
X161412529Y-52802374D01*
X161452374Y-52882815D01*
X161503257Y-52985255D01*
X161552420Y-53083610D01*
X161599125Y-53176446D01*
X161642637Y-53262327D01*
X161682219Y-53339819D01*
X161717137Y-53407488D01*
X161746652Y-53463898D01*
X161770031Y-53507614D01*
X161786536Y-53537202D01*
X161795043Y-53550746D01*
X161818250Y-53576368D01*
X161850919Y-53607133D01*
X161887041Y-53637480D01*
X161897510Y-53645564D01*
X161938762Y-53674644D01*
X161976572Y-53695647D01*
X162019080Y-53712609D01*
X162056445Y-53724372D01*
X162101266Y-53736897D01*
X162136106Y-53744173D01*
X162168769Y-53747081D01*
X162207063Y-53746503D01*
X162237174Y-53744772D01*
X162327371Y-53733140D01*
X162406774Y-53709786D01*
X162480472Y-53673079D01*
X162500676Y-53660254D01*
X162546588Y-53625608D01*
X162587805Y-53584978D01*
X162625160Y-53536673D01*
X162659486Y-53479001D01*
X162691617Y-53410272D01*
X162722385Y-53328795D01*
X162752624Y-53232879D01*
X162783166Y-53120832D01*
X162800317Y-53052042D01*
X162817789Y-52982244D01*
X162832871Y-52926475D01*
X162845222Y-52885874D01*
X162854497Y-52861580D01*
X162859837Y-52854593D01*
X162875119Y-52856111D01*
X162901921Y-52860011D01*
X162922550Y-52863416D01*
X162962068Y-52869537D01*
X163007369Y-52875562D01*
X163032328Y-52878436D01*
X163065142Y-52882662D01*
X163086224Y-52889329D01*
X163102596Y-52902417D01*
X163121278Y-52925905D01*
X163125001Y-52930962D01*
X163167410Y-52977502D01*
X163222869Y-53021855D01*
X163285696Y-53060038D01*
X163347931Y-53087282D01*
X163378271Y-53097264D01*
X163404189Y-53103708D01*
X163430870Y-53107135D01*
X163463499Y-53108071D01*
X163507261Y-53107038D01*
X163533408Y-53106010D01*
X163602931Y-53101270D01*
X163662725Y-53092306D01*
X163718878Y-53077469D01*
X163777480Y-53055113D01*
X163844620Y-53023588D01*
X163852477Y-53019647D01*
X163986515Y-52944308D01*
X164103272Y-52862150D01*
X164202663Y-52773255D01*
X164284609Y-52677708D01*
X164349026Y-52575590D01*
X164395183Y-52468889D01*
X164407010Y-52417533D01*
X164412785Y-52354156D01*
X164412585Y-52284525D01*
X164406487Y-52214407D01*
X164394568Y-52149569D01*
X164390742Y-52135051D01*
X164361212Y-52046709D01*
X164327765Y-51976751D01*
X164290406Y-51925186D01*
X164272788Y-51908375D01*
X164232209Y-51874455D01*
X164225993Y-51786029D01*
X164221312Y-51734931D01*
X164214536Y-51679581D01*
X164206974Y-51630421D01*
X164205429Y-51621967D01*
X164191081Y-51546331D01*
X164280229Y-51365555D01*
X164319650Y-51283667D01*
X164357172Y-51202017D01*
X164391749Y-51123154D01*
X164422335Y-51049628D01*
X164447883Y-50983989D01*
X164467346Y-50928788D01*
X164479678Y-50886575D01*
X164482657Y-50872284D01*
X164489270Y-50848025D01*
X164502528Y-50811070D01*
X164520784Y-50765611D01*
X164542395Y-50715843D01*
X164553833Y-50690889D01*
X164589638Y-50613335D01*
X164629760Y-50524848D01*
X164673596Y-50426859D01*
X164720541Y-50320796D01*
X164769989Y-50208091D01*
X164821335Y-50090174D01*
X164873976Y-49968475D01*
X164927306Y-49844424D01*
X164980719Y-49719452D01*
X165033613Y-49594988D01*
X165085380Y-49472463D01*
X165135418Y-49353308D01*
X165183120Y-49238952D01*
X165227882Y-49130826D01*
X165269099Y-49030359D01*
X165306166Y-48938983D01*
X165338479Y-48858127D01*
X165365432Y-48789221D01*
X165386421Y-48733697D01*
X165400841Y-48692983D01*
X165406600Y-48674435D01*
X165419518Y-48618631D01*
X165425218Y-48567239D01*
X165423578Y-48514679D01*
X165414475Y-48455370D01*
X165400437Y-48394128D01*
X165387425Y-48343955D01*
X165376449Y-48307214D01*
X165365324Y-48278997D01*
X165351865Y-48254402D01*
X165333886Y-48228522D01*
X165316602Y-48205935D01*
X165277132Y-48160558D01*
X165234055Y-48119735D01*
X165204781Y-48097052D01*
X165177144Y-48076834D01*
X165157283Y-48059821D01*
X165148916Y-48049253D01*
X165148892Y-48048376D01*
X165154817Y-48037114D01*
X165168966Y-48014302D01*
X165188861Y-47983865D01*
X165201010Y-47965805D01*
X165227509Y-47924968D01*
X165258777Y-47873846D01*
X165293139Y-47815470D01*
X165328923Y-47752872D01*
X165364454Y-47689083D01*
X165398058Y-47627135D01*
X165428063Y-47570060D01*
X165452795Y-47520889D01*
X165470579Y-47482654D01*
X165477954Y-47464148D01*
X165488874Y-47429067D01*
X165496589Y-47397692D01*
X165499313Y-47378281D01*
X165504509Y-47355163D01*
X165513465Y-47342019D01*
X165533383Y-47320027D01*
X165559268Y-47283093D01*
X165589876Y-47233652D01*
X165623962Y-47174138D01*
X165660281Y-47106988D01*
X165697589Y-47034635D01*
X165734639Y-46959515D01*
X165770187Y-46884063D01*
X165802989Y-46810713D01*
X165831798Y-46741902D01*
X165855371Y-46680064D01*
X165862631Y-46659097D01*
X165878235Y-46607466D01*
X165889249Y-46560747D01*
X165894429Y-46524432D01*
X165894667Y-46517482D01*
X165897032Y-46486428D01*
X165906152Y-46459816D01*
X165925067Y-46429277D01*
X165928391Y-46424599D01*
X165952201Y-46389006D01*
X165975819Y-46348363D01*
X166000147Y-46300657D01*
X166026087Y-46243874D01*
X166054541Y-46176000D01*
X166086410Y-46095023D01*
X166122597Y-45998928D01*
X166139049Y-45954259D01*
X166173067Y-45856015D01*
X166197926Y-45771383D01*
X166214217Y-45697879D01*
X166222525Y-45633020D01*
X166223926Y-45595712D01*
X166215603Y-45494845D01*
X166190773Y-45402878D01*
X166149643Y-45320177D01*
X166092420Y-45247112D01*
X166019312Y-45184051D01*
X165976399Y-45156110D01*
X165889764Y-45115188D01*
X165797188Y-45091763D01*
X165697776Y-45085634D01*
X165668889Y-45086970D01*
X165660057Y-45087705D01*
X165650333Y-45088865D01*
X165639117Y-45090638D01*
X165625811Y-45093212D01*
X165609818Y-45096776D01*
X165590537Y-45101519D01*
X165567371Y-45107627D01*
X165539721Y-45115291D01*
X165506988Y-45124697D01*
X165468574Y-45136035D01*
X165423881Y-45149493D01*
X165372309Y-45165259D01*
X165313260Y-45183522D01*
X165246137Y-45204469D01*
X165170339Y-45228290D01*
X165085268Y-45255172D01*
X164990327Y-45285304D01*
X164884916Y-45318875D01*
X164768437Y-45356072D01*
X164640291Y-45397084D01*
X164499880Y-45442099D01*
X164346605Y-45491306D01*
X164179867Y-45544893D01*
X163999069Y-45603048D01*
X163803611Y-45665960D01*
X163592895Y-45733817D01*
X163366322Y-45806808D01*
X163123294Y-45885120D01*
X162863212Y-45968942D01*
X162747889Y-46006113D01*
X162553120Y-46068861D01*
X162371935Y-46127171D01*
X162204701Y-46180926D01*
X162051784Y-46230009D01*
X161913550Y-46274303D01*
X161790366Y-46313691D01*
X161682597Y-46348056D01*
X161590612Y-46377282D01*
X161514775Y-46401252D01*
X161455453Y-46419848D01*
X161413014Y-46432953D01*
X161387822Y-46440452D01*
X161380427Y-46442330D01*
X161370505Y-46434256D01*
X161358106Y-46410279D01*
X161346397Y-46378584D01*
X161325163Y-46313723D01*
X161361053Y-46237134D01*
X161388502Y-46173525D01*
X161405181Y-46121757D01*
X161411779Y-46078752D01*
X161408988Y-46041431D01*
X161406902Y-46032618D01*
X161401235Y-46008758D01*
X161399243Y-45994303D01*
X161399660Y-45992613D01*
X161408795Y-45987172D01*
X161429181Y-45975360D01*
X161447467Y-45964855D01*
X161471682Y-45948310D01*
X161504886Y-45921996D01*
X161542785Y-45889473D01*
X161581086Y-45854297D01*
X161582746Y-45852714D01*
X161626238Y-45810139D01*
X161680553Y-45755353D01*
X161743989Y-45690184D01*
X161814840Y-45616457D01*
X161891402Y-45535998D01*
X161971971Y-45450634D01*
X162054842Y-45362191D01*
X162138310Y-45272495D01*
X162220672Y-45183373D01*
X162300223Y-45096650D01*
X162375258Y-45014154D01*
X162444072Y-44937710D01*
X162504963Y-44869145D01*
X162556224Y-44810285D01*
X162562947Y-44802442D01*
X162619829Y-44730340D01*
X162662112Y-44663260D01*
X162691838Y-44597452D01*
X162710515Y-44531736D01*
X162723271Y-44444498D01*
X162721869Y-44364729D01*
X162705548Y-44288110D01*
X162673549Y-44210326D01*
X162644734Y-44158344D01*
X162591026Y-44080808D01*
X162532436Y-44020139D01*
X162466337Y-43974524D01*
X162390102Y-43942150D01*
X162301104Y-43921205D01*
X162301037Y-43921194D01*
X162231930Y-43913375D01*
X162167662Y-43914483D01*
X162103875Y-43925369D01*
X162036209Y-43946883D01*
X161960307Y-43979876D01*
X161933879Y-43992840D01*
X161904416Y-44008139D01*
X161864613Y-44029556D01*
X161817327Y-44055477D01*
X161765417Y-44084290D01*
X161711742Y-44114381D01*
X161659160Y-44144138D01*
X161610530Y-44171948D01*
X161568710Y-44196197D01*
X161536559Y-44215273D01*
X161516934Y-44227562D01*
X161513283Y-44230175D01*
X161499354Y-44232090D01*
X161475327Y-44221951D01*
X161456839Y-44210848D01*
X161368652Y-44165320D01*
X161274244Y-44137415D01*
X161174271Y-44127245D01*
X161069391Y-44134921D01*
X161039307Y-44140268D01*
X161012586Y-44145612D01*
X161074227Y-43968084D01*
X161112447Y-43857507D01*
X161151630Y-43743216D01*
X161190910Y-43627791D01*
X161229423Y-43513815D01*
X161266304Y-43403869D01*
X161300687Y-43300534D01*
X161331707Y-43206394D01*
X161358501Y-43124029D01*
X161380202Y-43056022D01*
X161385852Y-43037963D01*
X161404553Y-42977183D01*
X161418225Y-42930388D01*
X161427647Y-42893668D01*
X161433601Y-42863111D01*
X161436868Y-42834809D01*
X161438229Y-42804851D01*
X161438471Y-42774556D01*
X161435769Y-42704932D01*
X161426433Y-42646075D01*
X161408541Y-42591691D01*
X161380173Y-42535490D01*
X161351286Y-42488999D01*
X161322330Y-42446846D01*
X161296738Y-42415507D01*
X161268949Y-42389234D01*
X161233407Y-42362276D01*
X161219258Y-42352407D01*
X161173734Y-42322940D01*
X161134131Y-42302516D01*
X161092525Y-42287443D01*
X161061696Y-42279028D01*
X161024762Y-42270231D01*
X160995435Y-42265116D01*
X160967579Y-42263413D01*
X160935060Y-42264848D01*
X160891744Y-42269150D01*
X160876884Y-42270827D01*
X160787985Y-42286386D01*
X160711471Y-42312174D01*
X160642948Y-42349909D01*
X160607401Y-42376115D01*
X160581535Y-42400099D01*
X160549944Y-42435298D01*
X160512016Y-42482535D01*
X160467139Y-42542631D01*
X160414703Y-42616410D01*
X160354095Y-42704692D01*
X160284705Y-42808299D01*
X160274933Y-42823048D01*
X160118330Y-43059689D01*
X160043619Y-43054569D01*
X159948286Y-43056833D01*
X159855646Y-43076036D01*
X159768877Y-43111128D01*
X159691155Y-43161060D01*
X159671667Y-43177363D01*
X159652452Y-43197099D01*
X159624629Y-43229357D01*
X159590474Y-43271313D01*
X159552263Y-43320142D01*
X159512270Y-43373019D01*
X159492950Y-43399225D01*
X159449644Y-43458024D01*
X159415945Y-43502610D01*
X159390774Y-43534258D01*
X159373054Y-43554241D01*
X159361707Y-43563834D01*
X159355654Y-43564311D01*
X159354641Y-43562698D01*
X159351319Y-43548594D01*
X159345567Y-43517622D01*
X159337664Y-43471534D01*
X159327885Y-43412081D01*
X159316508Y-43341014D01*
X159303810Y-43260086D01*
X159290067Y-43171047D01*
X159275558Y-43075649D01*
X159260559Y-42975643D01*
X159245346Y-42872780D01*
X159243358Y-42859222D01*
X159221868Y-42717079D01*
X159199461Y-42577292D01*
X159176548Y-42442060D01*
X159153538Y-42313582D01*
X159130843Y-42194061D01*
X159108873Y-42085695D01*
X159088039Y-41990684D01*
X159068751Y-41911229D01*
X159061099Y-41882625D01*
X159027500Y-41789562D01*
X158981312Y-41704492D01*
X158924511Y-41630124D01*
X158859071Y-41569165D01*
X158807616Y-41535044D01*
X158782523Y-41524783D01*
X158743612Y-41513206D01*
X158695735Y-41501344D01*
X158643741Y-41490227D01*
X158592482Y-41480885D01*
X158546807Y-41474349D01*
X158511566Y-41471649D01*
X158509093Y-41471630D01*
X158492737Y-41474941D01*
D11*
X140770000Y-58900000D03*
D12*
X141750000Y-58900000D03*
D13*
X142630000Y-58900000D03*
D14*
X143755000Y-58900000D03*
D11*
X180400000Y-69520000D03*
D15*
X180400000Y-70500000D03*
D16*
X180400000Y-71380000D03*
D17*
X180400000Y-72505000D03*
D11*
X112975000Y-72230000D03*
D15*
X112975000Y-71250000D03*
D16*
X112975000Y-70370000D03*
D17*
X112975000Y-69245000D03*
D11*
X110600000Y-85380000D03*
D15*
X110600000Y-84400000D03*
D16*
X110600000Y-83520000D03*
D17*
X110600000Y-82395000D03*
D11*
X175750000Y-84845000D03*
D15*
X175750000Y-85825000D03*
D16*
X175750000Y-86705000D03*
D17*
X175750000Y-87830000D03*
D11*
X115200000Y-60980000D03*
D15*
X115200000Y-60000000D03*
D16*
X115200000Y-59120000D03*
D17*
X115200000Y-57995000D03*
D11*
X182750000Y-58020000D03*
D15*
X182750000Y-59000000D03*
D16*
X182750000Y-59880000D03*
D17*
X182750000Y-61005000D03*
G04 #@! TA.AperFunction,SMDPad,CuDef*
G36*
G01*
X133225000Y-44125000D02*
X133225000Y-43575000D01*
G75*
G02*
X133425000Y-43375000I200000J0D01*
G01*
X133825000Y-43375000D01*
G75*
G02*
X134025000Y-43575000I0J-200000D01*
G01*
X134025000Y-44125000D01*
G75*
G02*
X133825000Y-44325000I-200000J0D01*
G01*
X133425000Y-44325000D01*
G75*
G02*
X133225000Y-44125000I0J200000D01*
G01*
G37*
G04 #@! TD.AperFunction*
G04 #@! TA.AperFunction,SMDPad,CuDef*
G36*
G01*
X131575000Y-44125000D02*
X131575000Y-43575000D01*
G75*
G02*
X131775000Y-43375000I200000J0D01*
G01*
X132175000Y-43375000D01*
G75*
G02*
X132375000Y-43575000I0J-200000D01*
G01*
X132375000Y-44125000D01*
G75*
G02*
X132175000Y-44325000I-200000J0D01*
G01*
X131775000Y-44325000D01*
G75*
G02*
X131575000Y-44125000I0J200000D01*
G01*
G37*
G04 #@! TD.AperFunction*
G04 #@! TA.AperFunction,SMDPad,CuDef*
G36*
G01*
X131575000Y-45625000D02*
X131575000Y-45075000D01*
G75*
G02*
X131775000Y-44875000I200000J0D01*
G01*
X132175000Y-44875000D01*
G75*
G02*
X132375000Y-45075000I0J-200000D01*
G01*
X132375000Y-45625000D01*
G75*
G02*
X132175000Y-45825000I-200000J0D01*
G01*
X131775000Y-45825000D01*
G75*
G02*
X131575000Y-45625000I0J200000D01*
G01*
G37*
G04 #@! TD.AperFunction*
G04 #@! TA.AperFunction,SMDPad,CuDef*
G36*
G01*
X133225000Y-45625000D02*
X133225000Y-45075000D01*
G75*
G02*
X133425000Y-44875000I200000J0D01*
G01*
X133825000Y-44875000D01*
G75*
G02*
X134025000Y-45075000I0J-200000D01*
G01*
X134025000Y-45625000D01*
G75*
G02*
X133825000Y-45825000I-200000J0D01*
G01*
X133425000Y-45825000D01*
G75*
G02*
X133225000Y-45625000I0J200000D01*
G01*
G37*
G04 #@! TD.AperFunction*
G04 #@! TA.AperFunction,SMDPad,CuDef*
G36*
G01*
X108850000Y-80450000D02*
X108850000Y-81000000D01*
G75*
G02*
X108650000Y-81200000I-200000J0D01*
G01*
X108250000Y-81200000D01*
G75*
G02*
X108050000Y-81000000I0J200000D01*
G01*
X108050000Y-80450000D01*
G75*
G02*
X108250000Y-80250000I200000J0D01*
G01*
X108650000Y-80250000D01*
G75*
G02*
X108850000Y-80450000I0J-200000D01*
G01*
G37*
G04 #@! TD.AperFunction*
G04 #@! TA.AperFunction,SMDPad,CuDef*
G36*
G01*
X107200000Y-80450000D02*
X107200000Y-81000000D01*
G75*
G02*
X107000000Y-81200000I-200000J0D01*
G01*
X106600000Y-81200000D01*
G75*
G02*
X106400000Y-81000000I0J200000D01*
G01*
X106400000Y-80450000D01*
G75*
G02*
X106600000Y-80250000I200000J0D01*
G01*
X107000000Y-80250000D01*
G75*
G02*
X107200000Y-80450000I0J-200000D01*
G01*
G37*
G04 #@! TD.AperFunction*
G04 #@! TA.AperFunction,SMDPad,CuDef*
G36*
G01*
X183150000Y-74650000D02*
X183150000Y-74100000D01*
G75*
G02*
X183350000Y-73900000I200000J0D01*
G01*
X183750000Y-73900000D01*
G75*
G02*
X183950000Y-74100000I0J-200000D01*
G01*
X183950000Y-74650000D01*
G75*
G02*
X183750000Y-74850000I-200000J0D01*
G01*
X183350000Y-74850000D01*
G75*
G02*
X183150000Y-74650000I0J200000D01*
G01*
G37*
G04 #@! TD.AperFunction*
G04 #@! TA.AperFunction,SMDPad,CuDef*
G36*
G01*
X181500000Y-74650000D02*
X181500000Y-74100000D01*
G75*
G02*
X181700000Y-73900000I200000J0D01*
G01*
X182100000Y-73900000D01*
G75*
G02*
X182300000Y-74100000I0J-200000D01*
G01*
X182300000Y-74650000D01*
G75*
G02*
X182100000Y-74850000I-200000J0D01*
G01*
X181700000Y-74850000D01*
G75*
G02*
X181500000Y-74650000I0J200000D01*
G01*
G37*
G04 #@! TD.AperFunction*
G04 #@! TA.AperFunction,SMDPad,CuDef*
G36*
G01*
X146175000Y-58400000D02*
X145625000Y-58400000D01*
G75*
G02*
X145425000Y-58200000I0J200000D01*
G01*
X145425000Y-57800000D01*
G75*
G02*
X145625000Y-57600000I200000J0D01*
G01*
X146175000Y-57600000D01*
G75*
G02*
X146375000Y-57800000I0J-200000D01*
G01*
X146375000Y-58200000D01*
G75*
G02*
X146175000Y-58400000I-200000J0D01*
G01*
G37*
G04 #@! TD.AperFunction*
G04 #@! TA.AperFunction,SMDPad,CuDef*
G36*
G01*
X146175000Y-56750000D02*
X145625000Y-56750000D01*
G75*
G02*
X145425000Y-56550000I0J200000D01*
G01*
X145425000Y-56150000D01*
G75*
G02*
X145625000Y-55950000I200000J0D01*
G01*
X146175000Y-55950000D01*
G75*
G02*
X146375000Y-56150000I0J-200000D01*
G01*
X146375000Y-56550000D01*
G75*
G02*
X146175000Y-56750000I-200000J0D01*
G01*
G37*
G04 #@! TD.AperFunction*
G04 #@! TA.AperFunction,SMDPad,CuDef*
D18*
G36*
X132820000Y-53000000D02*
G01*
X132320000Y-53000000D01*
X132320000Y-52999398D01*
X132295466Y-52999398D01*
X132246635Y-52994588D01*
X132198510Y-52985016D01*
X132151555Y-52970772D01*
X132106222Y-52951995D01*
X132062949Y-52928864D01*
X132022150Y-52901604D01*
X131984221Y-52870476D01*
X131949524Y-52835779D01*
X131918396Y-52797850D01*
X131891136Y-52757051D01*
X131868005Y-52713778D01*
X131849228Y-52668445D01*
X131834984Y-52621490D01*
X131825412Y-52573365D01*
X131820602Y-52524534D01*
X131820602Y-52500000D01*
X131820000Y-52500000D01*
X131820000Y-52000000D01*
X131820602Y-52000000D01*
X131820602Y-51975466D01*
X131825412Y-51926635D01*
X131834984Y-51878510D01*
X131849228Y-51831555D01*
X131868005Y-51786222D01*
X131891136Y-51742949D01*
X131918396Y-51702150D01*
X131949524Y-51664221D01*
X131984221Y-51629524D01*
X132022150Y-51598396D01*
X132062949Y-51571136D01*
X132106222Y-51548005D01*
X132151555Y-51529228D01*
X132198510Y-51514984D01*
X132246635Y-51505412D01*
X132295466Y-51500602D01*
X132320000Y-51500602D01*
X132320000Y-51500000D01*
X132820000Y-51500000D01*
X132820000Y-53000000D01*
G37*
G04 #@! TD.AperFunction*
G04 #@! TA.AperFunction,SMDPad,CuDef*
G36*
X133620000Y-51500602D02*
G01*
X133644534Y-51500602D01*
X133693365Y-51505412D01*
X133741490Y-51514984D01*
X133788445Y-51529228D01*
X133833778Y-51548005D01*
X133877051Y-51571136D01*
X133917850Y-51598396D01*
X133955779Y-51629524D01*
X133990476Y-51664221D01*
X134021604Y-51702150D01*
X134048864Y-51742949D01*
X134071995Y-51786222D01*
X134090772Y-51831555D01*
X134105016Y-51878510D01*
X134114588Y-51926635D01*
X134119398Y-51975466D01*
X134119398Y-52000000D01*
X134120000Y-52000000D01*
X134120000Y-52500000D01*
X134119398Y-52500000D01*
X134119398Y-52524534D01*
X134114588Y-52573365D01*
X134105016Y-52621490D01*
X134090772Y-52668445D01*
X134071995Y-52713778D01*
X134048864Y-52757051D01*
X134021604Y-52797850D01*
X133990476Y-52835779D01*
X133955779Y-52870476D01*
X133917850Y-52901604D01*
X133877051Y-52928864D01*
X133833778Y-52951995D01*
X133788445Y-52970772D01*
X133741490Y-52985016D01*
X133693365Y-52994588D01*
X133644534Y-52999398D01*
X133620000Y-52999398D01*
X133620000Y-53000000D01*
X133120000Y-53000000D01*
X133120000Y-51500000D01*
X133620000Y-51500000D01*
X133620000Y-51500602D01*
G37*
G04 #@! TD.AperFunction*
G04 #@! TA.AperFunction,SMDPad,CuDef*
G36*
G01*
X132375000Y-49925000D02*
X132375000Y-50475000D01*
G75*
G02*
X132175000Y-50675000I-200000J0D01*
G01*
X131775000Y-50675000D01*
G75*
G02*
X131575000Y-50475000I0J200000D01*
G01*
X131575000Y-49925000D01*
G75*
G02*
X131775000Y-49725000I200000J0D01*
G01*
X132175000Y-49725000D01*
G75*
G02*
X132375000Y-49925000I0J-200000D01*
G01*
G37*
G04 #@! TD.AperFunction*
G04 #@! TA.AperFunction,SMDPad,CuDef*
G36*
G01*
X134025000Y-49925000D02*
X134025000Y-50475000D01*
G75*
G02*
X133825000Y-50675000I-200000J0D01*
G01*
X133425000Y-50675000D01*
G75*
G02*
X133225000Y-50475000I0J200000D01*
G01*
X133225000Y-49925000D01*
G75*
G02*
X133425000Y-49725000I200000J0D01*
G01*
X133825000Y-49725000D01*
G75*
G02*
X134025000Y-49925000I0J-200000D01*
G01*
G37*
G04 #@! TD.AperFunction*
G04 #@! TA.AperFunction,SMDPad,CuDef*
G36*
G01*
X142100000Y-43705000D02*
X142100000Y-44005000D01*
G75*
G02*
X141950000Y-44155000I-150000J0D01*
G01*
X140250000Y-44155000D01*
G75*
G02*
X140100000Y-44005000I0J150000D01*
G01*
X140100000Y-43705000D01*
G75*
G02*
X140250000Y-43555000I150000J0D01*
G01*
X141950000Y-43555000D01*
G75*
G02*
X142100000Y-43705000I0J-150000D01*
G01*
G37*
G04 #@! TD.AperFunction*
G04 #@! TA.AperFunction,SMDPad,CuDef*
G36*
G01*
X142100000Y-44975000D02*
X142100000Y-45275000D01*
G75*
G02*
X141950000Y-45425000I-150000J0D01*
G01*
X140250000Y-45425000D01*
G75*
G02*
X140100000Y-45275000I0J150000D01*
G01*
X140100000Y-44975000D01*
G75*
G02*
X140250000Y-44825000I150000J0D01*
G01*
X141950000Y-44825000D01*
G75*
G02*
X142100000Y-44975000I0J-150000D01*
G01*
G37*
G04 #@! TD.AperFunction*
G04 #@! TA.AperFunction,SMDPad,CuDef*
G36*
G01*
X142100000Y-46245000D02*
X142100000Y-46545000D01*
G75*
G02*
X141950000Y-46695000I-150000J0D01*
G01*
X140250000Y-46695000D01*
G75*
G02*
X140100000Y-46545000I0J150000D01*
G01*
X140100000Y-46245000D01*
G75*
G02*
X140250000Y-46095000I150000J0D01*
G01*
X141950000Y-46095000D01*
G75*
G02*
X142100000Y-46245000I0J-150000D01*
G01*
G37*
G04 #@! TD.AperFunction*
G04 #@! TA.AperFunction,SMDPad,CuDef*
G36*
G01*
X142100000Y-47515000D02*
X142100000Y-47815000D01*
G75*
G02*
X141950000Y-47965000I-150000J0D01*
G01*
X140250000Y-47965000D01*
G75*
G02*
X140100000Y-47815000I0J150000D01*
G01*
X140100000Y-47515000D01*
G75*
G02*
X140250000Y-47365000I150000J0D01*
G01*
X141950000Y-47365000D01*
G75*
G02*
X142100000Y-47515000I0J-150000D01*
G01*
G37*
G04 #@! TD.AperFunction*
G04 #@! TA.AperFunction,SMDPad,CuDef*
G36*
G01*
X142100000Y-48785000D02*
X142100000Y-49085000D01*
G75*
G02*
X141950000Y-49235000I-150000J0D01*
G01*
X140250000Y-49235000D01*
G75*
G02*
X140100000Y-49085000I0J150000D01*
G01*
X140100000Y-48785000D01*
G75*
G02*
X140250000Y-48635000I150000J0D01*
G01*
X141950000Y-48635000D01*
G75*
G02*
X142100000Y-48785000I0J-150000D01*
G01*
G37*
G04 #@! TD.AperFunction*
G04 #@! TA.AperFunction,SMDPad,CuDef*
G36*
G01*
X142100000Y-50055000D02*
X142100000Y-50355000D01*
G75*
G02*
X141950000Y-50505000I-150000J0D01*
G01*
X140250000Y-50505000D01*
G75*
G02*
X140100000Y-50355000I0J150000D01*
G01*
X140100000Y-50055000D01*
G75*
G02*
X140250000Y-49905000I150000J0D01*
G01*
X141950000Y-49905000D01*
G75*
G02*
X142100000Y-50055000I0J-150000D01*
G01*
G37*
G04 #@! TD.AperFunction*
G04 #@! TA.AperFunction,SMDPad,CuDef*
G36*
G01*
X142100000Y-51325000D02*
X142100000Y-51625000D01*
G75*
G02*
X141950000Y-51775000I-150000J0D01*
G01*
X140250000Y-51775000D01*
G75*
G02*
X140100000Y-51625000I0J150000D01*
G01*
X140100000Y-51325000D01*
G75*
G02*
X140250000Y-51175000I150000J0D01*
G01*
X141950000Y-51175000D01*
G75*
G02*
X142100000Y-51325000I0J-150000D01*
G01*
G37*
G04 #@! TD.AperFunction*
G04 #@! TA.AperFunction,SMDPad,CuDef*
G36*
G01*
X142100000Y-52595000D02*
X142100000Y-52895000D01*
G75*
G02*
X141950000Y-53045000I-150000J0D01*
G01*
X140250000Y-53045000D01*
G75*
G02*
X140100000Y-52895000I0J150000D01*
G01*
X140100000Y-52595000D01*
G75*
G02*
X140250000Y-52445000I150000J0D01*
G01*
X141950000Y-52445000D01*
G75*
G02*
X142100000Y-52595000I0J-150000D01*
G01*
G37*
G04 #@! TD.AperFunction*
G04 #@! TA.AperFunction,SMDPad,CuDef*
G36*
G01*
X137100000Y-52595000D02*
X137100000Y-52895000D01*
G75*
G02*
X136950000Y-53045000I-150000J0D01*
G01*
X135250000Y-53045000D01*
G75*
G02*
X135100000Y-52895000I0J150000D01*
G01*
X135100000Y-52595000D01*
G75*
G02*
X135250000Y-52445000I150000J0D01*
G01*
X136950000Y-52445000D01*
G75*
G02*
X137100000Y-52595000I0J-150000D01*
G01*
G37*
G04 #@! TD.AperFunction*
G04 #@! TA.AperFunction,SMDPad,CuDef*
G36*
G01*
X137100000Y-51325000D02*
X137100000Y-51625000D01*
G75*
G02*
X136950000Y-51775000I-150000J0D01*
G01*
X135250000Y-51775000D01*
G75*
G02*
X135100000Y-51625000I0J150000D01*
G01*
X135100000Y-51325000D01*
G75*
G02*
X135250000Y-51175000I150000J0D01*
G01*
X136950000Y-51175000D01*
G75*
G02*
X137100000Y-51325000I0J-150000D01*
G01*
G37*
G04 #@! TD.AperFunction*
G04 #@! TA.AperFunction,SMDPad,CuDef*
G36*
G01*
X137100000Y-50055000D02*
X137100000Y-50355000D01*
G75*
G02*
X136950000Y-50505000I-150000J0D01*
G01*
X135250000Y-50505000D01*
G75*
G02*
X135100000Y-50355000I0J150000D01*
G01*
X135100000Y-50055000D01*
G75*
G02*
X135250000Y-49905000I150000J0D01*
G01*
X136950000Y-49905000D01*
G75*
G02*
X137100000Y-50055000I0J-150000D01*
G01*
G37*
G04 #@! TD.AperFunction*
G04 #@! TA.AperFunction,SMDPad,CuDef*
G36*
G01*
X137100000Y-48785000D02*
X137100000Y-49085000D01*
G75*
G02*
X136950000Y-49235000I-150000J0D01*
G01*
X135250000Y-49235000D01*
G75*
G02*
X135100000Y-49085000I0J150000D01*
G01*
X135100000Y-48785000D01*
G75*
G02*
X135250000Y-48635000I150000J0D01*
G01*
X136950000Y-48635000D01*
G75*
G02*
X137100000Y-48785000I0J-150000D01*
G01*
G37*
G04 #@! TD.AperFunction*
G04 #@! TA.AperFunction,SMDPad,CuDef*
G36*
G01*
X137100000Y-47515000D02*
X137100000Y-47815000D01*
G75*
G02*
X136950000Y-47965000I-150000J0D01*
G01*
X135250000Y-47965000D01*
G75*
G02*
X135100000Y-47815000I0J150000D01*
G01*
X135100000Y-47515000D01*
G75*
G02*
X135250000Y-47365000I150000J0D01*
G01*
X136950000Y-47365000D01*
G75*
G02*
X137100000Y-47515000I0J-150000D01*
G01*
G37*
G04 #@! TD.AperFunction*
G04 #@! TA.AperFunction,SMDPad,CuDef*
G36*
G01*
X137100000Y-46245000D02*
X137100000Y-46545000D01*
G75*
G02*
X136950000Y-46695000I-150000J0D01*
G01*
X135250000Y-46695000D01*
G75*
G02*
X135100000Y-46545000I0J150000D01*
G01*
X135100000Y-46245000D01*
G75*
G02*
X135250000Y-46095000I150000J0D01*
G01*
X136950000Y-46095000D01*
G75*
G02*
X137100000Y-46245000I0J-150000D01*
G01*
G37*
G04 #@! TD.AperFunction*
G04 #@! TA.AperFunction,SMDPad,CuDef*
G36*
G01*
X137100000Y-44975000D02*
X137100000Y-45275000D01*
G75*
G02*
X136950000Y-45425000I-150000J0D01*
G01*
X135250000Y-45425000D01*
G75*
G02*
X135100000Y-45275000I0J150000D01*
G01*
X135100000Y-44975000D01*
G75*
G02*
X135250000Y-44825000I150000J0D01*
G01*
X136950000Y-44825000D01*
G75*
G02*
X137100000Y-44975000I0J-150000D01*
G01*
G37*
G04 #@! TD.AperFunction*
G04 #@! TA.AperFunction,SMDPad,CuDef*
G36*
G01*
X137100000Y-43705000D02*
X137100000Y-44005000D01*
G75*
G02*
X136950000Y-44155000I-150000J0D01*
G01*
X135250000Y-44155000D01*
G75*
G02*
X135100000Y-44005000I0J150000D01*
G01*
X135100000Y-43705000D01*
G75*
G02*
X135250000Y-43555000I150000J0D01*
G01*
X136950000Y-43555000D01*
G75*
G02*
X137100000Y-43705000I0J-150000D01*
G01*
G37*
G04 #@! TD.AperFunction*
D19*
X139600000Y-52600000D03*
X139100000Y-52600000D03*
X138600000Y-52600000D03*
X138100000Y-52600000D03*
X137600000Y-52600000D03*
X137600000Y-48200000D03*
X138100000Y-48200000D03*
X138600000Y-48200000D03*
X139100000Y-48200000D03*
X139600000Y-48200000D03*
G04 #@! TA.AperFunction,SMDPad,CuDef*
G36*
G01*
X186005000Y-61355000D02*
X186005000Y-60805000D01*
G75*
G02*
X186205000Y-60605000I200000J0D01*
G01*
X186605000Y-60605000D01*
G75*
G02*
X186805000Y-60805000I0J-200000D01*
G01*
X186805000Y-61355000D01*
G75*
G02*
X186605000Y-61555000I-200000J0D01*
G01*
X186205000Y-61555000D01*
G75*
G02*
X186005000Y-61355000I0J200000D01*
G01*
G37*
G04 #@! TD.AperFunction*
G04 #@! TA.AperFunction,SMDPad,CuDef*
G36*
G01*
X184355000Y-61355000D02*
X184355000Y-60805000D01*
G75*
G02*
X184555000Y-60605000I200000J0D01*
G01*
X184955000Y-60605000D01*
G75*
G02*
X185155000Y-60805000I0J-200000D01*
G01*
X185155000Y-61355000D01*
G75*
G02*
X184955000Y-61555000I-200000J0D01*
G01*
X184555000Y-61555000D01*
G75*
G02*
X184355000Y-61355000I0J200000D01*
G01*
G37*
G04 #@! TD.AperFunction*
G04 #@! TA.AperFunction,SMDPad,CuDef*
G36*
G01*
X112135000Y-62785000D02*
X112135000Y-62235000D01*
G75*
G02*
X112335000Y-62035000I200000J0D01*
G01*
X112735000Y-62035000D01*
G75*
G02*
X112935000Y-62235000I0J-200000D01*
G01*
X112935000Y-62785000D01*
G75*
G02*
X112735000Y-62985000I-200000J0D01*
G01*
X112335000Y-62985000D01*
G75*
G02*
X112135000Y-62785000I0J200000D01*
G01*
G37*
G04 #@! TD.AperFunction*
G04 #@! TA.AperFunction,SMDPad,CuDef*
G36*
G01*
X113785000Y-62785000D02*
X113785000Y-62235000D01*
G75*
G02*
X113985000Y-62035000I200000J0D01*
G01*
X114385000Y-62035000D01*
G75*
G02*
X114585000Y-62235000I0J-200000D01*
G01*
X114585000Y-62785000D01*
G75*
G02*
X114385000Y-62985000I-200000J0D01*
G01*
X113985000Y-62985000D01*
G75*
G02*
X113785000Y-62785000I0J200000D01*
G01*
G37*
G04 #@! TD.AperFunction*
G04 #@! TA.AperFunction,SMDPad,CuDef*
G36*
G01*
X179775000Y-86945000D02*
X179775000Y-86395000D01*
G75*
G02*
X179975000Y-86195000I200000J0D01*
G01*
X180375000Y-86195000D01*
G75*
G02*
X180575000Y-86395000I0J-200000D01*
G01*
X180575000Y-86945000D01*
G75*
G02*
X180375000Y-87145000I-200000J0D01*
G01*
X179975000Y-87145000D01*
G75*
G02*
X179775000Y-86945000I0J200000D01*
G01*
G37*
G04 #@! TD.AperFunction*
G04 #@! TA.AperFunction,SMDPad,CuDef*
G36*
G01*
X178125000Y-86945000D02*
X178125000Y-86395000D01*
G75*
G02*
X178325000Y-86195000I200000J0D01*
G01*
X178725000Y-86195000D01*
G75*
G02*
X178925000Y-86395000I0J-200000D01*
G01*
X178925000Y-86945000D01*
G75*
G02*
X178725000Y-87145000I-200000J0D01*
G01*
X178325000Y-87145000D01*
G75*
G02*
X178125000Y-86945000I0J200000D01*
G01*
G37*
G04 #@! TD.AperFunction*
G04 #@! TA.AperFunction,SMDPad,CuDef*
G36*
G01*
X111840000Y-68715000D02*
X111840000Y-69265000D01*
G75*
G02*
X111640000Y-69465000I-200000J0D01*
G01*
X111240000Y-69465000D01*
G75*
G02*
X111040000Y-69265000I0J200000D01*
G01*
X111040000Y-68715000D01*
G75*
G02*
X111240000Y-68515000I200000J0D01*
G01*
X111640000Y-68515000D01*
G75*
G02*
X111840000Y-68715000I0J-200000D01*
G01*
G37*
G04 #@! TD.AperFunction*
G04 #@! TA.AperFunction,SMDPad,CuDef*
G36*
G01*
X110190000Y-68715000D02*
X110190000Y-69265000D01*
G75*
G02*
X109990000Y-69465000I-200000J0D01*
G01*
X109590000Y-69465000D01*
G75*
G02*
X109390000Y-69265000I0J200000D01*
G01*
X109390000Y-68715000D01*
G75*
G02*
X109590000Y-68515000I200000J0D01*
G01*
X109990000Y-68515000D01*
G75*
G02*
X110190000Y-68715000I0J-200000D01*
G01*
G37*
G04 #@! TD.AperFunction*
D20*
X120750000Y-64000000D03*
X121500000Y-64000000D03*
X122250000Y-64000000D03*
X123000000Y-64000000D03*
X123750000Y-64000000D03*
X124500000Y-64000000D03*
X125250000Y-64000000D03*
X126000000Y-64000000D03*
X126750000Y-64000000D03*
X127500000Y-64000000D03*
X128250000Y-64000000D03*
X129000000Y-64000000D03*
X129750000Y-64000000D03*
X130500000Y-64000000D03*
X131250000Y-64000000D03*
X133750000Y-63000000D03*
X133750000Y-62250000D03*
X133750000Y-61500000D03*
X133750000Y-60750000D03*
X133750000Y-60000000D03*
X133750000Y-59250000D03*
X133750000Y-58500000D03*
X133750000Y-57750000D03*
X133750000Y-57000000D03*
X165750000Y-59750000D03*
X165750000Y-61250000D03*
X165750000Y-60500000D03*
X165750000Y-58250000D03*
X165750000Y-59000000D03*
X165750000Y-57500000D03*
X165750000Y-56750000D03*
X165750000Y-56000000D03*
X165750000Y-62000000D03*
X123500000Y-75500000D03*
X120500000Y-75500000D03*
X128000000Y-75500000D03*
X126500000Y-75500000D03*
X125750000Y-75500000D03*
X117500000Y-75500000D03*
X127250000Y-75500000D03*
X118250000Y-75500000D03*
X125000000Y-75500000D03*
X122000000Y-75500000D03*
X119000000Y-75500000D03*
X122750000Y-75500000D03*
X121250000Y-75500000D03*
X119750000Y-75500000D03*
X124250000Y-75500000D03*
X115250000Y-75500000D03*
X116000000Y-75500000D03*
X116750000Y-75500000D03*
X173000000Y-64000000D03*
X170000000Y-64000000D03*
X177500000Y-64000000D03*
X176000000Y-64000000D03*
X175250000Y-64000000D03*
X167000000Y-64000000D03*
X176750000Y-64000000D03*
X167750000Y-64000000D03*
X174500000Y-64000000D03*
X171500000Y-64000000D03*
X168500000Y-64000000D03*
X172250000Y-64000000D03*
X170750000Y-64000000D03*
X169250000Y-64000000D03*
X173750000Y-64000000D03*
X171250000Y-78250000D03*
X168250000Y-78250000D03*
X175750000Y-78250000D03*
X174250000Y-78250000D03*
X173500000Y-78250000D03*
X175000000Y-78250000D03*
X172750000Y-78250000D03*
X169750000Y-78250000D03*
X170500000Y-78250000D03*
X169000000Y-78250000D03*
X167500000Y-78250000D03*
X172000000Y-78250000D03*
X176250000Y-76250000D03*
X176750000Y-75750000D03*
X177250000Y-75250000D03*
X177750000Y-74750000D03*
X178250000Y-74250000D03*
X178750000Y-73750000D03*
X178000000Y-63250000D03*
X178500000Y-62500000D03*
X179000000Y-61750000D03*
X179500000Y-61250000D03*
X180250000Y-61250000D03*
X181000000Y-61250000D03*
X181750000Y-61250000D03*
X166000000Y-70750000D03*
X166000000Y-73750000D03*
X166000000Y-75250000D03*
X166000000Y-74500000D03*
X166000000Y-72250000D03*
X166000000Y-73000000D03*
X166000000Y-71500000D03*
X166000000Y-70000000D03*
X166000000Y-76000000D03*
X118500000Y-64000000D03*
X119250000Y-64000000D03*
X120000000Y-64000000D03*
X117900000Y-51800000D03*
X134350000Y-46600000D03*
X133650000Y-46600000D03*
X115140000Y-61830000D03*
X112720000Y-73310000D03*
X105780000Y-80670000D03*
X110790000Y-86460000D03*
X175890000Y-83830000D03*
X184660000Y-74320000D03*
X181250000Y-68860000D03*
X183640000Y-57960000D03*
X145990000Y-55250000D03*
X139490000Y-59040000D03*
X130980000Y-43870000D03*
X131050000Y-45340000D03*
X187280000Y-61040000D03*
X181290000Y-86750000D03*
X112450000Y-57100000D03*
X113700000Y-56050000D03*
X114400000Y-55200000D03*
D21*
X139600000Y-45250000D02*
X139600000Y-47600000D01*
D22*
X133630000Y-43855000D02*
X133625000Y-43850000D01*
X136100000Y-43855000D02*
X133630000Y-43855000D01*
D23*
X136100000Y-43855000D02*
X138205000Y-43855000D01*
X138205000Y-43855000D02*
X139600000Y-45250000D01*
X139600000Y-45250000D02*
X139600000Y-48200000D01*
D21*
X133620000Y-52250000D02*
X135020000Y-50850000D01*
X135020000Y-50850000D02*
X137950000Y-50850000D01*
X139600000Y-49200000D02*
X139600000Y-48200000D01*
X137950000Y-50850000D02*
X139600000Y-49200000D01*
X138600000Y-46838518D02*
X138600000Y-47600000D01*
X138156482Y-46395000D02*
X138600000Y-46838518D01*
X136100000Y-46395000D02*
X138156482Y-46395000D01*
D24*
X134555000Y-46395000D02*
X134350000Y-46600000D01*
X136100000Y-46395000D02*
X134555000Y-46395000D01*
X133855000Y-46395000D02*
X133650000Y-46600000D01*
X136100000Y-46395000D02*
X133855000Y-46395000D01*
D23*
X117900000Y-51800000D02*
X117850000Y-51800000D01*
D22*
X115200000Y-61770000D02*
X115140000Y-61830000D01*
X115200000Y-60980000D02*
X115200000Y-61770000D01*
X112975000Y-73055000D02*
X112720000Y-73310000D01*
X112975000Y-72230000D02*
X112975000Y-73055000D01*
X105835000Y-80725000D02*
X105780000Y-80670000D01*
X106800000Y-80725000D02*
X105835000Y-80725000D01*
X110600000Y-86270000D02*
X110790000Y-86460000D01*
X110600000Y-85380000D02*
X110600000Y-86270000D01*
X175750000Y-83970000D02*
X175890000Y-83830000D01*
X175750000Y-84845000D02*
X175750000Y-83970000D01*
X184605000Y-74375000D02*
X184660000Y-74320000D01*
X183550000Y-74375000D02*
X184605000Y-74375000D01*
X180590000Y-69520000D02*
X181250000Y-68860000D01*
X180400000Y-69520000D02*
X180590000Y-69520000D01*
X183580000Y-58020000D02*
X183640000Y-57960000D01*
X182750000Y-58020000D02*
X183580000Y-58020000D01*
X145900000Y-55340000D02*
X145990000Y-55250000D01*
X145900000Y-56350000D02*
X145900000Y-55340000D01*
X139630000Y-58900000D02*
X139490000Y-59040000D01*
X140770000Y-58900000D02*
X139630000Y-58900000D01*
X131000000Y-43850000D02*
X130980000Y-43870000D01*
X131975000Y-43850000D02*
X131000000Y-43850000D01*
X131060000Y-45350000D02*
X131050000Y-45340000D01*
X131975000Y-45350000D02*
X131060000Y-45350000D01*
X187240000Y-61080000D02*
X187280000Y-61040000D01*
X186405000Y-61080000D02*
X187240000Y-61080000D01*
X181210000Y-86670000D02*
X181290000Y-86750000D01*
X180175000Y-86670000D02*
X181210000Y-86670000D01*
X114460000Y-62510000D02*
X115140000Y-61830000D01*
X114185000Y-62510000D02*
X114460000Y-62510000D01*
D21*
X139100000Y-45850000D02*
X139100000Y-47600000D01*
D22*
X133625000Y-45350000D02*
X133625000Y-45375000D01*
X112450000Y-57100000D02*
X112450000Y-54750000D01*
X112450000Y-54750000D02*
X113350000Y-53850000D01*
X113350000Y-53850000D02*
X117000000Y-53850000D01*
X117000000Y-53850000D02*
X118100000Y-52750000D01*
X118100000Y-52750000D02*
X126300000Y-52750000D01*
X133625000Y-45425000D02*
X133625000Y-45350000D01*
X136100000Y-45125000D02*
X134975000Y-45125000D01*
X134750000Y-45350000D02*
X133625000Y-45350000D01*
X134975000Y-45125000D02*
X134750000Y-45350000D01*
D23*
X139100000Y-45850000D02*
X138375000Y-45125000D01*
X139100000Y-48200000D02*
X139100000Y-45850000D01*
X138375000Y-45125000D02*
X136100000Y-45125000D01*
D22*
X126300000Y-52750000D02*
X132818590Y-46231410D01*
X132900000Y-45350000D02*
X132818590Y-45268590D01*
X133625000Y-45350000D02*
X132900000Y-45350000D01*
X132818590Y-46231410D02*
X132818590Y-45268590D01*
X147025000Y-58000000D02*
X145900000Y-58000000D01*
X147775000Y-57250000D02*
X147025000Y-58000000D01*
X147775000Y-44425000D02*
X147775000Y-57250000D01*
X145350000Y-42000000D02*
X147775000Y-44425000D01*
X133750000Y-42000000D02*
X145350000Y-42000000D01*
X132818590Y-42931410D02*
X133750000Y-42000000D01*
X132818590Y-45268590D02*
X132818590Y-42931410D01*
X145900000Y-58000000D02*
X145900000Y-59350000D01*
X145900000Y-59350000D02*
X145450000Y-59800000D01*
X142630000Y-59281522D02*
X142630000Y-58900000D01*
X143148478Y-59800000D02*
X142630000Y-59281522D01*
X145450000Y-59800000D02*
X143148478Y-59800000D01*
X183658000Y-59880000D02*
X184830000Y-61052000D01*
X182750000Y-59880000D02*
X183658000Y-59880000D01*
X184830000Y-61052000D02*
X184830000Y-69020000D01*
X182470000Y-71380000D02*
X180400000Y-71380000D01*
X181900000Y-71950000D02*
X183140000Y-70710000D01*
X181900000Y-74375000D02*
X181900000Y-71950000D01*
X183140000Y-70710000D02*
X182470000Y-71380000D01*
X184830000Y-69020000D02*
X183140000Y-70710000D01*
X181900000Y-74375000D02*
X181900000Y-83320000D01*
X178515000Y-86705000D02*
X175750000Y-86705000D01*
X181900000Y-83320000D02*
X178515000Y-86705000D01*
X178515000Y-86705000D02*
X178515000Y-88545000D01*
X178448599Y-88611401D02*
X173338599Y-88611401D01*
X178515000Y-88545000D02*
X178448599Y-88611401D01*
X173338599Y-88611401D02*
X171530000Y-90420000D01*
X110148478Y-83520000D02*
X110600000Y-83520000D01*
X109217390Y-84451088D02*
X110148478Y-83520000D01*
X109217390Y-86774903D02*
X109217390Y-84451088D01*
X112862487Y-90420000D02*
X109217390Y-86774903D01*
X171530000Y-90420000D02*
X112862487Y-90420000D01*
X109217390Y-84451088D02*
X109217390Y-82527390D01*
X108450000Y-81760000D02*
X108450000Y-80725000D01*
X109217390Y-82527390D02*
X108450000Y-81760000D01*
X108450000Y-80725000D02*
X108450000Y-74200000D01*
X112280000Y-70370000D02*
X112975000Y-70370000D01*
X111405000Y-64235000D02*
X112450000Y-63190000D01*
X111405000Y-71245000D02*
X111405000Y-64235000D01*
X108450000Y-74200000D02*
X111405000Y-71245000D01*
X111405000Y-71245000D02*
X112280000Y-70370000D01*
X112640000Y-59120000D02*
X112450000Y-59310000D01*
X115200000Y-59120000D02*
X112640000Y-59120000D01*
X112450000Y-59310000D02*
X112450000Y-63190000D01*
X112450000Y-57100000D02*
X112450000Y-59310000D01*
D21*
X137600000Y-48200000D02*
X137600000Y-48700000D01*
X137365000Y-48935000D02*
X136100000Y-48935000D01*
X137600000Y-48700000D02*
X137365000Y-48935000D01*
X127576256Y-53904810D02*
X118876256Y-53904810D01*
X118876256Y-53904810D02*
X117276256Y-55504810D01*
X117276256Y-55504810D02*
X115195190Y-55504810D01*
X114650000Y-56050000D02*
X113700000Y-56050000D01*
X115195190Y-55504810D02*
X114650000Y-56050000D01*
X131281066Y-50200000D02*
X127576256Y-53904810D01*
X131975000Y-50200000D02*
X131281066Y-50200000D01*
X132315000Y-48935000D02*
X131975000Y-49275000D01*
X131975000Y-49275000D02*
X131975000Y-50200000D01*
X136100000Y-48935000D02*
X132315000Y-48935000D01*
X136100000Y-47665000D02*
X136785000Y-47665000D01*
X136785000Y-47665000D02*
X137350000Y-47100000D01*
X137350000Y-47100000D02*
X137900000Y-47100000D01*
X138100000Y-47300000D02*
X138100000Y-48200000D01*
X137900000Y-47100000D02*
X138100000Y-47300000D01*
X118750000Y-53600000D02*
X117150000Y-55200000D01*
X117150000Y-55200000D02*
X114400000Y-55200000D01*
X127450000Y-53600000D02*
X118750000Y-53600000D01*
X130800000Y-50250000D02*
X127450000Y-53600000D01*
X130800000Y-49400000D02*
X130800000Y-50250000D01*
X132535000Y-47665000D02*
X130800000Y-49400000D01*
X136100000Y-47665000D02*
X132535000Y-47665000D01*
X133625000Y-50925000D02*
X133625000Y-50200000D01*
X133412500Y-51137500D02*
X133625000Y-50925000D01*
X132462500Y-51137500D02*
X133412500Y-51137500D01*
X132320000Y-51280000D02*
X132462500Y-51137500D01*
X132320000Y-52250000D02*
X132320000Y-51280000D01*
X141100000Y-48935000D02*
X140415000Y-48935000D01*
X138100000Y-51250000D02*
X138100000Y-52600000D01*
X140415000Y-48935000D02*
X138100000Y-51250000D01*
X138100000Y-53452400D02*
X141572600Y-56925000D01*
X138100000Y-52600000D02*
X138100000Y-53452400D01*
X141572600Y-56925000D02*
X142600000Y-56925000D01*
X143755000Y-58080000D02*
X143755000Y-58900000D01*
X142600000Y-56925000D02*
X143755000Y-58080000D01*
X141750000Y-58900000D02*
X141750000Y-58325000D01*
X141696399Y-58271399D02*
X136446399Y-58271399D01*
X141750000Y-58325000D02*
X141696399Y-58271399D01*
X136446399Y-58271399D02*
X132925000Y-54750000D01*
X132925000Y-54750000D02*
X118700000Y-54750000D01*
X118700000Y-54750000D02*
X116850000Y-56600000D01*
X116850000Y-56600000D02*
X116850000Y-57250000D01*
X116105000Y-57995000D02*
X115200000Y-57995000D01*
X116850000Y-57250000D02*
X116105000Y-57995000D01*
X180400000Y-70500000D02*
X179875000Y-70500000D01*
X179875000Y-70500000D02*
X179450000Y-70075000D01*
X179450000Y-69258518D02*
X180908518Y-67800000D01*
X179450000Y-70075000D02*
X179450000Y-69258518D01*
X180908518Y-67800000D02*
X181475000Y-67800000D01*
X181475000Y-67800000D02*
X183925000Y-65350000D01*
X183925000Y-62180000D02*
X182750000Y-61005000D01*
X183925000Y-65350000D02*
X183925000Y-62180000D01*
X112975000Y-71250000D02*
X113475000Y-71250000D01*
X113475000Y-71250000D02*
X113825000Y-71600000D01*
X113825000Y-71600000D02*
X113825000Y-77225000D01*
X110600000Y-80450000D02*
X110600000Y-82395000D01*
X113825000Y-77225000D02*
X110600000Y-80450000D01*
X174375000Y-86455000D02*
X175750000Y-87830000D01*
X110600000Y-84400000D02*
X109975000Y-84400000D01*
X109975000Y-84400000D02*
X109700000Y-84675000D01*
X109700000Y-84675000D02*
X109700000Y-86575000D01*
X166350000Y-84675000D02*
X166350000Y-81050000D01*
X109700000Y-86575000D02*
X111925000Y-88800000D01*
X111925000Y-88800000D02*
X162225000Y-88800000D01*
X162225000Y-88800000D02*
X166350000Y-84675000D01*
X166350000Y-81050000D02*
X168075000Y-79325000D01*
X175475000Y-82925000D02*
X174375000Y-84025000D01*
X168075000Y-79325000D02*
X174700000Y-79325000D01*
X174700000Y-79325000D02*
X175475000Y-80100000D01*
X175475000Y-80100000D02*
X175475000Y-82925000D01*
X174375000Y-84025000D02*
X174375000Y-86455000D01*
X175750000Y-85825000D02*
X177700000Y-85825000D01*
X180400000Y-83125000D02*
X180400000Y-72505000D01*
X177700000Y-85825000D02*
X180400000Y-83125000D01*
X115200000Y-60000000D02*
X115950000Y-60000000D01*
X115950000Y-60000000D02*
X116300000Y-60350000D01*
X116300000Y-65920000D02*
X112975000Y-69245000D01*
X116300000Y-60350000D02*
X116300000Y-65920000D01*
M02*
