<?xml version="1.0" encoding="UTF-8" standalone="no"?>
<svg
   xmlns:dc="http://purl.org/dc/elements/1.1/"
   xmlns:cc="http://creativecommons.org/ns#"
   xmlns:rdf="http://www.w3.org/1999/02/22-rdf-syntax-ns#"
   xmlns:svg="http://www.w3.org/2000/svg"
   xmlns="http://www.w3.org/2000/svg"
   xmlns:sodipodi="http://sodipodi.sourceforge.net/DTD/sodipodi-0.dtd"
   xmlns:inkscape="http://www.inkscape.org/namespaces/inkscape"
   width="100.0mm"
   height="100.0mm"
   viewBox="0 0 100.0 100.0"
   version="1.1"
   id="svg4134"
   inkscape:version="1.0.1 (3bc2e813f5, 2020-09-07)"
   sodipodi:docname="pcb-layers.svg">
  <defs
     id="defs4128">
    <filter
       inkscape:collect="always"
       style="color-interpolation-filters:sRGB"
       id="filter4754"
       x="-1.2e-06"
       width="1.0000024"
       y="-1.2e-06"
       height="1.0000024">
      <feGaussianBlur
         inkscape:collect="always"
         stdDeviation="1.6796907e-05"
         id="feGaussianBlur4756" />
    </filter>
  </defs>
  <sodipodi:namedview
     id="base"
     pagecolor="#ffffff"
     bordercolor="#666666"
     borderopacity="1.0"
     inkscape:pageopacity="0.0"
     inkscape:pageshadow="2"
     inkscape:zoom="5.186705"
     inkscape:cx="148.96057"
     inkscape:cy="127.89744"
     inkscape:document-units="mm"
     inkscape:current-layer="g4706"
     inkscape:document-rotation="0"
     showgrid="false"
     inkscape:window-width="1267"
     inkscape:window-height="1009"
     inkscape:window-x="141"
     inkscape:window-y="0"
     inkscape:window-maximized="0"
     showguides="false" />
  <metadata
     id="metadata4131">
    <rdf:RDF>
      <cc:Work
         rdf:about="">
        <dc:format>image/svg+xml</dc:format>
        <dc:type
           rdf:resource="http://purl.org/dc/dcmitype/StillImage" />
        <dc:title></dc:title>
      </cc:Work>
    </rdf:RDF>
  </metadata>
  <g
     inkscape:label="[fixed] BG"
     inkscape:groupmode="layer"
     id="g4702"
     style="display:none">
    <rect
       x="0"
       y="0"
       width="100"
       height="100"
       style="fill:#ffffff;fill-opacity:1;stroke:none"
       id="rect4700" />
  </g>
  <g
     inkscape:label="Edge.Cuts"
     inkscape:groupmode="layer"
     id="g4704"
     style="display:none" />
  <g
     inkscape:label="B.Mask"
     inkscape:groupmode="layer"
     id="g4706"
     style="display:inline">
    <path
       id="path2590"
       style="color:#000000;font-style:normal;font-variant:normal;font-weight:normal;font-stretch:normal;font-size:medium;line-height:normal;font-family:sans-serif;font-variant-ligatures:normal;font-variant-position:normal;font-variant-caps:normal;font-variant-numeric:normal;font-variant-alternates:normal;font-variant-east-asian:normal;font-feature-settings:normal;font-variation-settings:normal;text-indent:0;text-align:start;text-decoration:none;text-decoration-line:none;text-decoration-style:solid;text-decoration-color:#000000;letter-spacing:normal;word-spacing:normal;text-transform:none;writing-mode:lr-tb;direction:ltr;text-orientation:mixed;dominant-baseline:auto;baseline-shift:baseline;text-anchor:start;white-space:normal;shape-padding:0;shape-margin:0;inline-size:0;clip-rule:evenodd;display:inline;overflow:visible;visibility:visible;opacity:0.74702;isolation:auto;mix-blend-mode:normal;color-interpolation:sRGB;color-interpolation-filters:linearRGB;solid-color:#000000;solid-opacity:1;vector-effect:none;fill:#999999;fill-opacity:1;fill-rule:evenodd;stroke:none;stroke-width:2.17;stroke-linecap:round;stroke-linejoin:round;stroke-miterlimit:1.41421;stroke-dasharray:none;stroke-dashoffset:0;stroke-opacity:1;color-rendering:auto;image-rendering:auto;shape-rendering:auto;text-rendering:auto;enable-background:accumulate;stop-color:#000000"
       d="m 39.232746,18.095792 c -1.245364,0 -2.454169,0.156573 -3.609599,0.448554 a 3.7666057,3.7666057 0 0 0 -0.157096,1.076417 3.7666057,3.7666057 0 0 0 3.766695,3.766696 3.7666057,3.7666057 0 0 0 3.766696,-3.766696 3.7666057,3.7666057 0 0 0 -0.157096,-1.076417 c -1.155431,-0.291981 -2.364232,-0.448554 -3.6096,-0.448554 z m -7.534939,2.078427 c -2.095193,1.252781 -3.853354,3.01099 -5.106149,5.106149 a 3.7666057,3.7666057 0 0 0 0.648023,0.868164 3.7666057,3.7666057 0 0 0 5.326806,0 3.7666057,3.7666057 0 0 0 0,-5.326806 3.7666057,3.7666057 0 0 0 -0.86868,-0.647507 z m 15.069362,0 a 3.7666057,3.7666057 0 0 0 -0.868164,0.647507 3.7666057,3.7666057 0 0 0 0,5.326806 3.7666057,3.7666057 0 0 0 5.326809,0 3.7666057,3.7666057 0 0 0 0.648023,-0.868164 c -1.252871,-2.095286 -3.011305,-3.853355 -5.106668,-5.106149 z m -20.769273,8.874394 a 3.7666057,3.7666057 0 0 0 -1.036113,0.157097 c -0.29192,1.15526 -0.448551,2.363888 -0.448551,3.60908 0,1.245585 0.156972,2.454506 0.449069,3.610116 a 3.7666057,3.7666057 0 0 0 1.075902,0.15658 3.7666057,3.7666057 0 0 0 3.766696,-3.766696 3.7666057,3.7666057 0 0 0 -3.766696,-3.766177 3.7666057,3.7666057 0 0 0 -0.04031,0 z m 26.389087,0 a 3.7666057,3.7666057 0 0 0 -3.726389,3.766177 3.7666057,3.7666057 0 0 0 3.766696,3.766696 3.7666057,3.7666057 0 0 0 1.07642,-0.157096 c 0.291999,-1.15543 0.448551,-2.364232 0.448551,-3.6096 0,-1.245367 -0.156552,-2.45419 -0.448551,-3.609599 a 3.7666057,3.7666057 0 0 0 -1.07642,-0.156578 3.7666057,3.7666057 0 0 0 -0.04031,0 z M 29.88293,38.378277 a 3.7666057,3.7666057 0 0 0 -2.643249,1.103291 3.7666057,3.7666057 0 0 0 -0.648023,0.868164 c 1.252855,2.095191 3.011432,3.853355 5.106665,5.106149 a 3.7666057,3.7666057 0 0 0 0.868164,-0.647507 3.7666057,3.7666057 0 0 0 0,-5.326806 3.7666057,3.7666057 0 0 0 -2.683557,-1.103291 z m 18.659326,0 a 3.7666057,3.7666057 0 0 0 -2.643251,1.103291 3.7666057,3.7666057 0 0 0 0,5.326806 3.7666057,3.7666057 0 0 0 0.868683,0.647507 c 2.095063,-1.252778 3.853371,-3.011085 5.106149,-5.106149 a 3.7666057,3.7666057 0 0 0 -0.648023,-0.868164 3.7666057,3.7666057 0 0 0 -2.683558,-1.103291 z" />
    <path
       id="path2590-0"
       style="color:#000000;font-style:normal;font-variant:normal;font-weight:normal;font-stretch:normal;font-size:medium;line-height:normal;font-family:sans-serif;font-variant-ligatures:normal;font-variant-position:normal;font-variant-caps:normal;font-variant-numeric:normal;font-variant-alternates:normal;font-variant-east-asian:normal;font-feature-settings:normal;font-variation-settings:normal;text-indent:0;text-align:start;text-decoration:none;text-decoration-line:none;text-decoration-style:solid;text-decoration-color:#000000;letter-spacing:normal;word-spacing:normal;text-transform:none;writing-mode:lr-tb;direction:ltr;text-orientation:mixed;dominant-baseline:auto;baseline-shift:baseline;text-anchor:start;white-space:normal;shape-padding:0;shape-margin:0;inline-size:0;clip-rule:evenodd;display:inline;overflow:visible;visibility:visible;opacity:0.74702;isolation:auto;mix-blend-mode:normal;color-interpolation:sRGB;color-interpolation-filters:linearRGB;solid-color:#000000;solid-opacity:1;vector-effect:none;fill:#999999;fill-opacity:1;fill-rule:evenodd;stroke:none;stroke-width:2.17;stroke-linecap:round;stroke-linejoin:round;stroke-miterlimit:1.41421;stroke-dasharray:none;stroke-dashoffset:0;stroke-opacity:1;color-rendering:auto;image-rendering:auto;shape-rendering:auto;text-rendering:auto;enable-background:accumulate;stop-color:#000000"
       d="m 39.232746,18.095792 c -1.245364,0 -2.454169,0.156572 -3.609599,0.448553 a 3.7666057,3.7666057 0 0 0 -0.157096,1.076418 3.7666057,3.7666057 0 0 0 3.766695,3.766696 3.7666057,3.7666057 0 0 0 3.766696,-3.766696 3.7666057,3.7666057 0 0 0 -0.157096,-1.076418 c -1.155431,-0.291981 -2.364232,-0.448553 -3.6096,-0.448553 z m -7.534939,2.078426 c -2.095193,1.252781 -3.853354,3.01099 -5.106148,5.106149 a 3.7666057,3.7666057 0 0 0 0.648022,0.868164 3.7666057,3.7666057 0 0 0 5.326806,0 3.7666057,3.7666057 0 0 0 0,-5.326806 3.7666057,3.7666057 0 0 0 -0.86868,-0.647507 z m 15.069362,0 a 3.7666057,3.7666057 0 0 0 -0.868164,0.647507 3.7666057,3.7666057 0 0 0 0,5.326806 3.7666057,3.7666057 0 0 0 5.326809,0 3.7666057,3.7666057 0 0 0 0.648023,-0.868164 c -1.252871,-2.095286 -3.011305,-3.853354 -5.106668,-5.106149 z m -20.769272,8.874395 a 3.7666057,3.7666057 0 0 0 -1.036114,0.157097 c -0.29192,1.15526 -0.448551,2.363888 -0.448551,3.60908 0,1.245585 0.156972,2.454506 0.44907,3.610116 a 3.7666057,3.7666057 0 0 0 1.075901,0.15658 3.7666057,3.7666057 0 0 0 3.766696,-3.766696 3.7666057,3.7666057 0 0 0 -3.766696,-3.766177 3.7666057,3.7666057 0 0 0 -0.04031,0 z m 26.389086,0 a 3.7666057,3.7666057 0 0 0 -3.726389,3.766177 3.7666057,3.7666057 0 0 0 3.766696,3.766696 3.7666057,3.7666057 0 0 0 1.07642,-0.157096 c 0.291999,-1.15543 0.448551,-2.364232 0.448551,-3.6096 0,-1.245367 -0.156552,-2.45419 -0.448551,-3.609599 a 3.7666057,3.7666057 0 0 0 -1.07642,-0.156578 3.7666057,3.7666057 0 0 0 -0.04031,0 z M 29.88293,38.378277 a 3.7666057,3.7666057 0 0 0 -2.643249,1.103291 3.7666057,3.7666057 0 0 0 -0.648022,0.868164 c 1.252855,2.095191 3.011432,3.853355 5.106664,5.106149 a 3.7666057,3.7666057 0 0 0 0.868164,-0.647507 3.7666057,3.7666057 0 0 0 0,-5.326806 3.7666057,3.7666057 0 0 0 -2.683557,-1.103291 z m 18.659326,0 a 3.7666057,3.7666057 0 0 0 -2.643251,1.103291 3.7666057,3.7666057 0 0 0 0,5.326806 3.7666057,3.7666057 0 0 0 0.868683,0.647507 c 2.095063,-1.252778 3.853371,-3.011085 5.106149,-5.106149 a 3.7666057,3.7666057 0 0 0 -0.648023,-0.868164 3.7666057,3.7666057 0 0 0 -2.683558,-1.103291 z" />
    <path
       style="color:#000000;font-style:normal;font-variant:normal;font-weight:normal;font-stretch:normal;font-size:medium;line-height:normal;font-family:sans-serif;font-variant-ligatures:normal;font-variant-position:normal;font-variant-caps:normal;font-variant-numeric:normal;font-variant-alternates:normal;font-variant-east-asian:normal;font-feature-settings:normal;font-variation-settings:normal;text-indent:0;text-align:start;text-decoration:none;text-decoration-line:none;text-decoration-style:solid;text-decoration-color:#000000;letter-spacing:normal;word-spacing:normal;text-transform:none;writing-mode:lr-tb;direction:ltr;text-orientation:mixed;dominant-baseline:auto;baseline-shift:baseline;text-anchor:start;white-space:normal;shape-padding:0;shape-margin:0;inline-size:0;clip-rule:evenodd;display:inline;overflow:visible;visibility:visible;opacity:0.74702;isolation:auto;mix-blend-mode:normal;color-interpolation:sRGB;color-interpolation-filters:linearRGB;solid-color:#000000;solid-opacity:1;vector-effect:none;fill:#999999;fill-opacity:1;fill-rule:evenodd;stroke:none;stroke-width:2.17;stroke-linecap:round;stroke-linejoin:round;stroke-miterlimit:1.41421;stroke-dasharray:none;stroke-dashoffset:0;stroke-opacity:1;color-rendering:auto;image-rendering:auto;shape-rendering:auto;text-rendering:auto;enable-background:accumulate;stop-color:#000000"
       d="m 41.881951,33.397046 a 3.7666057,3.7666057 0 0 0 -2.649205,-1.088916 3.7666057,3.7666057 0 0 0 -3.766622,3.76662 3.7666057,3.7666057 0 0 0 0.156396,1.072108 c 2.367282,0.595585 4.853904,0.595585 7.221185,0 a 3.7666057,3.7666057 0 0 0 0.155664,-1.072106 3.7666057,3.7666057 0 0 0 -1.117418,-2.677706 z"
       id="path2684-8" />
  </g>
  <g
     inkscape:label="F.Cu"
     inkscape:groupmode="layer"
     id="g4708"
     style="display:none;filter:url(#filter4754)">
    <path
       id="path5376"
       style="display:inline;opacity:0.477551;fill:#000000;stroke-width:7.55906;stroke-linecap:round;stroke-linejoin:round;stroke-miterlimit:1.41421;paint-order:stroke fill markers"
       d="m 148.28125,60.613281 a 63.484728,63.484728 0 0 0 -63.484375,63.484379 63.484728,63.484728 0 0 0 63.484375,63.48437 63.484728,63.484728 0 0 0 63.48437,-63.48437 63.484728,63.484728 0 0 0 -63.48437,-63.484379 z m -4.84961,9.5625 h 0.002 c 0.92397,-0.0014 1.84479,0.07013 2.2168,0.212891 1.4394,0.552189 2.93161,1.480337 3.7207,2.316406 0.6048,0.640895 0.87927,0.633791 1.78125,-0.05469 1.6568,-1.264668 3.26831,-1.801162 5.43946,-1.8125 2.36114,-0.01111 3.93163,0.524399 5.89453,2.011718 0.80016,0.606312 2.24433,2.364645 2.61133,3.177735 0.17574,0.389178 0.33129,0.44963 1.58398,0.625 1.74474,0.244082 3.20017,0.908864 4.68945,2.142578 0.52661,0.436271 1.66678,2.028451 2.07032,2.888672 0.92382,1.969058 1.04579,2.613794 0.97851,5.175781 l -0.0566,2.226563 0.71875,0.740234 c 1.19978,1.232734 2.20525,2.872654 2.81836,4.595703 0.2428,0.682246 0.32277,0.750257 1.32031,1.107422 4.70286,1.684237 7.51412,5.060756 8.22657,9.886726 0.66947,4.53494 -2.0629,9.69826 -6.24219,11.79492 -1.55698,0.78104 -3.8414,1.41015 -5.12305,1.41015 -0.35761,0 -0.65039,0.0786 -0.65039,0.17383 0,0.0958 0.21666,0.44752 0.48047,0.78125 0.48226,0.61066 0.97612,1.61024 1.3125,2.64844 0.21846,0.67457 0.24064,2.75708 0.0312,2.88672 -0.0822,0.0508 -0.63729,-0.49733 -1.23242,-1.2168 -0.5952,-0.71939 -1.23927,-1.45524 -1.43164,-1.63476 l -0.34961,-0.32618 -1.58594,1.03516 c -0.87205,0.56784 -2.28871,1.48535 -3.14844,2.04102 -1.17554,0.7599 -1.72765,1.23983 -2.22265,1.9375 -1.28731,1.81432 -1.84085,2.37922 -4.52344,4.60937 -1.49314,1.24138 -2.7519,2.30136 -2.79688,2.35352 -0.0452,0.0524 -0.43371,0.37481 -0.86132,0.71875 -0.42758,0.34356 -0.87106,0.71499 -0.98633,0.82421 -0.11531,0.10927 -0.61744,0.52993 -1.11524,0.93555 -0.49772,0.40558 -0.94097,0.77862 -0.98633,0.82813 -0.0452,0.0494 -1.38835,1.17581 -2.98437,2.5039 -1.59598,1.32805 -3.00343,2.51212 -3.12891,2.62891 -0.12551,0.11682 -0.61199,0.5257 -1.07812,0.91016 -0.46605,0.38441 -0.9096,0.70117 -0.98633,0.70117 -0.11436,0 -2.52752,-1.95845 -4.32812,-3.51172 -0.22712,-0.19597 -0.81764,-0.68888 -1.31446,-1.0957 -0.49685,-0.40683 -0.998,-0.83023 -1.11328,-0.93946 -0.11535,-0.10926 -0.56078,-0.47833 -0.98828,-0.82226 -0.42751,-0.3436 -0.87641,-0.71878 -1,-0.83594 -0.12355,-0.11694 -1.53097,-1.30082 -3.12695,-2.62891 -1.59598,-1.32809 -2.9394,-2.45672 -2.98438,-2.50586 -0.0453,-0.0494 -0.48864,-0.41755 -0.98633,-0.82226 -0.49776,-0.40471 -0.9433,-0.77868 -0.98828,-0.83008 -0.0452,-0.0511 -1.45281,-1.23687 -3.12695,-2.63477 -1.67418,-1.39793 -3.22711,-2.71286 -3.45313,-2.92187 -0.22623,-0.2089 -0.7451,-0.53084 -1.15234,-0.7168 -1.77963,-0.81241 -2.42431,-1.09228 -3.01758,-1.30469 -0.58783,-0.21063 -0.627,-0.26376 -0.54687,-0.75585 0.0472,-0.29099 0.38735,-0.97312 0.75586,-1.51563 0.36831,-0.54247 0.66992,-1.02823 0.66992,-1.07812 0,-0.0499 -0.4269,-0.092 -0.94727,-0.0957 -3.14052,-0.0194 -6.30566,-1.84768 -8.25,-4.76562 -0.56591,-0.84938 -0.70247,-1.10912 -1.13281,-2.14063 -0.65658,-1.57357 -0.85937,-2.72606 -0.85937,-4.88281 0,-1.93905 0.0626,-2.39942 0.54492,-4.08203 0.46669,-1.62822 1.58663,-3.506589 2.8457,-4.765629 1.35027,-1.350312 3.74985,-2.722656 4.75781,-2.722656 0.65261,-10e-7 0.79394,-0.382865 0.40235,-1.080079 -0.51134,-0.910299 -0.97821,-2.95092 -0.97461,-4.265625 0.007,-2.399021 0.9678,-4.885143 2.55078,-6.599609 0.58738,-0.636249 0.96758,-1.230133 1.14258,-1.785156 1.00327,-3.184895 3.46339,-6.011924 6.3457,-7.294922 2.12198,-0.944655 3.77236,-1.181699 5.71289,-0.822266 0.78912,0.145777 1.75839,0.356498 2.1543,0.46875 0.65639,0.186709 0.73604,0.178311 0.89062,-0.107422 0.0932,-0.17227 0.69756,-0.83331 1.34375,-1.466797 1.08642,-1.065033 2.05324,-1.676164 3.53516,-2.236328 0.38051,-0.144271 1.30848,-0.219125 2.23242,-0.220703 z m -11.62305,2.09375 c 0.23407,0 0.46552,0.01223 0.69532,0.02734 -0.4599,-0.03409 -0.92862,-0.03011 -1.40235,0.0039 0.23687,-0.0189 0.4727,-0.03057 0.70703,-0.03125 z m 15.90235,4.207031 c -1.72275,0.005 -3.45617,0.270122 -4.9961,0.791016 -2.98522,1.009852 -6.67454,3.789215 -8.93164,6.728516 -0.40516,0.527701 -1.04229,1.11553 -1.45898,1.345703 -1.61719,0.893745 -2.89971,2.027972 -3.9336,3.484375 -0.28354,0.399496 -0.96491,1.021048 -1.51562,1.380859 -1.00267,0.655144 -1.74103,1.50253 -2.25195,2.582031 -0.34893,0.737126 -1.71634,2.115294 -3.81836,3.84961 -1.05237,0.868267 -3.85338,3.450428 -4.74414,4.373048 -2.42967,2.51671 -3.73902,4.96439 -4.21875,7.88672 -0.46322,2.82194 0.60743,4.98794 2.98437,6.03906 2.35605,1.04209 4.52324,0.0935 5.48438,-2.40234 0.12208,-0.31677 0.26916,-0.64953 0.32812,-0.74024 0.059,-0.0906 0.20321,-0.49904 0.32227,-0.90625 0.33698,-1.15404 0.83855,-2.68051 0.99804,-3.04297 0.15791,-0.3586 0.88003,-2.57219 1.47852,-4.52734 0.77847,-2.54309 1.36357,-4.215129 1.53516,-4.386719 0.0597,-0.0601 0.11132,-0.20718 0.11132,-0.328125 0,-0.388536 1.06146,-2.520467 1.22852,-2.466797 0.0884,0.02857 0.2228,0.340415 0.29688,0.695312 0.0738,0.355087 0.25122,1.040347 0.39257,1.521485 0.23698,0.805341 0.23376,1.033363 -0.041,2.878904 -0.36813,2.46962 -0.42604,9.46749 -0.0957,11.54688 0.45699,2.87648 0.77639,4.56263 1.01563,5.34961 0.0688,0.2262 0.21864,0.74318 0.33203,1.15039 0.35562,1.28046 0.83518,2.68867 1.16211,3.41211 0.17348,0.38362 0.31445,0.76034 0.31445,0.83593 0,0.21408 1.8851,3.88771 2.2793,4.44141 0.19427,0.27141 0.35352,0.53895 0.35352,0.59375 0,0.31071 2.08701,2.86814 3.4414,4.21875 2.96701,2.9588 6.19273,4.71561 9.63867,5.25 1.57516,0.24431 1.47557,0.38748 1.52735,-2.17969 0.0352,-1.72992 -0.003,-2.28082 -0.16407,-2.32617 -0.11572,-0.0329 -0.72983,-0.15016 -1.36328,-0.25977 -2.47744,-0.4289 -3.86523,-1.22314 -3.86523,-2.21289 0,-0.36774 1.06585,-0.33786 1.61914,0.0449 0.57309,0.39662 0.88394,0.50843 2.16406,0.7832 2.24527,0.48216 5.30175,0.12059 6.60742,-0.7832 0.55325,-0.38249 1.6211,-0.41267 1.6211,-0.0449 0,0.993 -1.53119,1.85498 -3.94922,2.22461 -0.67873,0.10394 -1.32966,0.21781 -1.44531,0.24805 -0.16094,0.0452 -0.19808,0.59605 -0.16407,2.32617 l 0.0469,2.26367 1.06836,-0.0371 c 2.57696,-0.0932 5.45942,-1.1949 8.07031,-3.08398 4.19618,-3.03621 7.63276,-8.17028 9.63281,-14.39648 1.0224,-3.18305 1.38422,-4.90619 1.8711,-8.88868 0.0937,-0.76917 0.16943,-2.76918 0.16992,-4.44336 8.3e-4,-2.86442 -0.10013,-4.17476 -0.52344,-6.75781 -0.15609,-0.951834 -0.13698,-1.198912 0.15821,-2.056638 0.18459,-0.536239 0.38603,-1.412236 0.44726,-1.947266 0.13402,-1.165413 0.33584,-1.782881 0.46094,-1.412109 0.18077,0.535408 0.44336,2.666263 0.44336,3.597656 0,0.541266 0.0794,1.377337 0.17578,1.859377 0.096,0.482 0.25033,1.28356 0.3418,1.78125 1.0295,5.60972 4.39437,11.61507 7.26171,12.96289 0.90384,0.42444 2.6165,0.49256 3.6211,0.14258 2.26224,-0.78777 3.37557,-3.00244 2.92187,-5.81641 -0.5289,-3.28074 -2.04167,-6.18101 -4.83398,-9.26367 -0.28691,-0.31673 -1.54033,-1.737971 -2.78516,-3.158204 -2.20082,-2.511156 -3.99322,-4.17028 -5.31054,-4.910157 -0.41004,-0.230441 -1.005,-0.383826 -1.62696,-0.414062 -0.9645,-0.05227 -0.98039,-0.0617 -1.22265,-0.679688 -0.94791,-2.414623 -2.81228,-4.516336 -5.09961,-5.748047 -0.64396,-0.346771 -1.18328,-0.852688 -2.00196,-1.878906 -2.39667,-3.003927 -5.44416,-5.238135 -8.63476,-6.330078 -1.49768,-0.511446 -3.20886,-0.761513 -4.93164,-0.757812 z m 26.35156,3.556641 c 0.18304,0.27137 0.32222,0.510682 0.39062,0.689453 0.0227,0.05972 0.0797,0.132007 0.12696,0.201172 -0.0476,-0.06992 -0.10623,-0.141077 -0.12891,-0.201172 -0.0685,-0.178737 -0.20536,-0.418083 -0.38867,-0.689453 z m -54.80273,2.507813 c -0.0578,0.07143 -0.11336,0.147882 -0.17383,0.21289 -0.37864,0.408227 -0.75752,0.85373 -0.8418,0.988282 0.0844,-0.134438 0.46125,-0.580055 0.83984,-0.988282 0.0609,-0.06539 0.11758,-0.141457 0.17579,-0.21289 z m 56.63085,1.609375 c 0.22103,0 2.14199,1.45511 3.46876,2.626953 1.82101,1.608453 4.57676,4.470085 5.71289,5.933594 1.41513,1.822866 2.556,3.396919 2.875,3.966796 0.19574,0.349455 0.48698,0.82086 0.64648,1.046875 0.79975,1.132199 2.7013,4.867721 3.51953,6.912111 1.08457,2.70973 2.0656,5.99912 2.55078,8.55469 0.65075,3.42852 0.8428,5.50278 0.8418,9.12304 -0.002,5.12965 -0.41088,8.00016 -1.9668,13.83008 -0.0725,0.27152 -0.29458,0.93743 -0.49414,1.48047 -0.19964,0.54297 -0.42189,1.17242 -0.49219,1.39844 -0.0707,0.22624 -0.2959,0.78189 -0.5,1.23437 -0.20398,0.45249 -0.51893,1.15717 -0.69921,1.56446 -0.59902,1.35465 -1.27821,2.7032 -1.7793,3.53515 -0.27223,0.45245 -0.54422,0.93463 -0.60352,1.07031 -0.15296,0.3504 -2.28678,3.53108 -2.96679,4.42188 -2.52374,3.30629 -6.26368,6.95751 -10.09571,9.85547 -0.50611,0.38283 -1.0234,0.6934 -1.15039,0.6914 -0.12737,-0.003 -0.55798,-0.28812 -0.95703,-0.63281 l -0.72656,-0.62695 0.80859,-0.55078 c 0.82485,-0.56228 2.05692,-1.48523 2.20508,-1.65039 0.0452,-0.0503 0.24821,-0.20504 0.45117,-0.34375 0.48333,-0.32999 2.88395,-2.47712 3.83008,-3.42578 5.24288,-5.25702 9.32254,-12.24113 11.34375,-19.41993 0.11528,-0.4072 0.26759,-0.92595 0.33789,-1.15234 0.0707,-0.22624 0.2165,-0.85551 0.32422,-1.39844 0.10809,-0.543 0.2576,-1.28245 0.33398,-1.64453 0.33529,-1.58638 0.81964,-6.38137 0.82032,-8.10937 4.5e-4,-1.34873 -0.21704,-4.03371 -0.50391,-6.20508 -0.21547,-1.63094 -0.44454,-2.80819 -0.99805,-5.14258 -0.19208,-0.80999 -1.35766,-4.45107 -1.63281,-5.10156 -0.0862,-0.20361 -0.22309,-0.53652 -0.30469,-0.74024 -0.28403,-0.70832 -1.18718,-2.67809 -1.52734,-3.33203 -0.84911,-1.63094 -1.30443,-2.443754 -1.61133,-2.874998 -0.18179,-0.255345 -0.33203,-0.511225 -0.33203,-0.566406 0,-0.0548 -0.27249,-0.486758 -0.60547,-0.960938 -1.30632,-1.858885 -1.77389,-2.510851 -1.85742,-2.589844 -0.0479,-0.04528 -0.34412,-0.415059 -0.6582,-0.822265 -1.25038,-1.620926 -4.07682,-4.541085 -5.84571,-6.039063 -2.04431,-1.731212 -1.87746,-1.488761 -1.91601,-2.763672 -0.0234,-0.777297 0.0269,-1.15039 0.15429,-1.15039 z m -38.4375,1.234375 c 2.24599,0 6.63496,1.899617 5.72266,2.476562 -0.13213,0.08353 -0.78965,0.153099 -1.46094,0.154297 -1.14259,0.0024 -1.7589,0.07235 -4.45703,0.505859 -2.62957,0.422438 -5.01339,1.11675 -6.86914,2.001954 -0.56633,0.26982 -1.0712,0.558167 -1.12109,0.638671 -0.14755,0.239244 -0.56446,0.166533 -0.56446,-0.09766 0,-0.375194 1.11407,-2.032039 1.88672,-2.804687 1.72377,-1.723805 4.47239,-2.875 6.86328,-2.875 z m 20.70118,0 c 0.91249,0 2.63,0.356022 3.61914,0.75 2.03217,0.809348 4.5012,3.1303 4.86328,4.572265 0.0609,0.24 0.0791,0.431337 0.0488,0.427735 -0.0325,-0.0048 -0.42356,-0.189874 -0.8711,-0.41211 -1.47722,-0.732434 -3.7301,-1.409207 -6.17968,-1.857422 -1.8163,-0.332371 -6.26786,-0.847656 -7.32227,-0.847656 -0.74199,0 -0.65312,-0.153038 0.54688,-0.958984 1.51675,-1.018734 3.5874,-1.673828 5.29492,-1.673828 z m -41.77539,2.396484 c 0.0616,0.0384 0.0477,0.349674 -0.0312,0.689453 -0.079,0.339817 -0.1507,0.985091 -0.1543,1.4375 -0.009,0.792983 -0.0528,0.871913 -1.24609,2.140625 -2.52458,2.684221 -5.04594,6.329162 -6.94141,10.037112 -1.90247,3.72162 -3.58075,8.87499 -4.1543,12.75195 -0.10091,0.67877 -0.26552,1.71453 -0.36718,2.30273 -0.25059,1.45716 -0.23465,9.11379 0.0254,10.69336 0.54527,3.31654 0.60136,3.60963 1.01367,5.34961 0.34507,1.45629 1.38299,4.75249 1.64453,5.22266 0.0869,0.157 0.1582,0.35807 0.1582,0.44727 0,0.31623 2.0392,4.59838 2.88672,6.0625 1.76575,3.05064 4.56537,6.66432 7.23047,9.33203 1.71769,1.71927 4.83789,4.36496 5.86328,4.9707 0.64497,0.38105 0.58715,0.6896 -0.24805,1.31836 -0.39065,0.29408 -0.74137,0.53358 -0.77539,0.5332 -0.11259,-0.001 -1.80837,-1.30382 -3.27539,-2.51758 -4.31864,-3.5732 -8.54735,-8.7475 -11.18554,-13.6875 -0.24163,-0.45248 -0.52302,-0.9713 -0.62696,-1.15234 -1.12951,-1.9739 -2.99138,-6.92476 -3.63476,-9.66601 -0.76082,-3.24155 -0.9794,-4.58508 -1.33203,-8.15235 -0.29605,-2.99236 -0.1784,-6.4828 0.34375,-10.15234 0.24049,-1.68979 0.73253,-4.24269 0.96875,-5.01953 0.068,-0.22625 0.22141,-0.74514 0.33593,-1.15235 0.47819,-1.69829 1.22453,-3.86461 1.72657,-5.01562 0.11837,-0.27149 0.34567,-0.82935 0.50781,-1.23633 0.49017,-1.23179 2.19048,-4.468815 2.85156,-5.429688 0.1561,-0.226205 0.32196,-0.520565 0.37109,-0.65625 0.12265,-0.338041 2.11211,-3.10283 3.31446,-4.607422 1.16708,-1.460674 4.56832,-4.94353 4.73047,-4.84375 z m 28.54297,1.353516 0.60351,0.910156 c 0.9975,1.502362 1.35509,2.836406 1.34375,5.048828 -0.0123,2.921386 -0.71689,4.615283 -2.77344,6.67187 -1.30333,1.3033 -2.16264,1.84675 -3.875,2.45118 -0.74411,0.26267 -3.6005,0.4599 -4.52539,0.3125 -2.7431,-0.43646 -5.60628,-2.59901 -6.88672,-5.201175 -0.61742,-1.254694 -1.09375,-2.99757 -1.09375,-4.009766 0,-0.816869 0.42267,-1.615167 1.23047,-2.326171 0.78698,-0.692712 2.62143,-1.67045 3.8711,-2.0625 3.21849,-1.009701 6.15922,-1.513769 9.87695,-1.691407 z m 6.69726,0.199218 c 2.41097,0 7.26962,0.595775 9.58008,1.175782 4.02546,1.010645 6.10585,2.189896 6.47851,3.669922 0.22436,0.890948 0.012,2.610945 -0.50976,4.121093 -0.89711,2.597069 -3.30677,4.893139 -6.2207,5.925779 -0.72439,0.25625 -3.47309,0.45839 -4.27344,0.3125 -4.31085,-0.78546 -7.31327,-3.89504 -8.07617,-8.363279 -0.33181,-1.943244 0.29959,-4.55579 1.54101,-6.388672 0.2863,-0.422778 0.38358,-0.453125 1.48047,-0.453125 z m -11.45508,2.960938 c -1.07123,0 -1.85708,0.304869 -2.41211,0.933594 -0.66119,0.749518 -0.82226,1.149211 -0.82226,2.044922 0,1.491061 0.98238,2.673503 2.45508,2.955078 1.34124,0.256407 2.52354,-0.172692 3.375,-1.22461 0.45297,-0.559483 0.5039,-0.742324 0.5039,-1.734375 0,-0.960907 -0.0603,-1.189565 -0.46094,-1.714843 -0.63152,-0.827982 -1.53818,-1.259766 -2.63867,-1.259766 z m 15.04492,0 c -1.40224,0 -3.01232,1.199889 -3.24023,2.414062 -0.30202,1.609815 0.50364,2.978429 2.07227,3.517578 1.09243,0.375308 0.85698,0.357758 1.77734,0.134766 1.51589,-0.367521 2.50195,-1.554106 2.50195,-3.011719 0,-0.758551 -0.44672,-1.774411 -0.96289,-2.191406 -0.46526,-0.375761 -1.67743,-0.863281 -2.14844,-0.863281 z m 34.25196,3.626953 c 0.0786,0.131528 0.12109,0.216111 0.12109,0.253906 0,0.05526 0.14009,0.296732 0.31055,0.53711 0.11109,0.156774 0.25526,0.391309 0.42383,0.679687 -0.1697,-0.289546 -0.31429,-0.522459 -0.42579,-0.679687 -0.17045,-0.240416 -0.31054,-0.481929 -0.31054,-0.53711 0,-0.03553 -0.0405,-0.122378 -0.11914,-0.253906 z m 4.26562,8.283205 c 0.0858,0.2208 0.13477,0.37407 0.13477,0.43945 0,0.0893 0.0709,0.29042 0.1582,0.44727 0.16426,0.29499 0.95326,2.68042 1.31836,3.98632 0.11376,0.40725 0.26522,0.92633 0.33594,1.15235 0.0707,0.22617 0.2165,0.85554 0.32422,1.39844 0.10771,0.54304 0.25534,1.2844 0.33203,1.64648 -0.0767,-0.36193 -0.22822,-1.10344 -0.33594,-1.64648 -0.10809,-0.5429 -0.25155,-1.17243 -0.32226,-1.39844 -0.0703,-0.22628 -0.22218,-0.7451 -0.33594,-1.15235 -0.3651,-1.3059 -1.15395,-3.69152 -1.31836,-3.98632 -0.0873,-0.157 -0.1582,-0.35807 -0.1582,-0.44727 -10e-6,-0.0655 -0.047,-0.21873 -0.13282,-0.43945 z m -19.6289,19.01953 0.60742,0.65625 c 1.05082,1.13605 1.13761,1.30996 0.87304,1.74219 -0.12676,0.20715 -0.8317,1.02928 -1.5664,1.82812 -0.73459,0.79884 -1.53067,1.68693 -1.76953,1.97266 -0.26,0.31064 -1.17615,0.89194 -2.28321,1.44726 -1.72595,0.86578 -3.54905,2.21481 -6.21093,4.59375 -0.31749,0.28385 -0.9267,0.79669 -1.35352,1.14063 -0.42682,0.34356 -0.87105,0.71461 -0.98633,0.82422 -0.11539,0.1093 -0.61755,0.52801 -1.11523,0.93359 -0.49777,0.40554 -0.94135,0.77899 -0.98633,0.82813 -0.0452,0.0494 -1.38839,1.17581 -2.98437,2.5039 -1.59602,1.32809 -3.00343,2.50979 -3.12891,2.62696 -0.12564,0.11693 -0.63529,0.54367 -1.13086,0.94921 -0.49553,0.40547 -0.92484,0.79607 -0.95508,0.86524 -0.10484,0.242 -0.6434,0.12398 -1.11523,-0.24414 -1.36294,-1.06171 -1.45565,-1.24096 -0.84571,-1.65039 0.20361,-0.13678 0.51585,-0.38537 0.69727,-0.55469 0.181,-0.16902 1.6364,-1.3967 3.23242,-2.72656 1.59595,-1.32972 3.00336,-2.51212 3.12695,-2.62891 0.12355,-0.11694 0.57453,-0.49395 1.00196,-0.83789 0.42746,-0.34356 0.87105,-0.71304 0.98633,-0.82226 0.11535,-0.10938 0.61703,-0.53263 1.11328,-0.93946 0.49636,-0.40683 1.07508,-0.88732 1.28711,-1.06836 0.21214,-0.18096 1.58164,-1.33207 3.04492,-2.55664 2.11378,-1.76908 2.90745,-2.55117 3.85547,-3.81054 1.08045,-1.43539 1.37122,-1.70395 3.08984,-2.83399 1.04379,-0.68632 1.93953,-1.24805 1.98828,-1.24805 0.0486,0 0.4104,-0.22125 0.80664,-0.49414 z m -53.98633,0.40234 c 0.0367,0.002 0.0845,0.0183 0.14648,0.041 0.16453,0.0593 0.3892,0.17586 0.49805,0.25976 0.10923,0.082 0.27219,0.10868 0.36328,0.0527 0.16154,-0.0999 0.33381,-0.0417 1.16602,0.40625 0.22617,0.12174 0.67155,0.35298 0.98828,0.51172 0.31676,0.15878 0.79894,0.48662 1.07031,0.72851 0.27148,0.24201 1.78747,1.52258 3.37109,2.84375 1.58366,1.32114 2.91754,2.44073 2.96289,2.49024 0.0453,0.0494 0.48864,0.42059 0.98633,0.82617 0.49773,0.40558 1.00532,0.83363 1.12891,0.95117 0.12336,0.11732 1.53097,1.30082 3.12695,2.62891 1.59599,1.32805 2.93745,2.45635 2.98242,2.50586 0.0453,0.0493 0.49056,0.41867 0.98828,0.82422 0.49773,0.40557 0.99996,0.82865 1.11524,0.9375 0.11539,0.1093 0.55886,0.48066 0.98633,0.82421 0.42746,0.3436 0.87836,0.72073 1.00195,0.8379 0.12355,0.11693 1.5291,1.29694 3.125,2.625 1.5961,1.32808 2.9394,2.45634 2.98438,2.50585 0.0452,0.0494 0.49051,0.42255 0.98828,0.82813 0.49772,0.40562 1.00727,0.83363 1.13086,0.95117 0.2304,0.21921 1.12915,0.16401 2.31445,-0.14062 0.39099,-0.10016 0.64387,-0.0833 0.82227,0.0547 0.33494,0.25894 2.20749,1.82204 2.31445,1.93164 0.0453,0.0465 0.49063,0.41627 0.98828,0.82227 0.4978,0.40596 1.04729,0.86898 1.22266,1.02734 0.36616,0.33109 0.28198,0.31748 1.90234,0.29102 l 1.23437,-0.0234 0.9043,0.76563 c 0.49769,0.42138 1.09121,0.92411 1.31836,1.11914 0.22715,0.19442 0.81963,0.68692 1.31641,1.09375 0.49685,0.40675 0.998,0.82827 1.11328,0.9375 0.11539,0.1093 0.55875,0.47833 0.98633,0.82226 0.42765,0.34337 0.81635,0.66773 0.86132,0.71875 0.0453,0.051 1.89618,1.60359 4.11329,3.45117 2.21714,1.84752 4.06635,3.39848 4.11132,3.44727 0.0453,0.0484 0.4906,0.42064 0.98829,0.82617 0.49772,0.40558 0.998,0.82632 1.11328,0.93555 0.11539,0.1093 0.5607,0.47871 0.98828,0.82227 1.06095,0.85224 1.09405,0.90944 1.33594,2.21874 0.19804,1.07158 0.19135,1.17478 -0.10157,1.50586 -0.17284,0.19586 -1.22198,1.44843 -2.33203,2.78321 l -2.01758,2.42969 h -1.2832 -1.2832 l -2.77539,-2.31836 c -1.52708,-1.2743 -2.96231,-2.47805 -3.18946,-2.67383 -0.22707,-0.19616 -0.81962,-0.6908 -1.3164,-1.09766 -0.49686,-0.40679 -0.99801,-0.82827 -1.11328,-0.9375 -0.11539,-0.1093 -0.55875,-0.47833 -0.98633,-0.82226 -0.42762,-0.34375 -0.81402,-0.66697 -0.85938,-0.71875 -0.0453,-0.052 -1.97163,-1.66737 -4.27929,-3.5879 -4.52266,-3.76388 -4.57876,-3.83292 -4.59766,-5.42187 -0.006,-0.48155 -0.10184,-0.96335 -0.21484,-1.07031 -0.11309,-0.10704 -0.61162,-0.52718 -1.10938,-0.9336 -0.49769,-0.40637 -0.99996,-0.82827 -1.11523,-0.9375 -0.11535,-0.1093 -0.55827,-0.47832 -0.98438,-0.82226 -1.9324,-1.55804 -1.84961,-1.42714 -1.84961,-2.93555 v -1.35351 l -0.7832,-0.63282 c -0.42985,-0.34839 -0.87496,-0.72362 -0.99024,-0.83398 -0.11538,-0.11078 -0.55882,-0.48224 -0.98632,-0.82617 -0.42747,-0.34352 -0.87799,-0.72111 -1.00196,-0.83789 -0.12351,-0.11702 -1.53093,-1.29887 -3.12695,-2.62696 -1.59602,-1.32805 -2.93902,-2.45634 -2.98438,-2.50586 -0.0452,-0.0494 -0.49055,-0.42059 -0.98828,-0.82617 -0.49768,-0.40554 -0.998,-0.82632 -1.11328,-0.93555 -0.11535,-0.10926 -0.56074,-0.48028 -0.98828,-0.82421 -0.42743,-0.3436 -0.87641,-0.72111 -1,-0.83789 -0.12355,-0.11698 -1.53097,-1.29692 -3.12695,-2.625 -1.59595,-1.32805 -2.9394,-2.45635 -2.98438,-2.50586 -0.0452,-0.0493 -0.49051,-0.42146 -0.98828,-0.82618 -0.49776,-0.40471 -0.94097,-0.7771 -0.98633,-0.82812 -0.0452,-0.0512 -1.44114,-1.22993 -3.10156,-2.62109 -1.66042,-1.39117 -3.06238,-2.64853 -3.11719,-2.79102 -0.054,-0.1426 -0.22224,-0.39179 -0.37304,-0.55469 -0.30418,-0.32757 -0.89797,-1.47522 -1.0586,-2.04687 -0.0639,-0.22904 -0.0627,-0.31408 0.0469,-0.30274 z m -20.656252,0.69922 h 0.002 c 0.01323,0.29894 0.03789,0.50941 0.05664,0.76758 0.01942,0.25817 0.0327,0.5652 0.05859,0.76758 0.08655,0.67873 0.238489,1.93722 0.33789,2.79687 0.0601,0.51867 0.124952,0.99312 0.193362,1.45899 -0.0684,-0.46647 -0.13522,-0.93968 -0.195315,-1.45899 -0.0994,-0.85965 -0.250961,-2.11814 -0.337891,-2.79687 -0.02589,-0.2024 -0.03788,-0.50941 -0.05664,-0.76758 -0.01942,-0.25817 -0.04612,-0.46862 -0.05859,-0.76758 z m 19.564452,0.58594 c 0.18848,0.0249 0.46875,0.18784 0.46875,0.31445 0,0.0836 0.32755,0.64258 0.72852,1.24024 0.55884,0.83308 1.39517,1.64002 3.58008,3.46289 1.56737,1.30771 3.2425,2.71591 3.72265,3.1289 0.48011,0.41307 1.07067,0.90553 1.31445,1.09375 0.24386,0.188 0.54438,0.43797 0.66797,0.55664 0.1234,0.11891 1.53097,1.30473 3.12696,2.63282 1.59602,1.32809 2.93744,2.45439 2.98242,2.5039 0.0452,0.0494 0.49055,0.42059 0.98828,0.82618 0.49773,0.40561 0.99996,0.82631 1.11523,0.93554 0.11543,0.10934 0.55891,0.48066 0.98633,0.82422 0.42751,0.34364 0.87748,0.71827 0.99805,0.83203 0.12049,0.11395 1.08263,0.92711 2.13867,1.80664 1.05615,0.87942 1.97286,1.67378 2.03711,1.76563 0.18316,0.26249 -0.0374,0.36596 -1.19922,0.5625 -1.24626,0.21052 -1.20537,0.21208 -2.61914,-0.0566 -2.80282,-0.53261 -5.10802,-2.26323 -6.29102,-4.72461 l -0.53906,-1.1211 -0.74023,0.11914 c -0.95218,0.1561 -2.93685,0.10248 -3.36719,-0.0918 -0.18323,-0.0828 -0.55272,-0.25185 -0.82031,-0.37696 -0.86185,-0.40361 -2.49718,-2.07351 -2.96289,-3.02539 -0.65224,-1.33307 -0.77995,-1.82567 -0.89258,-3.43359 l -0.0996,-1.45898 -0.66016,-0.25586 c -0.63084,-0.24514 -1.95665,-1.06251 -2.30664,-1.42383 -0.75515,-0.77979 -1.60774,-2.24394 -2.02148,-3.46485 -0.20791,-0.61338 -0.57949,-3.04355 -0.48047,-3.14257 0.0287,-0.0305 0.0814,-0.0369 0.14453,-0.0293 z m 78.08594,0.13672 c -0.0272,0.8135 -0.0663,1.49456 -0.12109,1.91601 -0.2586,1.99586 -0.41195,3.13546 -0.54688,3.97266 0.13508,-0.83724 0.28602,-1.97586 0.54492,-3.97266 0.0552,-0.42145 0.0966,-1.10247 0.12305,-1.91601 z m -20.17383,0.8125 c 0.22383,0 0.1742,0.26958 -0.19922,1.06445 -0.42811,0.91083 -1.44968,2.08621 -2.34765,2.70117 -0.66407,0.45453 -1.42188,0.78229 -1.42188,0.61524 0,-0.22224 3.76692,-4.38086 3.96875,-4.38086 z m -6.04492,5.88086 c 0.0877,0.017 0.15468,0.0576 0.20117,0.12109 0.51896,0.71002 0.80714,2.14091 0.80664,4.0332 -5.7e-4,1.94767 -0.0599,2.20796 -0.87305,3.94336 -1.03336,2.20524 -3.39876,3.78907 -5.6582,3.78907 -1.10664,0 -2.03115,-0.31634 -3.30273,-1.13086 -0.34187,-0.21846 -0.63956,-0.36605 -0.66602,-0.33203 -0.0251,0.0358 -0.29618,0.56908 -0.60156,1.18359 -0.72824,1.46653 -2.30139,3.04465 -3.70703,3.72266 -1.22929,0.59312 -1.64262,0.62186 -2.26953,0.15429 -0.40343,-0.30123 -0.54784,-0.32223 -1.1543,-0.16992 -1.17365,0.29556 -1.68295,0.34259 -1.93164,0.17969 -0.2993,-0.19548 -0.42486,-0.0788 4.63672,-4.29883 1.59598,-1.33058 3.00336,-2.51565 3.12695,-2.63281 0.12359,-0.11694 0.57449,-0.49238 1.00195,-0.83594 0.42754,-0.34356 0.87106,-0.71499 0.98633,-0.82422 0.11535,-0.1093 0.61548,-0.52996 1.11328,-0.93555 0.49769,-0.40558 0.94293,-0.77899 0.98828,-0.82812 0.0452,-0.0494 1.20715,-1.02406 2.58204,-2.16797 2.49116,-2.07262 4.10724,-3.089 4.7207,-2.9707 z m 25.34961,0.29492 c -0.0699,0.33728 -0.14698,0.66945 -0.24219,1.06445 -0.0767,0.31673 -0.22583,0.94592 -0.33203,1.39844 -0.70829,3.00627 -1.95891,6.29587 -3.72266,9.78906 -0.7352,1.45603 -1.16992,2.29771 -1.59961,3.03906 0.42969,-0.74146 0.8625,-1.58499 1.59766,-3.04101 1.76375,-3.49315 3.01437,-6.78084 3.72266,-9.78711 0.1062,-0.45252 0.25534,-1.08171 0.33203,-1.39844 0.0952,-0.395 0.17384,-0.72694 0.24414,-1.06445 z m -95.47071,1.49023 c 0.14185,0.59226 0.30605,1.23426 0.49805,1.95899 0.20406,0.77053 1.07104,3.47186 1.26758,3.94922 0.75972,1.84452 1.29136,3.0939 1.75586,4.0957 -0.46477,-1.00173 -0.99813,-2.25118 -1.75781,-4.0957 -0.19669,-0.47736 -1.06349,-3.17869 -1.26758,-3.94922 -0.19177,-0.72473 -0.35474,-1.36662 -0.4961,-1.95899 z m 4.1875,11.36328 c 0.21899,0.4204 0.44341,0.82326 0.68946,1.25 0.19555,0.33922 0.50419,0.88156 0.6875,1.20508 0.51167,0.90327 2.26655,3.48428 3.17969,4.67774 0.3338,0.43627 0.67137,0.8634 1.01757,1.28515 -0.3462,-0.42179 -0.6858,-0.84888 -1.01953,-1.28515 -0.91313,-1.19346 -2.66606,-3.77447 -3.17773,-4.67774 -0.18342,-0.32371 -0.49405,-0.86567 -0.68946,-1.20508 -0.24604,-0.42674 -0.46828,-0.82964 -0.6875,-1.25 z m 40.07618,3.01758 c 0.13114,0 0.62681,0.35141 1.10156,0.78125 l 0.86328,0.78321 -1.08398,0.95507 -1.08204,0.95704 v 1.36328 1.36328 l -0.94531,0.75195 c -0.52036,0.41394 -1.13222,0.92696 -1.35937,1.13672 -0.22708,0.21033 -0.78042,0.67616 -1.22852,1.03711 -1.6919,1.36331 -1.73437,1.42655 -1.73437,2.69141 v 1.13867 l -0.7793,0.63086 c -0.42985,0.34714 -0.8183,0.67362 -0.86328,0.72461 -0.0453,0.0512 -1.38832,1.17976 -2.98438,2.50781 -1.59594,1.32809 -3.00374,2.51136 -3.12695,2.62891 -0.12348,0.11738 -0.63118,0.54367 -1.12891,0.94921 -0.49772,0.40558 -0.9433,0.77862 -0.98828,0.82813 -0.0452,0.0494 -1.38839,1.17586 -2.98437,2.5039 -1.59606,1.3281 -3.00179,2.51137 -3.125,2.62891 -0.1234,0.11731 -0.63314,0.54484 -1.13086,0.95117 -0.49769,0.40645 -1.12512,0.94272 -1.39649,1.19141 v 0.002 c -0.45501,0.41511 -0.5972,0.44935 -1.81054,0.44141 l -1.31641,-0.0117 -2.2207,-2.70898 c -2.40295,-2.93211 -2.39214,-2.90455 -2.07617,-4.56055 0.14188,-0.744 0.40336,-1.02214 2.92578,-3.11914 1.05604,-0.87802 2.0181,-1.69093 2.13867,-1.80469 0.12045,-0.11388 0.56867,-0.48809 0.99609,-0.83203 0.42751,-0.3436 0.87301,-0.71304 0.98828,-0.82227 0.11536,-0.10933 1.57782,-1.34268 3.25196,-2.74023 1.67418,-1.39756 3.0816,-2.58374 3.12695,-2.63477 0.0452,-0.0512 0.49052,-0.42146 0.98828,-0.82617 0.49761,-0.40467 0.94098,-0.7754 0.98633,-0.82226 0.0453,-0.0467 0.75004,-0.63685 1.56445,-1.31055 0.81445,-0.67366 1.64508,-1.36924 1.84766,-1.54688 0.34371,-0.3016 0.44553,-0.31265 1.52734,-0.11914 1.20654,0.21563 1.44771,0.15919 2.1543,-0.51171 0.12585,-0.11951 1.14455,-0.9841 2.26367,-1.92188 l 2.03516,-1.70508 0.84375,0.0977 c 0.46458,0.0529 1.08246,0.14334 1.375,0.20117 0.4577,0.0904 0.64399,0.0123 1.33984,-0.57031 0.44432,-0.37179 0.91535,-0.67774 1.04688,-0.67774 z m 44.63086,0.52149 c -0.25066,0.38574 -0.53712,0.81179 -0.89844,1.34179 -0.83205,1.22026 -1.67998,2.36683 -2.5586,3.45508 0.87822,-1.08833 1.72476,-2.23501 2.55665,-3.45508 0.36139,-0.53 0.64943,-0.95602 0.90039,-1.34179 z m -27.7168,5.2539 c -0.36212,0.003 -0.65243,0.21035 -0.79492,0.61914 -0.27319,0.78384 -0.39816,0.64756 3.75195,4.10938 1.58366,1.32102 2.91791,2.44072 2.96289,2.49023 0.0453,0.0494 0.48669,0.42251 0.98438,0.82813 0.49776,0.40558 1.00191,0.82827 1.11718,0.9375 0.11535,0.10931 0.55883,0.48028 0.98633,0.82422 0.42751,0.34356 0.87836,0.71719 1.00195,0.83398 0.6149,0.58212 5.90656,4.94024 6.1836,5.0918 v 0.002 c 0.63375,0.34786 1.24219,-0.11015 1.24219,-0.93359 0,-0.58628 -0.0989,-0.69215 -2.66016,-2.81836 -1.46351,-1.21496 -2.74038,-2.28391 -2.83789,-2.375 -0.0975,-0.0909 -0.58626,-0.49589 -1.08398,-0.90235 -0.49773,-0.40645 -0.99801,-0.83022 -1.11329,-0.93945 -0.11535,-0.10931 -0.55878,-0.47833 -0.98632,-0.82226 -0.42743,-0.3436 -0.87837,-0.72073 -1.00196,-0.83789 -0.12348,-0.11691 -1.53093,-1.29961 -3.12695,-2.62891 -1.59594,-1.32926 -3.12316,-2.62448 -3.39453,-2.87695 -0.43321,-0.40415 -0.86839,-0.60496 -1.23047,-0.60157 z m -29.32422,0.8086 c -0.56228,0.0168 -1.33616,0.5152 -2.27148,1.47656 -0.0452,0.0465 -0.43176,0.36543 -0.85938,0.70898 -0.42761,0.34364 -0.87105,0.71499 -0.98633,0.82422 -0.11527,0.10934 -0.61751,0.52993 -1.11523,0.93555 -0.49776,0.40551 -0.94331,0.77666 -0.98828,0.82617 -0.0452,0.0494 -1.38839,1.17781 -2.98438,2.50586 -1.59601,1.32808 -3.00141,2.50979 -3.125,2.62695 -0.12355,0.11694 -0.57437,0.492 -1.00195,0.83594 -0.42747,0.34356 -0.87105,0.71537 -0.98633,0.82422 -0.11535,0.10889 -0.85176,0.73802 -1.63476,1.39648 -1.76179,1.4814 -1.85897,1.66155 -1.2793,2.39844 0.18754,0.23853 0.5035,0.43555 0.70117,0.43555 0.30872,0 3.30875,-2.34996 5.54102,-4.33984 0.31751,-0.28302 0.92669,-0.79669 1.35351,-1.14063 0.42682,-0.34359 0.87105,-0.71461 0.98633,-0.82422 0.11535,-0.1098 2.02312,-1.71331 4.24023,-3.56445 5.85838,-4.89162 5.60195,-4.62263 5.1836,-5.43164 -0.17526,-0.3391 -0.43593,-0.50548 -0.77344,-0.49414 z m 28.12305,2.4707 c -0.28286,0.007 -0.53777,0.14471 -0.70899,0.40625 -0.40217,0.61376 -0.18479,1.11262 0.87696,2.00391 0.5204,0.43683 0.98432,0.83607 1.02929,0.88672 0.0452,0.051 1.89614,1.60459 4.11328,3.45312 2.21715,1.84846 4.12496,3.45094 4.24024,3.56055 0.11539,0.1098 0.5607,0.48028 0.98828,0.82422 0.42762,0.3437 0.81207,0.66533 0.85742,0.71484 0.12764,0.13996 3.09673,2.62585 4.18164,3.50195 1.10396,0.89148 1.66163,0.96366 2.05274,0.26367 0.35327,-0.63246 0.12381,-1.13558 -0.89844,-1.96484 -0.50193,-0.40726 -1.03714,-0.84869 -1.18945,-0.98437 -0.15224,-0.13578 -0.68396,-0.58145 -1.18164,-0.98829 -0.49777,-0.40681 -0.99996,-0.83022 -1.11524,-0.93945 -0.11535,-0.10931 -0.56078,-0.47833 -0.98828,-0.82226 -0.42746,-0.34356 -0.87798,-0.71915 -1.00195,-0.83594 -0.12355,-0.11694 -1.53098,-1.30086 -3.12696,-2.62891 -1.59602,-1.32808 -2.93939,-2.45439 -2.98437,-2.5039 -0.0452,-0.0494 -0.4886,-0.42059 -0.98633,-0.82618 -0.49773,-0.40561 -0.99996,-0.82827 -1.11523,-0.9375 -0.11536,-0.10934 -0.55756,-0.48028 -0.98438,-0.82421 -0.42675,-0.34364 -0.96148,-0.78848 -1.1875,-0.99219 -0.27787,-0.25021 -0.58838,-0.37475 -0.87109,-0.36719 z m -26.71289,0.81641 c -0.48745,0.0314 -1.19446,0.51565 -2.36524,1.53711 -0.22624,0.1974 -1.71655,1.44669 -3.3125,2.77734 -1.59598,1.33063 -3.00298,2.51407 -3.12695,2.63086 -0.12355,0.11698 -0.57453,0.49395 -1.00195,0.83789 -0.42751,0.34359 -0.87106,0.71499 -0.98633,0.82422 -0.11539,0.10926 -0.61755,0.52997 -1.11524,0.93555 -0.49772,0.40555 -0.94097,0.77542 -0.98632,0.82421 -0.0453,0.0483 -1.16735,0.99361 -2.49219,2.09961 -1.32484,1.10601 -2.45465,2.13392 -2.51172,2.28321 -0.13557,0.35315 0.0456,0.91008 0.37891,1.16406 0.54224,0.41302 1.30893,0.10321 2.32226,-0.94141 0.0452,-0.0466 0.48669,-0.41552 0.98438,-0.82031 0.49772,-0.40472 0.94292,-0.77666 0.98828,-0.82617 0.0453,-0.0494 1.38835,-1.17782 2.98437,-2.50586 1.59595,-1.32805 3.00337,-2.50821 3.12696,-2.625 0.12355,-0.11698 0.57445,-0.49395 1.00195,-0.83789 0.42746,-0.34364 0.87105,-0.71543 0.98633,-0.82617 0.11535,-0.11112 1.48862,-1.26573 3.05078,-2.56446 1.77384,-1.47465 2.87627,-2.50899 2.9375,-2.7539 0.0586,-0.2355 -0.009,-0.55398 -0.16992,-0.80078 -0.18724,-0.286 -0.40083,-0.43101 -0.69336,-0.41211 z m 23.68359,1.05859 c -0.10356,0.01 -0.2051,0.0453 -0.31055,0.10156 -0.4529,0.24238 -0.65338,0.78683 -0.49804,1.35157 0.056,0.20364 0.48089,0.66526 0.94336,1.02734 0.4625,0.36196 0.99707,0.79747 1.18945,0.9668 0.19264,0.16929 1.64673,1.388 3.23047,2.70898 1.58358,1.32099 2.91596,2.44114 2.96094,2.49024 0.0453,0.0494 0.49059,0.42258 0.98828,0.82812 0.49772,0.40558 1.00764,0.83401 1.13086,0.95117 0.12339,0.11735 1.52902,1.2989 3.125,2.62695 1.59598,1.3281 2.93902,2.46243 2.98437,2.51954 0.0457,0.0571 0.19206,0.14781 0.32813,0.19922 0.73099,0.27829 1.3164,-0.15036 1.3164,-0.96485 0,-0.4893 -0.18232,-0.69748 -1.93164,-2.1543 -1.06329,-0.88558 -1.97065,-1.64847 -2.01562,-1.69726 -0.0452,-0.0485 -0.49048,-0.4206 -0.98828,-0.82617 -0.49761,-0.40555 -0.99996,-0.82632 -1.11524,-0.93555 -0.11539,-0.10931 -0.55882,-0.47833 -0.98633,-0.82227 -0.4275,-0.3436 -0.88031,-0.7211 -1.0039,-0.83789 -0.12352,-0.11701 -1.52902,-1.30081 -3.125,-2.6289 -1.59598,-1.32805 -2.93902,-2.4544 -2.98438,-2.50391 -0.0452,-0.0493 -0.48863,-0.42059 -0.98633,-0.82617 -0.49768,-0.40554 -1.00928,-0.83527 -1.13476,-0.95508 -0.48174,-0.4583 -0.80689,-0.64938 -1.11719,-0.61914 z m -21.05664,0.73242 c -0.15084,0.0154 -3.33865,2.5917 -3.67578,2.97071 -0.0452,0.0508 -0.43184,0.37488 -0.85938,0.71875 -0.42765,0.3436 -0.87105,0.71461 -0.98632,0.82421 -0.11539,0.10927 -0.61759,0.52798 -1.11524,0.9336 -0.49776,0.40554 -0.9433,0.77817 -0.98828,0.82617 -0.0453,0.0478 -1.45086,1.2282 -3.125,2.625 -1.67414,1.39669 -3.08198,2.58183 -3.12695,2.63281 -0.0452,0.0511 -0.48857,0.42465 -0.98633,0.83008 -1.82219,1.48434 -2.30469,2.00354 -2.30469,2.48438 0,0.28625 0.1362,0.55263 0.36524,0.71289 v 0.002 c 0.46998,0.32768 0.78085,0.32233 1.28515,-0.0254 0.36919,-0.25444 3.41946,-2.78728 3.61524,-3.00195 0.0453,-0.0496 0.43176,-0.37091 0.85937,-0.71485 0.42762,-0.34355 0.87105,-0.71499 0.98633,-0.82422 0.11539,-0.10935 0.61751,-0.52992 1.11523,-0.93554 0.49773,-0.40558 0.94331,-0.77862 0.98828,-0.82813 0.0453,-0.0494 1.38645,-1.17585 2.98243,-2.5039 1.59598,-1.32813 3.00374,-2.51219 3.12695,-2.63086 0.12344,-0.11894 0.44007,-0.3826 0.70312,-0.58594 1.61957,-1.25137 2.40235,-2.06315 2.40235,-2.4961 0,-0.63643 -0.55899,-1.08548 -1.26172,-1.01367 z m 39.83398,2.78516 c 0,0 0.002,0 0.002,0 -0.14141,0.1359 -0.23102,0.24381 -0.23242,0.29297 -10e-4,0.0472 0.019,0.10294 0.0723,0.17773 -0.0518,-0.0748 -0.0752,-0.13083 -0.0742,-0.17773 10e-4,-0.0491 0.0906,-0.15709 0.23242,-0.29297 z m -40.86718,3.35937 c 0.0692,-0.008 0.13484,-0.003 0.19531,0.0117 0.35157,0.0818 1.82979,0.45016 3.08398,0.76953 0.31677,0.0801 1.13179,0.22961 1.81055,0.33203 0.67861,0.10243 1.64098,0.25269 2.13867,0.33399 1.62251,0.26612 6.4219,0.36085 8.80274,0.17187 2.8377,-0.22479 4.5285,-0.47256 6.83008,-1.00195 1.87215,-0.43037 2.05459,-0.41595 2.86718,0.25 0.41315,0.33869 0.75196,0.70119 0.75196,0.80664 0,0.20916 -1.42403,0.64096 -3.61914,1.09571 -0.49777,0.10355 -1.20043,0.24906 -1.5625,0.32617 -0.80104,0.17019 -2.74659,0.43086 -4.88282,0.65234 -2.81193,0.29117 -7.05909,0.15018 -10.41992,-0.34375 -1.99446,-0.29322 -5.04177,-0.93171 -6.16992,-1.29492 -0.22624,-0.0729 -0.72654,-0.22848 -1.11133,-0.34375 -0.38476,-0.11565 -0.69922,-0.24482 -0.69922,-0.28711 0,-0.0924 0.53415,-0.56924 1.27539,-1.14063 0.26219,-0.2022 0.50225,-0.31521 0.70899,-0.33789 z m 46.16601,2.06836 c 0.0703,0.15267 0.11417,0.30649 0.14063,0.47657 0.054,0.34586 0.16735,0.89377 0.2539,1.2207 0.0775,0.29187 0.13258,0.51851 0.13282,0.73828 -7.6e-4,-0.21977 -0.0575,-0.44641 -0.13477,-0.73828 -0.0869,-0.32719 -0.19948,-0.87488 -0.25391,-1.2207 -0.0264,-0.1693 -0.0691,-0.32425 -0.13867,-0.47657 z m -68.58398,0.24414 c 0,0 0.002,0 0.002,0 -0.13659,0.11123 -0.33848,0.64652 -0.44922,1.18946 -0.11112,0.543 -0.27528,1.2694 -0.36523,1.61523 0.09,-0.34582 0.25254,-1.07223 0.36328,-1.61523 0.11123,-0.54294 0.31278,-1.07834 0.44922,-1.18946 z m 37.05859,3.19532 c -1.30699,0.0658 -2.57499,0.0704 -3.77344,0.0156 1.19853,0.0529 2.46633,0.0487 3.77344,-0.0156 z m -37.8789,0.41211 c 0.0181,0.0344 0.0341,0.0656 0.0605,0.0996 0.29798,0.37673 4.34391,5.21624 4.77735,5.71484 0,0 -0.002,0 -0.002,0 -0.43343,-0.4986 -4.47951,-5.33803 -4.77734,-5.71484 -0.025,-0.0321 -0.0397,-0.0656 -0.0586,-0.0996 z m 69.0332,0.3125 c -0.34171,0.43691 -0.79967,0.98852 -1.40625,1.71484 -1.28262,1.53575 -2.48599,2.9306 -2.67383,3.09766 0,0 -0.002,0 -0.002,0 0.18788,-0.1671 1.39117,-1.56192 2.67383,-3.09766 0.60726,-0.72719 1.06653,-1.2777 1.4082,-1.71484 z"
       transform="scale(0.26458333)" />
  </g>
  <g
     inkscape:label="F.Mask"
     inkscape:groupmode="layer"
     id="g4710"
     style="display:none">
    <path
       id="path3949"
       style="display:inline;fill:#000000;stroke-width:0.999993"
       d="m 37.949888,18.567441 c -0.244639,3.89e-4 -0.48993,0.0202 -0.59068,0.0584 -0.39209,0.14821 -0.64818,0.30991 -0.935629,0.5917 -0.170971,0.16761 -0.330861,0.34216 -0.355511,0.38774 -0.0409,0.0756 -0.062,0.078 -0.23567,0.0286 -0.10475,-0.0297 -0.36125,-0.0853 -0.570039,-0.12387 -0.513431,-0.0951 -0.950261,-0.0324 -1.511701,0.21754 -0.76261,0.33946 -1.41345,1.0875 -1.6789,1.93017 -0.0463,0.14685 -0.14672,0.304 -0.30213,0.472341 -0.418829,0.453619 -0.672929,1.111119 -0.674789,1.74586 -9.53e-4,0.347849 0.122549,0.888149 0.257839,1.128999 0.10361,0.184471 0.0659,0.285531 -0.10677,0.285531 -0.26669,0 -0.90114,0.363339 -1.2584,0.720609 -0.33313,0.333121 -0.62986,0.829621 -0.75334,1.260421 -0.127609,0.44519 -0.14403,0.56711 -0.14403,1.08015 0,0.57064 0.0539,0.87581 0.22762,1.29215 0.11386,0.27292 0.14989,0.34128 0.29962,0.56601 0.51444,0.77204 1.352031,1.25579 2.18296,1.26092 0.13768,9.79e-4 0.25027,0.0125 0.25027,0.0257 0,0.0132 -0.0798,0.14149 -0.177249,0.28502 -0.0975,0.14354 -0.18743,0.32435 -0.199921,0.40134 -0.0212,0.1302 -0.011,0.14418 0.14453,0.19991 0.15697,0.0562 0.32779,0.13 0.79865,0.34495 0.10775,0.0492 0.244801,0.13458 0.30466,0.18985 0.0598,0.0553 0.47101,0.4031 0.91397,0.77297 0.44295,0.36986 0.815411,0.6834 0.82737,0.69693 0.0119,0.0136 0.12965,0.11248 0.26135,0.21956 0.13168,0.10708 0.24886,0.20497 0.26084,0.21804 0.0119,0.013 0.36733,0.3113 0.7896,0.66269 0.42227,0.35139 0.794661,0.6645 0.82735,0.69544 0.0327,0.031 0.15177,0.13065 0.264881,0.22156 0.113109,0.091 0.230829,0.18863 0.261349,0.21754 0.0305,0.0289 0.16313,0.14062 0.29459,0.24826 0.13145,0.10764 0.287871,0.2382 0.347961,0.29005 0.476409,0.41097 1.11486,0.92909 1.145119,0.92909 0.0203,0 0.137531,-0.0836 0.26084,-0.18531 0.12333,-0.10172 0.25181,-0.2103 0.28502,-0.24121 0.0332,-0.0309 0.405591,-0.34405 0.82786,-0.69543 0.422281,-0.35139 0.77762,-0.64911 0.78959,-0.66219 0.012,-0.0131 0.129661,-0.11174 0.261351,-0.21905 0.131709,-0.10732 0.26459,-0.21884 0.295099,-0.24775 0.0305,-0.0289 0.14771,-0.12715 0.26084,-0.21805 0.11314,-0.091 0.21565,-0.17648 0.22761,-0.19035 0.0119,-0.0138 0.345181,-0.29396 0.74024,-0.62241 0.70977,-0.59006 0.856381,-0.73959 1.196981,-1.21963 0.13097,-0.18459 0.27663,-0.31158 0.587659,-0.51264 0.22747,-0.14702 0.602681,-0.39009 0.83341,-0.54033 l 0.419471,-0.27343 0.0927,0.0861 c 0.0509,0.0475 0.221199,0.24222 0.378679,0.43256 0.157461,0.19036 0.304041,0.33522 0.3258,0.32178 0.0554,-0.0343 0.0498,-0.58543 -0.008,-0.76391 -0.089,-0.27469 -0.219869,-0.53889 -0.347469,-0.70046 -0.0698,-0.0883 -0.12689,-0.1816 -0.12689,-0.20696 0,-0.0252 0.0771,-0.0458 0.171719,-0.0458 0.339101,0 0.94365,-0.16649 1.355601,-0.37314 1.105771,-0.55474 1.828822,-1.92074 1.651691,-3.12061 -0.1885,-1.27687 -0.932112,-2.1704 -2.176411,-2.616021 -0.263931,-0.0945 -0.285241,-0.11256 -0.34948,-0.29307 -0.16222,-0.45589 -0.42833,-0.889449 -0.745771,-1.21561 l -0.19035,-0.19589 0.0151,-0.58918 c 0.0178,-0.67786 -0.0144,-0.84872 -0.25883,-1.3697 -0.10677,-0.2276 -0.40855,-0.64848 -0.54788,-0.76391 -0.39404,-0.32642 -0.77916,-0.50244 -1.24079,-0.56702 -0.33144,-0.0464 -0.37247,-0.0627 -0.41897,-0.16567 -0.0971,-0.21513 -0.47918,-0.68003 -0.69089,-0.84045 -0.51935,-0.39352 -0.93483,-0.53521 -1.55955,-0.53227 -0.57445,0.003 -1.00083,0.14479 -1.43919,0.4794 -0.23865,0.18216 -0.31132,0.18417 -0.47134,0.0146 -0.20878,-0.22121 -0.60363,-0.46674 -0.98447,-0.61284 -0.0985,-0.0378 -0.342509,-0.0568 -0.587158,-0.0564 z m 1.13202,1.66726 c 0.45582,-9.79e-4 0.90849,0.0656 1.304751,0.20092 0.844179,0.28891 1.65056,0.880071 2.28468,1.67486 0.216609,0.27152 0.35936,0.40528 0.52974,0.49703 0.605189,0.32589 1.09826,0.881891 1.349059,1.52076 0.0641,0.16351 0.0686,0.16595 0.323791,0.17978 0.16456,0.008 0.32156,0.0488 0.430049,0.109771 0.348541,0.195759 0.823151,0.6348 1.405451,1.29921 0.32936,0.37577 0.66082,0.75162 0.73673,0.83542 0.7388,0.81562 1.13911,1.58282 1.27905,2.45085 0.12004,0.74453 -0.17443,1.33047 -0.772981,1.5389 -0.265799,0.0926 -0.719139,0.0746 -0.958279,-0.0377 -0.758651,-0.35661 -1.64872,-1.94556 -1.921111,-3.4298 -0.0242,-0.13168 -0.0652,-0.34381 -0.0906,-0.47134 -0.0255,-0.12754 -0.0464,-0.34877 -0.0464,-0.49198 0,-0.246431 -0.0695,-0.81008 -0.11733,-0.95174 -0.0331,-0.0981 -0.0864,0.0653 -0.121859,0.373649 -0.0162,0.14156 -0.0695,0.373271 -0.11834,0.515151 -0.0781,0.22694 -0.0831,0.29251 -0.0418,0.54435 0.112001,0.68343 0.138711,1.03028 0.13849,1.78816 -1.29e-4,0.44296 -0.0205,0.97182 -0.0453,1.17533 -0.12882,1.0537 -0.224491,1.50947 -0.495001,2.35165 -0.52918,1.64735 -1.43831,3.00615 -2.54855,3.80948 -0.690799,0.49982 -1.4533,0.79112 -2.13512,0.81578 l -0.283,0.01 -0.0121,-0.59924 c -0.009,-0.45776 8.2e-4,-0.6034 0.0434,-0.61536 0.0306,-0.008 0.20262,-0.038 0.3822,-0.0655 0.63977,-0.0978 1.0449,-0.32594 1.0449,-0.58867 0,-0.0973 -0.28266,-0.0896 -0.42904,0.0116 -0.34546,0.23913 -1.15382,0.335051 -1.74788,0.20748 -0.3387,-0.0727 -0.42093,-0.102539 -0.57256,-0.20748 -0.14639,-0.10128 -0.42852,-0.1089 -0.42852,-0.0116 0,0.26187 0.36725,0.47217 1.02274,0.58565 0.1676,0.029 0.32993,0.0598 0.36055,0.0685 0.0425,0.012 0.0526,0.15765 0.0433,0.61536 -0.0137,0.67923 0.0129,0.64122 -0.40386,0.57658 v 5.03e-4 c -0.91174,-0.14139 -1.76555,-0.60649 -2.55057,-1.38934 -0.35835,-0.35735 -0.91044,-1.0342 -0.91044,-1.11641 0,-0.0145 -0.0418,-0.0853 -0.0932,-0.15711 -0.1043,-0.1465 -0.60327,-1.11818 -0.60327,-1.17482 0,-0.02 -0.0372,-0.11956 -0.0831,-0.22106 -0.0865,-0.19141 -0.21358,-0.56411 -0.30767,-0.9029 -0.03,-0.10774 -0.0694,-0.24481 -0.0876,-0.30466 -0.0633,-0.20822 -0.14799,-0.65395 -0.2689,-1.41502 -0.0874,-0.55017 -0.0723,-2.40171 0.0251,-3.05513 0.0727,-0.4883 0.0738,-0.54882 0.0111,-0.7619 -0.0374,-0.127301 -0.0842,-0.308401 -0.10374,-0.402351 -0.0196,-0.0939 -0.0551,-0.17674 -0.0785,-0.1843 -0.0442,-0.0142 -0.32531,0.549821 -0.32531,0.652621 0,0.032 -0.0134,0.0712 -0.0292,0.0871 -0.0454,0.0454 -0.20041,0.48786 -0.40638,1.16072 -0.15835,0.5173 -0.3495,1.1026 -0.39128,1.19748 -0.0422,0.0959 -0.1747,0.49986 -0.26386,0.8052 -0.0315,0.10774 -0.0695,0.21574 -0.0851,0.2397 -0.0156,0.024 -0.0548,0.11207 -0.0871,0.19588 -0.2543,0.66037 -0.82791,0.91172 -1.45128,0.636 -0.6289,-0.27811 -0.91216,-0.85117 -0.7896,-1.59781 0.12693,-0.7732 0.47356,-1.4209 1.11641,-2.08678 0.23568,-0.24411 0.97695,-0.927461 1.25539,-1.15719 0.55616,-0.458871 0.91784,-0.82369 1.01016,-1.018721 0.13518,-0.285619 0.33042,-0.50949 0.59571,-0.68283 0.14571,-0.0952 0.32632,-0.25989 0.40134,-0.36559 0.27355,-0.38534 0.6125,-0.68506 1.04038,-0.92153 0.11025,-0.0609 0.27903,-0.216909 0.38623,-0.35653 0.59719,-0.77769 1.5734,-1.51291 2.36324,-1.7801 0.40744,-0.13782 0.86605,-0.20766 1.32186,-0.20898 z m 7.455811,2.03038 c -0.0337,0 -0.047,0.099 -0.0408,0.30466 0.0102,0.33732 -0.0338,0.27312 0.507091,0.73117 0.468019,0.39634 1.21562,1.16895 1.546449,1.59782 0.0831,0.10774 0.16158,0.20557 0.174241,0.21755 0.0221,0.0209 0.145849,0.19351 0.49148,0.68534 0.0881,0.12546 0.160128,0.239811 0.160128,0.254311 0,0.0146 0.0395,0.082 0.0876,0.14956 0.0812,0.1141 0.20187,0.32937 0.42653,0.76089 0.09,0.17302 0.32921,0.69433 0.40436,0.88174 0.02159,0.0539 0.0578,0.14201 0.0806,0.19588 0.0728,0.17211 0.381241,1.13525 0.432062,1.34956 0.146449,0.61764 0.206859,0.92912 0.263869,1.36064 0.0759,0.57451 0.133569,1.28478 0.13345,1.64163 -1.8e-4,0.4572 -0.12833,1.72596 -0.21704,2.14569 -0.02021,0.0958 -0.06,0.29142 -0.0886,0.43509 -0.0285,0.14365 -0.067,0.31026 -0.0857,0.37012 -0.0186,0.0599 -0.0587,0.19691 -0.0892,0.30465 -0.534779,1.89939 -1.61458,3.74747 -3.001759,5.13839 -0.25033,0.251 -0.88529,0.81912 -1.01317,0.90643 -0.0537,0.0367 -0.107381,0.0778 -0.119351,0.0911 -0.0392,0.0437 -0.365389,0.28783 -0.583629,0.4366 l -0.214021,0.14553 0.19236,0.166181 c 0.105581,0.0912 0.2196,0.166449 0.2533,0.16718 0.0336,5.29e-4 0.170741,-0.0815 0.304651,-0.18279 1.01389,-0.766751 2.00318,-1.732691 2.670919,-2.607481 0.17992,-0.23569 0.744591,-1.07757 0.785062,-1.17028 0.01569,-0.0359 0.0876,-0.1633 0.159628,-0.28301 0.13258,-0.22012 0.312341,-0.5772 0.470831,-0.93562 0.0477,-0.10776 0.13085,-0.29422 0.18482,-0.41394 0.054,-0.11972 0.11371,-0.26644 0.132429,-0.3263 0.0186,-0.0598 0.0771,-0.22646 0.129921,-0.37012 0.0528,-0.14368 0.11176,-0.31995 0.130929,-0.39179 0.41167,-1.5425 0.519761,-2.30168 0.520189,-3.6589 2.65e-4,-0.95786 -0.0504,-1.50698 -0.222578,-2.41411 -0.12837,-0.67616 -0.387821,-1.54658 -0.67478,-2.26353 -0.21649,-0.54091 -0.7195,-1.52888 -0.9311,-1.828441 -0.0422,-0.0598 -0.11942,-0.18451 -0.17121,-0.27697 -0.0844,-0.15078 -0.386471,-0.56763 -0.760891,-1.04993 -0.3006,-0.38722 -1.02939,-1.14405 -1.5112,-1.56962 -0.351041,-0.31005 -0.859521,-0.69492 -0.918,-0.69492 z m -10.170031,0.32631 c -0.63259,0 -1.35978,0.3048 -1.81586,0.76089 -0.20443,0.20443 -0.49903,0.64248 -0.49903,0.74175 0,0.0699 0.11001,0.089 0.14905,0.0257 0.0132,-0.0213 0.14676,-0.0973 0.296601,-0.16869 0.491,-0.23421 1.122139,-0.41798 1.817879,-0.52975 0.71388,-0.1147 0.87654,-0.13332 1.17885,-0.13395 0.17761,-3.17e-4 0.351771,-0.0187 0.38673,-0.0408 0.24138,-0.15265 -0.91997,-0.65514 -1.51422,-0.65514 z m 5.4773,0 c -0.45178,0 -0.99962,0.1731 -1.400929,0.44264 -0.3175,0.21324 -0.34084,0.25379 -0.144521,0.25379 0.27898,0 1.45666,0.13665 1.937221,0.22459 0.648119,0.11859 1.24422,0.29769 1.635069,0.49148 0.118411,0.0588 0.22205,0.10751 0.23064,0.10877 0.008,9.53e-4 0.003,-0.0498 -0.0131,-0.1133 -0.0958,-0.38152 -0.74893,-0.99543 -1.28661,-1.20957 -0.26171,-0.10424 -0.71635,-0.1984 -0.95778,-0.1984 z m -11.053289,0.63398 c -0.0429,-0.0264 -0.942571,0.89512 -1.251361,1.28159 -0.31812,0.39809 -0.84427,1.12969 -0.876719,1.21913 -0.013,0.0359 -0.0569,0.11388 -0.0982,0.17373 -0.17491,0.254231 -0.62515,1.110771 -0.754841,1.436681 -0.0429,0.10768 -0.103139,0.25498 -0.134459,0.32681 -0.132831,0.30454 -0.330221,0.87806 -0.45674,1.3274 -0.0303,0.10774 -0.0706,0.2448 -0.0886,0.30466 -0.0625,0.20554 -0.192691,0.88081 -0.256321,1.3279 -0.13815,0.9709 -0.169429,1.8948 -0.0911,2.68653 0.0933,0.94384 0.151201,1.29912 0.352501,2.15678 0.170229,0.72529 0.662959,2.03536 0.96181,2.55762 0.0275,0.0479 0.10175,0.18493 0.165679,0.30465 0.698021,1.30704 1.81682,2.67624 2.959461,3.62165 0.388149,0.32114 0.83685,0.66592 0.86664,0.666219 0.009,1.01e-4 0.10209,-0.0637 0.20545,-0.141509 0.220979,-0.16636 0.236149,-0.24765 0.0655,-0.34847 -0.2713,-0.16027 -1.09701,-0.86041 -1.551481,-1.3153 -0.70514,-0.70583 -1.44586,-1.66185 -1.913049,-2.469 -0.22424,-0.38738 -0.76391,-1.52069 -0.76391,-1.60436 0,-0.0236 -0.0188,-0.0768 -0.0418,-0.11834 -0.0692,-0.1244 -0.34378,-0.99647 -0.43508,-1.38178 -0.109091,-0.46037 -0.12362,-0.53752 -0.267891,-1.41502 -0.0688,-0.41793 -0.0733,-2.44401 -0.007,-2.82955 0.0269,-0.15563 0.0704,-0.42972 0.0971,-0.60931 0.15175,-1.02578 0.59593,-2.38921 1.099291,-3.37389 0.501509,-0.981061 1.168549,-1.945621 1.836509,-2.655821 0.31572,-0.33568 0.32732,-0.35619 0.32983,-0.566 9.53e-4,-0.1197 0.0199,-0.29079 0.0408,-0.3807 0.0209,-0.0899 0.0243,-0.17214 0.008,-0.1823 z m 7.55198,0.35804 -0.589171,0.0277 c -0.98365,0.047 -1.761949,0.18001 -2.61351,0.44716 -0.33064,0.10373 -0.81604,0.36259 -1.02426,0.54587 -0.21373,0.18812 -0.3253,0.39922 -0.3253,0.61535 0,0.26781 0.12569,0.72904 0.28905,1.061011 0.338781,0.68849 1.096631,1.26077 1.82241,1.37625 0.24471,0.039 1.000101,-0.0131 1.19698,-0.0826 0.45306,-0.15992 0.68042,-0.30376 1.025261,-0.64859 0.544129,-0.54414 0.730939,-0.992561 0.7342,-1.765511 0.003,-0.58537 -0.0916,-0.93796 -0.355521,-1.33546 z m 1.772059,0.0529 c -0.290219,0 -0.31603,0.008 -0.39178,0.11986 -0.32846,0.48495 -0.49518,1.17632 -0.40739,1.69047 0.201851,1.182221 0.996051,2.004861 2.13663,2.212681 0.21176,0.0386 0.938851,-0.0148 1.130511,-0.0826 0.770979,-0.27322 1.408799,-0.88097 1.646159,-1.568111 0.13804,-0.39956 0.19431,-0.85449 0.13495,-1.09022 -0.0986,-0.39159 -0.64906,-0.70348 -1.714129,-0.97088 -0.61131,-0.15346 -1.89705,-0.3112 -2.534951,-0.3112 z m -3.03047,0.78356 c 0.29117,0 0.53086,0.11429 0.69795,0.33336 0.105991,0.13898 0.121861,0.19947 0.121861,0.45371 0,0.26248 -0.0136,0.31073 -0.13345,0.45876 -0.225281,0.27832 -0.537951,0.391631 -0.892821,0.32379 -0.38965,-0.0745 -0.6496,-0.38703 -0.6496,-0.78154 0,-0.23699 0.0426,-0.34302 0.21754,-0.54133 0.14685,-0.16635 0.355091,-0.24675 0.63852,-0.24675 z m 3.9802,0 c 0.124621,0 0.44542,0.12869 0.56852,0.22811 0.13657,0.11033 0.254801,0.37942 0.254801,0.58012 0,0.38566 -0.2606,0.6994 -0.66168,0.79664 -0.243511,0.059 -0.181291,0.0635 -0.47033,-0.0358 -0.415031,-0.14265 -0.628301,-0.50466 -0.548391,-0.93059 0.0603,-0.32125 0.48607,-0.63852 0.85708,-0.63852 z m 4.99789,8.183461 -0.19085,0.13093 c -0.104839,0.0722 -0.20066,0.13092 -0.21351,0.13092 -0.0129,0 -0.24956,0.14875 -0.52573,0.33034 -0.454719,0.29899 -0.531919,0.37003 -0.81779,0.74981 -0.250829,0.33321 -0.460449,0.54008 -1.019719,1.00815 -0.38716,0.324 -0.749581,0.6284 -0.805711,0.67628 -0.0561,0.0479 -0.20959,0.17536 -0.340919,0.283 -0.1313,0.10764 -0.26356,0.21933 -0.294081,0.24827 -0.0305,0.0289 -0.14825,0.12664 -0.261349,0.21754 -0.113091,0.091 -0.232191,0.19062 -0.26488,0.22156 -0.0327,0.0309 -0.40509,0.34411 -0.827351,0.69593 -0.42228,0.35186 -0.80717,0.67639 -0.855059,0.72111 -0.048,0.0448 -0.130941,0.11086 -0.184811,0.14705 -0.16138,0.10833 -0.13703,0.15567 0.223581,0.43658 0.124839,0.0974 0.267359,0.12843 0.295099,0.0644 0.008,-0.0183 0.121671,-0.12133 0.25278,-0.22861 0.13112,-0.1073 0.26588,-0.22035 0.299121,-0.25129 0.0332,-0.031 0.405589,-0.34352 0.827869,-0.69491 0.42227,-0.35139 0.77762,-0.64964 0.78959,-0.66271 0.0119,-0.013 0.12965,-0.11174 0.261351,-0.21904 0.131679,-0.10731 0.26456,-0.21833 0.29509,-0.24725 0.0305,-0.029 0.147919,-0.12715 0.26085,-0.21805 0.11293,-0.091 0.274039,-0.22653 0.35804,-0.30163 0.704289,-0.62943 1.18647,-0.98654 1.64313,-1.21561 0.292909,-0.14693 0.53549,-0.30052 0.60428,-0.38271 0.0632,-0.0756 0.27396,-0.31034 0.46832,-0.5217 0.194389,-0.21136 0.380889,-0.42912 0.41443,-0.48393 0.07,-0.11436 0.0469,-0.16018 -0.231131,-0.46076 z m -14.28367,0.10624 c -0.029,-0.003 -0.0295,0.0195 -0.0126,0.0801 0.0425,0.15125 0.19951,0.45516 0.27999,0.54183 0.0399,0.0431 0.0844,0.10881 0.0987,0.14654 0.0145,0.0377 0.38552,0.37015 0.82484,0.73823 0.43932,0.36808 0.80884,0.68038 0.82081,0.69392 0.012,0.0135 0.12915,0.11197 0.26085,0.21905 0.1317,0.10708 0.24939,0.20549 0.26135,0.21854 0.0119,0.0131 0.36734,0.31131 0.7896,0.66269 0.42227,0.35139 0.79466,0.66398 0.82735,0.69493 0.0327,0.0309 0.15179,0.13066 0.26488,0.22157 0.11312,0.091 0.23083,0.18913 0.26135,0.21804 0.0305,0.0289 0.1629,0.14045 0.29458,0.24775 0.13169,0.10731 0.24938,0.2055 0.26135,0.21856 0.012,0.0131 0.36732,0.31131 0.7896,0.66269 0.42228,0.35139 0.79468,0.66446 0.82736,0.69542 0.0328,0.0309 0.15177,0.13068 0.26487,0.22157 0.11311,0.091 0.23082,0.18924 0.26135,0.21855 0.0305,0.0292 0.14813,0.12839 0.26186,0.22057 l 0.20696,0.16768 v 0.35804 c 0,0.3991 -0.0218,0.36427 0.48948,0.7765 0.11274,0.091 0.22982,0.18861 0.26034,0.21753 0.0305,0.0289 0.16341,0.14075 0.29509,0.24827 0.1317,0.10753 0.26365,0.21842 0.29357,0.24674 0.0299,0.0283 0.0554,0.1561 0.0569,0.28351 0.005,0.42041 0.02,0.43829 1.21662,1.43415 0.61057,0.50814 1.12004,0.935479 1.13202,0.94923 0.012,0.0137 0.11446,0.0994 0.2276,0.190349 0.11313,0.091 0.23033,0.188621 0.26086,0.21754 0.0305,0.0289 0.16312,0.140632 0.29458,0.248261 0.13144,0.107649 0.28838,0.238149 0.34846,0.29005 0.0601,0.0518 0.43994,0.37035 0.84398,0.707509 l 0.7342,0.613352 h 0.33941 0.3394 l 0.53378,-0.642552 c 0.2937,-0.35316 0.57165,-0.6844 0.61738,-0.736219 0.0775,-0.0876 0.0791,-0.1153 0.0267,-0.398819 -0.064,-0.346422 -0.0728,-0.36117 -0.35351,-0.586661 -0.11313,-0.0909 -0.23082,-0.188621 -0.26135,-0.21754 -0.0305,-0.0289 -0.16288,-0.140441 -0.29457,-0.247751 -0.13168,-0.107299 -0.24938,-0.205748 -0.26136,-0.218548 -0.0119,-0.01291 -0.50158,-0.42314 -1.0882,-0.911961 -0.58661,-0.48884 -1.07624,-0.89999 -1.08821,-0.91347 -0.0119,-0.0135 -0.11447,-0.099 -0.22762,-0.18985 -0.11313,-0.091 -0.23082,-0.18862 -0.26135,-0.21754 -0.0305,-0.0289 -0.16312,-0.14063 -0.29458,-0.24825 -0.13144,-0.10764 -0.28787,-0.23811 -0.34797,-0.28955 -0.0601,-0.0516 -0.21728,-0.18461 -0.34896,-0.2961 l -0.2392,-0.20243 -0.32682,0.006 c -0.42872,0.007 -0.40618,0.011 -0.50306,-0.0766 -0.0464,-0.0419 -0.19209,-0.16451 -0.3238,-0.27192 -0.13167,-0.10742 -0.24937,-0.20523 -0.26135,-0.21754 -0.0283,-0.029 -0.52371,-0.44261 -0.61233,-0.51112 -0.0472,-0.0365 -0.11409,-0.0411 -0.21754,-0.0146 -0.31361,0.0806 -0.55138,0.0952 -0.61234,0.0372 -0.0327,-0.0311 -0.16743,-0.14446 -0.29912,-0.25178 -0.1317,-0.10731 -0.24938,-0.206 -0.26135,-0.21906 -0.0119,-0.0131 -0.3673,-0.3113 -0.7896,-0.66269 -0.42225,-0.35138 -0.79415,-0.66398 -0.82684,-0.69492 -0.0327,-0.031 -0.15228,-0.13066 -0.26538,-0.22157 -0.1131,-0.0909 -0.23032,-0.18913 -0.26085,-0.21805 -0.0305,-0.0288 -0.16341,-0.14044 -0.2951,-0.24775 -0.13169,-0.1073 -0.24937,-0.20549 -0.26135,-0.21854 -0.0119,-0.0131 -0.36681,-0.31132 -0.78908,-0.6627 -0.42227,-0.35139 -0.79472,-0.66438 -0.82736,-0.69542 -0.0327,-0.0311 -0.16693,-0.14448 -0.29862,-0.25179 -0.13168,-0.10731 -0.24937,-0.20548 -0.26135,-0.21854 -0.012,-0.0131 -0.36454,-0.30963 -0.78355,-0.65918 -0.419,-0.34956 -0.82049,-0.68829 -0.89232,-0.75232 -0.0718,-0.064 -0.19919,-0.15085 -0.283,-0.19286 -0.0838,-0.042 -0.201509,-0.10276 -0.26135,-0.13497 -0.220189,-0.11851 -0.265949,-0.13418 -0.308689,-0.10775 -0.0241,0.0148 -0.0673,0.008 -0.0962,-0.0137 -0.0288,-0.0222 -0.0879,-0.0533 -0.13143,-0.069 -0.0164,-0.006 -0.0291,-0.01 -0.0388,-0.0106 z m -0.289039,0.33992 c -0.0167,-0.002 -0.0307,-7e-5 -0.0383,0.008 -0.0262,0.0262 0.0719,0.6691 0.126909,0.83139 0.10947,0.32303 0.33549,0.71017 0.53529,0.91649 0.0926,0.0956 0.44341,0.31232 0.61032,0.37718 l 0.17424,0.0674 0.0267,0.38624 c 0.0298,0.42543 0.0636,0.55573 0.23617,0.90844 0.12322,0.25185 0.55551,0.69337 0.78354,0.80016 0.0708,0.0331 0.168561,0.0783 0.21704,0.10021 0.11386,0.0514 0.63938,0.0655 0.89131,0.0242 l 0.19589,-0.0317 0.14251,0.29659 c 0.313,0.65124 0.92271,1.10894 1.66429,1.24986 0.37406,0.0711 0.36316,0.0708 0.692901,0.0151 0.30739,-0.052 0.36571,-0.0791 0.31725,-0.14855 -0.017,-0.0243 -0.25937,-0.23463 -0.53881,-0.46731 -0.27941,-0.23271 -0.534131,-0.44773 -0.566011,-0.47788 -0.0319,-0.0301 -0.150759,-0.12915 -0.26387,-0.22007 -0.11309,-0.0909 -0.23031,-0.1891 -0.26085,-0.21803 -0.0305,-0.0289 -0.163399,-0.14044 -0.295089,-0.24776 -0.13169,-0.10731 -0.249391,-0.20547 -0.261351,-0.21855 -0.0119,-0.0131 -0.366809,-0.3113 -0.789089,-0.66269 -0.422271,-0.35139 -0.794701,-0.66497 -0.827351,-0.69643 -0.0327,-0.0314 -0.11224,-0.0978 -0.17676,-0.14754 -0.0645,-0.0498 -0.22093,-0.17977 -0.34796,-0.28906 -0.127039,-0.10927 -0.57028,-0.48186 -0.98498,-0.82786 -0.578089,-0.4823 -0.79935,-0.69607 -0.94721,-0.91649 -0.10609,-0.15813 -0.19287,-0.30569 -0.19287,-0.32782 0,-0.0335 -0.074,-0.0765 -0.123869,-0.0831 z m 15.32252,0.25122 c -0.0534,0 -1.04994,1.10041 -1.04994,1.15921 0,0.0442 0.20046,-0.0424 0.37616,-0.16266 0.23759,-0.16271 0.507629,-0.47357 0.620899,-0.71456 0.0988,-0.21031 0.112121,-0.28199 0.0529,-0.28199 z m -1.59933,1.55602 c -0.16231,-0.0313 -0.58973,0.23769 -1.24885,0.78607 -0.363771,0.30266 -0.671371,0.5605 -0.683331,0.57356 -0.012,0.013 -0.129669,0.11173 -0.261349,0.21904 -0.131711,0.10731 -0.26407,0.21884 -0.29459,0.24776 -0.0305,0.0289 -0.148231,0.12715 -0.261351,0.21805 -0.113099,0.0909 -0.23218,0.19012 -0.264879,0.22106 -0.0327,0.031 -0.40508,0.34439 -0.82735,0.69644 -1.33921,1.11654 -1.305881,1.08583 -1.226691,1.13755 0.0658,0.0431 0.200581,0.0308 0.51111,-0.0474 0.16046,-0.0403 0.19842,-0.0349 0.30516,0.0448 0.16587,0.12371 0.275511,0.11613 0.60076,-0.0408 0.37191,-0.17939 0.787761,-0.59696 0.98044,-0.98498 0.0808,-0.16259 0.15248,-0.30374 0.15913,-0.31321 0.007,-0.009 0.0858,0.0303 0.176251,0.0881 0.336439,0.21551 0.58139,0.29912 0.874189,0.29912 0.597811,0 1.2237,-0.41913 1.497111,-1.0026 0.215149,-0.45916 0.230479,-0.52807 0.230629,-1.04339 1.31e-4,-0.50067 -0.0757,-0.8792 -0.213009,-1.06706 -0.0123,-0.0168 -0.0302,-0.0278 -0.0534,-0.0323 z m -6.84145,4.27724 c -0.0348,0 -0.159401,0.0809 -0.276961,0.17927 -0.18411,0.15415 -0.23341,0.17499 -0.35451,0.15107 -0.0774,-0.0153 -0.241159,-0.0394 -0.36408,-0.0534 l -0.22308,-0.0257 -0.538309,0.4512 c -0.296101,0.24812 -0.565951,0.47698 -0.59925,0.5086 -0.186951,0.17751 -0.250811,0.19251 -0.570041,0.13546 -0.286229,-0.0512 -0.31291,-0.0486 -0.40385,0.0312 -0.0536,0.047 -0.27348,0.23116 -0.48897,0.4094 -0.21548,0.17825 -0.401939,0.3341 -0.41393,0.34645 -0.012,0.0124 -0.12918,0.11048 -0.26084,0.21755 -0.1317,0.10708 -0.24939,0.20551 -0.26136,0.21905 -0.012,0.0135 -0.3844,0.32716 -0.82736,0.69693 -0.44295,0.369769 -0.83008,0.69621 -0.8606,0.725139 -0.0305,0.0289 -0.14824,0.12663 -0.26135,0.217541 -0.11309,0.091 -0.23149,0.189928 -0.26336,0.220059 -0.0319,0.0301 -0.2866,0.24507 -0.56601,0.47738 -0.66739,0.554831 -0.73644,0.628499 -0.77398,0.825349 -0.0836,0.43815 -0.0869,0.430752 0.54888,1.206542 l 0.58767,0.717079 0.34847,0.003 c 0.32103,0.0021 0.35849,-0.007 0.47888,-0.116829 v -5.3e-4 c 0.0718,-0.0658 0.23795,-0.20769 0.36963,-0.31523 0.13169,-0.10751 0.26646,-0.220741 0.29911,-0.25178 0.0326,-0.0311 0.40457,-0.34404 0.82686,-0.69543 0.42227,-0.35138 0.77763,-0.649632 0.78959,-0.6627 0.0119,-0.0131 0.12966,-0.111741 0.26135,-0.219051 0.131691,-0.107299 0.26595,-0.22021 0.29862,-0.251269 0.0326,-0.0311 0.40509,-0.344041 0.82735,-0.695431 0.42229,-0.35138 0.777621,-0.650161 0.7896,-0.6637 0.0119,-0.01349 0.11489,-0.0995 0.22862,-0.191349 l 0.20646,-0.16719 v -0.30113 c 0,-0.33466 0.0111,-0.35134 0.45875,-0.71205 0.11856,-0.0955 0.26472,-0.21879 0.3248,-0.27444 0.0601,-0.0555 0.22187,-0.19111 0.35955,-0.30063 l 0.250271,-0.1989 v -0.36106 -0.36056 l 0.28653,-0.25329 0.28653,-0.2528 -0.22811,-0.20696 c -0.125611,-0.11373 -0.256871,-0.20697 -0.29157,-0.20697 z m 4.47519,1.52832 c 0.0958,-9e-4 0.21068,0.0522 0.325299,0.15913 0.0718,0.0668 0.47611,0.40919 0.89837,0.76089 0.42228,0.35171 0.79468,0.665 0.827351,0.69593 0.0327,0.031 0.15179,0.13066 0.26488,0.22157 0.11312,0.091 0.230829,0.188619 0.261349,0.217541 0.0305,0.0289 0.1629,0.140708 0.29459,0.24825 0.13169,0.10754 0.260731,0.215159 0.28653,0.23921 0.0258,0.0241 0.363591,0.30648 0.750811,0.627938 0.677659,0.56256 0.703989,0.590661 0.703989,0.745781 0,0.217869 -0.16115,0.339289 -0.32883,0.247251 v -5.29e-4 c -0.0733,-0.0401 -1.473389,-1.193012 -1.636079,-1.347031 -0.0327,-0.0309 -0.15177,-0.13017 -0.264881,-0.22107 -0.113109,-0.091 -0.230829,-0.189119 -0.261349,-0.218041 -0.0305,-0.0289 -0.16339,-0.140448 -0.29509,-0.247758 -0.13168,-0.10732 -0.24887,-0.205981 -0.260851,-0.219051 -0.0119,-0.0131 -0.36453,-0.30964 -0.78354,-0.65916 -1.098049,-0.91594 -1.065309,-0.87982 -0.993029,-1.087209 0.0377,-0.108161 0.114669,-0.162761 0.21048,-0.163661 z m -7.758951,0.21402 c 0.0893,-0.003 0.15858,0.0407 0.20495,0.13042 0.11069,0.21405 0.17832,0.14295 -1.371709,1.43719 -0.586611,0.48978 -1.09142,0.914119 -1.121941,0.94317 -0.0305,0.029 -0.14793,0.127141 -0.26086,0.218049 -0.11293,0.091 -0.274019,0.226761 -0.358029,0.301641 -0.590621,0.526489 -1.38421,1.14813 -1.465891,1.14813 -0.0523,0 -0.13619,-0.0517 -0.18581,-0.114811 -0.15337,-0.194968 -0.12774,-0.243048 0.3384,-0.635 0.207171,-0.17422 0.40204,-0.340309 0.43256,-0.36912 0.0305,-0.0288 0.14774,-0.12714 0.26084,-0.21804 0.11313,-0.091 0.2327,-0.190638 0.26539,-0.221578 0.0327,-0.031 0.404581,-0.343522 0.82686,-0.69491 0.422271,-0.351381 0.77762,-0.649621 0.78958,-0.662691 0.0119,-0.0131 0.129651,-0.11176 0.26135,-0.21905 0.13169,-0.10732 0.2646,-0.21833 0.2951,-0.24726 0.0305,-0.0289 0.1477,-0.12713 0.26084,-0.21805 0.11314,-0.0909 0.21565,-0.17552 0.22762,-0.18783 0.24747,-0.25436 0.45198,-0.38581 0.60075,-0.39026 z m 7.441211,0.653678 c 0.0748,-0.002 0.15661,0.0305 0.230129,0.0967 0.0598,0.0539 0.20131,0.17194 0.314221,0.26286 0.11293,0.091 0.230319,0.18911 0.26084,0.21804 0.0305,0.0289 0.163409,0.14044 0.295099,0.24776 0.13169,0.10731 0.24887,0.205472 0.26084,0.218542 0.0119,0.0131 0.36732,0.311301 0.7896,0.662689 0.42227,0.35138 0.794661,0.66449 0.82735,0.69543 0.0328,0.0309 0.151781,0.13067 0.264881,0.22157 0.11311,0.091 0.23083,0.188619 0.261349,0.217541 0.0305,0.0289 0.16339,0.140621 0.295091,0.248258 0.131679,0.107641 0.27243,0.225428 0.31271,0.261351 0.0403,0.0359 0.181929,0.153098 0.31473,0.26085 0.27047,0.219408 0.33116,0.35234 0.23769,0.519681 -0.10348,0.185208 -0.250761,0.16637 -0.54285,-0.0695 -0.28705,-0.231801 -1.07256,-0.88954 -1.106331,-0.926571 -0.012,-0.0131 -0.113969,-0.0984 -0.227109,-0.189338 -0.11313,-0.091 -0.230821,-0.188989 -0.261351,-0.218041 -0.0305,-0.029 -0.535329,-0.453099 -1.12195,-0.94217 -0.586619,-0.48909 -1.07623,-0.899991 -1.0882,-0.913481 -0.0119,-0.0134 -0.134739,-0.11908 -0.272429,-0.23466 -0.28092,-0.23582 -0.33856,-0.36786 -0.232151,-0.53025 0.0453,-0.0692 0.113001,-0.10537 0.187841,-0.107261 z m -7.068071,0.21603 c 0.0774,-0.005 0.134261,0.0331 0.1838,0.10877 0.0427,0.0653 0.0603,0.14969 0.0448,0.212 -0.0162,0.0648 -0.30817,0.33849 -0.7775,0.728659 -0.41332,0.343622 -0.7762,0.648909 -0.80672,0.678309 -0.0305,0.0293 -0.14825,0.12763 -0.26135,0.218552 -0.11311,0.091 -0.23219,0.190608 -0.26488,0.221559 -0.0327,0.0309 -0.40509,0.34354 -0.82735,0.69492 -0.42228,0.35138 -0.777619,0.649621 -0.7896,0.662699 -0.012,0.0131 -0.12966,0.111461 -0.26135,0.218541 -0.13168,0.107101 -0.248879,0.204711 -0.26084,0.21704 -0.26811,0.276389 -0.470879,0.35855 -0.614349,0.24927 -0.0882,-0.0672 -0.136091,-0.214739 -0.100221,-0.308179 0.0151,-0.0395 0.31418,-0.31115 0.66471,-0.603782 0.35053,-0.292629 0.647191,-0.54265 0.65917,-0.555429 0.012,-0.01291 0.12966,-0.110739 0.26135,-0.218041 0.13168,-0.107309 0.26406,-0.21885 0.29459,-0.247758 0.0305,-0.0289 0.14824,-0.12714 0.261351,-0.218049 0.113089,-0.091 0.232179,-0.190619 0.264869,-0.22157 0.0328,-0.0309 0.40509,-0.344371 0.82736,-0.696433 0.42226,-0.352068 0.81685,-0.682468 0.876711,-0.734698 0.309769,-0.27026 0.496459,-0.39806 0.62543,-0.40638 z m 6.26639,0.27994 c 0.0821,-0.008 0.16813,0.0424 0.295591,0.16366 0.0332,0.0317 0.168439,0.1455 0.300119,0.2528 0.131681,0.10731 0.249391,0.205489 0.26135,0.218541 0.012,0.0131 0.367331,0.311308 0.7896,0.662688 0.42227,0.351391 0.79417,0.664472 0.82685,0.695431 0.0327,0.0309 0.15227,0.130659 0.26538,0.22157 0.113111,0.091 0.23032,0.188619 0.26085,0.217541 0.0305,0.0289 0.163421,0.140448 0.29508,0.24775 0.131711,0.10731 0.249391,0.205719 0.261361,0.218559 0.0119,0.01291 0.25195,0.21486 0.53328,0.44917 0.46284,0.38545 0.511119,0.440079 0.511119,0.569539 0,0.215501 -0.15456,0.328941 -0.347969,0.25531 -0.036,-0.0136 -0.075,-0.0372 -0.0871,-0.0523 -0.012,-0.01511 -0.367319,-0.315338 -0.789589,-0.666729 -0.42227,-0.35138 -0.794211,-0.663871 -0.82686,-0.69492 -0.0326,-0.031 -0.167431,-0.144481 -0.299121,-0.251791 -0.13168,-0.107299 -0.249369,-0.20597 -0.261349,-0.219048 -0.0119,-0.01299 -0.364551,-0.30965 -0.78354,-0.659162 -0.419031,-0.349509 -0.803601,-0.671788 -0.85457,-0.716579 -0.0509,-0.0448 -0.19235,-0.160031 -0.314721,-0.255799 -0.12236,-0.0958 -0.234939,-0.218061 -0.24977,-0.271941 -0.0411,-0.14942 0.0121,-0.2934 0.13193,-0.35753 0.0279,-0.0149 0.0547,-0.0241 0.0821,-0.0267 z m -5.57096,0.19388 c 0.185931,-0.019 0.33336,0.0995 0.33336,0.26789 0,0.114549 -0.207,0.329599 -0.63551,0.660691 -0.0696,0.0538 -0.15315,0.123619 -0.18581,0.155088 -0.0326,0.0314 -0.40509,0.34453 -0.82736,0.695931 -0.42227,0.35138 -0.7771,0.649621 -0.78908,0.662689 -0.0119,0.0131 -0.12967,0.111741 -0.26136,0.219051 -0.13169,0.10732 -0.26456,0.218329 -0.29509,0.247261 -0.0305,0.0289 -0.14821,0.12714 -0.26135,0.218038 -0.11314,0.091 -0.21513,0.17622 -0.22711,0.189341 -0.0518,0.0568 -0.859089,0.7268 -0.95677,0.79412 -0.13343,0.092 -0.21556,0.0937 -0.33991,0.007 v -5.29e-4 c -0.0606,-0.0424 -0.0967,-0.113102 -0.0967,-0.188841 0,-0.12722 0.1277,-0.26442 0.60982,-0.657151 0.1317,-0.10727 0.24889,-0.206029 0.26085,-0.21956 0.0119,-0.01349 0.38441,-0.32739 0.82736,-0.696931 0.44295,-0.36957 0.81488,-0.681778 0.82686,-0.69442 0.0119,-0.0127 0.12965,-0.111249 0.26135,-0.218548 0.13167,-0.10732 0.264561,-0.21834 0.295091,-0.247251 0.0305,-0.029 0.1482,-0.12714 0.261349,-0.218051 0.11312,-0.091 0.215141,-0.176379 0.227111,-0.189828 0.0892,-0.100279 0.932979,-0.782001 0.972889,-0.786071 z m -0.27344,1.625509 c -0.0547,0.006 -0.11846,0.0357 -0.18783,0.0892 -0.19612,0.15118 -0.33738,0.277699 -0.33738,0.302138 0,0.01119 0.083,0.0454 0.1848,0.076 0.10181,0.0305 0.23423,0.0713 0.29409,0.0906 0.29849,0.0961 1.10486,0.26534 1.63256,0.342921 0.88922,0.130688 2.01303,0.16764 2.75702,0.0906 0.565211,-0.0586 1.079711,-0.12718 1.291651,-0.172209 0.0958,-0.0204 0.281729,-0.0592 0.413429,-0.0866 0.580791,-0.120319 0.957781,-0.234209 0.957781,-0.289549 0,-0.0279 -0.0896,-0.123899 -0.198911,-0.213511 -0.214999,-0.176199 -0.26353,-0.180369 -0.75887,-0.0665 -0.608959,0.140068 -1.05598,0.20591 -1.80679,0.265388 -0.62993,0.05 -1.89971,0.02511 -2.328999,-0.0453 -0.131681,-0.02151 -0.386461,-0.0615 -0.566011,-0.0886 -0.179589,-0.0271 -0.395089,-0.0669 -0.4789,-0.0881 -0.33184,-0.0845 -0.72325,-0.18179 -0.81627,-0.203441 -0.016,-0.004 -0.0331,-0.005 -0.0514,-0.003 z"
       sodipodi:nodetypes="ccsccccccccscsscccscccccscccsccsscssssssscscsccccccccsscscccccccccscscccccccscccccsccccsccccsccccccccscccscccccsscscccsccccscscccccccscsccccccccssscscccccscccccscccccccscccccccccsccsccccssccccccccssccccsccccccccccccsccssscccscscccsscsccccssscccccscscccccscsscsccscsccscccccccssscccccccccccscssccccscccscccccscscsccsssscccccscssscsccsccccccccccssccccsccccccccscsccccscscsssccsssccccccccccccsccccccccccssscscccccsccssccsscsccsccccccccccssccccccccccsccccccssccccsccccccscscccccscccccccccccccsccsscssccccsccssccccccccsccsccscccccccccsscsccsccccsccccssccscccccccsccccscccccccssccsssccscccsccssssccccccccscsccsscccccsscccccccccccsccccccsccccscccc" />
  </g>
  <g
     inkscape:label="F.SilkS"
     inkscape:groupmode="layer"
     id="g4712"
     style="display:none" />
</svg>
