<?xml version="1.0" encoding="UTF-8" standalone="no"?>
<svg
   xmlns:dc="http://purl.org/dc/elements/1.1/"
   xmlns:cc="http://creativecommons.org/ns#"
   xmlns:rdf="http://www.w3.org/1999/02/22-rdf-syntax-ns#"
   xmlns:svg="http://www.w3.org/2000/svg"
   xmlns="http://www.w3.org/2000/svg"
   xmlns:sodipodi="http://sodipodi.sourceforge.net/DTD/sodipodi-0.dtd"
   xmlns:inkscape="http://www.inkscape.org/namespaces/inkscape"
   width="210mm"
   height="297mm"
   viewBox="0 0 210 297"
   version="1.1"
   id="svg8"
   inkscape:version="1.0.1 (3bc2e813f5, 2020-09-07)"
   sodipodi:docname="board-mockup.svg">
  <defs
     id="defs2">
        
    
            
            
            
            
            
            
            
        
                
            
                
            
                
            
                
            
        
    
            
            
            
            
            
            
            
        
                
            
                
            
                
            
                
            </defs>
  <sodipodi:namedview
     id="base"
     pagecolor="#ffffff"
     bordercolor="#666666"
     borderopacity="1.0"
     inkscape:pageopacity="0.0"
     inkscape:pageshadow="2"
     inkscape:zoom="1.5629401"
     inkscape:cx="466.21175"
     inkscape:cy="733.73056"
     inkscape:document-units="mm"
     inkscape:current-layer="layer2"
     inkscape:document-rotation="0"
     showgrid="false"
     inkscape:snap-nodes="false"
     inkscape:snap-others="false"
     inkscape:window-width="1252"
     inkscape:window-height="1010"
     inkscape:window-x="-5"
     inkscape:window-y="0"
     inkscape:window-maximized="0" />
  <metadata
     id="metadata5">
    <rdf:RDF>
      <cc:Work
         rdf:about="">
        <dc:format>image/svg+xml</dc:format>
        <dc:type
           rdf:resource="http://purl.org/dc/dcmitype/StillImage" />
        <dc:title></dc:title>
      </cc:Work>
    </rdf:RDF>
  </metadata>
  <g
     inkscape:label="Layer 1"
     inkscape:groupmode="layer"
     id="layer1"
     style="display:inline" />
  <g
     inkscape:groupmode="layer"
     id="layer3"
     inkscape:label="Board"
     style="display:inline">
    <path
       id="path1265"
       style="color:#000000;font-style:normal;font-variant:normal;font-weight:normal;font-stretch:normal;font-size:medium;line-height:normal;font-family:sans-serif;font-variant-ligatures:normal;font-variant-position:normal;font-variant-caps:normal;font-variant-numeric:normal;font-variant-alternates:normal;font-variant-east-asian:normal;font-feature-settings:normal;font-variation-settings:normal;text-indent:0;text-align:start;text-decoration:none;text-decoration-line:none;text-decoration-style:solid;text-decoration-color:#000000;letter-spacing:normal;word-spacing:normal;text-transform:none;writing-mode:lr-tb;direction:ltr;text-orientation:mixed;dominant-baseline:auto;baseline-shift:baseline;text-anchor:start;white-space:normal;shape-padding:0;shape-margin:0;inline-size:0;clip-rule:evenodd;display:inline;overflow:visible;visibility:visible;opacity:1;isolation:auto;mix-blend-mode:normal;color-interpolation:sRGB;color-interpolation-filters:linearRGB;solid-color:#000000;solid-opacity:1;vector-effect:none;fill:#333333;fill-opacity:1;fill-rule:evenodd;stroke:none;stroke-width:7.55906;stroke-linecap:round;stroke-linejoin:round;stroke-miterlimit:1.41421;stroke-dasharray:none;stroke-dashoffset:0;stroke-opacity:1;color-rendering:auto;image-rendering:auto;shape-rendering:auto;text-rendering:auto;enable-background:accumulate;stop-color:#000000;stop-opacity:1"
       d="m 457.89062,620.28516 c -34.98873,0 -63.48437,28.49555 -63.48437,63.48437 0,26.95624 16.92166,50.03813 40.6875,59.22266 v 52.63086 h 45.59961 v -52.63282 c 23.76282,-9.18605 40.68164,-32.26672 40.68164,-59.2207 0,-34.98871 -28.49563,-63.48437 -63.48438,-63.48437 z"
       transform="scale(0.26458333)" />
  </g>
  <g
     inkscape:groupmode="layer"
     id="layer2"
     inkscape:label="Lines"
     style="display:inline">
    <path
       id="path1241"
       style="color:#000000;font-style:normal;font-variant:normal;font-weight:normal;font-stretch:normal;font-size:medium;line-height:normal;font-family:sans-serif;font-variant-ligatures:normal;font-variant-position:normal;font-variant-caps:normal;font-variant-numeric:normal;font-variant-alternates:normal;font-variant-east-asian:normal;font-feature-settings:normal;font-variation-settings:normal;text-indent:0;text-align:start;text-decoration:none;text-decoration-line:none;text-decoration-style:solid;text-decoration-color:#000000;letter-spacing:normal;word-spacing:normal;text-transform:none;writing-mode:lr-tb;direction:ltr;text-orientation:mixed;dominant-baseline:auto;baseline-shift:baseline;text-anchor:start;white-space:normal;shape-padding:0;shape-margin:0;inline-size:0;clip-rule:evenodd;display:inline;overflow:visible;visibility:visible;isolation:auto;mix-blend-mode:normal;color-interpolation:sRGB;color-interpolation-filters:linearRGB;solid-color:#000000;solid-opacity:1;vector-effect:none;fill:#e6e6e6;fill-opacity:1;fill-rule:evenodd;stroke:none;stroke-width:2.17;stroke-linecap:round;stroke-linejoin:round;stroke-miterlimit:1.41421;stroke-dasharray:none;stroke-dashoffset:0;stroke-opacity:1;color-rendering:auto;image-rendering:auto;shape-rendering:auto;text-rendering:auto;enable-background:accumulate;stop-color:#000000"
       d="m 121.15106,166.19411 c -8.12142,0 -14.71966,6.59783 -14.71966,14.71926 0,8.12143 6.59824,14.71926 14.71966,14.71926 8.12143,0 14.71926,-6.59783 14.71926,-14.71926 0,-8.12143 -6.59783,-14.71926 -14.71926,-14.71926 z m 0,0.45734 c 7.87389,0 14.26193,6.38803 14.26193,14.26192 0,7.87388 -6.38805,14.26192 -14.26193,14.26192 -7.87388,0 -14.26233,-6.38804 -14.26233,-14.26192 0,-7.87389 6.38845,-14.26192 14.26233,-14.26192 z m 0,0.39888 c -2.02762,0 -3.95546,0.43676 -5.69267,1.22095 a 0.22870098,0.22870098 0 0 0 -0.1346,0.2083 v 20.47161 a 0.22870098,0.22870098 0 0 0 0.30379,0.2157 l 10.19403,-3.5381 -0.007,3.66571 -10.3381,3.58792 a 0.22870098,0.22870098 0 0 0 -0.15355,0.21611 v 0.24864 a 0.22870098,0.22870098 0 0 0 0.13461,0.20871 c 1.7372,0.78419 3.66504,1.22052 5.69267,1.22052 2.12314,0 4.13638,-0.47898 5.93636,-1.33414 a 0.22870098,0.22870098 0 0 0 0.13049,-0.20665 v -12.18269 a 0.22870098,0.22870098 0 0 0 -0.30132,-0.21694 l -2.58473,0.86446 -0.006,-3.6439 9.08546,-3.03878 a 0.22870098,0.22870098 0 0 0 0.13172,-0.31944 c -0.60892,-1.21074 -1.38955,-2.32021 -2.31057,-3.29605 a 0.22870098,0.22870098 0 0 0 -0.23917,-0.0597 l -7.93984,2.66253 a 0.22870098,0.22870098 0 0 0 -0.15602,0.21694 v 11.05602 l -3.41131,1.11474 v -10.87324 a 0.22870098,0.22870098 0 0 0 -0.30174,-0.21694 l -2.5584,0.85787 0.002,-3.65419 10.67565,-3.5801 a 0.22870098,0.22870098 0 0 0 0.0293,-0.42152 c -1.86171,-0.9301 -3.96139,-1.45435 -6.1817,-1.45435 z m 0,0.45735 c 1.94099,0 3.77488,0.4317 5.44033,1.17483 l -10.26483,3.4422 a 0.22870098,0.22870098 0 0 0 -0.15601,0.21694 l -0.002,4.13705 a 0.22870098,0.22870098 0 0 0 0.30132,0.21694 l 2.5588,-0.85828 v 10.87077 a 0.22870098,0.22870098 0 0 0 0.29968,0.21735 l 3.86866,-1.26418 a 0.22870098,0.22870098 0 0 0 0.15766,-0.21735 v -11.05724 l 7.6344,-2.56045 c 0.78871,0.85344 1.46064,1.81207 2.00802,2.84819 l -8.97267,3.0009 a 0.22870098,0.22870098 0 0 0 -0.15602,0.21735 l 0.007,4.12553 a 0.22870098,0.22870098 0 0 0 0.30133,0.21653 l 2.58432,-0.86405 v 11.71176 c -1.70781,0.78949 -3.6051,1.2366 -5.60952,1.2366 -1.87499,0 -3.65474,-0.39493 -5.27525,-1.09087 l 10.24301,-3.55498 a 0.22870098,0.22870098 0 0 0 0.15395,-0.2157 l 0.007,-4.14981 a 0.22870098,0.22870098 0 0 0 -0.30379,-0.21613 l -10.19443,3.53812 v -19.99452 c 1.6451,-0.72135 3.45904,-1.1275 5.36993,-1.1275 z m -9.78155,3.67353 a 0.22870098,0.22870098 0 0 0 -0.15396,0.0691 c -2.4295,2.49743 -3.92793,5.9077 -3.92793,9.663 0,3.7553 1.49843,7.16557 3.92793,9.663 a 0.22870098,0.22870098 0 0 0 0.39272,-0.1593 v -19.00737 a 0.22870098,0.22870098 0 0 0 -0.23876,-0.22847 z m -0.21859,0.83112 v 17.80209 c -2.11124,-2.36944 -3.40596,-5.48009 -3.40596,-8.90105 0,-3.42101 1.29466,-6.5316 3.40596,-8.90104 z m 23.4289,6.27473 a 0.22870098,0.22870098 0 0 0 -0.0778,0.0119 l -3.6579,1.22342 a 0.22870098,0.22870098 0 0 0 -0.15601,0.21694 v 10.68347 a 0.22870098,0.22870098 0 0 0 0.3923,0.15972 c 2.43294,-2.49798 3.9337,-5.91088 3.9337,-9.66918 0,-0.83149 -0.0738,-1.64618 -0.21447,-2.43777 a 0.22870098,0.22870098 0 0 0 -0.21981,-0.18854 z m -0.19513,0.53308 c 0.10747,0.68298 0.17207,1.38004 0.17207,2.09323 0,3.42388 -1.29686,6.53704 -3.41132,8.90721 v -9.91657 z" />
  </g>
</svg>
