<?xml version="1.0" encoding="UTF-8" standalone="no"?>
<svg
   xmlns:dc="http://purl.org/dc/elements/1.1/"
   xmlns:cc="http://creativecommons.org/ns#"
   xmlns:rdf="http://www.w3.org/1999/02/22-rdf-syntax-ns#"
   xmlns:svg="http://www.w3.org/2000/svg"
   xmlns="http://www.w3.org/2000/svg"
   xmlns:sodipodi="http://sodipodi.sourceforge.net/DTD/sodipodi-0.dtd"
   xmlns:inkscape="http://www.inkscape.org/namespaces/inkscape"
   width="210mm"
   height="297mm"
   viewBox="0 0 210 297"
   version="1.1"
   id="svg8"
   inkscape:version="1.0.1 (3bc2e813f5, 2020-09-07)"
   sodipodi:docname="traced-artwork.svg">
  <defs
     id="defs2" />
  <sodipodi:namedview
     id="base"
     pagecolor="#ffffff"
     bordercolor="#666666"
     borderopacity="1.0"
     inkscape:pageopacity="0.0"
     inkscape:pageshadow="2"
     inkscape:zoom="4"
     inkscape:cx="-1121.3098"
     inkscape:cy="-780.86534"
     inkscape:document-units="mm"
     inkscape:current-layer="layer1"
     inkscape:document-rotation="0"
     showgrid="false"
     inkscape:window-width="1920"
     inkscape:window-height="1018"
     inkscape:window-x="-6"
     inkscape:window-y="-6"
     inkscape:window-maximized="1" />
  <metadata
     id="metadata5">
    <rdf:RDF>
      <cc:Work
         rdf:about="">
        <dc:format>image/svg+xml</dc:format>
        <dc:type
           rdf:resource="http://purl.org/dc/dcmitype/StillImage" />
        <dc:title></dc:title>
      </cc:Work>
    </rdf:RDF>
  </metadata>
  <g
     inkscape:label="Layer 1"
     inkscape:groupmode="layer"
     id="layer1">
    <rect
       style="opacity:0.9905;fill:#000000;fill-opacity:0.643357;stroke-width:2.00001;stroke-linecap:round;stroke-linejoin:round;stroke-miterlimit:1.41421;paint-order:stroke fill markers"
       id="rect930"
       width="15.24"
       height="12.065"
       x="-333.375"
       y="-218.01666" />
    <g
       id="g955">
      <path
         id="rect934"
         style="opacity:0.9905;fill:#ffeeaa;fill-opacity:0.643357;stroke-width:2;stroke-linecap:round;stroke-linejoin:round;stroke-miterlimit:1.41421;paint-order:stroke fill markers"
         d="m -310.02462,-222.42478 c -5.76619,-1e-5 -10.44062,4.67439 -10.44065,10.44058 -1e-5,5.76622 4.67443,10.44066 10.44065,10.44065 2.32769,0 6.42362,0 6.42362,0 h 42.57777 v -20.88123 h -40.97455 c 0,0 -4.92491,1e-5 -8.02684,0 z"
         sodipodi:nodetypes="sssccccs" />
      <path
         style="fill:#000000;fill-opacity:1;stroke-width:1"
         d="m -293.93444,-205.36999 c -0.25949,-0.0831 -0.4406,-0.20512 -0.64946,-0.43743 -0.25295,-0.28134 -0.34941,-0.55134 -0.35127,-0.98323 -0.002,-0.44826 0.0944,-0.70382 0.38246,-1.01499 0.2961,-0.31983 0.58105,-0.44442 1.01744,-0.44488 0.27389,-2.9e-4 0.36285,0.0163 0.54766,0.10224 0.28139,0.13081 0.58225,0.43132 0.71464,0.7138 0.0926,0.19767 0.10341,0.26484 0.10341,0.64475 0,0.40073 -0.007,0.43807 -0.12503,0.67795 -0.23245,0.472 -0.65668,0.75603 -1.17373,0.78583 -0.18687,0.0108 -0.34027,-0.004 -0.46612,-0.044 z m 0.90935,-0.37453 c 0.36721,-0.2152 0.5363,-0.5202 0.55865,-1.00765 0.0152,-0.33254 0.0108,-0.35608 -0.11348,-0.59511 -0.22308,-0.4292 -0.60772,-0.64846 -1.06485,-0.60701 -0.38072,0.0345 -0.69816,0.26304 -0.89502,0.64429 -0.0741,0.14354 -0.0894,0.23227 -0.0893,0.51935 8e-5,0.30024 0.0137,0.37245 0.10282,0.54353 0.13236,0.25417 0.30621,0.42603 0.5478,0.54153 0.26915,0.12869 0.6972,0.11121 0.95339,-0.0389 z m 2.59829,0.36075 c -0.12059,-0.0386 -0.2937,-0.12498 -0.38471,-0.19206 -0.14449,-0.1065 -0.16687,-0.1132 -0.17657,-0.0529 -0.0372,0.23111 -0.0477,0.24725 -0.15373,0.23503 l -0.10445,-0.012 -0.01,-1.81691 -0.01,-1.81691 0.097,-0.0244 c 0.18499,-0.0464 0.21147,0.0237 0.21147,0.56012 v 0.48953 l 0.18405,-0.0911 c 0.58278,-0.28842 1.24348,-0.17523 1.66419,0.28509 0.71239,0.77947 0.3771,2.16558 -0.59357,2.45384 -0.24909,0.074 -0.45337,0.0691 -0.72374,-0.0174 z m 0.83244,-0.34425 c 0.32915,-0.17471 0.55153,-0.58453 0.55718,-1.02679 0.006,-0.48203 -0.19471,-0.85663 -0.57408,-1.07061 -0.19127,-0.10788 -0.24299,-0.11925 -0.53859,-0.11833 -0.28525,8.7e-4 -0.35647,0.0157 -0.55782,0.11643 l -0.23083,0.11543 -0.0104,0.82317 -0.0104,0.82317 0.10658,0.11215 c 0.2353,0.24761 0.61112,0.38601 0.93369,0.34384 0.0741,-0.01 0.22016,-0.063 0.32467,-0.11846 z m 2.54617,0.35803 c -0.25949,-0.0831 -0.4406,-0.20512 -0.64946,-0.43743 -0.2562,-0.28495 -0.35221,-0.55297 -0.35221,-0.98323 0,-0.44913 0.0968,-0.70545 0.3834,-1.01499 0.2961,-0.31983 0.58104,-0.44442 1.01744,-0.44488 0.27389,-2.9e-4 0.36284,0.0163 0.54766,0.10224 0.28139,0.13081 0.58224,0.43132 0.71463,0.7138 0.0926,0.19758 0.10342,0.26492 0.10342,0.64383 0,0.37646 -0.0111,0.44654 -0.10041,0.63477 -0.23646,0.49827 -0.66893,0.79911 -1.19242,0.82948 -0.19298,0.0112 -0.34479,-0.003 -0.47205,-0.0436 z m 0.90934,-0.37453 c 0.19568,-0.11468 0.33799,-0.26928 0.46305,-0.50305 0.0711,-0.13292 0.0847,-0.22018 0.0847,-0.54308 0,-0.35417 -0.009,-0.40099 -0.11364,-0.58986 -0.13512,-0.24393 -0.2755,-0.37011 -0.55441,-0.49831 -0.38367,-0.17636 -0.85731,-0.0755 -1.16484,0.24818 -0.25277,0.266 -0.32167,0.44691 -0.31992,0.83999 0.001,0.28657 0.0171,0.37587 0.0917,0.51818 0.25543,0.48744 0.54086,0.66259 1.04618,0.64198 0.23374,-0.01 0.32827,-0.0326 0.46721,-0.11403 z m 2.15993,0.36178 c -0.26795,-0.12169 -0.28492,-0.20892 -0.28492,-1.46438 v -1.07439 l -0.20197,-0.0116 c -0.19618,-0.0113 -0.20197,-0.0149 -0.20197,-0.12704 0,-0.1121 0.006,-0.11575 0.20197,-0.12704 l 0.20197,-0.0116 v -0.41669 -0.41668 l 0.1058,-0.0203 c 0.17741,-0.0341 0.20197,0.0217 0.20197,0.45847 v 0.39923 h 0.51935 0.51935 v 0.13464 0.13465 h -0.51935 -0.51935 v 1.05969 1.05969 l 0.0996,0.0996 c 0.0917,0.0918 0.1175,0.0977 0.32847,0.0756 0.12591,-0.0132 0.31481,-0.0609 0.41978,-0.10603 0.15478,-0.0666 0.20177,-0.073 0.24859,-0.0342 0.15167,0.12588 -0.007,0.28462 -0.40129,0.40029 -0.27424,0.0806 -0.52357,0.0764 -0.71795,-0.0118 z m 4.20637,0.0315 c -0.907,-0.21377 -1.3905,-1.21208 -0.99567,-2.05583 0.1588,-0.33934 0.34898,-0.53245 0.69073,-0.70134 0.27201,-0.13444 0.31476,-0.14406 0.63972,-0.14388 0.30997,1.5e-4 0.37571,0.0133 0.59829,0.11962 0.27063,0.12926 0.46165,0.28496 0.46165,0.37629 0,0.0315 -0.0375,0.0837 -0.0834,0.11578 -0.0777,0.0544 -0.0955,0.0495 -0.25968,-0.0709 -0.80151,-0.58799 -1.86257,-0.0634 -1.86257,0.92089 0,1.01231 1.15248,1.5477 1.89483,0.88027 0.19202,-0.17264 0.20037,-0.17599 0.27368,-0.10965 0.10356,0.0937 0.0949,0.17832 -0.0302,0.29318 -0.37709,0.3464 -0.86518,0.4845 -1.3274,0.37556 z m 2.73142,0.002 c -0.18287,-0.046 -0.49891,-0.20511 -0.56464,-0.28432 -0.0417,-0.0503 -0.0395,-0.0768 0.0129,-0.15688 0.076,-0.11593 0.0814,-0.11649 0.20276,-0.021 0.14116,0.11104 0.49266,0.2324 0.67309,0.2324 0.39218,0 0.68587,-0.21346 0.68587,-0.49851 0,-0.26851 -0.14806,-0.37949 -0.924,-0.69256 -0.48703,-0.1965 -0.69818,-0.42546 -0.69818,-0.75708 0,-0.63112 0.81383,-0.94077 1.55486,-0.5916 0.18915,0.0891 0.22375,0.1615 0.13465,0.28165 -0.0446,0.0602 -0.0646,0.0582 -0.27891,-0.0274 -0.449,-0.17935 -0.77115,-0.16162 -0.98708,0.0543 -0.0855,0.0855 -0.10934,0.14464 -0.10934,0.27125 0,0.23676 0.15516,0.36556 0.68497,0.56863 0.23509,0.0901 0.5104,0.21928 0.61179,0.28705 0.675,0.4511 0.29568,1.31508 -0.59616,1.35792 -0.142,0.007 -0.32317,-0.004 -0.40261,-0.0239 z m -19.93803,-0.0833 c -0.0107,-0.0279 -0.0149,-0.65657 -0.009,-1.39701 l 0.0101,-1.34626 h 0.11541 c 0.1056,0 0.11643,0.0123 0.12735,0.14427 0.0137,0.16503 0.0423,0.17746 0.1456,0.0632 0.20201,-0.22354 0.67251,-0.34749 1.01091,-0.26631 0.24377,0.0585 0.29233,0.11164 0.22898,0.25068 -0.0433,0.095 -0.0595,0.10154 -0.18387,0.0737 -0.075,-0.0168 -0.24118,-0.0308 -0.36927,-0.0311 -0.25413,-5.8e-4 -0.48405,0.10338 -0.67117,0.30352 l -0.0962,0.10286 -0.0192,1.06454 -0.0192,1.06453 -0.12529,0.0121 c -0.0777,0.007 -0.1327,-0.007 -0.14478,-0.0387 z m 14.92661,0 c -0.0107,-0.0279 -0.0149,-0.65657 -0.009,-1.39701 l 0.0101,-1.34626 h 0.13465 0.13464 v 1.38494 1.38495 l -0.12529,0.0121 c -0.0777,0.007 -0.1327,-0.007 -0.14477,-0.0387 z m -0.0349,-3.24613 c -0.13591,-0.13592 -0.0276,-0.4012 0.16378,-0.4012 0.11011,0 0.23741,0.13089 0.23741,0.2441 0,0.18548 -0.2679,0.29039 -0.40119,0.1571 z m 5.58714,-1.67217 c -1.20181,-0.29552 -2.11292,-1.1671 -2.47994,-2.37233 -0.0926,-0.30403 -0.10312,-0.39898 -0.10369,-0.9347 -5.8e-4,-0.49707 0.0135,-0.64751 0.0841,-0.90406 0.17235,-0.62613 0.48516,-1.15017 0.95441,-1.5989 0.46533,-0.44497 0.92418,-0.6985 1.54114,-0.85154 0.46455,-0.11524 1.20298,-0.11363 1.64659,0.004 1.22459,0.32356 2.18664,1.29989 2.48687,2.52379 0.11757,0.47927 0.11779,1.13475 5.9e-4,1.61577 -0.26862,1.10199 -1.11347,2.04834 -2.14982,2.40807 -0.59029,0.20489 -1.40986,0.25055 -1.98018,0.11031 z m 1.33282,-1.21148 c 0.75062,-0.19551 1.38351,-0.81934 1.57987,-1.55726 0.0309,-0.11621 0.0564,-0.37053 0.0567,-0.56516 10e-4,-0.84009 -0.46239,-1.58626 -1.21136,-1.95021 -0.87561,-0.4255 -1.84212,-0.25131 -2.50949,0.45225 -0.5451,0.57467 -0.73986,1.29766 -0.54977,2.04089 0.10668,0.41713 0.24323,0.6508 0.57712,0.9876 0.30968,0.3124 0.63585,0.50439 1.01149,0.59542 0.28063,0.068 0.77729,0.0663 1.04546,-0.004 z m -21.83008,-2.11479 v -3.32771 h 0.61553 0.61553 v 1.34647 1.34647 h 1.55806 1.55806 v -1.34647 -1.34647 h 0.61553 0.61553 v 3.32771 3.32771 h -0.61553 -0.61553 v -1.40418 -1.40418 h -1.55806 -1.55806 v 1.40418 1.40418 h -0.61553 -0.61553 z m 6.34765,3.31262 c 0,-0.009 0.69801,-1.52885 1.55113,-3.37673 l 1.55114,-3.35978 h 0.16676 0.16676 l 1.51376,3.30848 c 0.83257,1.81966 1.52366,3.33919 1.53577,3.37674 0.0206,0.0638 -0.02,0.0676 -0.62128,0.0577 l -0.64329,-0.0106 -0.25881,-0.57029 c -0.14235,-0.31365 -0.27507,-0.58654 -0.29493,-0.6064 -0.0216,-0.0216 -0.60022,-0.032 -1.43565,-0.026 l -1.39953,0.0101 -0.27252,0.5963 -0.27252,0.59629 -0.64339,0.0105 c -0.35387,0.006 -0.6434,0.003 -0.6434,-0.006 z m 4.19158,-2.28353 c -0.004,-0.0657 -0.9153,-2.02711 -0.94593,-2.03583 -0.0244,-0.007 -0.83087,1.75071 -0.931,2.02904 -0.008,0.0213 0.36883,0.0356 0.93292,0.0356 0.52015,0 0.94496,-0.013 0.94401,-0.0288 z m 3.07938,-1.02909 v -3.32771 h 0.61553 0.61553 v 2.75065 2.75065 h 1.308 1.308 v 0.57706 0.57706 h -1.92353 -1.92353 z m 12.34907,4.4e-4 v -3.33291 l 1.52921,0.0149 c 1.72088,0.0167 1.71603,0.0161 2.343,0.31836 0.85867,0.414 1.48928,1.15461 1.76764,2.07598 0.0916,0.30311 0.10488,0.41331 0.10688,0.88482 0.003,0.65975 -0.0533,0.9058 -0.3438,1.50709 -0.17669,0.36578 -0.2569,0.48165 -0.53773,0.77675 -0.47329,0.49735 -0.95839,0.79614 -1.57685,0.97125 -0.28952,0.082 -0.39114,0.0877 -1.79761,0.10179 l -1.49074,0.0149 z m 2.91872,2.08326 c 1.07582,-0.3094 1.70355,-1.38522 1.49179,-2.55666 -0.0761,-0.42114 -0.23308,-0.74543 -0.50063,-1.03442 -0.27565,-0.29773 -0.52327,-0.45719 -0.89163,-0.57416 -0.2644,-0.084 -0.35528,-0.092 -1.03847,-0.092 h -0.74871 v 2.17816 2.17815 l 0.74056,-0.0198 c 0.49876,-0.0134 0.80799,-0.0392 0.94709,-0.0792 z m 4.12141,-2.08366 v -3.32772 h 0.61553 0.61553 v 3.32772 3.32771 h -0.61553 -0.61553 z"
         id="path851"
         sodipodi:nodetypes="sssssssssssssssssssssssscccsscsssssssssscccsssssssssssscsssssssscssscscssscccsscccccccccsssssccssscssssssssssssssssssssssssssssccsssssssscccssssccccccssssssssssccsssscssssscssssssscccccccccccccccccccccccccsscccssscssscccsssssssscccccccccccccccssscssssccssssscccsssccccccccc" />
      <path
         id="path873"
         style="opacity:0.9905;fill:#000000;fill-opacity:1;stroke-width:2;stroke-linecap:round;stroke-linejoin:round;stroke-miterlimit:1.41421;paint-order:stroke fill markers"
         d="m -309.29174,-220.37625 c -0.36484,-0.004 -0.69306,0.0602 -0.91285,0.19604 -0.46108,0.28496 -0.91348,1.17261 -1.01293,1.98732 -0.0227,0.18628 -0.0616,0.49446 -0.0863,0.68488 -0.0666,0.51294 -0.062,0.78612 0.0156,0.94254 0.0368,0.0741 0.18049,0.27314 0.31941,0.44241 0.13893,0.16927 0.37262,0.47986 0.51928,0.69022 0.24435,0.35047 0.2666,0.39875 0.26659,0.57706 -1e-5,0.36742 -0.23499,1.57277 -0.33962,1.74207 -0.0169,0.0273 -0.26064,0.0698 -0.60411,0.10542 -0.31669,0.0328 -0.7057,0.0759 -0.86439,0.0956 -0.15869,0.0198 -0.43169,0.0474 -0.60674,0.0615 l -0.31828,0.0255 -0.16508,-0.15216 c -0.24088,-0.22203 -0.47414,-0.34608 -0.81404,-0.43301 -0.36744,-0.094 -0.8259,-0.0998 -1.17103,-0.0149 -0.32951,0.0811 -0.80304,0.3274 -1.04111,0.54144 -0.38804,0.34889 -0.7308,0.9852 -0.82659,1.53455 -0.12602,0.72264 -0.0476,1.5756 0.31047,3.37512 0.0719,0.36126 0.058,0.48868 -0.1224,1.12293 -0.0301,0.1058 -0.12567,0.45203 -0.21242,0.76942 -0.0867,0.31738 -0.17606,0.61168 -0.19844,0.654 -0.0363,0.0686 -0.37452,0.5287 -0.45225,0.61838 0.77025,0.81426 1.6666,1.49917 2.65462,2.02843 -0.0307,-0.0977 -0.0373,-0.36762 -0.0453,-1.24564 l -0.0113,-1.24729 0.19934,-0.71171 c 0.19582,-0.6992 0.2999,-1.08134 0.51319,-1.88506 0.18997,-0.7158 0.27348,-1.01802 0.2844,-1.02894 0.006,-0.006 0.0409,0.21026 0.0779,0.48029 0.22148,1.61648 0.59032,2.90259 1.3213,4.60731 0.29796,0.69486 0.35572,0.78915 0.57729,0.94253 0.18807,0.13019 0.19392,0.13974 0.17559,0.28853 -0.0104,0.0846 -0.0307,0.31865 -0.0451,0.52003 l -0.0245,0.34157 c 0.62894,0.11686 1.2673,0.17567 1.907,0.17568 0.85881,-3e-5 1.71433,-0.10603 2.54718,-0.31558 -0.0122,-0.0215 -0.0129,-0.0669 -0.0132,-0.15351 -4.4e-4,-0.10091 -0.0263,-0.33929 -0.0576,-0.52972 -0.0313,-0.19043 -0.0569,-0.3727 -0.057,-0.40507 -7e-5,-0.0357 0.079,-0.0886 0.2013,-0.13465 0.32386,-0.12188 0.48416,-0.31474 0.67076,-0.80676 0.69518,-1.83309 0.98679,-2.91877 1.0934,-4.07119 0.0267,-0.28835 0.0595,-0.54211 0.073,-0.56384 0.0167,-0.027 0.243,-0.026 0.71449,0.003 0.77541,0.0479 2.00294,0.0208 2.69362,-0.0595 0.50207,-0.0584 0.41104,-0.0746 1.43957,0.25727 0.33574,0.10834 0.39313,0.13285 0.39485,0.19911 0.27742,-0.69713 0.47887,-1.42215 0.60088,-2.16247 l -0.31964,-0.02 c -0.30874,-0.0194 -0.48903,-0.0682 -1.56092,-0.42258 l -1.21182,-0.40064 -0.17785,-0.44218 c -0.20882,-0.5191 -0.3902,-0.81693 -0.6543,-1.07418 -0.37695,-0.36715 -1.00008,-0.5699 -1.59751,-0.5198 -0.43283,0.0363 -0.70934,0.1623 -1.18267,0.53904 l -0.13871,0.11045 -0.9807,-0.20663 -0.9807,-0.20663 -8e-5,-0.40394 -7e-5,-0.40394 0.34743,-0.0675 c 0.68272,-0.13255 1.08425,-0.44227 1.3999,-1.07989 0.39169,-0.79121 0.59907,-1.70616 0.59907,-2.6429 0,-0.46182 -0.0145,-0.61521 -0.0779,-0.82043 -0.18808,-0.60894 -0.86076,-1.32051 -1.59556,-1.68783 -0.43757,-0.21874 -0.96718,-0.33512 -1.43626,-0.33985 z m 9.5683,10.08938 v 1e-5 z m -8.0179,-7.7401 c 0.12856,-0.007 0.23229,0.2343 0.19964,0.50997 -0.0409,0.34522 -0.22062,0.4846 -0.35683,0.27673 -0.11955,-0.18245 -0.0554,-0.67123 0.10084,-0.76776 0.019,-0.0118 0.038,-0.0179 0.0564,-0.0189 z m 1.05704,0.42701 c 0.0368,-10e-4 0.0626,0.0391 0.10437,0.13901 0.13988,0.33477 -0.10241,0.8749 -0.2602,0.58007 -0.0964,-0.18005 -0.0373,-0.6044 0.0965,-0.69376 0.0237,-0.0158 0.0427,-0.0248 0.0594,-0.0253 z"
         sodipodi:nodetypes="csssssssssccsssssssssccsccsssssscccccscsssssssccccccsscccccccssssscccccccscscssssss" />
      <path
         style="opacity:0.9905;fill:#f8cb00;stroke-width:1"
         d="m -312.18374,-201.74075 c -0.30672,-0.0558 -0.87042,-0.21272 -1.30459,-0.36315 -0.36302,-0.12579 -1.33315,-0.54916 -1.4344,-0.62599 -0.059,-0.0448 -0.0667,-0.17495 -0.0769,-1.29709 l -0.0113,-1.24731 0.19932,-0.71171 c 0.19582,-0.69921 0.29984,-1.08135 0.51314,-1.88506 0.18997,-0.71581 0.27351,-1.01803 0.28443,-1.02895 0.006,-0.006 0.041,0.21025 0.0779,0.48028 0.22148,1.61649 0.59031,2.9026 1.32129,4.60732 0.29796,0.69486 0.35571,0.78915 0.57727,0.94253 0.18808,0.13019 0.19389,0.13974 0.17556,0.28853 -0.0104,0.0846 -0.0307,0.31864 -0.0451,0.52001 l -0.0262,0.36614 z m 4.69307,-0.27243 c -4.4e-4,-0.1009 -0.0263,-0.33927 -0.0576,-0.5297 -0.0313,-0.19043 -0.057,-0.37272 -0.057,-0.40509 -7e-5,-0.0357 0.079,-0.0886 0.20125,-0.13465 0.32386,-0.12188 0.48421,-0.31472 0.6708,-0.80673 0.69519,-1.8331 0.98678,-2.91881 1.0934,-4.07124 0.0267,-0.28834 0.0595,-0.54205 0.0729,-0.56378 0.0167,-0.027 0.24303,-0.026 0.71452,0.003 0.77541,0.0479 2.00295,0.0208 2.69362,-0.0595 0.50207,-0.0584 0.41106,-0.0747 1.43959,0.25725 0.37516,0.12107 0.40323,0.13703 0.39386,0.22407 -0.0189,0.17537 -0.65847,1.40628 -0.98406,1.89383 -1.14803,1.7191 -2.74492,3.05299 -4.60466,3.84631 -0.37367,0.1594 -1.22628,0.4531 -1.47018,0.50644 -0.10379,0.0227 -0.1058,0.0197 -0.10646,-0.16033 z m -10.40891,-3.09112 c -1.68779,-1.97233 -2.56677,-4.33092 -2.56514,-6.88312 10e-4,-2.08542 0.61404,-4.08719 1.78325,-5.82605 0.74146,-1.10269 1.75611,-2.11205 2.88181,-2.86677 3.07855,-2.064 7.08294,-2.31461 10.42268,-0.65229 3.09182,1.53892 5.17184,4.40704 5.70313,7.86399 0.10293,0.66976 0.12005,2.01603 0.0347,2.72668 l -0.0549,0.45692 -0.34905,-0.0219 c -0.30874,-0.0194 -0.48899,-0.0682 -1.56087,-0.42257 l -1.21183,-0.40068 -0.17786,-0.44215 c -0.20882,-0.51909 -0.39026,-0.81693 -0.65436,-1.07418 -0.37694,-0.36715 -1.00006,-0.56991 -1.59749,-0.51981 -0.43283,0.0363 -0.70929,0.1623 -1.18263,0.53905 l -0.13875,0.11044 -0.98069,-0.20662 -0.9807,-0.20661 -7e-5,-0.40395 -8e-5,-0.40394 0.34747,-0.0675 c 0.68272,-0.13254 1.08424,-0.44228 1.39989,-1.0799 0.39169,-0.79121 0.59909,-1.70619 0.59909,-2.64293 0,-0.46182 -0.0146,-0.61522 -0.078,-0.82044 -0.18808,-0.60893 -0.86071,-1.32046 -1.59551,-1.68778 -0.77791,-0.38887 -1.84676,-0.45431 -2.34913,-0.14383 -0.46109,0.28497 -0.91353,1.17259 -1.01299,1.9873 -0.0227,0.18627 -0.0616,0.49449 -0.0863,0.68492 -0.0666,0.51293 -0.062,0.78611 0.0156,0.94253 0.0367,0.0741 0.18049,0.27314 0.31942,0.44241 0.13893,0.16927 0.37259,0.47988 0.51926,0.69024 0.24434,0.35048 0.26665,0.39875 0.26664,0.57706 -10e-6,0.36742 -0.23502,1.57272 -0.33965,1.74201 -0.0169,0.0273 -0.26065,0.0699 -0.60413,0.10548 -0.31669,0.0328 -0.70564,0.0759 -0.86433,0.0956 -0.15869,0.0198 -0.43175,0.0474 -0.6068,0.0615 l -0.31827,0.0255 -0.16504,-0.15213 c -0.24088,-0.22204 -0.47413,-0.34613 -0.81404,-0.43306 -0.36743,-0.094 -0.82591,-0.0998 -1.17104,-0.0148 -0.32951,0.0811 -0.80309,0.32739 -1.04115,0.54143 -0.38805,0.34889 -0.73078,0.98515 -0.82658,1.53449 -0.12602,0.72265 -0.0476,1.57562 0.31047,3.37514 0.0719,0.36126 0.058,0.48871 -0.12237,1.12297 -0.0301,0.10579 -0.12568,0.45203 -0.21243,0.76941 -0.0867,0.31738 -0.17605,0.61168 -0.19843,0.654 -0.0402,0.076 -0.45267,0.63477 -0.46857,0.63477 -0.005,0 -0.12794,-0.1399 -0.27426,-0.31089 z m 11.05944,-11.77664 c -0.0964,-0.18004 -0.0374,-0.60441 0.0965,-0.69376 0.0758,-0.0506 0.10303,-0.0317 0.16375,0.11367 0.13988,0.33477 -0.10242,0.87493 -0.26021,0.58009 z m -1.05841,-0.35936 c -0.11955,-0.18246 -0.0553,-0.67129 0.10085,-0.76782 0.15242,-0.0942 0.29327,0.17604 0.25596,0.49108 -0.0409,0.34523 -0.22061,0.48461 -0.35681,0.27674 z"
         id="path863-3-4" />
    </g>
  </g>
</svg>
