G04 #@! TF.GenerationSoftware,KiCad,Pcbnew,(5.1.8)-1*
G04 #@! TF.CreationDate,2021-05-01T00:31:05-04:00*
G04 #@! TF.ProjectId,pcb,7063622e-6b69-4636-9164-5f7063625858,1*
G04 #@! TF.SameCoordinates,Original*
G04 #@! TF.FileFunction,Copper,L2,Bot*
G04 #@! TF.FilePolarity,Positive*
%FSLAX46Y46*%
G04 Gerber Fmt 4.6, Leading zero omitted, Abs format (unit mm)*
G04 Created by KiCad (PCBNEW (5.1.8)-1) date 2021-05-01 00:31:05*
%MOMM*%
%LPD*%
G01*
G04 APERTURE LIST*
G04 #@! TA.AperFunction,SMDPad,CuDef*
%ADD10C,1.500000*%
G04 #@! TD*
G04 #@! TA.AperFunction,SMDPad,CuDef*
%ADD11C,0.152400*%
G04 #@! TD*
G04 #@! TA.AperFunction,SMDPad,CuDef*
%ADD12R,1.060000X0.650000*%
G04 #@! TD*
G04 #@! TA.AperFunction,SMDPad,CuDef*
%ADD13R,1.400000X1.250000*%
G04 #@! TD*
G04 #@! TA.AperFunction,ViaPad*
%ADD14C,0.508000*%
G04 #@! TD*
G04 #@! TA.AperFunction,Conductor*
%ADD15C,0.152400*%
G04 #@! TD*
G04 #@! TA.AperFunction,Conductor*
%ADD16C,0.508000*%
G04 #@! TD*
G04 #@! TA.AperFunction,Conductor*
%ADD17C,0.254000*%
G04 #@! TD*
G04 APERTURE END LIST*
G04 #@! TA.AperFunction,SMDPad,CuDef*
G36*
G01*
X200639340Y-112228249D02*
X201028249Y-111839340D01*
G75*
G02*
X201311091Y-111839340I141421J-141421D01*
G01*
X201593934Y-112122183D01*
G75*
G02*
X201593934Y-112405025I-141421J-141421D01*
G01*
X201205025Y-112793934D01*
G75*
G02*
X200922183Y-112793934I-141421J141421D01*
G01*
X200639340Y-112511091D01*
G75*
G02*
X200639340Y-112228249I141421J141421D01*
G01*
G37*
G04 #@! TD.AperFunction*
G04 #@! TA.AperFunction,SMDPad,CuDef*
G36*
G01*
X201806066Y-113394975D02*
X202194975Y-113006066D01*
G75*
G02*
X202477817Y-113006066I141421J-141421D01*
G01*
X202760660Y-113288909D01*
G75*
G02*
X202760660Y-113571751I-141421J-141421D01*
G01*
X202371751Y-113960660D01*
G75*
G02*
X202088909Y-113960660I-141421J141421D01*
G01*
X201806066Y-113677817D01*
G75*
G02*
X201806066Y-113394975I141421J141421D01*
G01*
G37*
G04 #@! TD.AperFunction*
G04 #@! TA.AperFunction,SMDPad,CuDef*
G36*
G01*
X202693934Y-111305025D02*
X202305025Y-111693934D01*
G75*
G02*
X202022183Y-111693934I-141421J141421D01*
G01*
X201739340Y-111411091D01*
G75*
G02*
X201739340Y-111128249I141421J141421D01*
G01*
X202128249Y-110739340D01*
G75*
G02*
X202411091Y-110739340I141421J-141421D01*
G01*
X202693934Y-111022183D01*
G75*
G02*
X202693934Y-111305025I-141421J-141421D01*
G01*
G37*
G04 #@! TD.AperFunction*
G04 #@! TA.AperFunction,SMDPad,CuDef*
G36*
G01*
X203860660Y-112471751D02*
X203471751Y-112860660D01*
G75*
G02*
X203188909Y-112860660I-141421J141421D01*
G01*
X202906066Y-112577817D01*
G75*
G02*
X202906066Y-112294975I141421J141421D01*
G01*
X203294975Y-111906066D01*
G75*
G02*
X203577817Y-111906066I141421J-141421D01*
G01*
X203860660Y-112188909D01*
G75*
G02*
X203860660Y-112471751I-141421J-141421D01*
G01*
G37*
G04 #@! TD.AperFunction*
G04 #@! TA.AperFunction,SMDPad,CuDef*
G36*
G01*
X204960660Y-111371751D02*
X204571751Y-111760660D01*
G75*
G02*
X204288909Y-111760660I-141421J141421D01*
G01*
X204006066Y-111477817D01*
G75*
G02*
X204006066Y-111194975I141421J141421D01*
G01*
X204394975Y-110806066D01*
G75*
G02*
X204677817Y-110806066I141421J-141421D01*
G01*
X204960660Y-111088909D01*
G75*
G02*
X204960660Y-111371751I-141421J-141421D01*
G01*
G37*
G04 #@! TD.AperFunction*
G04 #@! TA.AperFunction,SMDPad,CuDef*
G36*
G01*
X203793934Y-110205025D02*
X203405025Y-110593934D01*
G75*
G02*
X203122183Y-110593934I-141421J141421D01*
G01*
X202839340Y-110311091D01*
G75*
G02*
X202839340Y-110028249I141421J141421D01*
G01*
X203228249Y-109639340D01*
G75*
G02*
X203511091Y-109639340I141421J-141421D01*
G01*
X203793934Y-109922183D01*
G75*
G02*
X203793934Y-110205025I-141421J-141421D01*
G01*
G37*
G04 #@! TD.AperFunction*
G04 #@! TA.AperFunction,SMDPad,CuDef*
G36*
G01*
X211975000Y-114375000D02*
X211975000Y-113825000D01*
G75*
G02*
X212175000Y-113625000I200000J0D01*
G01*
X212575000Y-113625000D01*
G75*
G02*
X212775000Y-113825000I0J-200000D01*
G01*
X212775000Y-114375000D01*
G75*
G02*
X212575000Y-114575000I-200000J0D01*
G01*
X212175000Y-114575000D01*
G75*
G02*
X211975000Y-114375000I0J200000D01*
G01*
G37*
G04 #@! TD.AperFunction*
G04 #@! TA.AperFunction,SMDPad,CuDef*
G36*
G01*
X213625000Y-114375000D02*
X213625000Y-113825000D01*
G75*
G02*
X213825000Y-113625000I200000J0D01*
G01*
X214225000Y-113625000D01*
G75*
G02*
X214425000Y-113825000I0J-200000D01*
G01*
X214425000Y-114375000D01*
G75*
G02*
X214225000Y-114575000I-200000J0D01*
G01*
X213825000Y-114575000D01*
G75*
G02*
X213625000Y-114375000I0J200000D01*
G01*
G37*
G04 #@! TD.AperFunction*
G04 #@! TA.AperFunction,SMDPad,CuDef*
G36*
G01*
X216675000Y-111275000D02*
X216125000Y-111275000D01*
G75*
G02*
X215925000Y-111075000I0J200000D01*
G01*
X215925000Y-110675000D01*
G75*
G02*
X216125000Y-110475000I200000J0D01*
G01*
X216675000Y-110475000D01*
G75*
G02*
X216875000Y-110675000I0J-200000D01*
G01*
X216875000Y-111075000D01*
G75*
G02*
X216675000Y-111275000I-200000J0D01*
G01*
G37*
G04 #@! TD.AperFunction*
G04 #@! TA.AperFunction,SMDPad,CuDef*
G36*
G01*
X216675000Y-112925000D02*
X216125000Y-112925000D01*
G75*
G02*
X215925000Y-112725000I0J200000D01*
G01*
X215925000Y-112325000D01*
G75*
G02*
X216125000Y-112125000I200000J0D01*
G01*
X216675000Y-112125000D01*
G75*
G02*
X216875000Y-112325000I0J-200000D01*
G01*
X216875000Y-112725000D01*
G75*
G02*
X216675000Y-112925000I-200000J0D01*
G01*
G37*
G04 #@! TD.AperFunction*
G04 #@! TA.AperFunction,SMDPad,CuDef*
G36*
G01*
X209475000Y-110225000D02*
X209475000Y-110775000D01*
G75*
G02*
X209275000Y-110975000I-200000J0D01*
G01*
X208875000Y-110975000D01*
G75*
G02*
X208675000Y-110775000I0J200000D01*
G01*
X208675000Y-110225000D01*
G75*
G02*
X208875000Y-110025000I200000J0D01*
G01*
X209275000Y-110025000D01*
G75*
G02*
X209475000Y-110225000I0J-200000D01*
G01*
G37*
G04 #@! TD.AperFunction*
G04 #@! TA.AperFunction,SMDPad,CuDef*
G36*
G01*
X211125000Y-110225000D02*
X211125000Y-110775000D01*
G75*
G02*
X210925000Y-110975000I-200000J0D01*
G01*
X210525000Y-110975000D01*
G75*
G02*
X210325000Y-110775000I0J200000D01*
G01*
X210325000Y-110225000D01*
G75*
G02*
X210525000Y-110025000I200000J0D01*
G01*
X210925000Y-110025000D01*
G75*
G02*
X211125000Y-110225000I0J-200000D01*
G01*
G37*
G04 #@! TD.AperFunction*
G04 #@! TA.AperFunction,SMDPad,CuDef*
G36*
G01*
X209595000Y-89055000D02*
X209595000Y-89605000D01*
G75*
G02*
X209395000Y-89805000I-200000J0D01*
G01*
X208995000Y-89805000D01*
G75*
G02*
X208795000Y-89605000I0J200000D01*
G01*
X208795000Y-89055000D01*
G75*
G02*
X208995000Y-88855000I200000J0D01*
G01*
X209395000Y-88855000D01*
G75*
G02*
X209595000Y-89055000I0J-200000D01*
G01*
G37*
G04 #@! TD.AperFunction*
G04 #@! TA.AperFunction,SMDPad,CuDef*
G36*
G01*
X211245000Y-89055000D02*
X211245000Y-89605000D01*
G75*
G02*
X211045000Y-89805000I-200000J0D01*
G01*
X210645000Y-89805000D01*
G75*
G02*
X210445000Y-89605000I0J200000D01*
G01*
X210445000Y-89055000D01*
G75*
G02*
X210645000Y-88855000I200000J0D01*
G01*
X211045000Y-88855000D01*
G75*
G02*
X211245000Y-89055000I0J-200000D01*
G01*
G37*
G04 #@! TD.AperFunction*
G04 #@! TA.AperFunction,SMDPad,CuDef*
G36*
G01*
X201660660Y-114671751D02*
X201271751Y-115060660D01*
G75*
G02*
X200988909Y-115060660I-141421J141421D01*
G01*
X200706066Y-114777817D01*
G75*
G02*
X200706066Y-114494975I141421J141421D01*
G01*
X201094975Y-114106066D01*
G75*
G02*
X201377817Y-114106066I141421J-141421D01*
G01*
X201660660Y-114388909D01*
G75*
G02*
X201660660Y-114671751I-141421J-141421D01*
G01*
G37*
G04 #@! TD.AperFunction*
G04 #@! TA.AperFunction,SMDPad,CuDef*
G36*
G01*
X200493934Y-113505025D02*
X200105025Y-113893934D01*
G75*
G02*
X199822183Y-113893934I-141421J141421D01*
G01*
X199539340Y-113611091D01*
G75*
G02*
X199539340Y-113328249I141421J141421D01*
G01*
X199928249Y-112939340D01*
G75*
G02*
X200211091Y-112939340I141421J-141421D01*
G01*
X200493934Y-113222183D01*
G75*
G02*
X200493934Y-113505025I-141421J-141421D01*
G01*
G37*
G04 #@! TD.AperFunction*
D10*
X216270000Y-107420000D03*
X211190000Y-107420000D03*
X213730000Y-107420000D03*
X208650000Y-107420000D03*
X197570000Y-114970000D03*
G04 #@! TA.AperFunction,SMDPad,CuDef*
G36*
G01*
X206933623Y-113003115D02*
X207022012Y-113091504D01*
G75*
G02*
X207022012Y-113179892I-44194J-44194D01*
G01*
X206544715Y-113657189D01*
G75*
G02*
X206456327Y-113657189I-44194J44194D01*
G01*
X206367938Y-113568800D01*
G75*
G02*
X206367938Y-113480412I44194J44194D01*
G01*
X206845235Y-113003115D01*
G75*
G02*
X206933623Y-113003115I44194J-44194D01*
G01*
G37*
G04 #@! TD.AperFunction*
G04 #@! TA.AperFunction,SMDPad,CuDef*
G36*
G01*
X207287176Y-113356668D02*
X207375565Y-113445057D01*
G75*
G02*
X207375565Y-113533445I-44194J-44194D01*
G01*
X206898268Y-114010742D01*
G75*
G02*
X206809880Y-114010742I-44194J44194D01*
G01*
X206721491Y-113922353D01*
G75*
G02*
X206721491Y-113833965I44194J44194D01*
G01*
X207198788Y-113356668D01*
G75*
G02*
X207287176Y-113356668I44194J-44194D01*
G01*
G37*
G04 #@! TD.AperFunction*
G04 #@! TA.AperFunction,SMDPad,CuDef*
G36*
G01*
X207640730Y-113710221D02*
X207729119Y-113798610D01*
G75*
G02*
X207729119Y-113886998I-44194J-44194D01*
G01*
X207251822Y-114364295D01*
G75*
G02*
X207163434Y-114364295I-44194J44194D01*
G01*
X207075045Y-114275906D01*
G75*
G02*
X207075045Y-114187518I44194J44194D01*
G01*
X207552342Y-113710221D01*
G75*
G02*
X207640730Y-113710221I44194J-44194D01*
G01*
G37*
G04 #@! TD.AperFunction*
G04 #@! TA.AperFunction,SMDPad,CuDef*
G36*
G01*
X207994283Y-114063775D02*
X208082672Y-114152164D01*
G75*
G02*
X208082672Y-114240552I-44194J-44194D01*
G01*
X207605375Y-114717849D01*
G75*
G02*
X207516987Y-114717849I-44194J44194D01*
G01*
X207428598Y-114629460D01*
G75*
G02*
X207428598Y-114541072I44194J44194D01*
G01*
X207905895Y-114063775D01*
G75*
G02*
X207994283Y-114063775I44194J-44194D01*
G01*
G37*
G04 #@! TD.AperFunction*
G04 #@! TA.AperFunction,SMDPad,CuDef*
G36*
G01*
X208347836Y-114417328D02*
X208436225Y-114505717D01*
G75*
G02*
X208436225Y-114594105I-44194J-44194D01*
G01*
X207958928Y-115071402D01*
G75*
G02*
X207870540Y-115071402I-44194J44194D01*
G01*
X207782151Y-114983013D01*
G75*
G02*
X207782151Y-114894625I44194J44194D01*
G01*
X208259448Y-114417328D01*
G75*
G02*
X208347836Y-114417328I44194J-44194D01*
G01*
G37*
G04 #@! TD.AperFunction*
G04 #@! TA.AperFunction,SMDPad,CuDef*
G36*
G01*
X208701390Y-114770881D02*
X208789779Y-114859270D01*
G75*
G02*
X208789779Y-114947658I-44194J-44194D01*
G01*
X208312482Y-115424955D01*
G75*
G02*
X208224094Y-115424955I-44194J44194D01*
G01*
X208135705Y-115336566D01*
G75*
G02*
X208135705Y-115248178I44194J44194D01*
G01*
X208613002Y-114770881D01*
G75*
G02*
X208701390Y-114770881I44194J-44194D01*
G01*
G37*
G04 #@! TD.AperFunction*
G04 #@! TA.AperFunction,SMDPad,CuDef*
G36*
G01*
X209054943Y-115124435D02*
X209143332Y-115212824D01*
G75*
G02*
X209143332Y-115301212I-44194J-44194D01*
G01*
X208666035Y-115778509D01*
G75*
G02*
X208577647Y-115778509I-44194J44194D01*
G01*
X208489258Y-115690120D01*
G75*
G02*
X208489258Y-115601732I44194J44194D01*
G01*
X208966555Y-115124435D01*
G75*
G02*
X209054943Y-115124435I44194J-44194D01*
G01*
G37*
G04 #@! TD.AperFunction*
G04 #@! TA.AperFunction,SMDPad,CuDef*
G36*
G01*
X209408496Y-115477988D02*
X209496885Y-115566377D01*
G75*
G02*
X209496885Y-115654765I-44194J-44194D01*
G01*
X209019588Y-116132062D01*
G75*
G02*
X208931200Y-116132062I-44194J44194D01*
G01*
X208842811Y-116043673D01*
G75*
G02*
X208842811Y-115955285I44194J44194D01*
G01*
X209320108Y-115477988D01*
G75*
G02*
X209408496Y-115477988I44194J-44194D01*
G01*
G37*
G04 #@! TD.AperFunction*
G04 #@! TA.AperFunction,SMDPad,CuDef*
G36*
G01*
X209019588Y-116467938D02*
X209496885Y-116945235D01*
G75*
G02*
X209496885Y-117033623I-44194J-44194D01*
G01*
X209408496Y-117122012D01*
G75*
G02*
X209320108Y-117122012I-44194J44194D01*
G01*
X208842811Y-116644715D01*
G75*
G02*
X208842811Y-116556327I44194J44194D01*
G01*
X208931200Y-116467938D01*
G75*
G02*
X209019588Y-116467938I44194J-44194D01*
G01*
G37*
G04 #@! TD.AperFunction*
G04 #@! TA.AperFunction,SMDPad,CuDef*
G36*
G01*
X208666035Y-116821491D02*
X209143332Y-117298788D01*
G75*
G02*
X209143332Y-117387176I-44194J-44194D01*
G01*
X209054943Y-117475565D01*
G75*
G02*
X208966555Y-117475565I-44194J44194D01*
G01*
X208489258Y-116998268D01*
G75*
G02*
X208489258Y-116909880I44194J44194D01*
G01*
X208577647Y-116821491D01*
G75*
G02*
X208666035Y-116821491I44194J-44194D01*
G01*
G37*
G04 #@! TD.AperFunction*
G04 #@! TA.AperFunction,SMDPad,CuDef*
G36*
G01*
X208312482Y-117175045D02*
X208789779Y-117652342D01*
G75*
G02*
X208789779Y-117740730I-44194J-44194D01*
G01*
X208701390Y-117829119D01*
G75*
G02*
X208613002Y-117829119I-44194J44194D01*
G01*
X208135705Y-117351822D01*
G75*
G02*
X208135705Y-117263434I44194J44194D01*
G01*
X208224094Y-117175045D01*
G75*
G02*
X208312482Y-117175045I44194J-44194D01*
G01*
G37*
G04 #@! TD.AperFunction*
G04 #@! TA.AperFunction,SMDPad,CuDef*
G36*
G01*
X207958928Y-117528598D02*
X208436225Y-118005895D01*
G75*
G02*
X208436225Y-118094283I-44194J-44194D01*
G01*
X208347836Y-118182672D01*
G75*
G02*
X208259448Y-118182672I-44194J44194D01*
G01*
X207782151Y-117705375D01*
G75*
G02*
X207782151Y-117616987I44194J44194D01*
G01*
X207870540Y-117528598D01*
G75*
G02*
X207958928Y-117528598I44194J-44194D01*
G01*
G37*
G04 #@! TD.AperFunction*
G04 #@! TA.AperFunction,SMDPad,CuDef*
G36*
G01*
X207605375Y-117882151D02*
X208082672Y-118359448D01*
G75*
G02*
X208082672Y-118447836I-44194J-44194D01*
G01*
X207994283Y-118536225D01*
G75*
G02*
X207905895Y-118536225I-44194J44194D01*
G01*
X207428598Y-118058928D01*
G75*
G02*
X207428598Y-117970540I44194J44194D01*
G01*
X207516987Y-117882151D01*
G75*
G02*
X207605375Y-117882151I44194J-44194D01*
G01*
G37*
G04 #@! TD.AperFunction*
G04 #@! TA.AperFunction,SMDPad,CuDef*
G36*
G01*
X207251822Y-118235705D02*
X207729119Y-118713002D01*
G75*
G02*
X207729119Y-118801390I-44194J-44194D01*
G01*
X207640730Y-118889779D01*
G75*
G02*
X207552342Y-118889779I-44194J44194D01*
G01*
X207075045Y-118412482D01*
G75*
G02*
X207075045Y-118324094I44194J44194D01*
G01*
X207163434Y-118235705D01*
G75*
G02*
X207251822Y-118235705I44194J-44194D01*
G01*
G37*
G04 #@! TD.AperFunction*
G04 #@! TA.AperFunction,SMDPad,CuDef*
G36*
G01*
X206898268Y-118589258D02*
X207375565Y-119066555D01*
G75*
G02*
X207375565Y-119154943I-44194J-44194D01*
G01*
X207287176Y-119243332D01*
G75*
G02*
X207198788Y-119243332I-44194J44194D01*
G01*
X206721491Y-118766035D01*
G75*
G02*
X206721491Y-118677647I44194J44194D01*
G01*
X206809880Y-118589258D01*
G75*
G02*
X206898268Y-118589258I44194J-44194D01*
G01*
G37*
G04 #@! TD.AperFunction*
G04 #@! TA.AperFunction,SMDPad,CuDef*
G36*
G01*
X206544715Y-118942811D02*
X207022012Y-119420108D01*
G75*
G02*
X207022012Y-119508496I-44194J-44194D01*
G01*
X206933623Y-119596885D01*
G75*
G02*
X206845235Y-119596885I-44194J44194D01*
G01*
X206367938Y-119119588D01*
G75*
G02*
X206367938Y-119031200I44194J44194D01*
G01*
X206456327Y-118942811D01*
G75*
G02*
X206544715Y-118942811I44194J-44194D01*
G01*
G37*
G04 #@! TD.AperFunction*
G04 #@! TA.AperFunction,SMDPad,CuDef*
G36*
G01*
X205943673Y-118942811D02*
X206032062Y-119031200D01*
G75*
G02*
X206032062Y-119119588I-44194J-44194D01*
G01*
X205554765Y-119596885D01*
G75*
G02*
X205466377Y-119596885I-44194J44194D01*
G01*
X205377988Y-119508496D01*
G75*
G02*
X205377988Y-119420108I44194J44194D01*
G01*
X205855285Y-118942811D01*
G75*
G02*
X205943673Y-118942811I44194J-44194D01*
G01*
G37*
G04 #@! TD.AperFunction*
G04 #@! TA.AperFunction,SMDPad,CuDef*
G36*
G01*
X205590120Y-118589258D02*
X205678509Y-118677647D01*
G75*
G02*
X205678509Y-118766035I-44194J-44194D01*
G01*
X205201212Y-119243332D01*
G75*
G02*
X205112824Y-119243332I-44194J44194D01*
G01*
X205024435Y-119154943D01*
G75*
G02*
X205024435Y-119066555I44194J44194D01*
G01*
X205501732Y-118589258D01*
G75*
G02*
X205590120Y-118589258I44194J-44194D01*
G01*
G37*
G04 #@! TD.AperFunction*
G04 #@! TA.AperFunction,SMDPad,CuDef*
G36*
G01*
X205236566Y-118235705D02*
X205324955Y-118324094D01*
G75*
G02*
X205324955Y-118412482I-44194J-44194D01*
G01*
X204847658Y-118889779D01*
G75*
G02*
X204759270Y-118889779I-44194J44194D01*
G01*
X204670881Y-118801390D01*
G75*
G02*
X204670881Y-118713002I44194J44194D01*
G01*
X205148178Y-118235705D01*
G75*
G02*
X205236566Y-118235705I44194J-44194D01*
G01*
G37*
G04 #@! TD.AperFunction*
G04 #@! TA.AperFunction,SMDPad,CuDef*
G36*
G01*
X204883013Y-117882151D02*
X204971402Y-117970540D01*
G75*
G02*
X204971402Y-118058928I-44194J-44194D01*
G01*
X204494105Y-118536225D01*
G75*
G02*
X204405717Y-118536225I-44194J44194D01*
G01*
X204317328Y-118447836D01*
G75*
G02*
X204317328Y-118359448I44194J44194D01*
G01*
X204794625Y-117882151D01*
G75*
G02*
X204883013Y-117882151I44194J-44194D01*
G01*
G37*
G04 #@! TD.AperFunction*
G04 #@! TA.AperFunction,SMDPad,CuDef*
G36*
G01*
X204529460Y-117528598D02*
X204617849Y-117616987D01*
G75*
G02*
X204617849Y-117705375I-44194J-44194D01*
G01*
X204140552Y-118182672D01*
G75*
G02*
X204052164Y-118182672I-44194J44194D01*
G01*
X203963775Y-118094283D01*
G75*
G02*
X203963775Y-118005895I44194J44194D01*
G01*
X204441072Y-117528598D01*
G75*
G02*
X204529460Y-117528598I44194J-44194D01*
G01*
G37*
G04 #@! TD.AperFunction*
G04 #@! TA.AperFunction,SMDPad,CuDef*
G36*
G01*
X204175906Y-117175045D02*
X204264295Y-117263434D01*
G75*
G02*
X204264295Y-117351822I-44194J-44194D01*
G01*
X203786998Y-117829119D01*
G75*
G02*
X203698610Y-117829119I-44194J44194D01*
G01*
X203610221Y-117740730D01*
G75*
G02*
X203610221Y-117652342I44194J44194D01*
G01*
X204087518Y-117175045D01*
G75*
G02*
X204175906Y-117175045I44194J-44194D01*
G01*
G37*
G04 #@! TD.AperFunction*
G04 #@! TA.AperFunction,SMDPad,CuDef*
G36*
G01*
X203822353Y-116821491D02*
X203910742Y-116909880D01*
G75*
G02*
X203910742Y-116998268I-44194J-44194D01*
G01*
X203433445Y-117475565D01*
G75*
G02*
X203345057Y-117475565I-44194J44194D01*
G01*
X203256668Y-117387176D01*
G75*
G02*
X203256668Y-117298788I44194J44194D01*
G01*
X203733965Y-116821491D01*
G75*
G02*
X203822353Y-116821491I44194J-44194D01*
G01*
G37*
G04 #@! TD.AperFunction*
G04 #@! TA.AperFunction,SMDPad,CuDef*
G36*
G01*
X203468800Y-116467938D02*
X203557189Y-116556327D01*
G75*
G02*
X203557189Y-116644715I-44194J-44194D01*
G01*
X203079892Y-117122012D01*
G75*
G02*
X202991504Y-117122012I-44194J44194D01*
G01*
X202903115Y-117033623D01*
G75*
G02*
X202903115Y-116945235I44194J44194D01*
G01*
X203380412Y-116467938D01*
G75*
G02*
X203468800Y-116467938I44194J-44194D01*
G01*
G37*
G04 #@! TD.AperFunction*
G04 #@! TA.AperFunction,SMDPad,CuDef*
G36*
G01*
X203079892Y-115477988D02*
X203557189Y-115955285D01*
G75*
G02*
X203557189Y-116043673I-44194J-44194D01*
G01*
X203468800Y-116132062D01*
G75*
G02*
X203380412Y-116132062I-44194J44194D01*
G01*
X202903115Y-115654765D01*
G75*
G02*
X202903115Y-115566377I44194J44194D01*
G01*
X202991504Y-115477988D01*
G75*
G02*
X203079892Y-115477988I44194J-44194D01*
G01*
G37*
G04 #@! TD.AperFunction*
G04 #@! TA.AperFunction,SMDPad,CuDef*
G36*
G01*
X203433445Y-115124435D02*
X203910742Y-115601732D01*
G75*
G02*
X203910742Y-115690120I-44194J-44194D01*
G01*
X203822353Y-115778509D01*
G75*
G02*
X203733965Y-115778509I-44194J44194D01*
G01*
X203256668Y-115301212D01*
G75*
G02*
X203256668Y-115212824I44194J44194D01*
G01*
X203345057Y-115124435D01*
G75*
G02*
X203433445Y-115124435I44194J-44194D01*
G01*
G37*
G04 #@! TD.AperFunction*
G04 #@! TA.AperFunction,SMDPad,CuDef*
G36*
G01*
X203786998Y-114770881D02*
X204264295Y-115248178D01*
G75*
G02*
X204264295Y-115336566I-44194J-44194D01*
G01*
X204175906Y-115424955D01*
G75*
G02*
X204087518Y-115424955I-44194J44194D01*
G01*
X203610221Y-114947658D01*
G75*
G02*
X203610221Y-114859270I44194J44194D01*
G01*
X203698610Y-114770881D01*
G75*
G02*
X203786998Y-114770881I44194J-44194D01*
G01*
G37*
G04 #@! TD.AperFunction*
G04 #@! TA.AperFunction,SMDPad,CuDef*
G36*
G01*
X204140552Y-114417328D02*
X204617849Y-114894625D01*
G75*
G02*
X204617849Y-114983013I-44194J-44194D01*
G01*
X204529460Y-115071402D01*
G75*
G02*
X204441072Y-115071402I-44194J44194D01*
G01*
X203963775Y-114594105D01*
G75*
G02*
X203963775Y-114505717I44194J44194D01*
G01*
X204052164Y-114417328D01*
G75*
G02*
X204140552Y-114417328I44194J-44194D01*
G01*
G37*
G04 #@! TD.AperFunction*
G04 #@! TA.AperFunction,SMDPad,CuDef*
G36*
G01*
X204494105Y-114063775D02*
X204971402Y-114541072D01*
G75*
G02*
X204971402Y-114629460I-44194J-44194D01*
G01*
X204883013Y-114717849D01*
G75*
G02*
X204794625Y-114717849I-44194J44194D01*
G01*
X204317328Y-114240552D01*
G75*
G02*
X204317328Y-114152164I44194J44194D01*
G01*
X204405717Y-114063775D01*
G75*
G02*
X204494105Y-114063775I44194J-44194D01*
G01*
G37*
G04 #@! TD.AperFunction*
G04 #@! TA.AperFunction,SMDPad,CuDef*
G36*
G01*
X204847658Y-113710221D02*
X205324955Y-114187518D01*
G75*
G02*
X205324955Y-114275906I-44194J-44194D01*
G01*
X205236566Y-114364295D01*
G75*
G02*
X205148178Y-114364295I-44194J44194D01*
G01*
X204670881Y-113886998D01*
G75*
G02*
X204670881Y-113798610I44194J44194D01*
G01*
X204759270Y-113710221D01*
G75*
G02*
X204847658Y-113710221I44194J-44194D01*
G01*
G37*
G04 #@! TD.AperFunction*
G04 #@! TA.AperFunction,SMDPad,CuDef*
G36*
G01*
X205201212Y-113356668D02*
X205678509Y-113833965D01*
G75*
G02*
X205678509Y-113922353I-44194J-44194D01*
G01*
X205590120Y-114010742D01*
G75*
G02*
X205501732Y-114010742I-44194J44194D01*
G01*
X205024435Y-113533445D01*
G75*
G02*
X205024435Y-113445057I44194J44194D01*
G01*
X205112824Y-113356668D01*
G75*
G02*
X205201212Y-113356668I44194J-44194D01*
G01*
G37*
G04 #@! TD.AperFunction*
G04 #@! TA.AperFunction,SMDPad,CuDef*
G36*
G01*
X205554765Y-113003115D02*
X206032062Y-113480412D01*
G75*
G02*
X206032062Y-113568800I-44194J-44194D01*
G01*
X205943673Y-113657189D01*
G75*
G02*
X205855285Y-113657189I-44194J44194D01*
G01*
X205377988Y-113179892D01*
G75*
G02*
X205377988Y-113091504I44194J44194D01*
G01*
X205466377Y-113003115D01*
G75*
G02*
X205554765Y-113003115I44194J-44194D01*
G01*
G37*
G04 #@! TD.AperFunction*
G04 #@! TA.AperFunction,SMDPad,CuDef*
D11*
G36*
X206200000Y-113754416D02*
G01*
X208745584Y-116300000D01*
X206200000Y-118845584D01*
X203654416Y-116300000D01*
X206200000Y-113754416D01*
G37*
G04 #@! TD.AperFunction*
D12*
X212500000Y-112350000D03*
X212500000Y-111400000D03*
X212500000Y-110450000D03*
X214700000Y-110450000D03*
X214700000Y-112350000D03*
D13*
X212390000Y-89320000D03*
X216090000Y-89320000D03*
G04 #@! TA.AperFunction,SMDPad,CuDef*
D11*
G36*
X197088630Y-113115483D02*
G01*
X196381523Y-112408376D01*
X197583604Y-111206295D01*
X198290711Y-111913402D01*
X197088630Y-113115483D01*
G37*
G04 #@! TD.AperFunction*
G04 #@! TA.AperFunction,SMDPad,CuDef*
G36*
X201543402Y-108660711D02*
G01*
X200836295Y-107953604D01*
X202038376Y-106751523D01*
X202745483Y-107458630D01*
X201543402Y-108660711D01*
G37*
G04 #@! TD.AperFunction*
G04 #@! TA.AperFunction,SMDPad,CuDef*
G36*
X194401624Y-110428477D02*
G01*
X193694517Y-109721370D01*
X194896598Y-108519289D01*
X195603705Y-109226396D01*
X194401624Y-110428477D01*
G37*
G04 #@! TD.AperFunction*
G04 #@! TA.AperFunction,SMDPad,CuDef*
G36*
X198856396Y-105973705D02*
G01*
X198149289Y-105266598D01*
X199351370Y-104064517D01*
X200058477Y-104771624D01*
X198856396Y-105973705D01*
G37*
G04 #@! TD.AperFunction*
D14*
X203120000Y-114490000D03*
X202430000Y-121860000D03*
X202430000Y-121270000D03*
X215200000Y-113950000D03*
X213810000Y-111400000D03*
X216330000Y-109560000D03*
X217820000Y-110940000D03*
X202380000Y-109290000D03*
X201330000Y-110270000D03*
X200170000Y-111250000D03*
X209530000Y-117830000D03*
X213290000Y-116970000D03*
X211600000Y-116920000D03*
X210450000Y-121800000D03*
X210870000Y-121370000D03*
X204371974Y-120198026D03*
X205090000Y-120200000D03*
X199753611Y-114613611D03*
X198600000Y-113850000D03*
X206870000Y-111770000D03*
D15*
X203479210Y-114490000D02*
X203629210Y-114340000D01*
X203120000Y-114490000D02*
X203479210Y-114490000D01*
X203886447Y-114340000D02*
X204290812Y-114744365D01*
X203629210Y-114340000D02*
X203886447Y-114340000D01*
D16*
X201116637Y-112316637D02*
X202216637Y-111216637D01*
X202216637Y-111216637D02*
X203316637Y-110116637D01*
X215875000Y-111400000D02*
X216400000Y-110875000D01*
X213763599Y-113838599D02*
X213763599Y-111446401D01*
X213763599Y-111446401D02*
X213810000Y-111400000D01*
X214025000Y-114100000D02*
X213763599Y-113838599D01*
X213810000Y-111400000D02*
X215875000Y-111400000D01*
X212500000Y-111400000D02*
X213810000Y-111400000D01*
X202430000Y-121860000D02*
X202430000Y-121270000D01*
D15*
X215050000Y-114100000D02*
X215200000Y-113950000D01*
X214025000Y-114100000D02*
X215050000Y-114100000D01*
X216400000Y-109630000D02*
X216330000Y-109560000D01*
X216400000Y-110875000D02*
X216400000Y-109630000D01*
X217755000Y-110875000D02*
X217820000Y-110940000D01*
X216400000Y-110875000D02*
X217755000Y-110875000D01*
X203206637Y-110116637D02*
X202380000Y-109290000D01*
X203316637Y-110116637D02*
X203206637Y-110116637D01*
X202216637Y-111156637D02*
X201330000Y-110270000D01*
X202216637Y-111216637D02*
X202216637Y-111156637D01*
X201116637Y-112196637D02*
X200170000Y-111250000D01*
X201116637Y-112316637D02*
X201116637Y-112196637D01*
X208848528Y-117148528D02*
X209530000Y-117830000D01*
X208816295Y-117148528D02*
X208848528Y-117148528D01*
X204644365Y-114390812D02*
X204243553Y-113990000D01*
X202790000Y-113990000D02*
X202283363Y-113483363D01*
X204243553Y-113990000D02*
X202790000Y-113990000D01*
X204777519Y-113816859D02*
X204776859Y-113816859D01*
X204997918Y-114037258D02*
X204777519Y-113816859D01*
X203383363Y-112423363D02*
X203383363Y-112383363D01*
D17*
X204776859Y-113816859D02*
X203383363Y-112423363D01*
X204483363Y-111283363D02*
X203383363Y-112383363D01*
D16*
X203383363Y-112383363D02*
X202190349Y-112383363D01*
X201157075Y-113416637D02*
X202190349Y-112383363D01*
X200016637Y-113416637D02*
X201157075Y-113416637D01*
X214875000Y-112525000D02*
X214700000Y-112350000D01*
X216400000Y-112525000D02*
X214875000Y-112525000D01*
X216400000Y-112525000D02*
X216400000Y-114400000D01*
X216400000Y-114400000D02*
X213830000Y-116970000D01*
X213830000Y-116970000D02*
X213290000Y-116970000D01*
X207130000Y-121390000D02*
X204630000Y-121390000D01*
X204630000Y-121390000D02*
X199080000Y-115840000D01*
X199080000Y-114353274D02*
X200016637Y-113416637D01*
X199080000Y-115840000D02*
X199080000Y-114353274D01*
D17*
X216400000Y-112525000D02*
X217115000Y-112525000D01*
X218353401Y-109503401D02*
X216270000Y-107420000D01*
X218353401Y-111286599D02*
X218353401Y-109503401D01*
X217115000Y-112525000D02*
X218353401Y-111286599D01*
D15*
X209764873Y-117390000D02*
X209169848Y-116794975D01*
X211130000Y-117390000D02*
X209764873Y-117390000D01*
D16*
X211600000Y-116920000D02*
X211130000Y-117390000D01*
X211130000Y-117390000D02*
X207130000Y-121390000D01*
X212375000Y-117845000D02*
X212375000Y-114100000D01*
X210870000Y-119350000D02*
X212375000Y-117845000D01*
X212375000Y-114100000D02*
X211650000Y-114100000D01*
X211650000Y-114100000D02*
X211040000Y-113490000D01*
X210240000Y-111950000D02*
X209450000Y-111950000D01*
X209075000Y-111575000D02*
X209075000Y-110500000D01*
X209450000Y-111950000D02*
X209075000Y-111575000D01*
X210640000Y-112350000D02*
X210240000Y-111950000D01*
X211040000Y-113070000D02*
X211040000Y-112440000D01*
X210950000Y-112350000D02*
X210640000Y-112350000D01*
X212500000Y-112350000D02*
X210950000Y-112350000D01*
X211040000Y-112440000D02*
X210950000Y-112350000D01*
X211040000Y-113490000D02*
X211040000Y-113070000D01*
X211040000Y-113070000D02*
X211040000Y-112750000D01*
D15*
X210870000Y-121370000D02*
X210870000Y-121380000D01*
D16*
X210870000Y-121380000D02*
X210450000Y-121800000D01*
X210870000Y-121370000D02*
X210870000Y-120740000D01*
X210870000Y-120740000D02*
X210870000Y-121380000D01*
X210870000Y-120740000D02*
X210870000Y-119350000D01*
D15*
X203230152Y-116794975D02*
X202470000Y-117555127D01*
X202470000Y-117555127D02*
X202470000Y-118547488D01*
X204120538Y-120198026D02*
X204371974Y-120198026D01*
X202470000Y-118547488D02*
X204120538Y-120198026D01*
X203583705Y-117148528D02*
X202774810Y-117957423D01*
X202774810Y-117957423D02*
X202774810Y-118421232D01*
X202774810Y-118421232D02*
X204051789Y-119698211D01*
X204051789Y-119698211D02*
X204598211Y-119698211D01*
X205090000Y-120190000D02*
X205090000Y-120200000D01*
X204598211Y-119698211D02*
X205090000Y-120190000D01*
X212450000Y-110500000D02*
X212500000Y-110450000D01*
X210725000Y-110500000D02*
X212450000Y-110500000D01*
X209169848Y-115805025D02*
X209770000Y-115204873D01*
X209770000Y-115204873D02*
X209770000Y-113570000D01*
X207530000Y-111330000D02*
X207530000Y-110592132D01*
X209770000Y-113570000D02*
X207530000Y-111330000D01*
X207530000Y-110592132D02*
X208772512Y-109349620D01*
X208772512Y-109349620D02*
X213960380Y-109349620D01*
X213960380Y-109349620D02*
X215020000Y-108290000D01*
X209195000Y-89330000D02*
X209195000Y-98985000D01*
X215020000Y-104810000D02*
X215020000Y-106130000D01*
X209195000Y-98985000D02*
X215020000Y-104810000D01*
X215020000Y-106130000D02*
X215020000Y-106070000D01*
X215020000Y-108290000D02*
X215020000Y-106130000D01*
X210855000Y-89320000D02*
X210845000Y-89330000D01*
X212390000Y-89320000D02*
X210855000Y-89320000D01*
X201470000Y-114870000D02*
X201183363Y-114583363D01*
X201580000Y-114980000D02*
X201470000Y-114870000D01*
X203112233Y-114980000D02*
X201580000Y-114980000D01*
X203583705Y-115451472D02*
X203112233Y-114980000D01*
X199783859Y-114583363D02*
X199753611Y-114613611D01*
X201183363Y-114583363D02*
X199783859Y-114583363D01*
X198600000Y-113850000D02*
X198160000Y-113410000D01*
X198160000Y-112984772D02*
X197336117Y-112160889D01*
X198160000Y-113410000D02*
X198160000Y-112984772D01*
X197570000Y-114880000D02*
X197570000Y-114970000D01*
X198600000Y-113850000D02*
X197570000Y-114880000D01*
X204760000Y-113092233D02*
X205351472Y-113683705D01*
X204760000Y-112500000D02*
X204760000Y-113092233D01*
X209870000Y-108740000D02*
X208520000Y-108740000D01*
X208520000Y-108740000D02*
X204760000Y-112500000D01*
X211190000Y-107420000D02*
X209870000Y-108740000D01*
X205250000Y-112875127D02*
X205705025Y-113330152D01*
X205250000Y-112441066D02*
X205250000Y-112875127D01*
X212105190Y-109044810D02*
X208646256Y-109044810D01*
X208646256Y-109044810D02*
X205250000Y-112441066D01*
X213730000Y-107420000D02*
X212105190Y-109044810D01*
X207402082Y-114037258D02*
X207890000Y-113549340D01*
X207890000Y-113549340D02*
X207890000Y-112790000D01*
X207890000Y-112790000D02*
X206870000Y-111770000D01*
D17*
X198254697Y-116181850D02*
X198337247Y-116336290D01*
X198448341Y-116471659D01*
X198482264Y-116499499D01*
X203605765Y-121623000D01*
X200799030Y-121623000D01*
X200793871Y-121570619D01*
X200757558Y-121450911D01*
X200698589Y-121340588D01*
X200619230Y-121243890D01*
X200589862Y-121219788D01*
X200507775Y-121141071D01*
X200411926Y-121046695D01*
X200317062Y-120950812D01*
X200223164Y-120853412D01*
X200130260Y-120754530D01*
X200038324Y-120654145D01*
X199947289Y-120552192D01*
X199857327Y-120448867D01*
X199768280Y-120343996D01*
X199680226Y-120237676D01*
X199593244Y-120130010D01*
X199507128Y-120020750D01*
X199422118Y-119910201D01*
X199338081Y-119798201D01*
X199255109Y-119684877D01*
X199173070Y-119570057D01*
X199092073Y-119453894D01*
X199012169Y-119336468D01*
X198933222Y-119217585D01*
X198855367Y-119097455D01*
X198778529Y-118975965D01*
X198702774Y-118853228D01*
X198628024Y-118729118D01*
X198554383Y-118603813D01*
X198481739Y-118477128D01*
X198410264Y-118349370D01*
X198339780Y-118220222D01*
X198270389Y-118089873D01*
X198202122Y-117958390D01*
X198134888Y-117825600D01*
X198068816Y-117691759D01*
X198002426Y-117553805D01*
X197995209Y-117541935D01*
X197989872Y-117529112D01*
X197985628Y-117521327D01*
X197812670Y-117209282D01*
X197811576Y-117207696D01*
X197810803Y-117205939D01*
X197806404Y-117198240D01*
X197624559Y-116885094D01*
X197623940Y-116884234D01*
X197623496Y-116883270D01*
X197618965Y-116875648D01*
X197429137Y-116561395D01*
X197428986Y-116561192D01*
X197428876Y-116560963D01*
X197424232Y-116553409D01*
X197281454Y-116324738D01*
X197433589Y-116355000D01*
X197706411Y-116355000D01*
X197973989Y-116301775D01*
X198226043Y-116197371D01*
X198253783Y-116178836D01*
X198254697Y-116181850D01*
G04 #@! TA.AperFunction,Conductor*
D15*
G36*
X198254697Y-116181850D02*
G01*
X198337247Y-116336290D01*
X198448341Y-116471659D01*
X198482264Y-116499499D01*
X203605765Y-121623000D01*
X200799030Y-121623000D01*
X200793871Y-121570619D01*
X200757558Y-121450911D01*
X200698589Y-121340588D01*
X200619230Y-121243890D01*
X200589862Y-121219788D01*
X200507775Y-121141071D01*
X200411926Y-121046695D01*
X200317062Y-120950812D01*
X200223164Y-120853412D01*
X200130260Y-120754530D01*
X200038324Y-120654145D01*
X199947289Y-120552192D01*
X199857327Y-120448867D01*
X199768280Y-120343996D01*
X199680226Y-120237676D01*
X199593244Y-120130010D01*
X199507128Y-120020750D01*
X199422118Y-119910201D01*
X199338081Y-119798201D01*
X199255109Y-119684877D01*
X199173070Y-119570057D01*
X199092073Y-119453894D01*
X199012169Y-119336468D01*
X198933222Y-119217585D01*
X198855367Y-119097455D01*
X198778529Y-118975965D01*
X198702774Y-118853228D01*
X198628024Y-118729118D01*
X198554383Y-118603813D01*
X198481739Y-118477128D01*
X198410264Y-118349370D01*
X198339780Y-118220222D01*
X198270389Y-118089873D01*
X198202122Y-117958390D01*
X198134888Y-117825600D01*
X198068816Y-117691759D01*
X198002426Y-117553805D01*
X197995209Y-117541935D01*
X197989872Y-117529112D01*
X197985628Y-117521327D01*
X197812670Y-117209282D01*
X197811576Y-117207696D01*
X197810803Y-117205939D01*
X197806404Y-117198240D01*
X197624559Y-116885094D01*
X197623940Y-116884234D01*
X197623496Y-116883270D01*
X197618965Y-116875648D01*
X197429137Y-116561395D01*
X197428986Y-116561192D01*
X197428876Y-116560963D01*
X197424232Y-116553409D01*
X197281454Y-116324738D01*
X197433589Y-116355000D01*
X197706411Y-116355000D01*
X197973989Y-116301775D01*
X198226043Y-116197371D01*
X198253783Y-116178836D01*
X198254697Y-116181850D01*
G37*
G04 #@! TD.AperFunction*
D17*
X215511001Y-114031763D02*
X215061550Y-114481215D01*
X215060000Y-114385750D01*
X214901250Y-114227000D01*
X214152000Y-114227000D01*
X214152000Y-115051250D01*
X214310750Y-115210000D01*
X214332188Y-115210576D01*
X213461765Y-116081000D01*
X213264000Y-116081000D01*
X213264000Y-115100198D01*
X213270506Y-115105537D01*
X213380820Y-115164502D01*
X213500518Y-115200812D01*
X213625000Y-115213072D01*
X213739250Y-115210000D01*
X213898000Y-115051250D01*
X213898000Y-114227000D01*
X213878000Y-114227000D01*
X213878000Y-113973000D01*
X213898000Y-113973000D01*
X213898000Y-113953000D01*
X214152000Y-113953000D01*
X214152000Y-113973000D01*
X214901250Y-113973000D01*
X215060000Y-113814250D01*
X215063072Y-113625000D01*
X215050812Y-113500518D01*
X215024567Y-113414000D01*
X215511000Y-113414000D01*
X215511001Y-114031763D01*
G04 #@! TA.AperFunction,Conductor*
D15*
G36*
X215511001Y-114031763D02*
G01*
X215061550Y-114481215D01*
X215060000Y-114385750D01*
X214901250Y-114227000D01*
X214152000Y-114227000D01*
X214152000Y-115051250D01*
X214310750Y-115210000D01*
X214332188Y-115210576D01*
X213461765Y-116081000D01*
X213264000Y-116081000D01*
X213264000Y-115100198D01*
X213270506Y-115105537D01*
X213380820Y-115164502D01*
X213500518Y-115200812D01*
X213625000Y-115213072D01*
X213739250Y-115210000D01*
X213898000Y-115051250D01*
X213898000Y-114227000D01*
X213878000Y-114227000D01*
X213878000Y-113973000D01*
X213898000Y-113973000D01*
X213898000Y-113953000D01*
X214152000Y-113953000D01*
X214152000Y-113973000D01*
X214901250Y-113973000D01*
X215060000Y-113814250D01*
X215063072Y-113625000D01*
X215050812Y-113500518D01*
X215024567Y-113414000D01*
X215511000Y-113414000D01*
X215511001Y-114031763D01*
G37*
G04 #@! TD.AperFunction*
D17*
X211669887Y-72935852D02*
X218252954Y-74564243D01*
X220673163Y-77152385D01*
X223385302Y-80662213D01*
X225677310Y-84403463D01*
X225677137Y-84403833D01*
X225674067Y-84416292D01*
X225669110Y-84428124D01*
X225666557Y-84436616D01*
X225576703Y-84743243D01*
X225576686Y-84743335D01*
X225574645Y-84750424D01*
X225486987Y-85063140D01*
X225486967Y-85063250D01*
X225485121Y-85069941D01*
X225399648Y-85388431D01*
X225399627Y-85388559D01*
X225397952Y-85394886D01*
X225314653Y-85718836D01*
X225314631Y-85718977D01*
X225313110Y-85724966D01*
X225231972Y-86054060D01*
X225231952Y-86054201D01*
X225230561Y-86059900D01*
X225151575Y-86393824D01*
X225151555Y-86393973D01*
X225150285Y-86399390D01*
X225073439Y-86737832D01*
X225073419Y-86737988D01*
X225072257Y-86743144D01*
X224997539Y-87085787D01*
X224997521Y-87085939D01*
X224996452Y-87090870D01*
X224923852Y-87437401D01*
X224923834Y-87437564D01*
X224922853Y-87442267D01*
X224852359Y-87792373D01*
X224852343Y-87792526D01*
X224851437Y-87797040D01*
X224783037Y-88150402D01*
X224783022Y-88150562D01*
X224782185Y-88154889D01*
X224715870Y-88511198D01*
X224715856Y-88511358D01*
X224715082Y-88515514D01*
X224650840Y-88874453D01*
X224650827Y-88874615D01*
X224650111Y-88878609D01*
X224587929Y-89239863D01*
X224587918Y-89240019D01*
X224587251Y-89243879D01*
X224527120Y-89607136D01*
X224527110Y-89607289D01*
X224526490Y-89611015D01*
X224468398Y-89975959D01*
X224468389Y-89976109D01*
X224467811Y-89979716D01*
X224411747Y-90346031D01*
X224411738Y-90346190D01*
X224411201Y-90349673D01*
X224357153Y-90717049D01*
X224357146Y-90717198D01*
X224356643Y-90720585D01*
X224304600Y-91088706D01*
X224304594Y-91088853D01*
X224304123Y-91092148D01*
X224254075Y-91460698D01*
X224254070Y-91460844D01*
X224253629Y-91464050D01*
X224205563Y-91832716D01*
X224205559Y-91832855D01*
X224205144Y-91835991D01*
X224159051Y-92204458D01*
X224159047Y-92204603D01*
X224158659Y-92207657D01*
X224114525Y-92575612D01*
X224114522Y-92575757D01*
X224114157Y-92578747D01*
X224071973Y-92945875D01*
X224071971Y-92946017D01*
X224071627Y-92948952D01*
X224031381Y-93314938D01*
X224031379Y-93315080D01*
X224031056Y-93317964D01*
X223992737Y-93682493D01*
X223992736Y-93682635D01*
X223992431Y-93685474D01*
X223956028Y-94048234D01*
X223956028Y-94048365D01*
X223955739Y-94051176D01*
X223921240Y-94411852D01*
X223921240Y-94411994D01*
X223920969Y-94414762D01*
X223888363Y-94773038D01*
X223888364Y-94773169D01*
X223888106Y-94775926D01*
X223857383Y-95131490D01*
X223857385Y-95131627D01*
X223857142Y-95134357D01*
X223828289Y-95486893D01*
X223828291Y-95487032D01*
X223828062Y-95489751D01*
X223801069Y-95838946D01*
X223801133Y-95842074D01*
X223800619Y-95845162D01*
X223802408Y-95903963D01*
X223803620Y-95962860D01*
X223804292Y-95965922D01*
X223804387Y-95969044D01*
X223805581Y-95977831D01*
X223857768Y-96342599D01*
X223876241Y-96666309D01*
X223867193Y-96977236D01*
X223832675Y-97277890D01*
X223774333Y-97570553D01*
X223693509Y-97857228D01*
X223591388Y-98139546D01*
X223469179Y-98418691D01*
X223328162Y-98695621D01*
X223169841Y-98970962D01*
X222995851Y-99245307D01*
X222807993Y-99519191D01*
X222608217Y-99793137D01*
X222398656Y-100067606D01*
X222181258Y-100343473D01*
X221958474Y-100621103D01*
X221732937Y-100900783D01*
X221732869Y-100900886D01*
X221731353Y-100902755D01*
X221506880Y-101183397D01*
X221506810Y-101183504D01*
X221502772Y-101188588D01*
X221281991Y-101470591D01*
X221281472Y-101471407D01*
X221280810Y-101472105D01*
X221275414Y-101479141D01*
X221060568Y-101763381D01*
X221058939Y-101766041D01*
X221056848Y-101768353D01*
X221051620Y-101775516D01*
X220844953Y-102062870D01*
X220842271Y-102067493D01*
X220838812Y-102071562D01*
X220833807Y-102078881D01*
X220637562Y-102370224D01*
X220633930Y-102376950D01*
X220629204Y-102382959D01*
X220624480Y-102390463D01*
X220440900Y-102686672D01*
X220436480Y-102695658D01*
X220430651Y-102703804D01*
X220426273Y-102711515D01*
X220257602Y-103013465D01*
X220252631Y-103024849D01*
X220245945Y-103035323D01*
X220241981Y-103043255D01*
X220090463Y-103351822D01*
X220085261Y-103365697D01*
X220078058Y-103378645D01*
X220074581Y-103386802D01*
X219942459Y-103702863D01*
X219937430Y-103719223D01*
X219930145Y-103734701D01*
X219927228Y-103743074D01*
X219816745Y-104067504D01*
X219812359Y-104086193D01*
X219805495Y-104104123D01*
X219803208Y-104112690D01*
X219716607Y-104446367D01*
X219713348Y-104467062D01*
X219707442Y-104487160D01*
X219705845Y-104495882D01*
X219645371Y-104839680D01*
X219643674Y-104861857D01*
X219639214Y-104883641D01*
X219638353Y-104892466D01*
X219606249Y-105247262D01*
X219606421Y-105270226D01*
X219603768Y-105293042D01*
X219603670Y-105301909D01*
X219602179Y-105668579D01*
X219604338Y-105691564D01*
X219603664Y-105714639D01*
X219604333Y-105723481D01*
X219635017Y-106094651D01*
X219662900Y-106588156D01*
X219669896Y-107072777D01*
X219656938Y-107553831D01*
X219624643Y-108031395D01*
X219573618Y-108505520D01*
X219504455Y-108976300D01*
X219417756Y-109443688D01*
X219314092Y-109907781D01*
X219194055Y-110368529D01*
X219115401Y-110633406D01*
X219115401Y-109540824D01*
X219119087Y-109503401D01*
X219114578Y-109457619D01*
X219104375Y-109354023D01*
X219060803Y-109210386D01*
X219021595Y-109137033D01*
X218990046Y-109078008D01*
X218918680Y-108991049D01*
X218894823Y-108961979D01*
X218865753Y-108938122D01*
X217626636Y-107699006D01*
X217655000Y-107556411D01*
X217655000Y-107283589D01*
X217601775Y-107016011D01*
X217497371Y-106763957D01*
X217345799Y-106537114D01*
X217152886Y-106344201D01*
X216926043Y-106192629D01*
X216673989Y-106088225D01*
X216406411Y-106035000D01*
X216133589Y-106035000D01*
X215866011Y-106088225D01*
X215731200Y-106144065D01*
X215731200Y-104844925D01*
X215734640Y-104809999D01*
X215731200Y-104775073D01*
X215731200Y-104775064D01*
X215720909Y-104670580D01*
X215680242Y-104536519D01*
X215614202Y-104412967D01*
X215597826Y-104393013D01*
X215547597Y-104331809D01*
X215547593Y-104331805D01*
X215525326Y-104304673D01*
X215498195Y-104282407D01*
X209906200Y-98690413D01*
X209906200Y-90264414D01*
X209987606Y-90197606D01*
X210020000Y-90158134D01*
X210052394Y-90197606D01*
X210179392Y-90301831D01*
X210324284Y-90379278D01*
X210481500Y-90426969D01*
X210645000Y-90443072D01*
X211045000Y-90443072D01*
X211208500Y-90426969D01*
X211258021Y-90411947D01*
X211335506Y-90475537D01*
X211445820Y-90534502D01*
X211565518Y-90570812D01*
X211690000Y-90583072D01*
X213049411Y-90583072D01*
X213134002Y-90667663D01*
X213418169Y-90857537D01*
X213733919Y-90988325D01*
X214069117Y-91055000D01*
X214410883Y-91055000D01*
X214746081Y-90988325D01*
X215061831Y-90857537D01*
X215345998Y-90667663D01*
X215430892Y-90582769D01*
X215804250Y-90580000D01*
X215963000Y-90421250D01*
X215963000Y-89551211D01*
X215975000Y-89490883D01*
X215975000Y-89447000D01*
X216217000Y-89447000D01*
X216217000Y-90421250D01*
X216375750Y-90580000D01*
X216790000Y-90583072D01*
X216914482Y-90570812D01*
X217034180Y-90534502D01*
X217144494Y-90475537D01*
X217241185Y-90396185D01*
X217320537Y-90299494D01*
X217379502Y-90189180D01*
X217415812Y-90069482D01*
X217428072Y-89945000D01*
X217425000Y-89605750D01*
X217266250Y-89447000D01*
X216217000Y-89447000D01*
X215975000Y-89447000D01*
X215975000Y-89149117D01*
X215963000Y-89088789D01*
X215963000Y-88218750D01*
X216217000Y-88218750D01*
X216217000Y-89193000D01*
X217266250Y-89193000D01*
X217425000Y-89034250D01*
X217428072Y-88695000D01*
X217415812Y-88570518D01*
X217379502Y-88450820D01*
X217320537Y-88340506D01*
X217241185Y-88243815D01*
X217144494Y-88164463D01*
X217034180Y-88105498D01*
X216914482Y-88069188D01*
X216790000Y-88056928D01*
X216375750Y-88060000D01*
X216217000Y-88218750D01*
X215963000Y-88218750D01*
X215804250Y-88060000D01*
X215430892Y-88057231D01*
X215345998Y-87972337D01*
X215061831Y-87782463D01*
X214746081Y-87651675D01*
X214410883Y-87585000D01*
X214069117Y-87585000D01*
X213733919Y-87651675D01*
X213418169Y-87782463D01*
X213134002Y-87972337D01*
X213049411Y-88056928D01*
X211690000Y-88056928D01*
X211565518Y-88069188D01*
X211445820Y-88105498D01*
X211335506Y-88164463D01*
X211240228Y-88242656D01*
X211208500Y-88233031D01*
X211045000Y-88216928D01*
X210645000Y-88216928D01*
X210481500Y-88233031D01*
X210324284Y-88280722D01*
X210179392Y-88358169D01*
X210052394Y-88462394D01*
X210020000Y-88501866D01*
X209987606Y-88462394D01*
X209860608Y-88358169D01*
X209715716Y-88280722D01*
X209558500Y-88233031D01*
X209395000Y-88216928D01*
X208995000Y-88216928D01*
X208831500Y-88233031D01*
X208674284Y-88280722D01*
X208529392Y-88358169D01*
X208402394Y-88462394D01*
X208298169Y-88589392D01*
X208220722Y-88734284D01*
X208173031Y-88891500D01*
X208156928Y-89055000D01*
X208156928Y-89605000D01*
X208173031Y-89768500D01*
X208220722Y-89925716D01*
X208298169Y-90070608D01*
X208402394Y-90197606D01*
X208483800Y-90264415D01*
X208483801Y-98950064D01*
X208480360Y-98985000D01*
X208483801Y-99019936D01*
X208494092Y-99124420D01*
X208527907Y-99235893D01*
X208534759Y-99258481D01*
X208600798Y-99382032D01*
X208667052Y-99462762D01*
X208689674Y-99490327D01*
X208716810Y-99512597D01*
X214308800Y-105104588D01*
X214308801Y-106035055D01*
X214308800Y-106035064D01*
X214308800Y-106160634D01*
X214133989Y-106088225D01*
X213866411Y-106035000D01*
X213593589Y-106035000D01*
X213326011Y-106088225D01*
X213073957Y-106192629D01*
X212847114Y-106344201D01*
X212654201Y-106537114D01*
X212502629Y-106763957D01*
X212460000Y-106866873D01*
X212417371Y-106763957D01*
X212265799Y-106537114D01*
X212072886Y-106344201D01*
X211846043Y-106192629D01*
X211593989Y-106088225D01*
X211326411Y-106035000D01*
X211053589Y-106035000D01*
X210786011Y-106088225D01*
X210533957Y-106192629D01*
X210307114Y-106344201D01*
X210114201Y-106537114D01*
X209962629Y-106763957D01*
X209921489Y-106863279D01*
X209906277Y-106821168D01*
X209845860Y-106708137D01*
X209606993Y-106642612D01*
X208829605Y-107420000D01*
X208843748Y-107434143D01*
X208664143Y-107613748D01*
X208650000Y-107599605D01*
X208016117Y-108233488D01*
X208014673Y-108234673D01*
X208013488Y-108236117D01*
X207872612Y-108376993D01*
X207873604Y-108380608D01*
X205504089Y-110750123D01*
X205411845Y-110637724D01*
X205129002Y-110354881D01*
X205002004Y-110250656D01*
X204857112Y-110173209D01*
X204699896Y-110125518D01*
X204568603Y-110112587D01*
X204573427Y-110063604D01*
X204561167Y-109939123D01*
X204524858Y-109819424D01*
X204465893Y-109709110D01*
X204386540Y-109612419D01*
X204303581Y-109533804D01*
X204079075Y-109533804D01*
X203496242Y-110116637D01*
X203510385Y-110130780D01*
X203330780Y-110310385D01*
X203316637Y-110296242D01*
X202396242Y-111216637D01*
X202410385Y-111230780D01*
X202230780Y-111410385D01*
X202216637Y-111396242D01*
X202202495Y-111410385D01*
X202022890Y-111230780D01*
X202037032Y-111216637D01*
X201507232Y-110686837D01*
X201282726Y-110686837D01*
X201146734Y-110818485D01*
X201067381Y-110915176D01*
X201008416Y-111025490D01*
X200989116Y-111089116D01*
X200925490Y-111108416D01*
X200815176Y-111167381D01*
X200718485Y-111246734D01*
X200586837Y-111382726D01*
X200586837Y-111607232D01*
X201116637Y-112137032D01*
X201341946Y-111911724D01*
X201373349Y-111943127D01*
X200954293Y-112362183D01*
X200922890Y-112330780D01*
X200937032Y-112316637D01*
X200407232Y-111786837D01*
X200182726Y-111786837D01*
X200046734Y-111918485D01*
X199967381Y-112015176D01*
X199908416Y-112125490D01*
X199872107Y-112245189D01*
X199869677Y-112269862D01*
X199748954Y-112306483D01*
X199604062Y-112383930D01*
X199477064Y-112488155D01*
X199088155Y-112877064D01*
X198983930Y-113004062D01*
X198965234Y-113039039D01*
X198873056Y-113000857D01*
X198874640Y-112984772D01*
X198871200Y-112949843D01*
X198871200Y-112949837D01*
X198860909Y-112845352D01*
X198820242Y-112711291D01*
X198754202Y-112587739D01*
X198742688Y-112573709D01*
X198687598Y-112506581D01*
X198687593Y-112506576D01*
X198665327Y-112479445D01*
X198644297Y-112462186D01*
X198741896Y-112364587D01*
X198821248Y-112267896D01*
X198880213Y-112157582D01*
X198916523Y-112037884D01*
X198928783Y-111913402D01*
X198916523Y-111788920D01*
X198880213Y-111669222D01*
X198821248Y-111558908D01*
X198741896Y-111462217D01*
X198034789Y-110755110D01*
X197938098Y-110675758D01*
X197827784Y-110616793D01*
X197708086Y-110580483D01*
X197583604Y-110568223D01*
X197459122Y-110580483D01*
X197339424Y-110616793D01*
X197229110Y-110675758D01*
X197132419Y-110755110D01*
X195930338Y-111957191D01*
X195850986Y-112053882D01*
X195792021Y-112164196D01*
X195755711Y-112283894D01*
X195743451Y-112408376D01*
X195755711Y-112532858D01*
X195792021Y-112652556D01*
X195850986Y-112762870D01*
X195930338Y-112859561D01*
X196637445Y-113566668D01*
X196734136Y-113646020D01*
X196844450Y-113704985D01*
X196937034Y-113733070D01*
X196913957Y-113742629D01*
X196687114Y-113894201D01*
X196494201Y-114087114D01*
X196342629Y-114313957D01*
X196238225Y-114566011D01*
X196210468Y-114705553D01*
X196154299Y-114623139D01*
X196154254Y-114623085D01*
X196153625Y-114622152D01*
X195933207Y-114300049D01*
X195712350Y-113977274D01*
X195492440Y-113654534D01*
X195274246Y-113331653D01*
X195058449Y-113008322D01*
X194846318Y-112685127D01*
X194638568Y-112361843D01*
X194436121Y-112038571D01*
X194239839Y-111715336D01*
X194050594Y-111392203D01*
X193869253Y-111069247D01*
X193696689Y-110746585D01*
X193572761Y-110501486D01*
X193801113Y-110501486D01*
X193801113Y-110725992D01*
X193950439Y-110879662D01*
X194047130Y-110959015D01*
X194157444Y-111017979D01*
X194277142Y-111054289D01*
X194401624Y-111066549D01*
X194526105Y-111054289D01*
X194645803Y-111017979D01*
X194756117Y-110959015D01*
X194852809Y-110879662D01*
X195249621Y-110478505D01*
X195249621Y-110282726D01*
X201686837Y-110282726D01*
X201686837Y-110507232D01*
X202216637Y-111037032D01*
X203137032Y-110116637D01*
X202607232Y-109586837D01*
X202382726Y-109586837D01*
X202246734Y-109718485D01*
X202167381Y-109815176D01*
X202108416Y-109925490D01*
X202089116Y-109989116D01*
X202025490Y-110008416D01*
X201915176Y-110067381D01*
X201818485Y-110146734D01*
X201686837Y-110282726D01*
X195249621Y-110282726D01*
X195249621Y-110253999D01*
X194649111Y-109653488D01*
X193801113Y-110501486D01*
X193572761Y-110501486D01*
X193533756Y-110424346D01*
X193485194Y-110321881D01*
X193621508Y-110321881D01*
X194469506Y-109473883D01*
X194828716Y-109473883D01*
X195429227Y-110074393D01*
X195653733Y-110074393D01*
X196054890Y-109677581D01*
X196134243Y-109580889D01*
X196193207Y-109470575D01*
X196229517Y-109350877D01*
X196241777Y-109226396D01*
X196229517Y-109101914D01*
X196193207Y-108982216D01*
X196134243Y-108871902D01*
X196054890Y-108775211D01*
X195901220Y-108625885D01*
X195676714Y-108625885D01*
X194828716Y-109473883D01*
X194469506Y-109473883D01*
X193868995Y-108873373D01*
X193644489Y-108873373D01*
X193243332Y-109270185D01*
X193163979Y-109366877D01*
X193112029Y-109464069D01*
X193110797Y-109461015D01*
X192994361Y-109141411D01*
X192891431Y-108822732D01*
X192802685Y-108505016D01*
X192794343Y-108469261D01*
X194048601Y-108469261D01*
X194048601Y-108693767D01*
X194649111Y-109294278D01*
X195497109Y-108446280D01*
X195497109Y-108221774D01*
X195347783Y-108068104D01*
X195251092Y-107988751D01*
X195185337Y-107953604D01*
X200198223Y-107953604D01*
X200210483Y-108078086D01*
X200246793Y-108197784D01*
X200305758Y-108308098D01*
X200385110Y-108404789D01*
X201092217Y-109111896D01*
X201188908Y-109191248D01*
X201299222Y-109250213D01*
X201418920Y-109286523D01*
X201543402Y-109298783D01*
X201667884Y-109286523D01*
X201787582Y-109250213D01*
X201897896Y-109191248D01*
X201908280Y-109182726D01*
X202786837Y-109182726D01*
X202786837Y-109407232D01*
X203316637Y-109937032D01*
X203899470Y-109354199D01*
X203899470Y-109129693D01*
X203820855Y-109046734D01*
X203724164Y-108967381D01*
X203613850Y-108908416D01*
X203494151Y-108872107D01*
X203369670Y-108859847D01*
X203245189Y-108872107D01*
X203125490Y-108908416D01*
X203015176Y-108967381D01*
X202918485Y-109046734D01*
X202786837Y-109182726D01*
X201908280Y-109182726D01*
X201994587Y-109111896D01*
X203196668Y-107909815D01*
X203276020Y-107813124D01*
X203334985Y-107702810D01*
X203371295Y-107583112D01*
X203380219Y-107492492D01*
X207260188Y-107492492D01*
X207301035Y-107762238D01*
X207393723Y-108018832D01*
X207454140Y-108131863D01*
X207693007Y-108197388D01*
X208470395Y-107420000D01*
X207693007Y-106642612D01*
X207454140Y-106708137D01*
X207338240Y-106955116D01*
X207272750Y-107219960D01*
X207260188Y-107492492D01*
X203380219Y-107492492D01*
X203383555Y-107458630D01*
X203371295Y-107334148D01*
X203334985Y-107214450D01*
X203276020Y-107104136D01*
X203196668Y-107007445D01*
X202652230Y-106463007D01*
X207872612Y-106463007D01*
X208650000Y-107240395D01*
X209427388Y-106463007D01*
X209361863Y-106224140D01*
X209114884Y-106108240D01*
X208850040Y-106042750D01*
X208577508Y-106030188D01*
X208307762Y-106071035D01*
X208051168Y-106163723D01*
X207938137Y-106224140D01*
X207872612Y-106463007D01*
X202652230Y-106463007D01*
X202489561Y-106300338D01*
X202392870Y-106220986D01*
X202282556Y-106162021D01*
X202162858Y-106125711D01*
X202038376Y-106113451D01*
X201913894Y-106125711D01*
X201794196Y-106162021D01*
X201683882Y-106220986D01*
X201587191Y-106300338D01*
X200385110Y-107502419D01*
X200305758Y-107599110D01*
X200246793Y-107709424D01*
X200210483Y-107829122D01*
X200198223Y-107953604D01*
X195185337Y-107953604D01*
X195140778Y-107929787D01*
X195021080Y-107893477D01*
X194896598Y-107881217D01*
X194772117Y-107893477D01*
X194652419Y-107929787D01*
X194542105Y-107988751D01*
X194445413Y-108068104D01*
X194048601Y-108469261D01*
X192794343Y-108469261D01*
X192728781Y-108188279D01*
X192670360Y-107872559D01*
X192628013Y-107557688D01*
X192613023Y-107374172D01*
X192714312Y-107118965D01*
X192720271Y-107098249D01*
X192728820Y-107078460D01*
X192731466Y-107069997D01*
X192848510Y-106686328D01*
X192852980Y-106664089D01*
X192860171Y-106642572D01*
X192862087Y-106633914D01*
X192942270Y-106259213D01*
X192944901Y-106236042D01*
X192950337Y-106213361D01*
X192951491Y-106204569D01*
X192971088Y-106046714D01*
X198255885Y-106046714D01*
X198255885Y-106271220D01*
X198405211Y-106424890D01*
X198501902Y-106504243D01*
X198612216Y-106563207D01*
X198731914Y-106599517D01*
X198856396Y-106611777D01*
X198980877Y-106599517D01*
X199100575Y-106563207D01*
X199210889Y-106504243D01*
X199307581Y-106424890D01*
X199704393Y-106023733D01*
X199704393Y-105799227D01*
X199103883Y-105198716D01*
X198255885Y-106046714D01*
X192971088Y-106046714D01*
X192996968Y-105838264D01*
X192997571Y-105814894D01*
X193001013Y-105791766D01*
X193001394Y-105782907D01*
X193014321Y-105424429D01*
X193012914Y-105401647D01*
X193014329Y-105378859D01*
X193013950Y-105369999D01*
X193008808Y-105266598D01*
X197511217Y-105266598D01*
X197523477Y-105391080D01*
X197559787Y-105510778D01*
X197618751Y-105621092D01*
X197698104Y-105717783D01*
X197851774Y-105867109D01*
X198076280Y-105867109D01*
X198924278Y-105019111D01*
X199283488Y-105019111D01*
X199883999Y-105619621D01*
X200108505Y-105619621D01*
X200509662Y-105222809D01*
X200589015Y-105126117D01*
X200647979Y-105015803D01*
X200684289Y-104896105D01*
X200696549Y-104771624D01*
X200684289Y-104647142D01*
X200647979Y-104527444D01*
X200589015Y-104417130D01*
X200509662Y-104320439D01*
X200355992Y-104171113D01*
X200131486Y-104171113D01*
X199283488Y-105019111D01*
X198924278Y-105019111D01*
X198323767Y-104418601D01*
X198099261Y-104418601D01*
X197698104Y-104815413D01*
X197618751Y-104912105D01*
X197559787Y-105022419D01*
X197523477Y-105142117D01*
X197511217Y-105266598D01*
X193008808Y-105266598D01*
X192996483Y-105018779D01*
X192993294Y-104997308D01*
X192992856Y-104975604D01*
X192991751Y-104966806D01*
X192946044Y-104622273D01*
X192941468Y-104602695D01*
X192939514Y-104582688D01*
X192937735Y-104574002D01*
X192865943Y-104235588D01*
X192860465Y-104218296D01*
X192857426Y-104200410D01*
X192855035Y-104191871D01*
X192804027Y-104014489D01*
X198503373Y-104014489D01*
X198503373Y-104238995D01*
X199103883Y-104839506D01*
X199951881Y-103991508D01*
X199951881Y-103767002D01*
X199802555Y-103613332D01*
X199705864Y-103533979D01*
X199595550Y-103475015D01*
X199475852Y-103438705D01*
X199351370Y-103426445D01*
X199226889Y-103438705D01*
X199107191Y-103475015D01*
X198996877Y-103533979D01*
X198900185Y-103613332D01*
X198503373Y-104014489D01*
X192804027Y-104014489D01*
X192759315Y-103859005D01*
X192753430Y-103844175D01*
X192749757Y-103828653D01*
X192746824Y-103820284D01*
X192629329Y-103492398D01*
X192623493Y-103480060D01*
X192619600Y-103466977D01*
X192616196Y-103458789D01*
X192479083Y-103135312D01*
X192473666Y-103125365D01*
X192469901Y-103114678D01*
X192466097Y-103106669D01*
X192311519Y-102787032D01*
X192306806Y-102779313D01*
X192303440Y-102770913D01*
X192299300Y-102763072D01*
X192129415Y-102446706D01*
X192125606Y-102441023D01*
X192122836Y-102434763D01*
X192118420Y-102427074D01*
X191935382Y-102113409D01*
X191932608Y-102109573D01*
X191930569Y-102105300D01*
X191925934Y-102097741D01*
X191731898Y-101786206D01*
X191730241Y-101784048D01*
X191729015Y-101781621D01*
X191724211Y-101774168D01*
X191521332Y-101464195D01*
X191520834Y-101463576D01*
X191520468Y-101462880D01*
X191515542Y-101455507D01*
X191305976Y-101146526D01*
X191305902Y-101146437D01*
X191302162Y-101140966D01*
X191088064Y-100832406D01*
X191087969Y-100832295D01*
X191086262Y-100829823D01*
X190870053Y-100521498D01*
X190870010Y-100521436D01*
X190654366Y-100213516D01*
X190442890Y-99907562D01*
X190237396Y-99602682D01*
X190039979Y-99298499D01*
X189852701Y-98994711D01*
X189677486Y-98690951D01*
X189516232Y-98386966D01*
X189370712Y-98082487D01*
X189242542Y-97777110D01*
X189133263Y-97470476D01*
X189044246Y-97161927D01*
X188976802Y-96850623D01*
X188928796Y-96511094D01*
X188925517Y-96497589D01*
X188924318Y-96483743D01*
X188910920Y-96437470D01*
X188899552Y-96390653D01*
X188893712Y-96378041D01*
X188889847Y-96364694D01*
X188886504Y-96356481D01*
X188772992Y-96083094D01*
X188690434Y-95827020D01*
X188626853Y-95562408D01*
X188580971Y-95288959D01*
X188551602Y-95006711D01*
X188537551Y-94716045D01*
X188537535Y-94417459D01*
X188550162Y-94111685D01*
X188573927Y-93799485D01*
X188607223Y-93481560D01*
X188648327Y-93158849D01*
X188695468Y-92831996D01*
X188746791Y-92501758D01*
X188800421Y-92168597D01*
X188800421Y-92168595D01*
X188800426Y-92168566D01*
X188854097Y-91835046D01*
X188854106Y-91834896D01*
X188854652Y-91831535D01*
X188906123Y-91499860D01*
X188906129Y-91499750D01*
X188907183Y-91492761D01*
X188954472Y-91163521D01*
X188954519Y-91162477D01*
X188954764Y-91161463D01*
X188955935Y-91152673D01*
X188997064Y-90826460D01*
X188997148Y-90823414D01*
X188997794Y-90820437D01*
X188998758Y-90811622D01*
X189031745Y-90489025D01*
X189031767Y-90483846D01*
X189032711Y-90478754D01*
X189033408Y-90469914D01*
X189056273Y-90151525D01*
X189056079Y-90144060D01*
X189057164Y-90136679D01*
X189057530Y-90127819D01*
X189068293Y-89814228D01*
X189067665Y-89804338D01*
X189068664Y-89794472D01*
X189068630Y-89785605D01*
X189065310Y-89477402D01*
X189063955Y-89464959D01*
X189064551Y-89452452D01*
X189064045Y-89443599D01*
X189044663Y-89141375D01*
X189042206Y-89126320D01*
X189041989Y-89111069D01*
X189040937Y-89102265D01*
X189003511Y-88806611D01*
X188999510Y-88789022D01*
X188997981Y-88771047D01*
X188996310Y-88762339D01*
X188938861Y-88473845D01*
X188932837Y-88453971D01*
X188929445Y-88433486D01*
X188927090Y-88424937D01*
X188847638Y-88144193D01*
X188839148Y-88122531D01*
X188833366Y-88100001D01*
X188830276Y-88091690D01*
X188726839Y-87819287D01*
X188715577Y-87796592D01*
X188707014Y-87772753D01*
X188703161Y-87764767D01*
X188573759Y-87501296D01*
X188559669Y-87478533D01*
X188548193Y-87454346D01*
X188543576Y-87446776D01*
X188386230Y-87192828D01*
X188369575Y-87171030D01*
X188355402Y-87147559D01*
X188350050Y-87140489D01*
X188162779Y-86896654D01*
X188144162Y-86876777D01*
X188127840Y-86854985D01*
X188121812Y-86848482D01*
X187902633Y-86615350D01*
X187882877Y-86598075D01*
X187865198Y-86578688D01*
X187858571Y-86572796D01*
X187626670Y-86369509D01*
X187329182Y-86058062D01*
X187329064Y-86057960D01*
X187325957Y-86054709D01*
X187007128Y-85725779D01*
X187007006Y-85725676D01*
X187004062Y-85722638D01*
X186683444Y-85396403D01*
X186683328Y-85396306D01*
X186680545Y-85393471D01*
X186358249Y-85069760D01*
X186358125Y-85069658D01*
X186355523Y-85067039D01*
X186031662Y-84745678D01*
X186031543Y-84745581D01*
X186029113Y-84743163D01*
X185703800Y-84423982D01*
X185703690Y-84423893D01*
X185701434Y-84421672D01*
X185374780Y-84104496D01*
X185374667Y-84104406D01*
X185372600Y-84102390D01*
X185144719Y-83883223D01*
X186962589Y-81946926D01*
X186963999Y-81945400D01*
X189835043Y-78785258D01*
X194033346Y-75760888D01*
X200242213Y-73034559D01*
X205931135Y-72507439D01*
X211669887Y-72935852D01*
G04 #@! TA.AperFunction,Conductor*
D15*
G36*
X211669887Y-72935852D02*
G01*
X218252954Y-74564243D01*
X220673163Y-77152385D01*
X223385302Y-80662213D01*
X225677310Y-84403463D01*
X225677137Y-84403833D01*
X225674067Y-84416292D01*
X225669110Y-84428124D01*
X225666557Y-84436616D01*
X225576703Y-84743243D01*
X225576686Y-84743335D01*
X225574645Y-84750424D01*
X225486987Y-85063140D01*
X225486967Y-85063250D01*
X225485121Y-85069941D01*
X225399648Y-85388431D01*
X225399627Y-85388559D01*
X225397952Y-85394886D01*
X225314653Y-85718836D01*
X225314631Y-85718977D01*
X225313110Y-85724966D01*
X225231972Y-86054060D01*
X225231952Y-86054201D01*
X225230561Y-86059900D01*
X225151575Y-86393824D01*
X225151555Y-86393973D01*
X225150285Y-86399390D01*
X225073439Y-86737832D01*
X225073419Y-86737988D01*
X225072257Y-86743144D01*
X224997539Y-87085787D01*
X224997521Y-87085939D01*
X224996452Y-87090870D01*
X224923852Y-87437401D01*
X224923834Y-87437564D01*
X224922853Y-87442267D01*
X224852359Y-87792373D01*
X224852343Y-87792526D01*
X224851437Y-87797040D01*
X224783037Y-88150402D01*
X224783022Y-88150562D01*
X224782185Y-88154889D01*
X224715870Y-88511198D01*
X224715856Y-88511358D01*
X224715082Y-88515514D01*
X224650840Y-88874453D01*
X224650827Y-88874615D01*
X224650111Y-88878609D01*
X224587929Y-89239863D01*
X224587918Y-89240019D01*
X224587251Y-89243879D01*
X224527120Y-89607136D01*
X224527110Y-89607289D01*
X224526490Y-89611015D01*
X224468398Y-89975959D01*
X224468389Y-89976109D01*
X224467811Y-89979716D01*
X224411747Y-90346031D01*
X224411738Y-90346190D01*
X224411201Y-90349673D01*
X224357153Y-90717049D01*
X224357146Y-90717198D01*
X224356643Y-90720585D01*
X224304600Y-91088706D01*
X224304594Y-91088853D01*
X224304123Y-91092148D01*
X224254075Y-91460698D01*
X224254070Y-91460844D01*
X224253629Y-91464050D01*
X224205563Y-91832716D01*
X224205559Y-91832855D01*
X224205144Y-91835991D01*
X224159051Y-92204458D01*
X224159047Y-92204603D01*
X224158659Y-92207657D01*
X224114525Y-92575612D01*
X224114522Y-92575757D01*
X224114157Y-92578747D01*
X224071973Y-92945875D01*
X224071971Y-92946017D01*
X224071627Y-92948952D01*
X224031381Y-93314938D01*
X224031379Y-93315080D01*
X224031056Y-93317964D01*
X223992737Y-93682493D01*
X223992736Y-93682635D01*
X223992431Y-93685474D01*
X223956028Y-94048234D01*
X223956028Y-94048365D01*
X223955739Y-94051176D01*
X223921240Y-94411852D01*
X223921240Y-94411994D01*
X223920969Y-94414762D01*
X223888363Y-94773038D01*
X223888364Y-94773169D01*
X223888106Y-94775926D01*
X223857383Y-95131490D01*
X223857385Y-95131627D01*
X223857142Y-95134357D01*
X223828289Y-95486893D01*
X223828291Y-95487032D01*
X223828062Y-95489751D01*
X223801069Y-95838946D01*
X223801133Y-95842074D01*
X223800619Y-95845162D01*
X223802408Y-95903963D01*
X223803620Y-95962860D01*
X223804292Y-95965922D01*
X223804387Y-95969044D01*
X223805581Y-95977831D01*
X223857768Y-96342599D01*
X223876241Y-96666309D01*
X223867193Y-96977236D01*
X223832675Y-97277890D01*
X223774333Y-97570553D01*
X223693509Y-97857228D01*
X223591388Y-98139546D01*
X223469179Y-98418691D01*
X223328162Y-98695621D01*
X223169841Y-98970962D01*
X222995851Y-99245307D01*
X222807993Y-99519191D01*
X222608217Y-99793137D01*
X222398656Y-100067606D01*
X222181258Y-100343473D01*
X221958474Y-100621103D01*
X221732937Y-100900783D01*
X221732869Y-100900886D01*
X221731353Y-100902755D01*
X221506880Y-101183397D01*
X221506810Y-101183504D01*
X221502772Y-101188588D01*
X221281991Y-101470591D01*
X221281472Y-101471407D01*
X221280810Y-101472105D01*
X221275414Y-101479141D01*
X221060568Y-101763381D01*
X221058939Y-101766041D01*
X221056848Y-101768353D01*
X221051620Y-101775516D01*
X220844953Y-102062870D01*
X220842271Y-102067493D01*
X220838812Y-102071562D01*
X220833807Y-102078881D01*
X220637562Y-102370224D01*
X220633930Y-102376950D01*
X220629204Y-102382959D01*
X220624480Y-102390463D01*
X220440900Y-102686672D01*
X220436480Y-102695658D01*
X220430651Y-102703804D01*
X220426273Y-102711515D01*
X220257602Y-103013465D01*
X220252631Y-103024849D01*
X220245945Y-103035323D01*
X220241981Y-103043255D01*
X220090463Y-103351822D01*
X220085261Y-103365697D01*
X220078058Y-103378645D01*
X220074581Y-103386802D01*
X219942459Y-103702863D01*
X219937430Y-103719223D01*
X219930145Y-103734701D01*
X219927228Y-103743074D01*
X219816745Y-104067504D01*
X219812359Y-104086193D01*
X219805495Y-104104123D01*
X219803208Y-104112690D01*
X219716607Y-104446367D01*
X219713348Y-104467062D01*
X219707442Y-104487160D01*
X219705845Y-104495882D01*
X219645371Y-104839680D01*
X219643674Y-104861857D01*
X219639214Y-104883641D01*
X219638353Y-104892466D01*
X219606249Y-105247262D01*
X219606421Y-105270226D01*
X219603768Y-105293042D01*
X219603670Y-105301909D01*
X219602179Y-105668579D01*
X219604338Y-105691564D01*
X219603664Y-105714639D01*
X219604333Y-105723481D01*
X219635017Y-106094651D01*
X219662900Y-106588156D01*
X219669896Y-107072777D01*
X219656938Y-107553831D01*
X219624643Y-108031395D01*
X219573618Y-108505520D01*
X219504455Y-108976300D01*
X219417756Y-109443688D01*
X219314092Y-109907781D01*
X219194055Y-110368529D01*
X219115401Y-110633406D01*
X219115401Y-109540824D01*
X219119087Y-109503401D01*
X219114578Y-109457619D01*
X219104375Y-109354023D01*
X219060803Y-109210386D01*
X219021595Y-109137033D01*
X218990046Y-109078008D01*
X218918680Y-108991049D01*
X218894823Y-108961979D01*
X218865753Y-108938122D01*
X217626636Y-107699006D01*
X217655000Y-107556411D01*
X217655000Y-107283589D01*
X217601775Y-107016011D01*
X217497371Y-106763957D01*
X217345799Y-106537114D01*
X217152886Y-106344201D01*
X216926043Y-106192629D01*
X216673989Y-106088225D01*
X216406411Y-106035000D01*
X216133589Y-106035000D01*
X215866011Y-106088225D01*
X215731200Y-106144065D01*
X215731200Y-104844925D01*
X215734640Y-104809999D01*
X215731200Y-104775073D01*
X215731200Y-104775064D01*
X215720909Y-104670580D01*
X215680242Y-104536519D01*
X215614202Y-104412967D01*
X215597826Y-104393013D01*
X215547597Y-104331809D01*
X215547593Y-104331805D01*
X215525326Y-104304673D01*
X215498195Y-104282407D01*
X209906200Y-98690413D01*
X209906200Y-90264414D01*
X209987606Y-90197606D01*
X210020000Y-90158134D01*
X210052394Y-90197606D01*
X210179392Y-90301831D01*
X210324284Y-90379278D01*
X210481500Y-90426969D01*
X210645000Y-90443072D01*
X211045000Y-90443072D01*
X211208500Y-90426969D01*
X211258021Y-90411947D01*
X211335506Y-90475537D01*
X211445820Y-90534502D01*
X211565518Y-90570812D01*
X211690000Y-90583072D01*
X213049411Y-90583072D01*
X213134002Y-90667663D01*
X213418169Y-90857537D01*
X213733919Y-90988325D01*
X214069117Y-91055000D01*
X214410883Y-91055000D01*
X214746081Y-90988325D01*
X215061831Y-90857537D01*
X215345998Y-90667663D01*
X215430892Y-90582769D01*
X215804250Y-90580000D01*
X215963000Y-90421250D01*
X215963000Y-89551211D01*
X215975000Y-89490883D01*
X215975000Y-89447000D01*
X216217000Y-89447000D01*
X216217000Y-90421250D01*
X216375750Y-90580000D01*
X216790000Y-90583072D01*
X216914482Y-90570812D01*
X217034180Y-90534502D01*
X217144494Y-90475537D01*
X217241185Y-90396185D01*
X217320537Y-90299494D01*
X217379502Y-90189180D01*
X217415812Y-90069482D01*
X217428072Y-89945000D01*
X217425000Y-89605750D01*
X217266250Y-89447000D01*
X216217000Y-89447000D01*
X215975000Y-89447000D01*
X215975000Y-89149117D01*
X215963000Y-89088789D01*
X215963000Y-88218750D01*
X216217000Y-88218750D01*
X216217000Y-89193000D01*
X217266250Y-89193000D01*
X217425000Y-89034250D01*
X217428072Y-88695000D01*
X217415812Y-88570518D01*
X217379502Y-88450820D01*
X217320537Y-88340506D01*
X217241185Y-88243815D01*
X217144494Y-88164463D01*
X217034180Y-88105498D01*
X216914482Y-88069188D01*
X216790000Y-88056928D01*
X216375750Y-88060000D01*
X216217000Y-88218750D01*
X215963000Y-88218750D01*
X215804250Y-88060000D01*
X215430892Y-88057231D01*
X215345998Y-87972337D01*
X215061831Y-87782463D01*
X214746081Y-87651675D01*
X214410883Y-87585000D01*
X214069117Y-87585000D01*
X213733919Y-87651675D01*
X213418169Y-87782463D01*
X213134002Y-87972337D01*
X213049411Y-88056928D01*
X211690000Y-88056928D01*
X211565518Y-88069188D01*
X211445820Y-88105498D01*
X211335506Y-88164463D01*
X211240228Y-88242656D01*
X211208500Y-88233031D01*
X211045000Y-88216928D01*
X210645000Y-88216928D01*
X210481500Y-88233031D01*
X210324284Y-88280722D01*
X210179392Y-88358169D01*
X210052394Y-88462394D01*
X210020000Y-88501866D01*
X209987606Y-88462394D01*
X209860608Y-88358169D01*
X209715716Y-88280722D01*
X209558500Y-88233031D01*
X209395000Y-88216928D01*
X208995000Y-88216928D01*
X208831500Y-88233031D01*
X208674284Y-88280722D01*
X208529392Y-88358169D01*
X208402394Y-88462394D01*
X208298169Y-88589392D01*
X208220722Y-88734284D01*
X208173031Y-88891500D01*
X208156928Y-89055000D01*
X208156928Y-89605000D01*
X208173031Y-89768500D01*
X208220722Y-89925716D01*
X208298169Y-90070608D01*
X208402394Y-90197606D01*
X208483800Y-90264415D01*
X208483801Y-98950064D01*
X208480360Y-98985000D01*
X208483801Y-99019936D01*
X208494092Y-99124420D01*
X208527907Y-99235893D01*
X208534759Y-99258481D01*
X208600798Y-99382032D01*
X208667052Y-99462762D01*
X208689674Y-99490327D01*
X208716810Y-99512597D01*
X214308800Y-105104588D01*
X214308801Y-106035055D01*
X214308800Y-106035064D01*
X214308800Y-106160634D01*
X214133989Y-106088225D01*
X213866411Y-106035000D01*
X213593589Y-106035000D01*
X213326011Y-106088225D01*
X213073957Y-106192629D01*
X212847114Y-106344201D01*
X212654201Y-106537114D01*
X212502629Y-106763957D01*
X212460000Y-106866873D01*
X212417371Y-106763957D01*
X212265799Y-106537114D01*
X212072886Y-106344201D01*
X211846043Y-106192629D01*
X211593989Y-106088225D01*
X211326411Y-106035000D01*
X211053589Y-106035000D01*
X210786011Y-106088225D01*
X210533957Y-106192629D01*
X210307114Y-106344201D01*
X210114201Y-106537114D01*
X209962629Y-106763957D01*
X209921489Y-106863279D01*
X209906277Y-106821168D01*
X209845860Y-106708137D01*
X209606993Y-106642612D01*
X208829605Y-107420000D01*
X208843748Y-107434143D01*
X208664143Y-107613748D01*
X208650000Y-107599605D01*
X208016117Y-108233488D01*
X208014673Y-108234673D01*
X208013488Y-108236117D01*
X207872612Y-108376993D01*
X207873604Y-108380608D01*
X205504089Y-110750123D01*
X205411845Y-110637724D01*
X205129002Y-110354881D01*
X205002004Y-110250656D01*
X204857112Y-110173209D01*
X204699896Y-110125518D01*
X204568603Y-110112587D01*
X204573427Y-110063604D01*
X204561167Y-109939123D01*
X204524858Y-109819424D01*
X204465893Y-109709110D01*
X204386540Y-109612419D01*
X204303581Y-109533804D01*
X204079075Y-109533804D01*
X203496242Y-110116637D01*
X203510385Y-110130780D01*
X203330780Y-110310385D01*
X203316637Y-110296242D01*
X202396242Y-111216637D01*
X202410385Y-111230780D01*
X202230780Y-111410385D01*
X202216637Y-111396242D01*
X202202495Y-111410385D01*
X202022890Y-111230780D01*
X202037032Y-111216637D01*
X201507232Y-110686837D01*
X201282726Y-110686837D01*
X201146734Y-110818485D01*
X201067381Y-110915176D01*
X201008416Y-111025490D01*
X200989116Y-111089116D01*
X200925490Y-111108416D01*
X200815176Y-111167381D01*
X200718485Y-111246734D01*
X200586837Y-111382726D01*
X200586837Y-111607232D01*
X201116637Y-112137032D01*
X201341946Y-111911724D01*
X201373349Y-111943127D01*
X200954293Y-112362183D01*
X200922890Y-112330780D01*
X200937032Y-112316637D01*
X200407232Y-111786837D01*
X200182726Y-111786837D01*
X200046734Y-111918485D01*
X199967381Y-112015176D01*
X199908416Y-112125490D01*
X199872107Y-112245189D01*
X199869677Y-112269862D01*
X199748954Y-112306483D01*
X199604062Y-112383930D01*
X199477064Y-112488155D01*
X199088155Y-112877064D01*
X198983930Y-113004062D01*
X198965234Y-113039039D01*
X198873056Y-113000857D01*
X198874640Y-112984772D01*
X198871200Y-112949843D01*
X198871200Y-112949837D01*
X198860909Y-112845352D01*
X198820242Y-112711291D01*
X198754202Y-112587739D01*
X198742688Y-112573709D01*
X198687598Y-112506581D01*
X198687593Y-112506576D01*
X198665327Y-112479445D01*
X198644297Y-112462186D01*
X198741896Y-112364587D01*
X198821248Y-112267896D01*
X198880213Y-112157582D01*
X198916523Y-112037884D01*
X198928783Y-111913402D01*
X198916523Y-111788920D01*
X198880213Y-111669222D01*
X198821248Y-111558908D01*
X198741896Y-111462217D01*
X198034789Y-110755110D01*
X197938098Y-110675758D01*
X197827784Y-110616793D01*
X197708086Y-110580483D01*
X197583604Y-110568223D01*
X197459122Y-110580483D01*
X197339424Y-110616793D01*
X197229110Y-110675758D01*
X197132419Y-110755110D01*
X195930338Y-111957191D01*
X195850986Y-112053882D01*
X195792021Y-112164196D01*
X195755711Y-112283894D01*
X195743451Y-112408376D01*
X195755711Y-112532858D01*
X195792021Y-112652556D01*
X195850986Y-112762870D01*
X195930338Y-112859561D01*
X196637445Y-113566668D01*
X196734136Y-113646020D01*
X196844450Y-113704985D01*
X196937034Y-113733070D01*
X196913957Y-113742629D01*
X196687114Y-113894201D01*
X196494201Y-114087114D01*
X196342629Y-114313957D01*
X196238225Y-114566011D01*
X196210468Y-114705553D01*
X196154299Y-114623139D01*
X196154254Y-114623085D01*
X196153625Y-114622152D01*
X195933207Y-114300049D01*
X195712350Y-113977274D01*
X195492440Y-113654534D01*
X195274246Y-113331653D01*
X195058449Y-113008322D01*
X194846318Y-112685127D01*
X194638568Y-112361843D01*
X194436121Y-112038571D01*
X194239839Y-111715336D01*
X194050594Y-111392203D01*
X193869253Y-111069247D01*
X193696689Y-110746585D01*
X193572761Y-110501486D01*
X193801113Y-110501486D01*
X193801113Y-110725992D01*
X193950439Y-110879662D01*
X194047130Y-110959015D01*
X194157444Y-111017979D01*
X194277142Y-111054289D01*
X194401624Y-111066549D01*
X194526105Y-111054289D01*
X194645803Y-111017979D01*
X194756117Y-110959015D01*
X194852809Y-110879662D01*
X195249621Y-110478505D01*
X195249621Y-110282726D01*
X201686837Y-110282726D01*
X201686837Y-110507232D01*
X202216637Y-111037032D01*
X203137032Y-110116637D01*
X202607232Y-109586837D01*
X202382726Y-109586837D01*
X202246734Y-109718485D01*
X202167381Y-109815176D01*
X202108416Y-109925490D01*
X202089116Y-109989116D01*
X202025490Y-110008416D01*
X201915176Y-110067381D01*
X201818485Y-110146734D01*
X201686837Y-110282726D01*
X195249621Y-110282726D01*
X195249621Y-110253999D01*
X194649111Y-109653488D01*
X193801113Y-110501486D01*
X193572761Y-110501486D01*
X193533756Y-110424346D01*
X193485194Y-110321881D01*
X193621508Y-110321881D01*
X194469506Y-109473883D01*
X194828716Y-109473883D01*
X195429227Y-110074393D01*
X195653733Y-110074393D01*
X196054890Y-109677581D01*
X196134243Y-109580889D01*
X196193207Y-109470575D01*
X196229517Y-109350877D01*
X196241777Y-109226396D01*
X196229517Y-109101914D01*
X196193207Y-108982216D01*
X196134243Y-108871902D01*
X196054890Y-108775211D01*
X195901220Y-108625885D01*
X195676714Y-108625885D01*
X194828716Y-109473883D01*
X194469506Y-109473883D01*
X193868995Y-108873373D01*
X193644489Y-108873373D01*
X193243332Y-109270185D01*
X193163979Y-109366877D01*
X193112029Y-109464069D01*
X193110797Y-109461015D01*
X192994361Y-109141411D01*
X192891431Y-108822732D01*
X192802685Y-108505016D01*
X192794343Y-108469261D01*
X194048601Y-108469261D01*
X194048601Y-108693767D01*
X194649111Y-109294278D01*
X195497109Y-108446280D01*
X195497109Y-108221774D01*
X195347783Y-108068104D01*
X195251092Y-107988751D01*
X195185337Y-107953604D01*
X200198223Y-107953604D01*
X200210483Y-108078086D01*
X200246793Y-108197784D01*
X200305758Y-108308098D01*
X200385110Y-108404789D01*
X201092217Y-109111896D01*
X201188908Y-109191248D01*
X201299222Y-109250213D01*
X201418920Y-109286523D01*
X201543402Y-109298783D01*
X201667884Y-109286523D01*
X201787582Y-109250213D01*
X201897896Y-109191248D01*
X201908280Y-109182726D01*
X202786837Y-109182726D01*
X202786837Y-109407232D01*
X203316637Y-109937032D01*
X203899470Y-109354199D01*
X203899470Y-109129693D01*
X203820855Y-109046734D01*
X203724164Y-108967381D01*
X203613850Y-108908416D01*
X203494151Y-108872107D01*
X203369670Y-108859847D01*
X203245189Y-108872107D01*
X203125490Y-108908416D01*
X203015176Y-108967381D01*
X202918485Y-109046734D01*
X202786837Y-109182726D01*
X201908280Y-109182726D01*
X201994587Y-109111896D01*
X203196668Y-107909815D01*
X203276020Y-107813124D01*
X203334985Y-107702810D01*
X203371295Y-107583112D01*
X203380219Y-107492492D01*
X207260188Y-107492492D01*
X207301035Y-107762238D01*
X207393723Y-108018832D01*
X207454140Y-108131863D01*
X207693007Y-108197388D01*
X208470395Y-107420000D01*
X207693007Y-106642612D01*
X207454140Y-106708137D01*
X207338240Y-106955116D01*
X207272750Y-107219960D01*
X207260188Y-107492492D01*
X203380219Y-107492492D01*
X203383555Y-107458630D01*
X203371295Y-107334148D01*
X203334985Y-107214450D01*
X203276020Y-107104136D01*
X203196668Y-107007445D01*
X202652230Y-106463007D01*
X207872612Y-106463007D01*
X208650000Y-107240395D01*
X209427388Y-106463007D01*
X209361863Y-106224140D01*
X209114884Y-106108240D01*
X208850040Y-106042750D01*
X208577508Y-106030188D01*
X208307762Y-106071035D01*
X208051168Y-106163723D01*
X207938137Y-106224140D01*
X207872612Y-106463007D01*
X202652230Y-106463007D01*
X202489561Y-106300338D01*
X202392870Y-106220986D01*
X202282556Y-106162021D01*
X202162858Y-106125711D01*
X202038376Y-106113451D01*
X201913894Y-106125711D01*
X201794196Y-106162021D01*
X201683882Y-106220986D01*
X201587191Y-106300338D01*
X200385110Y-107502419D01*
X200305758Y-107599110D01*
X200246793Y-107709424D01*
X200210483Y-107829122D01*
X200198223Y-107953604D01*
X195185337Y-107953604D01*
X195140778Y-107929787D01*
X195021080Y-107893477D01*
X194896598Y-107881217D01*
X194772117Y-107893477D01*
X194652419Y-107929787D01*
X194542105Y-107988751D01*
X194445413Y-108068104D01*
X194048601Y-108469261D01*
X192794343Y-108469261D01*
X192728781Y-108188279D01*
X192670360Y-107872559D01*
X192628013Y-107557688D01*
X192613023Y-107374172D01*
X192714312Y-107118965D01*
X192720271Y-107098249D01*
X192728820Y-107078460D01*
X192731466Y-107069997D01*
X192848510Y-106686328D01*
X192852980Y-106664089D01*
X192860171Y-106642572D01*
X192862087Y-106633914D01*
X192942270Y-106259213D01*
X192944901Y-106236042D01*
X192950337Y-106213361D01*
X192951491Y-106204569D01*
X192971088Y-106046714D01*
X198255885Y-106046714D01*
X198255885Y-106271220D01*
X198405211Y-106424890D01*
X198501902Y-106504243D01*
X198612216Y-106563207D01*
X198731914Y-106599517D01*
X198856396Y-106611777D01*
X198980877Y-106599517D01*
X199100575Y-106563207D01*
X199210889Y-106504243D01*
X199307581Y-106424890D01*
X199704393Y-106023733D01*
X199704393Y-105799227D01*
X199103883Y-105198716D01*
X198255885Y-106046714D01*
X192971088Y-106046714D01*
X192996968Y-105838264D01*
X192997571Y-105814894D01*
X193001013Y-105791766D01*
X193001394Y-105782907D01*
X193014321Y-105424429D01*
X193012914Y-105401647D01*
X193014329Y-105378859D01*
X193013950Y-105369999D01*
X193008808Y-105266598D01*
X197511217Y-105266598D01*
X197523477Y-105391080D01*
X197559787Y-105510778D01*
X197618751Y-105621092D01*
X197698104Y-105717783D01*
X197851774Y-105867109D01*
X198076280Y-105867109D01*
X198924278Y-105019111D01*
X199283488Y-105019111D01*
X199883999Y-105619621D01*
X200108505Y-105619621D01*
X200509662Y-105222809D01*
X200589015Y-105126117D01*
X200647979Y-105015803D01*
X200684289Y-104896105D01*
X200696549Y-104771624D01*
X200684289Y-104647142D01*
X200647979Y-104527444D01*
X200589015Y-104417130D01*
X200509662Y-104320439D01*
X200355992Y-104171113D01*
X200131486Y-104171113D01*
X199283488Y-105019111D01*
X198924278Y-105019111D01*
X198323767Y-104418601D01*
X198099261Y-104418601D01*
X197698104Y-104815413D01*
X197618751Y-104912105D01*
X197559787Y-105022419D01*
X197523477Y-105142117D01*
X197511217Y-105266598D01*
X193008808Y-105266598D01*
X192996483Y-105018779D01*
X192993294Y-104997308D01*
X192992856Y-104975604D01*
X192991751Y-104966806D01*
X192946044Y-104622273D01*
X192941468Y-104602695D01*
X192939514Y-104582688D01*
X192937735Y-104574002D01*
X192865943Y-104235588D01*
X192860465Y-104218296D01*
X192857426Y-104200410D01*
X192855035Y-104191871D01*
X192804027Y-104014489D01*
X198503373Y-104014489D01*
X198503373Y-104238995D01*
X199103883Y-104839506D01*
X199951881Y-103991508D01*
X199951881Y-103767002D01*
X199802555Y-103613332D01*
X199705864Y-103533979D01*
X199595550Y-103475015D01*
X199475852Y-103438705D01*
X199351370Y-103426445D01*
X199226889Y-103438705D01*
X199107191Y-103475015D01*
X198996877Y-103533979D01*
X198900185Y-103613332D01*
X198503373Y-104014489D01*
X192804027Y-104014489D01*
X192759315Y-103859005D01*
X192753430Y-103844175D01*
X192749757Y-103828653D01*
X192746824Y-103820284D01*
X192629329Y-103492398D01*
X192623493Y-103480060D01*
X192619600Y-103466977D01*
X192616196Y-103458789D01*
X192479083Y-103135312D01*
X192473666Y-103125365D01*
X192469901Y-103114678D01*
X192466097Y-103106669D01*
X192311519Y-102787032D01*
X192306806Y-102779313D01*
X192303440Y-102770913D01*
X192299300Y-102763072D01*
X192129415Y-102446706D01*
X192125606Y-102441023D01*
X192122836Y-102434763D01*
X192118420Y-102427074D01*
X191935382Y-102113409D01*
X191932608Y-102109573D01*
X191930569Y-102105300D01*
X191925934Y-102097741D01*
X191731898Y-101786206D01*
X191730241Y-101784048D01*
X191729015Y-101781621D01*
X191724211Y-101774168D01*
X191521332Y-101464195D01*
X191520834Y-101463576D01*
X191520468Y-101462880D01*
X191515542Y-101455507D01*
X191305976Y-101146526D01*
X191305902Y-101146437D01*
X191302162Y-101140966D01*
X191088064Y-100832406D01*
X191087969Y-100832295D01*
X191086262Y-100829823D01*
X190870053Y-100521498D01*
X190870010Y-100521436D01*
X190654366Y-100213516D01*
X190442890Y-99907562D01*
X190237396Y-99602682D01*
X190039979Y-99298499D01*
X189852701Y-98994711D01*
X189677486Y-98690951D01*
X189516232Y-98386966D01*
X189370712Y-98082487D01*
X189242542Y-97777110D01*
X189133263Y-97470476D01*
X189044246Y-97161927D01*
X188976802Y-96850623D01*
X188928796Y-96511094D01*
X188925517Y-96497589D01*
X188924318Y-96483743D01*
X188910920Y-96437470D01*
X188899552Y-96390653D01*
X188893712Y-96378041D01*
X188889847Y-96364694D01*
X188886504Y-96356481D01*
X188772992Y-96083094D01*
X188690434Y-95827020D01*
X188626853Y-95562408D01*
X188580971Y-95288959D01*
X188551602Y-95006711D01*
X188537551Y-94716045D01*
X188537535Y-94417459D01*
X188550162Y-94111685D01*
X188573927Y-93799485D01*
X188607223Y-93481560D01*
X188648327Y-93158849D01*
X188695468Y-92831996D01*
X188746791Y-92501758D01*
X188800421Y-92168597D01*
X188800421Y-92168595D01*
X188800426Y-92168566D01*
X188854097Y-91835046D01*
X188854106Y-91834896D01*
X188854652Y-91831535D01*
X188906123Y-91499860D01*
X188906129Y-91499750D01*
X188907183Y-91492761D01*
X188954472Y-91163521D01*
X188954519Y-91162477D01*
X188954764Y-91161463D01*
X188955935Y-91152673D01*
X188997064Y-90826460D01*
X188997148Y-90823414D01*
X188997794Y-90820437D01*
X188998758Y-90811622D01*
X189031745Y-90489025D01*
X189031767Y-90483846D01*
X189032711Y-90478754D01*
X189033408Y-90469914D01*
X189056273Y-90151525D01*
X189056079Y-90144060D01*
X189057164Y-90136679D01*
X189057530Y-90127819D01*
X189068293Y-89814228D01*
X189067665Y-89804338D01*
X189068664Y-89794472D01*
X189068630Y-89785605D01*
X189065310Y-89477402D01*
X189063955Y-89464959D01*
X189064551Y-89452452D01*
X189064045Y-89443599D01*
X189044663Y-89141375D01*
X189042206Y-89126320D01*
X189041989Y-89111069D01*
X189040937Y-89102265D01*
X189003511Y-88806611D01*
X188999510Y-88789022D01*
X188997981Y-88771047D01*
X188996310Y-88762339D01*
X188938861Y-88473845D01*
X188932837Y-88453971D01*
X188929445Y-88433486D01*
X188927090Y-88424937D01*
X188847638Y-88144193D01*
X188839148Y-88122531D01*
X188833366Y-88100001D01*
X188830276Y-88091690D01*
X188726839Y-87819287D01*
X188715577Y-87796592D01*
X188707014Y-87772753D01*
X188703161Y-87764767D01*
X188573759Y-87501296D01*
X188559669Y-87478533D01*
X188548193Y-87454346D01*
X188543576Y-87446776D01*
X188386230Y-87192828D01*
X188369575Y-87171030D01*
X188355402Y-87147559D01*
X188350050Y-87140489D01*
X188162779Y-86896654D01*
X188144162Y-86876777D01*
X188127840Y-86854985D01*
X188121812Y-86848482D01*
X187902633Y-86615350D01*
X187882877Y-86598075D01*
X187865198Y-86578688D01*
X187858571Y-86572796D01*
X187626670Y-86369509D01*
X187329182Y-86058062D01*
X187329064Y-86057960D01*
X187325957Y-86054709D01*
X187007128Y-85725779D01*
X187007006Y-85725676D01*
X187004062Y-85722638D01*
X186683444Y-85396403D01*
X186683328Y-85396306D01*
X186680545Y-85393471D01*
X186358249Y-85069760D01*
X186358125Y-85069658D01*
X186355523Y-85067039D01*
X186031662Y-84745678D01*
X186031543Y-84745581D01*
X186029113Y-84743163D01*
X185703800Y-84423982D01*
X185703690Y-84423893D01*
X185701434Y-84421672D01*
X185374780Y-84104496D01*
X185374667Y-84104406D01*
X185372600Y-84102390D01*
X185144719Y-83883223D01*
X186962589Y-81946926D01*
X186963999Y-81945400D01*
X189835043Y-78785258D01*
X194033346Y-75760888D01*
X200242213Y-73034559D01*
X205931135Y-72507439D01*
X211669887Y-72935852D01*
G37*
G04 #@! TD.AperFunction*
D17*
X213718815Y-111226185D02*
X213815506Y-111305537D01*
X213925820Y-111364502D01*
X214042841Y-111400000D01*
X213925820Y-111435498D01*
X213815506Y-111494463D01*
X213718815Y-111573815D01*
X213644103Y-111664853D01*
X213506250Y-111527000D01*
X213424141Y-111527000D01*
X213384494Y-111494463D01*
X213274180Y-111435498D01*
X213157159Y-111400000D01*
X213274180Y-111364502D01*
X213384494Y-111305537D01*
X213424141Y-111273000D01*
X213506250Y-111273000D01*
X213644103Y-111135147D01*
X213718815Y-111226185D01*
G04 #@! TA.AperFunction,Conductor*
D15*
G36*
X213718815Y-111226185D02*
G01*
X213815506Y-111305537D01*
X213925820Y-111364502D01*
X214042841Y-111400000D01*
X213925820Y-111435498D01*
X213815506Y-111494463D01*
X213718815Y-111573815D01*
X213644103Y-111664853D01*
X213506250Y-111527000D01*
X213424141Y-111527000D01*
X213384494Y-111494463D01*
X213274180Y-111435498D01*
X213157159Y-111400000D01*
X213274180Y-111364502D01*
X213384494Y-111305537D01*
X213424141Y-111273000D01*
X213506250Y-111273000D01*
X213644103Y-111135147D01*
X213718815Y-111226185D01*
G37*
G04 #@! TD.AperFunction*
D17*
X215866011Y-108751775D02*
X216133589Y-108805000D01*
X216406411Y-108805000D01*
X216549006Y-108776636D01*
X217591402Y-109819033D01*
X217591401Y-110970968D01*
X217455810Y-111106560D01*
X217351250Y-111002000D01*
X216527000Y-111002000D01*
X216527000Y-111022000D01*
X216273000Y-111022000D01*
X216273000Y-111002000D01*
X216253000Y-111002000D01*
X216253000Y-110748000D01*
X216273000Y-110748000D01*
X216273000Y-109998750D01*
X216527000Y-109998750D01*
X216527000Y-110748000D01*
X217351250Y-110748000D01*
X217510000Y-110589250D01*
X217513072Y-110475000D01*
X217500812Y-110350518D01*
X217464502Y-110230820D01*
X217405537Y-110120506D01*
X217326185Y-110023815D01*
X217229494Y-109944463D01*
X217119180Y-109885498D01*
X216999482Y-109849188D01*
X216875000Y-109836928D01*
X216685750Y-109840000D01*
X216527000Y-109998750D01*
X216273000Y-109998750D01*
X216114250Y-109840000D01*
X215925000Y-109836928D01*
X215802490Y-109848994D01*
X215760537Y-109770506D01*
X215681185Y-109673815D01*
X215584494Y-109594463D01*
X215474180Y-109535498D01*
X215354482Y-109499188D01*
X215230000Y-109486928D01*
X214828859Y-109486928D01*
X215498195Y-108817593D01*
X215525326Y-108795327D01*
X215547593Y-108768195D01*
X215547597Y-108768191D01*
X215614202Y-108687033D01*
X215631514Y-108654644D01*
X215866011Y-108751775D01*
G04 #@! TA.AperFunction,Conductor*
D15*
G36*
X215866011Y-108751775D02*
G01*
X216133589Y-108805000D01*
X216406411Y-108805000D01*
X216549006Y-108776636D01*
X217591402Y-109819033D01*
X217591401Y-110970968D01*
X217455810Y-111106560D01*
X217351250Y-111002000D01*
X216527000Y-111002000D01*
X216527000Y-111022000D01*
X216273000Y-111022000D01*
X216273000Y-111002000D01*
X216253000Y-111002000D01*
X216253000Y-110748000D01*
X216273000Y-110748000D01*
X216273000Y-109998750D01*
X216527000Y-109998750D01*
X216527000Y-110748000D01*
X217351250Y-110748000D01*
X217510000Y-110589250D01*
X217513072Y-110475000D01*
X217500812Y-110350518D01*
X217464502Y-110230820D01*
X217405537Y-110120506D01*
X217326185Y-110023815D01*
X217229494Y-109944463D01*
X217119180Y-109885498D01*
X216999482Y-109849188D01*
X216875000Y-109836928D01*
X216685750Y-109840000D01*
X216527000Y-109998750D01*
X216273000Y-109998750D01*
X216114250Y-109840000D01*
X215925000Y-109836928D01*
X215802490Y-109848994D01*
X215760537Y-109770506D01*
X215681185Y-109673815D01*
X215584494Y-109594463D01*
X215474180Y-109535498D01*
X215354482Y-109499188D01*
X215230000Y-109486928D01*
X214828859Y-109486928D01*
X215498195Y-108817593D01*
X215525326Y-108795327D01*
X215547593Y-108768195D01*
X215547597Y-108768191D01*
X215614202Y-108687033D01*
X215631514Y-108654644D01*
X215866011Y-108751775D01*
G37*
G04 #@! TD.AperFunction*
M02*
