G04 #@! TF.GenerationSoftware,KiCad,Pcbnew,(5.1.8)-1*
G04 #@! TF.CreationDate,2021-05-01T00:31:05-04:00*
G04 #@! TF.ProjectId,pcb,7063622e-6b69-4636-9164-5f7063625858,1*
G04 #@! TF.SameCoordinates,Original*
G04 #@! TF.FileFunction,Soldermask,Bot*
G04 #@! TF.FilePolarity,Negative*
%FSLAX46Y46*%
G04 Gerber Fmt 4.6, Leading zero omitted, Abs format (unit mm)*
G04 Created by KiCad (PCBNEW (5.1.8)-1) date 2021-05-01 00:31:05*
%MOMM*%
%LPD*%
G01*
G04 APERTURE LIST*
%ADD10C,1.601600*%
%ADD11C,2.301600*%
G04 APERTURE END LIST*
G36*
G01*
X200585458Y-112210288D02*
X201010288Y-111785458D01*
G75*
G02*
X201329052Y-111785458I159382J-159382D01*
G01*
X201647816Y-112104222D01*
G75*
G02*
X201647816Y-112422986I-159382J-159382D01*
G01*
X201222986Y-112847816D01*
G75*
G02*
X200904222Y-112847816I-159382J159382D01*
G01*
X200585458Y-112529052D01*
G75*
G02*
X200585458Y-112210288I159382J159382D01*
G01*
G37*
G36*
G01*
X201752184Y-113377014D02*
X202177014Y-112952184D01*
G75*
G02*
X202495778Y-112952184I159382J-159382D01*
G01*
X202814542Y-113270948D01*
G75*
G02*
X202814542Y-113589712I-159382J-159382D01*
G01*
X202389712Y-114014542D01*
G75*
G02*
X202070948Y-114014542I-159382J159382D01*
G01*
X201752184Y-113695778D01*
G75*
G02*
X201752184Y-113377014I159382J159382D01*
G01*
G37*
G36*
G01*
X202747816Y-111322986D02*
X202322986Y-111747816D01*
G75*
G02*
X202004222Y-111747816I-159382J159382D01*
G01*
X201685458Y-111429052D01*
G75*
G02*
X201685458Y-111110288I159382J159382D01*
G01*
X202110288Y-110685458D01*
G75*
G02*
X202429052Y-110685458I159382J-159382D01*
G01*
X202747816Y-111004222D01*
G75*
G02*
X202747816Y-111322986I-159382J-159382D01*
G01*
G37*
G36*
G01*
X203914542Y-112489712D02*
X203489712Y-112914542D01*
G75*
G02*
X203170948Y-112914542I-159382J159382D01*
G01*
X202852184Y-112595778D01*
G75*
G02*
X202852184Y-112277014I159382J159382D01*
G01*
X203277014Y-111852184D01*
G75*
G02*
X203595778Y-111852184I159382J-159382D01*
G01*
X203914542Y-112170948D01*
G75*
G02*
X203914542Y-112489712I-159382J-159382D01*
G01*
G37*
G36*
G01*
X205014542Y-111389712D02*
X204589712Y-111814542D01*
G75*
G02*
X204270948Y-111814542I-159382J159382D01*
G01*
X203952184Y-111495778D01*
G75*
G02*
X203952184Y-111177014I159382J159382D01*
G01*
X204377014Y-110752184D01*
G75*
G02*
X204695778Y-110752184I159382J-159382D01*
G01*
X205014542Y-111070948D01*
G75*
G02*
X205014542Y-111389712I-159382J-159382D01*
G01*
G37*
G36*
G01*
X203847816Y-110222986D02*
X203422986Y-110647816D01*
G75*
G02*
X203104222Y-110647816I-159382J159382D01*
G01*
X202785458Y-110329052D01*
G75*
G02*
X202785458Y-110010288I159382J159382D01*
G01*
X203210288Y-109585458D01*
G75*
G02*
X203529052Y-109585458I159382J-159382D01*
G01*
X203847816Y-109904222D01*
G75*
G02*
X203847816Y-110222986I-159382J-159382D01*
G01*
G37*
G36*
G01*
X211924200Y-114400400D02*
X211924200Y-113799600D01*
G75*
G02*
X212149600Y-113574200I225400J0D01*
G01*
X212600400Y-113574200D01*
G75*
G02*
X212825800Y-113799600I0J-225400D01*
G01*
X212825800Y-114400400D01*
G75*
G02*
X212600400Y-114625800I-225400J0D01*
G01*
X212149600Y-114625800D01*
G75*
G02*
X211924200Y-114400400I0J225400D01*
G01*
G37*
G36*
G01*
X213574200Y-114400400D02*
X213574200Y-113799600D01*
G75*
G02*
X213799600Y-113574200I225400J0D01*
G01*
X214250400Y-113574200D01*
G75*
G02*
X214475800Y-113799600I0J-225400D01*
G01*
X214475800Y-114400400D01*
G75*
G02*
X214250400Y-114625800I-225400J0D01*
G01*
X213799600Y-114625800D01*
G75*
G02*
X213574200Y-114400400I0J225400D01*
G01*
G37*
G36*
G01*
X216700400Y-111325800D02*
X216099600Y-111325800D01*
G75*
G02*
X215874200Y-111100400I0J225400D01*
G01*
X215874200Y-110649600D01*
G75*
G02*
X216099600Y-110424200I225400J0D01*
G01*
X216700400Y-110424200D01*
G75*
G02*
X216925800Y-110649600I0J-225400D01*
G01*
X216925800Y-111100400D01*
G75*
G02*
X216700400Y-111325800I-225400J0D01*
G01*
G37*
G36*
G01*
X216700400Y-112975800D02*
X216099600Y-112975800D01*
G75*
G02*
X215874200Y-112750400I0J225400D01*
G01*
X215874200Y-112299600D01*
G75*
G02*
X216099600Y-112074200I225400J0D01*
G01*
X216700400Y-112074200D01*
G75*
G02*
X216925800Y-112299600I0J-225400D01*
G01*
X216925800Y-112750400D01*
G75*
G02*
X216700400Y-112975800I-225400J0D01*
G01*
G37*
G36*
G01*
X209525800Y-110199600D02*
X209525800Y-110800400D01*
G75*
G02*
X209300400Y-111025800I-225400J0D01*
G01*
X208849600Y-111025800D01*
G75*
G02*
X208624200Y-110800400I0J225400D01*
G01*
X208624200Y-110199600D01*
G75*
G02*
X208849600Y-109974200I225400J0D01*
G01*
X209300400Y-109974200D01*
G75*
G02*
X209525800Y-110199600I0J-225400D01*
G01*
G37*
G36*
G01*
X211175800Y-110199600D02*
X211175800Y-110800400D01*
G75*
G02*
X210950400Y-111025800I-225400J0D01*
G01*
X210499600Y-111025800D01*
G75*
G02*
X210274200Y-110800400I0J225400D01*
G01*
X210274200Y-110199600D01*
G75*
G02*
X210499600Y-109974200I225400J0D01*
G01*
X210950400Y-109974200D01*
G75*
G02*
X211175800Y-110199600I0J-225400D01*
G01*
G37*
G36*
G01*
X209645800Y-89029600D02*
X209645800Y-89630400D01*
G75*
G02*
X209420400Y-89855800I-225400J0D01*
G01*
X208969600Y-89855800D01*
G75*
G02*
X208744200Y-89630400I0J225400D01*
G01*
X208744200Y-89029600D01*
G75*
G02*
X208969600Y-88804200I225400J0D01*
G01*
X209420400Y-88804200D01*
G75*
G02*
X209645800Y-89029600I0J-225400D01*
G01*
G37*
G36*
G01*
X211295800Y-89029600D02*
X211295800Y-89630400D01*
G75*
G02*
X211070400Y-89855800I-225400J0D01*
G01*
X210619600Y-89855800D01*
G75*
G02*
X210394200Y-89630400I0J225400D01*
G01*
X210394200Y-89029600D01*
G75*
G02*
X210619600Y-88804200I225400J0D01*
G01*
X211070400Y-88804200D01*
G75*
G02*
X211295800Y-89029600I0J-225400D01*
G01*
G37*
G36*
G01*
X201714542Y-114689712D02*
X201289712Y-115114542D01*
G75*
G02*
X200970948Y-115114542I-159382J159382D01*
G01*
X200652184Y-114795778D01*
G75*
G02*
X200652184Y-114477014I159382J159382D01*
G01*
X201077014Y-114052184D01*
G75*
G02*
X201395778Y-114052184I159382J-159382D01*
G01*
X201714542Y-114370948D01*
G75*
G02*
X201714542Y-114689712I-159382J-159382D01*
G01*
G37*
G36*
G01*
X200547816Y-113522986D02*
X200122986Y-113947816D01*
G75*
G02*
X199804222Y-113947816I-159382J159382D01*
G01*
X199485458Y-113629052D01*
G75*
G02*
X199485458Y-113310288I159382J159382D01*
G01*
X199910288Y-112885458D01*
G75*
G02*
X200229052Y-112885458I159382J-159382D01*
G01*
X200547816Y-113204222D01*
G75*
G02*
X200547816Y-113522986I-159382J-159382D01*
G01*
G37*
D10*
X216270000Y-107420000D03*
X211190000Y-107420000D03*
X213730000Y-107420000D03*
X208650000Y-107420000D03*
X197570000Y-114970000D03*
G36*
G01*
X206951584Y-112949233D02*
X207075894Y-113073543D01*
G75*
G02*
X207075894Y-113197853I-62155J-62155D01*
G01*
X206562676Y-113711071D01*
G75*
G02*
X206438366Y-113711071I-62155J62155D01*
G01*
X206314056Y-113586761D01*
G75*
G02*
X206314056Y-113462451I62155J62155D01*
G01*
X206827274Y-112949233D01*
G75*
G02*
X206951584Y-112949233I62155J-62155D01*
G01*
G37*
G36*
G01*
X207305137Y-113302786D02*
X207429447Y-113427096D01*
G75*
G02*
X207429447Y-113551406I-62155J-62155D01*
G01*
X206916229Y-114064624D01*
G75*
G02*
X206791919Y-114064624I-62155J62155D01*
G01*
X206667609Y-113940314D01*
G75*
G02*
X206667609Y-113816004I62155J62155D01*
G01*
X207180827Y-113302786D01*
G75*
G02*
X207305137Y-113302786I62155J-62155D01*
G01*
G37*
G36*
G01*
X207658691Y-113656339D02*
X207783001Y-113780649D01*
G75*
G02*
X207783001Y-113904959I-62155J-62155D01*
G01*
X207269783Y-114418177D01*
G75*
G02*
X207145473Y-114418177I-62155J62155D01*
G01*
X207021163Y-114293867D01*
G75*
G02*
X207021163Y-114169557I62155J62155D01*
G01*
X207534381Y-113656339D01*
G75*
G02*
X207658691Y-113656339I62155J-62155D01*
G01*
G37*
G36*
G01*
X208012244Y-114009893D02*
X208136554Y-114134203D01*
G75*
G02*
X208136554Y-114258513I-62155J-62155D01*
G01*
X207623336Y-114771731D01*
G75*
G02*
X207499026Y-114771731I-62155J62155D01*
G01*
X207374716Y-114647421D01*
G75*
G02*
X207374716Y-114523111I62155J62155D01*
G01*
X207887934Y-114009893D01*
G75*
G02*
X208012244Y-114009893I62155J-62155D01*
G01*
G37*
G36*
G01*
X208365797Y-114363446D02*
X208490107Y-114487756D01*
G75*
G02*
X208490107Y-114612066I-62155J-62155D01*
G01*
X207976889Y-115125284D01*
G75*
G02*
X207852579Y-115125284I-62155J62155D01*
G01*
X207728269Y-115000974D01*
G75*
G02*
X207728269Y-114876664I62155J62155D01*
G01*
X208241487Y-114363446D01*
G75*
G02*
X208365797Y-114363446I62155J-62155D01*
G01*
G37*
G36*
G01*
X208719351Y-114716999D02*
X208843661Y-114841309D01*
G75*
G02*
X208843661Y-114965619I-62155J-62155D01*
G01*
X208330443Y-115478837D01*
G75*
G02*
X208206133Y-115478837I-62155J62155D01*
G01*
X208081823Y-115354527D01*
G75*
G02*
X208081823Y-115230217I62155J62155D01*
G01*
X208595041Y-114716999D01*
G75*
G02*
X208719351Y-114716999I62155J-62155D01*
G01*
G37*
G36*
G01*
X209072904Y-115070553D02*
X209197214Y-115194863D01*
G75*
G02*
X209197214Y-115319173I-62155J-62155D01*
G01*
X208683996Y-115832391D01*
G75*
G02*
X208559686Y-115832391I-62155J62155D01*
G01*
X208435376Y-115708081D01*
G75*
G02*
X208435376Y-115583771I62155J62155D01*
G01*
X208948594Y-115070553D01*
G75*
G02*
X209072904Y-115070553I62155J-62155D01*
G01*
G37*
G36*
G01*
X209426457Y-115424106D02*
X209550767Y-115548416D01*
G75*
G02*
X209550767Y-115672726I-62155J-62155D01*
G01*
X209037549Y-116185944D01*
G75*
G02*
X208913239Y-116185944I-62155J62155D01*
G01*
X208788929Y-116061634D01*
G75*
G02*
X208788929Y-115937324I62155J62155D01*
G01*
X209302147Y-115424106D01*
G75*
G02*
X209426457Y-115424106I62155J-62155D01*
G01*
G37*
G36*
G01*
X209037549Y-116414056D02*
X209550767Y-116927274D01*
G75*
G02*
X209550767Y-117051584I-62155J-62155D01*
G01*
X209426457Y-117175894D01*
G75*
G02*
X209302147Y-117175894I-62155J62155D01*
G01*
X208788929Y-116662676D01*
G75*
G02*
X208788929Y-116538366I62155J62155D01*
G01*
X208913239Y-116414056D01*
G75*
G02*
X209037549Y-116414056I62155J-62155D01*
G01*
G37*
G36*
G01*
X208683996Y-116767609D02*
X209197214Y-117280827D01*
G75*
G02*
X209197214Y-117405137I-62155J-62155D01*
G01*
X209072904Y-117529447D01*
G75*
G02*
X208948594Y-117529447I-62155J62155D01*
G01*
X208435376Y-117016229D01*
G75*
G02*
X208435376Y-116891919I62155J62155D01*
G01*
X208559686Y-116767609D01*
G75*
G02*
X208683996Y-116767609I62155J-62155D01*
G01*
G37*
G36*
G01*
X208330443Y-117121163D02*
X208843661Y-117634381D01*
G75*
G02*
X208843661Y-117758691I-62155J-62155D01*
G01*
X208719351Y-117883001D01*
G75*
G02*
X208595041Y-117883001I-62155J62155D01*
G01*
X208081823Y-117369783D01*
G75*
G02*
X208081823Y-117245473I62155J62155D01*
G01*
X208206133Y-117121163D01*
G75*
G02*
X208330443Y-117121163I62155J-62155D01*
G01*
G37*
G36*
G01*
X207976889Y-117474716D02*
X208490107Y-117987934D01*
G75*
G02*
X208490107Y-118112244I-62155J-62155D01*
G01*
X208365797Y-118236554D01*
G75*
G02*
X208241487Y-118236554I-62155J62155D01*
G01*
X207728269Y-117723336D01*
G75*
G02*
X207728269Y-117599026I62155J62155D01*
G01*
X207852579Y-117474716D01*
G75*
G02*
X207976889Y-117474716I62155J-62155D01*
G01*
G37*
G36*
G01*
X207623336Y-117828269D02*
X208136554Y-118341487D01*
G75*
G02*
X208136554Y-118465797I-62155J-62155D01*
G01*
X208012244Y-118590107D01*
G75*
G02*
X207887934Y-118590107I-62155J62155D01*
G01*
X207374716Y-118076889D01*
G75*
G02*
X207374716Y-117952579I62155J62155D01*
G01*
X207499026Y-117828269D01*
G75*
G02*
X207623336Y-117828269I62155J-62155D01*
G01*
G37*
G36*
G01*
X207269783Y-118181823D02*
X207783001Y-118695041D01*
G75*
G02*
X207783001Y-118819351I-62155J-62155D01*
G01*
X207658691Y-118943661D01*
G75*
G02*
X207534381Y-118943661I-62155J62155D01*
G01*
X207021163Y-118430443D01*
G75*
G02*
X207021163Y-118306133I62155J62155D01*
G01*
X207145473Y-118181823D01*
G75*
G02*
X207269783Y-118181823I62155J-62155D01*
G01*
G37*
G36*
G01*
X206916229Y-118535376D02*
X207429447Y-119048594D01*
G75*
G02*
X207429447Y-119172904I-62155J-62155D01*
G01*
X207305137Y-119297214D01*
G75*
G02*
X207180827Y-119297214I-62155J62155D01*
G01*
X206667609Y-118783996D01*
G75*
G02*
X206667609Y-118659686I62155J62155D01*
G01*
X206791919Y-118535376D01*
G75*
G02*
X206916229Y-118535376I62155J-62155D01*
G01*
G37*
G36*
G01*
X206562676Y-118888929D02*
X207075894Y-119402147D01*
G75*
G02*
X207075894Y-119526457I-62155J-62155D01*
G01*
X206951584Y-119650767D01*
G75*
G02*
X206827274Y-119650767I-62155J62155D01*
G01*
X206314056Y-119137549D01*
G75*
G02*
X206314056Y-119013239I62155J62155D01*
G01*
X206438366Y-118888929D01*
G75*
G02*
X206562676Y-118888929I62155J-62155D01*
G01*
G37*
G36*
G01*
X205961634Y-118888929D02*
X206085944Y-119013239D01*
G75*
G02*
X206085944Y-119137549I-62155J-62155D01*
G01*
X205572726Y-119650767D01*
G75*
G02*
X205448416Y-119650767I-62155J62155D01*
G01*
X205324106Y-119526457D01*
G75*
G02*
X205324106Y-119402147I62155J62155D01*
G01*
X205837324Y-118888929D01*
G75*
G02*
X205961634Y-118888929I62155J-62155D01*
G01*
G37*
G36*
G01*
X205608081Y-118535376D02*
X205732391Y-118659686D01*
G75*
G02*
X205732391Y-118783996I-62155J-62155D01*
G01*
X205219173Y-119297214D01*
G75*
G02*
X205094863Y-119297214I-62155J62155D01*
G01*
X204970553Y-119172904D01*
G75*
G02*
X204970553Y-119048594I62155J62155D01*
G01*
X205483771Y-118535376D01*
G75*
G02*
X205608081Y-118535376I62155J-62155D01*
G01*
G37*
G36*
G01*
X205254527Y-118181823D02*
X205378837Y-118306133D01*
G75*
G02*
X205378837Y-118430443I-62155J-62155D01*
G01*
X204865619Y-118943661D01*
G75*
G02*
X204741309Y-118943661I-62155J62155D01*
G01*
X204616999Y-118819351D01*
G75*
G02*
X204616999Y-118695041I62155J62155D01*
G01*
X205130217Y-118181823D01*
G75*
G02*
X205254527Y-118181823I62155J-62155D01*
G01*
G37*
G36*
G01*
X204900974Y-117828269D02*
X205025284Y-117952579D01*
G75*
G02*
X205025284Y-118076889I-62155J-62155D01*
G01*
X204512066Y-118590107D01*
G75*
G02*
X204387756Y-118590107I-62155J62155D01*
G01*
X204263446Y-118465797D01*
G75*
G02*
X204263446Y-118341487I62155J62155D01*
G01*
X204776664Y-117828269D01*
G75*
G02*
X204900974Y-117828269I62155J-62155D01*
G01*
G37*
G36*
G01*
X204547421Y-117474716D02*
X204671731Y-117599026D01*
G75*
G02*
X204671731Y-117723336I-62155J-62155D01*
G01*
X204158513Y-118236554D01*
G75*
G02*
X204034203Y-118236554I-62155J62155D01*
G01*
X203909893Y-118112244D01*
G75*
G02*
X203909893Y-117987934I62155J62155D01*
G01*
X204423111Y-117474716D01*
G75*
G02*
X204547421Y-117474716I62155J-62155D01*
G01*
G37*
G36*
G01*
X204193867Y-117121163D02*
X204318177Y-117245473D01*
G75*
G02*
X204318177Y-117369783I-62155J-62155D01*
G01*
X203804959Y-117883001D01*
G75*
G02*
X203680649Y-117883001I-62155J62155D01*
G01*
X203556339Y-117758691D01*
G75*
G02*
X203556339Y-117634381I62155J62155D01*
G01*
X204069557Y-117121163D01*
G75*
G02*
X204193867Y-117121163I62155J-62155D01*
G01*
G37*
G36*
G01*
X203840314Y-116767609D02*
X203964624Y-116891919D01*
G75*
G02*
X203964624Y-117016229I-62155J-62155D01*
G01*
X203451406Y-117529447D01*
G75*
G02*
X203327096Y-117529447I-62155J62155D01*
G01*
X203202786Y-117405137D01*
G75*
G02*
X203202786Y-117280827I62155J62155D01*
G01*
X203716004Y-116767609D01*
G75*
G02*
X203840314Y-116767609I62155J-62155D01*
G01*
G37*
G36*
G01*
X203486761Y-116414056D02*
X203611071Y-116538366D01*
G75*
G02*
X203611071Y-116662676I-62155J-62155D01*
G01*
X203097853Y-117175894D01*
G75*
G02*
X202973543Y-117175894I-62155J62155D01*
G01*
X202849233Y-117051584D01*
G75*
G02*
X202849233Y-116927274I62155J62155D01*
G01*
X203362451Y-116414056D01*
G75*
G02*
X203486761Y-116414056I62155J-62155D01*
G01*
G37*
G36*
G01*
X203097853Y-115424106D02*
X203611071Y-115937324D01*
G75*
G02*
X203611071Y-116061634I-62155J-62155D01*
G01*
X203486761Y-116185944D01*
G75*
G02*
X203362451Y-116185944I-62155J62155D01*
G01*
X202849233Y-115672726D01*
G75*
G02*
X202849233Y-115548416I62155J62155D01*
G01*
X202973543Y-115424106D01*
G75*
G02*
X203097853Y-115424106I62155J-62155D01*
G01*
G37*
G36*
G01*
X203451406Y-115070553D02*
X203964624Y-115583771D01*
G75*
G02*
X203964624Y-115708081I-62155J-62155D01*
G01*
X203840314Y-115832391D01*
G75*
G02*
X203716004Y-115832391I-62155J62155D01*
G01*
X203202786Y-115319173D01*
G75*
G02*
X203202786Y-115194863I62155J62155D01*
G01*
X203327096Y-115070553D01*
G75*
G02*
X203451406Y-115070553I62155J-62155D01*
G01*
G37*
G36*
G01*
X203804959Y-114716999D02*
X204318177Y-115230217D01*
G75*
G02*
X204318177Y-115354527I-62155J-62155D01*
G01*
X204193867Y-115478837D01*
G75*
G02*
X204069557Y-115478837I-62155J62155D01*
G01*
X203556339Y-114965619D01*
G75*
G02*
X203556339Y-114841309I62155J62155D01*
G01*
X203680649Y-114716999D01*
G75*
G02*
X203804959Y-114716999I62155J-62155D01*
G01*
G37*
G36*
G01*
X204158513Y-114363446D02*
X204671731Y-114876664D01*
G75*
G02*
X204671731Y-115000974I-62155J-62155D01*
G01*
X204547421Y-115125284D01*
G75*
G02*
X204423111Y-115125284I-62155J62155D01*
G01*
X203909893Y-114612066D01*
G75*
G02*
X203909893Y-114487756I62155J62155D01*
G01*
X204034203Y-114363446D01*
G75*
G02*
X204158513Y-114363446I62155J-62155D01*
G01*
G37*
G36*
G01*
X204512066Y-114009893D02*
X205025284Y-114523111D01*
G75*
G02*
X205025284Y-114647421I-62155J-62155D01*
G01*
X204900974Y-114771731D01*
G75*
G02*
X204776664Y-114771731I-62155J62155D01*
G01*
X204263446Y-114258513D01*
G75*
G02*
X204263446Y-114134203I62155J62155D01*
G01*
X204387756Y-114009893D01*
G75*
G02*
X204512066Y-114009893I62155J-62155D01*
G01*
G37*
G36*
G01*
X204865619Y-113656339D02*
X205378837Y-114169557D01*
G75*
G02*
X205378837Y-114293867I-62155J-62155D01*
G01*
X205254527Y-114418177D01*
G75*
G02*
X205130217Y-114418177I-62155J62155D01*
G01*
X204616999Y-113904959D01*
G75*
G02*
X204616999Y-113780649I62155J62155D01*
G01*
X204741309Y-113656339D01*
G75*
G02*
X204865619Y-113656339I62155J-62155D01*
G01*
G37*
G36*
G01*
X205219173Y-113302786D02*
X205732391Y-113816004D01*
G75*
G02*
X205732391Y-113940314I-62155J-62155D01*
G01*
X205608081Y-114064624D01*
G75*
G02*
X205483771Y-114064624I-62155J62155D01*
G01*
X204970553Y-113551406D01*
G75*
G02*
X204970553Y-113427096I62155J62155D01*
G01*
X205094863Y-113302786D01*
G75*
G02*
X205219173Y-113302786I62155J-62155D01*
G01*
G37*
G36*
G01*
X205572726Y-112949233D02*
X206085944Y-113462451D01*
G75*
G02*
X206085944Y-113586761I-62155J-62155D01*
G01*
X205961634Y-113711071D01*
G75*
G02*
X205837324Y-113711071I-62155J62155D01*
G01*
X205324106Y-113197853D01*
G75*
G02*
X205324106Y-113073543I62155J62155D01*
G01*
X205448416Y-112949233D01*
G75*
G02*
X205572726Y-112949233I62155J-62155D01*
G01*
G37*
G36*
G01*
X206235921Y-113718495D02*
X208781505Y-116264079D01*
G75*
G02*
X208781505Y-116335921I-35921J-35921D01*
G01*
X206235921Y-118881505D01*
G75*
G02*
X206164079Y-118881505I-35921J35921D01*
G01*
X203618495Y-116335921D01*
G75*
G02*
X203618495Y-116264079I35921J35921D01*
G01*
X206164079Y-113718495D01*
G75*
G02*
X206235921Y-113718495I35921J-35921D01*
G01*
G37*
G36*
G01*
X211919200Y-112675000D02*
X211919200Y-112025000D01*
G75*
G02*
X211970000Y-111974200I50800J0D01*
G01*
X213030000Y-111974200D01*
G75*
G02*
X213080800Y-112025000I0J-50800D01*
G01*
X213080800Y-112675000D01*
G75*
G02*
X213030000Y-112725800I-50800J0D01*
G01*
X211970000Y-112725800D01*
G75*
G02*
X211919200Y-112675000I0J50800D01*
G01*
G37*
G36*
G01*
X211919200Y-111725000D02*
X211919200Y-111075000D01*
G75*
G02*
X211970000Y-111024200I50800J0D01*
G01*
X213030000Y-111024200D01*
G75*
G02*
X213080800Y-111075000I0J-50800D01*
G01*
X213080800Y-111725000D01*
G75*
G02*
X213030000Y-111775800I-50800J0D01*
G01*
X211970000Y-111775800D01*
G75*
G02*
X211919200Y-111725000I0J50800D01*
G01*
G37*
G36*
G01*
X211919200Y-110775000D02*
X211919200Y-110125000D01*
G75*
G02*
X211970000Y-110074200I50800J0D01*
G01*
X213030000Y-110074200D01*
G75*
G02*
X213080800Y-110125000I0J-50800D01*
G01*
X213080800Y-110775000D01*
G75*
G02*
X213030000Y-110825800I-50800J0D01*
G01*
X211970000Y-110825800D01*
G75*
G02*
X211919200Y-110775000I0J50800D01*
G01*
G37*
G36*
G01*
X214119200Y-110775000D02*
X214119200Y-110125000D01*
G75*
G02*
X214170000Y-110074200I50800J0D01*
G01*
X215230000Y-110074200D01*
G75*
G02*
X215280800Y-110125000I0J-50800D01*
G01*
X215280800Y-110775000D01*
G75*
G02*
X215230000Y-110825800I-50800J0D01*
G01*
X214170000Y-110825800D01*
G75*
G02*
X214119200Y-110775000I0J50800D01*
G01*
G37*
G36*
G01*
X214119200Y-112675000D02*
X214119200Y-112025000D01*
G75*
G02*
X214170000Y-111974200I50800J0D01*
G01*
X215230000Y-111974200D01*
G75*
G02*
X215280800Y-112025000I0J-50800D01*
G01*
X215280800Y-112675000D01*
G75*
G02*
X215230000Y-112725800I-50800J0D01*
G01*
X214170000Y-112725800D01*
G75*
G02*
X214119200Y-112675000I0J50800D01*
G01*
G37*
G36*
G01*
X211639200Y-89945000D02*
X211639200Y-88695000D01*
G75*
G02*
X211690000Y-88644200I50800J0D01*
G01*
X213090000Y-88644200D01*
G75*
G02*
X213140800Y-88695000I0J-50800D01*
G01*
X213140800Y-89945000D01*
G75*
G02*
X213090000Y-89995800I-50800J0D01*
G01*
X211690000Y-89995800D01*
G75*
G02*
X211639200Y-89945000I0J50800D01*
G01*
G37*
G36*
G01*
X215339200Y-89945000D02*
X215339200Y-88695000D01*
G75*
G02*
X215390000Y-88644200I50800J0D01*
G01*
X216790000Y-88644200D01*
G75*
G02*
X216840800Y-88695000I0J-50800D01*
G01*
X216840800Y-89945000D01*
G75*
G02*
X216790000Y-89995800I-50800J0D01*
G01*
X215390000Y-89995800D01*
G75*
G02*
X215339200Y-89945000I0J50800D01*
G01*
G37*
D11*
X214240000Y-89320000D03*
G36*
G01*
X197052709Y-113151404D02*
X196345602Y-112444297D01*
G75*
G02*
X196345602Y-112372455I35921J35921D01*
G01*
X197547683Y-111170374D01*
G75*
G02*
X197619525Y-111170374I35921J-35921D01*
G01*
X198326632Y-111877481D01*
G75*
G02*
X198326632Y-111949323I-35921J-35921D01*
G01*
X197124551Y-113151404D01*
G75*
G02*
X197052709Y-113151404I-35921J35921D01*
G01*
G37*
G36*
G01*
X201507481Y-108696632D02*
X200800374Y-107989525D01*
G75*
G02*
X200800374Y-107917683I35921J35921D01*
G01*
X202002455Y-106715602D01*
G75*
G02*
X202074297Y-106715602I35921J-35921D01*
G01*
X202781404Y-107422709D01*
G75*
G02*
X202781404Y-107494551I-35921J-35921D01*
G01*
X201579323Y-108696632D01*
G75*
G02*
X201507481Y-108696632I-35921J35921D01*
G01*
G37*
G36*
G01*
X194365703Y-110464398D02*
X193658596Y-109757291D01*
G75*
G02*
X193658596Y-109685449I35921J35921D01*
G01*
X194860677Y-108483368D01*
G75*
G02*
X194932519Y-108483368I35921J-35921D01*
G01*
X195639626Y-109190475D01*
G75*
G02*
X195639626Y-109262317I-35921J-35921D01*
G01*
X194437545Y-110464398D01*
G75*
G02*
X194365703Y-110464398I-35921J35921D01*
G01*
G37*
G36*
G01*
X198820475Y-106009626D02*
X198113368Y-105302519D01*
G75*
G02*
X198113368Y-105230677I35921J35921D01*
G01*
X199315449Y-104028596D01*
G75*
G02*
X199387291Y-104028596I35921J-35921D01*
G01*
X200094398Y-104735703D01*
G75*
G02*
X200094398Y-104807545I-35921J-35921D01*
G01*
X198892317Y-106009626D01*
G75*
G02*
X198820475Y-106009626I-35921J35921D01*
G01*
G37*
M02*
