G04 #@! TF.GenerationSoftware,KiCad,Pcbnew,(5.1.8)-1*
G04 #@! TF.CreationDate,2021-05-01T00:31:05-04:00*
G04 #@! TF.ProjectId,pcb,7063622e-6b69-4636-9164-5f7063625858,1*
G04 #@! TF.SameCoordinates,Original*
G04 #@! TF.FileFunction,Paste,Bot*
G04 #@! TF.FilePolarity,Positive*
%FSLAX46Y46*%
G04 Gerber Fmt 4.6, Leading zero omitted, Abs format (unit mm)*
G04 Created by KiCad (PCBNEW (5.1.8)-1) date 2021-05-01 00:31:05*
%MOMM*%
%LPD*%
G01*
G04 APERTURE LIST*
%ADD10R,1.060000X0.650000*%
%ADD11R,1.400000X1.250000*%
%ADD12C,0.152400*%
G04 APERTURE END LIST*
G36*
G01*
X200639340Y-112228249D02*
X201028249Y-111839340D01*
G75*
G02*
X201311091Y-111839340I141421J-141421D01*
G01*
X201593934Y-112122183D01*
G75*
G02*
X201593934Y-112405025I-141421J-141421D01*
G01*
X201205025Y-112793934D01*
G75*
G02*
X200922183Y-112793934I-141421J141421D01*
G01*
X200639340Y-112511091D01*
G75*
G02*
X200639340Y-112228249I141421J141421D01*
G01*
G37*
G36*
G01*
X201806066Y-113394975D02*
X202194975Y-113006066D01*
G75*
G02*
X202477817Y-113006066I141421J-141421D01*
G01*
X202760660Y-113288909D01*
G75*
G02*
X202760660Y-113571751I-141421J-141421D01*
G01*
X202371751Y-113960660D01*
G75*
G02*
X202088909Y-113960660I-141421J141421D01*
G01*
X201806066Y-113677817D01*
G75*
G02*
X201806066Y-113394975I141421J141421D01*
G01*
G37*
G36*
G01*
X202693934Y-111305025D02*
X202305025Y-111693934D01*
G75*
G02*
X202022183Y-111693934I-141421J141421D01*
G01*
X201739340Y-111411091D01*
G75*
G02*
X201739340Y-111128249I141421J141421D01*
G01*
X202128249Y-110739340D01*
G75*
G02*
X202411091Y-110739340I141421J-141421D01*
G01*
X202693934Y-111022183D01*
G75*
G02*
X202693934Y-111305025I-141421J-141421D01*
G01*
G37*
G36*
G01*
X203860660Y-112471751D02*
X203471751Y-112860660D01*
G75*
G02*
X203188909Y-112860660I-141421J141421D01*
G01*
X202906066Y-112577817D01*
G75*
G02*
X202906066Y-112294975I141421J141421D01*
G01*
X203294975Y-111906066D01*
G75*
G02*
X203577817Y-111906066I141421J-141421D01*
G01*
X203860660Y-112188909D01*
G75*
G02*
X203860660Y-112471751I-141421J-141421D01*
G01*
G37*
G36*
G01*
X204960660Y-111371751D02*
X204571751Y-111760660D01*
G75*
G02*
X204288909Y-111760660I-141421J141421D01*
G01*
X204006066Y-111477817D01*
G75*
G02*
X204006066Y-111194975I141421J141421D01*
G01*
X204394975Y-110806066D01*
G75*
G02*
X204677817Y-110806066I141421J-141421D01*
G01*
X204960660Y-111088909D01*
G75*
G02*
X204960660Y-111371751I-141421J-141421D01*
G01*
G37*
G36*
G01*
X203793934Y-110205025D02*
X203405025Y-110593934D01*
G75*
G02*
X203122183Y-110593934I-141421J141421D01*
G01*
X202839340Y-110311091D01*
G75*
G02*
X202839340Y-110028249I141421J141421D01*
G01*
X203228249Y-109639340D01*
G75*
G02*
X203511091Y-109639340I141421J-141421D01*
G01*
X203793934Y-109922183D01*
G75*
G02*
X203793934Y-110205025I-141421J-141421D01*
G01*
G37*
G36*
G01*
X211975000Y-114375000D02*
X211975000Y-113825000D01*
G75*
G02*
X212175000Y-113625000I200000J0D01*
G01*
X212575000Y-113625000D01*
G75*
G02*
X212775000Y-113825000I0J-200000D01*
G01*
X212775000Y-114375000D01*
G75*
G02*
X212575000Y-114575000I-200000J0D01*
G01*
X212175000Y-114575000D01*
G75*
G02*
X211975000Y-114375000I0J200000D01*
G01*
G37*
G36*
G01*
X213625000Y-114375000D02*
X213625000Y-113825000D01*
G75*
G02*
X213825000Y-113625000I200000J0D01*
G01*
X214225000Y-113625000D01*
G75*
G02*
X214425000Y-113825000I0J-200000D01*
G01*
X214425000Y-114375000D01*
G75*
G02*
X214225000Y-114575000I-200000J0D01*
G01*
X213825000Y-114575000D01*
G75*
G02*
X213625000Y-114375000I0J200000D01*
G01*
G37*
G36*
G01*
X216675000Y-111275000D02*
X216125000Y-111275000D01*
G75*
G02*
X215925000Y-111075000I0J200000D01*
G01*
X215925000Y-110675000D01*
G75*
G02*
X216125000Y-110475000I200000J0D01*
G01*
X216675000Y-110475000D01*
G75*
G02*
X216875000Y-110675000I0J-200000D01*
G01*
X216875000Y-111075000D01*
G75*
G02*
X216675000Y-111275000I-200000J0D01*
G01*
G37*
G36*
G01*
X216675000Y-112925000D02*
X216125000Y-112925000D01*
G75*
G02*
X215925000Y-112725000I0J200000D01*
G01*
X215925000Y-112325000D01*
G75*
G02*
X216125000Y-112125000I200000J0D01*
G01*
X216675000Y-112125000D01*
G75*
G02*
X216875000Y-112325000I0J-200000D01*
G01*
X216875000Y-112725000D01*
G75*
G02*
X216675000Y-112925000I-200000J0D01*
G01*
G37*
G36*
G01*
X209475000Y-110225000D02*
X209475000Y-110775000D01*
G75*
G02*
X209275000Y-110975000I-200000J0D01*
G01*
X208875000Y-110975000D01*
G75*
G02*
X208675000Y-110775000I0J200000D01*
G01*
X208675000Y-110225000D01*
G75*
G02*
X208875000Y-110025000I200000J0D01*
G01*
X209275000Y-110025000D01*
G75*
G02*
X209475000Y-110225000I0J-200000D01*
G01*
G37*
G36*
G01*
X211125000Y-110225000D02*
X211125000Y-110775000D01*
G75*
G02*
X210925000Y-110975000I-200000J0D01*
G01*
X210525000Y-110975000D01*
G75*
G02*
X210325000Y-110775000I0J200000D01*
G01*
X210325000Y-110225000D01*
G75*
G02*
X210525000Y-110025000I200000J0D01*
G01*
X210925000Y-110025000D01*
G75*
G02*
X211125000Y-110225000I0J-200000D01*
G01*
G37*
G36*
G01*
X209595000Y-89055000D02*
X209595000Y-89605000D01*
G75*
G02*
X209395000Y-89805000I-200000J0D01*
G01*
X208995000Y-89805000D01*
G75*
G02*
X208795000Y-89605000I0J200000D01*
G01*
X208795000Y-89055000D01*
G75*
G02*
X208995000Y-88855000I200000J0D01*
G01*
X209395000Y-88855000D01*
G75*
G02*
X209595000Y-89055000I0J-200000D01*
G01*
G37*
G36*
G01*
X211245000Y-89055000D02*
X211245000Y-89605000D01*
G75*
G02*
X211045000Y-89805000I-200000J0D01*
G01*
X210645000Y-89805000D01*
G75*
G02*
X210445000Y-89605000I0J200000D01*
G01*
X210445000Y-89055000D01*
G75*
G02*
X210645000Y-88855000I200000J0D01*
G01*
X211045000Y-88855000D01*
G75*
G02*
X211245000Y-89055000I0J-200000D01*
G01*
G37*
G36*
G01*
X201660660Y-114671751D02*
X201271751Y-115060660D01*
G75*
G02*
X200988909Y-115060660I-141421J141421D01*
G01*
X200706066Y-114777817D01*
G75*
G02*
X200706066Y-114494975I141421J141421D01*
G01*
X201094975Y-114106066D01*
G75*
G02*
X201377817Y-114106066I141421J-141421D01*
G01*
X201660660Y-114388909D01*
G75*
G02*
X201660660Y-114671751I-141421J-141421D01*
G01*
G37*
G36*
G01*
X200493934Y-113505025D02*
X200105025Y-113893934D01*
G75*
G02*
X199822183Y-113893934I-141421J141421D01*
G01*
X199539340Y-113611091D01*
G75*
G02*
X199539340Y-113328249I141421J141421D01*
G01*
X199928249Y-112939340D01*
G75*
G02*
X200211091Y-112939340I141421J-141421D01*
G01*
X200493934Y-113222183D01*
G75*
G02*
X200493934Y-113505025I-141421J-141421D01*
G01*
G37*
G36*
G01*
X206933623Y-113003115D02*
X207022012Y-113091504D01*
G75*
G02*
X207022012Y-113179892I-44194J-44194D01*
G01*
X206544715Y-113657189D01*
G75*
G02*
X206456327Y-113657189I-44194J44194D01*
G01*
X206367938Y-113568800D01*
G75*
G02*
X206367938Y-113480412I44194J44194D01*
G01*
X206845235Y-113003115D01*
G75*
G02*
X206933623Y-113003115I44194J-44194D01*
G01*
G37*
G36*
G01*
X207287176Y-113356668D02*
X207375565Y-113445057D01*
G75*
G02*
X207375565Y-113533445I-44194J-44194D01*
G01*
X206898268Y-114010742D01*
G75*
G02*
X206809880Y-114010742I-44194J44194D01*
G01*
X206721491Y-113922353D01*
G75*
G02*
X206721491Y-113833965I44194J44194D01*
G01*
X207198788Y-113356668D01*
G75*
G02*
X207287176Y-113356668I44194J-44194D01*
G01*
G37*
G36*
G01*
X207640730Y-113710221D02*
X207729119Y-113798610D01*
G75*
G02*
X207729119Y-113886998I-44194J-44194D01*
G01*
X207251822Y-114364295D01*
G75*
G02*
X207163434Y-114364295I-44194J44194D01*
G01*
X207075045Y-114275906D01*
G75*
G02*
X207075045Y-114187518I44194J44194D01*
G01*
X207552342Y-113710221D01*
G75*
G02*
X207640730Y-113710221I44194J-44194D01*
G01*
G37*
G36*
G01*
X207994283Y-114063775D02*
X208082672Y-114152164D01*
G75*
G02*
X208082672Y-114240552I-44194J-44194D01*
G01*
X207605375Y-114717849D01*
G75*
G02*
X207516987Y-114717849I-44194J44194D01*
G01*
X207428598Y-114629460D01*
G75*
G02*
X207428598Y-114541072I44194J44194D01*
G01*
X207905895Y-114063775D01*
G75*
G02*
X207994283Y-114063775I44194J-44194D01*
G01*
G37*
G36*
G01*
X208347836Y-114417328D02*
X208436225Y-114505717D01*
G75*
G02*
X208436225Y-114594105I-44194J-44194D01*
G01*
X207958928Y-115071402D01*
G75*
G02*
X207870540Y-115071402I-44194J44194D01*
G01*
X207782151Y-114983013D01*
G75*
G02*
X207782151Y-114894625I44194J44194D01*
G01*
X208259448Y-114417328D01*
G75*
G02*
X208347836Y-114417328I44194J-44194D01*
G01*
G37*
G36*
G01*
X208701390Y-114770881D02*
X208789779Y-114859270D01*
G75*
G02*
X208789779Y-114947658I-44194J-44194D01*
G01*
X208312482Y-115424955D01*
G75*
G02*
X208224094Y-115424955I-44194J44194D01*
G01*
X208135705Y-115336566D01*
G75*
G02*
X208135705Y-115248178I44194J44194D01*
G01*
X208613002Y-114770881D01*
G75*
G02*
X208701390Y-114770881I44194J-44194D01*
G01*
G37*
G36*
G01*
X209054943Y-115124435D02*
X209143332Y-115212824D01*
G75*
G02*
X209143332Y-115301212I-44194J-44194D01*
G01*
X208666035Y-115778509D01*
G75*
G02*
X208577647Y-115778509I-44194J44194D01*
G01*
X208489258Y-115690120D01*
G75*
G02*
X208489258Y-115601732I44194J44194D01*
G01*
X208966555Y-115124435D01*
G75*
G02*
X209054943Y-115124435I44194J-44194D01*
G01*
G37*
G36*
G01*
X209408496Y-115477988D02*
X209496885Y-115566377D01*
G75*
G02*
X209496885Y-115654765I-44194J-44194D01*
G01*
X209019588Y-116132062D01*
G75*
G02*
X208931200Y-116132062I-44194J44194D01*
G01*
X208842811Y-116043673D01*
G75*
G02*
X208842811Y-115955285I44194J44194D01*
G01*
X209320108Y-115477988D01*
G75*
G02*
X209408496Y-115477988I44194J-44194D01*
G01*
G37*
G36*
G01*
X209019588Y-116467938D02*
X209496885Y-116945235D01*
G75*
G02*
X209496885Y-117033623I-44194J-44194D01*
G01*
X209408496Y-117122012D01*
G75*
G02*
X209320108Y-117122012I-44194J44194D01*
G01*
X208842811Y-116644715D01*
G75*
G02*
X208842811Y-116556327I44194J44194D01*
G01*
X208931200Y-116467938D01*
G75*
G02*
X209019588Y-116467938I44194J-44194D01*
G01*
G37*
G36*
G01*
X208666035Y-116821491D02*
X209143332Y-117298788D01*
G75*
G02*
X209143332Y-117387176I-44194J-44194D01*
G01*
X209054943Y-117475565D01*
G75*
G02*
X208966555Y-117475565I-44194J44194D01*
G01*
X208489258Y-116998268D01*
G75*
G02*
X208489258Y-116909880I44194J44194D01*
G01*
X208577647Y-116821491D01*
G75*
G02*
X208666035Y-116821491I44194J-44194D01*
G01*
G37*
G36*
G01*
X208312482Y-117175045D02*
X208789779Y-117652342D01*
G75*
G02*
X208789779Y-117740730I-44194J-44194D01*
G01*
X208701390Y-117829119D01*
G75*
G02*
X208613002Y-117829119I-44194J44194D01*
G01*
X208135705Y-117351822D01*
G75*
G02*
X208135705Y-117263434I44194J44194D01*
G01*
X208224094Y-117175045D01*
G75*
G02*
X208312482Y-117175045I44194J-44194D01*
G01*
G37*
G36*
G01*
X207958928Y-117528598D02*
X208436225Y-118005895D01*
G75*
G02*
X208436225Y-118094283I-44194J-44194D01*
G01*
X208347836Y-118182672D01*
G75*
G02*
X208259448Y-118182672I-44194J44194D01*
G01*
X207782151Y-117705375D01*
G75*
G02*
X207782151Y-117616987I44194J44194D01*
G01*
X207870540Y-117528598D01*
G75*
G02*
X207958928Y-117528598I44194J-44194D01*
G01*
G37*
G36*
G01*
X207605375Y-117882151D02*
X208082672Y-118359448D01*
G75*
G02*
X208082672Y-118447836I-44194J-44194D01*
G01*
X207994283Y-118536225D01*
G75*
G02*
X207905895Y-118536225I-44194J44194D01*
G01*
X207428598Y-118058928D01*
G75*
G02*
X207428598Y-117970540I44194J44194D01*
G01*
X207516987Y-117882151D01*
G75*
G02*
X207605375Y-117882151I44194J-44194D01*
G01*
G37*
G36*
G01*
X207251822Y-118235705D02*
X207729119Y-118713002D01*
G75*
G02*
X207729119Y-118801390I-44194J-44194D01*
G01*
X207640730Y-118889779D01*
G75*
G02*
X207552342Y-118889779I-44194J44194D01*
G01*
X207075045Y-118412482D01*
G75*
G02*
X207075045Y-118324094I44194J44194D01*
G01*
X207163434Y-118235705D01*
G75*
G02*
X207251822Y-118235705I44194J-44194D01*
G01*
G37*
G36*
G01*
X206898268Y-118589258D02*
X207375565Y-119066555D01*
G75*
G02*
X207375565Y-119154943I-44194J-44194D01*
G01*
X207287176Y-119243332D01*
G75*
G02*
X207198788Y-119243332I-44194J44194D01*
G01*
X206721491Y-118766035D01*
G75*
G02*
X206721491Y-118677647I44194J44194D01*
G01*
X206809880Y-118589258D01*
G75*
G02*
X206898268Y-118589258I44194J-44194D01*
G01*
G37*
G36*
G01*
X206544715Y-118942811D02*
X207022012Y-119420108D01*
G75*
G02*
X207022012Y-119508496I-44194J-44194D01*
G01*
X206933623Y-119596885D01*
G75*
G02*
X206845235Y-119596885I-44194J44194D01*
G01*
X206367938Y-119119588D01*
G75*
G02*
X206367938Y-119031200I44194J44194D01*
G01*
X206456327Y-118942811D01*
G75*
G02*
X206544715Y-118942811I44194J-44194D01*
G01*
G37*
G36*
G01*
X205943673Y-118942811D02*
X206032062Y-119031200D01*
G75*
G02*
X206032062Y-119119588I-44194J-44194D01*
G01*
X205554765Y-119596885D01*
G75*
G02*
X205466377Y-119596885I-44194J44194D01*
G01*
X205377988Y-119508496D01*
G75*
G02*
X205377988Y-119420108I44194J44194D01*
G01*
X205855285Y-118942811D01*
G75*
G02*
X205943673Y-118942811I44194J-44194D01*
G01*
G37*
G36*
G01*
X205590120Y-118589258D02*
X205678509Y-118677647D01*
G75*
G02*
X205678509Y-118766035I-44194J-44194D01*
G01*
X205201212Y-119243332D01*
G75*
G02*
X205112824Y-119243332I-44194J44194D01*
G01*
X205024435Y-119154943D01*
G75*
G02*
X205024435Y-119066555I44194J44194D01*
G01*
X205501732Y-118589258D01*
G75*
G02*
X205590120Y-118589258I44194J-44194D01*
G01*
G37*
G36*
G01*
X205236566Y-118235705D02*
X205324955Y-118324094D01*
G75*
G02*
X205324955Y-118412482I-44194J-44194D01*
G01*
X204847658Y-118889779D01*
G75*
G02*
X204759270Y-118889779I-44194J44194D01*
G01*
X204670881Y-118801390D01*
G75*
G02*
X204670881Y-118713002I44194J44194D01*
G01*
X205148178Y-118235705D01*
G75*
G02*
X205236566Y-118235705I44194J-44194D01*
G01*
G37*
G36*
G01*
X204883013Y-117882151D02*
X204971402Y-117970540D01*
G75*
G02*
X204971402Y-118058928I-44194J-44194D01*
G01*
X204494105Y-118536225D01*
G75*
G02*
X204405717Y-118536225I-44194J44194D01*
G01*
X204317328Y-118447836D01*
G75*
G02*
X204317328Y-118359448I44194J44194D01*
G01*
X204794625Y-117882151D01*
G75*
G02*
X204883013Y-117882151I44194J-44194D01*
G01*
G37*
G36*
G01*
X204529460Y-117528598D02*
X204617849Y-117616987D01*
G75*
G02*
X204617849Y-117705375I-44194J-44194D01*
G01*
X204140552Y-118182672D01*
G75*
G02*
X204052164Y-118182672I-44194J44194D01*
G01*
X203963775Y-118094283D01*
G75*
G02*
X203963775Y-118005895I44194J44194D01*
G01*
X204441072Y-117528598D01*
G75*
G02*
X204529460Y-117528598I44194J-44194D01*
G01*
G37*
G36*
G01*
X204175906Y-117175045D02*
X204264295Y-117263434D01*
G75*
G02*
X204264295Y-117351822I-44194J-44194D01*
G01*
X203786998Y-117829119D01*
G75*
G02*
X203698610Y-117829119I-44194J44194D01*
G01*
X203610221Y-117740730D01*
G75*
G02*
X203610221Y-117652342I44194J44194D01*
G01*
X204087518Y-117175045D01*
G75*
G02*
X204175906Y-117175045I44194J-44194D01*
G01*
G37*
G36*
G01*
X203822353Y-116821491D02*
X203910742Y-116909880D01*
G75*
G02*
X203910742Y-116998268I-44194J-44194D01*
G01*
X203433445Y-117475565D01*
G75*
G02*
X203345057Y-117475565I-44194J44194D01*
G01*
X203256668Y-117387176D01*
G75*
G02*
X203256668Y-117298788I44194J44194D01*
G01*
X203733965Y-116821491D01*
G75*
G02*
X203822353Y-116821491I44194J-44194D01*
G01*
G37*
G36*
G01*
X203468800Y-116467938D02*
X203557189Y-116556327D01*
G75*
G02*
X203557189Y-116644715I-44194J-44194D01*
G01*
X203079892Y-117122012D01*
G75*
G02*
X202991504Y-117122012I-44194J44194D01*
G01*
X202903115Y-117033623D01*
G75*
G02*
X202903115Y-116945235I44194J44194D01*
G01*
X203380412Y-116467938D01*
G75*
G02*
X203468800Y-116467938I44194J-44194D01*
G01*
G37*
G36*
G01*
X203079892Y-115477988D02*
X203557189Y-115955285D01*
G75*
G02*
X203557189Y-116043673I-44194J-44194D01*
G01*
X203468800Y-116132062D01*
G75*
G02*
X203380412Y-116132062I-44194J44194D01*
G01*
X202903115Y-115654765D01*
G75*
G02*
X202903115Y-115566377I44194J44194D01*
G01*
X202991504Y-115477988D01*
G75*
G02*
X203079892Y-115477988I44194J-44194D01*
G01*
G37*
G36*
G01*
X203433445Y-115124435D02*
X203910742Y-115601732D01*
G75*
G02*
X203910742Y-115690120I-44194J-44194D01*
G01*
X203822353Y-115778509D01*
G75*
G02*
X203733965Y-115778509I-44194J44194D01*
G01*
X203256668Y-115301212D01*
G75*
G02*
X203256668Y-115212824I44194J44194D01*
G01*
X203345057Y-115124435D01*
G75*
G02*
X203433445Y-115124435I44194J-44194D01*
G01*
G37*
G36*
G01*
X203786998Y-114770881D02*
X204264295Y-115248178D01*
G75*
G02*
X204264295Y-115336566I-44194J-44194D01*
G01*
X204175906Y-115424955D01*
G75*
G02*
X204087518Y-115424955I-44194J44194D01*
G01*
X203610221Y-114947658D01*
G75*
G02*
X203610221Y-114859270I44194J44194D01*
G01*
X203698610Y-114770881D01*
G75*
G02*
X203786998Y-114770881I44194J-44194D01*
G01*
G37*
G36*
G01*
X204140552Y-114417328D02*
X204617849Y-114894625D01*
G75*
G02*
X204617849Y-114983013I-44194J-44194D01*
G01*
X204529460Y-115071402D01*
G75*
G02*
X204441072Y-115071402I-44194J44194D01*
G01*
X203963775Y-114594105D01*
G75*
G02*
X203963775Y-114505717I44194J44194D01*
G01*
X204052164Y-114417328D01*
G75*
G02*
X204140552Y-114417328I44194J-44194D01*
G01*
G37*
G36*
G01*
X204494105Y-114063775D02*
X204971402Y-114541072D01*
G75*
G02*
X204971402Y-114629460I-44194J-44194D01*
G01*
X204883013Y-114717849D01*
G75*
G02*
X204794625Y-114717849I-44194J44194D01*
G01*
X204317328Y-114240552D01*
G75*
G02*
X204317328Y-114152164I44194J44194D01*
G01*
X204405717Y-114063775D01*
G75*
G02*
X204494105Y-114063775I44194J-44194D01*
G01*
G37*
G36*
G01*
X204847658Y-113710221D02*
X205324955Y-114187518D01*
G75*
G02*
X205324955Y-114275906I-44194J-44194D01*
G01*
X205236566Y-114364295D01*
G75*
G02*
X205148178Y-114364295I-44194J44194D01*
G01*
X204670881Y-113886998D01*
G75*
G02*
X204670881Y-113798610I44194J44194D01*
G01*
X204759270Y-113710221D01*
G75*
G02*
X204847658Y-113710221I44194J-44194D01*
G01*
G37*
G36*
G01*
X205201212Y-113356668D02*
X205678509Y-113833965D01*
G75*
G02*
X205678509Y-113922353I-44194J-44194D01*
G01*
X205590120Y-114010742D01*
G75*
G02*
X205501732Y-114010742I-44194J44194D01*
G01*
X205024435Y-113533445D01*
G75*
G02*
X205024435Y-113445057I44194J44194D01*
G01*
X205112824Y-113356668D01*
G75*
G02*
X205201212Y-113356668I44194J-44194D01*
G01*
G37*
G36*
G01*
X205554765Y-113003115D02*
X206032062Y-113480412D01*
G75*
G02*
X206032062Y-113568800I-44194J-44194D01*
G01*
X205943673Y-113657189D01*
G75*
G02*
X205855285Y-113657189I-44194J44194D01*
G01*
X205377988Y-113179892D01*
G75*
G02*
X205377988Y-113091504I44194J44194D01*
G01*
X205466377Y-113003115D01*
G75*
G02*
X205554765Y-113003115I44194J-44194D01*
G01*
G37*
G36*
G01*
X206371473Y-114088524D02*
X206714420Y-114431471D01*
G75*
G02*
X206714420Y-114774417I-171473J-171473D01*
G01*
X206371473Y-115117364D01*
G75*
G02*
X206028527Y-115117364I-171473J171473D01*
G01*
X205685580Y-114774417D01*
G75*
G02*
X205685580Y-114431471I171473J171473D01*
G01*
X206028527Y-114088524D01*
G75*
G02*
X206371473Y-114088524I171473J-171473D01*
G01*
G37*
G36*
G01*
X207220001Y-114937052D02*
X207562948Y-115279999D01*
G75*
G02*
X207562948Y-115622945I-171473J-171473D01*
G01*
X207220001Y-115965892D01*
G75*
G02*
X206877055Y-115965892I-171473J171473D01*
G01*
X206534108Y-115622945D01*
G75*
G02*
X206534108Y-115279999I171473J171473D01*
G01*
X206877055Y-114937052D01*
G75*
G02*
X207220001Y-114937052I171473J-171473D01*
G01*
G37*
G36*
G01*
X208068529Y-115785580D02*
X208411476Y-116128527D01*
G75*
G02*
X208411476Y-116471473I-171473J-171473D01*
G01*
X208068529Y-116814420D01*
G75*
G02*
X207725583Y-116814420I-171473J171473D01*
G01*
X207382636Y-116471473D01*
G75*
G02*
X207382636Y-116128527I171473J171473D01*
G01*
X207725583Y-115785580D01*
G75*
G02*
X208068529Y-115785580I171473J-171473D01*
G01*
G37*
G36*
G01*
X205522945Y-114937052D02*
X205865892Y-115279999D01*
G75*
G02*
X205865892Y-115622945I-171473J-171473D01*
G01*
X205522945Y-115965892D01*
G75*
G02*
X205179999Y-115965892I-171473J171473D01*
G01*
X204837052Y-115622945D01*
G75*
G02*
X204837052Y-115279999I171473J171473D01*
G01*
X205179999Y-114937052D01*
G75*
G02*
X205522945Y-114937052I171473J-171473D01*
G01*
G37*
G36*
G01*
X206371473Y-115785580D02*
X206714420Y-116128527D01*
G75*
G02*
X206714420Y-116471473I-171473J-171473D01*
G01*
X206371473Y-116814420D01*
G75*
G02*
X206028527Y-116814420I-171473J171473D01*
G01*
X205685580Y-116471473D01*
G75*
G02*
X205685580Y-116128527I171473J171473D01*
G01*
X206028527Y-115785580D01*
G75*
G02*
X206371473Y-115785580I171473J-171473D01*
G01*
G37*
G36*
G01*
X207220001Y-116634108D02*
X207562948Y-116977055D01*
G75*
G02*
X207562948Y-117320001I-171473J-171473D01*
G01*
X207220001Y-117662948D01*
G75*
G02*
X206877055Y-117662948I-171473J171473D01*
G01*
X206534108Y-117320001D01*
G75*
G02*
X206534108Y-116977055I171473J171473D01*
G01*
X206877055Y-116634108D01*
G75*
G02*
X207220001Y-116634108I171473J-171473D01*
G01*
G37*
G36*
G01*
X204674417Y-115785580D02*
X205017364Y-116128527D01*
G75*
G02*
X205017364Y-116471473I-171473J-171473D01*
G01*
X204674417Y-116814420D01*
G75*
G02*
X204331471Y-116814420I-171473J171473D01*
G01*
X203988524Y-116471473D01*
G75*
G02*
X203988524Y-116128527I171473J171473D01*
G01*
X204331471Y-115785580D01*
G75*
G02*
X204674417Y-115785580I171473J-171473D01*
G01*
G37*
G36*
G01*
X205522945Y-116634108D02*
X205865892Y-116977055D01*
G75*
G02*
X205865892Y-117320001I-171473J-171473D01*
G01*
X205522945Y-117662948D01*
G75*
G02*
X205179999Y-117662948I-171473J171473D01*
G01*
X204837052Y-117320001D01*
G75*
G02*
X204837052Y-116977055I171473J171473D01*
G01*
X205179999Y-116634108D01*
G75*
G02*
X205522945Y-116634108I171473J-171473D01*
G01*
G37*
G36*
G01*
X206371473Y-117482636D02*
X206714420Y-117825583D01*
G75*
G02*
X206714420Y-118168529I-171473J-171473D01*
G01*
X206371473Y-118511476D01*
G75*
G02*
X206028527Y-118511476I-171473J171473D01*
G01*
X205685580Y-118168529D01*
G75*
G02*
X205685580Y-117825583I171473J171473D01*
G01*
X206028527Y-117482636D01*
G75*
G02*
X206371473Y-117482636I171473J-171473D01*
G01*
G37*
D10*
X212500000Y-112350000D03*
X212500000Y-111400000D03*
X212500000Y-110450000D03*
X214700000Y-110450000D03*
X214700000Y-112350000D03*
D11*
X212390000Y-89320000D03*
X216090000Y-89320000D03*
D12*
G36*
X197088630Y-113115483D02*
G01*
X196381523Y-112408376D01*
X197583604Y-111206295D01*
X198290711Y-111913402D01*
X197088630Y-113115483D01*
G37*
G36*
X201543402Y-108660711D02*
G01*
X200836295Y-107953604D01*
X202038376Y-106751523D01*
X202745483Y-107458630D01*
X201543402Y-108660711D01*
G37*
G36*
X194401624Y-110428477D02*
G01*
X193694517Y-109721370D01*
X194896598Y-108519289D01*
X195603705Y-109226396D01*
X194401624Y-110428477D01*
G37*
G36*
X198856396Y-105973705D02*
G01*
X198149289Y-105266598D01*
X199351370Y-104064517D01*
X200058477Y-104771624D01*
X198856396Y-105973705D01*
G37*
M02*
