M48
; DRILL file {KiCad (5.1.8)-1} date 05/01/21 00:31:11
; FORMAT={-:-/ absolute / inch / decimal}
; #@! TF.CreationDate,2021-05-01T00:31:11-04:00
; #@! TF.GenerationSoftware,Kicad,Pcbnew,(5.1.8)-1
; #@! TF.FileFunction,Plated,1,2,PTH
FMAT,2
INCH
T1C0.0100
%
G90
G05
T1
X7.8189Y-4.4823
X7.8643Y-4.5123
X7.8807Y-4.3799
X7.9264Y-4.3413
X7.9677Y-4.3028
X7.9697Y-4.7744
X7.9697Y-4.7976
X7.9969Y-4.5075
X8.0461Y-4.7322
X8.0744Y-4.7323
X8.1445Y-4.4004
X8.2492Y-4.639
X8.2854Y-4.7953
X8.302Y-4.7783
X8.3307Y-4.6031
X8.3972Y-4.6051
X8.4177Y-4.3858
X8.4724Y-4.4862
X8.5169Y-4.3134
X8.5756Y-4.3677
T0
M30
