G04 #@! TF.GenerationSoftware,KiCad,Pcbnew,(5.1.8)-1*
G04 #@! TF.CreationDate,2021-05-02T00:16:01-04:00*
G04 #@! TF.ProjectId,CryptoRosette,43727970-746f-4526-9f73-657474652e6b,1*
G04 #@! TF.SameCoordinates,Original*
G04 #@! TF.FileFunction,Soldermask,Bot*
G04 #@! TF.FilePolarity,Negative*
%FSLAX46Y46*%
G04 Gerber Fmt 4.6, Leading zero omitted, Abs format (unit mm)*
G04 Created by KiCad (PCBNEW (5.1.8)-1) date 2021-05-02 00:16:01*
%MOMM*%
%LPD*%
G01*
G04 APERTURE LIST*
%ADD10C,1.601600*%
G04 APERTURE END LIST*
G36*
G01*
X150252184Y-106777014D02*
X150677014Y-106352184D01*
G75*
G02*
X150995778Y-106352184I159382J-159382D01*
G01*
X151314542Y-106670948D01*
G75*
G02*
X151314542Y-106989712I-159382J-159382D01*
G01*
X150889712Y-107414542D01*
G75*
G02*
X150570948Y-107414542I-159382J159382D01*
G01*
X150252184Y-107095778D01*
G75*
G02*
X150252184Y-106777014I159382J159382D01*
G01*
G37*
G36*
G01*
X149085458Y-105610288D02*
X149510288Y-105185458D01*
G75*
G02*
X149829052Y-105185458I159382J-159382D01*
G01*
X150147816Y-105504222D01*
G75*
G02*
X150147816Y-105822986I-159382J-159382D01*
G01*
X149722986Y-106247816D01*
G75*
G02*
X149404222Y-106247816I-159382J159382D01*
G01*
X149085458Y-105929052D01*
G75*
G02*
X149085458Y-105610288I159382J159382D01*
G01*
G37*
G36*
G01*
X152414542Y-105889712D02*
X151989712Y-106314542D01*
G75*
G02*
X151670948Y-106314542I-159382J159382D01*
G01*
X151352184Y-105995778D01*
G75*
G02*
X151352184Y-105677014I159382J159382D01*
G01*
X151777014Y-105252184D01*
G75*
G02*
X152095778Y-105252184I159382J-159382D01*
G01*
X152414542Y-105570948D01*
G75*
G02*
X152414542Y-105889712I-159382J-159382D01*
G01*
G37*
G36*
G01*
X151247816Y-104722986D02*
X150822986Y-105147816D01*
G75*
G02*
X150504222Y-105147816I-159382J159382D01*
G01*
X150185458Y-104829052D01*
G75*
G02*
X150185458Y-104510288I159382J159382D01*
G01*
X150610288Y-104085458D01*
G75*
G02*
X150929052Y-104085458I159382J-159382D01*
G01*
X151247816Y-104404222D01*
G75*
G02*
X151247816Y-104722986I-159382J-159382D01*
G01*
G37*
G36*
G01*
X158122986Y-112352184D02*
X158547816Y-112777014D01*
G75*
G02*
X158547816Y-113095778I-159382J-159382D01*
G01*
X158229052Y-113414542D01*
G75*
G02*
X157910288Y-113414542I-159382J159382D01*
G01*
X157485458Y-112989712D01*
G75*
G02*
X157485458Y-112670948I159382J159382D01*
G01*
X157804222Y-112352184D01*
G75*
G02*
X158122986Y-112352184I159382J-159382D01*
G01*
G37*
G36*
G01*
X159289712Y-111185458D02*
X159714542Y-111610288D01*
G75*
G02*
X159714542Y-111929052I-159382J-159382D01*
G01*
X159395778Y-112247816D01*
G75*
G02*
X159077014Y-112247816I-159382J159382D01*
G01*
X158652184Y-111822986D01*
G75*
G02*
X158652184Y-111504222I159382J159382D01*
G01*
X158970948Y-111185458D01*
G75*
G02*
X159289712Y-111185458I159382J-159382D01*
G01*
G37*
G36*
G01*
X160600400Y-104125800D02*
X159999600Y-104125800D01*
G75*
G02*
X159774200Y-103900400I0J225400D01*
G01*
X159774200Y-103449600D01*
G75*
G02*
X159999600Y-103224200I225400J0D01*
G01*
X160600400Y-103224200D01*
G75*
G02*
X160825800Y-103449600I0J-225400D01*
G01*
X160825800Y-103900400D01*
G75*
G02*
X160600400Y-104125800I-225400J0D01*
G01*
G37*
G36*
G01*
X160600400Y-105775800D02*
X159999600Y-105775800D01*
G75*
G02*
X159774200Y-105550400I0J225400D01*
G01*
X159774200Y-105099600D01*
G75*
G02*
X159999600Y-104874200I225400J0D01*
G01*
X160600400Y-104874200D01*
G75*
G02*
X160825800Y-105099600I0J-225400D01*
G01*
X160825800Y-105550400D01*
G75*
G02*
X160600400Y-105775800I-225400J0D01*
G01*
G37*
G36*
G01*
X164675800Y-104999600D02*
X164675800Y-105600400D01*
G75*
G02*
X164450400Y-105825800I-225400J0D01*
G01*
X163999600Y-105825800D01*
G75*
G02*
X163774200Y-105600400I0J225400D01*
G01*
X163774200Y-104999600D01*
G75*
G02*
X163999600Y-104774200I225400J0D01*
G01*
X164450400Y-104774200D01*
G75*
G02*
X164675800Y-104999600I0J-225400D01*
G01*
G37*
G36*
G01*
X163025800Y-104999600D02*
X163025800Y-105600400D01*
G75*
G02*
X162800400Y-105825800I-225400J0D01*
G01*
X162349600Y-105825800D01*
G75*
G02*
X162124200Y-105600400I0J225400D01*
G01*
X162124200Y-104999600D01*
G75*
G02*
X162349600Y-104774200I225400J0D01*
G01*
X162800400Y-104774200D01*
G75*
G02*
X163025800Y-104999600I0J-225400D01*
G01*
G37*
G36*
G01*
X158499600Y-103224200D02*
X159100400Y-103224200D01*
G75*
G02*
X159325800Y-103449600I0J-225400D01*
G01*
X159325800Y-103900400D01*
G75*
G02*
X159100400Y-104125800I-225400J0D01*
G01*
X158499600Y-104125800D01*
G75*
G02*
X158274200Y-103900400I0J225400D01*
G01*
X158274200Y-103449600D01*
G75*
G02*
X158499600Y-103224200I225400J0D01*
G01*
G37*
G36*
G01*
X158499600Y-104874200D02*
X159100400Y-104874200D01*
G75*
G02*
X159325800Y-105099600I0J-225400D01*
G01*
X159325800Y-105550400D01*
G75*
G02*
X159100400Y-105775800I-225400J0D01*
G01*
X158499600Y-105775800D01*
G75*
G02*
X158274200Y-105550400I0J225400D01*
G01*
X158274200Y-105099600D01*
G75*
G02*
X158499600Y-104874200I225400J0D01*
G01*
G37*
G36*
G01*
X150214542Y-108089712D02*
X149789712Y-108514542D01*
G75*
G02*
X149470948Y-108514542I-159382J159382D01*
G01*
X149152184Y-108195778D01*
G75*
G02*
X149152184Y-107877014I159382J159382D01*
G01*
X149577014Y-107452184D01*
G75*
G02*
X149895778Y-107452184I159382J-159382D01*
G01*
X150214542Y-107770948D01*
G75*
G02*
X150214542Y-108089712I-159382J-159382D01*
G01*
G37*
G36*
G01*
X149047816Y-106922986D02*
X148622986Y-107347816D01*
G75*
G02*
X148304222Y-107347816I-159382J159382D01*
G01*
X147985458Y-107029052D01*
G75*
G02*
X147985458Y-106710288I159382J159382D01*
G01*
X148410288Y-106285458D01*
G75*
G02*
X148729052Y-106285458I159382J-159382D01*
G01*
X149047816Y-106604222D01*
G75*
G02*
X149047816Y-106922986I-159382J-159382D01*
G01*
G37*
G36*
G01*
X148650800Y-109200000D02*
X148650800Y-110200000D01*
G75*
G02*
X148600000Y-110250800I-50800J0D01*
G01*
X146900000Y-110250800D01*
G75*
G02*
X146849200Y-110200000I0J50800D01*
G01*
X146849200Y-109200000D01*
G75*
G02*
X146900000Y-109149200I50800J0D01*
G01*
X148600000Y-109149200D01*
G75*
G02*
X148650800Y-109200000I0J-50800D01*
G01*
G37*
G36*
G01*
X142350800Y-109200000D02*
X142350800Y-110200000D01*
G75*
G02*
X142300000Y-110250800I-50800J0D01*
G01*
X140600000Y-110250800D01*
G75*
G02*
X140549200Y-110200000I0J50800D01*
G01*
X140549200Y-109200000D01*
G75*
G02*
X140600000Y-109149200I50800J0D01*
G01*
X142300000Y-109149200D01*
G75*
G02*
X142350800Y-109200000I0J-50800D01*
G01*
G37*
G36*
G01*
X148650800Y-113000000D02*
X148650800Y-114000000D01*
G75*
G02*
X148600000Y-114050800I-50800J0D01*
G01*
X146900000Y-114050800D01*
G75*
G02*
X146849200Y-114000000I0J50800D01*
G01*
X146849200Y-113000000D01*
G75*
G02*
X146900000Y-112949200I50800J0D01*
G01*
X148600000Y-112949200D01*
G75*
G02*
X148650800Y-113000000I0J-50800D01*
G01*
G37*
G36*
G01*
X142350800Y-113000000D02*
X142350800Y-114000000D01*
G75*
G02*
X142300000Y-114050800I-50800J0D01*
G01*
X140600000Y-114050800D01*
G75*
G02*
X140549200Y-114000000I0J50800D01*
G01*
X140549200Y-113000000D01*
G75*
G02*
X140600000Y-112949200I50800J0D01*
G01*
X142300000Y-112949200D01*
G75*
G02*
X142350800Y-113000000I0J-50800D01*
G01*
G37*
D10*
X162100000Y-108900000D03*
X147500000Y-101300000D03*
X150040000Y-101300000D03*
X152580000Y-101300000D03*
X144960000Y-101300000D03*
G36*
G01*
X154931584Y-106849233D02*
X155055894Y-106973543D01*
G75*
G02*
X155055894Y-107097853I-62155J-62155D01*
G01*
X154542676Y-107611071D01*
G75*
G02*
X154418366Y-107611071I-62155J62155D01*
G01*
X154294056Y-107486761D01*
G75*
G02*
X154294056Y-107362451I62155J62155D01*
G01*
X154807274Y-106849233D01*
G75*
G02*
X154931584Y-106849233I62155J-62155D01*
G01*
G37*
G36*
G01*
X155285137Y-107202786D02*
X155409447Y-107327096D01*
G75*
G02*
X155409447Y-107451406I-62155J-62155D01*
G01*
X154896229Y-107964624D01*
G75*
G02*
X154771919Y-107964624I-62155J62155D01*
G01*
X154647609Y-107840314D01*
G75*
G02*
X154647609Y-107716004I62155J62155D01*
G01*
X155160827Y-107202786D01*
G75*
G02*
X155285137Y-107202786I62155J-62155D01*
G01*
G37*
G36*
G01*
X155638691Y-107556339D02*
X155763001Y-107680649D01*
G75*
G02*
X155763001Y-107804959I-62155J-62155D01*
G01*
X155249783Y-108318177D01*
G75*
G02*
X155125473Y-108318177I-62155J62155D01*
G01*
X155001163Y-108193867D01*
G75*
G02*
X155001163Y-108069557I62155J62155D01*
G01*
X155514381Y-107556339D01*
G75*
G02*
X155638691Y-107556339I62155J-62155D01*
G01*
G37*
G36*
G01*
X155992244Y-107909893D02*
X156116554Y-108034203D01*
G75*
G02*
X156116554Y-108158513I-62155J-62155D01*
G01*
X155603336Y-108671731D01*
G75*
G02*
X155479026Y-108671731I-62155J62155D01*
G01*
X155354716Y-108547421D01*
G75*
G02*
X155354716Y-108423111I62155J62155D01*
G01*
X155867934Y-107909893D01*
G75*
G02*
X155992244Y-107909893I62155J-62155D01*
G01*
G37*
G36*
G01*
X156345797Y-108263446D02*
X156470107Y-108387756D01*
G75*
G02*
X156470107Y-108512066I-62155J-62155D01*
G01*
X155956889Y-109025284D01*
G75*
G02*
X155832579Y-109025284I-62155J62155D01*
G01*
X155708269Y-108900974D01*
G75*
G02*
X155708269Y-108776664I62155J62155D01*
G01*
X156221487Y-108263446D01*
G75*
G02*
X156345797Y-108263446I62155J-62155D01*
G01*
G37*
G36*
G01*
X156699351Y-108616999D02*
X156823661Y-108741309D01*
G75*
G02*
X156823661Y-108865619I-62155J-62155D01*
G01*
X156310443Y-109378837D01*
G75*
G02*
X156186133Y-109378837I-62155J62155D01*
G01*
X156061823Y-109254527D01*
G75*
G02*
X156061823Y-109130217I62155J62155D01*
G01*
X156575041Y-108616999D01*
G75*
G02*
X156699351Y-108616999I62155J-62155D01*
G01*
G37*
G36*
G01*
X157052904Y-108970553D02*
X157177214Y-109094863D01*
G75*
G02*
X157177214Y-109219173I-62155J-62155D01*
G01*
X156663996Y-109732391D01*
G75*
G02*
X156539686Y-109732391I-62155J62155D01*
G01*
X156415376Y-109608081D01*
G75*
G02*
X156415376Y-109483771I62155J62155D01*
G01*
X156928594Y-108970553D01*
G75*
G02*
X157052904Y-108970553I62155J-62155D01*
G01*
G37*
G36*
G01*
X157406457Y-109324106D02*
X157530767Y-109448416D01*
G75*
G02*
X157530767Y-109572726I-62155J-62155D01*
G01*
X157017549Y-110085944D01*
G75*
G02*
X156893239Y-110085944I-62155J62155D01*
G01*
X156768929Y-109961634D01*
G75*
G02*
X156768929Y-109837324I62155J62155D01*
G01*
X157282147Y-109324106D01*
G75*
G02*
X157406457Y-109324106I62155J-62155D01*
G01*
G37*
G36*
G01*
X157017549Y-110314056D02*
X157530767Y-110827274D01*
G75*
G02*
X157530767Y-110951584I-62155J-62155D01*
G01*
X157406457Y-111075894D01*
G75*
G02*
X157282147Y-111075894I-62155J62155D01*
G01*
X156768929Y-110562676D01*
G75*
G02*
X156768929Y-110438366I62155J62155D01*
G01*
X156893239Y-110314056D01*
G75*
G02*
X157017549Y-110314056I62155J-62155D01*
G01*
G37*
G36*
G01*
X156663996Y-110667609D02*
X157177214Y-111180827D01*
G75*
G02*
X157177214Y-111305137I-62155J-62155D01*
G01*
X157052904Y-111429447D01*
G75*
G02*
X156928594Y-111429447I-62155J62155D01*
G01*
X156415376Y-110916229D01*
G75*
G02*
X156415376Y-110791919I62155J62155D01*
G01*
X156539686Y-110667609D01*
G75*
G02*
X156663996Y-110667609I62155J-62155D01*
G01*
G37*
G36*
G01*
X156310443Y-111021163D02*
X156823661Y-111534381D01*
G75*
G02*
X156823661Y-111658691I-62155J-62155D01*
G01*
X156699351Y-111783001D01*
G75*
G02*
X156575041Y-111783001I-62155J62155D01*
G01*
X156061823Y-111269783D01*
G75*
G02*
X156061823Y-111145473I62155J62155D01*
G01*
X156186133Y-111021163D01*
G75*
G02*
X156310443Y-111021163I62155J-62155D01*
G01*
G37*
G36*
G01*
X155956889Y-111374716D02*
X156470107Y-111887934D01*
G75*
G02*
X156470107Y-112012244I-62155J-62155D01*
G01*
X156345797Y-112136554D01*
G75*
G02*
X156221487Y-112136554I-62155J62155D01*
G01*
X155708269Y-111623336D01*
G75*
G02*
X155708269Y-111499026I62155J62155D01*
G01*
X155832579Y-111374716D01*
G75*
G02*
X155956889Y-111374716I62155J-62155D01*
G01*
G37*
G36*
G01*
X155603336Y-111728269D02*
X156116554Y-112241487D01*
G75*
G02*
X156116554Y-112365797I-62155J-62155D01*
G01*
X155992244Y-112490107D01*
G75*
G02*
X155867934Y-112490107I-62155J62155D01*
G01*
X155354716Y-111976889D01*
G75*
G02*
X155354716Y-111852579I62155J62155D01*
G01*
X155479026Y-111728269D01*
G75*
G02*
X155603336Y-111728269I62155J-62155D01*
G01*
G37*
G36*
G01*
X155249783Y-112081823D02*
X155763001Y-112595041D01*
G75*
G02*
X155763001Y-112719351I-62155J-62155D01*
G01*
X155638691Y-112843661D01*
G75*
G02*
X155514381Y-112843661I-62155J62155D01*
G01*
X155001163Y-112330443D01*
G75*
G02*
X155001163Y-112206133I62155J62155D01*
G01*
X155125473Y-112081823D01*
G75*
G02*
X155249783Y-112081823I62155J-62155D01*
G01*
G37*
G36*
G01*
X154896229Y-112435376D02*
X155409447Y-112948594D01*
G75*
G02*
X155409447Y-113072904I-62155J-62155D01*
G01*
X155285137Y-113197214D01*
G75*
G02*
X155160827Y-113197214I-62155J62155D01*
G01*
X154647609Y-112683996D01*
G75*
G02*
X154647609Y-112559686I62155J62155D01*
G01*
X154771919Y-112435376D01*
G75*
G02*
X154896229Y-112435376I62155J-62155D01*
G01*
G37*
G36*
G01*
X154542676Y-112788929D02*
X155055894Y-113302147D01*
G75*
G02*
X155055894Y-113426457I-62155J-62155D01*
G01*
X154931584Y-113550767D01*
G75*
G02*
X154807274Y-113550767I-62155J62155D01*
G01*
X154294056Y-113037549D01*
G75*
G02*
X154294056Y-112913239I62155J62155D01*
G01*
X154418366Y-112788929D01*
G75*
G02*
X154542676Y-112788929I62155J-62155D01*
G01*
G37*
G36*
G01*
X153941634Y-112788929D02*
X154065944Y-112913239D01*
G75*
G02*
X154065944Y-113037549I-62155J-62155D01*
G01*
X153552726Y-113550767D01*
G75*
G02*
X153428416Y-113550767I-62155J62155D01*
G01*
X153304106Y-113426457D01*
G75*
G02*
X153304106Y-113302147I62155J62155D01*
G01*
X153817324Y-112788929D01*
G75*
G02*
X153941634Y-112788929I62155J-62155D01*
G01*
G37*
G36*
G01*
X153588081Y-112435376D02*
X153712391Y-112559686D01*
G75*
G02*
X153712391Y-112683996I-62155J-62155D01*
G01*
X153199173Y-113197214D01*
G75*
G02*
X153074863Y-113197214I-62155J62155D01*
G01*
X152950553Y-113072904D01*
G75*
G02*
X152950553Y-112948594I62155J62155D01*
G01*
X153463771Y-112435376D01*
G75*
G02*
X153588081Y-112435376I62155J-62155D01*
G01*
G37*
G36*
G01*
X153234527Y-112081823D02*
X153358837Y-112206133D01*
G75*
G02*
X153358837Y-112330443I-62155J-62155D01*
G01*
X152845619Y-112843661D01*
G75*
G02*
X152721309Y-112843661I-62155J62155D01*
G01*
X152596999Y-112719351D01*
G75*
G02*
X152596999Y-112595041I62155J62155D01*
G01*
X153110217Y-112081823D01*
G75*
G02*
X153234527Y-112081823I62155J-62155D01*
G01*
G37*
G36*
G01*
X152880974Y-111728269D02*
X153005284Y-111852579D01*
G75*
G02*
X153005284Y-111976889I-62155J-62155D01*
G01*
X152492066Y-112490107D01*
G75*
G02*
X152367756Y-112490107I-62155J62155D01*
G01*
X152243446Y-112365797D01*
G75*
G02*
X152243446Y-112241487I62155J62155D01*
G01*
X152756664Y-111728269D01*
G75*
G02*
X152880974Y-111728269I62155J-62155D01*
G01*
G37*
G36*
G01*
X152527421Y-111374716D02*
X152651731Y-111499026D01*
G75*
G02*
X152651731Y-111623336I-62155J-62155D01*
G01*
X152138513Y-112136554D01*
G75*
G02*
X152014203Y-112136554I-62155J62155D01*
G01*
X151889893Y-112012244D01*
G75*
G02*
X151889893Y-111887934I62155J62155D01*
G01*
X152403111Y-111374716D01*
G75*
G02*
X152527421Y-111374716I62155J-62155D01*
G01*
G37*
G36*
G01*
X152173867Y-111021163D02*
X152298177Y-111145473D01*
G75*
G02*
X152298177Y-111269783I-62155J-62155D01*
G01*
X151784959Y-111783001D01*
G75*
G02*
X151660649Y-111783001I-62155J62155D01*
G01*
X151536339Y-111658691D01*
G75*
G02*
X151536339Y-111534381I62155J62155D01*
G01*
X152049557Y-111021163D01*
G75*
G02*
X152173867Y-111021163I62155J-62155D01*
G01*
G37*
G36*
G01*
X151820314Y-110667609D02*
X151944624Y-110791919D01*
G75*
G02*
X151944624Y-110916229I-62155J-62155D01*
G01*
X151431406Y-111429447D01*
G75*
G02*
X151307096Y-111429447I-62155J62155D01*
G01*
X151182786Y-111305137D01*
G75*
G02*
X151182786Y-111180827I62155J62155D01*
G01*
X151696004Y-110667609D01*
G75*
G02*
X151820314Y-110667609I62155J-62155D01*
G01*
G37*
G36*
G01*
X151466761Y-110314056D02*
X151591071Y-110438366D01*
G75*
G02*
X151591071Y-110562676I-62155J-62155D01*
G01*
X151077853Y-111075894D01*
G75*
G02*
X150953543Y-111075894I-62155J62155D01*
G01*
X150829233Y-110951584D01*
G75*
G02*
X150829233Y-110827274I62155J62155D01*
G01*
X151342451Y-110314056D01*
G75*
G02*
X151466761Y-110314056I62155J-62155D01*
G01*
G37*
G36*
G01*
X151077853Y-109324106D02*
X151591071Y-109837324D01*
G75*
G02*
X151591071Y-109961634I-62155J-62155D01*
G01*
X151466761Y-110085944D01*
G75*
G02*
X151342451Y-110085944I-62155J62155D01*
G01*
X150829233Y-109572726D01*
G75*
G02*
X150829233Y-109448416I62155J62155D01*
G01*
X150953543Y-109324106D01*
G75*
G02*
X151077853Y-109324106I62155J-62155D01*
G01*
G37*
G36*
G01*
X151431406Y-108970553D02*
X151944624Y-109483771D01*
G75*
G02*
X151944624Y-109608081I-62155J-62155D01*
G01*
X151820314Y-109732391D01*
G75*
G02*
X151696004Y-109732391I-62155J62155D01*
G01*
X151182786Y-109219173D01*
G75*
G02*
X151182786Y-109094863I62155J62155D01*
G01*
X151307096Y-108970553D01*
G75*
G02*
X151431406Y-108970553I62155J-62155D01*
G01*
G37*
G36*
G01*
X151784959Y-108616999D02*
X152298177Y-109130217D01*
G75*
G02*
X152298177Y-109254527I-62155J-62155D01*
G01*
X152173867Y-109378837D01*
G75*
G02*
X152049557Y-109378837I-62155J62155D01*
G01*
X151536339Y-108865619D01*
G75*
G02*
X151536339Y-108741309I62155J62155D01*
G01*
X151660649Y-108616999D01*
G75*
G02*
X151784959Y-108616999I62155J-62155D01*
G01*
G37*
G36*
G01*
X152138513Y-108263446D02*
X152651731Y-108776664D01*
G75*
G02*
X152651731Y-108900974I-62155J-62155D01*
G01*
X152527421Y-109025284D01*
G75*
G02*
X152403111Y-109025284I-62155J62155D01*
G01*
X151889893Y-108512066D01*
G75*
G02*
X151889893Y-108387756I62155J62155D01*
G01*
X152014203Y-108263446D01*
G75*
G02*
X152138513Y-108263446I62155J-62155D01*
G01*
G37*
G36*
G01*
X152492066Y-107909893D02*
X153005284Y-108423111D01*
G75*
G02*
X153005284Y-108547421I-62155J-62155D01*
G01*
X152880974Y-108671731D01*
G75*
G02*
X152756664Y-108671731I-62155J62155D01*
G01*
X152243446Y-108158513D01*
G75*
G02*
X152243446Y-108034203I62155J62155D01*
G01*
X152367756Y-107909893D01*
G75*
G02*
X152492066Y-107909893I62155J-62155D01*
G01*
G37*
G36*
G01*
X152845619Y-107556339D02*
X153358837Y-108069557D01*
G75*
G02*
X153358837Y-108193867I-62155J-62155D01*
G01*
X153234527Y-108318177D01*
G75*
G02*
X153110217Y-108318177I-62155J62155D01*
G01*
X152596999Y-107804959D01*
G75*
G02*
X152596999Y-107680649I62155J62155D01*
G01*
X152721309Y-107556339D01*
G75*
G02*
X152845619Y-107556339I62155J-62155D01*
G01*
G37*
G36*
G01*
X153199173Y-107202786D02*
X153712391Y-107716004D01*
G75*
G02*
X153712391Y-107840314I-62155J-62155D01*
G01*
X153588081Y-107964624D01*
G75*
G02*
X153463771Y-107964624I-62155J62155D01*
G01*
X152950553Y-107451406D01*
G75*
G02*
X152950553Y-107327096I62155J62155D01*
G01*
X153074863Y-107202786D01*
G75*
G02*
X153199173Y-107202786I62155J-62155D01*
G01*
G37*
G36*
G01*
X153552726Y-106849233D02*
X154065944Y-107362451D01*
G75*
G02*
X154065944Y-107486761I-62155J-62155D01*
G01*
X153941634Y-107611071D01*
G75*
G02*
X153817324Y-107611071I-62155J62155D01*
G01*
X153304106Y-107097853D01*
G75*
G02*
X153304106Y-106973543I62155J62155D01*
G01*
X153428416Y-106849233D01*
G75*
G02*
X153552726Y-106849233I62155J-62155D01*
G01*
G37*
G36*
G01*
X154215921Y-107618495D02*
X156761505Y-110164079D01*
G75*
G02*
X156761505Y-110235921I-35921J-35921D01*
G01*
X154215921Y-112781505D01*
G75*
G02*
X154144079Y-112781505I-35921J35921D01*
G01*
X151598495Y-110235921D01*
G75*
G02*
X151598495Y-110164079I35921J35921D01*
G01*
X154144079Y-107618495D01*
G75*
G02*
X154215921Y-107618495I35921J-35921D01*
G01*
G37*
G36*
G01*
X161299200Y-103945000D02*
X161299200Y-103295000D01*
G75*
G02*
X161350000Y-103244200I50800J0D01*
G01*
X162410000Y-103244200D01*
G75*
G02*
X162460800Y-103295000I0J-50800D01*
G01*
X162460800Y-103945000D01*
G75*
G02*
X162410000Y-103995800I-50800J0D01*
G01*
X161350000Y-103995800D01*
G75*
G02*
X161299200Y-103945000I0J50800D01*
G01*
G37*
G36*
G01*
X161299200Y-102995000D02*
X161299200Y-102345000D01*
G75*
G02*
X161350000Y-102294200I50800J0D01*
G01*
X162410000Y-102294200D01*
G75*
G02*
X162460800Y-102345000I0J-50800D01*
G01*
X162460800Y-102995000D01*
G75*
G02*
X162410000Y-103045800I-50800J0D01*
G01*
X161350000Y-103045800D01*
G75*
G02*
X161299200Y-102995000I0J50800D01*
G01*
G37*
G36*
G01*
X161299200Y-102045000D02*
X161299200Y-101395000D01*
G75*
G02*
X161350000Y-101344200I50800J0D01*
G01*
X162410000Y-101344200D01*
G75*
G02*
X162460800Y-101395000I0J-50800D01*
G01*
X162460800Y-102045000D01*
G75*
G02*
X162410000Y-102095800I-50800J0D01*
G01*
X161350000Y-102095800D01*
G75*
G02*
X161299200Y-102045000I0J50800D01*
G01*
G37*
G36*
G01*
X163499200Y-102045000D02*
X163499200Y-101395000D01*
G75*
G02*
X163550000Y-101344200I50800J0D01*
G01*
X164610000Y-101344200D01*
G75*
G02*
X164660800Y-101395000I0J-50800D01*
G01*
X164660800Y-102045000D01*
G75*
G02*
X164610000Y-102095800I-50800J0D01*
G01*
X163550000Y-102095800D01*
G75*
G02*
X163499200Y-102045000I0J50800D01*
G01*
G37*
G36*
G01*
X163499200Y-103945000D02*
X163499200Y-103295000D01*
G75*
G02*
X163550000Y-103244200I50800J0D01*
G01*
X164610000Y-103244200D01*
G75*
G02*
X164660800Y-103295000I0J-50800D01*
G01*
X164660800Y-103945000D01*
G75*
G02*
X164610000Y-103995800I-50800J0D01*
G01*
X163550000Y-103995800D01*
G75*
G02*
X163499200Y-103945000I0J50800D01*
G01*
G37*
G36*
G01*
X167000400Y-112075800D02*
X166399600Y-112075800D01*
G75*
G02*
X166174200Y-111850400I0J225400D01*
G01*
X166174200Y-111399600D01*
G75*
G02*
X166399600Y-111174200I225400J0D01*
G01*
X167000400Y-111174200D01*
G75*
G02*
X167225800Y-111399600I0J-225400D01*
G01*
X167225800Y-111850400D01*
G75*
G02*
X167000400Y-112075800I-225400J0D01*
G01*
G37*
G36*
G01*
X167000400Y-110425800D02*
X166399600Y-110425800D01*
G75*
G02*
X166174200Y-110200400I0J225400D01*
G01*
X166174200Y-109749600D01*
G75*
G02*
X166399600Y-109524200I225400J0D01*
G01*
X167000400Y-109524200D01*
G75*
G02*
X167225800Y-109749600I0J-225400D01*
G01*
X167225800Y-110200400D01*
G75*
G02*
X167000400Y-110425800I-225400J0D01*
G01*
G37*
G36*
G01*
X166399600Y-114174200D02*
X167000400Y-114174200D01*
G75*
G02*
X167225800Y-114399600I0J-225400D01*
G01*
X167225800Y-114850400D01*
G75*
G02*
X167000400Y-115075800I-225400J0D01*
G01*
X166399600Y-115075800D01*
G75*
G02*
X166174200Y-114850400I0J225400D01*
G01*
X166174200Y-114399600D01*
G75*
G02*
X166399600Y-114174200I225400J0D01*
G01*
G37*
G36*
G01*
X166399600Y-112524200D02*
X167000400Y-112524200D01*
G75*
G02*
X167225800Y-112749600I0J-225400D01*
G01*
X167225800Y-113200400D01*
G75*
G02*
X167000400Y-113425800I-225400J0D01*
G01*
X166399600Y-113425800D01*
G75*
G02*
X166174200Y-113200400I0J225400D01*
G01*
X166174200Y-112749600D01*
G75*
G02*
X166399600Y-112524200I225400J0D01*
G01*
G37*
G36*
G01*
X161924200Y-113200000D02*
X161924200Y-112900000D01*
G75*
G02*
X161975000Y-112849200I50800J0D01*
G01*
X162725000Y-112849200D01*
G75*
G02*
X162775800Y-112900000I0J-50800D01*
G01*
X162775800Y-113200000D01*
G75*
G02*
X162725000Y-113250800I-50800J0D01*
G01*
X161975000Y-113250800D01*
G75*
G02*
X161924200Y-113200000I0J50800D01*
G01*
G37*
G36*
G01*
X161924200Y-112700000D02*
X161924200Y-112400000D01*
G75*
G02*
X161975000Y-112349200I50800J0D01*
G01*
X162725000Y-112349200D01*
G75*
G02*
X162775800Y-112400000I0J-50800D01*
G01*
X162775800Y-112700000D01*
G75*
G02*
X162725000Y-112750800I-50800J0D01*
G01*
X161975000Y-112750800D01*
G75*
G02*
X161924200Y-112700000I0J50800D01*
G01*
G37*
G36*
G01*
X161924200Y-112200000D02*
X161924200Y-111900000D01*
G75*
G02*
X161975000Y-111849200I50800J0D01*
G01*
X162725000Y-111849200D01*
G75*
G02*
X162775800Y-111900000I0J-50800D01*
G01*
X162775800Y-112200000D01*
G75*
G02*
X162725000Y-112250800I-50800J0D01*
G01*
X161975000Y-112250800D01*
G75*
G02*
X161924200Y-112200000I0J50800D01*
G01*
G37*
G36*
G01*
X161924200Y-111700000D02*
X161924200Y-111400000D01*
G75*
G02*
X161975000Y-111349200I50800J0D01*
G01*
X162725000Y-111349200D01*
G75*
G02*
X162775800Y-111400000I0J-50800D01*
G01*
X162775800Y-111700000D01*
G75*
G02*
X162725000Y-111750800I-50800J0D01*
G01*
X161975000Y-111750800D01*
G75*
G02*
X161924200Y-111700000I0J50800D01*
G01*
G37*
G36*
G01*
X164824200Y-111700000D02*
X164824200Y-111400000D01*
G75*
G02*
X164875000Y-111349200I50800J0D01*
G01*
X165625000Y-111349200D01*
G75*
G02*
X165675800Y-111400000I0J-50800D01*
G01*
X165675800Y-111700000D01*
G75*
G02*
X165625000Y-111750800I-50800J0D01*
G01*
X164875000Y-111750800D01*
G75*
G02*
X164824200Y-111700000I0J50800D01*
G01*
G37*
G36*
G01*
X164824200Y-112200000D02*
X164824200Y-111900000D01*
G75*
G02*
X164875000Y-111849200I50800J0D01*
G01*
X165625000Y-111849200D01*
G75*
G02*
X165675800Y-111900000I0J-50800D01*
G01*
X165675800Y-112200000D01*
G75*
G02*
X165625000Y-112250800I-50800J0D01*
G01*
X164875000Y-112250800D01*
G75*
G02*
X164824200Y-112200000I0J50800D01*
G01*
G37*
G36*
G01*
X164824200Y-112700000D02*
X164824200Y-112400000D01*
G75*
G02*
X164875000Y-112349200I50800J0D01*
G01*
X165625000Y-112349200D01*
G75*
G02*
X165675800Y-112400000I0J-50800D01*
G01*
X165675800Y-112700000D01*
G75*
G02*
X165625000Y-112750800I-50800J0D01*
G01*
X164875000Y-112750800D01*
G75*
G02*
X164824200Y-112700000I0J50800D01*
G01*
G37*
G36*
G01*
X164824200Y-113200000D02*
X164824200Y-112900000D01*
G75*
G02*
X164875000Y-112849200I50800J0D01*
G01*
X165625000Y-112849200D01*
G75*
G02*
X165675800Y-112900000I0J-50800D01*
G01*
X165675800Y-113200000D01*
G75*
G02*
X165625000Y-113250800I-50800J0D01*
G01*
X164875000Y-113250800D01*
G75*
G02*
X164824200Y-113200000I0J50800D01*
G01*
G37*
G36*
G01*
X163099200Y-113050000D02*
X163099200Y-111550000D01*
G75*
G02*
X163150000Y-111499200I50800J0D01*
G01*
X164450000Y-111499200D01*
G75*
G02*
X164500800Y-111550000I0J-50800D01*
G01*
X164500800Y-113050000D01*
G75*
G02*
X164450000Y-113100800I-50800J0D01*
G01*
X163150000Y-113100800D01*
G75*
G02*
X163099200Y-113050000I0J50800D01*
G01*
G37*
G36*
G01*
X153197133Y-89160000D02*
X153197133Y-89960000D01*
G75*
G02*
X153146333Y-90010800I-50800J0D01*
G01*
X152346333Y-90010800D01*
G75*
G02*
X152295533Y-89960000I0J50800D01*
G01*
X152295533Y-89160000D01*
G75*
G02*
X152346333Y-89109200I50800J0D01*
G01*
X153146333Y-89109200D01*
G75*
G02*
X153197133Y-89160000I0J-50800D01*
G01*
G37*
G36*
G01*
X153977133Y-89160000D02*
X153977133Y-89960000D01*
G75*
G02*
X153926333Y-90010800I-50800J0D01*
G01*
X153526333Y-90010800D01*
G75*
G02*
X153475533Y-89960000I0J50800D01*
G01*
X153475533Y-89160000D01*
G75*
G02*
X153526333Y-89109200I50800J0D01*
G01*
X153926333Y-89109200D01*
G75*
G02*
X153977133Y-89160000I0J-50800D01*
G01*
G37*
G36*
G01*
X154957133Y-89160000D02*
X154957133Y-89960000D01*
G75*
G02*
X154906333Y-90010800I-50800J0D01*
G01*
X154306333Y-90010800D01*
G75*
G02*
X154255533Y-89960000I0J50800D01*
G01*
X154255533Y-89160000D01*
G75*
G02*
X154306333Y-89109200I50800J0D01*
G01*
X154906333Y-89109200D01*
G75*
G02*
X154957133Y-89160000I0J-50800D01*
G01*
G37*
G36*
G01*
X156157133Y-89160000D02*
X156157133Y-89960000D01*
G75*
G02*
X156106333Y-90010800I-50800J0D01*
G01*
X155356333Y-90010800D01*
G75*
G02*
X155305533Y-89960000I0J50800D01*
G01*
X155305533Y-89160000D01*
G75*
G02*
X155356333Y-89109200I50800J0D01*
G01*
X156106333Y-89109200D01*
G75*
G02*
X156157133Y-89160000I0J-50800D01*
G01*
G37*
G36*
G01*
X152295533Y-62640000D02*
X152295533Y-61840000D01*
G75*
G02*
X152346333Y-61789200I50800J0D01*
G01*
X153096333Y-61789200D01*
G75*
G02*
X153147133Y-61840000I0J-50800D01*
G01*
X153147133Y-62640000D01*
G75*
G02*
X153096333Y-62690800I-50800J0D01*
G01*
X152346333Y-62690800D01*
G75*
G02*
X152295533Y-62640000I0J50800D01*
G01*
G37*
G36*
G01*
X153495533Y-62640000D02*
X153495533Y-61840000D01*
G75*
G02*
X153546333Y-61789200I50800J0D01*
G01*
X154146333Y-61789200D01*
G75*
G02*
X154197133Y-61840000I0J-50800D01*
G01*
X154197133Y-62640000D01*
G75*
G02*
X154146333Y-62690800I-50800J0D01*
G01*
X153546333Y-62690800D01*
G75*
G02*
X153495533Y-62640000I0J50800D01*
G01*
G37*
G36*
G01*
X154475533Y-62640000D02*
X154475533Y-61840000D01*
G75*
G02*
X154526333Y-61789200I50800J0D01*
G01*
X154926333Y-61789200D01*
G75*
G02*
X154977133Y-61840000I0J-50800D01*
G01*
X154977133Y-62640000D01*
G75*
G02*
X154926333Y-62690800I-50800J0D01*
G01*
X154526333Y-62690800D01*
G75*
G02*
X154475533Y-62640000I0J50800D01*
G01*
G37*
G36*
G01*
X155255533Y-62640000D02*
X155255533Y-61840000D01*
G75*
G02*
X155306333Y-61789200I50800J0D01*
G01*
X156106333Y-61789200D01*
G75*
G02*
X156157133Y-61840000I0J-50800D01*
G01*
X156157133Y-62640000D01*
G75*
G02*
X156106333Y-62690800I-50800J0D01*
G01*
X155306333Y-62690800D01*
G75*
G02*
X155255533Y-62640000I0J50800D01*
G01*
G37*
M02*
