G04 #@! TF.GenerationSoftware,KiCad,Pcbnew,(5.1.8)-1*
G04 #@! TF.CreationDate,2021-05-02T00:16:01-04:00*
G04 #@! TF.ProjectId,CryptoRosette,43727970-746f-4526-9f73-657474652e6b,1*
G04 #@! TF.SameCoordinates,Original*
G04 #@! TF.FileFunction,Copper,L1,Top*
G04 #@! TF.FilePolarity,Positive*
%FSLAX46Y46*%
G04 Gerber Fmt 4.6, Leading zero omitted, Abs format (unit mm)*
G04 Created by KiCad (PCBNEW (5.1.8)-1) date 2021-05-02 00:16:01*
%MOMM*%
%LPD*%
G01*
G04 APERTURE LIST*
G04 #@! TA.AperFunction,EtchedComponent*
%ADD10C,0.010000*%
G04 #@! TD*
G04 #@! TA.AperFunction,SMDPad,CuDef*
%ADD11R,1.270000X12.065000*%
G04 #@! TD*
G04 #@! TA.AperFunction,SMDPad,CuDef*
%ADD12R,1.270000X12.700000*%
G04 #@! TD*
G04 #@! TA.AperFunction,ViaPad*
%ADD13C,0.685800*%
G04 #@! TD*
G04 #@! TA.AperFunction,Conductor*
%ADD14C,0.762000*%
G04 #@! TD*
G04 #@! TA.AperFunction,Conductor*
%ADD15C,0.508000*%
G04 #@! TD*
G04 #@! TA.AperFunction,Conductor*
%ADD16C,0.152400*%
G04 #@! TD*
G04 #@! TA.AperFunction,Conductor*
%ADD17C,0.254000*%
G04 #@! TD*
G04 APERTURE END LIST*
D10*
G36*
X177909895Y-41835796D02*
G01*
X177909996Y-42027646D01*
X177910199Y-42225461D01*
X177910496Y-42427372D01*
X177910883Y-42631508D01*
X177911353Y-42835997D01*
X177911899Y-43038968D01*
X177912515Y-43238551D01*
X177913195Y-43432874D01*
X177913934Y-43620066D01*
X177914723Y-43798256D01*
X177915558Y-43965574D01*
X177916432Y-44120148D01*
X177917339Y-44260107D01*
X177918272Y-44383580D01*
X177918504Y-44411074D01*
X177919598Y-44544126D01*
X177920549Y-44672497D01*
X177921354Y-44794857D01*
X177922008Y-44909873D01*
X177922506Y-45016216D01*
X177922846Y-45112553D01*
X177923022Y-45197553D01*
X177923031Y-45269886D01*
X177922868Y-45328221D01*
X177922529Y-45371225D01*
X177922010Y-45397569D01*
X177921599Y-45404935D01*
X177916498Y-45448647D01*
X177741305Y-45454570D01*
X177576345Y-45460262D01*
X177429551Y-45465574D01*
X177300276Y-45470532D01*
X177187874Y-45475164D01*
X177091700Y-45479497D01*
X177011109Y-45483558D01*
X176945454Y-45487373D01*
X176926407Y-45488620D01*
X176455958Y-45528683D01*
X175992835Y-45584581D01*
X175537446Y-45656182D01*
X175090200Y-45743355D01*
X174651504Y-45845970D01*
X174221766Y-45963896D01*
X173801393Y-46097001D01*
X173390794Y-46245156D01*
X172990376Y-46408229D01*
X172600547Y-46586090D01*
X172221715Y-46778608D01*
X171854287Y-46985652D01*
X171498672Y-47207091D01*
X171432481Y-47250776D01*
X171323670Y-47324899D01*
X171204820Y-47408784D01*
X171079806Y-47499531D01*
X170952504Y-47594237D01*
X170826791Y-47690004D01*
X170706542Y-47783929D01*
X170595634Y-47873112D01*
X170544517Y-47915333D01*
X170295684Y-48135185D01*
X170057354Y-48370506D01*
X169829624Y-48621087D01*
X169612590Y-48886723D01*
X169406349Y-49167207D01*
X169210997Y-49462333D01*
X169026630Y-49771893D01*
X168853346Y-50095681D01*
X168691241Y-50433490D01*
X168540410Y-50785115D01*
X168400951Y-51150347D01*
X168272960Y-51528980D01*
X168156533Y-51920808D01*
X168051767Y-52325625D01*
X167958758Y-52743222D01*
X167877603Y-53173395D01*
X167808398Y-53615935D01*
X167778280Y-53842000D01*
X167760231Y-53989334D01*
X167744318Y-54127935D01*
X167730304Y-54260850D01*
X167717952Y-54391127D01*
X167707024Y-54521812D01*
X167697284Y-54655955D01*
X167688494Y-54796601D01*
X167680416Y-54946800D01*
X167672815Y-55109598D01*
X167665452Y-55288043D01*
X167665163Y-55295444D01*
X167656069Y-55532610D01*
X167647382Y-55766962D01*
X167639090Y-55999210D01*
X167631182Y-56230067D01*
X167623649Y-56460244D01*
X167616479Y-56690454D01*
X167609662Y-56921408D01*
X167603186Y-57153818D01*
X167597043Y-57388396D01*
X167591219Y-57625853D01*
X167585706Y-57866903D01*
X167580491Y-58112255D01*
X167575566Y-58362623D01*
X167570918Y-58618718D01*
X167566537Y-58881251D01*
X167562412Y-59150936D01*
X167558533Y-59428483D01*
X167554890Y-59714604D01*
X167551470Y-60010011D01*
X167548264Y-60315417D01*
X167545261Y-60631532D01*
X167542450Y-60959069D01*
X167539820Y-61298739D01*
X167537362Y-61651255D01*
X167535063Y-62017328D01*
X167532914Y-62397669D01*
X167530903Y-62792992D01*
X167529020Y-63204007D01*
X167527255Y-63631427D01*
X167525596Y-64075963D01*
X167524033Y-64538327D01*
X167523453Y-64721667D01*
X167522642Y-64982896D01*
X167521804Y-65252273D01*
X167520945Y-65528302D01*
X167520069Y-65809492D01*
X167519181Y-66094347D01*
X167518285Y-66381375D01*
X167517387Y-66669081D01*
X167516491Y-66955972D01*
X167515601Y-67240555D01*
X167514722Y-67521335D01*
X167513860Y-67796819D01*
X167513018Y-68065513D01*
X167512201Y-68325924D01*
X167511414Y-68576558D01*
X167510662Y-68815922D01*
X167509949Y-69042520D01*
X167509280Y-69254861D01*
X167508660Y-69451450D01*
X167508093Y-69630793D01*
X167508066Y-69639389D01*
X167501881Y-71593778D01*
X174560444Y-71593778D01*
X174560444Y-72058064D01*
X174560322Y-72151947D01*
X174559973Y-72241838D01*
X174559420Y-72325632D01*
X174558689Y-72401228D01*
X174557803Y-72466523D01*
X174556787Y-72519415D01*
X174555664Y-72557799D01*
X174554461Y-72579575D01*
X174554400Y-72580176D01*
X174548357Y-72638000D01*
X167501848Y-72638000D01*
X167508056Y-72941389D01*
X167508626Y-72978796D01*
X167509182Y-73034056D01*
X167509722Y-73106207D01*
X167510243Y-73194288D01*
X167510743Y-73297336D01*
X167511220Y-73414390D01*
X167511672Y-73544488D01*
X167512095Y-73686668D01*
X167512488Y-73839968D01*
X167512848Y-74003427D01*
X167513174Y-74176082D01*
X167513462Y-74356973D01*
X167513711Y-74545136D01*
X167513918Y-74739611D01*
X167514080Y-74939435D01*
X167514196Y-75143647D01*
X167514263Y-75351284D01*
X167514280Y-75514315D01*
X167514296Y-77783852D01*
X176658296Y-77783852D01*
X176658296Y-78818667D01*
X167504889Y-78818667D01*
X167504889Y-83964494D01*
X174555741Y-83969222D01*
X174558580Y-84420778D01*
X174559031Y-84513866D01*
X174559210Y-84603366D01*
X174559130Y-84687076D01*
X174558805Y-84762793D01*
X174558248Y-84828316D01*
X174557472Y-84881442D01*
X174556490Y-84919968D01*
X174555425Y-84940537D01*
X174549432Y-85008741D01*
X167511336Y-85008741D01*
X167517497Y-90330981D01*
X167518173Y-90891170D01*
X167518883Y-91433387D01*
X167519627Y-91957603D01*
X167520405Y-92463788D01*
X167521217Y-92951912D01*
X167522063Y-93421947D01*
X167522942Y-93873863D01*
X167523854Y-94307630D01*
X167524800Y-94723219D01*
X167525779Y-95120601D01*
X167526791Y-95499745D01*
X167527836Y-95860623D01*
X167528914Y-96203204D01*
X167530025Y-96527460D01*
X167531168Y-96833361D01*
X167532344Y-97120877D01*
X167533552Y-97389979D01*
X167534793Y-97640638D01*
X167536066Y-97872824D01*
X167537370Y-98086507D01*
X167538707Y-98281658D01*
X167540076Y-98458248D01*
X167541477Y-98616246D01*
X167542909Y-98755624D01*
X167544372Y-98876353D01*
X167545867Y-98978401D01*
X167547394Y-99061741D01*
X167548951Y-99126343D01*
X167550540Y-99172176D01*
X167551492Y-99190407D01*
X167556305Y-99270533D01*
X167561681Y-99369370D01*
X167567622Y-99486929D01*
X167574128Y-99623223D01*
X167581199Y-99778264D01*
X167588836Y-99952066D01*
X167597040Y-100144639D01*
X167605811Y-100355996D01*
X167613117Y-100535667D01*
X167625001Y-100822615D01*
X167636822Y-101091886D01*
X167648673Y-101344618D01*
X167660649Y-101581948D01*
X167672843Y-101805013D01*
X167685349Y-102014951D01*
X167698260Y-102212900D01*
X167711671Y-102399996D01*
X167725675Y-102577377D01*
X167740366Y-102746181D01*
X167755838Y-102907545D01*
X167772184Y-103062606D01*
X167789499Y-103212502D01*
X167807875Y-103358370D01*
X167827407Y-103501347D01*
X167848189Y-103642571D01*
X167870314Y-103783180D01*
X167891125Y-103908222D01*
X167963150Y-104292414D01*
X168045657Y-104661573D01*
X168138611Y-105015608D01*
X168241980Y-105354431D01*
X168355731Y-105677951D01*
X168479830Y-105986079D01*
X168614244Y-106278723D01*
X168758940Y-106555795D01*
X168913886Y-106817205D01*
X169027272Y-106989148D01*
X169252116Y-107298964D01*
X169492315Y-107597981D01*
X169747757Y-107886115D01*
X170018332Y-108163280D01*
X170303928Y-108429392D01*
X170604433Y-108684366D01*
X170919736Y-108928117D01*
X171249726Y-109160559D01*
X171594291Y-109381609D01*
X171953320Y-109591181D01*
X172326701Y-109789190D01*
X172714322Y-109975552D01*
X173116074Y-110150181D01*
X173243199Y-110201813D01*
X173651728Y-110356076D01*
X174072875Y-110497596D01*
X174505104Y-110626025D01*
X174946880Y-110741017D01*
X175396664Y-110842222D01*
X175852922Y-110929294D01*
X176314116Y-111001884D01*
X176778710Y-111059645D01*
X177208630Y-111099451D01*
X177269446Y-111103997D01*
X177343897Y-111109316D01*
X177426839Y-111115054D01*
X177513125Y-111120859D01*
X177597610Y-111126379D01*
X177648426Y-111129603D01*
X177909481Y-111145936D01*
X177909481Y-116391852D01*
X130552592Y-116391852D01*
X130552360Y-114338685D01*
X130552294Y-114135605D01*
X130552143Y-113933180D01*
X130551912Y-113732569D01*
X130551605Y-113534929D01*
X130551226Y-113341418D01*
X130550780Y-113153193D01*
X130550271Y-112971412D01*
X130549702Y-112797233D01*
X130549080Y-112631813D01*
X130548407Y-112476310D01*
X130547688Y-112331881D01*
X130546927Y-112199685D01*
X130546226Y-112095330D01*
X131518526Y-112095330D01*
X131524733Y-112524387D01*
X131525535Y-112589811D01*
X131526307Y-112672331D01*
X131527042Y-112770231D01*
X131527734Y-112881792D01*
X131528377Y-113005297D01*
X131528963Y-113139028D01*
X131529487Y-113281268D01*
X131529941Y-113430298D01*
X131530320Y-113584400D01*
X131530615Y-113741858D01*
X131530822Y-113900953D01*
X131530934Y-114059967D01*
X131530952Y-114150537D01*
X131530963Y-115347630D01*
X176931111Y-115347630D01*
X176931111Y-113719853D01*
X176931087Y-113507236D01*
X176931010Y-113312730D01*
X176930876Y-113135632D01*
X176930679Y-112975236D01*
X176930415Y-112830840D01*
X176930078Y-112701740D01*
X176929664Y-112587231D01*
X176929167Y-112486610D01*
X176928582Y-112399174D01*
X176927904Y-112324217D01*
X176927128Y-112261037D01*
X176926249Y-112208929D01*
X176925262Y-112167190D01*
X176924162Y-112135116D01*
X176922943Y-112112003D01*
X176921601Y-112097147D01*
X176920131Y-112089845D01*
X176919352Y-112088807D01*
X176906892Y-112086960D01*
X176878577Y-112083614D01*
X176837279Y-112079081D01*
X176785871Y-112073673D01*
X176727224Y-112067702D01*
X176700630Y-112065052D01*
X176405055Y-112032151D01*
X176101026Y-111991337D01*
X175791444Y-111943216D01*
X175479215Y-111888394D01*
X175167240Y-111827475D01*
X174858424Y-111761066D01*
X174555670Y-111689772D01*
X174261881Y-111614197D01*
X173979961Y-111534949D01*
X173712813Y-111452631D01*
X173624407Y-111423565D01*
X173469936Y-111371583D01*
X173330883Y-111324073D01*
X173204657Y-111280067D01*
X173088665Y-111238599D01*
X172980314Y-111198702D01*
X172877012Y-111159410D01*
X172776165Y-111119756D01*
X172675182Y-111078773D01*
X172571469Y-111035494D01*
X172486111Y-110999135D01*
X172299120Y-110916557D01*
X172105583Y-110826764D01*
X171910869Y-110732390D01*
X171720345Y-110636070D01*
X171539380Y-110540439D01*
X171437185Y-110484243D01*
X171373283Y-110447725D01*
X171296792Y-110402712D01*
X171210797Y-110351111D01*
X171118385Y-110294836D01*
X171022639Y-110235795D01*
X170926646Y-110175900D01*
X170833491Y-110117061D01*
X170746260Y-110061188D01*
X170668037Y-110010193D01*
X170619745Y-109978053D01*
X170328121Y-109773150D01*
X170044007Y-109556288D01*
X169768366Y-109328536D01*
X169502156Y-109090962D01*
X169246339Y-108844635D01*
X169001874Y-108590621D01*
X168769724Y-108329990D01*
X168550846Y-108063809D01*
X168346204Y-107793148D01*
X168156756Y-107519073D01*
X167983463Y-107242653D01*
X167827286Y-106964956D01*
X167720750Y-106753963D01*
X167566682Y-106414053D01*
X167425697Y-106063665D01*
X167297622Y-105702197D01*
X167182279Y-105329043D01*
X167079493Y-104943603D01*
X166989088Y-104545272D01*
X166910887Y-104133446D01*
X166856526Y-103790630D01*
X166835687Y-103642732D01*
X166816174Y-103494740D01*
X166797899Y-103345427D01*
X166780774Y-103193564D01*
X166764708Y-103037925D01*
X166749615Y-102877281D01*
X166735405Y-102710404D01*
X166721989Y-102536068D01*
X166709280Y-102353044D01*
X166697188Y-102160106D01*
X166685626Y-101956024D01*
X166674503Y-101739572D01*
X166663732Y-101509522D01*
X166653225Y-101264647D01*
X166642891Y-101003718D01*
X166632644Y-100725509D01*
X166630091Y-100653259D01*
X166623262Y-100461498D01*
X166616583Y-100279731D01*
X166610093Y-100108922D01*
X166603833Y-99950038D01*
X166597844Y-99804043D01*
X166592166Y-99671904D01*
X166586840Y-99554586D01*
X166581906Y-99453054D01*
X166577406Y-99368274D01*
X166573379Y-99301212D01*
X166572895Y-99293889D01*
X166571568Y-99267191D01*
X166570262Y-99226990D01*
X166568976Y-99173124D01*
X166567709Y-99105430D01*
X166566462Y-99023745D01*
X166565233Y-98927907D01*
X166564021Y-98817752D01*
X166562826Y-98693118D01*
X166561648Y-98553843D01*
X166560485Y-98399762D01*
X166559338Y-98230714D01*
X166558204Y-98046536D01*
X166557085Y-97847065D01*
X166555978Y-97632139D01*
X166554884Y-97401593D01*
X166553802Y-97155267D01*
X166552731Y-96892997D01*
X166551671Y-96614619D01*
X166550620Y-96319973D01*
X166549578Y-96008894D01*
X166548545Y-95681219D01*
X166547520Y-95336787D01*
X166546502Y-94975435D01*
X166545490Y-94596999D01*
X166544485Y-94201317D01*
X166543485Y-93788226D01*
X166542489Y-93357563D01*
X166541498Y-92909166D01*
X166540509Y-92442871D01*
X166539524Y-91958517D01*
X166538540Y-91455940D01*
X166537558Y-90934978D01*
X166536577Y-90395467D01*
X166535951Y-90041704D01*
X166535366Y-89708496D01*
X166534782Y-89379096D01*
X166534202Y-89054043D01*
X166533626Y-88733878D01*
X166533056Y-88419140D01*
X166532492Y-88110369D01*
X166531935Y-87808104D01*
X166531387Y-87512886D01*
X166530848Y-87225254D01*
X166530321Y-86945748D01*
X166529805Y-86674907D01*
X166529301Y-86413272D01*
X166528812Y-86161382D01*
X166528338Y-85919778D01*
X166527879Y-85688997D01*
X166527438Y-85469582D01*
X166527015Y-85262070D01*
X166526611Y-85067003D01*
X166526228Y-84884919D01*
X166525865Y-84716359D01*
X166525526Y-84561862D01*
X166525210Y-84421968D01*
X166524918Y-84297217D01*
X166524652Y-84188148D01*
X166524413Y-84095302D01*
X166524202Y-84019217D01*
X166524020Y-83960435D01*
X166523867Y-83919494D01*
X166523767Y-83899898D01*
X166521815Y-83604797D01*
X166452227Y-83768195D01*
X166248482Y-84222672D01*
X166028105Y-84668553D01*
X165791419Y-85105398D01*
X165538745Y-85532769D01*
X165270407Y-85950225D01*
X164986726Y-86357329D01*
X164688025Y-86753640D01*
X164374627Y-87138720D01*
X164046854Y-87512128D01*
X163705029Y-87873427D01*
X163349473Y-88222177D01*
X162980510Y-88557938D01*
X162857630Y-88664305D01*
X162473711Y-88980254D01*
X162079064Y-89280901D01*
X161674177Y-89566025D01*
X161259538Y-89835406D01*
X160835634Y-90088822D01*
X160402955Y-90326052D01*
X159961987Y-90546875D01*
X159513219Y-90751069D01*
X159057138Y-90938413D01*
X158594233Y-91108687D01*
X158124990Y-91261668D01*
X157649899Y-91397136D01*
X157169447Y-91514870D01*
X156684123Y-91614648D01*
X156194413Y-91696249D01*
X156158562Y-91701480D01*
X155952992Y-91729565D01*
X155746412Y-91754440D01*
X155534762Y-91776518D01*
X155313985Y-91796208D01*
X155080021Y-91813924D01*
X154988333Y-91820124D01*
X154918208Y-91823919D01*
X154832184Y-91827260D01*
X154733171Y-91830124D01*
X154624080Y-91832490D01*
X154507822Y-91834335D01*
X154387307Y-91835638D01*
X154265446Y-91836374D01*
X154145150Y-91836524D01*
X154029329Y-91836063D01*
X153920893Y-91834971D01*
X153822755Y-91833224D01*
X153737823Y-91830801D01*
X153713630Y-91829867D01*
X153269428Y-91805027D01*
X152836753Y-91767765D01*
X152412632Y-91717646D01*
X151994092Y-91654239D01*
X151578161Y-91577111D01*
X151161867Y-91485829D01*
X150891407Y-91419148D01*
X150414505Y-91286900D01*
X149943741Y-91137002D01*
X149479587Y-90969744D01*
X149022514Y-90785415D01*
X148572993Y-90584307D01*
X148131494Y-90366710D01*
X147698489Y-90132913D01*
X147274449Y-89883207D01*
X146859844Y-89617882D01*
X146455145Y-89337229D01*
X146060824Y-89041538D01*
X145677352Y-88731099D01*
X145305198Y-88406202D01*
X144944836Y-88067138D01*
X144596734Y-87714197D01*
X144261365Y-87347669D01*
X144233129Y-87315518D01*
X143910110Y-86932289D01*
X143602400Y-86538130D01*
X143310098Y-86133192D01*
X143033304Y-85717621D01*
X142772120Y-85291568D01*
X142526645Y-84855180D01*
X142364656Y-84544516D01*
X142305648Y-84426522D01*
X142250489Y-84313645D01*
X142197726Y-84202687D01*
X142145906Y-84090448D01*
X142093575Y-83973727D01*
X142039282Y-83849326D01*
X141981573Y-83714045D01*
X141918995Y-83564685D01*
X141911184Y-83545889D01*
X141879929Y-83470630D01*
X141879530Y-85921259D01*
X141879340Y-86478576D01*
X141878957Y-87030694D01*
X141878382Y-87577095D01*
X141877618Y-88117263D01*
X141876669Y-88650680D01*
X141875537Y-89176831D01*
X141874226Y-89695197D01*
X141872737Y-90205262D01*
X141871075Y-90706510D01*
X141869241Y-91198422D01*
X141867240Y-91680483D01*
X141865073Y-92152175D01*
X141862743Y-92612981D01*
X141860254Y-93062384D01*
X141857609Y-93499868D01*
X141854810Y-93924915D01*
X141851861Y-94337009D01*
X141848763Y-94735632D01*
X141845521Y-95120268D01*
X141842136Y-95490400D01*
X141838613Y-95845510D01*
X141834953Y-96185082D01*
X141831160Y-96508599D01*
X141827236Y-96815544D01*
X141823185Y-97105400D01*
X141819010Y-97377651D01*
X141814713Y-97631778D01*
X141813234Y-97713444D01*
X141808691Y-97950999D01*
X141803761Y-98192109D01*
X141798478Y-98435767D01*
X141792872Y-98680963D01*
X141786976Y-98926690D01*
X141780823Y-99171939D01*
X141774444Y-99415702D01*
X141767871Y-99656971D01*
X141761137Y-99894738D01*
X141754274Y-100127993D01*
X141747314Y-100355730D01*
X141740289Y-100576939D01*
X141733231Y-100790612D01*
X141726172Y-100995741D01*
X141719145Y-101191318D01*
X141712181Y-101376334D01*
X141705313Y-101549781D01*
X141698573Y-101710651D01*
X141691993Y-101857936D01*
X141685605Y-101990626D01*
X141679442Y-102107715D01*
X141673534Y-102208193D01*
X141667916Y-102291052D01*
X141666919Y-102304259D01*
X141622742Y-102788538D01*
X141565577Y-103261838D01*
X141495513Y-103723874D01*
X141412635Y-104174363D01*
X141317029Y-104613019D01*
X141208784Y-105039558D01*
X141087986Y-105453697D01*
X140954721Y-105855151D01*
X140809075Y-106243635D01*
X140651137Y-106618865D01*
X140480992Y-106980558D01*
X140298728Y-107328428D01*
X140104430Y-107662191D01*
X139965841Y-107880397D01*
X139755152Y-108185328D01*
X139533977Y-108475112D01*
X139301262Y-108750883D01*
X139055950Y-109013777D01*
X138796988Y-109264928D01*
X138523320Y-109505469D01*
X138252555Y-109722277D01*
X138068578Y-109861787D01*
X137895996Y-109989537D01*
X137732721Y-110106894D01*
X137576668Y-110215221D01*
X137425749Y-110315885D01*
X137277877Y-110410249D01*
X137130965Y-110499679D01*
X136982926Y-110585539D01*
X136831674Y-110669194D01*
X136689392Y-110744602D01*
X136311853Y-110932038D01*
X135927279Y-111105243D01*
X135535013Y-111264393D01*
X135134394Y-111409661D01*
X134724763Y-111541222D01*
X134305461Y-111659250D01*
X133875829Y-111763921D01*
X133435207Y-111855407D01*
X132982937Y-111933884D01*
X132518359Y-111999526D01*
X132040813Y-112052507D01*
X131607059Y-112088960D01*
X131518526Y-112095330D01*
X130546226Y-112095330D01*
X130546128Y-112080878D01*
X130545297Y-111976618D01*
X130544436Y-111888063D01*
X130543551Y-111816371D01*
X130542931Y-111777518D01*
X130541279Y-111679318D01*
X130539937Y-111585070D01*
X130538915Y-111496777D01*
X130538227Y-111416440D01*
X130537884Y-111346061D01*
X130537898Y-111287640D01*
X130538281Y-111243181D01*
X130539046Y-111214683D01*
X130539488Y-111207915D01*
X130545242Y-111146312D01*
X130913454Y-111134761D01*
X131002477Y-111131845D01*
X131092090Y-111128682D01*
X131179023Y-111125405D01*
X131260006Y-111122145D01*
X131331770Y-111119032D01*
X131391045Y-111116199D01*
X131432185Y-111113924D01*
X131904151Y-111076901D01*
X132368048Y-111024625D01*
X132823504Y-110957218D01*
X133270148Y-110874800D01*
X133707607Y-110777494D01*
X134135509Y-110665420D01*
X134553483Y-110538699D01*
X134961156Y-110397454D01*
X135358158Y-110241804D01*
X135744115Y-110071872D01*
X136118656Y-109887779D01*
X136481409Y-109689646D01*
X136832002Y-109477594D01*
X137170064Y-109251745D01*
X137194222Y-109234735D01*
X137260442Y-109187159D01*
X137337961Y-109130147D01*
X137423516Y-109066177D01*
X137513845Y-108997729D01*
X137605685Y-108927280D01*
X137695773Y-108857309D01*
X137780845Y-108790294D01*
X137811340Y-108765991D01*
X138065165Y-108550942D01*
X138308083Y-108320630D01*
X138540027Y-108075172D01*
X138760927Y-107814684D01*
X138970716Y-107539283D01*
X139169326Y-107249085D01*
X139356687Y-106944207D01*
X139532732Y-106624765D01*
X139697393Y-106290876D01*
X139850602Y-105942656D01*
X139992289Y-105580223D01*
X140122388Y-105203691D01*
X140240829Y-104813179D01*
X140336409Y-104453852D01*
X140425100Y-104072222D01*
X140502842Y-103682554D01*
X140569960Y-103282884D01*
X140626778Y-102871249D01*
X140673624Y-102445687D01*
X140679712Y-102381589D01*
X140687023Y-102294649D01*
X140694484Y-102189681D01*
X140702069Y-102067468D01*
X140709755Y-101928797D01*
X140717519Y-101774453D01*
X140725338Y-101605220D01*
X140733188Y-101421884D01*
X140741045Y-101225230D01*
X140748887Y-101016042D01*
X140756689Y-100795107D01*
X140764428Y-100563209D01*
X140772081Y-100321134D01*
X140779624Y-100069665D01*
X140787034Y-99809590D01*
X140794287Y-99541692D01*
X140801360Y-99266757D01*
X140808229Y-98985570D01*
X140814871Y-98698917D01*
X140821263Y-98407581D01*
X140827381Y-98112349D01*
X140833201Y-97814005D01*
X140838700Y-97513335D01*
X140843855Y-97211124D01*
X140848642Y-96908157D01*
X140853038Y-96605218D01*
X140853645Y-96561037D01*
X140855872Y-96388616D01*
X140858094Y-96198286D01*
X140860305Y-95990949D01*
X140862502Y-95767513D01*
X140864681Y-95528880D01*
X140866837Y-95275956D01*
X140868966Y-95009646D01*
X140871064Y-94730854D01*
X140873125Y-94440486D01*
X140875147Y-94139445D01*
X140877124Y-93828636D01*
X140879053Y-93508965D01*
X140880928Y-93181336D01*
X140882747Y-92846653D01*
X140884503Y-92505822D01*
X140886194Y-92159747D01*
X140887814Y-91809334D01*
X140889360Y-91455485D01*
X140890827Y-91099107D01*
X140892210Y-90741105D01*
X140893506Y-90382382D01*
X140894710Y-90023844D01*
X140895818Y-89666395D01*
X140896825Y-89310940D01*
X140897728Y-88958384D01*
X140898521Y-88609631D01*
X140899201Y-88265587D01*
X140899763Y-87927156D01*
X140900203Y-87595242D01*
X140900517Y-87270751D01*
X140900700Y-86954587D01*
X140900749Y-86690315D01*
X140900741Y-85008741D01*
X133901630Y-85008741D01*
X133901630Y-84544454D01*
X133901751Y-84450571D01*
X133902101Y-84360681D01*
X133902653Y-84276886D01*
X133903385Y-84201290D01*
X133904271Y-84135995D01*
X133905287Y-84083104D01*
X133906409Y-84044719D01*
X133907613Y-84022944D01*
X133907673Y-84022343D01*
X133913717Y-83964518D01*
X140900741Y-83964518D01*
X140900741Y-78818667D01*
X131803778Y-78818667D01*
X131803778Y-77783852D01*
X140900741Y-77783852D01*
X140900741Y-72638025D01*
X137403537Y-72635661D01*
X133906333Y-72633296D01*
X133903494Y-72181741D01*
X133903186Y-72117971D01*
X143294935Y-72117971D01*
X143295672Y-72230727D01*
X143297178Y-72341465D01*
X143299439Y-72447211D01*
X143302445Y-72544991D01*
X143306183Y-72631832D01*
X143310640Y-72704761D01*
X143312048Y-72722667D01*
X143344964Y-73055298D01*
X143387397Y-73375213D01*
X143440170Y-73686169D01*
X143504102Y-73991923D01*
X143580014Y-74296231D01*
X143668727Y-74602848D01*
X143771063Y-74915533D01*
X143823902Y-75065111D01*
X143869964Y-75193186D01*
X143909805Y-75305541D01*
X143943856Y-75404059D01*
X143972544Y-75490621D01*
X143996300Y-75567109D01*
X144015551Y-75635404D01*
X144030727Y-75697388D01*
X144042258Y-75754943D01*
X144050571Y-75809950D01*
X144056097Y-75864291D01*
X144059263Y-75919848D01*
X144060500Y-75978502D01*
X144060236Y-76042134D01*
X144059245Y-76097287D01*
X144057472Y-76164032D01*
X144054977Y-76223107D01*
X144051320Y-76277466D01*
X144046060Y-76330063D01*
X144038755Y-76383851D01*
X144028966Y-76441783D01*
X144016252Y-76506813D01*
X144000171Y-76581894D01*
X143980284Y-76669981D01*
X143961980Y-76749037D01*
X143913484Y-76959340D01*
X143869890Y-77153335D01*
X143830892Y-77332792D01*
X143796186Y-77499482D01*
X143765465Y-77655177D01*
X143738424Y-77801646D01*
X143714758Y-77940662D01*
X143694161Y-78073995D01*
X143676327Y-78203417D01*
X143660952Y-78330698D01*
X143647729Y-78457609D01*
X143636354Y-78585921D01*
X143629324Y-78677556D01*
X143619541Y-78837849D01*
X143612316Y-79009700D01*
X143607639Y-79189387D01*
X143605500Y-79373184D01*
X143605886Y-79557368D01*
X143608789Y-79738216D01*
X143614197Y-79912004D01*
X143622099Y-80075008D01*
X143632484Y-80223504D01*
X143633812Y-80239185D01*
X143664445Y-80528847D01*
X143704970Y-80802513D01*
X143755389Y-81060196D01*
X143815709Y-81301909D01*
X143885933Y-81527665D01*
X143966066Y-81737475D01*
X144056112Y-81931353D01*
X144156076Y-82109311D01*
X144265963Y-82271363D01*
X144385777Y-82417519D01*
X144432591Y-82467537D01*
X144561791Y-82588771D01*
X144698447Y-82693611D01*
X144843419Y-82782464D01*
X144997566Y-82855737D01*
X145161745Y-82913835D01*
X145336815Y-82957166D01*
X145523634Y-82986135D01*
X145529185Y-82986760D01*
X145583871Y-82991253D01*
X145653245Y-82994495D01*
X145733221Y-82996488D01*
X145819714Y-82997233D01*
X145908637Y-82996731D01*
X145995907Y-82994983D01*
X146077436Y-82991991D01*
X146149140Y-82987755D01*
X146164185Y-82986574D01*
X146195776Y-82983853D01*
X146228190Y-82980825D01*
X146263178Y-82977280D01*
X146302490Y-82973008D01*
X146347878Y-82967800D01*
X146401092Y-82961445D01*
X146463883Y-82953735D01*
X146538003Y-82944459D01*
X146625201Y-82933408D01*
X146727229Y-82920372D01*
X146845838Y-82905141D01*
X146869741Y-82902066D01*
X147005217Y-82886025D01*
X147127944Y-82874617D01*
X147243306Y-82867461D01*
X147356685Y-82864172D01*
X147406846Y-82863852D01*
X147558889Y-82867542D01*
X147696762Y-82879049D01*
X147823694Y-82899027D01*
X147942914Y-82928131D01*
X148057650Y-82967015D01*
X148171131Y-83016335D01*
X148179947Y-83020603D01*
X148233003Y-83047708D01*
X148274815Y-83072645D01*
X148311785Y-83099775D01*
X148350314Y-83133460D01*
X148362833Y-83145211D01*
X148439660Y-83218121D01*
X148422715Y-83271994D01*
X148414463Y-83301291D01*
X148410223Y-83322728D01*
X148410556Y-83330655D01*
X148415813Y-83325285D01*
X148424394Y-83306422D01*
X148431650Y-83286344D01*
X148447957Y-83237246D01*
X148470195Y-83273975D01*
X148504563Y-83346442D01*
X148529154Y-83433068D01*
X148543719Y-83531789D01*
X148548010Y-83640541D01*
X148541779Y-83757259D01*
X148535184Y-83814000D01*
X148527708Y-83869005D01*
X148519111Y-83932185D01*
X148510817Y-83993072D01*
X148507655Y-84016259D01*
X148503454Y-84047346D01*
X148497119Y-84094620D01*
X148488977Y-84155616D01*
X148479357Y-84227870D01*
X148468587Y-84308915D01*
X148456995Y-84396287D01*
X148444909Y-84487520D01*
X148436314Y-84552481D01*
X148413296Y-84725603D01*
X148392178Y-84882085D01*
X148372618Y-85023968D01*
X148354271Y-85153291D01*
X148336793Y-85272096D01*
X148319840Y-85382423D01*
X148303069Y-85486313D01*
X148286135Y-85585805D01*
X148268694Y-85682941D01*
X148250403Y-85779761D01*
X148230917Y-85878305D01*
X148209893Y-85980614D01*
X148186987Y-86088728D01*
X148161855Y-86204688D01*
X148144557Y-86283444D01*
X148109936Y-86442921D01*
X148080232Y-86585825D01*
X148055355Y-86713720D01*
X148035218Y-86828171D01*
X148019730Y-86930740D01*
X148008801Y-87022993D01*
X148002343Y-87106492D01*
X148000266Y-87182802D01*
X148002481Y-87253486D01*
X148008897Y-87320108D01*
X148019426Y-87384232D01*
X148033978Y-87447423D01*
X148052465Y-87511243D01*
X148071158Y-87567022D01*
X148127140Y-87699427D01*
X148198968Y-87823752D01*
X148286851Y-87940166D01*
X148390998Y-88048837D01*
X148511617Y-88149934D01*
X148648918Y-88243626D01*
X148803110Y-88330081D01*
X148974401Y-88409467D01*
X149162999Y-88481953D01*
X149235704Y-88506565D01*
X149362125Y-88546211D01*
X149489693Y-88582968D01*
X149614234Y-88615756D01*
X149731574Y-88643499D01*
X149837539Y-88665118D01*
X149875407Y-88671745D01*
X149940209Y-88681373D01*
X150012643Y-88690011D01*
X150094135Y-88697745D01*
X150186111Y-88704661D01*
X150289997Y-88710846D01*
X150407219Y-88716385D01*
X150539203Y-88721367D01*
X150687373Y-88725876D01*
X150825555Y-88729366D01*
X151002414Y-88733543D01*
X151161866Y-88737455D01*
X151305315Y-88741178D01*
X151434166Y-88744786D01*
X151549824Y-88748356D01*
X151653694Y-88751962D01*
X151747181Y-88755680D01*
X151831688Y-88759584D01*
X151908620Y-88763751D01*
X151979383Y-88768255D01*
X152045381Y-88773171D01*
X152108018Y-88778576D01*
X152168700Y-88784544D01*
X152228830Y-88791150D01*
X152289814Y-88798470D01*
X152353056Y-88806579D01*
X152410704Y-88814292D01*
X152472943Y-88822570D01*
X152530350Y-88829734D01*
X152584976Y-88835898D01*
X152638874Y-88841172D01*
X152694094Y-88845668D01*
X152752690Y-88849496D01*
X152816714Y-88852770D01*
X152888216Y-88855599D01*
X152969251Y-88858095D01*
X153061869Y-88860371D01*
X153168122Y-88862536D01*
X153290063Y-88864703D01*
X153360852Y-88865876D01*
X153526409Y-88868757D01*
X153674663Y-88871754D01*
X153807123Y-88874925D01*
X153925300Y-88878333D01*
X154030704Y-88882036D01*
X154124847Y-88886095D01*
X154209239Y-88890571D01*
X154285391Y-88895523D01*
X154354812Y-88901011D01*
X154419015Y-88907097D01*
X154433632Y-88908633D01*
X154496325Y-88914965D01*
X154566477Y-88921440D01*
X154635052Y-88927254D01*
X154687632Y-88931234D01*
X154746693Y-88934157D01*
X154821017Y-88935991D01*
X154907086Y-88936792D01*
X155001380Y-88936615D01*
X155100383Y-88935512D01*
X155200576Y-88933541D01*
X155298442Y-88930754D01*
X155390462Y-88927207D01*
X155473119Y-88922955D01*
X155542894Y-88918052D01*
X155544537Y-88917913D01*
X155599314Y-88913012D01*
X155668467Y-88906413D01*
X155747681Y-88898553D01*
X155832636Y-88889868D01*
X155919018Y-88880792D01*
X156002507Y-88871761D01*
X156010203Y-88870914D01*
X156142959Y-88856499D01*
X156267192Y-88843539D01*
X156386506Y-88831715D01*
X156504508Y-88820707D01*
X156624802Y-88810196D01*
X156750994Y-88799862D01*
X156886690Y-88789386D01*
X157035494Y-88778447D01*
X157128518Y-88771816D01*
X157274158Y-88761442D01*
X157403078Y-88752055D01*
X157517339Y-88743485D01*
X157619002Y-88735560D01*
X157710127Y-88728110D01*
X157792774Y-88720964D01*
X157869003Y-88713951D01*
X157940874Y-88706901D01*
X158010448Y-88699642D01*
X158045741Y-88695802D01*
X158291977Y-88664006D01*
X158521440Y-88624673D01*
X158734676Y-88577619D01*
X158932231Y-88522659D01*
X159114651Y-88459609D01*
X159282482Y-88388284D01*
X159436271Y-88308500D01*
X159576562Y-88220072D01*
X159678432Y-88143799D01*
X159787567Y-88046365D01*
X159888735Y-87937647D01*
X159978993Y-87821318D01*
X160055395Y-87701049D01*
X160095950Y-87623098D01*
X160117313Y-87576919D01*
X160134056Y-87536889D01*
X160146682Y-87499783D01*
X160155693Y-87462378D01*
X160161591Y-87421448D01*
X160164879Y-87373769D01*
X160166060Y-87316116D01*
X160165636Y-87245264D01*
X160164590Y-87182690D01*
X160163273Y-87115681D01*
X160161740Y-87059664D01*
X160159441Y-87011713D01*
X160155824Y-86968903D01*
X160150338Y-86928307D01*
X160142434Y-86887000D01*
X160131558Y-86842056D01*
X160117162Y-86790548D01*
X160098693Y-86729550D01*
X160075601Y-86656138D01*
X160050750Y-86578100D01*
X160014195Y-86462468D01*
X159981502Y-86356604D01*
X159952197Y-86258338D01*
X159925808Y-86165498D01*
X159901860Y-86075914D01*
X159879881Y-85987413D01*
X159859397Y-85897825D01*
X159839934Y-85804978D01*
X159821020Y-85706701D01*
X159802180Y-85600823D01*
X159782942Y-85485173D01*
X159762831Y-85357580D01*
X159741375Y-85215872D01*
X159718100Y-85057877D01*
X159715716Y-85041518D01*
X159700830Y-84939913D01*
X159684446Y-84829104D01*
X159667279Y-84713865D01*
X159650044Y-84598969D01*
X159633457Y-84489188D01*
X159618233Y-84389295D01*
X159607143Y-84317296D01*
X159588029Y-84193361D01*
X159571791Y-84086410D01*
X159558251Y-83994863D01*
X159547232Y-83917139D01*
X159538555Y-83851657D01*
X159532044Y-83796837D01*
X159527520Y-83751098D01*
X159524806Y-83712859D01*
X159523724Y-83680540D01*
X159524097Y-83652559D01*
X159525746Y-83627336D01*
X159527626Y-83609980D01*
X159539734Y-83552456D01*
X159590048Y-83552456D01*
X159594287Y-83554575D01*
X159604125Y-83544523D01*
X159612354Y-83531254D01*
X159616898Y-83517071D01*
X159613915Y-83512963D01*
X159604463Y-83520572D01*
X159594698Y-83537081D01*
X159590048Y-83552456D01*
X159539734Y-83552456D01*
X159549247Y-83507265D01*
X159571874Y-83451236D01*
X159616787Y-83451236D01*
X159623843Y-83448961D01*
X159626925Y-83446497D01*
X159638475Y-83430185D01*
X159640296Y-83421885D01*
X159636728Y-83412576D01*
X159628775Y-83416951D01*
X159620569Y-83431919D01*
X159618653Y-83438095D01*
X159616787Y-83451236D01*
X159571874Y-83451236D01*
X159587255Y-83413151D01*
X159641246Y-83327749D01*
X159710816Y-83251167D01*
X159795562Y-83183517D01*
X159895080Y-83124908D01*
X160008967Y-83075450D01*
X160136820Y-83035253D01*
X160278235Y-83004429D01*
X160432808Y-82983085D01*
X160600135Y-82971333D01*
X160779815Y-82969283D01*
X160971442Y-82977044D01*
X161174614Y-82994727D01*
X161388926Y-83022442D01*
X161571502Y-83052516D01*
X161722255Y-83079061D01*
X161856945Y-83101494D01*
X161977812Y-83120076D01*
X162087092Y-83135068D01*
X162187024Y-83146733D01*
X162279845Y-83155331D01*
X162367793Y-83161125D01*
X162453105Y-83164377D01*
X162536585Y-83165348D01*
X162711233Y-83159409D01*
X162873861Y-83141374D01*
X163027379Y-83110599D01*
X163174695Y-83066443D01*
X163318715Y-83008264D01*
X163379741Y-82979082D01*
X163531224Y-82892939D01*
X163674185Y-82790606D01*
X163807945Y-82672996D01*
X163931824Y-82541023D01*
X164045142Y-82395599D01*
X164147221Y-82237638D01*
X164237380Y-82068052D01*
X164314941Y-81887754D01*
X164379222Y-81697658D01*
X164405874Y-81600394D01*
X164426559Y-81515488D01*
X164445310Y-81431006D01*
X164462254Y-81345539D01*
X164477520Y-81257680D01*
X164491236Y-81166022D01*
X164503529Y-81069158D01*
X164514529Y-80965679D01*
X164524363Y-80854178D01*
X164533159Y-80733247D01*
X164541046Y-80601480D01*
X164548151Y-80457469D01*
X164554602Y-80299805D01*
X164560529Y-80127083D01*
X164566058Y-79937893D01*
X164569591Y-79801741D01*
X164575296Y-79561032D01*
X164579932Y-79337828D01*
X164583409Y-79130843D01*
X164585638Y-78938791D01*
X164586528Y-78760389D01*
X164585991Y-78594349D01*
X164583937Y-78439388D01*
X164580276Y-78294221D01*
X164574919Y-78157561D01*
X164567776Y-78028124D01*
X164558759Y-77904625D01*
X164547776Y-77785779D01*
X164534739Y-77670299D01*
X164519558Y-77556903D01*
X164502145Y-77444303D01*
X164482408Y-77331215D01*
X164460258Y-77216354D01*
X164435607Y-77098435D01*
X164408365Y-76976172D01*
X164378441Y-76848280D01*
X164357906Y-76763148D01*
X164328572Y-76642473D01*
X164303424Y-76538172D01*
X164282124Y-76448356D01*
X164264331Y-76371135D01*
X164249706Y-76304622D01*
X164237908Y-76246928D01*
X164228599Y-76196163D01*
X164221437Y-76150440D01*
X164216083Y-76107870D01*
X164212198Y-76066563D01*
X164209441Y-76024632D01*
X164207473Y-75980188D01*
X164205953Y-75931341D01*
X164205558Y-75916481D01*
X164204605Y-75800987D01*
X164208434Y-75700380D01*
X164217402Y-75611261D01*
X164231867Y-75530230D01*
X164252187Y-75453888D01*
X164255277Y-75444133D01*
X164275393Y-75389648D01*
X164304411Y-75322333D01*
X164340900Y-75245083D01*
X164383431Y-75160790D01*
X164430570Y-75072349D01*
X164480889Y-74982652D01*
X164498561Y-74952222D01*
X164595138Y-74780617D01*
X164678633Y-74616779D01*
X164750604Y-74456659D01*
X164812615Y-74296211D01*
X164866224Y-74131386D01*
X164912993Y-73958139D01*
X164954483Y-73772420D01*
X164955588Y-73766978D01*
X165010143Y-73451878D01*
X165047723Y-73129187D01*
X165068362Y-72799362D01*
X165072093Y-72462859D01*
X165058949Y-72120134D01*
X165028961Y-71771646D01*
X164982163Y-71417849D01*
X164918589Y-71059202D01*
X164838270Y-70696160D01*
X164741239Y-70329179D01*
X164697932Y-70181973D01*
X164608724Y-69901918D01*
X164509757Y-69618177D01*
X164402749Y-69335091D01*
X164289414Y-69056999D01*
X164171468Y-68788241D01*
X164050626Y-68533156D01*
X164028686Y-68489002D01*
X163856394Y-68161368D01*
X163673678Y-67846414D01*
X163479393Y-67542606D01*
X163272394Y-67248410D01*
X163051534Y-66962293D01*
X162815670Y-66682720D01*
X162563654Y-66408156D01*
X162294343Y-66137069D01*
X162217926Y-66063712D01*
X162042223Y-65899835D01*
X161866010Y-65741979D01*
X161687555Y-65588837D01*
X161505125Y-65439106D01*
X161316989Y-65291479D01*
X161121413Y-65144651D01*
X160916665Y-64997316D01*
X160701013Y-64848170D01*
X160472725Y-64695906D01*
X160230067Y-64539220D01*
X160016592Y-64404929D01*
X159782776Y-64260626D01*
X159562179Y-64127111D01*
X159353196Y-64003584D01*
X159154222Y-63889245D01*
X158963653Y-63783295D01*
X158779885Y-63684933D01*
X158601311Y-63593361D01*
X158426328Y-63507779D01*
X158253332Y-63427387D01*
X158080716Y-63351386D01*
X157906877Y-63278976D01*
X157730210Y-63209357D01*
X157549110Y-63141731D01*
X157361973Y-63075296D01*
X157317210Y-63059861D01*
X157083252Y-62981166D01*
X156863712Y-62910712D01*
X156656338Y-62848008D01*
X156458880Y-62792565D01*
X156269088Y-62743893D01*
X156084712Y-62701504D01*
X155903501Y-62664906D01*
X155723206Y-62633611D01*
X155541576Y-62607128D01*
X155356361Y-62584969D01*
X155165311Y-62566644D01*
X154988474Y-62553157D01*
X154891622Y-62547585D01*
X154778364Y-62542816D01*
X154651090Y-62538848D01*
X154512192Y-62535682D01*
X154364060Y-62533316D01*
X154209086Y-62531751D01*
X154049661Y-62530985D01*
X153888176Y-62531018D01*
X153727022Y-62531850D01*
X153568589Y-62533480D01*
X153415270Y-62535908D01*
X153269455Y-62539133D01*
X153133536Y-62543154D01*
X153009903Y-62547971D01*
X152900947Y-62553583D01*
X152900404Y-62553616D01*
X152761232Y-62563078D01*
X152628632Y-62574665D01*
X152500422Y-62588826D01*
X152374419Y-62606007D01*
X152248442Y-62626657D01*
X152120308Y-62651225D01*
X151987836Y-62680158D01*
X151848843Y-62713904D01*
X151701148Y-62752912D01*
X151542568Y-62797630D01*
X151370922Y-62848505D01*
X151184027Y-62905986D01*
X151183037Y-62906295D01*
X150879884Y-63006287D01*
X150571810Y-63118277D01*
X150261123Y-63241129D01*
X149950128Y-63373708D01*
X149641135Y-63514878D01*
X149336449Y-63663503D01*
X149038378Y-63818447D01*
X148749230Y-63978574D01*
X148471312Y-64142749D01*
X148206930Y-64309835D01*
X147958392Y-64478697D01*
X147890444Y-64527233D01*
X147503138Y-64814544D01*
X147134169Y-65103501D01*
X146783101Y-65394539D01*
X146449496Y-65688096D01*
X146132916Y-65984605D01*
X145832923Y-66284502D01*
X145549080Y-66588223D01*
X145280948Y-66896204D01*
X145028092Y-67208878D01*
X144790071Y-67526683D01*
X144598383Y-67802231D01*
X144415971Y-68089501D01*
X144245200Y-68390457D01*
X144086578Y-68703615D01*
X143940615Y-69027491D01*
X143807818Y-69360602D01*
X143688697Y-69701465D01*
X143583761Y-70048597D01*
X143493518Y-70400514D01*
X143418478Y-70755733D01*
X143359149Y-71112771D01*
X143316040Y-71470143D01*
X143307328Y-71565556D01*
X143303200Y-71627981D01*
X143299914Y-71706229D01*
X143297456Y-71797325D01*
X143295815Y-71898296D01*
X143294979Y-72006170D01*
X143294935Y-72117971D01*
X133903186Y-72117971D01*
X133903043Y-72088653D01*
X133902864Y-71999152D01*
X133902944Y-71915442D01*
X133903269Y-71839725D01*
X133903826Y-71774202D01*
X133904602Y-71721077D01*
X133905584Y-71682550D01*
X133906649Y-71661981D01*
X133912642Y-71593778D01*
X140898960Y-71593778D01*
X140894859Y-67743796D01*
X140894412Y-67343028D01*
X140893925Y-66944329D01*
X140893401Y-66548155D01*
X140892842Y-66154963D01*
X140892248Y-65765209D01*
X140891621Y-65379351D01*
X140890963Y-64997843D01*
X140890275Y-64621143D01*
X140889558Y-64249707D01*
X140888814Y-63883992D01*
X140888045Y-63524454D01*
X140887251Y-63171550D01*
X140886435Y-62825735D01*
X140885597Y-62487467D01*
X140884740Y-62157202D01*
X140883864Y-61835396D01*
X140882972Y-61522506D01*
X140882064Y-61218988D01*
X140881142Y-60925299D01*
X140880207Y-60641895D01*
X140879262Y-60369232D01*
X140878306Y-60107768D01*
X140877343Y-59857959D01*
X140876373Y-59620260D01*
X140875398Y-59395129D01*
X140874419Y-59183021D01*
X140873438Y-58984395D01*
X140872456Y-58799705D01*
X140871475Y-58629408D01*
X140870495Y-58473961D01*
X140869519Y-58333820D01*
X140868548Y-58209442D01*
X140867584Y-58101283D01*
X140866627Y-58009799D01*
X140865680Y-57935448D01*
X140864744Y-57878685D01*
X140863820Y-57839967D01*
X140863193Y-57824067D01*
X140859742Y-57755775D01*
X140855805Y-57669288D01*
X140851405Y-57565219D01*
X140846565Y-57444183D01*
X140841308Y-57306793D01*
X140835655Y-57153661D01*
X140829632Y-56985402D01*
X140823259Y-56802628D01*
X140816561Y-56605953D01*
X140809559Y-56395990D01*
X140806624Y-56306741D01*
X140798589Y-56066781D01*
X140790757Y-55844144D01*
X140783052Y-55637343D01*
X140775400Y-55444888D01*
X140767723Y-55265290D01*
X140759947Y-55097060D01*
X140751997Y-54938710D01*
X140743795Y-54788750D01*
X140735268Y-54645692D01*
X140726338Y-54508047D01*
X140716931Y-54374326D01*
X140706971Y-54243039D01*
X140696382Y-54112699D01*
X140693381Y-54077185D01*
X140653104Y-53659953D01*
X140604685Y-53259121D01*
X140547957Y-52874048D01*
X140482751Y-52504093D01*
X140408902Y-52148613D01*
X140326242Y-51806970D01*
X140234604Y-51478521D01*
X140133821Y-51162625D01*
X140023725Y-50858642D01*
X139904150Y-50565929D01*
X139774929Y-50283847D01*
X139635894Y-50011754D01*
X139631590Y-50003778D01*
X139602298Y-49952171D01*
X139563769Y-49888252D01*
X139517893Y-49814882D01*
X139466556Y-49734925D01*
X139411647Y-49651241D01*
X139355054Y-49566692D01*
X139298665Y-49484141D01*
X139244368Y-49406448D01*
X139194051Y-49336477D01*
X139169212Y-49302926D01*
X138961063Y-49038885D01*
X138736029Y-48779108D01*
X138495871Y-48525345D01*
X138242350Y-48279347D01*
X137977228Y-48042864D01*
X137702265Y-47817645D01*
X137579926Y-47723555D01*
X137243788Y-47481641D01*
X136894115Y-47252679D01*
X136531108Y-47036763D01*
X136154971Y-46833989D01*
X135765905Y-46644454D01*
X135364112Y-46468251D01*
X134949794Y-46305477D01*
X134523154Y-46156227D01*
X134084394Y-46020597D01*
X133812259Y-45944957D01*
X133377128Y-45836019D01*
X132943485Y-45741747D01*
X132507677Y-45661494D01*
X132066052Y-45594612D01*
X131614956Y-45540454D01*
X131422778Y-45521438D01*
X131391285Y-45518718D01*
X131345620Y-45515059D01*
X131288191Y-45510634D01*
X131221407Y-45505613D01*
X131147676Y-45500168D01*
X131069407Y-45494470D01*
X130989008Y-45488691D01*
X130908888Y-45483002D01*
X130831456Y-45477574D01*
X130759120Y-45472578D01*
X130694289Y-45468187D01*
X130639371Y-45464572D01*
X130596774Y-45461903D01*
X130568908Y-45460352D01*
X130559648Y-45460024D01*
X130559054Y-45450740D01*
X130558473Y-45423396D01*
X130557908Y-45378745D01*
X130557360Y-45317541D01*
X130556831Y-45240538D01*
X130556324Y-45148491D01*
X130555840Y-45042153D01*
X130555382Y-44922278D01*
X130554951Y-44789621D01*
X130554549Y-44644936D01*
X130554179Y-44488976D01*
X130553843Y-44322495D01*
X130553542Y-44146248D01*
X130553279Y-43960989D01*
X130553055Y-43767472D01*
X130552873Y-43566450D01*
X130552734Y-43358678D01*
X130552642Y-43144910D01*
X130552597Y-42925900D01*
X130552592Y-42835333D01*
X130552592Y-40210667D01*
X177909481Y-40210667D01*
X177909895Y-41835796D01*
G37*
X177909895Y-41835796D02*
X177909996Y-42027646D01*
X177910199Y-42225461D01*
X177910496Y-42427372D01*
X177910883Y-42631508D01*
X177911353Y-42835997D01*
X177911899Y-43038968D01*
X177912515Y-43238551D01*
X177913195Y-43432874D01*
X177913934Y-43620066D01*
X177914723Y-43798256D01*
X177915558Y-43965574D01*
X177916432Y-44120148D01*
X177917339Y-44260107D01*
X177918272Y-44383580D01*
X177918504Y-44411074D01*
X177919598Y-44544126D01*
X177920549Y-44672497D01*
X177921354Y-44794857D01*
X177922008Y-44909873D01*
X177922506Y-45016216D01*
X177922846Y-45112553D01*
X177923022Y-45197553D01*
X177923031Y-45269886D01*
X177922868Y-45328221D01*
X177922529Y-45371225D01*
X177922010Y-45397569D01*
X177921599Y-45404935D01*
X177916498Y-45448647D01*
X177741305Y-45454570D01*
X177576345Y-45460262D01*
X177429551Y-45465574D01*
X177300276Y-45470532D01*
X177187874Y-45475164D01*
X177091700Y-45479497D01*
X177011109Y-45483558D01*
X176945454Y-45487373D01*
X176926407Y-45488620D01*
X176455958Y-45528683D01*
X175992835Y-45584581D01*
X175537446Y-45656182D01*
X175090200Y-45743355D01*
X174651504Y-45845970D01*
X174221766Y-45963896D01*
X173801393Y-46097001D01*
X173390794Y-46245156D01*
X172990376Y-46408229D01*
X172600547Y-46586090D01*
X172221715Y-46778608D01*
X171854287Y-46985652D01*
X171498672Y-47207091D01*
X171432481Y-47250776D01*
X171323670Y-47324899D01*
X171204820Y-47408784D01*
X171079806Y-47499531D01*
X170952504Y-47594237D01*
X170826791Y-47690004D01*
X170706542Y-47783929D01*
X170595634Y-47873112D01*
X170544517Y-47915333D01*
X170295684Y-48135185D01*
X170057354Y-48370506D01*
X169829624Y-48621087D01*
X169612590Y-48886723D01*
X169406349Y-49167207D01*
X169210997Y-49462333D01*
X169026630Y-49771893D01*
X168853346Y-50095681D01*
X168691241Y-50433490D01*
X168540410Y-50785115D01*
X168400951Y-51150347D01*
X168272960Y-51528980D01*
X168156533Y-51920808D01*
X168051767Y-52325625D01*
X167958758Y-52743222D01*
X167877603Y-53173395D01*
X167808398Y-53615935D01*
X167778280Y-53842000D01*
X167760231Y-53989334D01*
X167744318Y-54127935D01*
X167730304Y-54260850D01*
X167717952Y-54391127D01*
X167707024Y-54521812D01*
X167697284Y-54655955D01*
X167688494Y-54796601D01*
X167680416Y-54946800D01*
X167672815Y-55109598D01*
X167665452Y-55288043D01*
X167665163Y-55295444D01*
X167656069Y-55532610D01*
X167647382Y-55766962D01*
X167639090Y-55999210D01*
X167631182Y-56230067D01*
X167623649Y-56460244D01*
X167616479Y-56690454D01*
X167609662Y-56921408D01*
X167603186Y-57153818D01*
X167597043Y-57388396D01*
X167591219Y-57625853D01*
X167585706Y-57866903D01*
X167580491Y-58112255D01*
X167575566Y-58362623D01*
X167570918Y-58618718D01*
X167566537Y-58881251D01*
X167562412Y-59150936D01*
X167558533Y-59428483D01*
X167554890Y-59714604D01*
X167551470Y-60010011D01*
X167548264Y-60315417D01*
X167545261Y-60631532D01*
X167542450Y-60959069D01*
X167539820Y-61298739D01*
X167537362Y-61651255D01*
X167535063Y-62017328D01*
X167532914Y-62397669D01*
X167530903Y-62792992D01*
X167529020Y-63204007D01*
X167527255Y-63631427D01*
X167525596Y-64075963D01*
X167524033Y-64538327D01*
X167523453Y-64721667D01*
X167522642Y-64982896D01*
X167521804Y-65252273D01*
X167520945Y-65528302D01*
X167520069Y-65809492D01*
X167519181Y-66094347D01*
X167518285Y-66381375D01*
X167517387Y-66669081D01*
X167516491Y-66955972D01*
X167515601Y-67240555D01*
X167514722Y-67521335D01*
X167513860Y-67796819D01*
X167513018Y-68065513D01*
X167512201Y-68325924D01*
X167511414Y-68576558D01*
X167510662Y-68815922D01*
X167509949Y-69042520D01*
X167509280Y-69254861D01*
X167508660Y-69451450D01*
X167508093Y-69630793D01*
X167508066Y-69639389D01*
X167501881Y-71593778D01*
X174560444Y-71593778D01*
X174560444Y-72058064D01*
X174560322Y-72151947D01*
X174559973Y-72241838D01*
X174559420Y-72325632D01*
X174558689Y-72401228D01*
X174557803Y-72466523D01*
X174556787Y-72519415D01*
X174555664Y-72557799D01*
X174554461Y-72579575D01*
X174554400Y-72580176D01*
X174548357Y-72638000D01*
X167501848Y-72638000D01*
X167508056Y-72941389D01*
X167508626Y-72978796D01*
X167509182Y-73034056D01*
X167509722Y-73106207D01*
X167510243Y-73194288D01*
X167510743Y-73297336D01*
X167511220Y-73414390D01*
X167511672Y-73544488D01*
X167512095Y-73686668D01*
X167512488Y-73839968D01*
X167512848Y-74003427D01*
X167513174Y-74176082D01*
X167513462Y-74356973D01*
X167513711Y-74545136D01*
X167513918Y-74739611D01*
X167514080Y-74939435D01*
X167514196Y-75143647D01*
X167514263Y-75351284D01*
X167514280Y-75514315D01*
X167514296Y-77783852D01*
X176658296Y-77783852D01*
X176658296Y-78818667D01*
X167504889Y-78818667D01*
X167504889Y-83964494D01*
X174555741Y-83969222D01*
X174558580Y-84420778D01*
X174559031Y-84513866D01*
X174559210Y-84603366D01*
X174559130Y-84687076D01*
X174558805Y-84762793D01*
X174558248Y-84828316D01*
X174557472Y-84881442D01*
X174556490Y-84919968D01*
X174555425Y-84940537D01*
X174549432Y-85008741D01*
X167511336Y-85008741D01*
X167517497Y-90330981D01*
X167518173Y-90891170D01*
X167518883Y-91433387D01*
X167519627Y-91957603D01*
X167520405Y-92463788D01*
X167521217Y-92951912D01*
X167522063Y-93421947D01*
X167522942Y-93873863D01*
X167523854Y-94307630D01*
X167524800Y-94723219D01*
X167525779Y-95120601D01*
X167526791Y-95499745D01*
X167527836Y-95860623D01*
X167528914Y-96203204D01*
X167530025Y-96527460D01*
X167531168Y-96833361D01*
X167532344Y-97120877D01*
X167533552Y-97389979D01*
X167534793Y-97640638D01*
X167536066Y-97872824D01*
X167537370Y-98086507D01*
X167538707Y-98281658D01*
X167540076Y-98458248D01*
X167541477Y-98616246D01*
X167542909Y-98755624D01*
X167544372Y-98876353D01*
X167545867Y-98978401D01*
X167547394Y-99061741D01*
X167548951Y-99126343D01*
X167550540Y-99172176D01*
X167551492Y-99190407D01*
X167556305Y-99270533D01*
X167561681Y-99369370D01*
X167567622Y-99486929D01*
X167574128Y-99623223D01*
X167581199Y-99778264D01*
X167588836Y-99952066D01*
X167597040Y-100144639D01*
X167605811Y-100355996D01*
X167613117Y-100535667D01*
X167625001Y-100822615D01*
X167636822Y-101091886D01*
X167648673Y-101344618D01*
X167660649Y-101581948D01*
X167672843Y-101805013D01*
X167685349Y-102014951D01*
X167698260Y-102212900D01*
X167711671Y-102399996D01*
X167725675Y-102577377D01*
X167740366Y-102746181D01*
X167755838Y-102907545D01*
X167772184Y-103062606D01*
X167789499Y-103212502D01*
X167807875Y-103358370D01*
X167827407Y-103501347D01*
X167848189Y-103642571D01*
X167870314Y-103783180D01*
X167891125Y-103908222D01*
X167963150Y-104292414D01*
X168045657Y-104661573D01*
X168138611Y-105015608D01*
X168241980Y-105354431D01*
X168355731Y-105677951D01*
X168479830Y-105986079D01*
X168614244Y-106278723D01*
X168758940Y-106555795D01*
X168913886Y-106817205D01*
X169027272Y-106989148D01*
X169252116Y-107298964D01*
X169492315Y-107597981D01*
X169747757Y-107886115D01*
X170018332Y-108163280D01*
X170303928Y-108429392D01*
X170604433Y-108684366D01*
X170919736Y-108928117D01*
X171249726Y-109160559D01*
X171594291Y-109381609D01*
X171953320Y-109591181D01*
X172326701Y-109789190D01*
X172714322Y-109975552D01*
X173116074Y-110150181D01*
X173243199Y-110201813D01*
X173651728Y-110356076D01*
X174072875Y-110497596D01*
X174505104Y-110626025D01*
X174946880Y-110741017D01*
X175396664Y-110842222D01*
X175852922Y-110929294D01*
X176314116Y-111001884D01*
X176778710Y-111059645D01*
X177208630Y-111099451D01*
X177269446Y-111103997D01*
X177343897Y-111109316D01*
X177426839Y-111115054D01*
X177513125Y-111120859D01*
X177597610Y-111126379D01*
X177648426Y-111129603D01*
X177909481Y-111145936D01*
X177909481Y-116391852D01*
X130552592Y-116391852D01*
X130552360Y-114338685D01*
X130552294Y-114135605D01*
X130552143Y-113933180D01*
X130551912Y-113732569D01*
X130551605Y-113534929D01*
X130551226Y-113341418D01*
X130550780Y-113153193D01*
X130550271Y-112971412D01*
X130549702Y-112797233D01*
X130549080Y-112631813D01*
X130548407Y-112476310D01*
X130547688Y-112331881D01*
X130546927Y-112199685D01*
X130546226Y-112095330D01*
X131518526Y-112095330D01*
X131524733Y-112524387D01*
X131525535Y-112589811D01*
X131526307Y-112672331D01*
X131527042Y-112770231D01*
X131527734Y-112881792D01*
X131528377Y-113005297D01*
X131528963Y-113139028D01*
X131529487Y-113281268D01*
X131529941Y-113430298D01*
X131530320Y-113584400D01*
X131530615Y-113741858D01*
X131530822Y-113900953D01*
X131530934Y-114059967D01*
X131530952Y-114150537D01*
X131530963Y-115347630D01*
X176931111Y-115347630D01*
X176931111Y-113719853D01*
X176931087Y-113507236D01*
X176931010Y-113312730D01*
X176930876Y-113135632D01*
X176930679Y-112975236D01*
X176930415Y-112830840D01*
X176930078Y-112701740D01*
X176929664Y-112587231D01*
X176929167Y-112486610D01*
X176928582Y-112399174D01*
X176927904Y-112324217D01*
X176927128Y-112261037D01*
X176926249Y-112208929D01*
X176925262Y-112167190D01*
X176924162Y-112135116D01*
X176922943Y-112112003D01*
X176921601Y-112097147D01*
X176920131Y-112089845D01*
X176919352Y-112088807D01*
X176906892Y-112086960D01*
X176878577Y-112083614D01*
X176837279Y-112079081D01*
X176785871Y-112073673D01*
X176727224Y-112067702D01*
X176700630Y-112065052D01*
X176405055Y-112032151D01*
X176101026Y-111991337D01*
X175791444Y-111943216D01*
X175479215Y-111888394D01*
X175167240Y-111827475D01*
X174858424Y-111761066D01*
X174555670Y-111689772D01*
X174261881Y-111614197D01*
X173979961Y-111534949D01*
X173712813Y-111452631D01*
X173624407Y-111423565D01*
X173469936Y-111371583D01*
X173330883Y-111324073D01*
X173204657Y-111280067D01*
X173088665Y-111238599D01*
X172980314Y-111198702D01*
X172877012Y-111159410D01*
X172776165Y-111119756D01*
X172675182Y-111078773D01*
X172571469Y-111035494D01*
X172486111Y-110999135D01*
X172299120Y-110916557D01*
X172105583Y-110826764D01*
X171910869Y-110732390D01*
X171720345Y-110636070D01*
X171539380Y-110540439D01*
X171437185Y-110484243D01*
X171373283Y-110447725D01*
X171296792Y-110402712D01*
X171210797Y-110351111D01*
X171118385Y-110294836D01*
X171022639Y-110235795D01*
X170926646Y-110175900D01*
X170833491Y-110117061D01*
X170746260Y-110061188D01*
X170668037Y-110010193D01*
X170619745Y-109978053D01*
X170328121Y-109773150D01*
X170044007Y-109556288D01*
X169768366Y-109328536D01*
X169502156Y-109090962D01*
X169246339Y-108844635D01*
X169001874Y-108590621D01*
X168769724Y-108329990D01*
X168550846Y-108063809D01*
X168346204Y-107793148D01*
X168156756Y-107519073D01*
X167983463Y-107242653D01*
X167827286Y-106964956D01*
X167720750Y-106753963D01*
X167566682Y-106414053D01*
X167425697Y-106063665D01*
X167297622Y-105702197D01*
X167182279Y-105329043D01*
X167079493Y-104943603D01*
X166989088Y-104545272D01*
X166910887Y-104133446D01*
X166856526Y-103790630D01*
X166835687Y-103642732D01*
X166816174Y-103494740D01*
X166797899Y-103345427D01*
X166780774Y-103193564D01*
X166764708Y-103037925D01*
X166749615Y-102877281D01*
X166735405Y-102710404D01*
X166721989Y-102536068D01*
X166709280Y-102353044D01*
X166697188Y-102160106D01*
X166685626Y-101956024D01*
X166674503Y-101739572D01*
X166663732Y-101509522D01*
X166653225Y-101264647D01*
X166642891Y-101003718D01*
X166632644Y-100725509D01*
X166630091Y-100653259D01*
X166623262Y-100461498D01*
X166616583Y-100279731D01*
X166610093Y-100108922D01*
X166603833Y-99950038D01*
X166597844Y-99804043D01*
X166592166Y-99671904D01*
X166586840Y-99554586D01*
X166581906Y-99453054D01*
X166577406Y-99368274D01*
X166573379Y-99301212D01*
X166572895Y-99293889D01*
X166571568Y-99267191D01*
X166570262Y-99226990D01*
X166568976Y-99173124D01*
X166567709Y-99105430D01*
X166566462Y-99023745D01*
X166565233Y-98927907D01*
X166564021Y-98817752D01*
X166562826Y-98693118D01*
X166561648Y-98553843D01*
X166560485Y-98399762D01*
X166559338Y-98230714D01*
X166558204Y-98046536D01*
X166557085Y-97847065D01*
X166555978Y-97632139D01*
X166554884Y-97401593D01*
X166553802Y-97155267D01*
X166552731Y-96892997D01*
X166551671Y-96614619D01*
X166550620Y-96319973D01*
X166549578Y-96008894D01*
X166548545Y-95681219D01*
X166547520Y-95336787D01*
X166546502Y-94975435D01*
X166545490Y-94596999D01*
X166544485Y-94201317D01*
X166543485Y-93788226D01*
X166542489Y-93357563D01*
X166541498Y-92909166D01*
X166540509Y-92442871D01*
X166539524Y-91958517D01*
X166538540Y-91455940D01*
X166537558Y-90934978D01*
X166536577Y-90395467D01*
X166535951Y-90041704D01*
X166535366Y-89708496D01*
X166534782Y-89379096D01*
X166534202Y-89054043D01*
X166533626Y-88733878D01*
X166533056Y-88419140D01*
X166532492Y-88110369D01*
X166531935Y-87808104D01*
X166531387Y-87512886D01*
X166530848Y-87225254D01*
X166530321Y-86945748D01*
X166529805Y-86674907D01*
X166529301Y-86413272D01*
X166528812Y-86161382D01*
X166528338Y-85919778D01*
X166527879Y-85688997D01*
X166527438Y-85469582D01*
X166527015Y-85262070D01*
X166526611Y-85067003D01*
X166526228Y-84884919D01*
X166525865Y-84716359D01*
X166525526Y-84561862D01*
X166525210Y-84421968D01*
X166524918Y-84297217D01*
X166524652Y-84188148D01*
X166524413Y-84095302D01*
X166524202Y-84019217D01*
X166524020Y-83960435D01*
X166523867Y-83919494D01*
X166523767Y-83899898D01*
X166521815Y-83604797D01*
X166452227Y-83768195D01*
X166248482Y-84222672D01*
X166028105Y-84668553D01*
X165791419Y-85105398D01*
X165538745Y-85532769D01*
X165270407Y-85950225D01*
X164986726Y-86357329D01*
X164688025Y-86753640D01*
X164374627Y-87138720D01*
X164046854Y-87512128D01*
X163705029Y-87873427D01*
X163349473Y-88222177D01*
X162980510Y-88557938D01*
X162857630Y-88664305D01*
X162473711Y-88980254D01*
X162079064Y-89280901D01*
X161674177Y-89566025D01*
X161259538Y-89835406D01*
X160835634Y-90088822D01*
X160402955Y-90326052D01*
X159961987Y-90546875D01*
X159513219Y-90751069D01*
X159057138Y-90938413D01*
X158594233Y-91108687D01*
X158124990Y-91261668D01*
X157649899Y-91397136D01*
X157169447Y-91514870D01*
X156684123Y-91614648D01*
X156194413Y-91696249D01*
X156158562Y-91701480D01*
X155952992Y-91729565D01*
X155746412Y-91754440D01*
X155534762Y-91776518D01*
X155313985Y-91796208D01*
X155080021Y-91813924D01*
X154988333Y-91820124D01*
X154918208Y-91823919D01*
X154832184Y-91827260D01*
X154733171Y-91830124D01*
X154624080Y-91832490D01*
X154507822Y-91834335D01*
X154387307Y-91835638D01*
X154265446Y-91836374D01*
X154145150Y-91836524D01*
X154029329Y-91836063D01*
X153920893Y-91834971D01*
X153822755Y-91833224D01*
X153737823Y-91830801D01*
X153713630Y-91829867D01*
X153269428Y-91805027D01*
X152836753Y-91767765D01*
X152412632Y-91717646D01*
X151994092Y-91654239D01*
X151578161Y-91577111D01*
X151161867Y-91485829D01*
X150891407Y-91419148D01*
X150414505Y-91286900D01*
X149943741Y-91137002D01*
X149479587Y-90969744D01*
X149022514Y-90785415D01*
X148572993Y-90584307D01*
X148131494Y-90366710D01*
X147698489Y-90132913D01*
X147274449Y-89883207D01*
X146859844Y-89617882D01*
X146455145Y-89337229D01*
X146060824Y-89041538D01*
X145677352Y-88731099D01*
X145305198Y-88406202D01*
X144944836Y-88067138D01*
X144596734Y-87714197D01*
X144261365Y-87347669D01*
X144233129Y-87315518D01*
X143910110Y-86932289D01*
X143602400Y-86538130D01*
X143310098Y-86133192D01*
X143033304Y-85717621D01*
X142772120Y-85291568D01*
X142526645Y-84855180D01*
X142364656Y-84544516D01*
X142305648Y-84426522D01*
X142250489Y-84313645D01*
X142197726Y-84202687D01*
X142145906Y-84090448D01*
X142093575Y-83973727D01*
X142039282Y-83849326D01*
X141981573Y-83714045D01*
X141918995Y-83564685D01*
X141911184Y-83545889D01*
X141879929Y-83470630D01*
X141879530Y-85921259D01*
X141879340Y-86478576D01*
X141878957Y-87030694D01*
X141878382Y-87577095D01*
X141877618Y-88117263D01*
X141876669Y-88650680D01*
X141875537Y-89176831D01*
X141874226Y-89695197D01*
X141872737Y-90205262D01*
X141871075Y-90706510D01*
X141869241Y-91198422D01*
X141867240Y-91680483D01*
X141865073Y-92152175D01*
X141862743Y-92612981D01*
X141860254Y-93062384D01*
X141857609Y-93499868D01*
X141854810Y-93924915D01*
X141851861Y-94337009D01*
X141848763Y-94735632D01*
X141845521Y-95120268D01*
X141842136Y-95490400D01*
X141838613Y-95845510D01*
X141834953Y-96185082D01*
X141831160Y-96508599D01*
X141827236Y-96815544D01*
X141823185Y-97105400D01*
X141819010Y-97377651D01*
X141814713Y-97631778D01*
X141813234Y-97713444D01*
X141808691Y-97950999D01*
X141803761Y-98192109D01*
X141798478Y-98435767D01*
X141792872Y-98680963D01*
X141786976Y-98926690D01*
X141780823Y-99171939D01*
X141774444Y-99415702D01*
X141767871Y-99656971D01*
X141761137Y-99894738D01*
X141754274Y-100127993D01*
X141747314Y-100355730D01*
X141740289Y-100576939D01*
X141733231Y-100790612D01*
X141726172Y-100995741D01*
X141719145Y-101191318D01*
X141712181Y-101376334D01*
X141705313Y-101549781D01*
X141698573Y-101710651D01*
X141691993Y-101857936D01*
X141685605Y-101990626D01*
X141679442Y-102107715D01*
X141673534Y-102208193D01*
X141667916Y-102291052D01*
X141666919Y-102304259D01*
X141622742Y-102788538D01*
X141565577Y-103261838D01*
X141495513Y-103723874D01*
X141412635Y-104174363D01*
X141317029Y-104613019D01*
X141208784Y-105039558D01*
X141087986Y-105453697D01*
X140954721Y-105855151D01*
X140809075Y-106243635D01*
X140651137Y-106618865D01*
X140480992Y-106980558D01*
X140298728Y-107328428D01*
X140104430Y-107662191D01*
X139965841Y-107880397D01*
X139755152Y-108185328D01*
X139533977Y-108475112D01*
X139301262Y-108750883D01*
X139055950Y-109013777D01*
X138796988Y-109264928D01*
X138523320Y-109505469D01*
X138252555Y-109722277D01*
X138068578Y-109861787D01*
X137895996Y-109989537D01*
X137732721Y-110106894D01*
X137576668Y-110215221D01*
X137425749Y-110315885D01*
X137277877Y-110410249D01*
X137130965Y-110499679D01*
X136982926Y-110585539D01*
X136831674Y-110669194D01*
X136689392Y-110744602D01*
X136311853Y-110932038D01*
X135927279Y-111105243D01*
X135535013Y-111264393D01*
X135134394Y-111409661D01*
X134724763Y-111541222D01*
X134305461Y-111659250D01*
X133875829Y-111763921D01*
X133435207Y-111855407D01*
X132982937Y-111933884D01*
X132518359Y-111999526D01*
X132040813Y-112052507D01*
X131607059Y-112088960D01*
X131518526Y-112095330D01*
X130546226Y-112095330D01*
X130546128Y-112080878D01*
X130545297Y-111976618D01*
X130544436Y-111888063D01*
X130543551Y-111816371D01*
X130542931Y-111777518D01*
X130541279Y-111679318D01*
X130539937Y-111585070D01*
X130538915Y-111496777D01*
X130538227Y-111416440D01*
X130537884Y-111346061D01*
X130537898Y-111287640D01*
X130538281Y-111243181D01*
X130539046Y-111214683D01*
X130539488Y-111207915D01*
X130545242Y-111146312D01*
X130913454Y-111134761D01*
X131002477Y-111131845D01*
X131092090Y-111128682D01*
X131179023Y-111125405D01*
X131260006Y-111122145D01*
X131331770Y-111119032D01*
X131391045Y-111116199D01*
X131432185Y-111113924D01*
X131904151Y-111076901D01*
X132368048Y-111024625D01*
X132823504Y-110957218D01*
X133270148Y-110874800D01*
X133707607Y-110777494D01*
X134135509Y-110665420D01*
X134553483Y-110538699D01*
X134961156Y-110397454D01*
X135358158Y-110241804D01*
X135744115Y-110071872D01*
X136118656Y-109887779D01*
X136481409Y-109689646D01*
X136832002Y-109477594D01*
X137170064Y-109251745D01*
X137194222Y-109234735D01*
X137260442Y-109187159D01*
X137337961Y-109130147D01*
X137423516Y-109066177D01*
X137513845Y-108997729D01*
X137605685Y-108927280D01*
X137695773Y-108857309D01*
X137780845Y-108790294D01*
X137811340Y-108765991D01*
X138065165Y-108550942D01*
X138308083Y-108320630D01*
X138540027Y-108075172D01*
X138760927Y-107814684D01*
X138970716Y-107539283D01*
X139169326Y-107249085D01*
X139356687Y-106944207D01*
X139532732Y-106624765D01*
X139697393Y-106290876D01*
X139850602Y-105942656D01*
X139992289Y-105580223D01*
X140122388Y-105203691D01*
X140240829Y-104813179D01*
X140336409Y-104453852D01*
X140425100Y-104072222D01*
X140502842Y-103682554D01*
X140569960Y-103282884D01*
X140626778Y-102871249D01*
X140673624Y-102445687D01*
X140679712Y-102381589D01*
X140687023Y-102294649D01*
X140694484Y-102189681D01*
X140702069Y-102067468D01*
X140709755Y-101928797D01*
X140717519Y-101774453D01*
X140725338Y-101605220D01*
X140733188Y-101421884D01*
X140741045Y-101225230D01*
X140748887Y-101016042D01*
X140756689Y-100795107D01*
X140764428Y-100563209D01*
X140772081Y-100321134D01*
X140779624Y-100069665D01*
X140787034Y-99809590D01*
X140794287Y-99541692D01*
X140801360Y-99266757D01*
X140808229Y-98985570D01*
X140814871Y-98698917D01*
X140821263Y-98407581D01*
X140827381Y-98112349D01*
X140833201Y-97814005D01*
X140838700Y-97513335D01*
X140843855Y-97211124D01*
X140848642Y-96908157D01*
X140853038Y-96605218D01*
X140853645Y-96561037D01*
X140855872Y-96388616D01*
X140858094Y-96198286D01*
X140860305Y-95990949D01*
X140862502Y-95767513D01*
X140864681Y-95528880D01*
X140866837Y-95275956D01*
X140868966Y-95009646D01*
X140871064Y-94730854D01*
X140873125Y-94440486D01*
X140875147Y-94139445D01*
X140877124Y-93828636D01*
X140879053Y-93508965D01*
X140880928Y-93181336D01*
X140882747Y-92846653D01*
X140884503Y-92505822D01*
X140886194Y-92159747D01*
X140887814Y-91809334D01*
X140889360Y-91455485D01*
X140890827Y-91099107D01*
X140892210Y-90741105D01*
X140893506Y-90382382D01*
X140894710Y-90023844D01*
X140895818Y-89666395D01*
X140896825Y-89310940D01*
X140897728Y-88958384D01*
X140898521Y-88609631D01*
X140899201Y-88265587D01*
X140899763Y-87927156D01*
X140900203Y-87595242D01*
X140900517Y-87270751D01*
X140900700Y-86954587D01*
X140900749Y-86690315D01*
X140900741Y-85008741D01*
X133901630Y-85008741D01*
X133901630Y-84544454D01*
X133901751Y-84450571D01*
X133902101Y-84360681D01*
X133902653Y-84276886D01*
X133903385Y-84201290D01*
X133904271Y-84135995D01*
X133905287Y-84083104D01*
X133906409Y-84044719D01*
X133907613Y-84022944D01*
X133907673Y-84022343D01*
X133913717Y-83964518D01*
X140900741Y-83964518D01*
X140900741Y-78818667D01*
X131803778Y-78818667D01*
X131803778Y-77783852D01*
X140900741Y-77783852D01*
X140900741Y-72638025D01*
X137403537Y-72635661D01*
X133906333Y-72633296D01*
X133903494Y-72181741D01*
X133903186Y-72117971D01*
X143294935Y-72117971D01*
X143295672Y-72230727D01*
X143297178Y-72341465D01*
X143299439Y-72447211D01*
X143302445Y-72544991D01*
X143306183Y-72631832D01*
X143310640Y-72704761D01*
X143312048Y-72722667D01*
X143344964Y-73055298D01*
X143387397Y-73375213D01*
X143440170Y-73686169D01*
X143504102Y-73991923D01*
X143580014Y-74296231D01*
X143668727Y-74602848D01*
X143771063Y-74915533D01*
X143823902Y-75065111D01*
X143869964Y-75193186D01*
X143909805Y-75305541D01*
X143943856Y-75404059D01*
X143972544Y-75490621D01*
X143996300Y-75567109D01*
X144015551Y-75635404D01*
X144030727Y-75697388D01*
X144042258Y-75754943D01*
X144050571Y-75809950D01*
X144056097Y-75864291D01*
X144059263Y-75919848D01*
X144060500Y-75978502D01*
X144060236Y-76042134D01*
X144059245Y-76097287D01*
X144057472Y-76164032D01*
X144054977Y-76223107D01*
X144051320Y-76277466D01*
X144046060Y-76330063D01*
X144038755Y-76383851D01*
X144028966Y-76441783D01*
X144016252Y-76506813D01*
X144000171Y-76581894D01*
X143980284Y-76669981D01*
X143961980Y-76749037D01*
X143913484Y-76959340D01*
X143869890Y-77153335D01*
X143830892Y-77332792D01*
X143796186Y-77499482D01*
X143765465Y-77655177D01*
X143738424Y-77801646D01*
X143714758Y-77940662D01*
X143694161Y-78073995D01*
X143676327Y-78203417D01*
X143660952Y-78330698D01*
X143647729Y-78457609D01*
X143636354Y-78585921D01*
X143629324Y-78677556D01*
X143619541Y-78837849D01*
X143612316Y-79009700D01*
X143607639Y-79189387D01*
X143605500Y-79373184D01*
X143605886Y-79557368D01*
X143608789Y-79738216D01*
X143614197Y-79912004D01*
X143622099Y-80075008D01*
X143632484Y-80223504D01*
X143633812Y-80239185D01*
X143664445Y-80528847D01*
X143704970Y-80802513D01*
X143755389Y-81060196D01*
X143815709Y-81301909D01*
X143885933Y-81527665D01*
X143966066Y-81737475D01*
X144056112Y-81931353D01*
X144156076Y-82109311D01*
X144265963Y-82271363D01*
X144385777Y-82417519D01*
X144432591Y-82467537D01*
X144561791Y-82588771D01*
X144698447Y-82693611D01*
X144843419Y-82782464D01*
X144997566Y-82855737D01*
X145161745Y-82913835D01*
X145336815Y-82957166D01*
X145523634Y-82986135D01*
X145529185Y-82986760D01*
X145583871Y-82991253D01*
X145653245Y-82994495D01*
X145733221Y-82996488D01*
X145819714Y-82997233D01*
X145908637Y-82996731D01*
X145995907Y-82994983D01*
X146077436Y-82991991D01*
X146149140Y-82987755D01*
X146164185Y-82986574D01*
X146195776Y-82983853D01*
X146228190Y-82980825D01*
X146263178Y-82977280D01*
X146302490Y-82973008D01*
X146347878Y-82967800D01*
X146401092Y-82961445D01*
X146463883Y-82953735D01*
X146538003Y-82944459D01*
X146625201Y-82933408D01*
X146727229Y-82920372D01*
X146845838Y-82905141D01*
X146869741Y-82902066D01*
X147005217Y-82886025D01*
X147127944Y-82874617D01*
X147243306Y-82867461D01*
X147356685Y-82864172D01*
X147406846Y-82863852D01*
X147558889Y-82867542D01*
X147696762Y-82879049D01*
X147823694Y-82899027D01*
X147942914Y-82928131D01*
X148057650Y-82967015D01*
X148171131Y-83016335D01*
X148179947Y-83020603D01*
X148233003Y-83047708D01*
X148274815Y-83072645D01*
X148311785Y-83099775D01*
X148350314Y-83133460D01*
X148362833Y-83145211D01*
X148439660Y-83218121D01*
X148422715Y-83271994D01*
X148414463Y-83301291D01*
X148410223Y-83322728D01*
X148410556Y-83330655D01*
X148415813Y-83325285D01*
X148424394Y-83306422D01*
X148431650Y-83286344D01*
X148447957Y-83237246D01*
X148470195Y-83273975D01*
X148504563Y-83346442D01*
X148529154Y-83433068D01*
X148543719Y-83531789D01*
X148548010Y-83640541D01*
X148541779Y-83757259D01*
X148535184Y-83814000D01*
X148527708Y-83869005D01*
X148519111Y-83932185D01*
X148510817Y-83993072D01*
X148507655Y-84016259D01*
X148503454Y-84047346D01*
X148497119Y-84094620D01*
X148488977Y-84155616D01*
X148479357Y-84227870D01*
X148468587Y-84308915D01*
X148456995Y-84396287D01*
X148444909Y-84487520D01*
X148436314Y-84552481D01*
X148413296Y-84725603D01*
X148392178Y-84882085D01*
X148372618Y-85023968D01*
X148354271Y-85153291D01*
X148336793Y-85272096D01*
X148319840Y-85382423D01*
X148303069Y-85486313D01*
X148286135Y-85585805D01*
X148268694Y-85682941D01*
X148250403Y-85779761D01*
X148230917Y-85878305D01*
X148209893Y-85980614D01*
X148186987Y-86088728D01*
X148161855Y-86204688D01*
X148144557Y-86283444D01*
X148109936Y-86442921D01*
X148080232Y-86585825D01*
X148055355Y-86713720D01*
X148035218Y-86828171D01*
X148019730Y-86930740D01*
X148008801Y-87022993D01*
X148002343Y-87106492D01*
X148000266Y-87182802D01*
X148002481Y-87253486D01*
X148008897Y-87320108D01*
X148019426Y-87384232D01*
X148033978Y-87447423D01*
X148052465Y-87511243D01*
X148071158Y-87567022D01*
X148127140Y-87699427D01*
X148198968Y-87823752D01*
X148286851Y-87940166D01*
X148390998Y-88048837D01*
X148511617Y-88149934D01*
X148648918Y-88243626D01*
X148803110Y-88330081D01*
X148974401Y-88409467D01*
X149162999Y-88481953D01*
X149235704Y-88506565D01*
X149362125Y-88546211D01*
X149489693Y-88582968D01*
X149614234Y-88615756D01*
X149731574Y-88643499D01*
X149837539Y-88665118D01*
X149875407Y-88671745D01*
X149940209Y-88681373D01*
X150012643Y-88690011D01*
X150094135Y-88697745D01*
X150186111Y-88704661D01*
X150289997Y-88710846D01*
X150407219Y-88716385D01*
X150539203Y-88721367D01*
X150687373Y-88725876D01*
X150825555Y-88729366D01*
X151002414Y-88733543D01*
X151161866Y-88737455D01*
X151305315Y-88741178D01*
X151434166Y-88744786D01*
X151549824Y-88748356D01*
X151653694Y-88751962D01*
X151747181Y-88755680D01*
X151831688Y-88759584D01*
X151908620Y-88763751D01*
X151979383Y-88768255D01*
X152045381Y-88773171D01*
X152108018Y-88778576D01*
X152168700Y-88784544D01*
X152228830Y-88791150D01*
X152289814Y-88798470D01*
X152353056Y-88806579D01*
X152410704Y-88814292D01*
X152472943Y-88822570D01*
X152530350Y-88829734D01*
X152584976Y-88835898D01*
X152638874Y-88841172D01*
X152694094Y-88845668D01*
X152752690Y-88849496D01*
X152816714Y-88852770D01*
X152888216Y-88855599D01*
X152969251Y-88858095D01*
X153061869Y-88860371D01*
X153168122Y-88862536D01*
X153290063Y-88864703D01*
X153360852Y-88865876D01*
X153526409Y-88868757D01*
X153674663Y-88871754D01*
X153807123Y-88874925D01*
X153925300Y-88878333D01*
X154030704Y-88882036D01*
X154124847Y-88886095D01*
X154209239Y-88890571D01*
X154285391Y-88895523D01*
X154354812Y-88901011D01*
X154419015Y-88907097D01*
X154433632Y-88908633D01*
X154496325Y-88914965D01*
X154566477Y-88921440D01*
X154635052Y-88927254D01*
X154687632Y-88931234D01*
X154746693Y-88934157D01*
X154821017Y-88935991D01*
X154907086Y-88936792D01*
X155001380Y-88936615D01*
X155100383Y-88935512D01*
X155200576Y-88933541D01*
X155298442Y-88930754D01*
X155390462Y-88927207D01*
X155473119Y-88922955D01*
X155542894Y-88918052D01*
X155544537Y-88917913D01*
X155599314Y-88913012D01*
X155668467Y-88906413D01*
X155747681Y-88898553D01*
X155832636Y-88889868D01*
X155919018Y-88880792D01*
X156002507Y-88871761D01*
X156010203Y-88870914D01*
X156142959Y-88856499D01*
X156267192Y-88843539D01*
X156386506Y-88831715D01*
X156504508Y-88820707D01*
X156624802Y-88810196D01*
X156750994Y-88799862D01*
X156886690Y-88789386D01*
X157035494Y-88778447D01*
X157128518Y-88771816D01*
X157274158Y-88761442D01*
X157403078Y-88752055D01*
X157517339Y-88743485D01*
X157619002Y-88735560D01*
X157710127Y-88728110D01*
X157792774Y-88720964D01*
X157869003Y-88713951D01*
X157940874Y-88706901D01*
X158010448Y-88699642D01*
X158045741Y-88695802D01*
X158291977Y-88664006D01*
X158521440Y-88624673D01*
X158734676Y-88577619D01*
X158932231Y-88522659D01*
X159114651Y-88459609D01*
X159282482Y-88388284D01*
X159436271Y-88308500D01*
X159576562Y-88220072D01*
X159678432Y-88143799D01*
X159787567Y-88046365D01*
X159888735Y-87937647D01*
X159978993Y-87821318D01*
X160055395Y-87701049D01*
X160095950Y-87623098D01*
X160117313Y-87576919D01*
X160134056Y-87536889D01*
X160146682Y-87499783D01*
X160155693Y-87462378D01*
X160161591Y-87421448D01*
X160164879Y-87373769D01*
X160166060Y-87316116D01*
X160165636Y-87245264D01*
X160164590Y-87182690D01*
X160163273Y-87115681D01*
X160161740Y-87059664D01*
X160159441Y-87011713D01*
X160155824Y-86968903D01*
X160150338Y-86928307D01*
X160142434Y-86887000D01*
X160131558Y-86842056D01*
X160117162Y-86790548D01*
X160098693Y-86729550D01*
X160075601Y-86656138D01*
X160050750Y-86578100D01*
X160014195Y-86462468D01*
X159981502Y-86356604D01*
X159952197Y-86258338D01*
X159925808Y-86165498D01*
X159901860Y-86075914D01*
X159879881Y-85987413D01*
X159859397Y-85897825D01*
X159839934Y-85804978D01*
X159821020Y-85706701D01*
X159802180Y-85600823D01*
X159782942Y-85485173D01*
X159762831Y-85357580D01*
X159741375Y-85215872D01*
X159718100Y-85057877D01*
X159715716Y-85041518D01*
X159700830Y-84939913D01*
X159684446Y-84829104D01*
X159667279Y-84713865D01*
X159650044Y-84598969D01*
X159633457Y-84489188D01*
X159618233Y-84389295D01*
X159607143Y-84317296D01*
X159588029Y-84193361D01*
X159571791Y-84086410D01*
X159558251Y-83994863D01*
X159547232Y-83917139D01*
X159538555Y-83851657D01*
X159532044Y-83796837D01*
X159527520Y-83751098D01*
X159524806Y-83712859D01*
X159523724Y-83680540D01*
X159524097Y-83652559D01*
X159525746Y-83627336D01*
X159527626Y-83609980D01*
X159539734Y-83552456D01*
X159590048Y-83552456D01*
X159594287Y-83554575D01*
X159604125Y-83544523D01*
X159612354Y-83531254D01*
X159616898Y-83517071D01*
X159613915Y-83512963D01*
X159604463Y-83520572D01*
X159594698Y-83537081D01*
X159590048Y-83552456D01*
X159539734Y-83552456D01*
X159549247Y-83507265D01*
X159571874Y-83451236D01*
X159616787Y-83451236D01*
X159623843Y-83448961D01*
X159626925Y-83446497D01*
X159638475Y-83430185D01*
X159640296Y-83421885D01*
X159636728Y-83412576D01*
X159628775Y-83416951D01*
X159620569Y-83431919D01*
X159618653Y-83438095D01*
X159616787Y-83451236D01*
X159571874Y-83451236D01*
X159587255Y-83413151D01*
X159641246Y-83327749D01*
X159710816Y-83251167D01*
X159795562Y-83183517D01*
X159895080Y-83124908D01*
X160008967Y-83075450D01*
X160136820Y-83035253D01*
X160278235Y-83004429D01*
X160432808Y-82983085D01*
X160600135Y-82971333D01*
X160779815Y-82969283D01*
X160971442Y-82977044D01*
X161174614Y-82994727D01*
X161388926Y-83022442D01*
X161571502Y-83052516D01*
X161722255Y-83079061D01*
X161856945Y-83101494D01*
X161977812Y-83120076D01*
X162087092Y-83135068D01*
X162187024Y-83146733D01*
X162279845Y-83155331D01*
X162367793Y-83161125D01*
X162453105Y-83164377D01*
X162536585Y-83165348D01*
X162711233Y-83159409D01*
X162873861Y-83141374D01*
X163027379Y-83110599D01*
X163174695Y-83066443D01*
X163318715Y-83008264D01*
X163379741Y-82979082D01*
X163531224Y-82892939D01*
X163674185Y-82790606D01*
X163807945Y-82672996D01*
X163931824Y-82541023D01*
X164045142Y-82395599D01*
X164147221Y-82237638D01*
X164237380Y-82068052D01*
X164314941Y-81887754D01*
X164379222Y-81697658D01*
X164405874Y-81600394D01*
X164426559Y-81515488D01*
X164445310Y-81431006D01*
X164462254Y-81345539D01*
X164477520Y-81257680D01*
X164491236Y-81166022D01*
X164503529Y-81069158D01*
X164514529Y-80965679D01*
X164524363Y-80854178D01*
X164533159Y-80733247D01*
X164541046Y-80601480D01*
X164548151Y-80457469D01*
X164554602Y-80299805D01*
X164560529Y-80127083D01*
X164566058Y-79937893D01*
X164569591Y-79801741D01*
X164575296Y-79561032D01*
X164579932Y-79337828D01*
X164583409Y-79130843D01*
X164585638Y-78938791D01*
X164586528Y-78760389D01*
X164585991Y-78594349D01*
X164583937Y-78439388D01*
X164580276Y-78294221D01*
X164574919Y-78157561D01*
X164567776Y-78028124D01*
X164558759Y-77904625D01*
X164547776Y-77785779D01*
X164534739Y-77670299D01*
X164519558Y-77556903D01*
X164502145Y-77444303D01*
X164482408Y-77331215D01*
X164460258Y-77216354D01*
X164435607Y-77098435D01*
X164408365Y-76976172D01*
X164378441Y-76848280D01*
X164357906Y-76763148D01*
X164328572Y-76642473D01*
X164303424Y-76538172D01*
X164282124Y-76448356D01*
X164264331Y-76371135D01*
X164249706Y-76304622D01*
X164237908Y-76246928D01*
X164228599Y-76196163D01*
X164221437Y-76150440D01*
X164216083Y-76107870D01*
X164212198Y-76066563D01*
X164209441Y-76024632D01*
X164207473Y-75980188D01*
X164205953Y-75931341D01*
X164205558Y-75916481D01*
X164204605Y-75800987D01*
X164208434Y-75700380D01*
X164217402Y-75611261D01*
X164231867Y-75530230D01*
X164252187Y-75453888D01*
X164255277Y-75444133D01*
X164275393Y-75389648D01*
X164304411Y-75322333D01*
X164340900Y-75245083D01*
X164383431Y-75160790D01*
X164430570Y-75072349D01*
X164480889Y-74982652D01*
X164498561Y-74952222D01*
X164595138Y-74780617D01*
X164678633Y-74616779D01*
X164750604Y-74456659D01*
X164812615Y-74296211D01*
X164866224Y-74131386D01*
X164912993Y-73958139D01*
X164954483Y-73772420D01*
X164955588Y-73766978D01*
X165010143Y-73451878D01*
X165047723Y-73129187D01*
X165068362Y-72799362D01*
X165072093Y-72462859D01*
X165058949Y-72120134D01*
X165028961Y-71771646D01*
X164982163Y-71417849D01*
X164918589Y-71059202D01*
X164838270Y-70696160D01*
X164741239Y-70329179D01*
X164697932Y-70181973D01*
X164608724Y-69901918D01*
X164509757Y-69618177D01*
X164402749Y-69335091D01*
X164289414Y-69056999D01*
X164171468Y-68788241D01*
X164050626Y-68533156D01*
X164028686Y-68489002D01*
X163856394Y-68161368D01*
X163673678Y-67846414D01*
X163479393Y-67542606D01*
X163272394Y-67248410D01*
X163051534Y-66962293D01*
X162815670Y-66682720D01*
X162563654Y-66408156D01*
X162294343Y-66137069D01*
X162217926Y-66063712D01*
X162042223Y-65899835D01*
X161866010Y-65741979D01*
X161687555Y-65588837D01*
X161505125Y-65439106D01*
X161316989Y-65291479D01*
X161121413Y-65144651D01*
X160916665Y-64997316D01*
X160701013Y-64848170D01*
X160472725Y-64695906D01*
X160230067Y-64539220D01*
X160016592Y-64404929D01*
X159782776Y-64260626D01*
X159562179Y-64127111D01*
X159353196Y-64003584D01*
X159154222Y-63889245D01*
X158963653Y-63783295D01*
X158779885Y-63684933D01*
X158601311Y-63593361D01*
X158426328Y-63507779D01*
X158253332Y-63427387D01*
X158080716Y-63351386D01*
X157906877Y-63278976D01*
X157730210Y-63209357D01*
X157549110Y-63141731D01*
X157361973Y-63075296D01*
X157317210Y-63059861D01*
X157083252Y-62981166D01*
X156863712Y-62910712D01*
X156656338Y-62848008D01*
X156458880Y-62792565D01*
X156269088Y-62743893D01*
X156084712Y-62701504D01*
X155903501Y-62664906D01*
X155723206Y-62633611D01*
X155541576Y-62607128D01*
X155356361Y-62584969D01*
X155165311Y-62566644D01*
X154988474Y-62553157D01*
X154891622Y-62547585D01*
X154778364Y-62542816D01*
X154651090Y-62538848D01*
X154512192Y-62535682D01*
X154364060Y-62533316D01*
X154209086Y-62531751D01*
X154049661Y-62530985D01*
X153888176Y-62531018D01*
X153727022Y-62531850D01*
X153568589Y-62533480D01*
X153415270Y-62535908D01*
X153269455Y-62539133D01*
X153133536Y-62543154D01*
X153009903Y-62547971D01*
X152900947Y-62553583D01*
X152900404Y-62553616D01*
X152761232Y-62563078D01*
X152628632Y-62574665D01*
X152500422Y-62588826D01*
X152374419Y-62606007D01*
X152248442Y-62626657D01*
X152120308Y-62651225D01*
X151987836Y-62680158D01*
X151848843Y-62713904D01*
X151701148Y-62752912D01*
X151542568Y-62797630D01*
X151370922Y-62848505D01*
X151184027Y-62905986D01*
X151183037Y-62906295D01*
X150879884Y-63006287D01*
X150571810Y-63118277D01*
X150261123Y-63241129D01*
X149950128Y-63373708D01*
X149641135Y-63514878D01*
X149336449Y-63663503D01*
X149038378Y-63818447D01*
X148749230Y-63978574D01*
X148471312Y-64142749D01*
X148206930Y-64309835D01*
X147958392Y-64478697D01*
X147890444Y-64527233D01*
X147503138Y-64814544D01*
X147134169Y-65103501D01*
X146783101Y-65394539D01*
X146449496Y-65688096D01*
X146132916Y-65984605D01*
X145832923Y-66284502D01*
X145549080Y-66588223D01*
X145280948Y-66896204D01*
X145028092Y-67208878D01*
X144790071Y-67526683D01*
X144598383Y-67802231D01*
X144415971Y-68089501D01*
X144245200Y-68390457D01*
X144086578Y-68703615D01*
X143940615Y-69027491D01*
X143807818Y-69360602D01*
X143688697Y-69701465D01*
X143583761Y-70048597D01*
X143493518Y-70400514D01*
X143418478Y-70755733D01*
X143359149Y-71112771D01*
X143316040Y-71470143D01*
X143307328Y-71565556D01*
X143303200Y-71627981D01*
X143299914Y-71706229D01*
X143297456Y-71797325D01*
X143295815Y-71898296D01*
X143294979Y-72006170D01*
X143294935Y-72117971D01*
X133903186Y-72117971D01*
X133903043Y-72088653D01*
X133902864Y-71999152D01*
X133902944Y-71915442D01*
X133903269Y-71839725D01*
X133903826Y-71774202D01*
X133904602Y-71721077D01*
X133905584Y-71682550D01*
X133906649Y-71661981D01*
X133912642Y-71593778D01*
X140898960Y-71593778D01*
X140894859Y-67743796D01*
X140894412Y-67343028D01*
X140893925Y-66944329D01*
X140893401Y-66548155D01*
X140892842Y-66154963D01*
X140892248Y-65765209D01*
X140891621Y-65379351D01*
X140890963Y-64997843D01*
X140890275Y-64621143D01*
X140889558Y-64249707D01*
X140888814Y-63883992D01*
X140888045Y-63524454D01*
X140887251Y-63171550D01*
X140886435Y-62825735D01*
X140885597Y-62487467D01*
X140884740Y-62157202D01*
X140883864Y-61835396D01*
X140882972Y-61522506D01*
X140882064Y-61218988D01*
X140881142Y-60925299D01*
X140880207Y-60641895D01*
X140879262Y-60369232D01*
X140878306Y-60107768D01*
X140877343Y-59857959D01*
X140876373Y-59620260D01*
X140875398Y-59395129D01*
X140874419Y-59183021D01*
X140873438Y-58984395D01*
X140872456Y-58799705D01*
X140871475Y-58629408D01*
X140870495Y-58473961D01*
X140869519Y-58333820D01*
X140868548Y-58209442D01*
X140867584Y-58101283D01*
X140866627Y-58009799D01*
X140865680Y-57935448D01*
X140864744Y-57878685D01*
X140863820Y-57839967D01*
X140863193Y-57824067D01*
X140859742Y-57755775D01*
X140855805Y-57669288D01*
X140851405Y-57565219D01*
X140846565Y-57444183D01*
X140841308Y-57306793D01*
X140835655Y-57153661D01*
X140829632Y-56985402D01*
X140823259Y-56802628D01*
X140816561Y-56605953D01*
X140809559Y-56395990D01*
X140806624Y-56306741D01*
X140798589Y-56066781D01*
X140790757Y-55844144D01*
X140783052Y-55637343D01*
X140775400Y-55444888D01*
X140767723Y-55265290D01*
X140759947Y-55097060D01*
X140751997Y-54938710D01*
X140743795Y-54788750D01*
X140735268Y-54645692D01*
X140726338Y-54508047D01*
X140716931Y-54374326D01*
X140706971Y-54243039D01*
X140696382Y-54112699D01*
X140693381Y-54077185D01*
X140653104Y-53659953D01*
X140604685Y-53259121D01*
X140547957Y-52874048D01*
X140482751Y-52504093D01*
X140408902Y-52148613D01*
X140326242Y-51806970D01*
X140234604Y-51478521D01*
X140133821Y-51162625D01*
X140023725Y-50858642D01*
X139904150Y-50565929D01*
X139774929Y-50283847D01*
X139635894Y-50011754D01*
X139631590Y-50003778D01*
X139602298Y-49952171D01*
X139563769Y-49888252D01*
X139517893Y-49814882D01*
X139466556Y-49734925D01*
X139411647Y-49651241D01*
X139355054Y-49566692D01*
X139298665Y-49484141D01*
X139244368Y-49406448D01*
X139194051Y-49336477D01*
X139169212Y-49302926D01*
X138961063Y-49038885D01*
X138736029Y-48779108D01*
X138495871Y-48525345D01*
X138242350Y-48279347D01*
X137977228Y-48042864D01*
X137702265Y-47817645D01*
X137579926Y-47723555D01*
X137243788Y-47481641D01*
X136894115Y-47252679D01*
X136531108Y-47036763D01*
X136154971Y-46833989D01*
X135765905Y-46644454D01*
X135364112Y-46468251D01*
X134949794Y-46305477D01*
X134523154Y-46156227D01*
X134084394Y-46020597D01*
X133812259Y-45944957D01*
X133377128Y-45836019D01*
X132943485Y-45741747D01*
X132507677Y-45661494D01*
X132066052Y-45594612D01*
X131614956Y-45540454D01*
X131422778Y-45521438D01*
X131391285Y-45518718D01*
X131345620Y-45515059D01*
X131288191Y-45510634D01*
X131221407Y-45505613D01*
X131147676Y-45500168D01*
X131069407Y-45494470D01*
X130989008Y-45488691D01*
X130908888Y-45483002D01*
X130831456Y-45477574D01*
X130759120Y-45472578D01*
X130694289Y-45468187D01*
X130639371Y-45464572D01*
X130596774Y-45461903D01*
X130568908Y-45460352D01*
X130559648Y-45460024D01*
X130559054Y-45450740D01*
X130558473Y-45423396D01*
X130557908Y-45378745D01*
X130557360Y-45317541D01*
X130556831Y-45240538D01*
X130556324Y-45148491D01*
X130555840Y-45042153D01*
X130555382Y-44922278D01*
X130554951Y-44789621D01*
X130554549Y-44644936D01*
X130554179Y-44488976D01*
X130553843Y-44322495D01*
X130553542Y-44146248D01*
X130553279Y-43960989D01*
X130553055Y-43767472D01*
X130552873Y-43566450D01*
X130552734Y-43358678D01*
X130552642Y-43144910D01*
X130552597Y-42925900D01*
X130552592Y-42835333D01*
X130552592Y-40210667D01*
X177909481Y-40210667D01*
X177909895Y-41835796D01*
G36*
X154279582Y-79704091D02*
G01*
X154354132Y-79715202D01*
X154376852Y-79720545D01*
X154440211Y-79740961D01*
X154507382Y-79768888D01*
X154572611Y-79801483D01*
X154630139Y-79835900D01*
X154669579Y-79865224D01*
X154747876Y-79942085D01*
X154825013Y-80037313D01*
X154900791Y-80150486D01*
X154975007Y-80281180D01*
X155047463Y-80428972D01*
X155117957Y-80593440D01*
X155186290Y-80774161D01*
X155252260Y-80970711D01*
X155315669Y-81182667D01*
X155346146Y-81293530D01*
X155382948Y-81437539D01*
X155411854Y-81564763D01*
X155432917Y-81675473D01*
X155446190Y-81769936D01*
X155450755Y-81824333D01*
X155452899Y-81875979D01*
X155452285Y-81916185D01*
X155448320Y-81952204D01*
X155440415Y-81991284D01*
X155435513Y-82011410D01*
X155392745Y-82144571D01*
X155333990Y-82268300D01*
X155259744Y-82382235D01*
X155170505Y-82486014D01*
X155066769Y-82579275D01*
X154949032Y-82661656D01*
X154817792Y-82732797D01*
X154673544Y-82792335D01*
X154516787Y-82839909D01*
X154348015Y-82875156D01*
X154226333Y-82891934D01*
X154165106Y-82896946D01*
X154096171Y-82899667D01*
X154024543Y-82900159D01*
X153955237Y-82898485D01*
X153893269Y-82894707D01*
X153851066Y-82889759D01*
X154016588Y-82889759D01*
X154019721Y-82889553D01*
X154029471Y-82880539D01*
X154040288Y-82866372D01*
X154040739Y-82858566D01*
X154032919Y-82861423D01*
X154023737Y-82874805D01*
X154016588Y-82889759D01*
X153851066Y-82889759D01*
X153843654Y-82888890D01*
X153833100Y-82886992D01*
X153660204Y-82845545D01*
X153497097Y-82792170D01*
X153345194Y-82727538D01*
X153205910Y-82652321D01*
X153080659Y-82567188D01*
X152981844Y-82483350D01*
X152908275Y-82409017D01*
X152849133Y-82337879D01*
X152801562Y-82265690D01*
X152762708Y-82188206D01*
X152734788Y-82116128D01*
X152709674Y-82040767D01*
X152691265Y-81977259D01*
X152678622Y-81920264D01*
X152670801Y-81864446D01*
X152666862Y-81804464D01*
X152665863Y-81734982D01*
X152665897Y-81725556D01*
X152666554Y-81666179D01*
X152668257Y-81620158D01*
X152671632Y-81582038D01*
X152677310Y-81546363D01*
X152685919Y-81507680D01*
X152695165Y-81471556D01*
X152720510Y-81382745D01*
X152750971Y-81289825D01*
X152787339Y-81190834D01*
X152830406Y-81083811D01*
X152880962Y-80966795D01*
X152939800Y-80837824D01*
X153007709Y-80694936D01*
X153012012Y-80686037D01*
X153079234Y-80550923D01*
X153142548Y-80431892D01*
X153203241Y-80326945D01*
X153262602Y-80234081D01*
X153321920Y-80151300D01*
X153382482Y-80076603D01*
X153445577Y-80007990D01*
X153454800Y-79998641D01*
X153539595Y-79919943D01*
X153623862Y-79856143D01*
X153712008Y-79804772D01*
X153808439Y-79763363D01*
X153917562Y-79729448D01*
X153950229Y-79721144D01*
X154024764Y-79707674D01*
X154108660Y-79700336D01*
X154195678Y-79699139D01*
X154279582Y-79704091D01*
G37*
X154279582Y-79704091D02*
X154354132Y-79715202D01*
X154376852Y-79720545D01*
X154440211Y-79740961D01*
X154507382Y-79768888D01*
X154572611Y-79801483D01*
X154630139Y-79835900D01*
X154669579Y-79865224D01*
X154747876Y-79942085D01*
X154825013Y-80037313D01*
X154900791Y-80150486D01*
X154975007Y-80281180D01*
X155047463Y-80428972D01*
X155117957Y-80593440D01*
X155186290Y-80774161D01*
X155252260Y-80970711D01*
X155315669Y-81182667D01*
X155346146Y-81293530D01*
X155382948Y-81437539D01*
X155411854Y-81564763D01*
X155432917Y-81675473D01*
X155446190Y-81769936D01*
X155450755Y-81824333D01*
X155452899Y-81875979D01*
X155452285Y-81916185D01*
X155448320Y-81952204D01*
X155440415Y-81991284D01*
X155435513Y-82011410D01*
X155392745Y-82144571D01*
X155333990Y-82268300D01*
X155259744Y-82382235D01*
X155170505Y-82486014D01*
X155066769Y-82579275D01*
X154949032Y-82661656D01*
X154817792Y-82732797D01*
X154673544Y-82792335D01*
X154516787Y-82839909D01*
X154348015Y-82875156D01*
X154226333Y-82891934D01*
X154165106Y-82896946D01*
X154096171Y-82899667D01*
X154024543Y-82900159D01*
X153955237Y-82898485D01*
X153893269Y-82894707D01*
X153851066Y-82889759D01*
X154016588Y-82889759D01*
X154019721Y-82889553D01*
X154029471Y-82880539D01*
X154040288Y-82866372D01*
X154040739Y-82858566D01*
X154032919Y-82861423D01*
X154023737Y-82874805D01*
X154016588Y-82889759D01*
X153851066Y-82889759D01*
X153843654Y-82888890D01*
X153833100Y-82886992D01*
X153660204Y-82845545D01*
X153497097Y-82792170D01*
X153345194Y-82727538D01*
X153205910Y-82652321D01*
X153080659Y-82567188D01*
X152981844Y-82483350D01*
X152908275Y-82409017D01*
X152849133Y-82337879D01*
X152801562Y-82265690D01*
X152762708Y-82188206D01*
X152734788Y-82116128D01*
X152709674Y-82040767D01*
X152691265Y-81977259D01*
X152678622Y-81920264D01*
X152670801Y-81864446D01*
X152666862Y-81804464D01*
X152665863Y-81734982D01*
X152665897Y-81725556D01*
X152666554Y-81666179D01*
X152668257Y-81620158D01*
X152671632Y-81582038D01*
X152677310Y-81546363D01*
X152685919Y-81507680D01*
X152695165Y-81471556D01*
X152720510Y-81382745D01*
X152750971Y-81289825D01*
X152787339Y-81190834D01*
X152830406Y-81083811D01*
X152880962Y-80966795D01*
X152939800Y-80837824D01*
X153007709Y-80694936D01*
X153012012Y-80686037D01*
X153079234Y-80550923D01*
X153142548Y-80431892D01*
X153203241Y-80326945D01*
X153262602Y-80234081D01*
X153321920Y-80151300D01*
X153382482Y-80076603D01*
X153445577Y-80007990D01*
X153454800Y-79998641D01*
X153539595Y-79919943D01*
X153623862Y-79856143D01*
X153712008Y-79804772D01*
X153808439Y-79763363D01*
X153917562Y-79729448D01*
X153950229Y-79721144D01*
X154024764Y-79707674D01*
X154108660Y-79700336D01*
X154195678Y-79699139D01*
X154279582Y-79704091D01*
G36*
X148281935Y-75276467D02*
G01*
X148350897Y-75286092D01*
X148420691Y-75302844D01*
X148448053Y-75311039D01*
X148473074Y-75320497D01*
X148512229Y-75337344D01*
X148562920Y-75360367D01*
X148622546Y-75388353D01*
X148688510Y-75420090D01*
X148758212Y-75454365D01*
X148798259Y-75474393D01*
X148909750Y-75529982D01*
X149012047Y-75579706D01*
X149107601Y-75624494D01*
X149198863Y-75665275D01*
X149288286Y-75702979D01*
X149378319Y-75738534D01*
X149471416Y-75772871D01*
X149570026Y-75806917D01*
X149676602Y-75841603D01*
X149793594Y-75877858D01*
X149923455Y-75916610D01*
X150068636Y-75958790D01*
X150099554Y-75967670D01*
X150215169Y-76000375D01*
X150321910Y-76029510D01*
X150423003Y-76055799D01*
X150521676Y-76079967D01*
X150621156Y-76102741D01*
X150724671Y-76124846D01*
X150835446Y-76147007D01*
X150956710Y-76169949D01*
X151091690Y-76194398D01*
X151168926Y-76208045D01*
X151311777Y-76233585D01*
X151437286Y-76257130D01*
X151546776Y-76279071D01*
X151641568Y-76299794D01*
X151722985Y-76319689D01*
X151792348Y-76339144D01*
X151850979Y-76358547D01*
X151900200Y-76378286D01*
X151941334Y-76398751D01*
X151975702Y-76420329D01*
X152004626Y-76443410D01*
X152019852Y-76458073D01*
X152056082Y-76508754D01*
X152080421Y-76573613D01*
X152092844Y-76652229D01*
X152093324Y-76744177D01*
X152081835Y-76849035D01*
X152058351Y-76966379D01*
X152052814Y-76988926D01*
X152035528Y-77051966D01*
X152011863Y-77129928D01*
X151982691Y-77220373D01*
X151948881Y-77320863D01*
X151911307Y-77428958D01*
X151870838Y-77542219D01*
X151828346Y-77658206D01*
X151784703Y-77774480D01*
X151740779Y-77888603D01*
X151697446Y-77998135D01*
X151656627Y-78098106D01*
X151580615Y-78271633D01*
X151501752Y-78433706D01*
X151420879Y-78582860D01*
X151338837Y-78717629D01*
X151256466Y-78836549D01*
X151175358Y-78937300D01*
X151066988Y-79048672D01*
X150940992Y-79156320D01*
X150798302Y-79259626D01*
X150639846Y-79357979D01*
X150466555Y-79450762D01*
X150279360Y-79537361D01*
X150244595Y-79552105D01*
X150092799Y-79612349D01*
X149929318Y-79671254D01*
X149757707Y-79727834D01*
X149581523Y-79781101D01*
X149404320Y-79830070D01*
X149229656Y-79873754D01*
X149061085Y-79911165D01*
X148902163Y-79941317D01*
X148768831Y-79961628D01*
X148645143Y-79976371D01*
X148524061Y-79987979D01*
X148407946Y-79996366D01*
X148299156Y-80001444D01*
X148200050Y-80003128D01*
X148112988Y-80001330D01*
X148040329Y-79995964D01*
X147998630Y-79989912D01*
X147941541Y-79977588D01*
X147892054Y-79962663D01*
X147846020Y-79943060D01*
X147799289Y-79916700D01*
X147747711Y-79881506D01*
X147687138Y-79835400D01*
X147682067Y-79831406D01*
X147618422Y-79782635D01*
X147558835Y-79740531D01*
X147498276Y-79701939D01*
X147431718Y-79663702D01*
X147354132Y-79622668D01*
X147328829Y-79609783D01*
X147237590Y-79560811D01*
X147156107Y-79510423D01*
X147080650Y-79455668D01*
X147007488Y-79393594D01*
X146932891Y-79321250D01*
X146853128Y-79235685D01*
X146846293Y-79228047D01*
X146783763Y-79155665D01*
X146726333Y-79083850D01*
X146673194Y-79010938D01*
X146623540Y-78935263D01*
X146576563Y-78855162D01*
X146531455Y-78768969D01*
X146487410Y-78675020D01*
X146443621Y-78571650D01*
X146399279Y-78457193D01*
X146353579Y-78329986D01*
X146305712Y-78188364D01*
X146254872Y-78030662D01*
X146234956Y-77967296D01*
X146178782Y-77786278D01*
X146126089Y-77614011D01*
X146077127Y-77451384D01*
X146032146Y-77299281D01*
X145991396Y-77158591D01*
X145955125Y-77030198D01*
X145923584Y-76914989D01*
X145897021Y-76813851D01*
X145875688Y-76727669D01*
X145859832Y-76657331D01*
X145849704Y-76603723D01*
X145848206Y-76593815D01*
X145840788Y-76480069D01*
X145850168Y-76367092D01*
X145875660Y-76257812D01*
X145916578Y-76155160D01*
X145972237Y-76062064D01*
X145972886Y-76061163D01*
X146045764Y-75973431D01*
X146136074Y-75887425D01*
X146242448Y-75804135D01*
X146363519Y-75724549D01*
X146497917Y-75649657D01*
X146626876Y-75588089D01*
X146693026Y-75559722D01*
X146756727Y-75534679D01*
X146820318Y-75512395D01*
X146886139Y-75492304D01*
X146956529Y-75473839D01*
X147033827Y-75456436D01*
X147120372Y-75439529D01*
X147218503Y-75422551D01*
X147330559Y-75404936D01*
X147458881Y-75386120D01*
X147466234Y-75385071D01*
X147550924Y-75372750D01*
X147636360Y-75359864D01*
X147719083Y-75346967D01*
X147795639Y-75334611D01*
X147862569Y-75323352D01*
X147916417Y-75313743D01*
X147941308Y-75308940D01*
X148043492Y-75290206D01*
X148131888Y-75278539D01*
X148210150Y-75273955D01*
X148281935Y-75276467D01*
G37*
X148281935Y-75276467D02*
X148350897Y-75286092D01*
X148420691Y-75302844D01*
X148448053Y-75311039D01*
X148473074Y-75320497D01*
X148512229Y-75337344D01*
X148562920Y-75360367D01*
X148622546Y-75388353D01*
X148688510Y-75420090D01*
X148758212Y-75454365D01*
X148798259Y-75474393D01*
X148909750Y-75529982D01*
X149012047Y-75579706D01*
X149107601Y-75624494D01*
X149198863Y-75665275D01*
X149288286Y-75702979D01*
X149378319Y-75738534D01*
X149471416Y-75772871D01*
X149570026Y-75806917D01*
X149676602Y-75841603D01*
X149793594Y-75877858D01*
X149923455Y-75916610D01*
X150068636Y-75958790D01*
X150099554Y-75967670D01*
X150215169Y-76000375D01*
X150321910Y-76029510D01*
X150423003Y-76055799D01*
X150521676Y-76079967D01*
X150621156Y-76102741D01*
X150724671Y-76124846D01*
X150835446Y-76147007D01*
X150956710Y-76169949D01*
X151091690Y-76194398D01*
X151168926Y-76208045D01*
X151311777Y-76233585D01*
X151437286Y-76257130D01*
X151546776Y-76279071D01*
X151641568Y-76299794D01*
X151722985Y-76319689D01*
X151792348Y-76339144D01*
X151850979Y-76358547D01*
X151900200Y-76378286D01*
X151941334Y-76398751D01*
X151975702Y-76420329D01*
X152004626Y-76443410D01*
X152019852Y-76458073D01*
X152056082Y-76508754D01*
X152080421Y-76573613D01*
X152092844Y-76652229D01*
X152093324Y-76744177D01*
X152081835Y-76849035D01*
X152058351Y-76966379D01*
X152052814Y-76988926D01*
X152035528Y-77051966D01*
X152011863Y-77129928D01*
X151982691Y-77220373D01*
X151948881Y-77320863D01*
X151911307Y-77428958D01*
X151870838Y-77542219D01*
X151828346Y-77658206D01*
X151784703Y-77774480D01*
X151740779Y-77888603D01*
X151697446Y-77998135D01*
X151656627Y-78098106D01*
X151580615Y-78271633D01*
X151501752Y-78433706D01*
X151420879Y-78582860D01*
X151338837Y-78717629D01*
X151256466Y-78836549D01*
X151175358Y-78937300D01*
X151066988Y-79048672D01*
X150940992Y-79156320D01*
X150798302Y-79259626D01*
X150639846Y-79357979D01*
X150466555Y-79450762D01*
X150279360Y-79537361D01*
X150244595Y-79552105D01*
X150092799Y-79612349D01*
X149929318Y-79671254D01*
X149757707Y-79727834D01*
X149581523Y-79781101D01*
X149404320Y-79830070D01*
X149229656Y-79873754D01*
X149061085Y-79911165D01*
X148902163Y-79941317D01*
X148768831Y-79961628D01*
X148645143Y-79976371D01*
X148524061Y-79987979D01*
X148407946Y-79996366D01*
X148299156Y-80001444D01*
X148200050Y-80003128D01*
X148112988Y-80001330D01*
X148040329Y-79995964D01*
X147998630Y-79989912D01*
X147941541Y-79977588D01*
X147892054Y-79962663D01*
X147846020Y-79943060D01*
X147799289Y-79916700D01*
X147747711Y-79881506D01*
X147687138Y-79835400D01*
X147682067Y-79831406D01*
X147618422Y-79782635D01*
X147558835Y-79740531D01*
X147498276Y-79701939D01*
X147431718Y-79663702D01*
X147354132Y-79622668D01*
X147328829Y-79609783D01*
X147237590Y-79560811D01*
X147156107Y-79510423D01*
X147080650Y-79455668D01*
X147007488Y-79393594D01*
X146932891Y-79321250D01*
X146853128Y-79235685D01*
X146846293Y-79228047D01*
X146783763Y-79155665D01*
X146726333Y-79083850D01*
X146673194Y-79010938D01*
X146623540Y-78935263D01*
X146576563Y-78855162D01*
X146531455Y-78768969D01*
X146487410Y-78675020D01*
X146443621Y-78571650D01*
X146399279Y-78457193D01*
X146353579Y-78329986D01*
X146305712Y-78188364D01*
X146254872Y-78030662D01*
X146234956Y-77967296D01*
X146178782Y-77786278D01*
X146126089Y-77614011D01*
X146077127Y-77451384D01*
X146032146Y-77299281D01*
X145991396Y-77158591D01*
X145955125Y-77030198D01*
X145923584Y-76914989D01*
X145897021Y-76813851D01*
X145875688Y-76727669D01*
X145859832Y-76657331D01*
X145849704Y-76603723D01*
X145848206Y-76593815D01*
X145840788Y-76480069D01*
X145850168Y-76367092D01*
X145875660Y-76257812D01*
X145916578Y-76155160D01*
X145972237Y-76062064D01*
X145972886Y-76061163D01*
X146045764Y-75973431D01*
X146136074Y-75887425D01*
X146242448Y-75804135D01*
X146363519Y-75724549D01*
X146497917Y-75649657D01*
X146626876Y-75588089D01*
X146693026Y-75559722D01*
X146756727Y-75534679D01*
X146820318Y-75512395D01*
X146886139Y-75492304D01*
X146956529Y-75473839D01*
X147033827Y-75456436D01*
X147120372Y-75439529D01*
X147218503Y-75422551D01*
X147330559Y-75404936D01*
X147458881Y-75386120D01*
X147466234Y-75385071D01*
X147550924Y-75372750D01*
X147636360Y-75359864D01*
X147719083Y-75346967D01*
X147795639Y-75334611D01*
X147862569Y-75323352D01*
X147916417Y-75313743D01*
X147941308Y-75308940D01*
X148043492Y-75290206D01*
X148131888Y-75278539D01*
X148210150Y-75273955D01*
X148281935Y-75276467D01*
G36*
X160065318Y-75746011D02*
G01*
X160310835Y-75761448D01*
X160547664Y-75792263D01*
X160777294Y-75838760D01*
X161001210Y-75901244D01*
X161220898Y-75980020D01*
X161437845Y-76075393D01*
X161453560Y-76082987D01*
X161614142Y-76167431D01*
X161756554Y-76255918D01*
X161881070Y-76348763D01*
X161987964Y-76446287D01*
X162077509Y-76548806D01*
X162149978Y-76656639D01*
X162205644Y-76770105D01*
X162244781Y-76889520D01*
X162267663Y-77015203D01*
X162269486Y-77032307D01*
X162271590Y-77088550D01*
X162268781Y-77160315D01*
X162261398Y-77245056D01*
X162249779Y-77340229D01*
X162234265Y-77443287D01*
X162215193Y-77551686D01*
X162192903Y-77662880D01*
X162174486Y-77745680D01*
X162120526Y-77962748D01*
X162061731Y-78170634D01*
X161998761Y-78367383D01*
X161932277Y-78551041D01*
X161862940Y-78719657D01*
X161798961Y-78856296D01*
X161705539Y-79023008D01*
X161598400Y-79176976D01*
X161477499Y-79318231D01*
X161342792Y-79446808D01*
X161194237Y-79562738D01*
X161031788Y-79666053D01*
X160855402Y-79756788D01*
X160665035Y-79834973D01*
X160460643Y-79900642D01*
X160351419Y-79929220D01*
X160290593Y-79943535D01*
X160235275Y-79955316D01*
X160182608Y-79964833D01*
X160129735Y-79972354D01*
X160073799Y-79978150D01*
X160011942Y-79982490D01*
X159941307Y-79985644D01*
X159859038Y-79987881D01*
X159762277Y-79989472D01*
X159706148Y-79990125D01*
X159628010Y-79990813D01*
X159555308Y-79991202D01*
X159490317Y-79991297D01*
X159435312Y-79991107D01*
X159392568Y-79990637D01*
X159364360Y-79989896D01*
X159353370Y-79989024D01*
X159338145Y-79985298D01*
X159308182Y-79977966D01*
X159267018Y-79967894D01*
X159218190Y-79955948D01*
X159184037Y-79947592D01*
X159132160Y-79934890D01*
X159066577Y-79918816D01*
X158991854Y-79900491D01*
X158912557Y-79881034D01*
X158833251Y-79861565D01*
X158779518Y-79848368D01*
X158565301Y-79792517D01*
X158368060Y-79734168D01*
X158186037Y-79672564D01*
X158017473Y-79606949D01*
X157860611Y-79536565D01*
X157713691Y-79460655D01*
X157574957Y-79378463D01*
X157442649Y-79289232D01*
X157388871Y-79249698D01*
X157311493Y-79186341D01*
X157228790Y-79109543D01*
X157143838Y-79022698D01*
X157059712Y-78929201D01*
X156979489Y-78832444D01*
X156906244Y-78735824D01*
X156853329Y-78658741D01*
X156814722Y-78596556D01*
X156769850Y-78519424D01*
X156719919Y-78429666D01*
X156666139Y-78329603D01*
X156609716Y-78221555D01*
X156551859Y-78107842D01*
X156493774Y-77990785D01*
X156436671Y-77872705D01*
X156381756Y-77755921D01*
X156368606Y-77727407D01*
X156291034Y-77555431D01*
X156223346Y-77398588D01*
X156165354Y-77256122D01*
X156116871Y-77127276D01*
X156077709Y-77011291D01*
X156047679Y-76907410D01*
X156026594Y-76814876D01*
X156014266Y-76732931D01*
X156010508Y-76660817D01*
X156015130Y-76597777D01*
X156027946Y-76543054D01*
X156048767Y-76495889D01*
X156059073Y-76479297D01*
X156080199Y-76451425D01*
X156104737Y-76426077D01*
X156133920Y-76402902D01*
X156168977Y-76381544D01*
X156211139Y-76361651D01*
X156261638Y-76342869D01*
X156321704Y-76324844D01*
X156392568Y-76307223D01*
X156475460Y-76289652D01*
X156571611Y-76271777D01*
X156682253Y-76253245D01*
X156808616Y-76233703D01*
X156951930Y-76212795D01*
X157020333Y-76203121D01*
X157196684Y-76177836D01*
X157366424Y-76152337D01*
X157532694Y-76126077D01*
X157698637Y-76098508D01*
X157867394Y-76069085D01*
X158042107Y-76037260D01*
X158225918Y-76002487D01*
X158421968Y-75964219D01*
X158614889Y-75925650D01*
X158762472Y-75895941D01*
X158893286Y-75869836D01*
X159008976Y-75847085D01*
X159111190Y-75827441D01*
X159201573Y-75810656D01*
X159281773Y-75796481D01*
X159353435Y-75784669D01*
X159418207Y-75774971D01*
X159477735Y-75767139D01*
X159533666Y-75760925D01*
X159587645Y-75756082D01*
X159641321Y-75752361D01*
X159696339Y-75749514D01*
X159754346Y-75747292D01*
X159809630Y-75745646D01*
X160065318Y-75746011D01*
G37*
X160065318Y-75746011D02*
X160310835Y-75761448D01*
X160547664Y-75792263D01*
X160777294Y-75838760D01*
X161001210Y-75901244D01*
X161220898Y-75980020D01*
X161437845Y-76075393D01*
X161453560Y-76082987D01*
X161614142Y-76167431D01*
X161756554Y-76255918D01*
X161881070Y-76348763D01*
X161987964Y-76446287D01*
X162077509Y-76548806D01*
X162149978Y-76656639D01*
X162205644Y-76770105D01*
X162244781Y-76889520D01*
X162267663Y-77015203D01*
X162269486Y-77032307D01*
X162271590Y-77088550D01*
X162268781Y-77160315D01*
X162261398Y-77245056D01*
X162249779Y-77340229D01*
X162234265Y-77443287D01*
X162215193Y-77551686D01*
X162192903Y-77662880D01*
X162174486Y-77745680D01*
X162120526Y-77962748D01*
X162061731Y-78170634D01*
X161998761Y-78367383D01*
X161932277Y-78551041D01*
X161862940Y-78719657D01*
X161798961Y-78856296D01*
X161705539Y-79023008D01*
X161598400Y-79176976D01*
X161477499Y-79318231D01*
X161342792Y-79446808D01*
X161194237Y-79562738D01*
X161031788Y-79666053D01*
X160855402Y-79756788D01*
X160665035Y-79834973D01*
X160460643Y-79900642D01*
X160351419Y-79929220D01*
X160290593Y-79943535D01*
X160235275Y-79955316D01*
X160182608Y-79964833D01*
X160129735Y-79972354D01*
X160073799Y-79978150D01*
X160011942Y-79982490D01*
X159941307Y-79985644D01*
X159859038Y-79987881D01*
X159762277Y-79989472D01*
X159706148Y-79990125D01*
X159628010Y-79990813D01*
X159555308Y-79991202D01*
X159490317Y-79991297D01*
X159435312Y-79991107D01*
X159392568Y-79990637D01*
X159364360Y-79989896D01*
X159353370Y-79989024D01*
X159338145Y-79985298D01*
X159308182Y-79977966D01*
X159267018Y-79967894D01*
X159218190Y-79955948D01*
X159184037Y-79947592D01*
X159132160Y-79934890D01*
X159066577Y-79918816D01*
X158991854Y-79900491D01*
X158912557Y-79881034D01*
X158833251Y-79861565D01*
X158779518Y-79848368D01*
X158565301Y-79792517D01*
X158368060Y-79734168D01*
X158186037Y-79672564D01*
X158017473Y-79606949D01*
X157860611Y-79536565D01*
X157713691Y-79460655D01*
X157574957Y-79378463D01*
X157442649Y-79289232D01*
X157388871Y-79249698D01*
X157311493Y-79186341D01*
X157228790Y-79109543D01*
X157143838Y-79022698D01*
X157059712Y-78929201D01*
X156979489Y-78832444D01*
X156906244Y-78735824D01*
X156853329Y-78658741D01*
X156814722Y-78596556D01*
X156769850Y-78519424D01*
X156719919Y-78429666D01*
X156666139Y-78329603D01*
X156609716Y-78221555D01*
X156551859Y-78107842D01*
X156493774Y-77990785D01*
X156436671Y-77872705D01*
X156381756Y-77755921D01*
X156368606Y-77727407D01*
X156291034Y-77555431D01*
X156223346Y-77398588D01*
X156165354Y-77256122D01*
X156116871Y-77127276D01*
X156077709Y-77011291D01*
X156047679Y-76907410D01*
X156026594Y-76814876D01*
X156014266Y-76732931D01*
X156010508Y-76660817D01*
X156015130Y-76597777D01*
X156027946Y-76543054D01*
X156048767Y-76495889D01*
X156059073Y-76479297D01*
X156080199Y-76451425D01*
X156104737Y-76426077D01*
X156133920Y-76402902D01*
X156168977Y-76381544D01*
X156211139Y-76361651D01*
X156261638Y-76342869D01*
X156321704Y-76324844D01*
X156392568Y-76307223D01*
X156475460Y-76289652D01*
X156571611Y-76271777D01*
X156682253Y-76253245D01*
X156808616Y-76233703D01*
X156951930Y-76212795D01*
X157020333Y-76203121D01*
X157196684Y-76177836D01*
X157366424Y-76152337D01*
X157532694Y-76126077D01*
X157698637Y-76098508D01*
X157867394Y-76069085D01*
X158042107Y-76037260D01*
X158225918Y-76002487D01*
X158421968Y-75964219D01*
X158614889Y-75925650D01*
X158762472Y-75895941D01*
X158893286Y-75869836D01*
X159008976Y-75847085D01*
X159111190Y-75827441D01*
X159201573Y-75810656D01*
X159281773Y-75796481D01*
X159353435Y-75784669D01*
X159418207Y-75774971D01*
X159477735Y-75767139D01*
X159533666Y-75760925D01*
X159587645Y-75756082D01*
X159641321Y-75752361D01*
X159696339Y-75749514D01*
X159754346Y-75747292D01*
X159809630Y-75745646D01*
X160065318Y-75746011D01*
D11*
X153100500Y-126975000D03*
X155259500Y-126975000D03*
D12*
X150370000Y-127292500D03*
X157990000Y-127292500D03*
D13*
X160100000Y-102600000D03*
X162600000Y-106500000D03*
X154100000Y-101800000D03*
X149900000Y-103800000D03*
X148700000Y-105100000D03*
X151400000Y-107800000D03*
X149600000Y-113900000D03*
X150100000Y-118400000D03*
X158600000Y-113600000D03*
X161200000Y-111400000D03*
X174000000Y-114000000D03*
X155700000Y-114200000D03*
X152500000Y-114200000D03*
X158400000Y-107900000D03*
X154200000Y-104600000D03*
X157900000Y-119700000D03*
X153100000Y-119600000D03*
X155200000Y-119500000D03*
X165200000Y-110600000D03*
X165100000Y-113900000D03*
X164400000Y-92300000D03*
X165600000Y-90800000D03*
X163100000Y-95300000D03*
X163100000Y-92300000D03*
X164800000Y-96700000D03*
D14*
X150370000Y-118670000D02*
X150100000Y-118400000D01*
X150370000Y-127292500D02*
X150370000Y-118670000D01*
D15*
X155700000Y-106100000D02*
X154200000Y-104600000D01*
X156600000Y-106100000D02*
X155700000Y-106100000D01*
X158400000Y-107900000D02*
X156600000Y-106100000D01*
D14*
X157990000Y-127292500D02*
X157990000Y-119790000D01*
D15*
X157990000Y-119790000D02*
X157900000Y-119700000D01*
D16*
X153100000Y-126974500D02*
X153100500Y-126975000D01*
X153100000Y-119600000D02*
X153100000Y-126974500D01*
X155259500Y-119559500D02*
X155200000Y-119500000D01*
X155259500Y-126975000D02*
X155259500Y-119559500D01*
X165200000Y-110900000D02*
X165300000Y-110800000D01*
X165200000Y-113800000D02*
X165200000Y-110900000D01*
X165600000Y-91100000D02*
X165600000Y-90800000D01*
X164400000Y-92300000D02*
X165600000Y-91100000D01*
X163100000Y-92300000D02*
X163100000Y-95300000D01*
X164900000Y-96600000D02*
X167000000Y-96600000D01*
X167000000Y-96600000D02*
X167100000Y-96500000D01*
D17*
X142777436Y-86487976D02*
X142782252Y-86493867D01*
X142785990Y-86500495D01*
X142791170Y-86507777D01*
X143083472Y-86912715D01*
X143088497Y-86918410D01*
X143092474Y-86924880D01*
X143097924Y-86931962D01*
X143405634Y-87326121D01*
X143410845Y-87331597D01*
X143415044Y-87337887D01*
X143420756Y-87344760D01*
X143743774Y-87727989D01*
X143745236Y-87729414D01*
X143746401Y-87731085D01*
X143752251Y-87737840D01*
X143780487Y-87769991D01*
X143781989Y-87771397D01*
X143783205Y-87773067D01*
X143789192Y-87779702D01*
X144124561Y-88146230D01*
X144130173Y-88151273D01*
X144134842Y-88157205D01*
X144141073Y-88163611D01*
X144489175Y-88516552D01*
X144494944Y-88521358D01*
X144499806Y-88527082D01*
X144506271Y-88533251D01*
X144866633Y-88872315D01*
X144872555Y-88876885D01*
X144877606Y-88882401D01*
X144884297Y-88888324D01*
X145256451Y-89213221D01*
X145262512Y-89217548D01*
X145267751Y-89222859D01*
X145274658Y-89228530D01*
X145658130Y-89538969D01*
X145664337Y-89543061D01*
X145669753Y-89548158D01*
X145676865Y-89553569D01*
X146071186Y-89849260D01*
X146077530Y-89853112D01*
X146083124Y-89857999D01*
X146090432Y-89863142D01*
X146495131Y-90143795D01*
X146501611Y-90147408D01*
X146507377Y-90152080D01*
X146514870Y-90156949D01*
X146929475Y-90422274D01*
X146936089Y-90425646D01*
X146942026Y-90430103D01*
X146949695Y-90434691D01*
X147373735Y-90684397D01*
X147380477Y-90687526D01*
X147386586Y-90691766D01*
X147394420Y-90696066D01*
X147827425Y-90929864D01*
X147834294Y-90932747D01*
X147840573Y-90936768D01*
X147848561Y-90940774D01*
X148290060Y-91158371D01*
X148297056Y-91161006D01*
X148303500Y-91164802D01*
X148311632Y-91168508D01*
X148761153Y-91369616D01*
X148768276Y-91372000D01*
X148774882Y-91375566D01*
X148783146Y-91378966D01*
X149240219Y-91563295D01*
X149247459Y-91565421D01*
X149254234Y-91568757D01*
X149262620Y-91571845D01*
X149726774Y-91739103D01*
X149734134Y-91740968D01*
X149741066Y-91744063D01*
X149749562Y-91746834D01*
X150220326Y-91896732D01*
X150227796Y-91898328D01*
X150234888Y-91901179D01*
X150243483Y-91903626D01*
X150720385Y-92035874D01*
X150725069Y-92036691D01*
X150729543Y-92038342D01*
X150738205Y-92040541D01*
X151008665Y-92107222D01*
X151012451Y-92107771D01*
X151016074Y-92109002D01*
X151024789Y-92110977D01*
X151441083Y-92202259D01*
X151446998Y-92202961D01*
X151452697Y-92204693D01*
X151461472Y-92206383D01*
X151877403Y-92283511D01*
X151883493Y-92284034D01*
X151889403Y-92285619D01*
X151898229Y-92287019D01*
X152316769Y-92350426D01*
X152322789Y-92350743D01*
X152328658Y-92352113D01*
X152337525Y-92353224D01*
X152761646Y-92403343D01*
X152767351Y-92403456D01*
X152772942Y-92404576D01*
X152781839Y-92405405D01*
X153214515Y-92442667D01*
X153219680Y-92442606D01*
X153224776Y-92443468D01*
X153233695Y-92444029D01*
X153677897Y-92468869D01*
X153678960Y-92468824D01*
X153680013Y-92468984D01*
X153688940Y-92469391D01*
X153713133Y-92470325D01*
X153713265Y-92470317D01*
X153719572Y-92470541D01*
X153804504Y-92472964D01*
X153804618Y-92472956D01*
X153811364Y-92473123D01*
X153909502Y-92474870D01*
X153909658Y-92474858D01*
X153914448Y-92474939D01*
X154022884Y-92476031D01*
X154023043Y-92476017D01*
X154026782Y-92476058D01*
X154142603Y-92476519D01*
X154142744Y-92476506D01*
X154145948Y-92476524D01*
X154266244Y-92476374D01*
X154266391Y-92476359D01*
X154269311Y-92476362D01*
X154391172Y-92475626D01*
X154391305Y-92475612D01*
X154394226Y-92475601D01*
X154514741Y-92474298D01*
X154514891Y-92474282D01*
X154517977Y-92474254D01*
X154634236Y-92472409D01*
X154634381Y-92472392D01*
X154637957Y-92472340D01*
X154747049Y-92469974D01*
X154747212Y-92469954D01*
X154751676Y-92469856D01*
X154850688Y-92466992D01*
X154850813Y-92466976D01*
X154857022Y-92466778D01*
X154943046Y-92463437D01*
X154943453Y-92463381D01*
X154943866Y-92463405D01*
X154952793Y-92462984D01*
X155022588Y-92459207D01*
X155022592Y-92459207D01*
X155022647Y-92459204D01*
X155022918Y-92459189D01*
X155022937Y-92459186D01*
X155031512Y-92458666D01*
X155123199Y-92452466D01*
X155123354Y-92452440D01*
X155128344Y-92452097D01*
X155361927Y-92434410D01*
X155361932Y-92434410D01*
X155362014Y-92434403D01*
X155362308Y-92434381D01*
X155362329Y-92434377D01*
X155370838Y-92433678D01*
X155591614Y-92413988D01*
X155591935Y-92413927D01*
X155592268Y-92413930D01*
X155601162Y-92413064D01*
X155812812Y-92390986D01*
X155813418Y-92390862D01*
X155814045Y-92390857D01*
X155822924Y-92389850D01*
X156029504Y-92364975D01*
X156030122Y-92364838D01*
X156030762Y-92364823D01*
X156039624Y-92363675D01*
X156245195Y-92335589D01*
X156245334Y-92335556D01*
X156250966Y-92334774D01*
X156286817Y-92329543D01*
X156288770Y-92329060D01*
X156290782Y-92328952D01*
X156299607Y-92327545D01*
X156789317Y-92245944D01*
X156796665Y-92243967D01*
X156804240Y-92243275D01*
X156813005Y-92241537D01*
X157298330Y-92141759D01*
X157305568Y-92139516D01*
X157313077Y-92138545D01*
X157321771Y-92136479D01*
X157802223Y-92018745D01*
X157809342Y-92016242D01*
X157816784Y-92014995D01*
X157825394Y-92012604D01*
X158300485Y-91877137D01*
X158307481Y-91874379D01*
X158314849Y-91872859D01*
X158323364Y-91870148D01*
X158792608Y-91717167D01*
X158799481Y-91714156D01*
X158806768Y-91712367D01*
X158815176Y-91709340D01*
X159278081Y-91539066D01*
X159284823Y-91535808D01*
X159292024Y-91533752D01*
X159300314Y-91530414D01*
X159756394Y-91343070D01*
X159762999Y-91339568D01*
X159770118Y-91337246D01*
X159778277Y-91333602D01*
X160227045Y-91129408D01*
X160233518Y-91125661D01*
X160240538Y-91123078D01*
X160248556Y-91119132D01*
X160689524Y-90898309D01*
X160695852Y-90894324D01*
X160702777Y-90891479D01*
X160710642Y-90887237D01*
X161143321Y-90650007D01*
X161149508Y-90645781D01*
X161156326Y-90642678D01*
X161164028Y-90638146D01*
X161587932Y-90384730D01*
X161593964Y-90380271D01*
X161600681Y-90376906D01*
X161608208Y-90372089D01*
X162022847Y-90102708D01*
X162028723Y-90098016D01*
X162035327Y-90094392D01*
X162042669Y-90089297D01*
X162447556Y-89804173D01*
X162453274Y-89799245D01*
X162459756Y-89795366D01*
X162466902Y-89790000D01*
X162861549Y-89489353D01*
X162867102Y-89484193D01*
X162873456Y-89480058D01*
X162880395Y-89474428D01*
X163264314Y-89158479D01*
X163266797Y-89155991D01*
X163269698Y-89153999D01*
X163276495Y-89148197D01*
X163399375Y-89041830D01*
X163401775Y-89039303D01*
X163404609Y-89037251D01*
X163411259Y-89031282D01*
X163780223Y-88695521D01*
X163785273Y-88689931D01*
X163791204Y-88685290D01*
X163797627Y-88679077D01*
X164153183Y-88330327D01*
X164158005Y-88324571D01*
X164163747Y-88319721D01*
X164169933Y-88313273D01*
X164511758Y-87951974D01*
X164516353Y-87946052D01*
X164521896Y-87941005D01*
X164527838Y-87934330D01*
X164855611Y-87560922D01*
X164859976Y-87554842D01*
X164865323Y-87549595D01*
X164871011Y-87542703D01*
X165184410Y-87157623D01*
X165188545Y-87151386D01*
X165193687Y-87145949D01*
X165199115Y-87138850D01*
X165497816Y-86742539D01*
X165501716Y-86736151D01*
X165506656Y-86730522D01*
X165511816Y-86723226D01*
X165795497Y-86316122D01*
X165799161Y-86309585D01*
X165803893Y-86303769D01*
X165808777Y-86296286D01*
X165888831Y-86171745D01*
X165889302Y-86414490D01*
X165889302Y-86414505D01*
X165889806Y-86676068D01*
X165889806Y-86676126D01*
X165890322Y-86946880D01*
X165890322Y-86946955D01*
X165890849Y-87226453D01*
X165891388Y-87514074D01*
X165891936Y-87809283D01*
X165892493Y-88111538D01*
X165893057Y-88420299D01*
X165893627Y-88735029D01*
X165894203Y-89055185D01*
X165894783Y-89380231D01*
X165895367Y-89709620D01*
X165895638Y-89863986D01*
X165885243Y-89859680D01*
X165696315Y-89822100D01*
X165503685Y-89822100D01*
X165314757Y-89859680D01*
X165136790Y-89933396D01*
X164976625Y-90040415D01*
X164840415Y-90176625D01*
X164733396Y-90336790D01*
X164659680Y-90514757D01*
X164622100Y-90703685D01*
X164622100Y-90896315D01*
X164651266Y-91042945D01*
X164372112Y-91322100D01*
X164303685Y-91322100D01*
X164114757Y-91359680D01*
X163936790Y-91433396D01*
X163776625Y-91540415D01*
X163750000Y-91567040D01*
X163723375Y-91540415D01*
X163563210Y-91433396D01*
X163385243Y-91359680D01*
X163196315Y-91322100D01*
X163003685Y-91322100D01*
X162814757Y-91359680D01*
X162636790Y-91433396D01*
X162476625Y-91540415D01*
X162340415Y-91676625D01*
X162233396Y-91836790D01*
X162159680Y-92014757D01*
X162122100Y-92203685D01*
X162122100Y-92396315D01*
X162159680Y-92585243D01*
X162233396Y-92763210D01*
X162340415Y-92923375D01*
X162388800Y-92971760D01*
X162388801Y-94628239D01*
X162340415Y-94676625D01*
X162233396Y-94836790D01*
X162159680Y-95014757D01*
X162122100Y-95203685D01*
X162122100Y-95396315D01*
X162159680Y-95585243D01*
X162233396Y-95763210D01*
X162340415Y-95923375D01*
X162476625Y-96059585D01*
X162636790Y-96166604D01*
X162814757Y-96240320D01*
X163003685Y-96277900D01*
X163196315Y-96277900D01*
X163385243Y-96240320D01*
X163563210Y-96166604D01*
X163723375Y-96059585D01*
X163859585Y-95923375D01*
X163966604Y-95763210D01*
X164040320Y-95585243D01*
X164077900Y-95396315D01*
X164077900Y-95203685D01*
X164040320Y-95014757D01*
X163966604Y-94836790D01*
X163859585Y-94676625D01*
X163811200Y-94628240D01*
X163811200Y-93082687D01*
X163936790Y-93166604D01*
X164114757Y-93240320D01*
X164303685Y-93277900D01*
X164496315Y-93277900D01*
X164685243Y-93240320D01*
X164863210Y-93166604D01*
X165023375Y-93059585D01*
X165159585Y-92923375D01*
X165266604Y-92763210D01*
X165340320Y-92585243D01*
X165377900Y-92396315D01*
X165377900Y-92327888D01*
X165899225Y-91806564D01*
X165899525Y-91959770D01*
X165899525Y-91959819D01*
X165900510Y-92444173D01*
X165900510Y-92444228D01*
X165901499Y-92910523D01*
X165901500Y-92910535D01*
X165901500Y-92910580D01*
X165902491Y-93358977D01*
X165902491Y-93359043D01*
X165903487Y-93789706D01*
X165903487Y-93789775D01*
X165904487Y-94202866D01*
X165904487Y-94202943D01*
X165905492Y-94598624D01*
X165905492Y-94598710D01*
X165906504Y-94977146D01*
X165906505Y-94977159D01*
X165906505Y-94977238D01*
X165907523Y-95338590D01*
X165907523Y-95338692D01*
X165908548Y-95683124D01*
X165908548Y-95683237D01*
X165909196Y-95888800D01*
X165346128Y-95888800D01*
X165263210Y-95833396D01*
X165085243Y-95759680D01*
X164896315Y-95722100D01*
X164703685Y-95722100D01*
X164514757Y-95759680D01*
X164336790Y-95833396D01*
X164176625Y-95940415D01*
X164040415Y-96076625D01*
X163933396Y-96236790D01*
X163859680Y-96414757D01*
X163822100Y-96603685D01*
X163822100Y-96796315D01*
X163859680Y-96985243D01*
X163933396Y-97163210D01*
X164040415Y-97323375D01*
X164176625Y-97459585D01*
X164336790Y-97566604D01*
X164514757Y-97640320D01*
X164703685Y-97677900D01*
X164896315Y-97677900D01*
X165085243Y-97640320D01*
X165263210Y-97566604D01*
X165423375Y-97459585D01*
X165559585Y-97323375D01*
X165567720Y-97311200D01*
X165914481Y-97311200D01*
X165914890Y-97404404D01*
X165914891Y-97404418D01*
X165914891Y-97404630D01*
X165915985Y-97635176D01*
X165915986Y-97635190D01*
X165915986Y-97635435D01*
X165917093Y-97850361D01*
X165917095Y-97850384D01*
X165917095Y-97850655D01*
X165918214Y-98050126D01*
X165918216Y-98050148D01*
X165918216Y-98050476D01*
X165919350Y-98234654D01*
X165919353Y-98234683D01*
X165919353Y-98235056D01*
X165920500Y-98404104D01*
X165920503Y-98404130D01*
X165920503Y-98404593D01*
X165921666Y-98558673D01*
X165921670Y-98558712D01*
X165921671Y-98559256D01*
X165922849Y-98698531D01*
X165922853Y-98698571D01*
X165922855Y-98699254D01*
X165924050Y-98823888D01*
X165924057Y-98823948D01*
X165924060Y-98824793D01*
X165925272Y-98934949D01*
X165925279Y-98935018D01*
X165925286Y-98936114D01*
X165926515Y-99031952D01*
X165926525Y-99032039D01*
X165926537Y-99033514D01*
X165927784Y-99115200D01*
X165927796Y-99115309D01*
X165927821Y-99117407D01*
X165929088Y-99185101D01*
X165929105Y-99185244D01*
X165929158Y-99188399D01*
X165930444Y-99242265D01*
X165930462Y-99242415D01*
X165930599Y-99247771D01*
X165931905Y-99287971D01*
X165932039Y-99288997D01*
X165931975Y-99290034D01*
X165932357Y-99298962D01*
X165933684Y-99325660D01*
X165933796Y-99326413D01*
X165933761Y-99327176D01*
X165934288Y-99336097D01*
X165934651Y-99341591D01*
X165938424Y-99404429D01*
X165942722Y-99485389D01*
X165947543Y-99584594D01*
X165952780Y-99699945D01*
X165958412Y-99831000D01*
X165964329Y-99975234D01*
X165970554Y-100133222D01*
X165977044Y-100304023D01*
X165983666Y-100484226D01*
X165983667Y-100484275D01*
X165990490Y-100675860D01*
X165993043Y-100748110D01*
X165993051Y-100748172D01*
X165993078Y-100749066D01*
X166003325Y-101027275D01*
X166003337Y-101027366D01*
X166003392Y-101029045D01*
X166013726Y-101289975D01*
X166013741Y-101290085D01*
X166013813Y-101292083D01*
X166024320Y-101536957D01*
X166024337Y-101537079D01*
X166024432Y-101539454D01*
X166035203Y-101769504D01*
X166035223Y-101769638D01*
X166035346Y-101772417D01*
X166046469Y-101988869D01*
X166046492Y-101989019D01*
X166046651Y-101992224D01*
X166058213Y-102196306D01*
X166058236Y-102196452D01*
X166058441Y-102200138D01*
X166070533Y-102393077D01*
X166070558Y-102393232D01*
X166070817Y-102397378D01*
X166083526Y-102580402D01*
X166083553Y-102580564D01*
X166083876Y-102585174D01*
X166097292Y-102759509D01*
X166097318Y-102759657D01*
X166097713Y-102764705D01*
X166111923Y-102931582D01*
X166111950Y-102931727D01*
X166112421Y-102937147D01*
X166127514Y-103097791D01*
X166127542Y-103097936D01*
X166128091Y-103103640D01*
X166144157Y-103259279D01*
X166144185Y-103259415D01*
X166144805Y-103265280D01*
X166161930Y-103417143D01*
X166161958Y-103417273D01*
X166162639Y-103423179D01*
X166180914Y-103572492D01*
X166180946Y-103572637D01*
X166181666Y-103578401D01*
X166201179Y-103726393D01*
X166201213Y-103726537D01*
X166201947Y-103732027D01*
X166222786Y-103879925D01*
X166223037Y-103880963D01*
X166223086Y-103882028D01*
X166224424Y-103890864D01*
X166278785Y-104233679D01*
X166280115Y-104238782D01*
X166280516Y-104244050D01*
X166282122Y-104252841D01*
X166360323Y-104664667D01*
X166362272Y-104671311D01*
X166363043Y-104678196D01*
X166364961Y-104686924D01*
X166455366Y-105085254D01*
X166457742Y-105092403D01*
X166458861Y-105099860D01*
X166461103Y-105108510D01*
X166563890Y-105493950D01*
X166566729Y-105501531D01*
X166568244Y-105509490D01*
X166570823Y-105518046D01*
X166686166Y-105891200D01*
X166689495Y-105899128D01*
X166691444Y-105907497D01*
X166694370Y-105915941D01*
X166822444Y-106277409D01*
X166826270Y-106285572D01*
X166828680Y-106294253D01*
X166831958Y-106302567D01*
X166972943Y-106652954D01*
X166977251Y-106661223D01*
X166980133Y-106670102D01*
X166983766Y-106678266D01*
X167137834Y-107018177D01*
X167142337Y-107025982D01*
X167145475Y-107034424D01*
X167149447Y-107042429D01*
X167255983Y-107253422D01*
X167261274Y-107261763D01*
X167265128Y-107270862D01*
X167269454Y-107278681D01*
X167425631Y-107556378D01*
X167431827Y-107565243D01*
X167436518Y-107574996D01*
X167441212Y-107582600D01*
X167614505Y-107859020D01*
X167620564Y-107866864D01*
X167625257Y-107875597D01*
X167630287Y-107882983D01*
X167819735Y-108157058D01*
X167825668Y-108164065D01*
X167830358Y-108171967D01*
X167835698Y-108179132D01*
X168040341Y-108449794D01*
X168046181Y-108456125D01*
X168050882Y-108463355D01*
X168056510Y-108470296D01*
X168275388Y-108736478D01*
X168281186Y-108742270D01*
X168285920Y-108748958D01*
X168291818Y-108755672D01*
X168523967Y-109016303D01*
X168529775Y-109021664D01*
X168534589Y-109027937D01*
X168540741Y-109034419D01*
X168785206Y-109288433D01*
X168791089Y-109293457D01*
X168796029Y-109299411D01*
X168802423Y-109305654D01*
X169058240Y-109551981D01*
X169064265Y-109556742D01*
X169069393Y-109562467D01*
X169076019Y-109568463D01*
X169342229Y-109806037D01*
X169348479Y-109810602D01*
X169353861Y-109816169D01*
X169360710Y-109821909D01*
X169636351Y-110049661D01*
X169642910Y-110054080D01*
X169648627Y-110059553D01*
X169655693Y-110065024D01*
X169939807Y-110281886D01*
X169946770Y-110286195D01*
X169952906Y-110291623D01*
X169960182Y-110296811D01*
X170251806Y-110501714D01*
X170254967Y-110503502D01*
X170257750Y-110505841D01*
X170265155Y-110510843D01*
X170313446Y-110542983D01*
X170313574Y-110543051D01*
X170318522Y-110546326D01*
X170396745Y-110597321D01*
X170396878Y-110597390D01*
X170401068Y-110600115D01*
X170488299Y-110655988D01*
X170488437Y-110656059D01*
X170491718Y-110658163D01*
X170584873Y-110717002D01*
X170585005Y-110717068D01*
X170587856Y-110718875D01*
X170683849Y-110778769D01*
X170683978Y-110778833D01*
X170686720Y-110780550D01*
X170782466Y-110839591D01*
X170782597Y-110839655D01*
X170785514Y-110841459D01*
X170877926Y-110897734D01*
X170878067Y-110897802D01*
X170881501Y-110899895D01*
X170967496Y-110951496D01*
X170967630Y-110951560D01*
X170972201Y-110954292D01*
X171048692Y-110999305D01*
X171048738Y-110999326D01*
X171055737Y-111003391D01*
X171119639Y-111039909D01*
X171120359Y-111040232D01*
X171121004Y-111040687D01*
X171128804Y-111045047D01*
X171231000Y-111101243D01*
X171231778Y-111101577D01*
X171232485Y-111102058D01*
X171240357Y-111106288D01*
X171421322Y-111201919D01*
X171422541Y-111202418D01*
X171423647Y-111203142D01*
X171431594Y-111207229D01*
X171622118Y-111303549D01*
X171622953Y-111303873D01*
X171623718Y-111304356D01*
X171631732Y-111308309D01*
X171826446Y-111402683D01*
X171827336Y-111403011D01*
X171828148Y-111403505D01*
X171836228Y-111407322D01*
X172029766Y-111497116D01*
X172031154Y-111497602D01*
X172032426Y-111498343D01*
X172040575Y-111502010D01*
X172227566Y-111584587D01*
X172227597Y-111584597D01*
X172235303Y-111587943D01*
X172320661Y-111624302D01*
X172320809Y-111624349D01*
X172324999Y-111626131D01*
X172428712Y-111669410D01*
X172428840Y-111669449D01*
X172434509Y-111671796D01*
X172535492Y-111712779D01*
X172535594Y-111712809D01*
X172541966Y-111715366D01*
X172642813Y-111755019D01*
X172642906Y-111755046D01*
X172649484Y-111757600D01*
X172752786Y-111796892D01*
X172752900Y-111796923D01*
X172759169Y-111799281D01*
X172867520Y-111839178D01*
X172867656Y-111839213D01*
X172873215Y-111841244D01*
X172989207Y-111882712D01*
X172989358Y-111882750D01*
X172993971Y-111884394D01*
X173120197Y-111928400D01*
X173120346Y-111928436D01*
X173123960Y-111929699D01*
X173263012Y-111977209D01*
X173263144Y-111977240D01*
X173265813Y-111978159D01*
X173420285Y-112030141D01*
X173420441Y-112030177D01*
X173424515Y-112031548D01*
X173512922Y-112060614D01*
X173514414Y-112060948D01*
X173515828Y-112061563D01*
X173524350Y-112064253D01*
X173791498Y-112146571D01*
X173794929Y-112147271D01*
X173798183Y-112148592D01*
X173806769Y-112151070D01*
X174088689Y-112230318D01*
X174091312Y-112230785D01*
X174093798Y-112231731D01*
X174102437Y-112234018D01*
X174396226Y-112309593D01*
X174398305Y-112309916D01*
X174400288Y-112310624D01*
X174408972Y-112312732D01*
X174711726Y-112384026D01*
X174713471Y-112384260D01*
X174715149Y-112384823D01*
X174723872Y-112386762D01*
X175032688Y-112453171D01*
X175034287Y-112453354D01*
X175035826Y-112453838D01*
X175044584Y-112455612D01*
X175356559Y-112516531D01*
X175358180Y-112516686D01*
X175359745Y-112517145D01*
X175368535Y-112518751D01*
X175680764Y-112573573D01*
X175682570Y-112573711D01*
X175684323Y-112574188D01*
X175693144Y-112575622D01*
X176002726Y-112623743D01*
X176004904Y-112623866D01*
X176007026Y-112624397D01*
X176015874Y-112625647D01*
X176289932Y-112662438D01*
X176290080Y-112703411D01*
X176290416Y-112832010D01*
X176290679Y-112975983D01*
X176290679Y-112976022D01*
X176290876Y-113136116D01*
X176291010Y-113312983D01*
X176291087Y-113507236D01*
X176291087Y-113507308D01*
X176291111Y-113719781D01*
X176291111Y-114707630D01*
X165651471Y-114707630D01*
X165723375Y-114659585D01*
X165859585Y-114523375D01*
X165966604Y-114363210D01*
X166040320Y-114185243D01*
X166077900Y-113996315D01*
X166077900Y-113803685D01*
X166040320Y-113614757D01*
X165966604Y-113436790D01*
X165911200Y-113353872D01*
X165911200Y-111271760D01*
X165959585Y-111223375D01*
X166066604Y-111063210D01*
X166140320Y-110885243D01*
X166177900Y-110696315D01*
X166177900Y-110503685D01*
X166140320Y-110314757D01*
X166066604Y-110136790D01*
X165959585Y-109976625D01*
X165823375Y-109840415D01*
X165663210Y-109733396D01*
X165485243Y-109659680D01*
X165296315Y-109622100D01*
X165103685Y-109622100D01*
X164914757Y-109659680D01*
X164736790Y-109733396D01*
X164576625Y-109840415D01*
X164440415Y-109976625D01*
X164333396Y-110136790D01*
X164259680Y-110314757D01*
X164222100Y-110503685D01*
X164222100Y-110696315D01*
X164259680Y-110885243D01*
X164333396Y-111063210D01*
X164440415Y-111223375D01*
X164488801Y-111271761D01*
X164488800Y-113132280D01*
X164476625Y-113140415D01*
X164340415Y-113276625D01*
X164233396Y-113436790D01*
X164159680Y-113614757D01*
X164122100Y-113803685D01*
X164122100Y-113996315D01*
X164159680Y-114185243D01*
X164233396Y-114363210D01*
X164340415Y-114523375D01*
X164476625Y-114659585D01*
X164548529Y-114707630D01*
X132170957Y-114707630D01*
X132170952Y-114150531D01*
X132170951Y-114150523D01*
X132170952Y-114150410D01*
X132170934Y-114059840D01*
X132170932Y-114059821D01*
X132170934Y-114059516D01*
X132170822Y-113900502D01*
X132170819Y-113900472D01*
X132170821Y-113900120D01*
X132170614Y-113741025D01*
X132170612Y-113741007D01*
X132170614Y-113740659D01*
X132170319Y-113583201D01*
X132170316Y-113583175D01*
X132170318Y-113582826D01*
X132169939Y-113428724D01*
X132169937Y-113428700D01*
X132169938Y-113428349D01*
X132169484Y-113279318D01*
X132169482Y-113279296D01*
X132169483Y-113278910D01*
X132168959Y-113136670D01*
X132168956Y-113136640D01*
X132168957Y-113136223D01*
X132168371Y-113002493D01*
X132168367Y-113002456D01*
X132168368Y-113001965D01*
X132167725Y-112878460D01*
X132167722Y-112878426D01*
X132167722Y-112877822D01*
X132167030Y-112766261D01*
X132167024Y-112766208D01*
X132167024Y-112765426D01*
X132166401Y-112682500D01*
X132588930Y-112635623D01*
X132593930Y-112634567D01*
X132599041Y-112634420D01*
X132607898Y-112633232D01*
X133072475Y-112567590D01*
X133077933Y-112566265D01*
X133083539Y-112565928D01*
X133092354Y-112564462D01*
X133544623Y-112485985D01*
X133550493Y-112484363D01*
X133556553Y-112483798D01*
X133565315Y-112482042D01*
X134005936Y-112390556D01*
X134012154Y-112388616D01*
X134018624Y-112387788D01*
X134027321Y-112385733D01*
X134456953Y-112281062D01*
X134463454Y-112278786D01*
X134470255Y-112277670D01*
X134478873Y-112275309D01*
X134898175Y-112157281D01*
X134904880Y-112154664D01*
X134911939Y-112153240D01*
X134920466Y-112150566D01*
X135330097Y-112019005D01*
X135336913Y-112016055D01*
X135344142Y-112014315D01*
X135352563Y-112011327D01*
X135753183Y-111866059D01*
X135760022Y-111862792D01*
X135767321Y-111860743D01*
X135775624Y-111857441D01*
X136167890Y-111698291D01*
X136174648Y-111694745D01*
X136181924Y-111692403D01*
X136190097Y-111688789D01*
X136574672Y-111515584D01*
X136581268Y-111511799D01*
X136588417Y-111509197D01*
X136596449Y-111505279D01*
X136973988Y-111317843D01*
X136977411Y-111315704D01*
X136981171Y-111314221D01*
X136989095Y-111310091D01*
X137131378Y-111234683D01*
X137132421Y-111233992D01*
X137133577Y-111233512D01*
X137141427Y-111229241D01*
X137292679Y-111145586D01*
X137294370Y-111144422D01*
X137296257Y-111143593D01*
X137304018Y-111139163D01*
X137452057Y-111053303D01*
X137453954Y-111051939D01*
X137456080Y-111050951D01*
X137463745Y-111046357D01*
X137610658Y-110956927D01*
X137612512Y-110955533D01*
X137614595Y-110954511D01*
X137622162Y-110949756D01*
X137770034Y-110855392D01*
X137771618Y-110854148D01*
X137773414Y-110853221D01*
X137780882Y-110848314D01*
X137931802Y-110747649D01*
X137932943Y-110746715D01*
X137934247Y-110746011D01*
X137941623Y-110740966D01*
X138097677Y-110632639D01*
X138098279Y-110632128D01*
X138098962Y-110631744D01*
X138106255Y-110626579D01*
X138269530Y-110509222D01*
X138269538Y-110509215D01*
X138269552Y-110509207D01*
X138276771Y-110503940D01*
X138449353Y-110376190D01*
X138449421Y-110376129D01*
X138455282Y-110371748D01*
X138639259Y-110232238D01*
X138642188Y-110229528D01*
X138645566Y-110227394D01*
X138652580Y-110221857D01*
X138923345Y-110005048D01*
X138930678Y-109997896D01*
X138939085Y-109992028D01*
X138945838Y-109986175D01*
X139219506Y-109745635D01*
X139227193Y-109737416D01*
X139236097Y-109730529D01*
X139242555Y-109724352D01*
X139501517Y-109473201D01*
X139508973Y-109464403D01*
X139517733Y-109456899D01*
X139523875Y-109450408D01*
X139769187Y-109187514D01*
X139776195Y-109178354D01*
X139784569Y-109170424D01*
X139790380Y-109163635D01*
X140023095Y-108887863D01*
X140029474Y-108878602D01*
X140037255Y-108870475D01*
X140042725Y-108863410D01*
X140263900Y-108573626D01*
X140269532Y-108564526D01*
X140276561Y-108556452D01*
X140281692Y-108549135D01*
X140492381Y-108244205D01*
X140496249Y-108237238D01*
X140501243Y-108231032D01*
X140506086Y-108223523D01*
X140644675Y-108005317D01*
X140648254Y-107998237D01*
X140652985Y-107991869D01*
X140657535Y-107984177D01*
X140851833Y-107650414D01*
X140855924Y-107641480D01*
X140861427Y-107633338D01*
X140865629Y-107625452D01*
X141047893Y-107277582D01*
X141051383Y-107268966D01*
X141056255Y-107261045D01*
X141060115Y-107252985D01*
X141230260Y-106891292D01*
X141233203Y-106883025D01*
X141237490Y-106875362D01*
X141241014Y-106867150D01*
X141398952Y-106491920D01*
X141401400Y-106484026D01*
X141405149Y-106476652D01*
X141408344Y-106468306D01*
X141553990Y-106079822D01*
X141555996Y-106072309D01*
X141559255Y-106065245D01*
X141562129Y-106056784D01*
X141695394Y-105655330D01*
X141697008Y-105648206D01*
X141699821Y-105641468D01*
X141702383Y-105632907D01*
X141823181Y-105218768D01*
X141824448Y-105212040D01*
X141826862Y-105205630D01*
X141829120Y-105196984D01*
X141937365Y-104770445D01*
X141938328Y-104764105D01*
X141940385Y-104758027D01*
X141942349Y-104749309D01*
X141995883Y-104503685D01*
X153222100Y-104503685D01*
X153222100Y-104696315D01*
X153259680Y-104885243D01*
X153333396Y-105063210D01*
X153440415Y-105223375D01*
X153576625Y-105359585D01*
X153736790Y-105466604D01*
X153860690Y-105517925D01*
X155040501Y-106697736D01*
X155068341Y-106731659D01*
X155203709Y-106842753D01*
X155358149Y-106925303D01*
X155411907Y-106941610D01*
X155525724Y-106976136D01*
X155558185Y-106979333D01*
X155656333Y-106989000D01*
X155656339Y-106989000D01*
X155699999Y-106993300D01*
X155743659Y-106989000D01*
X156231765Y-106989000D01*
X157482075Y-108239310D01*
X157533396Y-108363210D01*
X157640415Y-108523375D01*
X157776625Y-108659585D01*
X157936790Y-108766604D01*
X158114757Y-108840320D01*
X158303685Y-108877900D01*
X158496315Y-108877900D01*
X158685243Y-108840320D01*
X158863210Y-108766604D01*
X159023375Y-108659585D01*
X159159585Y-108523375D01*
X159266604Y-108363210D01*
X159340320Y-108185243D01*
X159377900Y-107996315D01*
X159377900Y-107803685D01*
X159340320Y-107614757D01*
X159266604Y-107436790D01*
X159159585Y-107276625D01*
X159023375Y-107140415D01*
X158863210Y-107033396D01*
X158739310Y-106982075D01*
X157259499Y-105502264D01*
X157231659Y-105468341D01*
X157096291Y-105357247D01*
X156941851Y-105274697D01*
X156774274Y-105223864D01*
X156643667Y-105211000D01*
X156643660Y-105211000D01*
X156600000Y-105206700D01*
X156556340Y-105211000D01*
X156068235Y-105211000D01*
X155117925Y-104260690D01*
X155066604Y-104136790D01*
X154959585Y-103976625D01*
X154823375Y-103840415D01*
X154663210Y-103733396D01*
X154485243Y-103659680D01*
X154296315Y-103622100D01*
X154103685Y-103622100D01*
X153914757Y-103659680D01*
X153736790Y-103733396D01*
X153576625Y-103840415D01*
X153440415Y-103976625D01*
X153333396Y-104136790D01*
X153259680Y-104314757D01*
X153222100Y-104503685D01*
X141995883Y-104503685D01*
X142037955Y-104310653D01*
X142038655Y-104304691D01*
X142040394Y-104298940D01*
X142042072Y-104290163D01*
X142124950Y-103839674D01*
X142125422Y-103834078D01*
X142126878Y-103828654D01*
X142128279Y-103819828D01*
X142198343Y-103357792D01*
X142198620Y-103352551D01*
X142199826Y-103347443D01*
X142200959Y-103338579D01*
X142258124Y-102865279D01*
X142258234Y-102860379D01*
X142259222Y-102855572D01*
X142260096Y-102846679D01*
X142304273Y-102362400D01*
X142304269Y-102361868D01*
X142304369Y-102361342D01*
X142305103Y-102352436D01*
X142306100Y-102339228D01*
X142306097Y-102339075D01*
X142306450Y-102334346D01*
X142312068Y-102251487D01*
X142312064Y-102251340D01*
X142312431Y-102245759D01*
X142318339Y-102145281D01*
X142318333Y-102145122D01*
X142318557Y-102141355D01*
X142324720Y-102024266D01*
X142324714Y-102024137D01*
X142324865Y-102021401D01*
X142331253Y-101888711D01*
X142331247Y-101888593D01*
X142331355Y-101886500D01*
X142337935Y-101739215D01*
X142337930Y-101739121D01*
X142338012Y-101737442D01*
X142344752Y-101576572D01*
X142344747Y-101576490D01*
X142344812Y-101575103D01*
X142351680Y-101401656D01*
X142351676Y-101401581D01*
X142351728Y-101400407D01*
X142358692Y-101215391D01*
X142358688Y-101215324D01*
X142358732Y-101214298D01*
X142365759Y-101018721D01*
X142365755Y-101018662D01*
X142365793Y-101017752D01*
X142372852Y-100812623D01*
X142372849Y-100812572D01*
X142372882Y-100811741D01*
X142379940Y-100598067D01*
X142379937Y-100598023D01*
X142379967Y-100597253D01*
X142386992Y-100376044D01*
X142386988Y-100375989D01*
X142387015Y-100375280D01*
X142393975Y-100147544D01*
X142393972Y-100147500D01*
X142393997Y-100146815D01*
X142400860Y-99913560D01*
X142400857Y-99913514D01*
X142400880Y-99912857D01*
X142407614Y-99675090D01*
X142407612Y-99675055D01*
X142407634Y-99674400D01*
X142414207Y-99433131D01*
X142414204Y-99433085D01*
X142414225Y-99432444D01*
X142420604Y-99188682D01*
X142420601Y-99188642D01*
X142420622Y-99187991D01*
X142426775Y-98942742D01*
X142426772Y-98942697D01*
X142426792Y-98942042D01*
X142432688Y-98696315D01*
X142432685Y-98696271D01*
X142432705Y-98695592D01*
X142438311Y-98450396D01*
X142438308Y-98450351D01*
X142438328Y-98449640D01*
X142443611Y-98205983D01*
X142443607Y-98205929D01*
X142443627Y-98205192D01*
X142448557Y-97964083D01*
X142448553Y-97964034D01*
X142448574Y-97963236D01*
X142453117Y-97725682D01*
X142453114Y-97725641D01*
X142453129Y-97725033D01*
X142454608Y-97643367D01*
X142454605Y-97643324D01*
X142454622Y-97642598D01*
X142458919Y-97388471D01*
X142458914Y-97388409D01*
X142458935Y-97387464D01*
X142463110Y-97115213D01*
X142463106Y-97115163D01*
X142463123Y-97114344D01*
X142467174Y-96824488D01*
X142467170Y-96824439D01*
X142467184Y-96823725D01*
X142471108Y-96516780D01*
X142471104Y-96516735D01*
X142471116Y-96516102D01*
X142474909Y-96192585D01*
X142474906Y-96192549D01*
X142474916Y-96191980D01*
X142478576Y-95852407D01*
X142478573Y-95852376D01*
X142478582Y-95851859D01*
X142482105Y-95496750D01*
X142482102Y-95496712D01*
X142482109Y-95496253D01*
X142485494Y-95126121D01*
X142485491Y-95126092D01*
X142485498Y-95125662D01*
X142488740Y-94741026D01*
X142488738Y-94741005D01*
X142488744Y-94740606D01*
X142491842Y-94341983D01*
X142491840Y-94341958D01*
X142491845Y-94341589D01*
X142494794Y-93929494D01*
X142494791Y-93929466D01*
X142494796Y-93929129D01*
X142497595Y-93504083D01*
X142497593Y-93504059D01*
X142497597Y-93503737D01*
X142500242Y-93066253D01*
X142500240Y-93066234D01*
X142500244Y-93065929D01*
X142502733Y-92616525D01*
X142502732Y-92616509D01*
X142502735Y-92616217D01*
X142505065Y-92155411D01*
X142505063Y-92155388D01*
X142505066Y-92155115D01*
X142507233Y-91683423D01*
X142507231Y-91683403D01*
X142507234Y-91683140D01*
X142509235Y-91201079D01*
X142509234Y-91201070D01*
X142509237Y-91200808D01*
X142511071Y-90708897D01*
X142511069Y-90708871D01*
X142511071Y-90708632D01*
X142512733Y-90207384D01*
X142512732Y-90207370D01*
X142512734Y-90207130D01*
X142514223Y-89697065D01*
X142514222Y-89697052D01*
X142514224Y-89696816D01*
X142515535Y-89178449D01*
X142515534Y-89178437D01*
X142515536Y-89178208D01*
X142516668Y-88652057D01*
X142516666Y-88652037D01*
X142516668Y-88651819D01*
X142517617Y-88118401D01*
X142517615Y-88118383D01*
X142517617Y-88118168D01*
X142518381Y-87578000D01*
X142518380Y-87577992D01*
X142518382Y-87577768D01*
X142518957Y-87031368D01*
X142518955Y-87031351D01*
X142518957Y-87031138D01*
X142519340Y-86479020D01*
X142519338Y-86479004D01*
X142519340Y-86478794D01*
X142519469Y-86100670D01*
X142777436Y-86487976D01*
G04 #@! TA.AperFunction,Conductor*
D16*
G36*
X142777436Y-86487976D02*
G01*
X142782252Y-86493867D01*
X142785990Y-86500495D01*
X142791170Y-86507777D01*
X143083472Y-86912715D01*
X143088497Y-86918410D01*
X143092474Y-86924880D01*
X143097924Y-86931962D01*
X143405634Y-87326121D01*
X143410845Y-87331597D01*
X143415044Y-87337887D01*
X143420756Y-87344760D01*
X143743774Y-87727989D01*
X143745236Y-87729414D01*
X143746401Y-87731085D01*
X143752251Y-87737840D01*
X143780487Y-87769991D01*
X143781989Y-87771397D01*
X143783205Y-87773067D01*
X143789192Y-87779702D01*
X144124561Y-88146230D01*
X144130173Y-88151273D01*
X144134842Y-88157205D01*
X144141073Y-88163611D01*
X144489175Y-88516552D01*
X144494944Y-88521358D01*
X144499806Y-88527082D01*
X144506271Y-88533251D01*
X144866633Y-88872315D01*
X144872555Y-88876885D01*
X144877606Y-88882401D01*
X144884297Y-88888324D01*
X145256451Y-89213221D01*
X145262512Y-89217548D01*
X145267751Y-89222859D01*
X145274658Y-89228530D01*
X145658130Y-89538969D01*
X145664337Y-89543061D01*
X145669753Y-89548158D01*
X145676865Y-89553569D01*
X146071186Y-89849260D01*
X146077530Y-89853112D01*
X146083124Y-89857999D01*
X146090432Y-89863142D01*
X146495131Y-90143795D01*
X146501611Y-90147408D01*
X146507377Y-90152080D01*
X146514870Y-90156949D01*
X146929475Y-90422274D01*
X146936089Y-90425646D01*
X146942026Y-90430103D01*
X146949695Y-90434691D01*
X147373735Y-90684397D01*
X147380477Y-90687526D01*
X147386586Y-90691766D01*
X147394420Y-90696066D01*
X147827425Y-90929864D01*
X147834294Y-90932747D01*
X147840573Y-90936768D01*
X147848561Y-90940774D01*
X148290060Y-91158371D01*
X148297056Y-91161006D01*
X148303500Y-91164802D01*
X148311632Y-91168508D01*
X148761153Y-91369616D01*
X148768276Y-91372000D01*
X148774882Y-91375566D01*
X148783146Y-91378966D01*
X149240219Y-91563295D01*
X149247459Y-91565421D01*
X149254234Y-91568757D01*
X149262620Y-91571845D01*
X149726774Y-91739103D01*
X149734134Y-91740968D01*
X149741066Y-91744063D01*
X149749562Y-91746834D01*
X150220326Y-91896732D01*
X150227796Y-91898328D01*
X150234888Y-91901179D01*
X150243483Y-91903626D01*
X150720385Y-92035874D01*
X150725069Y-92036691D01*
X150729543Y-92038342D01*
X150738205Y-92040541D01*
X151008665Y-92107222D01*
X151012451Y-92107771D01*
X151016074Y-92109002D01*
X151024789Y-92110977D01*
X151441083Y-92202259D01*
X151446998Y-92202961D01*
X151452697Y-92204693D01*
X151461472Y-92206383D01*
X151877403Y-92283511D01*
X151883493Y-92284034D01*
X151889403Y-92285619D01*
X151898229Y-92287019D01*
X152316769Y-92350426D01*
X152322789Y-92350743D01*
X152328658Y-92352113D01*
X152337525Y-92353224D01*
X152761646Y-92403343D01*
X152767351Y-92403456D01*
X152772942Y-92404576D01*
X152781839Y-92405405D01*
X153214515Y-92442667D01*
X153219680Y-92442606D01*
X153224776Y-92443468D01*
X153233695Y-92444029D01*
X153677897Y-92468869D01*
X153678960Y-92468824D01*
X153680013Y-92468984D01*
X153688940Y-92469391D01*
X153713133Y-92470325D01*
X153713265Y-92470317D01*
X153719572Y-92470541D01*
X153804504Y-92472964D01*
X153804618Y-92472956D01*
X153811364Y-92473123D01*
X153909502Y-92474870D01*
X153909658Y-92474858D01*
X153914448Y-92474939D01*
X154022884Y-92476031D01*
X154023043Y-92476017D01*
X154026782Y-92476058D01*
X154142603Y-92476519D01*
X154142744Y-92476506D01*
X154145948Y-92476524D01*
X154266244Y-92476374D01*
X154266391Y-92476359D01*
X154269311Y-92476362D01*
X154391172Y-92475626D01*
X154391305Y-92475612D01*
X154394226Y-92475601D01*
X154514741Y-92474298D01*
X154514891Y-92474282D01*
X154517977Y-92474254D01*
X154634236Y-92472409D01*
X154634381Y-92472392D01*
X154637957Y-92472340D01*
X154747049Y-92469974D01*
X154747212Y-92469954D01*
X154751676Y-92469856D01*
X154850688Y-92466992D01*
X154850813Y-92466976D01*
X154857022Y-92466778D01*
X154943046Y-92463437D01*
X154943453Y-92463381D01*
X154943866Y-92463405D01*
X154952793Y-92462984D01*
X155022588Y-92459207D01*
X155022592Y-92459207D01*
X155022647Y-92459204D01*
X155022918Y-92459189D01*
X155022937Y-92459186D01*
X155031512Y-92458666D01*
X155123199Y-92452466D01*
X155123354Y-92452440D01*
X155128344Y-92452097D01*
X155361927Y-92434410D01*
X155361932Y-92434410D01*
X155362014Y-92434403D01*
X155362308Y-92434381D01*
X155362329Y-92434377D01*
X155370838Y-92433678D01*
X155591614Y-92413988D01*
X155591935Y-92413927D01*
X155592268Y-92413930D01*
X155601162Y-92413064D01*
X155812812Y-92390986D01*
X155813418Y-92390862D01*
X155814045Y-92390857D01*
X155822924Y-92389850D01*
X156029504Y-92364975D01*
X156030122Y-92364838D01*
X156030762Y-92364823D01*
X156039624Y-92363675D01*
X156245195Y-92335589D01*
X156245334Y-92335556D01*
X156250966Y-92334774D01*
X156286817Y-92329543D01*
X156288770Y-92329060D01*
X156290782Y-92328952D01*
X156299607Y-92327545D01*
X156789317Y-92245944D01*
X156796665Y-92243967D01*
X156804240Y-92243275D01*
X156813005Y-92241537D01*
X157298330Y-92141759D01*
X157305568Y-92139516D01*
X157313077Y-92138545D01*
X157321771Y-92136479D01*
X157802223Y-92018745D01*
X157809342Y-92016242D01*
X157816784Y-92014995D01*
X157825394Y-92012604D01*
X158300485Y-91877137D01*
X158307481Y-91874379D01*
X158314849Y-91872859D01*
X158323364Y-91870148D01*
X158792608Y-91717167D01*
X158799481Y-91714156D01*
X158806768Y-91712367D01*
X158815176Y-91709340D01*
X159278081Y-91539066D01*
X159284823Y-91535808D01*
X159292024Y-91533752D01*
X159300314Y-91530414D01*
X159756394Y-91343070D01*
X159762999Y-91339568D01*
X159770118Y-91337246D01*
X159778277Y-91333602D01*
X160227045Y-91129408D01*
X160233518Y-91125661D01*
X160240538Y-91123078D01*
X160248556Y-91119132D01*
X160689524Y-90898309D01*
X160695852Y-90894324D01*
X160702777Y-90891479D01*
X160710642Y-90887237D01*
X161143321Y-90650007D01*
X161149508Y-90645781D01*
X161156326Y-90642678D01*
X161164028Y-90638146D01*
X161587932Y-90384730D01*
X161593964Y-90380271D01*
X161600681Y-90376906D01*
X161608208Y-90372089D01*
X162022847Y-90102708D01*
X162028723Y-90098016D01*
X162035327Y-90094392D01*
X162042669Y-90089297D01*
X162447556Y-89804173D01*
X162453274Y-89799245D01*
X162459756Y-89795366D01*
X162466902Y-89790000D01*
X162861549Y-89489353D01*
X162867102Y-89484193D01*
X162873456Y-89480058D01*
X162880395Y-89474428D01*
X163264314Y-89158479D01*
X163266797Y-89155991D01*
X163269698Y-89153999D01*
X163276495Y-89148197D01*
X163399375Y-89041830D01*
X163401775Y-89039303D01*
X163404609Y-89037251D01*
X163411259Y-89031282D01*
X163780223Y-88695521D01*
X163785273Y-88689931D01*
X163791204Y-88685290D01*
X163797627Y-88679077D01*
X164153183Y-88330327D01*
X164158005Y-88324571D01*
X164163747Y-88319721D01*
X164169933Y-88313273D01*
X164511758Y-87951974D01*
X164516353Y-87946052D01*
X164521896Y-87941005D01*
X164527838Y-87934330D01*
X164855611Y-87560922D01*
X164859976Y-87554842D01*
X164865323Y-87549595D01*
X164871011Y-87542703D01*
X165184410Y-87157623D01*
X165188545Y-87151386D01*
X165193687Y-87145949D01*
X165199115Y-87138850D01*
X165497816Y-86742539D01*
X165501716Y-86736151D01*
X165506656Y-86730522D01*
X165511816Y-86723226D01*
X165795497Y-86316122D01*
X165799161Y-86309585D01*
X165803893Y-86303769D01*
X165808777Y-86296286D01*
X165888831Y-86171745D01*
X165889302Y-86414490D01*
X165889302Y-86414505D01*
X165889806Y-86676068D01*
X165889806Y-86676126D01*
X165890322Y-86946880D01*
X165890322Y-86946955D01*
X165890849Y-87226453D01*
X165891388Y-87514074D01*
X165891936Y-87809283D01*
X165892493Y-88111538D01*
X165893057Y-88420299D01*
X165893627Y-88735029D01*
X165894203Y-89055185D01*
X165894783Y-89380231D01*
X165895367Y-89709620D01*
X165895638Y-89863986D01*
X165885243Y-89859680D01*
X165696315Y-89822100D01*
X165503685Y-89822100D01*
X165314757Y-89859680D01*
X165136790Y-89933396D01*
X164976625Y-90040415D01*
X164840415Y-90176625D01*
X164733396Y-90336790D01*
X164659680Y-90514757D01*
X164622100Y-90703685D01*
X164622100Y-90896315D01*
X164651266Y-91042945D01*
X164372112Y-91322100D01*
X164303685Y-91322100D01*
X164114757Y-91359680D01*
X163936790Y-91433396D01*
X163776625Y-91540415D01*
X163750000Y-91567040D01*
X163723375Y-91540415D01*
X163563210Y-91433396D01*
X163385243Y-91359680D01*
X163196315Y-91322100D01*
X163003685Y-91322100D01*
X162814757Y-91359680D01*
X162636790Y-91433396D01*
X162476625Y-91540415D01*
X162340415Y-91676625D01*
X162233396Y-91836790D01*
X162159680Y-92014757D01*
X162122100Y-92203685D01*
X162122100Y-92396315D01*
X162159680Y-92585243D01*
X162233396Y-92763210D01*
X162340415Y-92923375D01*
X162388800Y-92971760D01*
X162388801Y-94628239D01*
X162340415Y-94676625D01*
X162233396Y-94836790D01*
X162159680Y-95014757D01*
X162122100Y-95203685D01*
X162122100Y-95396315D01*
X162159680Y-95585243D01*
X162233396Y-95763210D01*
X162340415Y-95923375D01*
X162476625Y-96059585D01*
X162636790Y-96166604D01*
X162814757Y-96240320D01*
X163003685Y-96277900D01*
X163196315Y-96277900D01*
X163385243Y-96240320D01*
X163563210Y-96166604D01*
X163723375Y-96059585D01*
X163859585Y-95923375D01*
X163966604Y-95763210D01*
X164040320Y-95585243D01*
X164077900Y-95396315D01*
X164077900Y-95203685D01*
X164040320Y-95014757D01*
X163966604Y-94836790D01*
X163859585Y-94676625D01*
X163811200Y-94628240D01*
X163811200Y-93082687D01*
X163936790Y-93166604D01*
X164114757Y-93240320D01*
X164303685Y-93277900D01*
X164496315Y-93277900D01*
X164685243Y-93240320D01*
X164863210Y-93166604D01*
X165023375Y-93059585D01*
X165159585Y-92923375D01*
X165266604Y-92763210D01*
X165340320Y-92585243D01*
X165377900Y-92396315D01*
X165377900Y-92327888D01*
X165899225Y-91806564D01*
X165899525Y-91959770D01*
X165899525Y-91959819D01*
X165900510Y-92444173D01*
X165900510Y-92444228D01*
X165901499Y-92910523D01*
X165901500Y-92910535D01*
X165901500Y-92910580D01*
X165902491Y-93358977D01*
X165902491Y-93359043D01*
X165903487Y-93789706D01*
X165903487Y-93789775D01*
X165904487Y-94202866D01*
X165904487Y-94202943D01*
X165905492Y-94598624D01*
X165905492Y-94598710D01*
X165906504Y-94977146D01*
X165906505Y-94977159D01*
X165906505Y-94977238D01*
X165907523Y-95338590D01*
X165907523Y-95338692D01*
X165908548Y-95683124D01*
X165908548Y-95683237D01*
X165909196Y-95888800D01*
X165346128Y-95888800D01*
X165263210Y-95833396D01*
X165085243Y-95759680D01*
X164896315Y-95722100D01*
X164703685Y-95722100D01*
X164514757Y-95759680D01*
X164336790Y-95833396D01*
X164176625Y-95940415D01*
X164040415Y-96076625D01*
X163933396Y-96236790D01*
X163859680Y-96414757D01*
X163822100Y-96603685D01*
X163822100Y-96796315D01*
X163859680Y-96985243D01*
X163933396Y-97163210D01*
X164040415Y-97323375D01*
X164176625Y-97459585D01*
X164336790Y-97566604D01*
X164514757Y-97640320D01*
X164703685Y-97677900D01*
X164896315Y-97677900D01*
X165085243Y-97640320D01*
X165263210Y-97566604D01*
X165423375Y-97459585D01*
X165559585Y-97323375D01*
X165567720Y-97311200D01*
X165914481Y-97311200D01*
X165914890Y-97404404D01*
X165914891Y-97404418D01*
X165914891Y-97404630D01*
X165915985Y-97635176D01*
X165915986Y-97635190D01*
X165915986Y-97635435D01*
X165917093Y-97850361D01*
X165917095Y-97850384D01*
X165917095Y-97850655D01*
X165918214Y-98050126D01*
X165918216Y-98050148D01*
X165918216Y-98050476D01*
X165919350Y-98234654D01*
X165919353Y-98234683D01*
X165919353Y-98235056D01*
X165920500Y-98404104D01*
X165920503Y-98404130D01*
X165920503Y-98404593D01*
X165921666Y-98558673D01*
X165921670Y-98558712D01*
X165921671Y-98559256D01*
X165922849Y-98698531D01*
X165922853Y-98698571D01*
X165922855Y-98699254D01*
X165924050Y-98823888D01*
X165924057Y-98823948D01*
X165924060Y-98824793D01*
X165925272Y-98934949D01*
X165925279Y-98935018D01*
X165925286Y-98936114D01*
X165926515Y-99031952D01*
X165926525Y-99032039D01*
X165926537Y-99033514D01*
X165927784Y-99115200D01*
X165927796Y-99115309D01*
X165927821Y-99117407D01*
X165929088Y-99185101D01*
X165929105Y-99185244D01*
X165929158Y-99188399D01*
X165930444Y-99242265D01*
X165930462Y-99242415D01*
X165930599Y-99247771D01*
X165931905Y-99287971D01*
X165932039Y-99288997D01*
X165931975Y-99290034D01*
X165932357Y-99298962D01*
X165933684Y-99325660D01*
X165933796Y-99326413D01*
X165933761Y-99327176D01*
X165934288Y-99336097D01*
X165934651Y-99341591D01*
X165938424Y-99404429D01*
X165942722Y-99485389D01*
X165947543Y-99584594D01*
X165952780Y-99699945D01*
X165958412Y-99831000D01*
X165964329Y-99975234D01*
X165970554Y-100133222D01*
X165977044Y-100304023D01*
X165983666Y-100484226D01*
X165983667Y-100484275D01*
X165990490Y-100675860D01*
X165993043Y-100748110D01*
X165993051Y-100748172D01*
X165993078Y-100749066D01*
X166003325Y-101027275D01*
X166003337Y-101027366D01*
X166003392Y-101029045D01*
X166013726Y-101289975D01*
X166013741Y-101290085D01*
X166013813Y-101292083D01*
X166024320Y-101536957D01*
X166024337Y-101537079D01*
X166024432Y-101539454D01*
X166035203Y-101769504D01*
X166035223Y-101769638D01*
X166035346Y-101772417D01*
X166046469Y-101988869D01*
X166046492Y-101989019D01*
X166046651Y-101992224D01*
X166058213Y-102196306D01*
X166058236Y-102196452D01*
X166058441Y-102200138D01*
X166070533Y-102393077D01*
X166070558Y-102393232D01*
X166070817Y-102397378D01*
X166083526Y-102580402D01*
X166083553Y-102580564D01*
X166083876Y-102585174D01*
X166097292Y-102759509D01*
X166097318Y-102759657D01*
X166097713Y-102764705D01*
X166111923Y-102931582D01*
X166111950Y-102931727D01*
X166112421Y-102937147D01*
X166127514Y-103097791D01*
X166127542Y-103097936D01*
X166128091Y-103103640D01*
X166144157Y-103259279D01*
X166144185Y-103259415D01*
X166144805Y-103265280D01*
X166161930Y-103417143D01*
X166161958Y-103417273D01*
X166162639Y-103423179D01*
X166180914Y-103572492D01*
X166180946Y-103572637D01*
X166181666Y-103578401D01*
X166201179Y-103726393D01*
X166201213Y-103726537D01*
X166201947Y-103732027D01*
X166222786Y-103879925D01*
X166223037Y-103880963D01*
X166223086Y-103882028D01*
X166224424Y-103890864D01*
X166278785Y-104233679D01*
X166280115Y-104238782D01*
X166280516Y-104244050D01*
X166282122Y-104252841D01*
X166360323Y-104664667D01*
X166362272Y-104671311D01*
X166363043Y-104678196D01*
X166364961Y-104686924D01*
X166455366Y-105085254D01*
X166457742Y-105092403D01*
X166458861Y-105099860D01*
X166461103Y-105108510D01*
X166563890Y-105493950D01*
X166566729Y-105501531D01*
X166568244Y-105509490D01*
X166570823Y-105518046D01*
X166686166Y-105891200D01*
X166689495Y-105899128D01*
X166691444Y-105907497D01*
X166694370Y-105915941D01*
X166822444Y-106277409D01*
X166826270Y-106285572D01*
X166828680Y-106294253D01*
X166831958Y-106302567D01*
X166972943Y-106652954D01*
X166977251Y-106661223D01*
X166980133Y-106670102D01*
X166983766Y-106678266D01*
X167137834Y-107018177D01*
X167142337Y-107025982D01*
X167145475Y-107034424D01*
X167149447Y-107042429D01*
X167255983Y-107253422D01*
X167261274Y-107261763D01*
X167265128Y-107270862D01*
X167269454Y-107278681D01*
X167425631Y-107556378D01*
X167431827Y-107565243D01*
X167436518Y-107574996D01*
X167441212Y-107582600D01*
X167614505Y-107859020D01*
X167620564Y-107866864D01*
X167625257Y-107875597D01*
X167630287Y-107882983D01*
X167819735Y-108157058D01*
X167825668Y-108164065D01*
X167830358Y-108171967D01*
X167835698Y-108179132D01*
X168040341Y-108449794D01*
X168046181Y-108456125D01*
X168050882Y-108463355D01*
X168056510Y-108470296D01*
X168275388Y-108736478D01*
X168281186Y-108742270D01*
X168285920Y-108748958D01*
X168291818Y-108755672D01*
X168523967Y-109016303D01*
X168529775Y-109021664D01*
X168534589Y-109027937D01*
X168540741Y-109034419D01*
X168785206Y-109288433D01*
X168791089Y-109293457D01*
X168796029Y-109299411D01*
X168802423Y-109305654D01*
X169058240Y-109551981D01*
X169064265Y-109556742D01*
X169069393Y-109562467D01*
X169076019Y-109568463D01*
X169342229Y-109806037D01*
X169348479Y-109810602D01*
X169353861Y-109816169D01*
X169360710Y-109821909D01*
X169636351Y-110049661D01*
X169642910Y-110054080D01*
X169648627Y-110059553D01*
X169655693Y-110065024D01*
X169939807Y-110281886D01*
X169946770Y-110286195D01*
X169952906Y-110291623D01*
X169960182Y-110296811D01*
X170251806Y-110501714D01*
X170254967Y-110503502D01*
X170257750Y-110505841D01*
X170265155Y-110510843D01*
X170313446Y-110542983D01*
X170313574Y-110543051D01*
X170318522Y-110546326D01*
X170396745Y-110597321D01*
X170396878Y-110597390D01*
X170401068Y-110600115D01*
X170488299Y-110655988D01*
X170488437Y-110656059D01*
X170491718Y-110658163D01*
X170584873Y-110717002D01*
X170585005Y-110717068D01*
X170587856Y-110718875D01*
X170683849Y-110778769D01*
X170683978Y-110778833D01*
X170686720Y-110780550D01*
X170782466Y-110839591D01*
X170782597Y-110839655D01*
X170785514Y-110841459D01*
X170877926Y-110897734D01*
X170878067Y-110897802D01*
X170881501Y-110899895D01*
X170967496Y-110951496D01*
X170967630Y-110951560D01*
X170972201Y-110954292D01*
X171048692Y-110999305D01*
X171048738Y-110999326D01*
X171055737Y-111003391D01*
X171119639Y-111039909D01*
X171120359Y-111040232D01*
X171121004Y-111040687D01*
X171128804Y-111045047D01*
X171231000Y-111101243D01*
X171231778Y-111101577D01*
X171232485Y-111102058D01*
X171240357Y-111106288D01*
X171421322Y-111201919D01*
X171422541Y-111202418D01*
X171423647Y-111203142D01*
X171431594Y-111207229D01*
X171622118Y-111303549D01*
X171622953Y-111303873D01*
X171623718Y-111304356D01*
X171631732Y-111308309D01*
X171826446Y-111402683D01*
X171827336Y-111403011D01*
X171828148Y-111403505D01*
X171836228Y-111407322D01*
X172029766Y-111497116D01*
X172031154Y-111497602D01*
X172032426Y-111498343D01*
X172040575Y-111502010D01*
X172227566Y-111584587D01*
X172227597Y-111584597D01*
X172235303Y-111587943D01*
X172320661Y-111624302D01*
X172320809Y-111624349D01*
X172324999Y-111626131D01*
X172428712Y-111669410D01*
X172428840Y-111669449D01*
X172434509Y-111671796D01*
X172535492Y-111712779D01*
X172535594Y-111712809D01*
X172541966Y-111715366D01*
X172642813Y-111755019D01*
X172642906Y-111755046D01*
X172649484Y-111757600D01*
X172752786Y-111796892D01*
X172752900Y-111796923D01*
X172759169Y-111799281D01*
X172867520Y-111839178D01*
X172867656Y-111839213D01*
X172873215Y-111841244D01*
X172989207Y-111882712D01*
X172989358Y-111882750D01*
X172993971Y-111884394D01*
X173120197Y-111928400D01*
X173120346Y-111928436D01*
X173123960Y-111929699D01*
X173263012Y-111977209D01*
X173263144Y-111977240D01*
X173265813Y-111978159D01*
X173420285Y-112030141D01*
X173420441Y-112030177D01*
X173424515Y-112031548D01*
X173512922Y-112060614D01*
X173514414Y-112060948D01*
X173515828Y-112061563D01*
X173524350Y-112064253D01*
X173791498Y-112146571D01*
X173794929Y-112147271D01*
X173798183Y-112148592D01*
X173806769Y-112151070D01*
X174088689Y-112230318D01*
X174091312Y-112230785D01*
X174093798Y-112231731D01*
X174102437Y-112234018D01*
X174396226Y-112309593D01*
X174398305Y-112309916D01*
X174400288Y-112310624D01*
X174408972Y-112312732D01*
X174711726Y-112384026D01*
X174713471Y-112384260D01*
X174715149Y-112384823D01*
X174723872Y-112386762D01*
X175032688Y-112453171D01*
X175034287Y-112453354D01*
X175035826Y-112453838D01*
X175044584Y-112455612D01*
X175356559Y-112516531D01*
X175358180Y-112516686D01*
X175359745Y-112517145D01*
X175368535Y-112518751D01*
X175680764Y-112573573D01*
X175682570Y-112573711D01*
X175684323Y-112574188D01*
X175693144Y-112575622D01*
X176002726Y-112623743D01*
X176004904Y-112623866D01*
X176007026Y-112624397D01*
X176015874Y-112625647D01*
X176289932Y-112662438D01*
X176290080Y-112703411D01*
X176290416Y-112832010D01*
X176290679Y-112975983D01*
X176290679Y-112976022D01*
X176290876Y-113136116D01*
X176291010Y-113312983D01*
X176291087Y-113507236D01*
X176291087Y-113507308D01*
X176291111Y-113719781D01*
X176291111Y-114707630D01*
X165651471Y-114707630D01*
X165723375Y-114659585D01*
X165859585Y-114523375D01*
X165966604Y-114363210D01*
X166040320Y-114185243D01*
X166077900Y-113996315D01*
X166077900Y-113803685D01*
X166040320Y-113614757D01*
X165966604Y-113436790D01*
X165911200Y-113353872D01*
X165911200Y-111271760D01*
X165959585Y-111223375D01*
X166066604Y-111063210D01*
X166140320Y-110885243D01*
X166177900Y-110696315D01*
X166177900Y-110503685D01*
X166140320Y-110314757D01*
X166066604Y-110136790D01*
X165959585Y-109976625D01*
X165823375Y-109840415D01*
X165663210Y-109733396D01*
X165485243Y-109659680D01*
X165296315Y-109622100D01*
X165103685Y-109622100D01*
X164914757Y-109659680D01*
X164736790Y-109733396D01*
X164576625Y-109840415D01*
X164440415Y-109976625D01*
X164333396Y-110136790D01*
X164259680Y-110314757D01*
X164222100Y-110503685D01*
X164222100Y-110696315D01*
X164259680Y-110885243D01*
X164333396Y-111063210D01*
X164440415Y-111223375D01*
X164488801Y-111271761D01*
X164488800Y-113132280D01*
X164476625Y-113140415D01*
X164340415Y-113276625D01*
X164233396Y-113436790D01*
X164159680Y-113614757D01*
X164122100Y-113803685D01*
X164122100Y-113996315D01*
X164159680Y-114185243D01*
X164233396Y-114363210D01*
X164340415Y-114523375D01*
X164476625Y-114659585D01*
X164548529Y-114707630D01*
X132170957Y-114707630D01*
X132170952Y-114150531D01*
X132170951Y-114150523D01*
X132170952Y-114150410D01*
X132170934Y-114059840D01*
X132170932Y-114059821D01*
X132170934Y-114059516D01*
X132170822Y-113900502D01*
X132170819Y-113900472D01*
X132170821Y-113900120D01*
X132170614Y-113741025D01*
X132170612Y-113741007D01*
X132170614Y-113740659D01*
X132170319Y-113583201D01*
X132170316Y-113583175D01*
X132170318Y-113582826D01*
X132169939Y-113428724D01*
X132169937Y-113428700D01*
X132169938Y-113428349D01*
X132169484Y-113279318D01*
X132169482Y-113279296D01*
X132169483Y-113278910D01*
X132168959Y-113136670D01*
X132168956Y-113136640D01*
X132168957Y-113136223D01*
X132168371Y-113002493D01*
X132168367Y-113002456D01*
X132168368Y-113001965D01*
X132167725Y-112878460D01*
X132167722Y-112878426D01*
X132167722Y-112877822D01*
X132167030Y-112766261D01*
X132167024Y-112766208D01*
X132167024Y-112765426D01*
X132166401Y-112682500D01*
X132588930Y-112635623D01*
X132593930Y-112634567D01*
X132599041Y-112634420D01*
X132607898Y-112633232D01*
X133072475Y-112567590D01*
X133077933Y-112566265D01*
X133083539Y-112565928D01*
X133092354Y-112564462D01*
X133544623Y-112485985D01*
X133550493Y-112484363D01*
X133556553Y-112483798D01*
X133565315Y-112482042D01*
X134005936Y-112390556D01*
X134012154Y-112388616D01*
X134018624Y-112387788D01*
X134027321Y-112385733D01*
X134456953Y-112281062D01*
X134463454Y-112278786D01*
X134470255Y-112277670D01*
X134478873Y-112275309D01*
X134898175Y-112157281D01*
X134904880Y-112154664D01*
X134911939Y-112153240D01*
X134920466Y-112150566D01*
X135330097Y-112019005D01*
X135336913Y-112016055D01*
X135344142Y-112014315D01*
X135352563Y-112011327D01*
X135753183Y-111866059D01*
X135760022Y-111862792D01*
X135767321Y-111860743D01*
X135775624Y-111857441D01*
X136167890Y-111698291D01*
X136174648Y-111694745D01*
X136181924Y-111692403D01*
X136190097Y-111688789D01*
X136574672Y-111515584D01*
X136581268Y-111511799D01*
X136588417Y-111509197D01*
X136596449Y-111505279D01*
X136973988Y-111317843D01*
X136977411Y-111315704D01*
X136981171Y-111314221D01*
X136989095Y-111310091D01*
X137131378Y-111234683D01*
X137132421Y-111233992D01*
X137133577Y-111233512D01*
X137141427Y-111229241D01*
X137292679Y-111145586D01*
X137294370Y-111144422D01*
X137296257Y-111143593D01*
X137304018Y-111139163D01*
X137452057Y-111053303D01*
X137453954Y-111051939D01*
X137456080Y-111050951D01*
X137463745Y-111046357D01*
X137610658Y-110956927D01*
X137612512Y-110955533D01*
X137614595Y-110954511D01*
X137622162Y-110949756D01*
X137770034Y-110855392D01*
X137771618Y-110854148D01*
X137773414Y-110853221D01*
X137780882Y-110848314D01*
X137931802Y-110747649D01*
X137932943Y-110746715D01*
X137934247Y-110746011D01*
X137941623Y-110740966D01*
X138097677Y-110632639D01*
X138098279Y-110632128D01*
X138098962Y-110631744D01*
X138106255Y-110626579D01*
X138269530Y-110509222D01*
X138269538Y-110509215D01*
X138269552Y-110509207D01*
X138276771Y-110503940D01*
X138449353Y-110376190D01*
X138449421Y-110376129D01*
X138455282Y-110371748D01*
X138639259Y-110232238D01*
X138642188Y-110229528D01*
X138645566Y-110227394D01*
X138652580Y-110221857D01*
X138923345Y-110005048D01*
X138930678Y-109997896D01*
X138939085Y-109992028D01*
X138945838Y-109986175D01*
X139219506Y-109745635D01*
X139227193Y-109737416D01*
X139236097Y-109730529D01*
X139242555Y-109724352D01*
X139501517Y-109473201D01*
X139508973Y-109464403D01*
X139517733Y-109456899D01*
X139523875Y-109450408D01*
X139769187Y-109187514D01*
X139776195Y-109178354D01*
X139784569Y-109170424D01*
X139790380Y-109163635D01*
X140023095Y-108887863D01*
X140029474Y-108878602D01*
X140037255Y-108870475D01*
X140042725Y-108863410D01*
X140263900Y-108573626D01*
X140269532Y-108564526D01*
X140276561Y-108556452D01*
X140281692Y-108549135D01*
X140492381Y-108244205D01*
X140496249Y-108237238D01*
X140501243Y-108231032D01*
X140506086Y-108223523D01*
X140644675Y-108005317D01*
X140648254Y-107998237D01*
X140652985Y-107991869D01*
X140657535Y-107984177D01*
X140851833Y-107650414D01*
X140855924Y-107641480D01*
X140861427Y-107633338D01*
X140865629Y-107625452D01*
X141047893Y-107277582D01*
X141051383Y-107268966D01*
X141056255Y-107261045D01*
X141060115Y-107252985D01*
X141230260Y-106891292D01*
X141233203Y-106883025D01*
X141237490Y-106875362D01*
X141241014Y-106867150D01*
X141398952Y-106491920D01*
X141401400Y-106484026D01*
X141405149Y-106476652D01*
X141408344Y-106468306D01*
X141553990Y-106079822D01*
X141555996Y-106072309D01*
X141559255Y-106065245D01*
X141562129Y-106056784D01*
X141695394Y-105655330D01*
X141697008Y-105648206D01*
X141699821Y-105641468D01*
X141702383Y-105632907D01*
X141823181Y-105218768D01*
X141824448Y-105212040D01*
X141826862Y-105205630D01*
X141829120Y-105196984D01*
X141937365Y-104770445D01*
X141938328Y-104764105D01*
X141940385Y-104758027D01*
X141942349Y-104749309D01*
X141995883Y-104503685D01*
X153222100Y-104503685D01*
X153222100Y-104696315D01*
X153259680Y-104885243D01*
X153333396Y-105063210D01*
X153440415Y-105223375D01*
X153576625Y-105359585D01*
X153736790Y-105466604D01*
X153860690Y-105517925D01*
X155040501Y-106697736D01*
X155068341Y-106731659D01*
X155203709Y-106842753D01*
X155358149Y-106925303D01*
X155411907Y-106941610D01*
X155525724Y-106976136D01*
X155558185Y-106979333D01*
X155656333Y-106989000D01*
X155656339Y-106989000D01*
X155699999Y-106993300D01*
X155743659Y-106989000D01*
X156231765Y-106989000D01*
X157482075Y-108239310D01*
X157533396Y-108363210D01*
X157640415Y-108523375D01*
X157776625Y-108659585D01*
X157936790Y-108766604D01*
X158114757Y-108840320D01*
X158303685Y-108877900D01*
X158496315Y-108877900D01*
X158685243Y-108840320D01*
X158863210Y-108766604D01*
X159023375Y-108659585D01*
X159159585Y-108523375D01*
X159266604Y-108363210D01*
X159340320Y-108185243D01*
X159377900Y-107996315D01*
X159377900Y-107803685D01*
X159340320Y-107614757D01*
X159266604Y-107436790D01*
X159159585Y-107276625D01*
X159023375Y-107140415D01*
X158863210Y-107033396D01*
X158739310Y-106982075D01*
X157259499Y-105502264D01*
X157231659Y-105468341D01*
X157096291Y-105357247D01*
X156941851Y-105274697D01*
X156774274Y-105223864D01*
X156643667Y-105211000D01*
X156643660Y-105211000D01*
X156600000Y-105206700D01*
X156556340Y-105211000D01*
X156068235Y-105211000D01*
X155117925Y-104260690D01*
X155066604Y-104136790D01*
X154959585Y-103976625D01*
X154823375Y-103840415D01*
X154663210Y-103733396D01*
X154485243Y-103659680D01*
X154296315Y-103622100D01*
X154103685Y-103622100D01*
X153914757Y-103659680D01*
X153736790Y-103733396D01*
X153576625Y-103840415D01*
X153440415Y-103976625D01*
X153333396Y-104136790D01*
X153259680Y-104314757D01*
X153222100Y-104503685D01*
X141995883Y-104503685D01*
X142037955Y-104310653D01*
X142038655Y-104304691D01*
X142040394Y-104298940D01*
X142042072Y-104290163D01*
X142124950Y-103839674D01*
X142125422Y-103834078D01*
X142126878Y-103828654D01*
X142128279Y-103819828D01*
X142198343Y-103357792D01*
X142198620Y-103352551D01*
X142199826Y-103347443D01*
X142200959Y-103338579D01*
X142258124Y-102865279D01*
X142258234Y-102860379D01*
X142259222Y-102855572D01*
X142260096Y-102846679D01*
X142304273Y-102362400D01*
X142304269Y-102361868D01*
X142304369Y-102361342D01*
X142305103Y-102352436D01*
X142306100Y-102339228D01*
X142306097Y-102339075D01*
X142306450Y-102334346D01*
X142312068Y-102251487D01*
X142312064Y-102251340D01*
X142312431Y-102245759D01*
X142318339Y-102145281D01*
X142318333Y-102145122D01*
X142318557Y-102141355D01*
X142324720Y-102024266D01*
X142324714Y-102024137D01*
X142324865Y-102021401D01*
X142331253Y-101888711D01*
X142331247Y-101888593D01*
X142331355Y-101886500D01*
X142337935Y-101739215D01*
X142337930Y-101739121D01*
X142338012Y-101737442D01*
X142344752Y-101576572D01*
X142344747Y-101576490D01*
X142344812Y-101575103D01*
X142351680Y-101401656D01*
X142351676Y-101401581D01*
X142351728Y-101400407D01*
X142358692Y-101215391D01*
X142358688Y-101215324D01*
X142358732Y-101214298D01*
X142365759Y-101018721D01*
X142365755Y-101018662D01*
X142365793Y-101017752D01*
X142372852Y-100812623D01*
X142372849Y-100812572D01*
X142372882Y-100811741D01*
X142379940Y-100598067D01*
X142379937Y-100598023D01*
X142379967Y-100597253D01*
X142386992Y-100376044D01*
X142386988Y-100375989D01*
X142387015Y-100375280D01*
X142393975Y-100147544D01*
X142393972Y-100147500D01*
X142393997Y-100146815D01*
X142400860Y-99913560D01*
X142400857Y-99913514D01*
X142400880Y-99912857D01*
X142407614Y-99675090D01*
X142407612Y-99675055D01*
X142407634Y-99674400D01*
X142414207Y-99433131D01*
X142414204Y-99433085D01*
X142414225Y-99432444D01*
X142420604Y-99188682D01*
X142420601Y-99188642D01*
X142420622Y-99187991D01*
X142426775Y-98942742D01*
X142426772Y-98942697D01*
X142426792Y-98942042D01*
X142432688Y-98696315D01*
X142432685Y-98696271D01*
X142432705Y-98695592D01*
X142438311Y-98450396D01*
X142438308Y-98450351D01*
X142438328Y-98449640D01*
X142443611Y-98205983D01*
X142443607Y-98205929D01*
X142443627Y-98205192D01*
X142448557Y-97964083D01*
X142448553Y-97964034D01*
X142448574Y-97963236D01*
X142453117Y-97725682D01*
X142453114Y-97725641D01*
X142453129Y-97725033D01*
X142454608Y-97643367D01*
X142454605Y-97643324D01*
X142454622Y-97642598D01*
X142458919Y-97388471D01*
X142458914Y-97388409D01*
X142458935Y-97387464D01*
X142463110Y-97115213D01*
X142463106Y-97115163D01*
X142463123Y-97114344D01*
X142467174Y-96824488D01*
X142467170Y-96824439D01*
X142467184Y-96823725D01*
X142471108Y-96516780D01*
X142471104Y-96516735D01*
X142471116Y-96516102D01*
X142474909Y-96192585D01*
X142474906Y-96192549D01*
X142474916Y-96191980D01*
X142478576Y-95852407D01*
X142478573Y-95852376D01*
X142478582Y-95851859D01*
X142482105Y-95496750D01*
X142482102Y-95496712D01*
X142482109Y-95496253D01*
X142485494Y-95126121D01*
X142485491Y-95126092D01*
X142485498Y-95125662D01*
X142488740Y-94741026D01*
X142488738Y-94741005D01*
X142488744Y-94740606D01*
X142491842Y-94341983D01*
X142491840Y-94341958D01*
X142491845Y-94341589D01*
X142494794Y-93929494D01*
X142494791Y-93929466D01*
X142494796Y-93929129D01*
X142497595Y-93504083D01*
X142497593Y-93504059D01*
X142497597Y-93503737D01*
X142500242Y-93066253D01*
X142500240Y-93066234D01*
X142500244Y-93065929D01*
X142502733Y-92616525D01*
X142502732Y-92616509D01*
X142502735Y-92616217D01*
X142505065Y-92155411D01*
X142505063Y-92155388D01*
X142505066Y-92155115D01*
X142507233Y-91683423D01*
X142507231Y-91683403D01*
X142507234Y-91683140D01*
X142509235Y-91201079D01*
X142509234Y-91201070D01*
X142509237Y-91200808D01*
X142511071Y-90708897D01*
X142511069Y-90708871D01*
X142511071Y-90708632D01*
X142512733Y-90207384D01*
X142512732Y-90207370D01*
X142512734Y-90207130D01*
X142514223Y-89697065D01*
X142514222Y-89697052D01*
X142514224Y-89696816D01*
X142515535Y-89178449D01*
X142515534Y-89178437D01*
X142515536Y-89178208D01*
X142516668Y-88652057D01*
X142516666Y-88652037D01*
X142516668Y-88651819D01*
X142517617Y-88118401D01*
X142517615Y-88118383D01*
X142517617Y-88118168D01*
X142518381Y-87578000D01*
X142518380Y-87577992D01*
X142518382Y-87577768D01*
X142518957Y-87031368D01*
X142518955Y-87031351D01*
X142518957Y-87031138D01*
X142519340Y-86479020D01*
X142519338Y-86479004D01*
X142519340Y-86478794D01*
X142519469Y-86100670D01*
X142777436Y-86487976D01*
G37*
G04 #@! TD.AperFunction*
M02*
