G04 #@! TF.GenerationSoftware,KiCad,Pcbnew,(5.1.8)-1*
G04 #@! TF.CreationDate,2021-05-02T00:16:01-04:00*
G04 #@! TF.ProjectId,CryptoRosette,43727970-746f-4526-9f73-657474652e6b,1*
G04 #@! TF.SameCoordinates,Original*
G04 #@! TF.FileFunction,Copper,L2,Bot*
G04 #@! TF.FilePolarity,Positive*
%FSLAX46Y46*%
G04 Gerber Fmt 4.6, Leading zero omitted, Abs format (unit mm)*
G04 Created by KiCad (PCBNEW (5.1.8)-1) date 2021-05-02 00:16:01*
%MOMM*%
%LPD*%
G01*
G04 APERTURE LIST*
G04 #@! TA.AperFunction,SMDPad,CuDef*
%ADD10R,1.700000X1.000000*%
G04 #@! TD*
G04 #@! TA.AperFunction,SMDPad,CuDef*
%ADD11C,1.500000*%
G04 #@! TD*
G04 #@! TA.AperFunction,SMDPad,CuDef*
%ADD12C,0.152400*%
G04 #@! TD*
G04 #@! TA.AperFunction,SMDPad,CuDef*
%ADD13R,1.060000X0.650000*%
G04 #@! TD*
G04 #@! TA.AperFunction,SMDPad,CuDef*
%ADD14R,0.750000X0.300000*%
G04 #@! TD*
G04 #@! TA.AperFunction,SMDPad,CuDef*
%ADD15R,1.300000X1.500000*%
G04 #@! TD*
G04 #@! TA.AperFunction,SMDPad,CuDef*
%ADD16R,0.800000X0.800000*%
G04 #@! TD*
G04 #@! TA.AperFunction,SMDPad,CuDef*
%ADD17R,0.400000X0.800000*%
G04 #@! TD*
G04 #@! TA.AperFunction,SMDPad,CuDef*
%ADD18R,0.600000X0.800000*%
G04 #@! TD*
G04 #@! TA.AperFunction,SMDPad,CuDef*
%ADD19R,0.750000X0.800000*%
G04 #@! TD*
G04 #@! TA.AperFunction,ViaPad*
%ADD20C,0.685800*%
G04 #@! TD*
G04 #@! TA.AperFunction,Conductor*
%ADD21C,0.152400*%
G04 #@! TD*
G04 #@! TA.AperFunction,Conductor*
%ADD22C,0.254000*%
G04 #@! TD*
G04 #@! TA.AperFunction,Conductor*
%ADD23C,0.762000*%
G04 #@! TD*
G04 #@! TA.AperFunction,Conductor*
%ADD24C,0.508000*%
G04 #@! TD*
G04 APERTURE END LIST*
G04 #@! TA.AperFunction,SMDPad,CuDef*
G36*
G01*
X150306066Y-106794975D02*
X150694975Y-106406066D01*
G75*
G02*
X150977817Y-106406066I141421J-141421D01*
G01*
X151260660Y-106688909D01*
G75*
G02*
X151260660Y-106971751I-141421J-141421D01*
G01*
X150871751Y-107360660D01*
G75*
G02*
X150588909Y-107360660I-141421J141421D01*
G01*
X150306066Y-107077817D01*
G75*
G02*
X150306066Y-106794975I141421J141421D01*
G01*
G37*
G04 #@! TD.AperFunction*
G04 #@! TA.AperFunction,SMDPad,CuDef*
G36*
G01*
X149139340Y-105628249D02*
X149528249Y-105239340D01*
G75*
G02*
X149811091Y-105239340I141421J-141421D01*
G01*
X150093934Y-105522183D01*
G75*
G02*
X150093934Y-105805025I-141421J-141421D01*
G01*
X149705025Y-106193934D01*
G75*
G02*
X149422183Y-106193934I-141421J141421D01*
G01*
X149139340Y-105911091D01*
G75*
G02*
X149139340Y-105628249I141421J141421D01*
G01*
G37*
G04 #@! TD.AperFunction*
G04 #@! TA.AperFunction,SMDPad,CuDef*
G36*
G01*
X152360660Y-105871751D02*
X151971751Y-106260660D01*
G75*
G02*
X151688909Y-106260660I-141421J141421D01*
G01*
X151406066Y-105977817D01*
G75*
G02*
X151406066Y-105694975I141421J141421D01*
G01*
X151794975Y-105306066D01*
G75*
G02*
X152077817Y-105306066I141421J-141421D01*
G01*
X152360660Y-105588909D01*
G75*
G02*
X152360660Y-105871751I-141421J-141421D01*
G01*
G37*
G04 #@! TD.AperFunction*
G04 #@! TA.AperFunction,SMDPad,CuDef*
G36*
G01*
X151193934Y-104705025D02*
X150805025Y-105093934D01*
G75*
G02*
X150522183Y-105093934I-141421J141421D01*
G01*
X150239340Y-104811091D01*
G75*
G02*
X150239340Y-104528249I141421J141421D01*
G01*
X150628249Y-104139340D01*
G75*
G02*
X150911091Y-104139340I141421J-141421D01*
G01*
X151193934Y-104422183D01*
G75*
G02*
X151193934Y-104705025I-141421J-141421D01*
G01*
G37*
G04 #@! TD.AperFunction*
G04 #@! TA.AperFunction,SMDPad,CuDef*
G36*
G01*
X158105025Y-112406066D02*
X158493934Y-112794975D01*
G75*
G02*
X158493934Y-113077817I-141421J-141421D01*
G01*
X158211091Y-113360660D01*
G75*
G02*
X157928249Y-113360660I-141421J141421D01*
G01*
X157539340Y-112971751D01*
G75*
G02*
X157539340Y-112688909I141421J141421D01*
G01*
X157822183Y-112406066D01*
G75*
G02*
X158105025Y-112406066I141421J-141421D01*
G01*
G37*
G04 #@! TD.AperFunction*
G04 #@! TA.AperFunction,SMDPad,CuDef*
G36*
G01*
X159271751Y-111239340D02*
X159660660Y-111628249D01*
G75*
G02*
X159660660Y-111911091I-141421J-141421D01*
G01*
X159377817Y-112193934D01*
G75*
G02*
X159094975Y-112193934I-141421J141421D01*
G01*
X158706066Y-111805025D01*
G75*
G02*
X158706066Y-111522183I141421J141421D01*
G01*
X158988909Y-111239340D01*
G75*
G02*
X159271751Y-111239340I141421J-141421D01*
G01*
G37*
G04 #@! TD.AperFunction*
G04 #@! TA.AperFunction,SMDPad,CuDef*
G36*
G01*
X160575000Y-104075000D02*
X160025000Y-104075000D01*
G75*
G02*
X159825000Y-103875000I0J200000D01*
G01*
X159825000Y-103475000D01*
G75*
G02*
X160025000Y-103275000I200000J0D01*
G01*
X160575000Y-103275000D01*
G75*
G02*
X160775000Y-103475000I0J-200000D01*
G01*
X160775000Y-103875000D01*
G75*
G02*
X160575000Y-104075000I-200000J0D01*
G01*
G37*
G04 #@! TD.AperFunction*
G04 #@! TA.AperFunction,SMDPad,CuDef*
G36*
G01*
X160575000Y-105725000D02*
X160025000Y-105725000D01*
G75*
G02*
X159825000Y-105525000I0J200000D01*
G01*
X159825000Y-105125000D01*
G75*
G02*
X160025000Y-104925000I200000J0D01*
G01*
X160575000Y-104925000D01*
G75*
G02*
X160775000Y-105125000I0J-200000D01*
G01*
X160775000Y-105525000D01*
G75*
G02*
X160575000Y-105725000I-200000J0D01*
G01*
G37*
G04 #@! TD.AperFunction*
G04 #@! TA.AperFunction,SMDPad,CuDef*
G36*
G01*
X164625000Y-105025000D02*
X164625000Y-105575000D01*
G75*
G02*
X164425000Y-105775000I-200000J0D01*
G01*
X164025000Y-105775000D01*
G75*
G02*
X163825000Y-105575000I0J200000D01*
G01*
X163825000Y-105025000D01*
G75*
G02*
X164025000Y-104825000I200000J0D01*
G01*
X164425000Y-104825000D01*
G75*
G02*
X164625000Y-105025000I0J-200000D01*
G01*
G37*
G04 #@! TD.AperFunction*
G04 #@! TA.AperFunction,SMDPad,CuDef*
G36*
G01*
X162975000Y-105025000D02*
X162975000Y-105575000D01*
G75*
G02*
X162775000Y-105775000I-200000J0D01*
G01*
X162375000Y-105775000D01*
G75*
G02*
X162175000Y-105575000I0J200000D01*
G01*
X162175000Y-105025000D01*
G75*
G02*
X162375000Y-104825000I200000J0D01*
G01*
X162775000Y-104825000D01*
G75*
G02*
X162975000Y-105025000I0J-200000D01*
G01*
G37*
G04 #@! TD.AperFunction*
G04 #@! TA.AperFunction,SMDPad,CuDef*
G36*
G01*
X158525000Y-103275000D02*
X159075000Y-103275000D01*
G75*
G02*
X159275000Y-103475000I0J-200000D01*
G01*
X159275000Y-103875000D01*
G75*
G02*
X159075000Y-104075000I-200000J0D01*
G01*
X158525000Y-104075000D01*
G75*
G02*
X158325000Y-103875000I0J200000D01*
G01*
X158325000Y-103475000D01*
G75*
G02*
X158525000Y-103275000I200000J0D01*
G01*
G37*
G04 #@! TD.AperFunction*
G04 #@! TA.AperFunction,SMDPad,CuDef*
G36*
G01*
X158525000Y-104925000D02*
X159075000Y-104925000D01*
G75*
G02*
X159275000Y-105125000I0J-200000D01*
G01*
X159275000Y-105525000D01*
G75*
G02*
X159075000Y-105725000I-200000J0D01*
G01*
X158525000Y-105725000D01*
G75*
G02*
X158325000Y-105525000I0J200000D01*
G01*
X158325000Y-105125000D01*
G75*
G02*
X158525000Y-104925000I200000J0D01*
G01*
G37*
G04 #@! TD.AperFunction*
G04 #@! TA.AperFunction,SMDPad,CuDef*
G36*
G01*
X150160660Y-108071751D02*
X149771751Y-108460660D01*
G75*
G02*
X149488909Y-108460660I-141421J141421D01*
G01*
X149206066Y-108177817D01*
G75*
G02*
X149206066Y-107894975I141421J141421D01*
G01*
X149594975Y-107506066D01*
G75*
G02*
X149877817Y-107506066I141421J-141421D01*
G01*
X150160660Y-107788909D01*
G75*
G02*
X150160660Y-108071751I-141421J-141421D01*
G01*
G37*
G04 #@! TD.AperFunction*
G04 #@! TA.AperFunction,SMDPad,CuDef*
G36*
G01*
X148993934Y-106905025D02*
X148605025Y-107293934D01*
G75*
G02*
X148322183Y-107293934I-141421J141421D01*
G01*
X148039340Y-107011091D01*
G75*
G02*
X148039340Y-106728249I141421J141421D01*
G01*
X148428249Y-106339340D01*
G75*
G02*
X148711091Y-106339340I141421J-141421D01*
G01*
X148993934Y-106622183D01*
G75*
G02*
X148993934Y-106905025I-141421J-141421D01*
G01*
G37*
G04 #@! TD.AperFunction*
D10*
X147750000Y-109700000D03*
X141450000Y-109700000D03*
X147750000Y-113500000D03*
X141450000Y-113500000D03*
D11*
X162100000Y-108900000D03*
X147500000Y-101300000D03*
X150040000Y-101300000D03*
X152580000Y-101300000D03*
X144960000Y-101300000D03*
G04 #@! TA.AperFunction,SMDPad,CuDef*
G36*
G01*
X154913623Y-106903115D02*
X155002012Y-106991504D01*
G75*
G02*
X155002012Y-107079892I-44194J-44194D01*
G01*
X154524715Y-107557189D01*
G75*
G02*
X154436327Y-107557189I-44194J44194D01*
G01*
X154347938Y-107468800D01*
G75*
G02*
X154347938Y-107380412I44194J44194D01*
G01*
X154825235Y-106903115D01*
G75*
G02*
X154913623Y-106903115I44194J-44194D01*
G01*
G37*
G04 #@! TD.AperFunction*
G04 #@! TA.AperFunction,SMDPad,CuDef*
G36*
G01*
X155267176Y-107256668D02*
X155355565Y-107345057D01*
G75*
G02*
X155355565Y-107433445I-44194J-44194D01*
G01*
X154878268Y-107910742D01*
G75*
G02*
X154789880Y-107910742I-44194J44194D01*
G01*
X154701491Y-107822353D01*
G75*
G02*
X154701491Y-107733965I44194J44194D01*
G01*
X155178788Y-107256668D01*
G75*
G02*
X155267176Y-107256668I44194J-44194D01*
G01*
G37*
G04 #@! TD.AperFunction*
G04 #@! TA.AperFunction,SMDPad,CuDef*
G36*
G01*
X155620730Y-107610221D02*
X155709119Y-107698610D01*
G75*
G02*
X155709119Y-107786998I-44194J-44194D01*
G01*
X155231822Y-108264295D01*
G75*
G02*
X155143434Y-108264295I-44194J44194D01*
G01*
X155055045Y-108175906D01*
G75*
G02*
X155055045Y-108087518I44194J44194D01*
G01*
X155532342Y-107610221D01*
G75*
G02*
X155620730Y-107610221I44194J-44194D01*
G01*
G37*
G04 #@! TD.AperFunction*
G04 #@! TA.AperFunction,SMDPad,CuDef*
G36*
G01*
X155974283Y-107963775D02*
X156062672Y-108052164D01*
G75*
G02*
X156062672Y-108140552I-44194J-44194D01*
G01*
X155585375Y-108617849D01*
G75*
G02*
X155496987Y-108617849I-44194J44194D01*
G01*
X155408598Y-108529460D01*
G75*
G02*
X155408598Y-108441072I44194J44194D01*
G01*
X155885895Y-107963775D01*
G75*
G02*
X155974283Y-107963775I44194J-44194D01*
G01*
G37*
G04 #@! TD.AperFunction*
G04 #@! TA.AperFunction,SMDPad,CuDef*
G36*
G01*
X156327836Y-108317328D02*
X156416225Y-108405717D01*
G75*
G02*
X156416225Y-108494105I-44194J-44194D01*
G01*
X155938928Y-108971402D01*
G75*
G02*
X155850540Y-108971402I-44194J44194D01*
G01*
X155762151Y-108883013D01*
G75*
G02*
X155762151Y-108794625I44194J44194D01*
G01*
X156239448Y-108317328D01*
G75*
G02*
X156327836Y-108317328I44194J-44194D01*
G01*
G37*
G04 #@! TD.AperFunction*
G04 #@! TA.AperFunction,SMDPad,CuDef*
G36*
G01*
X156681390Y-108670881D02*
X156769779Y-108759270D01*
G75*
G02*
X156769779Y-108847658I-44194J-44194D01*
G01*
X156292482Y-109324955D01*
G75*
G02*
X156204094Y-109324955I-44194J44194D01*
G01*
X156115705Y-109236566D01*
G75*
G02*
X156115705Y-109148178I44194J44194D01*
G01*
X156593002Y-108670881D01*
G75*
G02*
X156681390Y-108670881I44194J-44194D01*
G01*
G37*
G04 #@! TD.AperFunction*
G04 #@! TA.AperFunction,SMDPad,CuDef*
G36*
G01*
X157034943Y-109024435D02*
X157123332Y-109112824D01*
G75*
G02*
X157123332Y-109201212I-44194J-44194D01*
G01*
X156646035Y-109678509D01*
G75*
G02*
X156557647Y-109678509I-44194J44194D01*
G01*
X156469258Y-109590120D01*
G75*
G02*
X156469258Y-109501732I44194J44194D01*
G01*
X156946555Y-109024435D01*
G75*
G02*
X157034943Y-109024435I44194J-44194D01*
G01*
G37*
G04 #@! TD.AperFunction*
G04 #@! TA.AperFunction,SMDPad,CuDef*
G36*
G01*
X157388496Y-109377988D02*
X157476885Y-109466377D01*
G75*
G02*
X157476885Y-109554765I-44194J-44194D01*
G01*
X156999588Y-110032062D01*
G75*
G02*
X156911200Y-110032062I-44194J44194D01*
G01*
X156822811Y-109943673D01*
G75*
G02*
X156822811Y-109855285I44194J44194D01*
G01*
X157300108Y-109377988D01*
G75*
G02*
X157388496Y-109377988I44194J-44194D01*
G01*
G37*
G04 #@! TD.AperFunction*
G04 #@! TA.AperFunction,SMDPad,CuDef*
G36*
G01*
X156999588Y-110367938D02*
X157476885Y-110845235D01*
G75*
G02*
X157476885Y-110933623I-44194J-44194D01*
G01*
X157388496Y-111022012D01*
G75*
G02*
X157300108Y-111022012I-44194J44194D01*
G01*
X156822811Y-110544715D01*
G75*
G02*
X156822811Y-110456327I44194J44194D01*
G01*
X156911200Y-110367938D01*
G75*
G02*
X156999588Y-110367938I44194J-44194D01*
G01*
G37*
G04 #@! TD.AperFunction*
G04 #@! TA.AperFunction,SMDPad,CuDef*
G36*
G01*
X156646035Y-110721491D02*
X157123332Y-111198788D01*
G75*
G02*
X157123332Y-111287176I-44194J-44194D01*
G01*
X157034943Y-111375565D01*
G75*
G02*
X156946555Y-111375565I-44194J44194D01*
G01*
X156469258Y-110898268D01*
G75*
G02*
X156469258Y-110809880I44194J44194D01*
G01*
X156557647Y-110721491D01*
G75*
G02*
X156646035Y-110721491I44194J-44194D01*
G01*
G37*
G04 #@! TD.AperFunction*
G04 #@! TA.AperFunction,SMDPad,CuDef*
G36*
G01*
X156292482Y-111075045D02*
X156769779Y-111552342D01*
G75*
G02*
X156769779Y-111640730I-44194J-44194D01*
G01*
X156681390Y-111729119D01*
G75*
G02*
X156593002Y-111729119I-44194J44194D01*
G01*
X156115705Y-111251822D01*
G75*
G02*
X156115705Y-111163434I44194J44194D01*
G01*
X156204094Y-111075045D01*
G75*
G02*
X156292482Y-111075045I44194J-44194D01*
G01*
G37*
G04 #@! TD.AperFunction*
G04 #@! TA.AperFunction,SMDPad,CuDef*
G36*
G01*
X155938928Y-111428598D02*
X156416225Y-111905895D01*
G75*
G02*
X156416225Y-111994283I-44194J-44194D01*
G01*
X156327836Y-112082672D01*
G75*
G02*
X156239448Y-112082672I-44194J44194D01*
G01*
X155762151Y-111605375D01*
G75*
G02*
X155762151Y-111516987I44194J44194D01*
G01*
X155850540Y-111428598D01*
G75*
G02*
X155938928Y-111428598I44194J-44194D01*
G01*
G37*
G04 #@! TD.AperFunction*
G04 #@! TA.AperFunction,SMDPad,CuDef*
G36*
G01*
X155585375Y-111782151D02*
X156062672Y-112259448D01*
G75*
G02*
X156062672Y-112347836I-44194J-44194D01*
G01*
X155974283Y-112436225D01*
G75*
G02*
X155885895Y-112436225I-44194J44194D01*
G01*
X155408598Y-111958928D01*
G75*
G02*
X155408598Y-111870540I44194J44194D01*
G01*
X155496987Y-111782151D01*
G75*
G02*
X155585375Y-111782151I44194J-44194D01*
G01*
G37*
G04 #@! TD.AperFunction*
G04 #@! TA.AperFunction,SMDPad,CuDef*
G36*
G01*
X155231822Y-112135705D02*
X155709119Y-112613002D01*
G75*
G02*
X155709119Y-112701390I-44194J-44194D01*
G01*
X155620730Y-112789779D01*
G75*
G02*
X155532342Y-112789779I-44194J44194D01*
G01*
X155055045Y-112312482D01*
G75*
G02*
X155055045Y-112224094I44194J44194D01*
G01*
X155143434Y-112135705D01*
G75*
G02*
X155231822Y-112135705I44194J-44194D01*
G01*
G37*
G04 #@! TD.AperFunction*
G04 #@! TA.AperFunction,SMDPad,CuDef*
G36*
G01*
X154878268Y-112489258D02*
X155355565Y-112966555D01*
G75*
G02*
X155355565Y-113054943I-44194J-44194D01*
G01*
X155267176Y-113143332D01*
G75*
G02*
X155178788Y-113143332I-44194J44194D01*
G01*
X154701491Y-112666035D01*
G75*
G02*
X154701491Y-112577647I44194J44194D01*
G01*
X154789880Y-112489258D01*
G75*
G02*
X154878268Y-112489258I44194J-44194D01*
G01*
G37*
G04 #@! TD.AperFunction*
G04 #@! TA.AperFunction,SMDPad,CuDef*
G36*
G01*
X154524715Y-112842811D02*
X155002012Y-113320108D01*
G75*
G02*
X155002012Y-113408496I-44194J-44194D01*
G01*
X154913623Y-113496885D01*
G75*
G02*
X154825235Y-113496885I-44194J44194D01*
G01*
X154347938Y-113019588D01*
G75*
G02*
X154347938Y-112931200I44194J44194D01*
G01*
X154436327Y-112842811D01*
G75*
G02*
X154524715Y-112842811I44194J-44194D01*
G01*
G37*
G04 #@! TD.AperFunction*
G04 #@! TA.AperFunction,SMDPad,CuDef*
G36*
G01*
X153923673Y-112842811D02*
X154012062Y-112931200D01*
G75*
G02*
X154012062Y-113019588I-44194J-44194D01*
G01*
X153534765Y-113496885D01*
G75*
G02*
X153446377Y-113496885I-44194J44194D01*
G01*
X153357988Y-113408496D01*
G75*
G02*
X153357988Y-113320108I44194J44194D01*
G01*
X153835285Y-112842811D01*
G75*
G02*
X153923673Y-112842811I44194J-44194D01*
G01*
G37*
G04 #@! TD.AperFunction*
G04 #@! TA.AperFunction,SMDPad,CuDef*
G36*
G01*
X153570120Y-112489258D02*
X153658509Y-112577647D01*
G75*
G02*
X153658509Y-112666035I-44194J-44194D01*
G01*
X153181212Y-113143332D01*
G75*
G02*
X153092824Y-113143332I-44194J44194D01*
G01*
X153004435Y-113054943D01*
G75*
G02*
X153004435Y-112966555I44194J44194D01*
G01*
X153481732Y-112489258D01*
G75*
G02*
X153570120Y-112489258I44194J-44194D01*
G01*
G37*
G04 #@! TD.AperFunction*
G04 #@! TA.AperFunction,SMDPad,CuDef*
G36*
G01*
X153216566Y-112135705D02*
X153304955Y-112224094D01*
G75*
G02*
X153304955Y-112312482I-44194J-44194D01*
G01*
X152827658Y-112789779D01*
G75*
G02*
X152739270Y-112789779I-44194J44194D01*
G01*
X152650881Y-112701390D01*
G75*
G02*
X152650881Y-112613002I44194J44194D01*
G01*
X153128178Y-112135705D01*
G75*
G02*
X153216566Y-112135705I44194J-44194D01*
G01*
G37*
G04 #@! TD.AperFunction*
G04 #@! TA.AperFunction,SMDPad,CuDef*
G36*
G01*
X152863013Y-111782151D02*
X152951402Y-111870540D01*
G75*
G02*
X152951402Y-111958928I-44194J-44194D01*
G01*
X152474105Y-112436225D01*
G75*
G02*
X152385717Y-112436225I-44194J44194D01*
G01*
X152297328Y-112347836D01*
G75*
G02*
X152297328Y-112259448I44194J44194D01*
G01*
X152774625Y-111782151D01*
G75*
G02*
X152863013Y-111782151I44194J-44194D01*
G01*
G37*
G04 #@! TD.AperFunction*
G04 #@! TA.AperFunction,SMDPad,CuDef*
G36*
G01*
X152509460Y-111428598D02*
X152597849Y-111516987D01*
G75*
G02*
X152597849Y-111605375I-44194J-44194D01*
G01*
X152120552Y-112082672D01*
G75*
G02*
X152032164Y-112082672I-44194J44194D01*
G01*
X151943775Y-111994283D01*
G75*
G02*
X151943775Y-111905895I44194J44194D01*
G01*
X152421072Y-111428598D01*
G75*
G02*
X152509460Y-111428598I44194J-44194D01*
G01*
G37*
G04 #@! TD.AperFunction*
G04 #@! TA.AperFunction,SMDPad,CuDef*
G36*
G01*
X152155906Y-111075045D02*
X152244295Y-111163434D01*
G75*
G02*
X152244295Y-111251822I-44194J-44194D01*
G01*
X151766998Y-111729119D01*
G75*
G02*
X151678610Y-111729119I-44194J44194D01*
G01*
X151590221Y-111640730D01*
G75*
G02*
X151590221Y-111552342I44194J44194D01*
G01*
X152067518Y-111075045D01*
G75*
G02*
X152155906Y-111075045I44194J-44194D01*
G01*
G37*
G04 #@! TD.AperFunction*
G04 #@! TA.AperFunction,SMDPad,CuDef*
G36*
G01*
X151802353Y-110721491D02*
X151890742Y-110809880D01*
G75*
G02*
X151890742Y-110898268I-44194J-44194D01*
G01*
X151413445Y-111375565D01*
G75*
G02*
X151325057Y-111375565I-44194J44194D01*
G01*
X151236668Y-111287176D01*
G75*
G02*
X151236668Y-111198788I44194J44194D01*
G01*
X151713965Y-110721491D01*
G75*
G02*
X151802353Y-110721491I44194J-44194D01*
G01*
G37*
G04 #@! TD.AperFunction*
G04 #@! TA.AperFunction,SMDPad,CuDef*
G36*
G01*
X151448800Y-110367938D02*
X151537189Y-110456327D01*
G75*
G02*
X151537189Y-110544715I-44194J-44194D01*
G01*
X151059892Y-111022012D01*
G75*
G02*
X150971504Y-111022012I-44194J44194D01*
G01*
X150883115Y-110933623D01*
G75*
G02*
X150883115Y-110845235I44194J44194D01*
G01*
X151360412Y-110367938D01*
G75*
G02*
X151448800Y-110367938I44194J-44194D01*
G01*
G37*
G04 #@! TD.AperFunction*
G04 #@! TA.AperFunction,SMDPad,CuDef*
G36*
G01*
X151059892Y-109377988D02*
X151537189Y-109855285D01*
G75*
G02*
X151537189Y-109943673I-44194J-44194D01*
G01*
X151448800Y-110032062D01*
G75*
G02*
X151360412Y-110032062I-44194J44194D01*
G01*
X150883115Y-109554765D01*
G75*
G02*
X150883115Y-109466377I44194J44194D01*
G01*
X150971504Y-109377988D01*
G75*
G02*
X151059892Y-109377988I44194J-44194D01*
G01*
G37*
G04 #@! TD.AperFunction*
G04 #@! TA.AperFunction,SMDPad,CuDef*
G36*
G01*
X151413445Y-109024435D02*
X151890742Y-109501732D01*
G75*
G02*
X151890742Y-109590120I-44194J-44194D01*
G01*
X151802353Y-109678509D01*
G75*
G02*
X151713965Y-109678509I-44194J44194D01*
G01*
X151236668Y-109201212D01*
G75*
G02*
X151236668Y-109112824I44194J44194D01*
G01*
X151325057Y-109024435D01*
G75*
G02*
X151413445Y-109024435I44194J-44194D01*
G01*
G37*
G04 #@! TD.AperFunction*
G04 #@! TA.AperFunction,SMDPad,CuDef*
G36*
G01*
X151766998Y-108670881D02*
X152244295Y-109148178D01*
G75*
G02*
X152244295Y-109236566I-44194J-44194D01*
G01*
X152155906Y-109324955D01*
G75*
G02*
X152067518Y-109324955I-44194J44194D01*
G01*
X151590221Y-108847658D01*
G75*
G02*
X151590221Y-108759270I44194J44194D01*
G01*
X151678610Y-108670881D01*
G75*
G02*
X151766998Y-108670881I44194J-44194D01*
G01*
G37*
G04 #@! TD.AperFunction*
G04 #@! TA.AperFunction,SMDPad,CuDef*
G36*
G01*
X152120552Y-108317328D02*
X152597849Y-108794625D01*
G75*
G02*
X152597849Y-108883013I-44194J-44194D01*
G01*
X152509460Y-108971402D01*
G75*
G02*
X152421072Y-108971402I-44194J44194D01*
G01*
X151943775Y-108494105D01*
G75*
G02*
X151943775Y-108405717I44194J44194D01*
G01*
X152032164Y-108317328D01*
G75*
G02*
X152120552Y-108317328I44194J-44194D01*
G01*
G37*
G04 #@! TD.AperFunction*
G04 #@! TA.AperFunction,SMDPad,CuDef*
G36*
G01*
X152474105Y-107963775D02*
X152951402Y-108441072D01*
G75*
G02*
X152951402Y-108529460I-44194J-44194D01*
G01*
X152863013Y-108617849D01*
G75*
G02*
X152774625Y-108617849I-44194J44194D01*
G01*
X152297328Y-108140552D01*
G75*
G02*
X152297328Y-108052164I44194J44194D01*
G01*
X152385717Y-107963775D01*
G75*
G02*
X152474105Y-107963775I44194J-44194D01*
G01*
G37*
G04 #@! TD.AperFunction*
G04 #@! TA.AperFunction,SMDPad,CuDef*
G36*
G01*
X152827658Y-107610221D02*
X153304955Y-108087518D01*
G75*
G02*
X153304955Y-108175906I-44194J-44194D01*
G01*
X153216566Y-108264295D01*
G75*
G02*
X153128178Y-108264295I-44194J44194D01*
G01*
X152650881Y-107786998D01*
G75*
G02*
X152650881Y-107698610I44194J44194D01*
G01*
X152739270Y-107610221D01*
G75*
G02*
X152827658Y-107610221I44194J-44194D01*
G01*
G37*
G04 #@! TD.AperFunction*
G04 #@! TA.AperFunction,SMDPad,CuDef*
G36*
G01*
X153181212Y-107256668D02*
X153658509Y-107733965D01*
G75*
G02*
X153658509Y-107822353I-44194J-44194D01*
G01*
X153570120Y-107910742D01*
G75*
G02*
X153481732Y-107910742I-44194J44194D01*
G01*
X153004435Y-107433445D01*
G75*
G02*
X153004435Y-107345057I44194J44194D01*
G01*
X153092824Y-107256668D01*
G75*
G02*
X153181212Y-107256668I44194J-44194D01*
G01*
G37*
G04 #@! TD.AperFunction*
G04 #@! TA.AperFunction,SMDPad,CuDef*
G36*
G01*
X153534765Y-106903115D02*
X154012062Y-107380412D01*
G75*
G02*
X154012062Y-107468800I-44194J-44194D01*
G01*
X153923673Y-107557189D01*
G75*
G02*
X153835285Y-107557189I-44194J44194D01*
G01*
X153357988Y-107079892D01*
G75*
G02*
X153357988Y-106991504I44194J44194D01*
G01*
X153446377Y-106903115D01*
G75*
G02*
X153534765Y-106903115I44194J-44194D01*
G01*
G37*
G04 #@! TD.AperFunction*
G04 #@! TA.AperFunction,SMDPad,CuDef*
D12*
G36*
X154180000Y-107654416D02*
G01*
X156725584Y-110200000D01*
X154180000Y-112745584D01*
X151634416Y-110200000D01*
X154180000Y-107654416D01*
G37*
G04 #@! TD.AperFunction*
D13*
X161880000Y-103620000D03*
X161880000Y-102670000D03*
X161880000Y-101720000D03*
X164080000Y-101720000D03*
X164080000Y-103620000D03*
G04 #@! TA.AperFunction,SMDPad,CuDef*
G36*
G01*
X166975000Y-112025000D02*
X166425000Y-112025000D01*
G75*
G02*
X166225000Y-111825000I0J200000D01*
G01*
X166225000Y-111425000D01*
G75*
G02*
X166425000Y-111225000I200000J0D01*
G01*
X166975000Y-111225000D01*
G75*
G02*
X167175000Y-111425000I0J-200000D01*
G01*
X167175000Y-111825000D01*
G75*
G02*
X166975000Y-112025000I-200000J0D01*
G01*
G37*
G04 #@! TD.AperFunction*
G04 #@! TA.AperFunction,SMDPad,CuDef*
G36*
G01*
X166975000Y-110375000D02*
X166425000Y-110375000D01*
G75*
G02*
X166225000Y-110175000I0J200000D01*
G01*
X166225000Y-109775000D01*
G75*
G02*
X166425000Y-109575000I200000J0D01*
G01*
X166975000Y-109575000D01*
G75*
G02*
X167175000Y-109775000I0J-200000D01*
G01*
X167175000Y-110175000D01*
G75*
G02*
X166975000Y-110375000I-200000J0D01*
G01*
G37*
G04 #@! TD.AperFunction*
G04 #@! TA.AperFunction,SMDPad,CuDef*
G36*
G01*
X166425000Y-114225000D02*
X166975000Y-114225000D01*
G75*
G02*
X167175000Y-114425000I0J-200000D01*
G01*
X167175000Y-114825000D01*
G75*
G02*
X166975000Y-115025000I-200000J0D01*
G01*
X166425000Y-115025000D01*
G75*
G02*
X166225000Y-114825000I0J200000D01*
G01*
X166225000Y-114425000D01*
G75*
G02*
X166425000Y-114225000I200000J0D01*
G01*
G37*
G04 #@! TD.AperFunction*
G04 #@! TA.AperFunction,SMDPad,CuDef*
G36*
G01*
X166425000Y-112575000D02*
X166975000Y-112575000D01*
G75*
G02*
X167175000Y-112775000I0J-200000D01*
G01*
X167175000Y-113175000D01*
G75*
G02*
X166975000Y-113375000I-200000J0D01*
G01*
X166425000Y-113375000D01*
G75*
G02*
X166225000Y-113175000I0J200000D01*
G01*
X166225000Y-112775000D01*
G75*
G02*
X166425000Y-112575000I200000J0D01*
G01*
G37*
G04 #@! TD.AperFunction*
D14*
X162350000Y-113050000D03*
X162350000Y-112550000D03*
X162350000Y-112050000D03*
X162350000Y-111550000D03*
X165250000Y-111550000D03*
X165250000Y-112050000D03*
X165250000Y-112550000D03*
X165250000Y-113050000D03*
D15*
X163800000Y-112300000D03*
D16*
X152746333Y-89560000D03*
D17*
X153726333Y-89560000D03*
D18*
X154606333Y-89560000D03*
D19*
X155731333Y-89560000D03*
X152721333Y-62240000D03*
D18*
X153846333Y-62240000D03*
D17*
X154726333Y-62240000D03*
D16*
X155706333Y-62240000D03*
D20*
X160100000Y-102600000D03*
X162600000Y-106500000D03*
X154100000Y-101800000D03*
X149900000Y-103800000D03*
X148700000Y-105100000D03*
X151400000Y-107800000D03*
X149600000Y-113900000D03*
X150100000Y-118400000D03*
X158600000Y-113600000D03*
X161200000Y-111400000D03*
X174000000Y-114000000D03*
X155700000Y-114200000D03*
X152500000Y-114200000D03*
X158400000Y-107900000D03*
X154200000Y-104600000D03*
X157900000Y-119700000D03*
X153100000Y-119600000D03*
X155200000Y-119500000D03*
X165200000Y-110600000D03*
X165100000Y-113900000D03*
X164400000Y-92300000D03*
X165600000Y-90800000D03*
X163100000Y-95300000D03*
X163100000Y-92300000D03*
X164800000Y-96700000D03*
D21*
X152144390Y-107810837D02*
X152624365Y-108290812D01*
X152144390Y-107344390D02*
X152144390Y-107810837D01*
X151000000Y-107100000D02*
X150783363Y-106883363D01*
X151900000Y-107100000D02*
X151000000Y-107100000D01*
X151900000Y-107100000D02*
X152144390Y-107344390D01*
D22*
X158016637Y-112883363D02*
X158016637Y-113283363D01*
X161350000Y-111550000D02*
X161200000Y-111400000D01*
X162350000Y-111550000D02*
X161350000Y-111550000D01*
D21*
X158016637Y-113016637D02*
X158600000Y-113600000D01*
X158016637Y-112883363D02*
X158016637Y-113016637D01*
X156796295Y-111048528D02*
X157300000Y-111552233D01*
X150716637Y-104616637D02*
X149616637Y-105716637D01*
X150716637Y-104516637D02*
X150000000Y-103800000D01*
X150716637Y-104616637D02*
X150716637Y-104516637D01*
X149416637Y-105716637D02*
X148800000Y-105100000D01*
X149616637Y-105716637D02*
X149416637Y-105716637D01*
X151426447Y-107800000D02*
X152270812Y-108644365D01*
D22*
X160000000Y-103675000D02*
X160000000Y-102700000D01*
X160170000Y-102670000D02*
X160100000Y-102600000D01*
X161680000Y-102670000D02*
X160170000Y-102670000D01*
D23*
X150100000Y-118400000D02*
X149600000Y-117900000D01*
X149600000Y-117900000D02*
X149600000Y-113900000D01*
D21*
X149200000Y-113500000D02*
X149600000Y-113900000D01*
X147750000Y-113500000D02*
X149200000Y-113500000D01*
X162375000Y-106275000D02*
X162600000Y-106500000D01*
X162375000Y-105300000D02*
X162375000Y-106275000D01*
X153600000Y-101300000D02*
X154100000Y-101800000D01*
X152580000Y-101300000D02*
X153600000Y-101300000D01*
X155706333Y-62240000D02*
X155706333Y-62593667D01*
D23*
X145694851Y-60405149D02*
X139800000Y-66300000D01*
X139800000Y-66300000D02*
X139800000Y-89800000D01*
X139800000Y-89800000D02*
X139800000Y-94000000D01*
X152746333Y-89560000D02*
X152746333Y-93453667D01*
X155706333Y-62820122D02*
X155226455Y-63300000D01*
X155706333Y-62240000D02*
X155706333Y-62820122D01*
X155226455Y-63300000D02*
X152046211Y-63300000D01*
X149151360Y-60405149D02*
X147994851Y-60405149D01*
X147994851Y-60405149D02*
X145694851Y-60405149D01*
X152046211Y-63300000D02*
X149151360Y-60405149D01*
D24*
X160000000Y-102700000D02*
X160100000Y-102600000D01*
X150000000Y-103800000D02*
X149900000Y-103800000D01*
X148800000Y-105100000D02*
X148700000Y-105100000D01*
X151426447Y-107800000D02*
X151400000Y-107800000D01*
D21*
X157300000Y-112166726D02*
X157300000Y-111900000D01*
X158016637Y-112883363D02*
X157300000Y-112166726D01*
X157300000Y-111900000D02*
X157300000Y-112000000D01*
X157300000Y-111552233D02*
X157300000Y-111900000D01*
D22*
X159183363Y-111716637D02*
X160016726Y-112550000D01*
X162350000Y-112550000D02*
X160016726Y-112550000D01*
X158171510Y-111716637D02*
X157149848Y-110694975D01*
X159183363Y-111716637D02*
X158171510Y-111716637D01*
X152977918Y-107937258D02*
X152500000Y-107459340D01*
X152500000Y-106400000D02*
X151883363Y-105783363D01*
X152500000Y-107459340D02*
X152500000Y-106400000D01*
X148516637Y-106816637D02*
X149583363Y-106816637D01*
X150616637Y-105783363D02*
X151883363Y-105783363D01*
X149583363Y-106816637D02*
X150616637Y-105783363D01*
D24*
X164025000Y-105300000D02*
X164025000Y-104625000D01*
X163880000Y-104480000D02*
X163880000Y-103620000D01*
X164025000Y-104625000D02*
X163880000Y-104480000D01*
X164025000Y-105300000D02*
X164025000Y-106875000D01*
X164025000Y-106875000D02*
X161300000Y-109600000D01*
X151883363Y-105783363D02*
X153066726Y-104600000D01*
X160700000Y-110200000D02*
X159183363Y-111716637D01*
X160100000Y-109600000D02*
X160700000Y-110200000D01*
X161300000Y-109600000D02*
X160700000Y-110200000D01*
D22*
X165875000Y-108725000D02*
X166225000Y-108725000D01*
X165875000Y-108725000D02*
X164025000Y-106875000D01*
X166700000Y-109200000D02*
X166700000Y-109975000D01*
X166225000Y-108725000D02*
X166700000Y-109200000D01*
X167375000Y-109975000D02*
X166700000Y-109975000D01*
X167600000Y-110200000D02*
X167375000Y-109975000D01*
X167600000Y-114400000D02*
X167600000Y-110200000D01*
X167375000Y-114625000D02*
X167600000Y-114400000D01*
X166700000Y-114625000D02*
X167375000Y-114625000D01*
D24*
X158400000Y-107900000D02*
X160100000Y-109600000D01*
X153066726Y-104600000D02*
X154200000Y-104600000D01*
D23*
X157900000Y-119700000D02*
X157900000Y-117000000D01*
X157900000Y-117000000D02*
X158500000Y-116400000D01*
X158500000Y-116400000D02*
X168400000Y-116400000D01*
X168400000Y-116400000D02*
X169500000Y-115300000D01*
X169500000Y-115300000D02*
X169500000Y-110200000D01*
X169500000Y-110200000D02*
X165700000Y-106400000D01*
X165700000Y-106400000D02*
X165700000Y-103600000D01*
X162545122Y-103620000D02*
X161680000Y-103620000D01*
X165700000Y-103600000D02*
X164861599Y-102761599D01*
X161900000Y-103645000D02*
X160220000Y-105325000D01*
X161680000Y-103620000D02*
X161680000Y-103645000D01*
X165700000Y-93600000D02*
X156800000Y-93600000D01*
X165700000Y-103600000D02*
X165700000Y-93600000D01*
X154606333Y-91406333D02*
X154606333Y-89560000D01*
X155800000Y-92600000D02*
X154606333Y-91406333D01*
X156800000Y-93600000D02*
X155800000Y-92600000D01*
X154406211Y-61000000D02*
X153846333Y-61559878D01*
X169000000Y-67900000D02*
X162100000Y-61000000D01*
X162100000Y-61000000D02*
X154406211Y-61000000D01*
X169000000Y-83500000D02*
X169000000Y-67900000D01*
X153846333Y-61559878D02*
X153846333Y-62240000D01*
X165700000Y-86800000D02*
X169000000Y-83500000D01*
X165700000Y-86800000D02*
X164700000Y-86800000D01*
X164700000Y-86800000D02*
X163700000Y-87800000D01*
X163700000Y-90300000D02*
X165700000Y-92300000D01*
X163700000Y-87800000D02*
X163700000Y-90300000D01*
X165700000Y-93600000D02*
X165700000Y-92300000D01*
X162943401Y-103221721D02*
X162545122Y-103620000D01*
X163061599Y-102761599D02*
X162943401Y-102879797D01*
X162943401Y-102879797D02*
X162943401Y-103221721D01*
X164861599Y-102761599D02*
X163061599Y-102761599D01*
D24*
X160200000Y-105325000D02*
X158700000Y-105325000D01*
D21*
X151210152Y-110694975D02*
X151205025Y-110694975D01*
X153100000Y-119000000D02*
X153100000Y-119600000D01*
X150989752Y-116889752D02*
X153100000Y-119000000D01*
X151205025Y-110694975D02*
X150700000Y-111200000D01*
X150700000Y-112200000D02*
X150989752Y-112489752D01*
X150700000Y-111200000D02*
X150700000Y-112200000D01*
X150989752Y-112489752D02*
X150989752Y-116889752D01*
X154031066Y-119500000D02*
X155200000Y-119500000D01*
X151294562Y-112363496D02*
X151294562Y-116763496D01*
X151004810Y-112073744D02*
X151294562Y-112363496D01*
X151004810Y-111595190D02*
X151004810Y-112073744D01*
X151294562Y-116763496D02*
X154031066Y-119500000D01*
X151551472Y-111048528D02*
X151004810Y-111595190D01*
X151563705Y-111048528D02*
X151551472Y-111048528D01*
X158500000Y-103675000D02*
X158500000Y-102800000D01*
X159580000Y-101720000D02*
X161680000Y-101720000D01*
X158500000Y-102800000D02*
X159580000Y-101720000D01*
D22*
X150912233Y-108700000D02*
X151563705Y-109351472D01*
X150400000Y-108700000D02*
X150912233Y-108700000D01*
X149683363Y-107983363D02*
X150400000Y-108700000D01*
D21*
X149683363Y-107983363D02*
X149166726Y-108500000D01*
X149166726Y-108500000D02*
X148200000Y-108500000D01*
X147750000Y-108950000D02*
X147750000Y-109700000D01*
X148200000Y-108500000D02*
X147750000Y-108950000D01*
X148200000Y-108500000D02*
X147500000Y-108500000D01*
X144960000Y-105960000D02*
X144960000Y-101300000D01*
X147500000Y-108500000D02*
X144960000Y-105960000D01*
X149200000Y-103000000D02*
X147500000Y-101300000D01*
X154182512Y-103000000D02*
X149200000Y-103000000D01*
X155491256Y-104308744D02*
X154182512Y-103000000D01*
X155491256Y-105008744D02*
X155491256Y-104308744D01*
X154900000Y-105600000D02*
X155491256Y-105008744D01*
X153500000Y-105600000D02*
X154900000Y-105600000D01*
X152900000Y-106200000D02*
X153500000Y-105600000D01*
X152900000Y-107152233D02*
X152900000Y-106200000D01*
X153331472Y-107583705D02*
X152900000Y-107152233D01*
X151435190Y-102695190D02*
X150040000Y-101300000D01*
X154308769Y-102695191D02*
X151435190Y-102695190D01*
X155796066Y-104182488D02*
X154308769Y-102695191D01*
X155796066Y-104396066D02*
X155796066Y-104182488D01*
X155800000Y-105131066D02*
X155800000Y-104400000D01*
X155026257Y-105904809D02*
X155800000Y-105131066D01*
X153626256Y-105904810D02*
X155026257Y-105904809D01*
X153204810Y-106326256D02*
X153626256Y-105904810D01*
X153204810Y-106749937D02*
X153204810Y-106326256D01*
X155800000Y-104400000D02*
X155796066Y-104396066D01*
X153685025Y-107230152D02*
X153204810Y-106749937D01*
X166625000Y-111550000D02*
X166700000Y-111625000D01*
X165250000Y-111550000D02*
X166625000Y-111550000D01*
X156442742Y-111402082D02*
X156800000Y-111759340D01*
X156800000Y-113814250D02*
X157285750Y-114300000D01*
X156800000Y-111759340D02*
X156800000Y-113814250D01*
X157285750Y-114300000D02*
X164700000Y-114300000D01*
X165300000Y-110800000D02*
X166100000Y-110800000D01*
X166700000Y-111400000D02*
X166700000Y-111625000D01*
X166100000Y-110800000D02*
X166700000Y-111400000D01*
X165400000Y-110800000D02*
X165200000Y-110600000D01*
X166100000Y-110800000D02*
X165400000Y-110800000D01*
X165050000Y-113950000D02*
X165100000Y-113900000D01*
X164700000Y-114300000D02*
X165050000Y-113950000D01*
X165050000Y-113950000D02*
X165200000Y-113800000D01*
X166275000Y-112550000D02*
X166700000Y-112975000D01*
X165250000Y-112550000D02*
X166275000Y-112550000D01*
X156495190Y-112161637D02*
X156089188Y-111755635D01*
X156495191Y-113940507D02*
X157159494Y-114604810D01*
X156495190Y-113595190D02*
X156495191Y-113940507D01*
X156495190Y-113904810D02*
X156495190Y-113595190D01*
X156495190Y-113595190D02*
X156495190Y-112161637D01*
X157159494Y-114604810D02*
X165295190Y-114604810D01*
X166700000Y-113200000D02*
X166700000Y-112975000D01*
X165295190Y-114604810D02*
X166700000Y-113200000D01*
X153726333Y-89560000D02*
X153726333Y-89007600D01*
X162062118Y-60100000D02*
X169609610Y-67647492D01*
X153600000Y-60100000D02*
X162062118Y-60100000D01*
X169609610Y-67647492D02*
X169609609Y-83752509D01*
X152721333Y-60978667D02*
X153600000Y-60100000D01*
X152721333Y-62240000D02*
X152721333Y-60978667D01*
X165600000Y-87762118D02*
X166681059Y-86681059D01*
X165600000Y-90800000D02*
X165600000Y-87762118D01*
X166681059Y-86681059D02*
X166400000Y-86962118D01*
X169609609Y-83752509D02*
X166681059Y-86681059D01*
X153726333Y-89007600D02*
X153802534Y-88931399D01*
X156531399Y-88931399D02*
X156855190Y-89255190D01*
X153802534Y-88931399D02*
X156531399Y-88931399D01*
X156855190Y-89255190D02*
X160486257Y-89255191D01*
X161281066Y-90050000D02*
X162150000Y-90050000D01*
X160486257Y-89255191D02*
X161281066Y-90050000D01*
X162150000Y-90050000D02*
X164400000Y-92300000D01*
X160360000Y-89560000D02*
X163100000Y-92300000D01*
X155731333Y-89560000D02*
X160360000Y-89560000D01*
X157100000Y-107400000D02*
X157100000Y-108340660D01*
X156900000Y-107200000D02*
X157100000Y-107400000D01*
X157100000Y-108340660D02*
X156442742Y-108997918D01*
X156900000Y-103000000D02*
X156900000Y-107200000D01*
X162100000Y-99800000D02*
X160100000Y-99800000D01*
X163100000Y-98800000D02*
X162100000Y-99800000D01*
X163100000Y-95300000D02*
X163100000Y-98800000D01*
X159400000Y-100500000D02*
X157900000Y-100500000D01*
X160100000Y-99800000D02*
X159400000Y-100500000D01*
X157450000Y-100950000D02*
X157450000Y-102450000D01*
X157900000Y-100500000D02*
X157450000Y-100950000D01*
X157450000Y-102450000D02*
X156900000Y-103000000D01*
X164800000Y-96700000D02*
X164900000Y-96600000D01*
X157404810Y-108742957D02*
X156796295Y-109351472D01*
X157404810Y-107273744D02*
X157404810Y-108742957D01*
X157204810Y-107073744D02*
X157404810Y-107273744D01*
X157204810Y-103126256D02*
X157204810Y-107073744D01*
X157754810Y-102576256D02*
X157204810Y-103126256D01*
X158026256Y-100804810D02*
X157754810Y-101076256D01*
X160226256Y-100104810D02*
X159526256Y-100804810D01*
X162226257Y-100104809D02*
X160226256Y-100104810D01*
X159526256Y-100804810D02*
X158026256Y-100804810D01*
X163404810Y-98926256D02*
X162226257Y-100104809D01*
X163404810Y-98095190D02*
X163404810Y-98926256D01*
X157754810Y-101076256D02*
X157754810Y-102576256D01*
X164800000Y-96700000D02*
X163404810Y-98095190D01*
D22*
X169914984Y-97767118D02*
X169915012Y-97767401D01*
X169915663Y-98093717D01*
X169915668Y-98093765D01*
X169915667Y-98094869D01*
X169917702Y-98427341D01*
X169917708Y-98427400D01*
X169917712Y-98428545D01*
X169921103Y-98753723D01*
X169921109Y-98753783D01*
X169921119Y-98754982D01*
X169925867Y-99072865D01*
X169925874Y-99072926D01*
X169925890Y-99074184D01*
X169931995Y-99384773D01*
X169932002Y-99384832D01*
X169932025Y-99386152D01*
X169939486Y-99689448D01*
X169939493Y-99689508D01*
X169939525Y-99690896D01*
X169948342Y-99986897D01*
X169948350Y-99986958D01*
X169948391Y-99988417D01*
X169958563Y-100277124D01*
X169958572Y-100277189D01*
X169958624Y-100278722D01*
X169970152Y-100560136D01*
X169970161Y-100560203D01*
X169970226Y-100561818D01*
X169983110Y-100835937D01*
X169983120Y-100836004D01*
X169983199Y-100837710D01*
X169997439Y-101104535D01*
X169997449Y-101104603D01*
X169997545Y-101106404D01*
X170013140Y-101365935D01*
X170013151Y-101366004D01*
X170013266Y-101367910D01*
X170030216Y-101620149D01*
X170030226Y-101620212D01*
X170030364Y-101622240D01*
X170048670Y-101867184D01*
X170048682Y-101867254D01*
X170048844Y-101869396D01*
X170068504Y-102107047D01*
X170068517Y-102107116D01*
X170068709Y-102109397D01*
X170089725Y-102339756D01*
X170089736Y-102339815D01*
X170089964Y-102342252D01*
X170112335Y-102565317D01*
X170112346Y-102565371D01*
X170112614Y-102567974D01*
X170136339Y-102783744D01*
X170136350Y-102783795D01*
X170136665Y-102786579D01*
X170161745Y-102995057D01*
X170161756Y-102995108D01*
X170162126Y-102998084D01*
X170188560Y-103199269D01*
X170188570Y-103199311D01*
X170189006Y-103202511D01*
X170216795Y-103396403D01*
X170216801Y-103396426D01*
X170217315Y-103399879D01*
X170246458Y-103586478D01*
X170246460Y-103586487D01*
X170247067Y-103590213D01*
X170277564Y-103769519D01*
X170277588Y-103769609D01*
X170277595Y-103769700D01*
X170278279Y-103773542D01*
X170310130Y-103945555D01*
X170310202Y-103945805D01*
X170310225Y-103946067D01*
X170310970Y-103949897D01*
X170344174Y-104114616D01*
X170344306Y-104115048D01*
X170344353Y-104115497D01*
X170345163Y-104119314D01*
X170379722Y-104276742D01*
X170379928Y-104277376D01*
X170380009Y-104278033D01*
X170380890Y-104281835D01*
X170416804Y-104431970D01*
X170417098Y-104432822D01*
X170417228Y-104433720D01*
X170418187Y-104437502D01*
X170455453Y-104580344D01*
X170455859Y-104581447D01*
X170456054Y-104582610D01*
X170457097Y-104586370D01*
X170495716Y-104721920D01*
X170496261Y-104723304D01*
X170496543Y-104724766D01*
X170497678Y-104728499D01*
X170537651Y-104856757D01*
X170538368Y-104858454D01*
X170538765Y-104860250D01*
X170540000Y-104863951D01*
X170581326Y-104984916D01*
X170582256Y-104986961D01*
X170582806Y-104989137D01*
X170584152Y-104992800D01*
X170626832Y-105106474D01*
X170628148Y-105109152D01*
X170628981Y-105112018D01*
X170630456Y-105115631D01*
X170664987Y-105198593D01*
X170665819Y-105200144D01*
X170666356Y-105201826D01*
X170667926Y-105205399D01*
X170704744Y-105287636D01*
X170705607Y-105289149D01*
X170706181Y-105290793D01*
X170707845Y-105294323D01*
X170746949Y-105375833D01*
X170747837Y-105377298D01*
X170748442Y-105378896D01*
X170750197Y-105382381D01*
X170791587Y-105463166D01*
X170792496Y-105464581D01*
X170793133Y-105466140D01*
X170794978Y-105469579D01*
X170838656Y-105549638D01*
X170839581Y-105550998D01*
X170840242Y-105552505D01*
X170842175Y-105555894D01*
X170888139Y-105635227D01*
X170889074Y-105636529D01*
X170889758Y-105637986D01*
X170891777Y-105641325D01*
X170940029Y-105719931D01*
X170940969Y-105721172D01*
X170941670Y-105722573D01*
X170943772Y-105725861D01*
X170994311Y-105803739D01*
X170995254Y-105804921D01*
X170995967Y-105806262D01*
X170998149Y-105809497D01*
X171050976Y-105886649D01*
X171051915Y-105887768D01*
X171052635Y-105889046D01*
X171054896Y-105892227D01*
X171110011Y-105968651D01*
X171110941Y-105969706D01*
X171111667Y-105970925D01*
X171114003Y-105974050D01*
X171171407Y-106049747D01*
X171172326Y-106050740D01*
X171173046Y-106051887D01*
X171175456Y-106054957D01*
X171235148Y-106129926D01*
X171236049Y-106130855D01*
X171236766Y-106131940D01*
X171239246Y-106134953D01*
X171301227Y-106209195D01*
X171302108Y-106210062D01*
X171302813Y-106211078D01*
X171305361Y-106214033D01*
X171369631Y-106287547D01*
X171370487Y-106288352D01*
X171371179Y-106289303D01*
X171373792Y-106292201D01*
X171440352Y-106364987D01*
X171441180Y-106365732D01*
X171441853Y-106366615D01*
X171444529Y-106369455D01*
X171513377Y-106441512D01*
X171514172Y-106442196D01*
X171514824Y-106443015D01*
X171517561Y-106445797D01*
X171588700Y-106517126D01*
X171589457Y-106517750D01*
X171590089Y-106518510D01*
X171592883Y-106521234D01*
X171666313Y-106591834D01*
X171667035Y-106592404D01*
X171667634Y-106593095D01*
X171670483Y-106595761D01*
X171746203Y-106665633D01*
X171746882Y-106666146D01*
X171747455Y-106666782D01*
X171750358Y-106669391D01*
X171828368Y-106738533D01*
X171829007Y-106738996D01*
X171829546Y-106739571D01*
X171832498Y-106742122D01*
X171912800Y-106810536D01*
X171913395Y-106810950D01*
X171913899Y-106811467D01*
X171916900Y-106813961D01*
X171999493Y-106881644D01*
X172000040Y-106882009D01*
X172000508Y-106882472D01*
X172003554Y-106884909D01*
X172088439Y-106951864D01*
X172088937Y-106952183D01*
X172089371Y-106952597D01*
X172092462Y-106954978D01*
X172179639Y-107021202D01*
X172180091Y-107021480D01*
X172180480Y-107021838D01*
X172183612Y-107024165D01*
X172273080Y-107089659D01*
X172273483Y-107089897D01*
X172273836Y-107090211D01*
X172277009Y-107092483D01*
X172368770Y-107157246D01*
X172369123Y-107157447D01*
X172369431Y-107157711D01*
X172372641Y-107159930D01*
X172466694Y-107223962D01*
X172466997Y-107224128D01*
X172467265Y-107224350D01*
X172470511Y-107226515D01*
X172566856Y-107289817D01*
X172567107Y-107289949D01*
X172567335Y-107290132D01*
X172570616Y-107292245D01*
X172669255Y-107354816D01*
X172669459Y-107354919D01*
X172669640Y-107355060D01*
X172672953Y-107357122D01*
X172773886Y-107418962D01*
X172774040Y-107419037D01*
X172774177Y-107419140D01*
X172777521Y-107421151D01*
X172880747Y-107482260D01*
X172880852Y-107482309D01*
X172880945Y-107482377D01*
X172884318Y-107484338D01*
X172989838Y-107544716D01*
X172990353Y-107544947D01*
X172990820Y-107545276D01*
X172994229Y-107547177D01*
X173137854Y-107625959D01*
X173137986Y-107626015D01*
X173138104Y-107626096D01*
X173141540Y-107627945D01*
X173285688Y-107704228D01*
X173285835Y-107704288D01*
X173285974Y-107704380D01*
X173289438Y-107706176D01*
X173434108Y-107779958D01*
X173434273Y-107780023D01*
X173434424Y-107780119D01*
X173437914Y-107781863D01*
X173583105Y-107853144D01*
X173583291Y-107853214D01*
X173583457Y-107853316D01*
X173586974Y-107855006D01*
X173732686Y-107923785D01*
X173732883Y-107923855D01*
X173733067Y-107923965D01*
X173736610Y-107925600D01*
X173882843Y-107991878D01*
X173883055Y-107991950D01*
X173883255Y-107992065D01*
X173886823Y-107993645D01*
X174033576Y-108057422D01*
X174033809Y-108057497D01*
X174034018Y-108057613D01*
X174037610Y-108059137D01*
X174184886Y-108120413D01*
X174185126Y-108120486D01*
X174185354Y-108120608D01*
X174188970Y-108122075D01*
X174336767Y-108180850D01*
X174337025Y-108180924D01*
X174337260Y-108181045D01*
X174340898Y-108182455D01*
X174489216Y-108238729D01*
X174489484Y-108238802D01*
X174489734Y-108238925D01*
X174493394Y-108240276D01*
X174642234Y-108294049D01*
X174642509Y-108294119D01*
X174642775Y-108294245D01*
X174646457Y-108295537D01*
X174795817Y-108346808D01*
X174796105Y-108346876D01*
X174796375Y-108346999D01*
X174800077Y-108348232D01*
X174949958Y-108397003D01*
X174950253Y-108397068D01*
X174950538Y-108397192D01*
X174954260Y-108398365D01*
X175104661Y-108444634D01*
X175104965Y-108444696D01*
X175105254Y-108444816D01*
X175108994Y-108445928D01*
X175259918Y-108489697D01*
X175260229Y-108489755D01*
X175260526Y-108489873D01*
X175264284Y-108490925D01*
X175415727Y-108532192D01*
X175416041Y-108532245D01*
X175416347Y-108532361D01*
X175420121Y-108533351D01*
X175572086Y-108572117D01*
X175572402Y-108572165D01*
X175572712Y-108572277D01*
X175576502Y-108573206D01*
X175728987Y-108609472D01*
X175729311Y-108609516D01*
X175729624Y-108609623D01*
X175733428Y-108610490D01*
X175886434Y-108644254D01*
X175886761Y-108644293D01*
X175887073Y-108644394D01*
X175890891Y-108645199D01*
X176044419Y-108676462D01*
X176044743Y-108676496D01*
X176045059Y-108676592D01*
X176048889Y-108677335D01*
X176202936Y-108706097D01*
X176203260Y-108706125D01*
X176203576Y-108706216D01*
X176207419Y-108706896D01*
X176361988Y-108733157D01*
X176362306Y-108733180D01*
X176362623Y-108733265D01*
X176366476Y-108733882D01*
X176521564Y-108757642D01*
X176521885Y-108757659D01*
X176522196Y-108757738D01*
X176526058Y-108758293D01*
X176681668Y-108779551D01*
X176681982Y-108779563D01*
X176682288Y-108779635D01*
X176686159Y-108780128D01*
X176842289Y-108798886D01*
X176842594Y-108798893D01*
X176842898Y-108798959D01*
X176846777Y-108799388D01*
X177003427Y-108815645D01*
X177003724Y-108815647D01*
X177004023Y-108815707D01*
X177007908Y-108816074D01*
X177165079Y-108829830D01*
X177165374Y-108829827D01*
X177165661Y-108829880D01*
X177169551Y-108830185D01*
X177327243Y-108841439D01*
X177327522Y-108841432D01*
X177327803Y-108841479D01*
X177331697Y-108841721D01*
X177489909Y-108850475D01*
X177490179Y-108850464D01*
X177490452Y-108850505D01*
X177494350Y-108850685D01*
X177653082Y-108856937D01*
X177653335Y-108856922D01*
X177653598Y-108856958D01*
X177657498Y-108857076D01*
X177816751Y-108860828D01*
X177816993Y-108860810D01*
X177817243Y-108860840D01*
X177821145Y-108860897D01*
X177968284Y-108862049D01*
X177969380Y-108862157D01*
X180317452Y-108862157D01*
X180317451Y-118864886D01*
X160275951Y-118864886D01*
X160262225Y-118863534D01*
X160248499Y-118864886D01*
X160207443Y-118868930D01*
X160154767Y-118884909D01*
X160106220Y-118910858D01*
X160063668Y-118945779D01*
X160041329Y-118973000D01*
X158560400Y-118973000D01*
X158560400Y-117273546D01*
X158773547Y-117060400D01*
X168367561Y-117060400D01*
X168400000Y-117063595D01*
X168432439Y-117060400D01*
X168529461Y-117050844D01*
X168653947Y-117013082D01*
X168768674Y-116951759D01*
X168869233Y-116869233D01*
X168889918Y-116844028D01*
X169944034Y-115789913D01*
X169969233Y-115769233D01*
X170051759Y-115668674D01*
X170113082Y-115553947D01*
X170150844Y-115429461D01*
X170160400Y-115332439D01*
X170160400Y-115332438D01*
X170163595Y-115300000D01*
X170160400Y-115267561D01*
X170160400Y-110232439D01*
X170163595Y-110200000D01*
X170150844Y-110070539D01*
X170113082Y-109946053D01*
X170051759Y-109831326D01*
X170043289Y-109821005D01*
X169969233Y-109730767D01*
X169944033Y-109710086D01*
X166360400Y-106126454D01*
X166360400Y-103632438D01*
X166363595Y-103599999D01*
X166360400Y-103567560D01*
X166360400Y-93632438D01*
X166363595Y-93600000D01*
X166360400Y-93567561D01*
X166360400Y-92332438D01*
X166363595Y-92299999D01*
X166350844Y-92170539D01*
X166346423Y-92155964D01*
X166337637Y-92127000D01*
X169914985Y-92127000D01*
X169914984Y-97767118D01*
G04 #@! TA.AperFunction,Conductor*
D21*
G36*
X169914984Y-97767118D02*
G01*
X169915012Y-97767401D01*
X169915663Y-98093717D01*
X169915668Y-98093765D01*
X169915667Y-98094869D01*
X169917702Y-98427341D01*
X169917708Y-98427400D01*
X169917712Y-98428545D01*
X169921103Y-98753723D01*
X169921109Y-98753783D01*
X169921119Y-98754982D01*
X169925867Y-99072865D01*
X169925874Y-99072926D01*
X169925890Y-99074184D01*
X169931995Y-99384773D01*
X169932002Y-99384832D01*
X169932025Y-99386152D01*
X169939486Y-99689448D01*
X169939493Y-99689508D01*
X169939525Y-99690896D01*
X169948342Y-99986897D01*
X169948350Y-99986958D01*
X169948391Y-99988417D01*
X169958563Y-100277124D01*
X169958572Y-100277189D01*
X169958624Y-100278722D01*
X169970152Y-100560136D01*
X169970161Y-100560203D01*
X169970226Y-100561818D01*
X169983110Y-100835937D01*
X169983120Y-100836004D01*
X169983199Y-100837710D01*
X169997439Y-101104535D01*
X169997449Y-101104603D01*
X169997545Y-101106404D01*
X170013140Y-101365935D01*
X170013151Y-101366004D01*
X170013266Y-101367910D01*
X170030216Y-101620149D01*
X170030226Y-101620212D01*
X170030364Y-101622240D01*
X170048670Y-101867184D01*
X170048682Y-101867254D01*
X170048844Y-101869396D01*
X170068504Y-102107047D01*
X170068517Y-102107116D01*
X170068709Y-102109397D01*
X170089725Y-102339756D01*
X170089736Y-102339815D01*
X170089964Y-102342252D01*
X170112335Y-102565317D01*
X170112346Y-102565371D01*
X170112614Y-102567974D01*
X170136339Y-102783744D01*
X170136350Y-102783795D01*
X170136665Y-102786579D01*
X170161745Y-102995057D01*
X170161756Y-102995108D01*
X170162126Y-102998084D01*
X170188560Y-103199269D01*
X170188570Y-103199311D01*
X170189006Y-103202511D01*
X170216795Y-103396403D01*
X170216801Y-103396426D01*
X170217315Y-103399879D01*
X170246458Y-103586478D01*
X170246460Y-103586487D01*
X170247067Y-103590213D01*
X170277564Y-103769519D01*
X170277588Y-103769609D01*
X170277595Y-103769700D01*
X170278279Y-103773542D01*
X170310130Y-103945555D01*
X170310202Y-103945805D01*
X170310225Y-103946067D01*
X170310970Y-103949897D01*
X170344174Y-104114616D01*
X170344306Y-104115048D01*
X170344353Y-104115497D01*
X170345163Y-104119314D01*
X170379722Y-104276742D01*
X170379928Y-104277376D01*
X170380009Y-104278033D01*
X170380890Y-104281835D01*
X170416804Y-104431970D01*
X170417098Y-104432822D01*
X170417228Y-104433720D01*
X170418187Y-104437502D01*
X170455453Y-104580344D01*
X170455859Y-104581447D01*
X170456054Y-104582610D01*
X170457097Y-104586370D01*
X170495716Y-104721920D01*
X170496261Y-104723304D01*
X170496543Y-104724766D01*
X170497678Y-104728499D01*
X170537651Y-104856757D01*
X170538368Y-104858454D01*
X170538765Y-104860250D01*
X170540000Y-104863951D01*
X170581326Y-104984916D01*
X170582256Y-104986961D01*
X170582806Y-104989137D01*
X170584152Y-104992800D01*
X170626832Y-105106474D01*
X170628148Y-105109152D01*
X170628981Y-105112018D01*
X170630456Y-105115631D01*
X170664987Y-105198593D01*
X170665819Y-105200144D01*
X170666356Y-105201826D01*
X170667926Y-105205399D01*
X170704744Y-105287636D01*
X170705607Y-105289149D01*
X170706181Y-105290793D01*
X170707845Y-105294323D01*
X170746949Y-105375833D01*
X170747837Y-105377298D01*
X170748442Y-105378896D01*
X170750197Y-105382381D01*
X170791587Y-105463166D01*
X170792496Y-105464581D01*
X170793133Y-105466140D01*
X170794978Y-105469579D01*
X170838656Y-105549638D01*
X170839581Y-105550998D01*
X170840242Y-105552505D01*
X170842175Y-105555894D01*
X170888139Y-105635227D01*
X170889074Y-105636529D01*
X170889758Y-105637986D01*
X170891777Y-105641325D01*
X170940029Y-105719931D01*
X170940969Y-105721172D01*
X170941670Y-105722573D01*
X170943772Y-105725861D01*
X170994311Y-105803739D01*
X170995254Y-105804921D01*
X170995967Y-105806262D01*
X170998149Y-105809497D01*
X171050976Y-105886649D01*
X171051915Y-105887768D01*
X171052635Y-105889046D01*
X171054896Y-105892227D01*
X171110011Y-105968651D01*
X171110941Y-105969706D01*
X171111667Y-105970925D01*
X171114003Y-105974050D01*
X171171407Y-106049747D01*
X171172326Y-106050740D01*
X171173046Y-106051887D01*
X171175456Y-106054957D01*
X171235148Y-106129926D01*
X171236049Y-106130855D01*
X171236766Y-106131940D01*
X171239246Y-106134953D01*
X171301227Y-106209195D01*
X171302108Y-106210062D01*
X171302813Y-106211078D01*
X171305361Y-106214033D01*
X171369631Y-106287547D01*
X171370487Y-106288352D01*
X171371179Y-106289303D01*
X171373792Y-106292201D01*
X171440352Y-106364987D01*
X171441180Y-106365732D01*
X171441853Y-106366615D01*
X171444529Y-106369455D01*
X171513377Y-106441512D01*
X171514172Y-106442196D01*
X171514824Y-106443015D01*
X171517561Y-106445797D01*
X171588700Y-106517126D01*
X171589457Y-106517750D01*
X171590089Y-106518510D01*
X171592883Y-106521234D01*
X171666313Y-106591834D01*
X171667035Y-106592404D01*
X171667634Y-106593095D01*
X171670483Y-106595761D01*
X171746203Y-106665633D01*
X171746882Y-106666146D01*
X171747455Y-106666782D01*
X171750358Y-106669391D01*
X171828368Y-106738533D01*
X171829007Y-106738996D01*
X171829546Y-106739571D01*
X171832498Y-106742122D01*
X171912800Y-106810536D01*
X171913395Y-106810950D01*
X171913899Y-106811467D01*
X171916900Y-106813961D01*
X171999493Y-106881644D01*
X172000040Y-106882009D01*
X172000508Y-106882472D01*
X172003554Y-106884909D01*
X172088439Y-106951864D01*
X172088937Y-106952183D01*
X172089371Y-106952597D01*
X172092462Y-106954978D01*
X172179639Y-107021202D01*
X172180091Y-107021480D01*
X172180480Y-107021838D01*
X172183612Y-107024165D01*
X172273080Y-107089659D01*
X172273483Y-107089897D01*
X172273836Y-107090211D01*
X172277009Y-107092483D01*
X172368770Y-107157246D01*
X172369123Y-107157447D01*
X172369431Y-107157711D01*
X172372641Y-107159930D01*
X172466694Y-107223962D01*
X172466997Y-107224128D01*
X172467265Y-107224350D01*
X172470511Y-107226515D01*
X172566856Y-107289817D01*
X172567107Y-107289949D01*
X172567335Y-107290132D01*
X172570616Y-107292245D01*
X172669255Y-107354816D01*
X172669459Y-107354919D01*
X172669640Y-107355060D01*
X172672953Y-107357122D01*
X172773886Y-107418962D01*
X172774040Y-107419037D01*
X172774177Y-107419140D01*
X172777521Y-107421151D01*
X172880747Y-107482260D01*
X172880852Y-107482309D01*
X172880945Y-107482377D01*
X172884318Y-107484338D01*
X172989838Y-107544716D01*
X172990353Y-107544947D01*
X172990820Y-107545276D01*
X172994229Y-107547177D01*
X173137854Y-107625959D01*
X173137986Y-107626015D01*
X173138104Y-107626096D01*
X173141540Y-107627945D01*
X173285688Y-107704228D01*
X173285835Y-107704288D01*
X173285974Y-107704380D01*
X173289438Y-107706176D01*
X173434108Y-107779958D01*
X173434273Y-107780023D01*
X173434424Y-107780119D01*
X173437914Y-107781863D01*
X173583105Y-107853144D01*
X173583291Y-107853214D01*
X173583457Y-107853316D01*
X173586974Y-107855006D01*
X173732686Y-107923785D01*
X173732883Y-107923855D01*
X173733067Y-107923965D01*
X173736610Y-107925600D01*
X173882843Y-107991878D01*
X173883055Y-107991950D01*
X173883255Y-107992065D01*
X173886823Y-107993645D01*
X174033576Y-108057422D01*
X174033809Y-108057497D01*
X174034018Y-108057613D01*
X174037610Y-108059137D01*
X174184886Y-108120413D01*
X174185126Y-108120486D01*
X174185354Y-108120608D01*
X174188970Y-108122075D01*
X174336767Y-108180850D01*
X174337025Y-108180924D01*
X174337260Y-108181045D01*
X174340898Y-108182455D01*
X174489216Y-108238729D01*
X174489484Y-108238802D01*
X174489734Y-108238925D01*
X174493394Y-108240276D01*
X174642234Y-108294049D01*
X174642509Y-108294119D01*
X174642775Y-108294245D01*
X174646457Y-108295537D01*
X174795817Y-108346808D01*
X174796105Y-108346876D01*
X174796375Y-108346999D01*
X174800077Y-108348232D01*
X174949958Y-108397003D01*
X174950253Y-108397068D01*
X174950538Y-108397192D01*
X174954260Y-108398365D01*
X175104661Y-108444634D01*
X175104965Y-108444696D01*
X175105254Y-108444816D01*
X175108994Y-108445928D01*
X175259918Y-108489697D01*
X175260229Y-108489755D01*
X175260526Y-108489873D01*
X175264284Y-108490925D01*
X175415727Y-108532192D01*
X175416041Y-108532245D01*
X175416347Y-108532361D01*
X175420121Y-108533351D01*
X175572086Y-108572117D01*
X175572402Y-108572165D01*
X175572712Y-108572277D01*
X175576502Y-108573206D01*
X175728987Y-108609472D01*
X175729311Y-108609516D01*
X175729624Y-108609623D01*
X175733428Y-108610490D01*
X175886434Y-108644254D01*
X175886761Y-108644293D01*
X175887073Y-108644394D01*
X175890891Y-108645199D01*
X176044419Y-108676462D01*
X176044743Y-108676496D01*
X176045059Y-108676592D01*
X176048889Y-108677335D01*
X176202936Y-108706097D01*
X176203260Y-108706125D01*
X176203576Y-108706216D01*
X176207419Y-108706896D01*
X176361988Y-108733157D01*
X176362306Y-108733180D01*
X176362623Y-108733265D01*
X176366476Y-108733882D01*
X176521564Y-108757642D01*
X176521885Y-108757659D01*
X176522196Y-108757738D01*
X176526058Y-108758293D01*
X176681668Y-108779551D01*
X176681982Y-108779563D01*
X176682288Y-108779635D01*
X176686159Y-108780128D01*
X176842289Y-108798886D01*
X176842594Y-108798893D01*
X176842898Y-108798959D01*
X176846777Y-108799388D01*
X177003427Y-108815645D01*
X177003724Y-108815647D01*
X177004023Y-108815707D01*
X177007908Y-108816074D01*
X177165079Y-108829830D01*
X177165374Y-108829827D01*
X177165661Y-108829880D01*
X177169551Y-108830185D01*
X177327243Y-108841439D01*
X177327522Y-108841432D01*
X177327803Y-108841479D01*
X177331697Y-108841721D01*
X177489909Y-108850475D01*
X177490179Y-108850464D01*
X177490452Y-108850505D01*
X177494350Y-108850685D01*
X177653082Y-108856937D01*
X177653335Y-108856922D01*
X177653598Y-108856958D01*
X177657498Y-108857076D01*
X177816751Y-108860828D01*
X177816993Y-108860810D01*
X177817243Y-108860840D01*
X177821145Y-108860897D01*
X177968284Y-108862049D01*
X177969380Y-108862157D01*
X180317452Y-108862157D01*
X180317451Y-118864886D01*
X160275951Y-118864886D01*
X160262225Y-118863534D01*
X160248499Y-118864886D01*
X160207443Y-118868930D01*
X160154767Y-118884909D01*
X160106220Y-118910858D01*
X160063668Y-118945779D01*
X160041329Y-118973000D01*
X158560400Y-118973000D01*
X158560400Y-117273546D01*
X158773547Y-117060400D01*
X168367561Y-117060400D01*
X168400000Y-117063595D01*
X168432439Y-117060400D01*
X168529461Y-117050844D01*
X168653947Y-117013082D01*
X168768674Y-116951759D01*
X168869233Y-116869233D01*
X168889918Y-116844028D01*
X169944034Y-115789913D01*
X169969233Y-115769233D01*
X170051759Y-115668674D01*
X170113082Y-115553947D01*
X170150844Y-115429461D01*
X170160400Y-115332439D01*
X170160400Y-115332438D01*
X170163595Y-115300000D01*
X170160400Y-115267561D01*
X170160400Y-110232439D01*
X170163595Y-110200000D01*
X170150844Y-110070539D01*
X170113082Y-109946053D01*
X170051759Y-109831326D01*
X170043289Y-109821005D01*
X169969233Y-109730767D01*
X169944033Y-109710086D01*
X166360400Y-106126454D01*
X166360400Y-103632438D01*
X166363595Y-103599999D01*
X166360400Y-103567560D01*
X166360400Y-93632438D01*
X166363595Y-93600000D01*
X166360400Y-93567561D01*
X166360400Y-92332438D01*
X166363595Y-92299999D01*
X166350844Y-92170539D01*
X166346423Y-92155964D01*
X166337637Y-92127000D01*
X169914985Y-92127000D01*
X169914984Y-97767118D01*
G37*
G04 #@! TD.AperFunction*
D22*
X165039601Y-103873548D02*
X165039600Y-106367561D01*
X165036405Y-106400000D01*
X165048081Y-106518549D01*
X165049156Y-106529460D01*
X165086918Y-106653946D01*
X165148241Y-106768673D01*
X165230767Y-106869233D01*
X165255972Y-106889918D01*
X168839601Y-110473548D01*
X168839600Y-115026453D01*
X168126454Y-115739600D01*
X158532438Y-115739600D01*
X158499999Y-115736405D01*
X158422522Y-115744036D01*
X158370539Y-115749156D01*
X158246053Y-115786918D01*
X158131326Y-115848241D01*
X158030767Y-115930767D01*
X158010088Y-115955965D01*
X157455967Y-116510087D01*
X157430768Y-116530767D01*
X157348242Y-116631326D01*
X157336151Y-116653947D01*
X157286918Y-116746054D01*
X157249156Y-116870540D01*
X157236405Y-117000000D01*
X157239601Y-117032449D01*
X157239600Y-118973000D01*
X155531399Y-118973000D01*
X155494770Y-118948525D01*
X155381518Y-118901615D01*
X155261291Y-118877700D01*
X155138709Y-118877700D01*
X155018482Y-118901615D01*
X154905230Y-118948525D01*
X154868601Y-118973000D01*
X154006961Y-118973000D01*
X151650162Y-116616203D01*
X151650162Y-112380948D01*
X151651881Y-112363495D01*
X151650162Y-112346042D01*
X151650162Y-112346033D01*
X151645016Y-112293786D01*
X151624683Y-112226756D01*
X151591663Y-112164980D01*
X151578943Y-112149481D01*
X151558357Y-112124396D01*
X151558347Y-112124386D01*
X151547224Y-112110833D01*
X151533671Y-112099710D01*
X151360410Y-111926450D01*
X151360410Y-111801124D01*
X151391700Y-111839251D01*
X151480089Y-111927640D01*
X151532104Y-111970328D01*
X151591448Y-112002048D01*
X151652367Y-112020528D01*
X151670846Y-112081445D01*
X151702566Y-112140789D01*
X151745254Y-112192804D01*
X151833643Y-112281193D01*
X151885658Y-112323881D01*
X151945002Y-112355601D01*
X152005920Y-112374080D01*
X152024399Y-112434998D01*
X152056119Y-112494342D01*
X152098807Y-112546357D01*
X152187196Y-112634746D01*
X152239211Y-112677434D01*
X152298555Y-112709154D01*
X152359472Y-112727633D01*
X152377952Y-112788552D01*
X152409672Y-112847896D01*
X152452360Y-112899911D01*
X152540749Y-112988300D01*
X152592764Y-113030988D01*
X152652108Y-113062708D01*
X152713027Y-113081188D01*
X152731506Y-113142105D01*
X152763226Y-113201449D01*
X152805914Y-113253464D01*
X152894303Y-113341853D01*
X152946318Y-113384541D01*
X153005662Y-113416261D01*
X153066580Y-113434740D01*
X153085059Y-113495658D01*
X153116779Y-113555002D01*
X153159467Y-113607017D01*
X153247856Y-113695406D01*
X153299871Y-113738094D01*
X153359215Y-113769814D01*
X153423606Y-113789347D01*
X153490571Y-113795942D01*
X153557536Y-113789347D01*
X153621927Y-113769814D01*
X153681271Y-113738094D01*
X153733286Y-113695406D01*
X154180000Y-113248692D01*
X154626714Y-113695406D01*
X154678729Y-113738094D01*
X154738073Y-113769814D01*
X154802464Y-113789347D01*
X154869429Y-113795942D01*
X154936394Y-113789347D01*
X155000785Y-113769814D01*
X155060129Y-113738094D01*
X155112144Y-113695406D01*
X155200533Y-113607017D01*
X155243221Y-113555002D01*
X155274941Y-113495658D01*
X155293420Y-113434740D01*
X155354338Y-113416261D01*
X155413682Y-113384541D01*
X155465697Y-113341853D01*
X155554086Y-113253464D01*
X155596774Y-113201449D01*
X155628494Y-113142105D01*
X155646973Y-113081188D01*
X155707892Y-113062708D01*
X155767236Y-113030988D01*
X155819251Y-112988300D01*
X155907640Y-112899911D01*
X155950328Y-112847896D01*
X155982048Y-112788552D01*
X156000528Y-112727633D01*
X156061445Y-112709154D01*
X156120789Y-112677434D01*
X156139591Y-112662004D01*
X156139590Y-113577726D01*
X156139590Y-113922272D01*
X156139592Y-113922290D01*
X156139592Y-113923043D01*
X156137872Y-113940507D01*
X156144737Y-114010217D01*
X156165071Y-114077248D01*
X156181581Y-114108135D01*
X156198091Y-114139023D01*
X156242529Y-114193170D01*
X156256092Y-114204301D01*
X156895704Y-114843915D01*
X156906831Y-114857473D01*
X156920389Y-114868600D01*
X156920394Y-114868605D01*
X156954572Y-114896654D01*
X156960978Y-114901911D01*
X157022754Y-114934931D01*
X157089784Y-114955264D01*
X157142031Y-114960410D01*
X157142040Y-114960410D01*
X157159493Y-114962129D01*
X157176946Y-114960410D01*
X165277735Y-114960410D01*
X165295190Y-114962129D01*
X165312645Y-114960410D01*
X165312653Y-114960410D01*
X165364900Y-114955264D01*
X165431930Y-114934931D01*
X165493706Y-114901911D01*
X165547853Y-114857473D01*
X165558989Y-114843904D01*
X165944249Y-114458645D01*
X165944249Y-114825000D01*
X165953486Y-114918790D01*
X165980844Y-115008975D01*
X166025270Y-115092091D01*
X166085058Y-115164942D01*
X166157909Y-115224730D01*
X166241025Y-115269156D01*
X166331210Y-115296514D01*
X166425000Y-115305751D01*
X166975000Y-115305751D01*
X167068790Y-115296514D01*
X167158975Y-115269156D01*
X167242091Y-115224730D01*
X167314942Y-115164942D01*
X167374730Y-115092091D01*
X167407848Y-115030131D01*
X167454668Y-115025519D01*
X167531275Y-115002281D01*
X167601876Y-114964544D01*
X167663758Y-114913758D01*
X167676482Y-114898254D01*
X167873255Y-114701481D01*
X167888758Y-114688758D01*
X167939544Y-114626876D01*
X167977281Y-114556275D01*
X167994802Y-114498515D01*
X168000519Y-114479669D01*
X168004747Y-114436740D01*
X168006400Y-114419960D01*
X168006400Y-114419954D01*
X168008365Y-114400001D01*
X168006400Y-114380048D01*
X168006400Y-110219952D01*
X168008365Y-110199999D01*
X168006400Y-110180046D01*
X168006400Y-110180040D01*
X168000519Y-110120332D01*
X167999396Y-110116628D01*
X167977281Y-110043725D01*
X167970391Y-110030835D01*
X167939544Y-109973124D01*
X167888758Y-109911242D01*
X167873252Y-109898516D01*
X167676482Y-109701746D01*
X167663758Y-109686242D01*
X167601876Y-109635456D01*
X167531275Y-109597719D01*
X167454668Y-109574481D01*
X167407848Y-109569869D01*
X167374730Y-109507909D01*
X167314942Y-109435058D01*
X167242091Y-109375270D01*
X167158975Y-109330844D01*
X167106400Y-109314895D01*
X167106400Y-109219952D01*
X167108365Y-109199999D01*
X167106400Y-109180046D01*
X167106400Y-109180040D01*
X167100519Y-109120332D01*
X167077281Y-109043725D01*
X167039544Y-108973124D01*
X166988758Y-108911242D01*
X166973255Y-108898519D01*
X166526481Y-108451745D01*
X166513758Y-108436242D01*
X166451876Y-108385456D01*
X166381275Y-108347719D01*
X166304668Y-108324481D01*
X166244960Y-108318600D01*
X166244953Y-108318600D01*
X166225000Y-108316635D01*
X166205047Y-108318600D01*
X166043336Y-108318600D01*
X164558400Y-106833664D01*
X164558400Y-106034498D01*
X164608975Y-106019156D01*
X164692091Y-105974730D01*
X164764942Y-105914942D01*
X164824730Y-105842091D01*
X164869156Y-105758975D01*
X164896514Y-105668790D01*
X164905751Y-105575000D01*
X164905751Y-105025000D01*
X164896514Y-104931210D01*
X164869156Y-104841025D01*
X164824730Y-104757909D01*
X164764942Y-104685058D01*
X164692091Y-104625270D01*
X164608975Y-104580844D01*
X164555019Y-104564476D01*
X164550681Y-104520435D01*
X164520181Y-104419889D01*
X164470651Y-104327225D01*
X164413400Y-104257465D01*
X164413400Y-104225751D01*
X164610000Y-104225751D01*
X164664772Y-104220356D01*
X164717439Y-104204380D01*
X164765977Y-104178436D01*
X164808521Y-104143521D01*
X164843436Y-104100977D01*
X164869380Y-104052439D01*
X164885356Y-103999772D01*
X164890751Y-103945000D01*
X164890751Y-103724698D01*
X165039601Y-103873548D01*
G04 #@! TA.AperFunction,Conductor*
D21*
G36*
X165039601Y-103873548D02*
G01*
X165039600Y-106367561D01*
X165036405Y-106400000D01*
X165048081Y-106518549D01*
X165049156Y-106529460D01*
X165086918Y-106653946D01*
X165148241Y-106768673D01*
X165230767Y-106869233D01*
X165255972Y-106889918D01*
X168839601Y-110473548D01*
X168839600Y-115026453D01*
X168126454Y-115739600D01*
X158532438Y-115739600D01*
X158499999Y-115736405D01*
X158422522Y-115744036D01*
X158370539Y-115749156D01*
X158246053Y-115786918D01*
X158131326Y-115848241D01*
X158030767Y-115930767D01*
X158010088Y-115955965D01*
X157455967Y-116510087D01*
X157430768Y-116530767D01*
X157348242Y-116631326D01*
X157336151Y-116653947D01*
X157286918Y-116746054D01*
X157249156Y-116870540D01*
X157236405Y-117000000D01*
X157239601Y-117032449D01*
X157239600Y-118973000D01*
X155531399Y-118973000D01*
X155494770Y-118948525D01*
X155381518Y-118901615D01*
X155261291Y-118877700D01*
X155138709Y-118877700D01*
X155018482Y-118901615D01*
X154905230Y-118948525D01*
X154868601Y-118973000D01*
X154006961Y-118973000D01*
X151650162Y-116616203D01*
X151650162Y-112380948D01*
X151651881Y-112363495D01*
X151650162Y-112346042D01*
X151650162Y-112346033D01*
X151645016Y-112293786D01*
X151624683Y-112226756D01*
X151591663Y-112164980D01*
X151578943Y-112149481D01*
X151558357Y-112124396D01*
X151558347Y-112124386D01*
X151547224Y-112110833D01*
X151533671Y-112099710D01*
X151360410Y-111926450D01*
X151360410Y-111801124D01*
X151391700Y-111839251D01*
X151480089Y-111927640D01*
X151532104Y-111970328D01*
X151591448Y-112002048D01*
X151652367Y-112020528D01*
X151670846Y-112081445D01*
X151702566Y-112140789D01*
X151745254Y-112192804D01*
X151833643Y-112281193D01*
X151885658Y-112323881D01*
X151945002Y-112355601D01*
X152005920Y-112374080D01*
X152024399Y-112434998D01*
X152056119Y-112494342D01*
X152098807Y-112546357D01*
X152187196Y-112634746D01*
X152239211Y-112677434D01*
X152298555Y-112709154D01*
X152359472Y-112727633D01*
X152377952Y-112788552D01*
X152409672Y-112847896D01*
X152452360Y-112899911D01*
X152540749Y-112988300D01*
X152592764Y-113030988D01*
X152652108Y-113062708D01*
X152713027Y-113081188D01*
X152731506Y-113142105D01*
X152763226Y-113201449D01*
X152805914Y-113253464D01*
X152894303Y-113341853D01*
X152946318Y-113384541D01*
X153005662Y-113416261D01*
X153066580Y-113434740D01*
X153085059Y-113495658D01*
X153116779Y-113555002D01*
X153159467Y-113607017D01*
X153247856Y-113695406D01*
X153299871Y-113738094D01*
X153359215Y-113769814D01*
X153423606Y-113789347D01*
X153490571Y-113795942D01*
X153557536Y-113789347D01*
X153621927Y-113769814D01*
X153681271Y-113738094D01*
X153733286Y-113695406D01*
X154180000Y-113248692D01*
X154626714Y-113695406D01*
X154678729Y-113738094D01*
X154738073Y-113769814D01*
X154802464Y-113789347D01*
X154869429Y-113795942D01*
X154936394Y-113789347D01*
X155000785Y-113769814D01*
X155060129Y-113738094D01*
X155112144Y-113695406D01*
X155200533Y-113607017D01*
X155243221Y-113555002D01*
X155274941Y-113495658D01*
X155293420Y-113434740D01*
X155354338Y-113416261D01*
X155413682Y-113384541D01*
X155465697Y-113341853D01*
X155554086Y-113253464D01*
X155596774Y-113201449D01*
X155628494Y-113142105D01*
X155646973Y-113081188D01*
X155707892Y-113062708D01*
X155767236Y-113030988D01*
X155819251Y-112988300D01*
X155907640Y-112899911D01*
X155950328Y-112847896D01*
X155982048Y-112788552D01*
X156000528Y-112727633D01*
X156061445Y-112709154D01*
X156120789Y-112677434D01*
X156139591Y-112662004D01*
X156139590Y-113577726D01*
X156139590Y-113922272D01*
X156139592Y-113922290D01*
X156139592Y-113923043D01*
X156137872Y-113940507D01*
X156144737Y-114010217D01*
X156165071Y-114077248D01*
X156181581Y-114108135D01*
X156198091Y-114139023D01*
X156242529Y-114193170D01*
X156256092Y-114204301D01*
X156895704Y-114843915D01*
X156906831Y-114857473D01*
X156920389Y-114868600D01*
X156920394Y-114868605D01*
X156954572Y-114896654D01*
X156960978Y-114901911D01*
X157022754Y-114934931D01*
X157089784Y-114955264D01*
X157142031Y-114960410D01*
X157142040Y-114960410D01*
X157159493Y-114962129D01*
X157176946Y-114960410D01*
X165277735Y-114960410D01*
X165295190Y-114962129D01*
X165312645Y-114960410D01*
X165312653Y-114960410D01*
X165364900Y-114955264D01*
X165431930Y-114934931D01*
X165493706Y-114901911D01*
X165547853Y-114857473D01*
X165558989Y-114843904D01*
X165944249Y-114458645D01*
X165944249Y-114825000D01*
X165953486Y-114918790D01*
X165980844Y-115008975D01*
X166025270Y-115092091D01*
X166085058Y-115164942D01*
X166157909Y-115224730D01*
X166241025Y-115269156D01*
X166331210Y-115296514D01*
X166425000Y-115305751D01*
X166975000Y-115305751D01*
X167068790Y-115296514D01*
X167158975Y-115269156D01*
X167242091Y-115224730D01*
X167314942Y-115164942D01*
X167374730Y-115092091D01*
X167407848Y-115030131D01*
X167454668Y-115025519D01*
X167531275Y-115002281D01*
X167601876Y-114964544D01*
X167663758Y-114913758D01*
X167676482Y-114898254D01*
X167873255Y-114701481D01*
X167888758Y-114688758D01*
X167939544Y-114626876D01*
X167977281Y-114556275D01*
X167994802Y-114498515D01*
X168000519Y-114479669D01*
X168004747Y-114436740D01*
X168006400Y-114419960D01*
X168006400Y-114419954D01*
X168008365Y-114400001D01*
X168006400Y-114380048D01*
X168006400Y-110219952D01*
X168008365Y-110199999D01*
X168006400Y-110180046D01*
X168006400Y-110180040D01*
X168000519Y-110120332D01*
X167999396Y-110116628D01*
X167977281Y-110043725D01*
X167970391Y-110030835D01*
X167939544Y-109973124D01*
X167888758Y-109911242D01*
X167873252Y-109898516D01*
X167676482Y-109701746D01*
X167663758Y-109686242D01*
X167601876Y-109635456D01*
X167531275Y-109597719D01*
X167454668Y-109574481D01*
X167407848Y-109569869D01*
X167374730Y-109507909D01*
X167314942Y-109435058D01*
X167242091Y-109375270D01*
X167158975Y-109330844D01*
X167106400Y-109314895D01*
X167106400Y-109219952D01*
X167108365Y-109199999D01*
X167106400Y-109180046D01*
X167106400Y-109180040D01*
X167100519Y-109120332D01*
X167077281Y-109043725D01*
X167039544Y-108973124D01*
X166988758Y-108911242D01*
X166973255Y-108898519D01*
X166526481Y-108451745D01*
X166513758Y-108436242D01*
X166451876Y-108385456D01*
X166381275Y-108347719D01*
X166304668Y-108324481D01*
X166244960Y-108318600D01*
X166244953Y-108318600D01*
X166225000Y-108316635D01*
X166205047Y-108318600D01*
X166043336Y-108318600D01*
X164558400Y-106833664D01*
X164558400Y-106034498D01*
X164608975Y-106019156D01*
X164692091Y-105974730D01*
X164764942Y-105914942D01*
X164824730Y-105842091D01*
X164869156Y-105758975D01*
X164896514Y-105668790D01*
X164905751Y-105575000D01*
X164905751Y-105025000D01*
X164896514Y-104931210D01*
X164869156Y-104841025D01*
X164824730Y-104757909D01*
X164764942Y-104685058D01*
X164692091Y-104625270D01*
X164608975Y-104580844D01*
X164555019Y-104564476D01*
X164550681Y-104520435D01*
X164520181Y-104419889D01*
X164470651Y-104327225D01*
X164413400Y-104257465D01*
X164413400Y-104225751D01*
X164610000Y-104225751D01*
X164664772Y-104220356D01*
X164717439Y-104204380D01*
X164765977Y-104178436D01*
X164808521Y-104143521D01*
X164843436Y-104100977D01*
X164869380Y-104052439D01*
X164885356Y-103999772D01*
X164890751Y-103945000D01*
X164890751Y-103724698D01*
X165039601Y-103873548D01*
G37*
G04 #@! TD.AperFunction*
D22*
X155355964Y-93089911D02*
X155355969Y-93089915D01*
X156310086Y-94044033D01*
X156330767Y-94069233D01*
X156431326Y-94151759D01*
X156546053Y-94213082D01*
X156670539Y-94250844D01*
X156800000Y-94263595D01*
X156832439Y-94260400D01*
X165039601Y-94260400D01*
X165039601Y-96125673D01*
X164981518Y-96101615D01*
X164861291Y-96077700D01*
X164738709Y-96077700D01*
X164618482Y-96101615D01*
X164505230Y-96148525D01*
X164403307Y-96216628D01*
X164316628Y-96303307D01*
X164248525Y-96405230D01*
X164201615Y-96518482D01*
X164177700Y-96638709D01*
X164177700Y-96761291D01*
X164187342Y-96809764D01*
X163455600Y-97541507D01*
X163455600Y-95810830D01*
X163496693Y-95783372D01*
X163583372Y-95696693D01*
X163651475Y-95594770D01*
X163698385Y-95481518D01*
X163722300Y-95361291D01*
X163722300Y-95238709D01*
X163698385Y-95118482D01*
X163651475Y-95005230D01*
X163583372Y-94903307D01*
X163496693Y-94816628D01*
X163394770Y-94748525D01*
X163281518Y-94701615D01*
X163161291Y-94677700D01*
X163038709Y-94677700D01*
X162918482Y-94701615D01*
X162805230Y-94748525D01*
X162703307Y-94816628D01*
X162616628Y-94903307D01*
X162548525Y-95005230D01*
X162501615Y-95118482D01*
X162477700Y-95238709D01*
X162477700Y-95361291D01*
X162501615Y-95481518D01*
X162548525Y-95594770D01*
X162616628Y-95696693D01*
X162703307Y-95783372D01*
X162744400Y-95810830D01*
X162744401Y-98652705D01*
X161952707Y-99444400D01*
X160117452Y-99444400D01*
X160099999Y-99442681D01*
X160082546Y-99444400D01*
X160082537Y-99444400D01*
X160030290Y-99449546D01*
X159963260Y-99469879D01*
X159901484Y-99502899D01*
X159901482Y-99502900D01*
X159901483Y-99502900D01*
X159860900Y-99536205D01*
X159860895Y-99536210D01*
X159847337Y-99547337D01*
X159836210Y-99560895D01*
X159252707Y-100144400D01*
X157917455Y-100144400D01*
X157899999Y-100142681D01*
X157882544Y-100144400D01*
X157882537Y-100144400D01*
X157837187Y-100148867D01*
X157830289Y-100149546D01*
X157810332Y-100155600D01*
X157763260Y-100169879D01*
X157701484Y-100202899D01*
X157701482Y-100202900D01*
X157701483Y-100202900D01*
X157660900Y-100236205D01*
X157660895Y-100236210D01*
X157647337Y-100247337D01*
X157636210Y-100260895D01*
X157210901Y-100686206D01*
X157197337Y-100697338D01*
X157152899Y-100751485D01*
X157119879Y-100813261D01*
X157112630Y-100837158D01*
X157100320Y-100877741D01*
X157099546Y-100880291D01*
X157094400Y-100932538D01*
X157094400Y-100932545D01*
X157092681Y-100950000D01*
X157094400Y-100967456D01*
X157094401Y-102302705D01*
X156660902Y-102736205D01*
X156647337Y-102747338D01*
X156602899Y-102801485D01*
X156569879Y-102863261D01*
X156559168Y-102898571D01*
X156549547Y-102930289D01*
X156549546Y-102930291D01*
X156544400Y-102982538D01*
X156544400Y-102982545D01*
X156542681Y-103000000D01*
X156544400Y-103017456D01*
X156544401Y-107182535D01*
X156542681Y-107200000D01*
X156549546Y-107269710D01*
X156569880Y-107336741D01*
X156581052Y-107357641D01*
X156602900Y-107398516D01*
X156622181Y-107422009D01*
X156632808Y-107434958D01*
X156647338Y-107452663D01*
X156660901Y-107463794D01*
X156744400Y-107547293D01*
X156744401Y-108193365D01*
X156664791Y-108272975D01*
X156657434Y-108259211D01*
X156614746Y-108207196D01*
X156526357Y-108118807D01*
X156474342Y-108076119D01*
X156414998Y-108044399D01*
X156354080Y-108025920D01*
X156335601Y-107965002D01*
X156303881Y-107905658D01*
X156261193Y-107853643D01*
X156172804Y-107765254D01*
X156120789Y-107722566D01*
X156061445Y-107690846D01*
X156000528Y-107672367D01*
X155982048Y-107611448D01*
X155950328Y-107552104D01*
X155907640Y-107500089D01*
X155819251Y-107411700D01*
X155767236Y-107369012D01*
X155707892Y-107337292D01*
X155646973Y-107318812D01*
X155628494Y-107257895D01*
X155596774Y-107198551D01*
X155554086Y-107146536D01*
X155465697Y-107058147D01*
X155413682Y-107015459D01*
X155354338Y-106983739D01*
X155293420Y-106965260D01*
X155274941Y-106904342D01*
X155243221Y-106844998D01*
X155200533Y-106792983D01*
X155112144Y-106704594D01*
X155060129Y-106661906D01*
X155000785Y-106630186D01*
X154936394Y-106610653D01*
X154869429Y-106604058D01*
X154802464Y-106610653D01*
X154738073Y-106630186D01*
X154678729Y-106661906D01*
X154626714Y-106704594D01*
X154180000Y-107151308D01*
X153733286Y-106704594D01*
X153681271Y-106661906D01*
X153621927Y-106630186D01*
X153573158Y-106615392D01*
X153560410Y-106602644D01*
X153560410Y-106473549D01*
X153773550Y-106260410D01*
X155008792Y-106260408D01*
X155026257Y-106262128D01*
X155095967Y-106255263D01*
X155162998Y-106234929D01*
X155196719Y-106216904D01*
X155224773Y-106201909D01*
X155278920Y-106157471D01*
X155290051Y-106143908D01*
X156039104Y-105394856D01*
X156052662Y-105383729D01*
X156063790Y-105370170D01*
X156063795Y-105370165D01*
X156081003Y-105349197D01*
X156097101Y-105329582D01*
X156130121Y-105267806D01*
X156145709Y-105216419D01*
X156150454Y-105200777D01*
X156151108Y-105194135D01*
X156155600Y-105148529D01*
X156155600Y-105148522D01*
X156157319Y-105131066D01*
X156155600Y-105113611D01*
X156155600Y-104417455D01*
X156157319Y-104400000D01*
X156155600Y-104382545D01*
X156155600Y-104382537D01*
X156151666Y-104342595D01*
X156151666Y-104199943D01*
X156153385Y-104182488D01*
X156151666Y-104165033D01*
X156151666Y-104165026D01*
X156146520Y-104112778D01*
X156126187Y-104045748D01*
X156093167Y-103983972D01*
X156071582Y-103957671D01*
X156059861Y-103943389D01*
X156059860Y-103943388D01*
X156048729Y-103929825D01*
X156035166Y-103918694D01*
X154572562Y-102456091D01*
X154561432Y-102442529D01*
X154546761Y-102430488D01*
X154517581Y-102406541D01*
X154507285Y-102398091D01*
X154469213Y-102377741D01*
X154445510Y-102365071D01*
X154378479Y-102344737D01*
X154308769Y-102337872D01*
X154291304Y-102339592D01*
X153334730Y-102339591D01*
X153357388Y-102256993D01*
X152580000Y-101479605D01*
X151802612Y-102256993D01*
X151825270Y-102339590D01*
X151582484Y-102339590D01*
X150975163Y-101732270D01*
X151029841Y-101600265D01*
X151069400Y-101401387D01*
X151069400Y-101372492D01*
X151190188Y-101372492D01*
X151231035Y-101642238D01*
X151323723Y-101898832D01*
X151384140Y-102011863D01*
X151623007Y-102077388D01*
X152400395Y-101300000D01*
X152759605Y-101300000D01*
X153536993Y-102077388D01*
X153775860Y-102011863D01*
X153891760Y-101764884D01*
X153957250Y-101500040D01*
X153969812Y-101227508D01*
X153928965Y-100957762D01*
X153836277Y-100701168D01*
X153775860Y-100588137D01*
X153536993Y-100522612D01*
X152759605Y-101300000D01*
X152400395Y-101300000D01*
X151623007Y-100522612D01*
X151384140Y-100588137D01*
X151268240Y-100835116D01*
X151202750Y-101099960D01*
X151190188Y-101372492D01*
X151069400Y-101372492D01*
X151069400Y-101198613D01*
X151029841Y-100999735D01*
X150952243Y-100812396D01*
X150839587Y-100643796D01*
X150696204Y-100500413D01*
X150527604Y-100387757D01*
X150419568Y-100343007D01*
X151802612Y-100343007D01*
X152580000Y-101120395D01*
X153357388Y-100343007D01*
X153291863Y-100104140D01*
X153044884Y-99988240D01*
X152780040Y-99922750D01*
X152507508Y-99910188D01*
X152237762Y-99951035D01*
X151981168Y-100043723D01*
X151868137Y-100104140D01*
X151802612Y-100343007D01*
X150419568Y-100343007D01*
X150340265Y-100310159D01*
X150141387Y-100270600D01*
X149938613Y-100270600D01*
X149739735Y-100310159D01*
X149552396Y-100387757D01*
X149383796Y-100500413D01*
X149240413Y-100643796D01*
X149127757Y-100812396D01*
X149050159Y-100999735D01*
X149010600Y-101198613D01*
X149010600Y-101401387D01*
X149050159Y-101600265D01*
X149127757Y-101787604D01*
X149240413Y-101956204D01*
X149383796Y-102099587D01*
X149552396Y-102212243D01*
X149739735Y-102289841D01*
X149938613Y-102329400D01*
X150141387Y-102329400D01*
X150340265Y-102289841D01*
X150472270Y-102235163D01*
X150881506Y-102644400D01*
X149347295Y-102644400D01*
X148435163Y-101732269D01*
X148489841Y-101600265D01*
X148529400Y-101401387D01*
X148529400Y-101198613D01*
X148489841Y-100999735D01*
X148412243Y-100812396D01*
X148299587Y-100643796D01*
X148156204Y-100500413D01*
X147987604Y-100387757D01*
X147800265Y-100310159D01*
X147601387Y-100270600D01*
X147398613Y-100270600D01*
X147199735Y-100310159D01*
X147012396Y-100387757D01*
X146843796Y-100500413D01*
X146700413Y-100643796D01*
X146587757Y-100812396D01*
X146510159Y-100999735D01*
X146470600Y-101198613D01*
X146470600Y-101401387D01*
X146510159Y-101600265D01*
X146587757Y-101787604D01*
X146700413Y-101956204D01*
X146843796Y-102099587D01*
X147012396Y-102212243D01*
X147199735Y-102289841D01*
X147398613Y-102329400D01*
X147601387Y-102329400D01*
X147800265Y-102289841D01*
X147932269Y-102235163D01*
X148936210Y-103239105D01*
X148947337Y-103252663D01*
X148960895Y-103263790D01*
X148960900Y-103263795D01*
X148989532Y-103287292D01*
X149001484Y-103297101D01*
X149063260Y-103330121D01*
X149096938Y-103340337D01*
X149130289Y-103350454D01*
X149137187Y-103351133D01*
X149182537Y-103355600D01*
X149182544Y-103355600D01*
X149199999Y-103357319D01*
X149217455Y-103355600D01*
X154035219Y-103355600D01*
X155135657Y-104456039D01*
X155135656Y-104861449D01*
X154752707Y-105244400D01*
X153517455Y-105244400D01*
X153499999Y-105242681D01*
X153482544Y-105244400D01*
X153482537Y-105244400D01*
X153437187Y-105248867D01*
X153430289Y-105249546D01*
X153409152Y-105255958D01*
X153363260Y-105269879D01*
X153301484Y-105302899D01*
X153301482Y-105302900D01*
X153301483Y-105302900D01*
X153260900Y-105336205D01*
X153260895Y-105336210D01*
X153247337Y-105347337D01*
X153236210Y-105360895D01*
X152660901Y-105936206D01*
X152647338Y-105947337D01*
X152642753Y-105952924D01*
X152663395Y-105914305D01*
X152690753Y-105824120D01*
X152699990Y-105730330D01*
X152699160Y-105721907D01*
X153287668Y-105133400D01*
X153878179Y-105133400D01*
X153905230Y-105151475D01*
X154018482Y-105198385D01*
X154138709Y-105222300D01*
X154261291Y-105222300D01*
X154381518Y-105198385D01*
X154494770Y-105151475D01*
X154596693Y-105083372D01*
X154683372Y-104996693D01*
X154751475Y-104894770D01*
X154798385Y-104781518D01*
X154822300Y-104661291D01*
X154822300Y-104538709D01*
X154798385Y-104418482D01*
X154751475Y-104305230D01*
X154683372Y-104203307D01*
X154596693Y-104116628D01*
X154494770Y-104048525D01*
X154381518Y-104001615D01*
X154261291Y-103977700D01*
X154138709Y-103977700D01*
X154018482Y-104001615D01*
X153905230Y-104048525D01*
X153878179Y-104066600D01*
X153092912Y-104066600D01*
X153066725Y-104064021D01*
X153040538Y-104066600D01*
X153040531Y-104066600D01*
X152962161Y-104074319D01*
X152861615Y-104104819D01*
X152768951Y-104154349D01*
X152744919Y-104174072D01*
X152713957Y-104199482D01*
X152687731Y-104221005D01*
X152671035Y-104241349D01*
X151944819Y-104967566D01*
X151936396Y-104966736D01*
X151842606Y-104975973D01*
X151810370Y-104985752D01*
X151865893Y-104918098D01*
X151924858Y-104807784D01*
X151961167Y-104688085D01*
X151973427Y-104563604D01*
X151961167Y-104439123D01*
X151924858Y-104319424D01*
X151865893Y-104209110D01*
X151786540Y-104112419D01*
X151703581Y-104033804D01*
X151479075Y-104033804D01*
X150896242Y-104616637D01*
X150910385Y-104630780D01*
X150730780Y-104810385D01*
X150716637Y-104796242D01*
X149796242Y-105716637D01*
X149810385Y-105730780D01*
X149630780Y-105910385D01*
X149616637Y-105896242D01*
X149602495Y-105910385D01*
X149422890Y-105730780D01*
X149437032Y-105716637D01*
X148907232Y-105186837D01*
X148682726Y-105186837D01*
X148546734Y-105318485D01*
X148467381Y-105415176D01*
X148408416Y-105525490D01*
X148372107Y-105645189D01*
X148359847Y-105769670D01*
X148372107Y-105894151D01*
X148408416Y-106013850D01*
X148415712Y-106027499D01*
X148385695Y-106036605D01*
X148302579Y-106081031D01*
X148229728Y-106140819D01*
X147840819Y-106529728D01*
X147781031Y-106602579D01*
X147736605Y-106685695D01*
X147709247Y-106775880D01*
X147700010Y-106869670D01*
X147709247Y-106963460D01*
X147736605Y-107053645D01*
X147781031Y-107136761D01*
X147840819Y-107209612D01*
X148123662Y-107492455D01*
X148196513Y-107552243D01*
X148279629Y-107596669D01*
X148369814Y-107624027D01*
X148463604Y-107633264D01*
X148557394Y-107624027D01*
X148647579Y-107596669D01*
X148730695Y-107552243D01*
X148803546Y-107492455D01*
X149072964Y-107223037D01*
X149515553Y-107223037D01*
X149469305Y-107247757D01*
X149396454Y-107307545D01*
X149007545Y-107696454D01*
X148947757Y-107769305D01*
X148903331Y-107852421D01*
X148875973Y-107942606D01*
X148866736Y-108036396D01*
X148875973Y-108130186D01*
X148880285Y-108144400D01*
X148217455Y-108144400D01*
X148199999Y-108142681D01*
X148182544Y-108144400D01*
X147647295Y-108144400D01*
X145315600Y-105812707D01*
X145315600Y-104782726D01*
X149086837Y-104782726D01*
X149086837Y-105007232D01*
X149616637Y-105537032D01*
X150537032Y-104616637D01*
X150007232Y-104086837D01*
X149782726Y-104086837D01*
X149646734Y-104218485D01*
X149567381Y-104315176D01*
X149508416Y-104425490D01*
X149489116Y-104489116D01*
X149425490Y-104508416D01*
X149315176Y-104567381D01*
X149218485Y-104646734D01*
X149086837Y-104782726D01*
X145315600Y-104782726D01*
X145315600Y-103682726D01*
X150186837Y-103682726D01*
X150186837Y-103907232D01*
X150716637Y-104437032D01*
X151299470Y-103854199D01*
X151299470Y-103629693D01*
X151220855Y-103546734D01*
X151124164Y-103467381D01*
X151013850Y-103408416D01*
X150894151Y-103372107D01*
X150769670Y-103359847D01*
X150645189Y-103372107D01*
X150525490Y-103408416D01*
X150415176Y-103467381D01*
X150318485Y-103546734D01*
X150186837Y-103682726D01*
X145315600Y-103682726D01*
X145315600Y-102266921D01*
X145447604Y-102212243D01*
X145616204Y-102099587D01*
X145759587Y-101956204D01*
X145872243Y-101787604D01*
X145949841Y-101600265D01*
X145989400Y-101401387D01*
X145989400Y-101198613D01*
X145949841Y-100999735D01*
X145872243Y-100812396D01*
X145759587Y-100643796D01*
X145616204Y-100500413D01*
X145447604Y-100387757D01*
X145260265Y-100310159D01*
X145061387Y-100270600D01*
X144858613Y-100270600D01*
X144659735Y-100310159D01*
X144472396Y-100387757D01*
X144303796Y-100500413D01*
X144160413Y-100643796D01*
X144047757Y-100812396D01*
X143970159Y-100999735D01*
X143930600Y-101198613D01*
X143930600Y-101401387D01*
X143970159Y-101600265D01*
X144047757Y-101787604D01*
X144160413Y-101956204D01*
X144303796Y-102099587D01*
X144472396Y-102212243D01*
X144604401Y-102266921D01*
X144604400Y-105942544D01*
X144602681Y-105960000D01*
X144604400Y-105977455D01*
X144604400Y-105977462D01*
X144608338Y-106017440D01*
X144609546Y-106029710D01*
X144616341Y-106052109D01*
X144629879Y-106096739D01*
X144662899Y-106158515D01*
X144707337Y-106212662D01*
X144720902Y-106223795D01*
X147236210Y-108739105D01*
X147247337Y-108752663D01*
X147260895Y-108763790D01*
X147260900Y-108763795D01*
X147289561Y-108787316D01*
X147301484Y-108797101D01*
X147351382Y-108823772D01*
X147362716Y-108829830D01*
X147363260Y-108830121D01*
X147410425Y-108844428D01*
X147399726Y-108879699D01*
X147399546Y-108880291D01*
X147395709Y-108919249D01*
X146900000Y-108919249D01*
X146845228Y-108924644D01*
X146792561Y-108940620D01*
X146744023Y-108966564D01*
X146701479Y-109001479D01*
X146666564Y-109044023D01*
X146640620Y-109092561D01*
X146624644Y-109145228D01*
X146619249Y-109200000D01*
X146619249Y-110200000D01*
X146624644Y-110254772D01*
X146640620Y-110307439D01*
X146666564Y-110355977D01*
X146701479Y-110398521D01*
X146744023Y-110433436D01*
X146792561Y-110459380D01*
X146845228Y-110475356D01*
X146900000Y-110480751D01*
X148600000Y-110480751D01*
X148654772Y-110475356D01*
X148707439Y-110459380D01*
X148755977Y-110433436D01*
X148798521Y-110398521D01*
X148833436Y-110355977D01*
X148859380Y-110307439D01*
X148875356Y-110254772D01*
X148880751Y-110200000D01*
X148880751Y-109200000D01*
X148875356Y-109145228D01*
X148859380Y-109092561D01*
X148833436Y-109044023D01*
X148798521Y-109001479D01*
X148755977Y-108966564D01*
X148707439Y-108940620D01*
X148654772Y-108924644D01*
X148600000Y-108919249D01*
X148283645Y-108919249D01*
X148347295Y-108855600D01*
X149149271Y-108855600D01*
X149166726Y-108857319D01*
X149184181Y-108855600D01*
X149184189Y-108855600D01*
X149236436Y-108850454D01*
X149303466Y-108830121D01*
X149365242Y-108797101D01*
X149419389Y-108752663D01*
X149421489Y-108750104D01*
X149446355Y-108763395D01*
X149536540Y-108790753D01*
X149630330Y-108799990D01*
X149724120Y-108790753D01*
X149814305Y-108763395D01*
X149862759Y-108737496D01*
X150098522Y-108973259D01*
X150111242Y-108988758D01*
X150126740Y-109001477D01*
X150126745Y-109001482D01*
X150141704Y-109013758D01*
X150173124Y-109039544D01*
X150243725Y-109077281D01*
X150320331Y-109100519D01*
X150327604Y-109101235D01*
X150380040Y-109106400D01*
X150380047Y-109106400D01*
X150400000Y-109108365D01*
X150419953Y-109106400D01*
X150743897Y-109106400D01*
X150797139Y-109159642D01*
X150772983Y-109179467D01*
X150684594Y-109267856D01*
X150641906Y-109319871D01*
X150610186Y-109379215D01*
X150590653Y-109443606D01*
X150584058Y-109510571D01*
X150590653Y-109577536D01*
X150610186Y-109641927D01*
X150641906Y-109701271D01*
X150684594Y-109753286D01*
X151131308Y-110200000D01*
X150684594Y-110646714D01*
X150641906Y-110698729D01*
X150610186Y-110758073D01*
X150597625Y-110799482D01*
X150460901Y-110936206D01*
X150447337Y-110947338D01*
X150402899Y-111001485D01*
X150369879Y-111063261D01*
X150363267Y-111085058D01*
X150349598Y-111130121D01*
X150349546Y-111130291D01*
X150344400Y-111182538D01*
X150344400Y-111182545D01*
X150342681Y-111200000D01*
X150344400Y-111217456D01*
X150344401Y-112182535D01*
X150342681Y-112200000D01*
X150349546Y-112269710D01*
X150369880Y-112336741D01*
X150383343Y-112361928D01*
X150402900Y-112398516D01*
X150420566Y-112420042D01*
X150431559Y-112433436D01*
X150447338Y-112452663D01*
X150460900Y-112463794D01*
X150634152Y-112637046D01*
X150634153Y-116872287D01*
X150632433Y-116889752D01*
X150639298Y-116959462D01*
X150659632Y-117026493D01*
X150672648Y-117050844D01*
X150692652Y-117088268D01*
X150737090Y-117142415D01*
X150750653Y-117153546D01*
X152570105Y-118973000D01*
X148418224Y-118973000D01*
X148395885Y-118945779D01*
X148353333Y-118910858D01*
X148304786Y-118884909D01*
X148252110Y-118868930D01*
X148211054Y-118864886D01*
X148197328Y-118863534D01*
X148183602Y-118864886D01*
X128141070Y-118864886D01*
X128141070Y-114000000D01*
X139961928Y-114000000D01*
X139974188Y-114124482D01*
X140010498Y-114244180D01*
X140069463Y-114354494D01*
X140148815Y-114451185D01*
X140245506Y-114530537D01*
X140355820Y-114589502D01*
X140475518Y-114625812D01*
X140600000Y-114638072D01*
X141164250Y-114635000D01*
X141323000Y-114476250D01*
X141323000Y-113627000D01*
X141577000Y-113627000D01*
X141577000Y-114476250D01*
X141735750Y-114635000D01*
X142300000Y-114638072D01*
X142424482Y-114625812D01*
X142544180Y-114589502D01*
X142654494Y-114530537D01*
X142751185Y-114451185D01*
X142830537Y-114354494D01*
X142889502Y-114244180D01*
X142925812Y-114124482D01*
X142938072Y-114000000D01*
X146261928Y-114000000D01*
X146274188Y-114124482D01*
X146310498Y-114244180D01*
X146369463Y-114354494D01*
X146448815Y-114451185D01*
X146545506Y-114530537D01*
X146655820Y-114589502D01*
X146775518Y-114625812D01*
X146900000Y-114638072D01*
X147464250Y-114635000D01*
X147623000Y-114476250D01*
X147623000Y-113627000D01*
X147877000Y-113627000D01*
X147877000Y-114476250D01*
X148035750Y-114635000D01*
X148600000Y-114638072D01*
X148724482Y-114625812D01*
X148844180Y-114589502D01*
X148954494Y-114530537D01*
X149051185Y-114451185D01*
X149130537Y-114354494D01*
X149189502Y-114244180D01*
X149225812Y-114124482D01*
X149238072Y-114000000D01*
X149235000Y-113785750D01*
X149076250Y-113627000D01*
X147877000Y-113627000D01*
X147623000Y-113627000D01*
X146423750Y-113627000D01*
X146265000Y-113785750D01*
X146261928Y-114000000D01*
X142938072Y-114000000D01*
X142935000Y-113785750D01*
X142776250Y-113627000D01*
X141577000Y-113627000D01*
X141323000Y-113627000D01*
X140123750Y-113627000D01*
X139965000Y-113785750D01*
X139961928Y-114000000D01*
X128141070Y-114000000D01*
X128141070Y-113000000D01*
X139961928Y-113000000D01*
X139965000Y-113214250D01*
X140123750Y-113373000D01*
X141323000Y-113373000D01*
X141323000Y-112523750D01*
X141577000Y-112523750D01*
X141577000Y-113373000D01*
X142776250Y-113373000D01*
X142935000Y-113214250D01*
X142938072Y-113000000D01*
X146261928Y-113000000D01*
X146265000Y-113214250D01*
X146423750Y-113373000D01*
X147623000Y-113373000D01*
X147623000Y-112523750D01*
X147877000Y-112523750D01*
X147877000Y-113373000D01*
X149076250Y-113373000D01*
X149235000Y-113214250D01*
X149238072Y-113000000D01*
X149225812Y-112875518D01*
X149189502Y-112755820D01*
X149130537Y-112645506D01*
X149051185Y-112548815D01*
X148954494Y-112469463D01*
X148844180Y-112410498D01*
X148724482Y-112374188D01*
X148600000Y-112361928D01*
X148035750Y-112365000D01*
X147877000Y-112523750D01*
X147623000Y-112523750D01*
X147464250Y-112365000D01*
X146900000Y-112361928D01*
X146775518Y-112374188D01*
X146655820Y-112410498D01*
X146545506Y-112469463D01*
X146448815Y-112548815D01*
X146369463Y-112645506D01*
X146310498Y-112755820D01*
X146274188Y-112875518D01*
X146261928Y-113000000D01*
X142938072Y-113000000D01*
X142925812Y-112875518D01*
X142889502Y-112755820D01*
X142830537Y-112645506D01*
X142751185Y-112548815D01*
X142654494Y-112469463D01*
X142544180Y-112410498D01*
X142424482Y-112374188D01*
X142300000Y-112361928D01*
X141735750Y-112365000D01*
X141577000Y-112523750D01*
X141323000Y-112523750D01*
X141164250Y-112365000D01*
X140600000Y-112361928D01*
X140475518Y-112374188D01*
X140355820Y-112410498D01*
X140245506Y-112469463D01*
X140148815Y-112548815D01*
X140069463Y-112645506D01*
X140010498Y-112755820D01*
X139974188Y-112875518D01*
X139961928Y-113000000D01*
X128141070Y-113000000D01*
X128141070Y-109200000D01*
X140319249Y-109200000D01*
X140319249Y-110200000D01*
X140324644Y-110254772D01*
X140340620Y-110307439D01*
X140366564Y-110355977D01*
X140401479Y-110398521D01*
X140444023Y-110433436D01*
X140492561Y-110459380D01*
X140545228Y-110475356D01*
X140600000Y-110480751D01*
X142300000Y-110480751D01*
X142354772Y-110475356D01*
X142407439Y-110459380D01*
X142455977Y-110433436D01*
X142498521Y-110398521D01*
X142533436Y-110355977D01*
X142559380Y-110307439D01*
X142575356Y-110254772D01*
X142580751Y-110200000D01*
X142580751Y-109200000D01*
X142575356Y-109145228D01*
X142559380Y-109092561D01*
X142533436Y-109044023D01*
X142498521Y-109001479D01*
X142455977Y-108966564D01*
X142407439Y-108940620D01*
X142354772Y-108924644D01*
X142300000Y-108919249D01*
X140600000Y-108919249D01*
X140545228Y-108924644D01*
X140492561Y-108940620D01*
X140444023Y-108966564D01*
X140401479Y-109001479D01*
X140366564Y-109044023D01*
X140340620Y-109092561D01*
X140324644Y-109145228D01*
X140319249Y-109200000D01*
X128141070Y-109200000D01*
X128141070Y-108862157D01*
X130435912Y-108862157D01*
X130437195Y-108862031D01*
X130702425Y-108859591D01*
X130703110Y-108859517D01*
X130703796Y-108859575D01*
X130707697Y-108859493D01*
X130980574Y-108851831D01*
X130981348Y-108851733D01*
X130982125Y-108851783D01*
X130986024Y-108851625D01*
X131254107Y-108838857D01*
X131254971Y-108838730D01*
X131255848Y-108838769D01*
X131259743Y-108838531D01*
X131523032Y-108820655D01*
X131523987Y-108820496D01*
X131524962Y-108820518D01*
X131528851Y-108820199D01*
X131787350Y-108797216D01*
X131788403Y-108797017D01*
X131789472Y-108797019D01*
X131793354Y-108796617D01*
X132047058Y-108768527D01*
X132048202Y-108768285D01*
X132049376Y-108768261D01*
X132053248Y-108767772D01*
X132302160Y-108734575D01*
X132303396Y-108734285D01*
X132304675Y-108734229D01*
X132308534Y-108733650D01*
X132552655Y-108695347D01*
X132553989Y-108695002D01*
X132555368Y-108694908D01*
X132559212Y-108694238D01*
X132798538Y-108650828D01*
X132799965Y-108650422D01*
X132801446Y-108650285D01*
X132805273Y-108649521D01*
X133039806Y-108601005D01*
X133041326Y-108600532D01*
X133042909Y-108600345D01*
X133046715Y-108599485D01*
X133276456Y-108545863D01*
X133278064Y-108545318D01*
X133279748Y-108545074D01*
X133283530Y-108544114D01*
X133508478Y-108485386D01*
X133510172Y-108484762D01*
X133511953Y-108484455D01*
X133515708Y-108483394D01*
X133735864Y-108419560D01*
X133737638Y-108418852D01*
X133739514Y-108418475D01*
X133743238Y-108417311D01*
X133958601Y-108348371D01*
X133960448Y-108347574D01*
X133962417Y-108347120D01*
X133966107Y-108345851D01*
X134176676Y-108271806D01*
X134178593Y-108270913D01*
X134180646Y-108270377D01*
X134184297Y-108269001D01*
X134390075Y-108189850D01*
X134392058Y-108188855D01*
X134394183Y-108188232D01*
X134397792Y-108186749D01*
X134598775Y-108102493D01*
X134600810Y-108101395D01*
X134603006Y-108100678D01*
X134606568Y-108099085D01*
X134802759Y-108009724D01*
X134804833Y-108008522D01*
X134807095Y-108007705D01*
X134810606Y-108006002D01*
X135002003Y-107911536D01*
X135004113Y-107910224D01*
X135006422Y-107909306D01*
X135009878Y-107907493D01*
X135196482Y-107807922D01*
X135198613Y-107806502D01*
X135200964Y-107805478D01*
X135204360Y-107803554D01*
X135386170Y-107698878D01*
X135388306Y-107697353D01*
X135390689Y-107696221D01*
X135394019Y-107694187D01*
X135571038Y-107584407D01*
X135573178Y-107582770D01*
X135575569Y-107581536D01*
X135578830Y-107579393D01*
X135751056Y-107464509D01*
X135753182Y-107462768D01*
X135755576Y-107461429D01*
X135758763Y-107459178D01*
X135926195Y-107339190D01*
X135928294Y-107337351D01*
X135930676Y-107335910D01*
X135933786Y-107333553D01*
X136096425Y-107208460D01*
X136098481Y-107206532D01*
X136100843Y-107204991D01*
X136103870Y-107202529D01*
X136261716Y-107072331D01*
X136263720Y-107070319D01*
X136266044Y-107068687D01*
X136268985Y-107066123D01*
X136422037Y-106930822D01*
X136423977Y-106928736D01*
X136426251Y-106927020D01*
X136429103Y-106924357D01*
X136577363Y-106783952D01*
X136579228Y-106781804D01*
X136581445Y-106780008D01*
X136584204Y-106777248D01*
X136727670Y-106631739D01*
X136729451Y-106629539D01*
X136731595Y-106627678D01*
X136734257Y-106624825D01*
X136872931Y-106474214D01*
X136874625Y-106471969D01*
X136876684Y-106470055D01*
X136879248Y-106467114D01*
X137013128Y-106311399D01*
X137014723Y-106309128D01*
X137016694Y-106307168D01*
X137019158Y-106304142D01*
X137148245Y-106143324D01*
X137151829Y-106137838D01*
X137156191Y-106132937D01*
X137158466Y-106129766D01*
X137237249Y-106018381D01*
X137239904Y-106013722D01*
X137243257Y-106009533D01*
X137245363Y-106006249D01*
X137321643Y-105885488D01*
X137323761Y-105881272D01*
X137326534Y-105877449D01*
X137328482Y-105874068D01*
X137402257Y-105743932D01*
X137403936Y-105740153D01*
X137406211Y-105736710D01*
X137408011Y-105733248D01*
X137479283Y-105593736D01*
X137480599Y-105590387D01*
X137482462Y-105587311D01*
X137484122Y-105583780D01*
X137552890Y-105434893D01*
X137553912Y-105431957D01*
X137555430Y-105429232D01*
X137556961Y-105425643D01*
X137623227Y-105267379D01*
X137624016Y-105264816D01*
X137625242Y-105262434D01*
X137626654Y-105258797D01*
X137690415Y-105091158D01*
X137691016Y-105088951D01*
X137692002Y-105086882D01*
X137693303Y-105083203D01*
X137754562Y-104906189D01*
X137755014Y-104904304D01*
X137755801Y-104902528D01*
X137757000Y-104898814D01*
X137815757Y-104712422D01*
X137816092Y-104710832D01*
X137816714Y-104709325D01*
X137817818Y-104705582D01*
X137874071Y-104509813D01*
X137874315Y-104508490D01*
X137874798Y-104507236D01*
X137875813Y-104503469D01*
X137929565Y-104298325D01*
X137929738Y-104297246D01*
X137930109Y-104296216D01*
X137931042Y-104292428D01*
X137982291Y-104077907D01*
X137982408Y-104077054D01*
X137982687Y-104076230D01*
X137983543Y-104072423D01*
X138032290Y-103848527D01*
X138032367Y-103847873D01*
X138032567Y-103847242D01*
X138033352Y-103843420D01*
X138079598Y-103610146D01*
X138079644Y-103609675D01*
X138079781Y-103609217D01*
X138080500Y-103605382D01*
X138124244Y-103362732D01*
X138124269Y-103362427D01*
X138124352Y-103362130D01*
X138125009Y-103358283D01*
X138166252Y-103106257D01*
X138166262Y-103106102D01*
X138166302Y-103105951D01*
X138166901Y-103102095D01*
X138205642Y-102840691D01*
X138205643Y-102840679D01*
X138205648Y-102840657D01*
X138206192Y-102836793D01*
X138242404Y-102566231D01*
X138242405Y-102566226D01*
X138242415Y-102566148D01*
X138242433Y-102566013D01*
X138242433Y-102566004D01*
X138242898Y-102562355D01*
X138276638Y-102282198D01*
X138276639Y-102282171D01*
X138277030Y-102278762D01*
X138308270Y-101989227D01*
X138308270Y-101989193D01*
X138308600Y-101985994D01*
X138337339Y-101687083D01*
X138337339Y-101687034D01*
X138337615Y-101684038D01*
X138363855Y-101375748D01*
X138363854Y-101375695D01*
X138364085Y-101372874D01*
X138387824Y-101055207D01*
X138387823Y-101055152D01*
X138388014Y-101052493D01*
X138409254Y-100725449D01*
X138409252Y-100725376D01*
X138409408Y-100722880D01*
X138428148Y-100386459D01*
X138428145Y-100386396D01*
X138428273Y-100384027D01*
X138444513Y-100038228D01*
X138444510Y-100038163D01*
X138444612Y-100035922D01*
X138458354Y-99680746D01*
X138458350Y-99680678D01*
X138458430Y-99678556D01*
X138469673Y-99314003D01*
X138469669Y-99313936D01*
X138469730Y-99311921D01*
X138478474Y-98937989D01*
X138478469Y-98937915D01*
X138478513Y-98936008D01*
X138484758Y-98552698D01*
X138484752Y-98552627D01*
X138484782Y-98550812D01*
X138488529Y-98158124D01*
X138488524Y-98158063D01*
X138488541Y-98156327D01*
X138489750Y-97767549D01*
X138489792Y-97767119D01*
X138489792Y-92127000D01*
X154393054Y-92127000D01*
X155355964Y-93089911D01*
G04 #@! TA.AperFunction,Conductor*
D21*
G36*
X155355964Y-93089911D02*
G01*
X155355969Y-93089915D01*
X156310086Y-94044033D01*
X156330767Y-94069233D01*
X156431326Y-94151759D01*
X156546053Y-94213082D01*
X156670539Y-94250844D01*
X156800000Y-94263595D01*
X156832439Y-94260400D01*
X165039601Y-94260400D01*
X165039601Y-96125673D01*
X164981518Y-96101615D01*
X164861291Y-96077700D01*
X164738709Y-96077700D01*
X164618482Y-96101615D01*
X164505230Y-96148525D01*
X164403307Y-96216628D01*
X164316628Y-96303307D01*
X164248525Y-96405230D01*
X164201615Y-96518482D01*
X164177700Y-96638709D01*
X164177700Y-96761291D01*
X164187342Y-96809764D01*
X163455600Y-97541507D01*
X163455600Y-95810830D01*
X163496693Y-95783372D01*
X163583372Y-95696693D01*
X163651475Y-95594770D01*
X163698385Y-95481518D01*
X163722300Y-95361291D01*
X163722300Y-95238709D01*
X163698385Y-95118482D01*
X163651475Y-95005230D01*
X163583372Y-94903307D01*
X163496693Y-94816628D01*
X163394770Y-94748525D01*
X163281518Y-94701615D01*
X163161291Y-94677700D01*
X163038709Y-94677700D01*
X162918482Y-94701615D01*
X162805230Y-94748525D01*
X162703307Y-94816628D01*
X162616628Y-94903307D01*
X162548525Y-95005230D01*
X162501615Y-95118482D01*
X162477700Y-95238709D01*
X162477700Y-95361291D01*
X162501615Y-95481518D01*
X162548525Y-95594770D01*
X162616628Y-95696693D01*
X162703307Y-95783372D01*
X162744400Y-95810830D01*
X162744401Y-98652705D01*
X161952707Y-99444400D01*
X160117452Y-99444400D01*
X160099999Y-99442681D01*
X160082546Y-99444400D01*
X160082537Y-99444400D01*
X160030290Y-99449546D01*
X159963260Y-99469879D01*
X159901484Y-99502899D01*
X159901482Y-99502900D01*
X159901483Y-99502900D01*
X159860900Y-99536205D01*
X159860895Y-99536210D01*
X159847337Y-99547337D01*
X159836210Y-99560895D01*
X159252707Y-100144400D01*
X157917455Y-100144400D01*
X157899999Y-100142681D01*
X157882544Y-100144400D01*
X157882537Y-100144400D01*
X157837187Y-100148867D01*
X157830289Y-100149546D01*
X157810332Y-100155600D01*
X157763260Y-100169879D01*
X157701484Y-100202899D01*
X157701482Y-100202900D01*
X157701483Y-100202900D01*
X157660900Y-100236205D01*
X157660895Y-100236210D01*
X157647337Y-100247337D01*
X157636210Y-100260895D01*
X157210901Y-100686206D01*
X157197337Y-100697338D01*
X157152899Y-100751485D01*
X157119879Y-100813261D01*
X157112630Y-100837158D01*
X157100320Y-100877741D01*
X157099546Y-100880291D01*
X157094400Y-100932538D01*
X157094400Y-100932545D01*
X157092681Y-100950000D01*
X157094400Y-100967456D01*
X157094401Y-102302705D01*
X156660902Y-102736205D01*
X156647337Y-102747338D01*
X156602899Y-102801485D01*
X156569879Y-102863261D01*
X156559168Y-102898571D01*
X156549547Y-102930289D01*
X156549546Y-102930291D01*
X156544400Y-102982538D01*
X156544400Y-102982545D01*
X156542681Y-103000000D01*
X156544400Y-103017456D01*
X156544401Y-107182535D01*
X156542681Y-107200000D01*
X156549546Y-107269710D01*
X156569880Y-107336741D01*
X156581052Y-107357641D01*
X156602900Y-107398516D01*
X156622181Y-107422009D01*
X156632808Y-107434958D01*
X156647338Y-107452663D01*
X156660901Y-107463794D01*
X156744400Y-107547293D01*
X156744401Y-108193365D01*
X156664791Y-108272975D01*
X156657434Y-108259211D01*
X156614746Y-108207196D01*
X156526357Y-108118807D01*
X156474342Y-108076119D01*
X156414998Y-108044399D01*
X156354080Y-108025920D01*
X156335601Y-107965002D01*
X156303881Y-107905658D01*
X156261193Y-107853643D01*
X156172804Y-107765254D01*
X156120789Y-107722566D01*
X156061445Y-107690846D01*
X156000528Y-107672367D01*
X155982048Y-107611448D01*
X155950328Y-107552104D01*
X155907640Y-107500089D01*
X155819251Y-107411700D01*
X155767236Y-107369012D01*
X155707892Y-107337292D01*
X155646973Y-107318812D01*
X155628494Y-107257895D01*
X155596774Y-107198551D01*
X155554086Y-107146536D01*
X155465697Y-107058147D01*
X155413682Y-107015459D01*
X155354338Y-106983739D01*
X155293420Y-106965260D01*
X155274941Y-106904342D01*
X155243221Y-106844998D01*
X155200533Y-106792983D01*
X155112144Y-106704594D01*
X155060129Y-106661906D01*
X155000785Y-106630186D01*
X154936394Y-106610653D01*
X154869429Y-106604058D01*
X154802464Y-106610653D01*
X154738073Y-106630186D01*
X154678729Y-106661906D01*
X154626714Y-106704594D01*
X154180000Y-107151308D01*
X153733286Y-106704594D01*
X153681271Y-106661906D01*
X153621927Y-106630186D01*
X153573158Y-106615392D01*
X153560410Y-106602644D01*
X153560410Y-106473549D01*
X153773550Y-106260410D01*
X155008792Y-106260408D01*
X155026257Y-106262128D01*
X155095967Y-106255263D01*
X155162998Y-106234929D01*
X155196719Y-106216904D01*
X155224773Y-106201909D01*
X155278920Y-106157471D01*
X155290051Y-106143908D01*
X156039104Y-105394856D01*
X156052662Y-105383729D01*
X156063790Y-105370170D01*
X156063795Y-105370165D01*
X156081003Y-105349197D01*
X156097101Y-105329582D01*
X156130121Y-105267806D01*
X156145709Y-105216419D01*
X156150454Y-105200777D01*
X156151108Y-105194135D01*
X156155600Y-105148529D01*
X156155600Y-105148522D01*
X156157319Y-105131066D01*
X156155600Y-105113611D01*
X156155600Y-104417455D01*
X156157319Y-104400000D01*
X156155600Y-104382545D01*
X156155600Y-104382537D01*
X156151666Y-104342595D01*
X156151666Y-104199943D01*
X156153385Y-104182488D01*
X156151666Y-104165033D01*
X156151666Y-104165026D01*
X156146520Y-104112778D01*
X156126187Y-104045748D01*
X156093167Y-103983972D01*
X156071582Y-103957671D01*
X156059861Y-103943389D01*
X156059860Y-103943388D01*
X156048729Y-103929825D01*
X156035166Y-103918694D01*
X154572562Y-102456091D01*
X154561432Y-102442529D01*
X154546761Y-102430488D01*
X154517581Y-102406541D01*
X154507285Y-102398091D01*
X154469213Y-102377741D01*
X154445510Y-102365071D01*
X154378479Y-102344737D01*
X154308769Y-102337872D01*
X154291304Y-102339592D01*
X153334730Y-102339591D01*
X153357388Y-102256993D01*
X152580000Y-101479605D01*
X151802612Y-102256993D01*
X151825270Y-102339590D01*
X151582484Y-102339590D01*
X150975163Y-101732270D01*
X151029841Y-101600265D01*
X151069400Y-101401387D01*
X151069400Y-101372492D01*
X151190188Y-101372492D01*
X151231035Y-101642238D01*
X151323723Y-101898832D01*
X151384140Y-102011863D01*
X151623007Y-102077388D01*
X152400395Y-101300000D01*
X152759605Y-101300000D01*
X153536993Y-102077388D01*
X153775860Y-102011863D01*
X153891760Y-101764884D01*
X153957250Y-101500040D01*
X153969812Y-101227508D01*
X153928965Y-100957762D01*
X153836277Y-100701168D01*
X153775860Y-100588137D01*
X153536993Y-100522612D01*
X152759605Y-101300000D01*
X152400395Y-101300000D01*
X151623007Y-100522612D01*
X151384140Y-100588137D01*
X151268240Y-100835116D01*
X151202750Y-101099960D01*
X151190188Y-101372492D01*
X151069400Y-101372492D01*
X151069400Y-101198613D01*
X151029841Y-100999735D01*
X150952243Y-100812396D01*
X150839587Y-100643796D01*
X150696204Y-100500413D01*
X150527604Y-100387757D01*
X150419568Y-100343007D01*
X151802612Y-100343007D01*
X152580000Y-101120395D01*
X153357388Y-100343007D01*
X153291863Y-100104140D01*
X153044884Y-99988240D01*
X152780040Y-99922750D01*
X152507508Y-99910188D01*
X152237762Y-99951035D01*
X151981168Y-100043723D01*
X151868137Y-100104140D01*
X151802612Y-100343007D01*
X150419568Y-100343007D01*
X150340265Y-100310159D01*
X150141387Y-100270600D01*
X149938613Y-100270600D01*
X149739735Y-100310159D01*
X149552396Y-100387757D01*
X149383796Y-100500413D01*
X149240413Y-100643796D01*
X149127757Y-100812396D01*
X149050159Y-100999735D01*
X149010600Y-101198613D01*
X149010600Y-101401387D01*
X149050159Y-101600265D01*
X149127757Y-101787604D01*
X149240413Y-101956204D01*
X149383796Y-102099587D01*
X149552396Y-102212243D01*
X149739735Y-102289841D01*
X149938613Y-102329400D01*
X150141387Y-102329400D01*
X150340265Y-102289841D01*
X150472270Y-102235163D01*
X150881506Y-102644400D01*
X149347295Y-102644400D01*
X148435163Y-101732269D01*
X148489841Y-101600265D01*
X148529400Y-101401387D01*
X148529400Y-101198613D01*
X148489841Y-100999735D01*
X148412243Y-100812396D01*
X148299587Y-100643796D01*
X148156204Y-100500413D01*
X147987604Y-100387757D01*
X147800265Y-100310159D01*
X147601387Y-100270600D01*
X147398613Y-100270600D01*
X147199735Y-100310159D01*
X147012396Y-100387757D01*
X146843796Y-100500413D01*
X146700413Y-100643796D01*
X146587757Y-100812396D01*
X146510159Y-100999735D01*
X146470600Y-101198613D01*
X146470600Y-101401387D01*
X146510159Y-101600265D01*
X146587757Y-101787604D01*
X146700413Y-101956204D01*
X146843796Y-102099587D01*
X147012396Y-102212243D01*
X147199735Y-102289841D01*
X147398613Y-102329400D01*
X147601387Y-102329400D01*
X147800265Y-102289841D01*
X147932269Y-102235163D01*
X148936210Y-103239105D01*
X148947337Y-103252663D01*
X148960895Y-103263790D01*
X148960900Y-103263795D01*
X148989532Y-103287292D01*
X149001484Y-103297101D01*
X149063260Y-103330121D01*
X149096938Y-103340337D01*
X149130289Y-103350454D01*
X149137187Y-103351133D01*
X149182537Y-103355600D01*
X149182544Y-103355600D01*
X149199999Y-103357319D01*
X149217455Y-103355600D01*
X154035219Y-103355600D01*
X155135657Y-104456039D01*
X155135656Y-104861449D01*
X154752707Y-105244400D01*
X153517455Y-105244400D01*
X153499999Y-105242681D01*
X153482544Y-105244400D01*
X153482537Y-105244400D01*
X153437187Y-105248867D01*
X153430289Y-105249546D01*
X153409152Y-105255958D01*
X153363260Y-105269879D01*
X153301484Y-105302899D01*
X153301482Y-105302900D01*
X153301483Y-105302900D01*
X153260900Y-105336205D01*
X153260895Y-105336210D01*
X153247337Y-105347337D01*
X153236210Y-105360895D01*
X152660901Y-105936206D01*
X152647338Y-105947337D01*
X152642753Y-105952924D01*
X152663395Y-105914305D01*
X152690753Y-105824120D01*
X152699990Y-105730330D01*
X152699160Y-105721907D01*
X153287668Y-105133400D01*
X153878179Y-105133400D01*
X153905230Y-105151475D01*
X154018482Y-105198385D01*
X154138709Y-105222300D01*
X154261291Y-105222300D01*
X154381518Y-105198385D01*
X154494770Y-105151475D01*
X154596693Y-105083372D01*
X154683372Y-104996693D01*
X154751475Y-104894770D01*
X154798385Y-104781518D01*
X154822300Y-104661291D01*
X154822300Y-104538709D01*
X154798385Y-104418482D01*
X154751475Y-104305230D01*
X154683372Y-104203307D01*
X154596693Y-104116628D01*
X154494770Y-104048525D01*
X154381518Y-104001615D01*
X154261291Y-103977700D01*
X154138709Y-103977700D01*
X154018482Y-104001615D01*
X153905230Y-104048525D01*
X153878179Y-104066600D01*
X153092912Y-104066600D01*
X153066725Y-104064021D01*
X153040538Y-104066600D01*
X153040531Y-104066600D01*
X152962161Y-104074319D01*
X152861615Y-104104819D01*
X152768951Y-104154349D01*
X152744919Y-104174072D01*
X152713957Y-104199482D01*
X152687731Y-104221005D01*
X152671035Y-104241349D01*
X151944819Y-104967566D01*
X151936396Y-104966736D01*
X151842606Y-104975973D01*
X151810370Y-104985752D01*
X151865893Y-104918098D01*
X151924858Y-104807784D01*
X151961167Y-104688085D01*
X151973427Y-104563604D01*
X151961167Y-104439123D01*
X151924858Y-104319424D01*
X151865893Y-104209110D01*
X151786540Y-104112419D01*
X151703581Y-104033804D01*
X151479075Y-104033804D01*
X150896242Y-104616637D01*
X150910385Y-104630780D01*
X150730780Y-104810385D01*
X150716637Y-104796242D01*
X149796242Y-105716637D01*
X149810385Y-105730780D01*
X149630780Y-105910385D01*
X149616637Y-105896242D01*
X149602495Y-105910385D01*
X149422890Y-105730780D01*
X149437032Y-105716637D01*
X148907232Y-105186837D01*
X148682726Y-105186837D01*
X148546734Y-105318485D01*
X148467381Y-105415176D01*
X148408416Y-105525490D01*
X148372107Y-105645189D01*
X148359847Y-105769670D01*
X148372107Y-105894151D01*
X148408416Y-106013850D01*
X148415712Y-106027499D01*
X148385695Y-106036605D01*
X148302579Y-106081031D01*
X148229728Y-106140819D01*
X147840819Y-106529728D01*
X147781031Y-106602579D01*
X147736605Y-106685695D01*
X147709247Y-106775880D01*
X147700010Y-106869670D01*
X147709247Y-106963460D01*
X147736605Y-107053645D01*
X147781031Y-107136761D01*
X147840819Y-107209612D01*
X148123662Y-107492455D01*
X148196513Y-107552243D01*
X148279629Y-107596669D01*
X148369814Y-107624027D01*
X148463604Y-107633264D01*
X148557394Y-107624027D01*
X148647579Y-107596669D01*
X148730695Y-107552243D01*
X148803546Y-107492455D01*
X149072964Y-107223037D01*
X149515553Y-107223037D01*
X149469305Y-107247757D01*
X149396454Y-107307545D01*
X149007545Y-107696454D01*
X148947757Y-107769305D01*
X148903331Y-107852421D01*
X148875973Y-107942606D01*
X148866736Y-108036396D01*
X148875973Y-108130186D01*
X148880285Y-108144400D01*
X148217455Y-108144400D01*
X148199999Y-108142681D01*
X148182544Y-108144400D01*
X147647295Y-108144400D01*
X145315600Y-105812707D01*
X145315600Y-104782726D01*
X149086837Y-104782726D01*
X149086837Y-105007232D01*
X149616637Y-105537032D01*
X150537032Y-104616637D01*
X150007232Y-104086837D01*
X149782726Y-104086837D01*
X149646734Y-104218485D01*
X149567381Y-104315176D01*
X149508416Y-104425490D01*
X149489116Y-104489116D01*
X149425490Y-104508416D01*
X149315176Y-104567381D01*
X149218485Y-104646734D01*
X149086837Y-104782726D01*
X145315600Y-104782726D01*
X145315600Y-103682726D01*
X150186837Y-103682726D01*
X150186837Y-103907232D01*
X150716637Y-104437032D01*
X151299470Y-103854199D01*
X151299470Y-103629693D01*
X151220855Y-103546734D01*
X151124164Y-103467381D01*
X151013850Y-103408416D01*
X150894151Y-103372107D01*
X150769670Y-103359847D01*
X150645189Y-103372107D01*
X150525490Y-103408416D01*
X150415176Y-103467381D01*
X150318485Y-103546734D01*
X150186837Y-103682726D01*
X145315600Y-103682726D01*
X145315600Y-102266921D01*
X145447604Y-102212243D01*
X145616204Y-102099587D01*
X145759587Y-101956204D01*
X145872243Y-101787604D01*
X145949841Y-101600265D01*
X145989400Y-101401387D01*
X145989400Y-101198613D01*
X145949841Y-100999735D01*
X145872243Y-100812396D01*
X145759587Y-100643796D01*
X145616204Y-100500413D01*
X145447604Y-100387757D01*
X145260265Y-100310159D01*
X145061387Y-100270600D01*
X144858613Y-100270600D01*
X144659735Y-100310159D01*
X144472396Y-100387757D01*
X144303796Y-100500413D01*
X144160413Y-100643796D01*
X144047757Y-100812396D01*
X143970159Y-100999735D01*
X143930600Y-101198613D01*
X143930600Y-101401387D01*
X143970159Y-101600265D01*
X144047757Y-101787604D01*
X144160413Y-101956204D01*
X144303796Y-102099587D01*
X144472396Y-102212243D01*
X144604401Y-102266921D01*
X144604400Y-105942544D01*
X144602681Y-105960000D01*
X144604400Y-105977455D01*
X144604400Y-105977462D01*
X144608338Y-106017440D01*
X144609546Y-106029710D01*
X144616341Y-106052109D01*
X144629879Y-106096739D01*
X144662899Y-106158515D01*
X144707337Y-106212662D01*
X144720902Y-106223795D01*
X147236210Y-108739105D01*
X147247337Y-108752663D01*
X147260895Y-108763790D01*
X147260900Y-108763795D01*
X147289561Y-108787316D01*
X147301484Y-108797101D01*
X147351382Y-108823772D01*
X147362716Y-108829830D01*
X147363260Y-108830121D01*
X147410425Y-108844428D01*
X147399726Y-108879699D01*
X147399546Y-108880291D01*
X147395709Y-108919249D01*
X146900000Y-108919249D01*
X146845228Y-108924644D01*
X146792561Y-108940620D01*
X146744023Y-108966564D01*
X146701479Y-109001479D01*
X146666564Y-109044023D01*
X146640620Y-109092561D01*
X146624644Y-109145228D01*
X146619249Y-109200000D01*
X146619249Y-110200000D01*
X146624644Y-110254772D01*
X146640620Y-110307439D01*
X146666564Y-110355977D01*
X146701479Y-110398521D01*
X146744023Y-110433436D01*
X146792561Y-110459380D01*
X146845228Y-110475356D01*
X146900000Y-110480751D01*
X148600000Y-110480751D01*
X148654772Y-110475356D01*
X148707439Y-110459380D01*
X148755977Y-110433436D01*
X148798521Y-110398521D01*
X148833436Y-110355977D01*
X148859380Y-110307439D01*
X148875356Y-110254772D01*
X148880751Y-110200000D01*
X148880751Y-109200000D01*
X148875356Y-109145228D01*
X148859380Y-109092561D01*
X148833436Y-109044023D01*
X148798521Y-109001479D01*
X148755977Y-108966564D01*
X148707439Y-108940620D01*
X148654772Y-108924644D01*
X148600000Y-108919249D01*
X148283645Y-108919249D01*
X148347295Y-108855600D01*
X149149271Y-108855600D01*
X149166726Y-108857319D01*
X149184181Y-108855600D01*
X149184189Y-108855600D01*
X149236436Y-108850454D01*
X149303466Y-108830121D01*
X149365242Y-108797101D01*
X149419389Y-108752663D01*
X149421489Y-108750104D01*
X149446355Y-108763395D01*
X149536540Y-108790753D01*
X149630330Y-108799990D01*
X149724120Y-108790753D01*
X149814305Y-108763395D01*
X149862759Y-108737496D01*
X150098522Y-108973259D01*
X150111242Y-108988758D01*
X150126740Y-109001477D01*
X150126745Y-109001482D01*
X150141704Y-109013758D01*
X150173124Y-109039544D01*
X150243725Y-109077281D01*
X150320331Y-109100519D01*
X150327604Y-109101235D01*
X150380040Y-109106400D01*
X150380047Y-109106400D01*
X150400000Y-109108365D01*
X150419953Y-109106400D01*
X150743897Y-109106400D01*
X150797139Y-109159642D01*
X150772983Y-109179467D01*
X150684594Y-109267856D01*
X150641906Y-109319871D01*
X150610186Y-109379215D01*
X150590653Y-109443606D01*
X150584058Y-109510571D01*
X150590653Y-109577536D01*
X150610186Y-109641927D01*
X150641906Y-109701271D01*
X150684594Y-109753286D01*
X151131308Y-110200000D01*
X150684594Y-110646714D01*
X150641906Y-110698729D01*
X150610186Y-110758073D01*
X150597625Y-110799482D01*
X150460901Y-110936206D01*
X150447337Y-110947338D01*
X150402899Y-111001485D01*
X150369879Y-111063261D01*
X150363267Y-111085058D01*
X150349598Y-111130121D01*
X150349546Y-111130291D01*
X150344400Y-111182538D01*
X150344400Y-111182545D01*
X150342681Y-111200000D01*
X150344400Y-111217456D01*
X150344401Y-112182535D01*
X150342681Y-112200000D01*
X150349546Y-112269710D01*
X150369880Y-112336741D01*
X150383343Y-112361928D01*
X150402900Y-112398516D01*
X150420566Y-112420042D01*
X150431559Y-112433436D01*
X150447338Y-112452663D01*
X150460900Y-112463794D01*
X150634152Y-112637046D01*
X150634153Y-116872287D01*
X150632433Y-116889752D01*
X150639298Y-116959462D01*
X150659632Y-117026493D01*
X150672648Y-117050844D01*
X150692652Y-117088268D01*
X150737090Y-117142415D01*
X150750653Y-117153546D01*
X152570105Y-118973000D01*
X148418224Y-118973000D01*
X148395885Y-118945779D01*
X148353333Y-118910858D01*
X148304786Y-118884909D01*
X148252110Y-118868930D01*
X148211054Y-118864886D01*
X148197328Y-118863534D01*
X148183602Y-118864886D01*
X128141070Y-118864886D01*
X128141070Y-114000000D01*
X139961928Y-114000000D01*
X139974188Y-114124482D01*
X140010498Y-114244180D01*
X140069463Y-114354494D01*
X140148815Y-114451185D01*
X140245506Y-114530537D01*
X140355820Y-114589502D01*
X140475518Y-114625812D01*
X140600000Y-114638072D01*
X141164250Y-114635000D01*
X141323000Y-114476250D01*
X141323000Y-113627000D01*
X141577000Y-113627000D01*
X141577000Y-114476250D01*
X141735750Y-114635000D01*
X142300000Y-114638072D01*
X142424482Y-114625812D01*
X142544180Y-114589502D01*
X142654494Y-114530537D01*
X142751185Y-114451185D01*
X142830537Y-114354494D01*
X142889502Y-114244180D01*
X142925812Y-114124482D01*
X142938072Y-114000000D01*
X146261928Y-114000000D01*
X146274188Y-114124482D01*
X146310498Y-114244180D01*
X146369463Y-114354494D01*
X146448815Y-114451185D01*
X146545506Y-114530537D01*
X146655820Y-114589502D01*
X146775518Y-114625812D01*
X146900000Y-114638072D01*
X147464250Y-114635000D01*
X147623000Y-114476250D01*
X147623000Y-113627000D01*
X147877000Y-113627000D01*
X147877000Y-114476250D01*
X148035750Y-114635000D01*
X148600000Y-114638072D01*
X148724482Y-114625812D01*
X148844180Y-114589502D01*
X148954494Y-114530537D01*
X149051185Y-114451185D01*
X149130537Y-114354494D01*
X149189502Y-114244180D01*
X149225812Y-114124482D01*
X149238072Y-114000000D01*
X149235000Y-113785750D01*
X149076250Y-113627000D01*
X147877000Y-113627000D01*
X147623000Y-113627000D01*
X146423750Y-113627000D01*
X146265000Y-113785750D01*
X146261928Y-114000000D01*
X142938072Y-114000000D01*
X142935000Y-113785750D01*
X142776250Y-113627000D01*
X141577000Y-113627000D01*
X141323000Y-113627000D01*
X140123750Y-113627000D01*
X139965000Y-113785750D01*
X139961928Y-114000000D01*
X128141070Y-114000000D01*
X128141070Y-113000000D01*
X139961928Y-113000000D01*
X139965000Y-113214250D01*
X140123750Y-113373000D01*
X141323000Y-113373000D01*
X141323000Y-112523750D01*
X141577000Y-112523750D01*
X141577000Y-113373000D01*
X142776250Y-113373000D01*
X142935000Y-113214250D01*
X142938072Y-113000000D01*
X146261928Y-113000000D01*
X146265000Y-113214250D01*
X146423750Y-113373000D01*
X147623000Y-113373000D01*
X147623000Y-112523750D01*
X147877000Y-112523750D01*
X147877000Y-113373000D01*
X149076250Y-113373000D01*
X149235000Y-113214250D01*
X149238072Y-113000000D01*
X149225812Y-112875518D01*
X149189502Y-112755820D01*
X149130537Y-112645506D01*
X149051185Y-112548815D01*
X148954494Y-112469463D01*
X148844180Y-112410498D01*
X148724482Y-112374188D01*
X148600000Y-112361928D01*
X148035750Y-112365000D01*
X147877000Y-112523750D01*
X147623000Y-112523750D01*
X147464250Y-112365000D01*
X146900000Y-112361928D01*
X146775518Y-112374188D01*
X146655820Y-112410498D01*
X146545506Y-112469463D01*
X146448815Y-112548815D01*
X146369463Y-112645506D01*
X146310498Y-112755820D01*
X146274188Y-112875518D01*
X146261928Y-113000000D01*
X142938072Y-113000000D01*
X142925812Y-112875518D01*
X142889502Y-112755820D01*
X142830537Y-112645506D01*
X142751185Y-112548815D01*
X142654494Y-112469463D01*
X142544180Y-112410498D01*
X142424482Y-112374188D01*
X142300000Y-112361928D01*
X141735750Y-112365000D01*
X141577000Y-112523750D01*
X141323000Y-112523750D01*
X141164250Y-112365000D01*
X140600000Y-112361928D01*
X140475518Y-112374188D01*
X140355820Y-112410498D01*
X140245506Y-112469463D01*
X140148815Y-112548815D01*
X140069463Y-112645506D01*
X140010498Y-112755820D01*
X139974188Y-112875518D01*
X139961928Y-113000000D01*
X128141070Y-113000000D01*
X128141070Y-109200000D01*
X140319249Y-109200000D01*
X140319249Y-110200000D01*
X140324644Y-110254772D01*
X140340620Y-110307439D01*
X140366564Y-110355977D01*
X140401479Y-110398521D01*
X140444023Y-110433436D01*
X140492561Y-110459380D01*
X140545228Y-110475356D01*
X140600000Y-110480751D01*
X142300000Y-110480751D01*
X142354772Y-110475356D01*
X142407439Y-110459380D01*
X142455977Y-110433436D01*
X142498521Y-110398521D01*
X142533436Y-110355977D01*
X142559380Y-110307439D01*
X142575356Y-110254772D01*
X142580751Y-110200000D01*
X142580751Y-109200000D01*
X142575356Y-109145228D01*
X142559380Y-109092561D01*
X142533436Y-109044023D01*
X142498521Y-109001479D01*
X142455977Y-108966564D01*
X142407439Y-108940620D01*
X142354772Y-108924644D01*
X142300000Y-108919249D01*
X140600000Y-108919249D01*
X140545228Y-108924644D01*
X140492561Y-108940620D01*
X140444023Y-108966564D01*
X140401479Y-109001479D01*
X140366564Y-109044023D01*
X140340620Y-109092561D01*
X140324644Y-109145228D01*
X140319249Y-109200000D01*
X128141070Y-109200000D01*
X128141070Y-108862157D01*
X130435912Y-108862157D01*
X130437195Y-108862031D01*
X130702425Y-108859591D01*
X130703110Y-108859517D01*
X130703796Y-108859575D01*
X130707697Y-108859493D01*
X130980574Y-108851831D01*
X130981348Y-108851733D01*
X130982125Y-108851783D01*
X130986024Y-108851625D01*
X131254107Y-108838857D01*
X131254971Y-108838730D01*
X131255848Y-108838769D01*
X131259743Y-108838531D01*
X131523032Y-108820655D01*
X131523987Y-108820496D01*
X131524962Y-108820518D01*
X131528851Y-108820199D01*
X131787350Y-108797216D01*
X131788403Y-108797017D01*
X131789472Y-108797019D01*
X131793354Y-108796617D01*
X132047058Y-108768527D01*
X132048202Y-108768285D01*
X132049376Y-108768261D01*
X132053248Y-108767772D01*
X132302160Y-108734575D01*
X132303396Y-108734285D01*
X132304675Y-108734229D01*
X132308534Y-108733650D01*
X132552655Y-108695347D01*
X132553989Y-108695002D01*
X132555368Y-108694908D01*
X132559212Y-108694238D01*
X132798538Y-108650828D01*
X132799965Y-108650422D01*
X132801446Y-108650285D01*
X132805273Y-108649521D01*
X133039806Y-108601005D01*
X133041326Y-108600532D01*
X133042909Y-108600345D01*
X133046715Y-108599485D01*
X133276456Y-108545863D01*
X133278064Y-108545318D01*
X133279748Y-108545074D01*
X133283530Y-108544114D01*
X133508478Y-108485386D01*
X133510172Y-108484762D01*
X133511953Y-108484455D01*
X133515708Y-108483394D01*
X133735864Y-108419560D01*
X133737638Y-108418852D01*
X133739514Y-108418475D01*
X133743238Y-108417311D01*
X133958601Y-108348371D01*
X133960448Y-108347574D01*
X133962417Y-108347120D01*
X133966107Y-108345851D01*
X134176676Y-108271806D01*
X134178593Y-108270913D01*
X134180646Y-108270377D01*
X134184297Y-108269001D01*
X134390075Y-108189850D01*
X134392058Y-108188855D01*
X134394183Y-108188232D01*
X134397792Y-108186749D01*
X134598775Y-108102493D01*
X134600810Y-108101395D01*
X134603006Y-108100678D01*
X134606568Y-108099085D01*
X134802759Y-108009724D01*
X134804833Y-108008522D01*
X134807095Y-108007705D01*
X134810606Y-108006002D01*
X135002003Y-107911536D01*
X135004113Y-107910224D01*
X135006422Y-107909306D01*
X135009878Y-107907493D01*
X135196482Y-107807922D01*
X135198613Y-107806502D01*
X135200964Y-107805478D01*
X135204360Y-107803554D01*
X135386170Y-107698878D01*
X135388306Y-107697353D01*
X135390689Y-107696221D01*
X135394019Y-107694187D01*
X135571038Y-107584407D01*
X135573178Y-107582770D01*
X135575569Y-107581536D01*
X135578830Y-107579393D01*
X135751056Y-107464509D01*
X135753182Y-107462768D01*
X135755576Y-107461429D01*
X135758763Y-107459178D01*
X135926195Y-107339190D01*
X135928294Y-107337351D01*
X135930676Y-107335910D01*
X135933786Y-107333553D01*
X136096425Y-107208460D01*
X136098481Y-107206532D01*
X136100843Y-107204991D01*
X136103870Y-107202529D01*
X136261716Y-107072331D01*
X136263720Y-107070319D01*
X136266044Y-107068687D01*
X136268985Y-107066123D01*
X136422037Y-106930822D01*
X136423977Y-106928736D01*
X136426251Y-106927020D01*
X136429103Y-106924357D01*
X136577363Y-106783952D01*
X136579228Y-106781804D01*
X136581445Y-106780008D01*
X136584204Y-106777248D01*
X136727670Y-106631739D01*
X136729451Y-106629539D01*
X136731595Y-106627678D01*
X136734257Y-106624825D01*
X136872931Y-106474214D01*
X136874625Y-106471969D01*
X136876684Y-106470055D01*
X136879248Y-106467114D01*
X137013128Y-106311399D01*
X137014723Y-106309128D01*
X137016694Y-106307168D01*
X137019158Y-106304142D01*
X137148245Y-106143324D01*
X137151829Y-106137838D01*
X137156191Y-106132937D01*
X137158466Y-106129766D01*
X137237249Y-106018381D01*
X137239904Y-106013722D01*
X137243257Y-106009533D01*
X137245363Y-106006249D01*
X137321643Y-105885488D01*
X137323761Y-105881272D01*
X137326534Y-105877449D01*
X137328482Y-105874068D01*
X137402257Y-105743932D01*
X137403936Y-105740153D01*
X137406211Y-105736710D01*
X137408011Y-105733248D01*
X137479283Y-105593736D01*
X137480599Y-105590387D01*
X137482462Y-105587311D01*
X137484122Y-105583780D01*
X137552890Y-105434893D01*
X137553912Y-105431957D01*
X137555430Y-105429232D01*
X137556961Y-105425643D01*
X137623227Y-105267379D01*
X137624016Y-105264816D01*
X137625242Y-105262434D01*
X137626654Y-105258797D01*
X137690415Y-105091158D01*
X137691016Y-105088951D01*
X137692002Y-105086882D01*
X137693303Y-105083203D01*
X137754562Y-104906189D01*
X137755014Y-104904304D01*
X137755801Y-104902528D01*
X137757000Y-104898814D01*
X137815757Y-104712422D01*
X137816092Y-104710832D01*
X137816714Y-104709325D01*
X137817818Y-104705582D01*
X137874071Y-104509813D01*
X137874315Y-104508490D01*
X137874798Y-104507236D01*
X137875813Y-104503469D01*
X137929565Y-104298325D01*
X137929738Y-104297246D01*
X137930109Y-104296216D01*
X137931042Y-104292428D01*
X137982291Y-104077907D01*
X137982408Y-104077054D01*
X137982687Y-104076230D01*
X137983543Y-104072423D01*
X138032290Y-103848527D01*
X138032367Y-103847873D01*
X138032567Y-103847242D01*
X138033352Y-103843420D01*
X138079598Y-103610146D01*
X138079644Y-103609675D01*
X138079781Y-103609217D01*
X138080500Y-103605382D01*
X138124244Y-103362732D01*
X138124269Y-103362427D01*
X138124352Y-103362130D01*
X138125009Y-103358283D01*
X138166252Y-103106257D01*
X138166262Y-103106102D01*
X138166302Y-103105951D01*
X138166901Y-103102095D01*
X138205642Y-102840691D01*
X138205643Y-102840679D01*
X138205648Y-102840657D01*
X138206192Y-102836793D01*
X138242404Y-102566231D01*
X138242405Y-102566226D01*
X138242415Y-102566148D01*
X138242433Y-102566013D01*
X138242433Y-102566004D01*
X138242898Y-102562355D01*
X138276638Y-102282198D01*
X138276639Y-102282171D01*
X138277030Y-102278762D01*
X138308270Y-101989227D01*
X138308270Y-101989193D01*
X138308600Y-101985994D01*
X138337339Y-101687083D01*
X138337339Y-101687034D01*
X138337615Y-101684038D01*
X138363855Y-101375748D01*
X138363854Y-101375695D01*
X138364085Y-101372874D01*
X138387824Y-101055207D01*
X138387823Y-101055152D01*
X138388014Y-101052493D01*
X138409254Y-100725449D01*
X138409252Y-100725376D01*
X138409408Y-100722880D01*
X138428148Y-100386459D01*
X138428145Y-100386396D01*
X138428273Y-100384027D01*
X138444513Y-100038228D01*
X138444510Y-100038163D01*
X138444612Y-100035922D01*
X138458354Y-99680746D01*
X138458350Y-99680678D01*
X138458430Y-99678556D01*
X138469673Y-99314003D01*
X138469669Y-99313936D01*
X138469730Y-99311921D01*
X138478474Y-98937989D01*
X138478469Y-98937915D01*
X138478513Y-98936008D01*
X138484758Y-98552698D01*
X138484752Y-98552627D01*
X138484782Y-98550812D01*
X138488529Y-98158124D01*
X138488524Y-98158063D01*
X138488541Y-98156327D01*
X138489750Y-97767549D01*
X138489792Y-97767119D01*
X138489792Y-92127000D01*
X154393054Y-92127000D01*
X155355964Y-93089911D01*
G37*
G04 #@! TD.AperFunction*
D22*
X157612456Y-111732319D02*
X157609110Y-111734107D01*
X157512419Y-111813460D01*
X157433804Y-111896419D01*
X157433804Y-112120925D01*
X158016637Y-112703758D01*
X158030780Y-112689616D01*
X158210385Y-112869221D01*
X158196242Y-112883363D01*
X158779075Y-113466196D01*
X159003581Y-113466196D01*
X159086540Y-113387581D01*
X159165893Y-113290890D01*
X159224858Y-113180576D01*
X159261167Y-113060877D01*
X159273427Y-112936396D01*
X159261167Y-112811915D01*
X159224858Y-112692216D01*
X159165893Y-112581902D01*
X159110370Y-112514248D01*
X159142606Y-112524027D01*
X159236396Y-112533264D01*
X159330186Y-112524027D01*
X159396040Y-112504050D01*
X159715244Y-112823254D01*
X159727968Y-112838758D01*
X159789850Y-112889544D01*
X159860451Y-112927281D01*
X159913819Y-112943470D01*
X159937057Y-112950519D01*
X159945061Y-112951307D01*
X159996766Y-112956400D01*
X159996772Y-112956400D01*
X160016725Y-112958365D01*
X160036678Y-112956400D01*
X161694249Y-112956400D01*
X161694249Y-113200000D01*
X161699644Y-113254772D01*
X161715620Y-113307439D01*
X161741564Y-113355977D01*
X161776479Y-113398521D01*
X161819023Y-113433436D01*
X161867561Y-113459380D01*
X161920228Y-113475356D01*
X161975000Y-113480751D01*
X162725000Y-113480751D01*
X162779772Y-113475356D01*
X162832439Y-113459380D01*
X162880977Y-113433436D01*
X162923521Y-113398521D01*
X162958436Y-113355977D01*
X162984380Y-113307439D01*
X162992132Y-113281884D01*
X162994023Y-113283436D01*
X163042561Y-113309380D01*
X163095228Y-113325356D01*
X163150000Y-113330751D01*
X164450000Y-113330751D01*
X164504772Y-113325356D01*
X164557439Y-113309380D01*
X164605977Y-113283436D01*
X164607868Y-113281884D01*
X164615620Y-113307439D01*
X164641564Y-113355977D01*
X164676479Y-113398521D01*
X164701159Y-113418776D01*
X164616628Y-113503307D01*
X164548525Y-113605230D01*
X164501615Y-113718482D01*
X164477700Y-113838709D01*
X164477700Y-113944400D01*
X158529257Y-113944400D01*
X158599470Y-113870307D01*
X158599470Y-113645801D01*
X158016637Y-113062968D01*
X157486837Y-113592768D01*
X157486837Y-113817274D01*
X157609902Y-113944400D01*
X157433045Y-113944400D01*
X157155600Y-113666957D01*
X157155600Y-113413163D01*
X157307232Y-113413163D01*
X157837032Y-112883363D01*
X157254199Y-112300530D01*
X157155600Y-112300530D01*
X157155600Y-112033010D01*
X157221000Y-112014839D01*
X157332671Y-111958485D01*
X157415897Y-111892637D01*
X157415897Y-111668130D01*
X157548267Y-111668130D01*
X157612456Y-111732319D01*
G04 #@! TA.AperFunction,Conductor*
D21*
G36*
X157612456Y-111732319D02*
G01*
X157609110Y-111734107D01*
X157512419Y-111813460D01*
X157433804Y-111896419D01*
X157433804Y-112120925D01*
X158016637Y-112703758D01*
X158030780Y-112689616D01*
X158210385Y-112869221D01*
X158196242Y-112883363D01*
X158779075Y-113466196D01*
X159003581Y-113466196D01*
X159086540Y-113387581D01*
X159165893Y-113290890D01*
X159224858Y-113180576D01*
X159261167Y-113060877D01*
X159273427Y-112936396D01*
X159261167Y-112811915D01*
X159224858Y-112692216D01*
X159165893Y-112581902D01*
X159110370Y-112514248D01*
X159142606Y-112524027D01*
X159236396Y-112533264D01*
X159330186Y-112524027D01*
X159396040Y-112504050D01*
X159715244Y-112823254D01*
X159727968Y-112838758D01*
X159789850Y-112889544D01*
X159860451Y-112927281D01*
X159913819Y-112943470D01*
X159937057Y-112950519D01*
X159945061Y-112951307D01*
X159996766Y-112956400D01*
X159996772Y-112956400D01*
X160016725Y-112958365D01*
X160036678Y-112956400D01*
X161694249Y-112956400D01*
X161694249Y-113200000D01*
X161699644Y-113254772D01*
X161715620Y-113307439D01*
X161741564Y-113355977D01*
X161776479Y-113398521D01*
X161819023Y-113433436D01*
X161867561Y-113459380D01*
X161920228Y-113475356D01*
X161975000Y-113480751D01*
X162725000Y-113480751D01*
X162779772Y-113475356D01*
X162832439Y-113459380D01*
X162880977Y-113433436D01*
X162923521Y-113398521D01*
X162958436Y-113355977D01*
X162984380Y-113307439D01*
X162992132Y-113281884D01*
X162994023Y-113283436D01*
X163042561Y-113309380D01*
X163095228Y-113325356D01*
X163150000Y-113330751D01*
X164450000Y-113330751D01*
X164504772Y-113325356D01*
X164557439Y-113309380D01*
X164605977Y-113283436D01*
X164607868Y-113281884D01*
X164615620Y-113307439D01*
X164641564Y-113355977D01*
X164676479Y-113398521D01*
X164701159Y-113418776D01*
X164616628Y-113503307D01*
X164548525Y-113605230D01*
X164501615Y-113718482D01*
X164477700Y-113838709D01*
X164477700Y-113944400D01*
X158529257Y-113944400D01*
X158599470Y-113870307D01*
X158599470Y-113645801D01*
X158016637Y-113062968D01*
X157486837Y-113592768D01*
X157486837Y-113817274D01*
X157609902Y-113944400D01*
X157433045Y-113944400D01*
X157155600Y-113666957D01*
X157155600Y-113413163D01*
X157307232Y-113413163D01*
X157837032Y-112883363D01*
X157254199Y-112300530D01*
X157155600Y-112300530D01*
X157155600Y-112033010D01*
X157221000Y-112014839D01*
X157332671Y-111958485D01*
X157415897Y-111892637D01*
X157415897Y-111668130D01*
X157548267Y-111668130D01*
X157612456Y-111732319D01*
G37*
G04 #@! TD.AperFunction*
D22*
X165573518Y-108998254D02*
X165586242Y-109013758D01*
X165648124Y-109064544D01*
X165714976Y-109100277D01*
X165718725Y-109102281D01*
X165795331Y-109125519D01*
X165803335Y-109126307D01*
X165855040Y-109131400D01*
X165855046Y-109131400D01*
X165874999Y-109133365D01*
X165894952Y-109131400D01*
X166056664Y-109131400D01*
X166252597Y-109327333D01*
X166241025Y-109330844D01*
X166157909Y-109375270D01*
X166085058Y-109435058D01*
X166025270Y-109507909D01*
X165980844Y-109591025D01*
X165953486Y-109681210D01*
X165944249Y-109775000D01*
X165944249Y-110175000D01*
X165953486Y-110268790D01*
X165980844Y-110358975D01*
X166025270Y-110442091D01*
X166027165Y-110444400D01*
X165803540Y-110444400D01*
X165798385Y-110418482D01*
X165751475Y-110305230D01*
X165683372Y-110203307D01*
X165596693Y-110116628D01*
X165494770Y-110048525D01*
X165381518Y-110001615D01*
X165261291Y-109977700D01*
X165138709Y-109977700D01*
X165018482Y-110001615D01*
X164905230Y-110048525D01*
X164803307Y-110116628D01*
X164716628Y-110203307D01*
X164648525Y-110305230D01*
X164601615Y-110418482D01*
X164577700Y-110538709D01*
X164577700Y-110661291D01*
X164601615Y-110781518D01*
X164648525Y-110894770D01*
X164716628Y-110996693D01*
X164803307Y-111083372D01*
X164859313Y-111120794D01*
X164820228Y-111124644D01*
X164767561Y-111140620D01*
X164719023Y-111166564D01*
X164676479Y-111201479D01*
X164641564Y-111244023D01*
X164615620Y-111292561D01*
X164607868Y-111318116D01*
X164605977Y-111316564D01*
X164557439Y-111290620D01*
X164504772Y-111274644D01*
X164450000Y-111269249D01*
X163348711Y-111269249D01*
X163347794Y-111261209D01*
X163308751Y-111142374D01*
X163247274Y-111033440D01*
X163165726Y-110938593D01*
X163067242Y-110861478D01*
X162955605Y-110805057D01*
X162835107Y-110771500D01*
X162710377Y-110762096D01*
X162635750Y-110765000D01*
X162477000Y-110923750D01*
X162477000Y-111527000D01*
X162497000Y-111527000D01*
X162497000Y-111573000D01*
X162477000Y-111573000D01*
X162477000Y-111619249D01*
X162223000Y-111619249D01*
X162223000Y-111573000D01*
X161498750Y-111573000D01*
X161340000Y-111731750D01*
X161352206Y-111838791D01*
X161391249Y-111957626D01*
X161452726Y-112066560D01*
X161518964Y-112143600D01*
X160185062Y-112143600D01*
X159970776Y-111929314D01*
X159990753Y-111863460D01*
X159999990Y-111769670D01*
X159990753Y-111675880D01*
X159987892Y-111666449D01*
X160286091Y-111368250D01*
X161340000Y-111368250D01*
X161498750Y-111527000D01*
X162223000Y-111527000D01*
X162223000Y-110923750D01*
X162064250Y-110765000D01*
X161989623Y-110762096D01*
X161864893Y-110771500D01*
X161744395Y-110805057D01*
X161632758Y-110861478D01*
X161534274Y-110938593D01*
X161452726Y-111033440D01*
X161391249Y-111142374D01*
X161352206Y-111261209D01*
X161340000Y-111368250D01*
X160286091Y-111368250D01*
X161058655Y-110595686D01*
X161078994Y-110578994D01*
X161095686Y-110558655D01*
X161095693Y-110558648D01*
X161695693Y-109958649D01*
X161695698Y-109958643D01*
X161774820Y-109879521D01*
X161799735Y-109889841D01*
X161998613Y-109929400D01*
X162201387Y-109929400D01*
X162400265Y-109889841D01*
X162587604Y-109812243D01*
X162756204Y-109699587D01*
X162899587Y-109556204D01*
X163012243Y-109387604D01*
X163089841Y-109200265D01*
X163129400Y-109001387D01*
X163129400Y-108798613D01*
X163089841Y-108599735D01*
X163079521Y-108574820D01*
X164114803Y-107539539D01*
X165573518Y-108998254D01*
G04 #@! TA.AperFunction,Conductor*
D21*
G36*
X165573518Y-108998254D02*
G01*
X165586242Y-109013758D01*
X165648124Y-109064544D01*
X165714976Y-109100277D01*
X165718725Y-109102281D01*
X165795331Y-109125519D01*
X165803335Y-109126307D01*
X165855040Y-109131400D01*
X165855046Y-109131400D01*
X165874999Y-109133365D01*
X165894952Y-109131400D01*
X166056664Y-109131400D01*
X166252597Y-109327333D01*
X166241025Y-109330844D01*
X166157909Y-109375270D01*
X166085058Y-109435058D01*
X166025270Y-109507909D01*
X165980844Y-109591025D01*
X165953486Y-109681210D01*
X165944249Y-109775000D01*
X165944249Y-110175000D01*
X165953486Y-110268790D01*
X165980844Y-110358975D01*
X166025270Y-110442091D01*
X166027165Y-110444400D01*
X165803540Y-110444400D01*
X165798385Y-110418482D01*
X165751475Y-110305230D01*
X165683372Y-110203307D01*
X165596693Y-110116628D01*
X165494770Y-110048525D01*
X165381518Y-110001615D01*
X165261291Y-109977700D01*
X165138709Y-109977700D01*
X165018482Y-110001615D01*
X164905230Y-110048525D01*
X164803307Y-110116628D01*
X164716628Y-110203307D01*
X164648525Y-110305230D01*
X164601615Y-110418482D01*
X164577700Y-110538709D01*
X164577700Y-110661291D01*
X164601615Y-110781518D01*
X164648525Y-110894770D01*
X164716628Y-110996693D01*
X164803307Y-111083372D01*
X164859313Y-111120794D01*
X164820228Y-111124644D01*
X164767561Y-111140620D01*
X164719023Y-111166564D01*
X164676479Y-111201479D01*
X164641564Y-111244023D01*
X164615620Y-111292561D01*
X164607868Y-111318116D01*
X164605977Y-111316564D01*
X164557439Y-111290620D01*
X164504772Y-111274644D01*
X164450000Y-111269249D01*
X163348711Y-111269249D01*
X163347794Y-111261209D01*
X163308751Y-111142374D01*
X163247274Y-111033440D01*
X163165726Y-110938593D01*
X163067242Y-110861478D01*
X162955605Y-110805057D01*
X162835107Y-110771500D01*
X162710377Y-110762096D01*
X162635750Y-110765000D01*
X162477000Y-110923750D01*
X162477000Y-111527000D01*
X162497000Y-111527000D01*
X162497000Y-111573000D01*
X162477000Y-111573000D01*
X162477000Y-111619249D01*
X162223000Y-111619249D01*
X162223000Y-111573000D01*
X161498750Y-111573000D01*
X161340000Y-111731750D01*
X161352206Y-111838791D01*
X161391249Y-111957626D01*
X161452726Y-112066560D01*
X161518964Y-112143600D01*
X160185062Y-112143600D01*
X159970776Y-111929314D01*
X159990753Y-111863460D01*
X159999990Y-111769670D01*
X159990753Y-111675880D01*
X159987892Y-111666449D01*
X160286091Y-111368250D01*
X161340000Y-111368250D01*
X161498750Y-111527000D01*
X162223000Y-111527000D01*
X162223000Y-110923750D01*
X162064250Y-110765000D01*
X161989623Y-110762096D01*
X161864893Y-110771500D01*
X161744395Y-110805057D01*
X161632758Y-110861478D01*
X161534274Y-110938593D01*
X161452726Y-111033440D01*
X161391249Y-111142374D01*
X161352206Y-111261209D01*
X161340000Y-111368250D01*
X160286091Y-111368250D01*
X161058655Y-110595686D01*
X161078994Y-110578994D01*
X161095686Y-110558655D01*
X161095693Y-110558648D01*
X161695693Y-109958649D01*
X161695698Y-109958643D01*
X161774820Y-109879521D01*
X161799735Y-109889841D01*
X161998613Y-109929400D01*
X162201387Y-109929400D01*
X162400265Y-109889841D01*
X162587604Y-109812243D01*
X162756204Y-109699587D01*
X162899587Y-109556204D01*
X163012243Y-109387604D01*
X163089841Y-109200265D01*
X163129400Y-109001387D01*
X163129400Y-108798613D01*
X163089841Y-108599735D01*
X163079521Y-108574820D01*
X164114803Y-107539539D01*
X165573518Y-108998254D01*
G37*
G04 #@! TD.AperFunction*
D22*
X165039600Y-102125479D02*
X164991060Y-102110755D01*
X164894038Y-102101199D01*
X164885188Y-102100327D01*
X164885356Y-102099772D01*
X164890751Y-102045000D01*
X164890751Y-101395000D01*
X164885356Y-101340228D01*
X164869380Y-101287561D01*
X164843436Y-101239023D01*
X164808521Y-101196479D01*
X164765977Y-101161564D01*
X164717439Y-101135620D01*
X164664772Y-101119644D01*
X164610000Y-101114249D01*
X163550000Y-101114249D01*
X163495228Y-101119644D01*
X163442561Y-101135620D01*
X163394023Y-101161564D01*
X163351479Y-101196479D01*
X163316564Y-101239023D01*
X163290620Y-101287561D01*
X163274644Y-101340228D01*
X163269249Y-101395000D01*
X163269249Y-102045000D01*
X163274644Y-102099772D01*
X163275077Y-102101199D01*
X163094037Y-102101199D01*
X163061598Y-102098004D01*
X163029160Y-102101199D01*
X163000474Y-102104024D01*
X162999502Y-102100820D01*
X162940537Y-101990506D01*
X162861185Y-101893815D01*
X162764494Y-101814463D01*
X162690751Y-101775046D01*
X162690751Y-101395000D01*
X162685356Y-101340228D01*
X162669380Y-101287561D01*
X162643436Y-101239023D01*
X162608521Y-101196479D01*
X162565977Y-101161564D01*
X162517439Y-101135620D01*
X162464772Y-101119644D01*
X162410000Y-101114249D01*
X161350000Y-101114249D01*
X161295228Y-101119644D01*
X161242561Y-101135620D01*
X161194023Y-101161564D01*
X161151479Y-101196479D01*
X161116564Y-101239023D01*
X161090620Y-101287561D01*
X161074644Y-101340228D01*
X161072263Y-101364400D01*
X159597455Y-101364400D01*
X159580000Y-101362681D01*
X159562545Y-101364400D01*
X159562537Y-101364400D01*
X159510290Y-101369546D01*
X159443260Y-101389879D01*
X159400129Y-101412933D01*
X159381484Y-101422899D01*
X159357133Y-101442884D01*
X159327337Y-101467337D01*
X159316206Y-101480900D01*
X158260901Y-102536206D01*
X158247338Y-102547337D01*
X158202900Y-102601484D01*
X158192288Y-102621338D01*
X158169880Y-102663259D01*
X158149546Y-102730290D01*
X158142681Y-102800000D01*
X158144401Y-102817465D01*
X158144401Y-103184599D01*
X158125270Y-103207909D01*
X158080844Y-103291025D01*
X158053486Y-103381210D01*
X158044249Y-103475000D01*
X158044249Y-103875000D01*
X158053486Y-103968790D01*
X158080844Y-104058975D01*
X158125270Y-104142091D01*
X158185058Y-104214942D01*
X158257909Y-104274730D01*
X158341025Y-104319156D01*
X158431210Y-104346514D01*
X158525000Y-104355751D01*
X159075000Y-104355751D01*
X159168790Y-104346514D01*
X159238763Y-104325288D01*
X159294463Y-104429494D01*
X159373815Y-104526185D01*
X159470506Y-104605537D01*
X159580820Y-104664502D01*
X159700518Y-104700812D01*
X159787618Y-104709390D01*
X159757909Y-104725270D01*
X159685058Y-104785058D01*
X159679689Y-104791600D01*
X159420311Y-104791600D01*
X159414942Y-104785058D01*
X159342091Y-104725270D01*
X159258975Y-104680844D01*
X159168790Y-104653486D01*
X159075000Y-104644249D01*
X158525000Y-104644249D01*
X158431210Y-104653486D01*
X158341025Y-104680844D01*
X158257909Y-104725270D01*
X158185058Y-104785058D01*
X158125270Y-104857909D01*
X158080844Y-104941025D01*
X158053486Y-105031210D01*
X158044249Y-105125000D01*
X158044249Y-105525000D01*
X158053486Y-105618790D01*
X158080844Y-105708975D01*
X158125270Y-105792091D01*
X158185058Y-105864942D01*
X158257909Y-105924730D01*
X158341025Y-105969156D01*
X158431210Y-105996514D01*
X158525000Y-106005751D01*
X159075000Y-106005751D01*
X159168790Y-105996514D01*
X159258975Y-105969156D01*
X159342091Y-105924730D01*
X159414942Y-105864942D01*
X159420311Y-105858400D01*
X159679689Y-105858400D01*
X159685058Y-105864942D01*
X159757909Y-105924730D01*
X159841025Y-105969156D01*
X159931210Y-105996514D01*
X160025000Y-106005751D01*
X160575000Y-106005751D01*
X160668790Y-105996514D01*
X160758975Y-105969156D01*
X160842091Y-105924730D01*
X160914942Y-105864942D01*
X160974730Y-105792091D01*
X160983865Y-105775000D01*
X161536928Y-105775000D01*
X161549188Y-105899482D01*
X161585498Y-106019180D01*
X161644463Y-106129494D01*
X161723815Y-106226185D01*
X161820506Y-106305537D01*
X161930820Y-106364502D01*
X162050518Y-106400812D01*
X162175000Y-106413072D01*
X162289250Y-106410000D01*
X162448000Y-106251250D01*
X162448000Y-105427000D01*
X161698750Y-105427000D01*
X161540000Y-105585750D01*
X161536928Y-105775000D01*
X160983865Y-105775000D01*
X161019156Y-105708975D01*
X161046514Y-105618790D01*
X161055751Y-105525000D01*
X161055751Y-105423195D01*
X161538797Y-104940149D01*
X161540000Y-105014250D01*
X161698750Y-105173000D01*
X162448000Y-105173000D01*
X162448000Y-105153000D01*
X162702000Y-105153000D01*
X162702000Y-105173000D01*
X162722000Y-105173000D01*
X162722000Y-105427000D01*
X162702000Y-105427000D01*
X162702000Y-106251250D01*
X162860750Y-106410000D01*
X162975000Y-106413072D01*
X163099482Y-106400812D01*
X163219180Y-106364502D01*
X163329494Y-106305537D01*
X163426185Y-106226185D01*
X163491601Y-106146476D01*
X163491601Y-106654057D01*
X162262836Y-107882823D01*
X162201387Y-107870600D01*
X161998613Y-107870600D01*
X161799735Y-107910159D01*
X161612396Y-107987757D01*
X161443796Y-108100413D01*
X161300413Y-108243796D01*
X161187757Y-108412396D01*
X161110159Y-108599735D01*
X161070600Y-108798613D01*
X161070600Y-109001387D01*
X161082823Y-109062836D01*
X160941357Y-109204302D01*
X160941351Y-109204307D01*
X160700000Y-109445658D01*
X160495697Y-109241356D01*
X160495693Y-109241351D01*
X159004732Y-107750391D01*
X158998385Y-107718482D01*
X158951475Y-107605230D01*
X158883372Y-107503307D01*
X158796693Y-107416628D01*
X158694770Y-107348525D01*
X158581518Y-107301615D01*
X158461291Y-107277700D01*
X158338709Y-107277700D01*
X158218482Y-107301615D01*
X158105230Y-107348525D01*
X158003307Y-107416628D01*
X157916628Y-107503307D01*
X157848525Y-107605230D01*
X157801615Y-107718482D01*
X157777700Y-107838709D01*
X157777700Y-107961291D01*
X157801615Y-108081518D01*
X157848525Y-108194770D01*
X157916628Y-108296693D01*
X158003307Y-108383372D01*
X158105230Y-108451475D01*
X158218482Y-108498385D01*
X158250391Y-108504732D01*
X159741351Y-109995693D01*
X159741356Y-109995697D01*
X159945659Y-110200000D01*
X159233551Y-110912108D01*
X159224120Y-110909247D01*
X159130330Y-110900010D01*
X159036540Y-110909247D01*
X158946355Y-110936605D01*
X158863239Y-110981031D01*
X158790388Y-111040819D01*
X158520970Y-111310237D01*
X158339846Y-111310237D01*
X157423102Y-110393493D01*
X157417989Y-110389297D01*
X157228692Y-110200000D01*
X157675406Y-109753286D01*
X157718094Y-109701271D01*
X157749814Y-109641927D01*
X157769347Y-109577536D01*
X157775942Y-109510571D01*
X157769347Y-109443606D01*
X157749814Y-109379215D01*
X157718094Y-109319871D01*
X157675406Y-109267856D01*
X157587017Y-109179467D01*
X157535002Y-109136779D01*
X157521239Y-109129423D01*
X157643915Y-109006747D01*
X157657473Y-108995620D01*
X157668600Y-108982062D01*
X157668605Y-108982057D01*
X157701910Y-108941474D01*
X157702367Y-108940620D01*
X157734931Y-108879697D01*
X157746975Y-108839994D01*
X157755264Y-108812668D01*
X157756513Y-108799990D01*
X157760410Y-108760420D01*
X157760410Y-108760413D01*
X157762129Y-108742958D01*
X157760410Y-108725502D01*
X157760410Y-107291199D01*
X157762129Y-107273744D01*
X157760410Y-107256289D01*
X157760410Y-107256281D01*
X157755264Y-107204034D01*
X157734931Y-107137004D01*
X157701911Y-107075228D01*
X157692082Y-107063252D01*
X157668605Y-107034646D01*
X157657472Y-107021081D01*
X157643909Y-107009950D01*
X157560410Y-106926451D01*
X157560410Y-103273549D01*
X157993915Y-102840046D01*
X158007473Y-102828919D01*
X158018600Y-102815361D01*
X158018605Y-102815356D01*
X158051910Y-102774773D01*
X158057188Y-102764900D01*
X158084931Y-102712996D01*
X158105264Y-102645966D01*
X158110410Y-102593719D01*
X158110410Y-102593710D01*
X158112129Y-102576257D01*
X158110410Y-102558804D01*
X158110410Y-101223549D01*
X158173550Y-101160410D01*
X159508801Y-101160410D01*
X159526256Y-101162129D01*
X159543711Y-101160410D01*
X159543719Y-101160410D01*
X159595966Y-101155264D01*
X159662996Y-101134931D01*
X159724772Y-101101911D01*
X159778919Y-101057473D01*
X159790055Y-101043905D01*
X160373551Y-100460410D01*
X162208792Y-100460408D01*
X162226257Y-100462128D01*
X162295967Y-100455263D01*
X162362998Y-100434929D01*
X162396639Y-100416947D01*
X162424773Y-100401909D01*
X162478920Y-100357471D01*
X162490051Y-100343908D01*
X163643910Y-99190050D01*
X163657473Y-99178919D01*
X163681798Y-99149280D01*
X163701911Y-99124772D01*
X163707303Y-99114684D01*
X163734931Y-99062996D01*
X163755264Y-98995966D01*
X163760410Y-98943719D01*
X163760410Y-98943711D01*
X163762129Y-98926256D01*
X163760410Y-98908801D01*
X163760410Y-98242483D01*
X164690236Y-97312658D01*
X164738709Y-97322300D01*
X164861291Y-97322300D01*
X164981518Y-97298385D01*
X165039601Y-97274327D01*
X165039600Y-102125479D01*
G04 #@! TA.AperFunction,Conductor*
D21*
G36*
X165039600Y-102125479D02*
G01*
X164991060Y-102110755D01*
X164894038Y-102101199D01*
X164885188Y-102100327D01*
X164885356Y-102099772D01*
X164890751Y-102045000D01*
X164890751Y-101395000D01*
X164885356Y-101340228D01*
X164869380Y-101287561D01*
X164843436Y-101239023D01*
X164808521Y-101196479D01*
X164765977Y-101161564D01*
X164717439Y-101135620D01*
X164664772Y-101119644D01*
X164610000Y-101114249D01*
X163550000Y-101114249D01*
X163495228Y-101119644D01*
X163442561Y-101135620D01*
X163394023Y-101161564D01*
X163351479Y-101196479D01*
X163316564Y-101239023D01*
X163290620Y-101287561D01*
X163274644Y-101340228D01*
X163269249Y-101395000D01*
X163269249Y-102045000D01*
X163274644Y-102099772D01*
X163275077Y-102101199D01*
X163094037Y-102101199D01*
X163061598Y-102098004D01*
X163029160Y-102101199D01*
X163000474Y-102104024D01*
X162999502Y-102100820D01*
X162940537Y-101990506D01*
X162861185Y-101893815D01*
X162764494Y-101814463D01*
X162690751Y-101775046D01*
X162690751Y-101395000D01*
X162685356Y-101340228D01*
X162669380Y-101287561D01*
X162643436Y-101239023D01*
X162608521Y-101196479D01*
X162565977Y-101161564D01*
X162517439Y-101135620D01*
X162464772Y-101119644D01*
X162410000Y-101114249D01*
X161350000Y-101114249D01*
X161295228Y-101119644D01*
X161242561Y-101135620D01*
X161194023Y-101161564D01*
X161151479Y-101196479D01*
X161116564Y-101239023D01*
X161090620Y-101287561D01*
X161074644Y-101340228D01*
X161072263Y-101364400D01*
X159597455Y-101364400D01*
X159580000Y-101362681D01*
X159562545Y-101364400D01*
X159562537Y-101364400D01*
X159510290Y-101369546D01*
X159443260Y-101389879D01*
X159400129Y-101412933D01*
X159381484Y-101422899D01*
X159357133Y-101442884D01*
X159327337Y-101467337D01*
X159316206Y-101480900D01*
X158260901Y-102536206D01*
X158247338Y-102547337D01*
X158202900Y-102601484D01*
X158192288Y-102621338D01*
X158169880Y-102663259D01*
X158149546Y-102730290D01*
X158142681Y-102800000D01*
X158144401Y-102817465D01*
X158144401Y-103184599D01*
X158125270Y-103207909D01*
X158080844Y-103291025D01*
X158053486Y-103381210D01*
X158044249Y-103475000D01*
X158044249Y-103875000D01*
X158053486Y-103968790D01*
X158080844Y-104058975D01*
X158125270Y-104142091D01*
X158185058Y-104214942D01*
X158257909Y-104274730D01*
X158341025Y-104319156D01*
X158431210Y-104346514D01*
X158525000Y-104355751D01*
X159075000Y-104355751D01*
X159168790Y-104346514D01*
X159238763Y-104325288D01*
X159294463Y-104429494D01*
X159373815Y-104526185D01*
X159470506Y-104605537D01*
X159580820Y-104664502D01*
X159700518Y-104700812D01*
X159787618Y-104709390D01*
X159757909Y-104725270D01*
X159685058Y-104785058D01*
X159679689Y-104791600D01*
X159420311Y-104791600D01*
X159414942Y-104785058D01*
X159342091Y-104725270D01*
X159258975Y-104680844D01*
X159168790Y-104653486D01*
X159075000Y-104644249D01*
X158525000Y-104644249D01*
X158431210Y-104653486D01*
X158341025Y-104680844D01*
X158257909Y-104725270D01*
X158185058Y-104785058D01*
X158125270Y-104857909D01*
X158080844Y-104941025D01*
X158053486Y-105031210D01*
X158044249Y-105125000D01*
X158044249Y-105525000D01*
X158053486Y-105618790D01*
X158080844Y-105708975D01*
X158125270Y-105792091D01*
X158185058Y-105864942D01*
X158257909Y-105924730D01*
X158341025Y-105969156D01*
X158431210Y-105996514D01*
X158525000Y-106005751D01*
X159075000Y-106005751D01*
X159168790Y-105996514D01*
X159258975Y-105969156D01*
X159342091Y-105924730D01*
X159414942Y-105864942D01*
X159420311Y-105858400D01*
X159679689Y-105858400D01*
X159685058Y-105864942D01*
X159757909Y-105924730D01*
X159841025Y-105969156D01*
X159931210Y-105996514D01*
X160025000Y-106005751D01*
X160575000Y-106005751D01*
X160668790Y-105996514D01*
X160758975Y-105969156D01*
X160842091Y-105924730D01*
X160914942Y-105864942D01*
X160974730Y-105792091D01*
X160983865Y-105775000D01*
X161536928Y-105775000D01*
X161549188Y-105899482D01*
X161585498Y-106019180D01*
X161644463Y-106129494D01*
X161723815Y-106226185D01*
X161820506Y-106305537D01*
X161930820Y-106364502D01*
X162050518Y-106400812D01*
X162175000Y-106413072D01*
X162289250Y-106410000D01*
X162448000Y-106251250D01*
X162448000Y-105427000D01*
X161698750Y-105427000D01*
X161540000Y-105585750D01*
X161536928Y-105775000D01*
X160983865Y-105775000D01*
X161019156Y-105708975D01*
X161046514Y-105618790D01*
X161055751Y-105525000D01*
X161055751Y-105423195D01*
X161538797Y-104940149D01*
X161540000Y-105014250D01*
X161698750Y-105173000D01*
X162448000Y-105173000D01*
X162448000Y-105153000D01*
X162702000Y-105153000D01*
X162702000Y-105173000D01*
X162722000Y-105173000D01*
X162722000Y-105427000D01*
X162702000Y-105427000D01*
X162702000Y-106251250D01*
X162860750Y-106410000D01*
X162975000Y-106413072D01*
X163099482Y-106400812D01*
X163219180Y-106364502D01*
X163329494Y-106305537D01*
X163426185Y-106226185D01*
X163491601Y-106146476D01*
X163491601Y-106654057D01*
X162262836Y-107882823D01*
X162201387Y-107870600D01*
X161998613Y-107870600D01*
X161799735Y-107910159D01*
X161612396Y-107987757D01*
X161443796Y-108100413D01*
X161300413Y-108243796D01*
X161187757Y-108412396D01*
X161110159Y-108599735D01*
X161070600Y-108798613D01*
X161070600Y-109001387D01*
X161082823Y-109062836D01*
X160941357Y-109204302D01*
X160941351Y-109204307D01*
X160700000Y-109445658D01*
X160495697Y-109241356D01*
X160495693Y-109241351D01*
X159004732Y-107750391D01*
X158998385Y-107718482D01*
X158951475Y-107605230D01*
X158883372Y-107503307D01*
X158796693Y-107416628D01*
X158694770Y-107348525D01*
X158581518Y-107301615D01*
X158461291Y-107277700D01*
X158338709Y-107277700D01*
X158218482Y-107301615D01*
X158105230Y-107348525D01*
X158003307Y-107416628D01*
X157916628Y-107503307D01*
X157848525Y-107605230D01*
X157801615Y-107718482D01*
X157777700Y-107838709D01*
X157777700Y-107961291D01*
X157801615Y-108081518D01*
X157848525Y-108194770D01*
X157916628Y-108296693D01*
X158003307Y-108383372D01*
X158105230Y-108451475D01*
X158218482Y-108498385D01*
X158250391Y-108504732D01*
X159741351Y-109995693D01*
X159741356Y-109995697D01*
X159945659Y-110200000D01*
X159233551Y-110912108D01*
X159224120Y-110909247D01*
X159130330Y-110900010D01*
X159036540Y-110909247D01*
X158946355Y-110936605D01*
X158863239Y-110981031D01*
X158790388Y-111040819D01*
X158520970Y-111310237D01*
X158339846Y-111310237D01*
X157423102Y-110393493D01*
X157417989Y-110389297D01*
X157228692Y-110200000D01*
X157675406Y-109753286D01*
X157718094Y-109701271D01*
X157749814Y-109641927D01*
X157769347Y-109577536D01*
X157775942Y-109510571D01*
X157769347Y-109443606D01*
X157749814Y-109379215D01*
X157718094Y-109319871D01*
X157675406Y-109267856D01*
X157587017Y-109179467D01*
X157535002Y-109136779D01*
X157521239Y-109129423D01*
X157643915Y-109006747D01*
X157657473Y-108995620D01*
X157668600Y-108982062D01*
X157668605Y-108982057D01*
X157701910Y-108941474D01*
X157702367Y-108940620D01*
X157734931Y-108879697D01*
X157746975Y-108839994D01*
X157755264Y-108812668D01*
X157756513Y-108799990D01*
X157760410Y-108760420D01*
X157760410Y-108760413D01*
X157762129Y-108742958D01*
X157760410Y-108725502D01*
X157760410Y-107291199D01*
X157762129Y-107273744D01*
X157760410Y-107256289D01*
X157760410Y-107256281D01*
X157755264Y-107204034D01*
X157734931Y-107137004D01*
X157701911Y-107075228D01*
X157692082Y-107063252D01*
X157668605Y-107034646D01*
X157657472Y-107021081D01*
X157643909Y-107009950D01*
X157560410Y-106926451D01*
X157560410Y-103273549D01*
X157993915Y-102840046D01*
X158007473Y-102828919D01*
X158018600Y-102815361D01*
X158018605Y-102815356D01*
X158051910Y-102774773D01*
X158057188Y-102764900D01*
X158084931Y-102712996D01*
X158105264Y-102645966D01*
X158110410Y-102593719D01*
X158110410Y-102593710D01*
X158112129Y-102576257D01*
X158110410Y-102558804D01*
X158110410Y-101223549D01*
X158173550Y-101160410D01*
X159508801Y-101160410D01*
X159526256Y-101162129D01*
X159543711Y-101160410D01*
X159543719Y-101160410D01*
X159595966Y-101155264D01*
X159662996Y-101134931D01*
X159724772Y-101101911D01*
X159778919Y-101057473D01*
X159790055Y-101043905D01*
X160373551Y-100460410D01*
X162208792Y-100460408D01*
X162226257Y-100462128D01*
X162295967Y-100455263D01*
X162362998Y-100434929D01*
X162396639Y-100416947D01*
X162424773Y-100401909D01*
X162478920Y-100357471D01*
X162490051Y-100343908D01*
X163643910Y-99190050D01*
X163657473Y-99178919D01*
X163681798Y-99149280D01*
X163701911Y-99124772D01*
X163707303Y-99114684D01*
X163734931Y-99062996D01*
X163755264Y-98995966D01*
X163760410Y-98943719D01*
X163760410Y-98943711D01*
X163762129Y-98926256D01*
X163760410Y-98908801D01*
X163760410Y-98242483D01*
X164690236Y-97312658D01*
X164738709Y-97322300D01*
X164861291Y-97322300D01*
X164981518Y-97298385D01*
X165039601Y-97274327D01*
X165039600Y-102125479D01*
G37*
G04 #@! TD.AperFunction*
D22*
X156844170Y-110963116D02*
X156848366Y-110968229D01*
X156952283Y-111072146D01*
X156819454Y-111204975D01*
X156639848Y-111025369D01*
X156706492Y-110958725D01*
X156773136Y-110892082D01*
X156844170Y-110963116D01*
G04 #@! TA.AperFunction,Conductor*
D21*
G36*
X156844170Y-110963116D02*
G01*
X156848366Y-110968229D01*
X156952283Y-111072146D01*
X156819454Y-111204975D01*
X156639848Y-111025369D01*
X156706492Y-110958725D01*
X156773136Y-110892082D01*
X156844170Y-110963116D01*
G37*
G04 #@! TD.AperFunction*
D22*
X152427259Y-108667525D02*
X152360615Y-108734168D01*
X152293971Y-108800812D01*
X152114365Y-108621206D01*
X152181009Y-108554562D01*
X152247653Y-108487919D01*
X152427259Y-108667525D01*
G04 #@! TA.AperFunction,Conductor*
D21*
G36*
X152427259Y-108667525D02*
G01*
X152360615Y-108734168D01*
X152293971Y-108800812D01*
X152114365Y-108621206D01*
X152181009Y-108554562D01*
X152247653Y-108487919D01*
X152427259Y-108667525D01*
G37*
G04 #@! TD.AperFunction*
D22*
X149975973Y-107030186D02*
X150003331Y-107120371D01*
X150047757Y-107203487D01*
X150107545Y-107276338D01*
X150390388Y-107559181D01*
X150463239Y-107618969D01*
X150546355Y-107663395D01*
X150636540Y-107690753D01*
X150730330Y-107699990D01*
X150824120Y-107690753D01*
X150914305Y-107663395D01*
X150997421Y-107618969D01*
X151070272Y-107559181D01*
X151173853Y-107455600D01*
X151752707Y-107455600D01*
X151788790Y-107491684D01*
X151788791Y-107706978D01*
X151734436Y-107734408D01*
X151651210Y-107800256D01*
X151651210Y-108024763D01*
X151426703Y-108024763D01*
X151360855Y-108107989D01*
X151304501Y-108219660D01*
X151271015Y-108340178D01*
X151261685Y-108464913D01*
X151263051Y-108476082D01*
X151213714Y-108426745D01*
X151200991Y-108411242D01*
X151139109Y-108360456D01*
X151068508Y-108322719D01*
X150991901Y-108299481D01*
X150932193Y-108293600D01*
X150932186Y-108293600D01*
X150912233Y-108291635D01*
X150892280Y-108293600D01*
X150568337Y-108293600D01*
X150437496Y-108162759D01*
X150463395Y-108114305D01*
X150490753Y-108024120D01*
X150499990Y-107930330D01*
X150490753Y-107836540D01*
X150463395Y-107746355D01*
X150418969Y-107663239D01*
X150359181Y-107590388D01*
X150076338Y-107307545D01*
X150003487Y-107247757D01*
X149920371Y-107203331D01*
X149830186Y-107175973D01*
X149782075Y-107171235D01*
X149810239Y-107156181D01*
X149872121Y-107105395D01*
X149884845Y-107089891D01*
X149973156Y-107001580D01*
X149975973Y-107030186D01*
G04 #@! TA.AperFunction,Conductor*
D21*
G36*
X149975973Y-107030186D02*
G01*
X150003331Y-107120371D01*
X150047757Y-107203487D01*
X150107545Y-107276338D01*
X150390388Y-107559181D01*
X150463239Y-107618969D01*
X150546355Y-107663395D01*
X150636540Y-107690753D01*
X150730330Y-107699990D01*
X150824120Y-107690753D01*
X150914305Y-107663395D01*
X150997421Y-107618969D01*
X151070272Y-107559181D01*
X151173853Y-107455600D01*
X151752707Y-107455600D01*
X151788790Y-107491684D01*
X151788791Y-107706978D01*
X151734436Y-107734408D01*
X151651210Y-107800256D01*
X151651210Y-108024763D01*
X151426703Y-108024763D01*
X151360855Y-108107989D01*
X151304501Y-108219660D01*
X151271015Y-108340178D01*
X151261685Y-108464913D01*
X151263051Y-108476082D01*
X151213714Y-108426745D01*
X151200991Y-108411242D01*
X151139109Y-108360456D01*
X151068508Y-108322719D01*
X150991901Y-108299481D01*
X150932193Y-108293600D01*
X150932186Y-108293600D01*
X150912233Y-108291635D01*
X150892280Y-108293600D01*
X150568337Y-108293600D01*
X150437496Y-108162759D01*
X150463395Y-108114305D01*
X150490753Y-108024120D01*
X150499990Y-107930330D01*
X150490753Y-107836540D01*
X150463395Y-107746355D01*
X150418969Y-107663239D01*
X150359181Y-107590388D01*
X150076338Y-107307545D01*
X150003487Y-107247757D01*
X149920371Y-107203331D01*
X149830186Y-107175973D01*
X149782075Y-107171235D01*
X149810239Y-107156181D01*
X149872121Y-107105395D01*
X149884845Y-107089891D01*
X149973156Y-107001580D01*
X149975973Y-107030186D01*
G37*
G04 #@! TD.AperFunction*
D22*
X160760498Y-102100820D02*
X160724188Y-102220518D01*
X160711928Y-102345000D01*
X160715000Y-102384250D01*
X160873748Y-102542998D01*
X160715000Y-102542998D01*
X160715000Y-102637902D01*
X160585750Y-102640000D01*
X160427000Y-102798750D01*
X160427000Y-103548000D01*
X160447000Y-103548000D01*
X160447000Y-103802000D01*
X160427000Y-103802000D01*
X160427000Y-103822000D01*
X160173000Y-103822000D01*
X160173000Y-103802000D01*
X160153000Y-103802000D01*
X160153000Y-103548000D01*
X160173000Y-103548000D01*
X160173000Y-102798750D01*
X160014250Y-102640000D01*
X159825000Y-102636928D01*
X159700518Y-102649188D01*
X159580820Y-102685498D01*
X159470506Y-102744463D01*
X159373815Y-102823815D01*
X159294463Y-102920506D01*
X159238763Y-103024712D01*
X159168790Y-103003486D01*
X159075000Y-102994249D01*
X158855600Y-102994249D01*
X158855600Y-102947293D01*
X159727294Y-102075600D01*
X160773979Y-102075600D01*
X160760498Y-102100820D01*
G04 #@! TA.AperFunction,Conductor*
D21*
G36*
X160760498Y-102100820D02*
G01*
X160724188Y-102220518D01*
X160711928Y-102345000D01*
X160715000Y-102384250D01*
X160873748Y-102542998D01*
X160715000Y-102542998D01*
X160715000Y-102637902D01*
X160585750Y-102640000D01*
X160427000Y-102798750D01*
X160427000Y-103548000D01*
X160447000Y-103548000D01*
X160447000Y-103802000D01*
X160427000Y-103802000D01*
X160427000Y-103822000D01*
X160173000Y-103822000D01*
X160173000Y-103802000D01*
X160153000Y-103802000D01*
X160153000Y-103548000D01*
X160173000Y-103548000D01*
X160173000Y-102798750D01*
X160014250Y-102640000D01*
X159825000Y-102636928D01*
X159700518Y-102649188D01*
X159580820Y-102685498D01*
X159470506Y-102744463D01*
X159373815Y-102823815D01*
X159294463Y-102920506D01*
X159238763Y-103024712D01*
X159168790Y-103003486D01*
X159075000Y-102994249D01*
X158855600Y-102994249D01*
X158855600Y-102947293D01*
X159727294Y-102075600D01*
X160773979Y-102075600D01*
X160760498Y-102100820D01*
G37*
G04 #@! TD.AperFunction*
D22*
X162007000Y-102543000D02*
X162027000Y-102543000D01*
X162027000Y-102797000D01*
X162007000Y-102797000D01*
X162007000Y-102817000D01*
X161753000Y-102817000D01*
X161753000Y-102797000D01*
X161733000Y-102797000D01*
X161733000Y-102543000D01*
X161753000Y-102543000D01*
X161753000Y-102523000D01*
X162007000Y-102523000D01*
X162007000Y-102543000D01*
G04 #@! TA.AperFunction,Conductor*
D21*
G36*
X162007000Y-102543000D02*
G01*
X162027000Y-102543000D01*
X162027000Y-102797000D01*
X162007000Y-102797000D01*
X162007000Y-102817000D01*
X161753000Y-102817000D01*
X161753000Y-102797000D01*
X161733000Y-102797000D01*
X161733000Y-102543000D01*
X161753000Y-102543000D01*
X161753000Y-102523000D01*
X162007000Y-102523000D01*
X162007000Y-102543000D01*
G37*
G04 #@! TD.AperFunction*
M02*
