M48
; DRILL file {KiCad (5.1.8)-1} date 05/02/21 00:16:03
; FORMAT={-:-/ absolute / inch / decimal}
; #@! TF.CreationDate,2021-05-02T00:16:03-04:00
; #@! TF.GenerationSoftware,Kicad,Pcbnew,(5.1.8)-1
; #@! TF.FileFunction,Plated,1,2,PTH
FMAT,2
INCH
T1C0.0130
%
G90
G05
T1
X5.8543Y-4.1378
X5.8898Y-4.4843
X5.9016Y-4.0866
X5.9094Y-4.6614
X5.9606Y-4.2441
X6.0039Y-4.4961
X6.0276Y-4.7087
X6.0669Y-4.0079
X6.0709Y-4.1181
X6.1102Y-4.7047
X6.1299Y-4.4961
X6.2165Y-4.7126
X6.2362Y-4.248
X6.2441Y-4.4724
X6.3031Y-4.0394
X6.3465Y-4.3858
X6.4016Y-4.1929
X6.4213Y-3.6339
X6.4213Y-3.752
X6.4724Y-3.6339
X6.4882Y-3.8071
X6.5Y-4.4843
X6.5039Y-4.3543
X6.5197Y-3.5748
X6.8504Y-4.4882
T0
M30
