G04 #@! TF.GenerationSoftware,KiCad,Pcbnew,(5.1.8)-1*
G04 #@! TF.CreationDate,2021-05-02T00:16:01-04:00*
G04 #@! TF.ProjectId,CryptoRosette,43727970-746f-4526-9f73-657474652e6b,1*
G04 #@! TF.SameCoordinates,Original*
G04 #@! TF.FileFunction,Paste,Bot*
G04 #@! TF.FilePolarity,Positive*
%FSLAX46Y46*%
G04 Gerber Fmt 4.6, Leading zero omitted, Abs format (unit mm)*
G04 Created by KiCad (PCBNEW (5.1.8)-1) date 2021-05-02 00:16:01*
%MOMM*%
%LPD*%
G01*
G04 APERTURE LIST*
%ADD10R,1.700000X1.000000*%
%ADD11R,1.060000X0.650000*%
%ADD12R,0.750000X0.300000*%
%ADD13R,0.500000X0.600000*%
%ADD14R,0.800000X0.800000*%
%ADD15R,0.400000X0.800000*%
%ADD16R,0.600000X0.800000*%
%ADD17R,0.750000X0.800000*%
G04 APERTURE END LIST*
G36*
G01*
X150306066Y-106794975D02*
X150694975Y-106406066D01*
G75*
G02*
X150977817Y-106406066I141421J-141421D01*
G01*
X151260660Y-106688909D01*
G75*
G02*
X151260660Y-106971751I-141421J-141421D01*
G01*
X150871751Y-107360660D01*
G75*
G02*
X150588909Y-107360660I-141421J141421D01*
G01*
X150306066Y-107077817D01*
G75*
G02*
X150306066Y-106794975I141421J141421D01*
G01*
G37*
G36*
G01*
X149139340Y-105628249D02*
X149528249Y-105239340D01*
G75*
G02*
X149811091Y-105239340I141421J-141421D01*
G01*
X150093934Y-105522183D01*
G75*
G02*
X150093934Y-105805025I-141421J-141421D01*
G01*
X149705025Y-106193934D01*
G75*
G02*
X149422183Y-106193934I-141421J141421D01*
G01*
X149139340Y-105911091D01*
G75*
G02*
X149139340Y-105628249I141421J141421D01*
G01*
G37*
G36*
G01*
X152360660Y-105871751D02*
X151971751Y-106260660D01*
G75*
G02*
X151688909Y-106260660I-141421J141421D01*
G01*
X151406066Y-105977817D01*
G75*
G02*
X151406066Y-105694975I141421J141421D01*
G01*
X151794975Y-105306066D01*
G75*
G02*
X152077817Y-105306066I141421J-141421D01*
G01*
X152360660Y-105588909D01*
G75*
G02*
X152360660Y-105871751I-141421J-141421D01*
G01*
G37*
G36*
G01*
X151193934Y-104705025D02*
X150805025Y-105093934D01*
G75*
G02*
X150522183Y-105093934I-141421J141421D01*
G01*
X150239340Y-104811091D01*
G75*
G02*
X150239340Y-104528249I141421J141421D01*
G01*
X150628249Y-104139340D01*
G75*
G02*
X150911091Y-104139340I141421J-141421D01*
G01*
X151193934Y-104422183D01*
G75*
G02*
X151193934Y-104705025I-141421J-141421D01*
G01*
G37*
G36*
G01*
X158105025Y-112406066D02*
X158493934Y-112794975D01*
G75*
G02*
X158493934Y-113077817I-141421J-141421D01*
G01*
X158211091Y-113360660D01*
G75*
G02*
X157928249Y-113360660I-141421J141421D01*
G01*
X157539340Y-112971751D01*
G75*
G02*
X157539340Y-112688909I141421J141421D01*
G01*
X157822183Y-112406066D01*
G75*
G02*
X158105025Y-112406066I141421J-141421D01*
G01*
G37*
G36*
G01*
X159271751Y-111239340D02*
X159660660Y-111628249D01*
G75*
G02*
X159660660Y-111911091I-141421J-141421D01*
G01*
X159377817Y-112193934D01*
G75*
G02*
X159094975Y-112193934I-141421J141421D01*
G01*
X158706066Y-111805025D01*
G75*
G02*
X158706066Y-111522183I141421J141421D01*
G01*
X158988909Y-111239340D01*
G75*
G02*
X159271751Y-111239340I141421J-141421D01*
G01*
G37*
G36*
G01*
X160575000Y-104075000D02*
X160025000Y-104075000D01*
G75*
G02*
X159825000Y-103875000I0J200000D01*
G01*
X159825000Y-103475000D01*
G75*
G02*
X160025000Y-103275000I200000J0D01*
G01*
X160575000Y-103275000D01*
G75*
G02*
X160775000Y-103475000I0J-200000D01*
G01*
X160775000Y-103875000D01*
G75*
G02*
X160575000Y-104075000I-200000J0D01*
G01*
G37*
G36*
G01*
X160575000Y-105725000D02*
X160025000Y-105725000D01*
G75*
G02*
X159825000Y-105525000I0J200000D01*
G01*
X159825000Y-105125000D01*
G75*
G02*
X160025000Y-104925000I200000J0D01*
G01*
X160575000Y-104925000D01*
G75*
G02*
X160775000Y-105125000I0J-200000D01*
G01*
X160775000Y-105525000D01*
G75*
G02*
X160575000Y-105725000I-200000J0D01*
G01*
G37*
G36*
G01*
X164625000Y-105025000D02*
X164625000Y-105575000D01*
G75*
G02*
X164425000Y-105775000I-200000J0D01*
G01*
X164025000Y-105775000D01*
G75*
G02*
X163825000Y-105575000I0J200000D01*
G01*
X163825000Y-105025000D01*
G75*
G02*
X164025000Y-104825000I200000J0D01*
G01*
X164425000Y-104825000D01*
G75*
G02*
X164625000Y-105025000I0J-200000D01*
G01*
G37*
G36*
G01*
X162975000Y-105025000D02*
X162975000Y-105575000D01*
G75*
G02*
X162775000Y-105775000I-200000J0D01*
G01*
X162375000Y-105775000D01*
G75*
G02*
X162175000Y-105575000I0J200000D01*
G01*
X162175000Y-105025000D01*
G75*
G02*
X162375000Y-104825000I200000J0D01*
G01*
X162775000Y-104825000D01*
G75*
G02*
X162975000Y-105025000I0J-200000D01*
G01*
G37*
G36*
G01*
X158525000Y-103275000D02*
X159075000Y-103275000D01*
G75*
G02*
X159275000Y-103475000I0J-200000D01*
G01*
X159275000Y-103875000D01*
G75*
G02*
X159075000Y-104075000I-200000J0D01*
G01*
X158525000Y-104075000D01*
G75*
G02*
X158325000Y-103875000I0J200000D01*
G01*
X158325000Y-103475000D01*
G75*
G02*
X158525000Y-103275000I200000J0D01*
G01*
G37*
G36*
G01*
X158525000Y-104925000D02*
X159075000Y-104925000D01*
G75*
G02*
X159275000Y-105125000I0J-200000D01*
G01*
X159275000Y-105525000D01*
G75*
G02*
X159075000Y-105725000I-200000J0D01*
G01*
X158525000Y-105725000D01*
G75*
G02*
X158325000Y-105525000I0J200000D01*
G01*
X158325000Y-105125000D01*
G75*
G02*
X158525000Y-104925000I200000J0D01*
G01*
G37*
G36*
G01*
X150160660Y-108071751D02*
X149771751Y-108460660D01*
G75*
G02*
X149488909Y-108460660I-141421J141421D01*
G01*
X149206066Y-108177817D01*
G75*
G02*
X149206066Y-107894975I141421J141421D01*
G01*
X149594975Y-107506066D01*
G75*
G02*
X149877817Y-107506066I141421J-141421D01*
G01*
X150160660Y-107788909D01*
G75*
G02*
X150160660Y-108071751I-141421J-141421D01*
G01*
G37*
G36*
G01*
X148993934Y-106905025D02*
X148605025Y-107293934D01*
G75*
G02*
X148322183Y-107293934I-141421J141421D01*
G01*
X148039340Y-107011091D01*
G75*
G02*
X148039340Y-106728249I141421J141421D01*
G01*
X148428249Y-106339340D01*
G75*
G02*
X148711091Y-106339340I141421J-141421D01*
G01*
X148993934Y-106622183D01*
G75*
G02*
X148993934Y-106905025I-141421J-141421D01*
G01*
G37*
D10*
X147750000Y-109700000D03*
X141450000Y-109700000D03*
X147750000Y-113500000D03*
X141450000Y-113500000D03*
G36*
G01*
X154913623Y-106903115D02*
X155002012Y-106991504D01*
G75*
G02*
X155002012Y-107079892I-44194J-44194D01*
G01*
X154524715Y-107557189D01*
G75*
G02*
X154436327Y-107557189I-44194J44194D01*
G01*
X154347938Y-107468800D01*
G75*
G02*
X154347938Y-107380412I44194J44194D01*
G01*
X154825235Y-106903115D01*
G75*
G02*
X154913623Y-106903115I44194J-44194D01*
G01*
G37*
G36*
G01*
X155267176Y-107256668D02*
X155355565Y-107345057D01*
G75*
G02*
X155355565Y-107433445I-44194J-44194D01*
G01*
X154878268Y-107910742D01*
G75*
G02*
X154789880Y-107910742I-44194J44194D01*
G01*
X154701491Y-107822353D01*
G75*
G02*
X154701491Y-107733965I44194J44194D01*
G01*
X155178788Y-107256668D01*
G75*
G02*
X155267176Y-107256668I44194J-44194D01*
G01*
G37*
G36*
G01*
X155620730Y-107610221D02*
X155709119Y-107698610D01*
G75*
G02*
X155709119Y-107786998I-44194J-44194D01*
G01*
X155231822Y-108264295D01*
G75*
G02*
X155143434Y-108264295I-44194J44194D01*
G01*
X155055045Y-108175906D01*
G75*
G02*
X155055045Y-108087518I44194J44194D01*
G01*
X155532342Y-107610221D01*
G75*
G02*
X155620730Y-107610221I44194J-44194D01*
G01*
G37*
G36*
G01*
X155974283Y-107963775D02*
X156062672Y-108052164D01*
G75*
G02*
X156062672Y-108140552I-44194J-44194D01*
G01*
X155585375Y-108617849D01*
G75*
G02*
X155496987Y-108617849I-44194J44194D01*
G01*
X155408598Y-108529460D01*
G75*
G02*
X155408598Y-108441072I44194J44194D01*
G01*
X155885895Y-107963775D01*
G75*
G02*
X155974283Y-107963775I44194J-44194D01*
G01*
G37*
G36*
G01*
X156327836Y-108317328D02*
X156416225Y-108405717D01*
G75*
G02*
X156416225Y-108494105I-44194J-44194D01*
G01*
X155938928Y-108971402D01*
G75*
G02*
X155850540Y-108971402I-44194J44194D01*
G01*
X155762151Y-108883013D01*
G75*
G02*
X155762151Y-108794625I44194J44194D01*
G01*
X156239448Y-108317328D01*
G75*
G02*
X156327836Y-108317328I44194J-44194D01*
G01*
G37*
G36*
G01*
X156681390Y-108670881D02*
X156769779Y-108759270D01*
G75*
G02*
X156769779Y-108847658I-44194J-44194D01*
G01*
X156292482Y-109324955D01*
G75*
G02*
X156204094Y-109324955I-44194J44194D01*
G01*
X156115705Y-109236566D01*
G75*
G02*
X156115705Y-109148178I44194J44194D01*
G01*
X156593002Y-108670881D01*
G75*
G02*
X156681390Y-108670881I44194J-44194D01*
G01*
G37*
G36*
G01*
X157034943Y-109024435D02*
X157123332Y-109112824D01*
G75*
G02*
X157123332Y-109201212I-44194J-44194D01*
G01*
X156646035Y-109678509D01*
G75*
G02*
X156557647Y-109678509I-44194J44194D01*
G01*
X156469258Y-109590120D01*
G75*
G02*
X156469258Y-109501732I44194J44194D01*
G01*
X156946555Y-109024435D01*
G75*
G02*
X157034943Y-109024435I44194J-44194D01*
G01*
G37*
G36*
G01*
X157388496Y-109377988D02*
X157476885Y-109466377D01*
G75*
G02*
X157476885Y-109554765I-44194J-44194D01*
G01*
X156999588Y-110032062D01*
G75*
G02*
X156911200Y-110032062I-44194J44194D01*
G01*
X156822811Y-109943673D01*
G75*
G02*
X156822811Y-109855285I44194J44194D01*
G01*
X157300108Y-109377988D01*
G75*
G02*
X157388496Y-109377988I44194J-44194D01*
G01*
G37*
G36*
G01*
X156999588Y-110367938D02*
X157476885Y-110845235D01*
G75*
G02*
X157476885Y-110933623I-44194J-44194D01*
G01*
X157388496Y-111022012D01*
G75*
G02*
X157300108Y-111022012I-44194J44194D01*
G01*
X156822811Y-110544715D01*
G75*
G02*
X156822811Y-110456327I44194J44194D01*
G01*
X156911200Y-110367938D01*
G75*
G02*
X156999588Y-110367938I44194J-44194D01*
G01*
G37*
G36*
G01*
X156646035Y-110721491D02*
X157123332Y-111198788D01*
G75*
G02*
X157123332Y-111287176I-44194J-44194D01*
G01*
X157034943Y-111375565D01*
G75*
G02*
X156946555Y-111375565I-44194J44194D01*
G01*
X156469258Y-110898268D01*
G75*
G02*
X156469258Y-110809880I44194J44194D01*
G01*
X156557647Y-110721491D01*
G75*
G02*
X156646035Y-110721491I44194J-44194D01*
G01*
G37*
G36*
G01*
X156292482Y-111075045D02*
X156769779Y-111552342D01*
G75*
G02*
X156769779Y-111640730I-44194J-44194D01*
G01*
X156681390Y-111729119D01*
G75*
G02*
X156593002Y-111729119I-44194J44194D01*
G01*
X156115705Y-111251822D01*
G75*
G02*
X156115705Y-111163434I44194J44194D01*
G01*
X156204094Y-111075045D01*
G75*
G02*
X156292482Y-111075045I44194J-44194D01*
G01*
G37*
G36*
G01*
X155938928Y-111428598D02*
X156416225Y-111905895D01*
G75*
G02*
X156416225Y-111994283I-44194J-44194D01*
G01*
X156327836Y-112082672D01*
G75*
G02*
X156239448Y-112082672I-44194J44194D01*
G01*
X155762151Y-111605375D01*
G75*
G02*
X155762151Y-111516987I44194J44194D01*
G01*
X155850540Y-111428598D01*
G75*
G02*
X155938928Y-111428598I44194J-44194D01*
G01*
G37*
G36*
G01*
X155585375Y-111782151D02*
X156062672Y-112259448D01*
G75*
G02*
X156062672Y-112347836I-44194J-44194D01*
G01*
X155974283Y-112436225D01*
G75*
G02*
X155885895Y-112436225I-44194J44194D01*
G01*
X155408598Y-111958928D01*
G75*
G02*
X155408598Y-111870540I44194J44194D01*
G01*
X155496987Y-111782151D01*
G75*
G02*
X155585375Y-111782151I44194J-44194D01*
G01*
G37*
G36*
G01*
X155231822Y-112135705D02*
X155709119Y-112613002D01*
G75*
G02*
X155709119Y-112701390I-44194J-44194D01*
G01*
X155620730Y-112789779D01*
G75*
G02*
X155532342Y-112789779I-44194J44194D01*
G01*
X155055045Y-112312482D01*
G75*
G02*
X155055045Y-112224094I44194J44194D01*
G01*
X155143434Y-112135705D01*
G75*
G02*
X155231822Y-112135705I44194J-44194D01*
G01*
G37*
G36*
G01*
X154878268Y-112489258D02*
X155355565Y-112966555D01*
G75*
G02*
X155355565Y-113054943I-44194J-44194D01*
G01*
X155267176Y-113143332D01*
G75*
G02*
X155178788Y-113143332I-44194J44194D01*
G01*
X154701491Y-112666035D01*
G75*
G02*
X154701491Y-112577647I44194J44194D01*
G01*
X154789880Y-112489258D01*
G75*
G02*
X154878268Y-112489258I44194J-44194D01*
G01*
G37*
G36*
G01*
X154524715Y-112842811D02*
X155002012Y-113320108D01*
G75*
G02*
X155002012Y-113408496I-44194J-44194D01*
G01*
X154913623Y-113496885D01*
G75*
G02*
X154825235Y-113496885I-44194J44194D01*
G01*
X154347938Y-113019588D01*
G75*
G02*
X154347938Y-112931200I44194J44194D01*
G01*
X154436327Y-112842811D01*
G75*
G02*
X154524715Y-112842811I44194J-44194D01*
G01*
G37*
G36*
G01*
X153923673Y-112842811D02*
X154012062Y-112931200D01*
G75*
G02*
X154012062Y-113019588I-44194J-44194D01*
G01*
X153534765Y-113496885D01*
G75*
G02*
X153446377Y-113496885I-44194J44194D01*
G01*
X153357988Y-113408496D01*
G75*
G02*
X153357988Y-113320108I44194J44194D01*
G01*
X153835285Y-112842811D01*
G75*
G02*
X153923673Y-112842811I44194J-44194D01*
G01*
G37*
G36*
G01*
X153570120Y-112489258D02*
X153658509Y-112577647D01*
G75*
G02*
X153658509Y-112666035I-44194J-44194D01*
G01*
X153181212Y-113143332D01*
G75*
G02*
X153092824Y-113143332I-44194J44194D01*
G01*
X153004435Y-113054943D01*
G75*
G02*
X153004435Y-112966555I44194J44194D01*
G01*
X153481732Y-112489258D01*
G75*
G02*
X153570120Y-112489258I44194J-44194D01*
G01*
G37*
G36*
G01*
X153216566Y-112135705D02*
X153304955Y-112224094D01*
G75*
G02*
X153304955Y-112312482I-44194J-44194D01*
G01*
X152827658Y-112789779D01*
G75*
G02*
X152739270Y-112789779I-44194J44194D01*
G01*
X152650881Y-112701390D01*
G75*
G02*
X152650881Y-112613002I44194J44194D01*
G01*
X153128178Y-112135705D01*
G75*
G02*
X153216566Y-112135705I44194J-44194D01*
G01*
G37*
G36*
G01*
X152863013Y-111782151D02*
X152951402Y-111870540D01*
G75*
G02*
X152951402Y-111958928I-44194J-44194D01*
G01*
X152474105Y-112436225D01*
G75*
G02*
X152385717Y-112436225I-44194J44194D01*
G01*
X152297328Y-112347836D01*
G75*
G02*
X152297328Y-112259448I44194J44194D01*
G01*
X152774625Y-111782151D01*
G75*
G02*
X152863013Y-111782151I44194J-44194D01*
G01*
G37*
G36*
G01*
X152509460Y-111428598D02*
X152597849Y-111516987D01*
G75*
G02*
X152597849Y-111605375I-44194J-44194D01*
G01*
X152120552Y-112082672D01*
G75*
G02*
X152032164Y-112082672I-44194J44194D01*
G01*
X151943775Y-111994283D01*
G75*
G02*
X151943775Y-111905895I44194J44194D01*
G01*
X152421072Y-111428598D01*
G75*
G02*
X152509460Y-111428598I44194J-44194D01*
G01*
G37*
G36*
G01*
X152155906Y-111075045D02*
X152244295Y-111163434D01*
G75*
G02*
X152244295Y-111251822I-44194J-44194D01*
G01*
X151766998Y-111729119D01*
G75*
G02*
X151678610Y-111729119I-44194J44194D01*
G01*
X151590221Y-111640730D01*
G75*
G02*
X151590221Y-111552342I44194J44194D01*
G01*
X152067518Y-111075045D01*
G75*
G02*
X152155906Y-111075045I44194J-44194D01*
G01*
G37*
G36*
G01*
X151802353Y-110721491D02*
X151890742Y-110809880D01*
G75*
G02*
X151890742Y-110898268I-44194J-44194D01*
G01*
X151413445Y-111375565D01*
G75*
G02*
X151325057Y-111375565I-44194J44194D01*
G01*
X151236668Y-111287176D01*
G75*
G02*
X151236668Y-111198788I44194J44194D01*
G01*
X151713965Y-110721491D01*
G75*
G02*
X151802353Y-110721491I44194J-44194D01*
G01*
G37*
G36*
G01*
X151448800Y-110367938D02*
X151537189Y-110456327D01*
G75*
G02*
X151537189Y-110544715I-44194J-44194D01*
G01*
X151059892Y-111022012D01*
G75*
G02*
X150971504Y-111022012I-44194J44194D01*
G01*
X150883115Y-110933623D01*
G75*
G02*
X150883115Y-110845235I44194J44194D01*
G01*
X151360412Y-110367938D01*
G75*
G02*
X151448800Y-110367938I44194J-44194D01*
G01*
G37*
G36*
G01*
X151059892Y-109377988D02*
X151537189Y-109855285D01*
G75*
G02*
X151537189Y-109943673I-44194J-44194D01*
G01*
X151448800Y-110032062D01*
G75*
G02*
X151360412Y-110032062I-44194J44194D01*
G01*
X150883115Y-109554765D01*
G75*
G02*
X150883115Y-109466377I44194J44194D01*
G01*
X150971504Y-109377988D01*
G75*
G02*
X151059892Y-109377988I44194J-44194D01*
G01*
G37*
G36*
G01*
X151413445Y-109024435D02*
X151890742Y-109501732D01*
G75*
G02*
X151890742Y-109590120I-44194J-44194D01*
G01*
X151802353Y-109678509D01*
G75*
G02*
X151713965Y-109678509I-44194J44194D01*
G01*
X151236668Y-109201212D01*
G75*
G02*
X151236668Y-109112824I44194J44194D01*
G01*
X151325057Y-109024435D01*
G75*
G02*
X151413445Y-109024435I44194J-44194D01*
G01*
G37*
G36*
G01*
X151766998Y-108670881D02*
X152244295Y-109148178D01*
G75*
G02*
X152244295Y-109236566I-44194J-44194D01*
G01*
X152155906Y-109324955D01*
G75*
G02*
X152067518Y-109324955I-44194J44194D01*
G01*
X151590221Y-108847658D01*
G75*
G02*
X151590221Y-108759270I44194J44194D01*
G01*
X151678610Y-108670881D01*
G75*
G02*
X151766998Y-108670881I44194J-44194D01*
G01*
G37*
G36*
G01*
X152120552Y-108317328D02*
X152597849Y-108794625D01*
G75*
G02*
X152597849Y-108883013I-44194J-44194D01*
G01*
X152509460Y-108971402D01*
G75*
G02*
X152421072Y-108971402I-44194J44194D01*
G01*
X151943775Y-108494105D01*
G75*
G02*
X151943775Y-108405717I44194J44194D01*
G01*
X152032164Y-108317328D01*
G75*
G02*
X152120552Y-108317328I44194J-44194D01*
G01*
G37*
G36*
G01*
X152474105Y-107963775D02*
X152951402Y-108441072D01*
G75*
G02*
X152951402Y-108529460I-44194J-44194D01*
G01*
X152863013Y-108617849D01*
G75*
G02*
X152774625Y-108617849I-44194J44194D01*
G01*
X152297328Y-108140552D01*
G75*
G02*
X152297328Y-108052164I44194J44194D01*
G01*
X152385717Y-107963775D01*
G75*
G02*
X152474105Y-107963775I44194J-44194D01*
G01*
G37*
G36*
G01*
X152827658Y-107610221D02*
X153304955Y-108087518D01*
G75*
G02*
X153304955Y-108175906I-44194J-44194D01*
G01*
X153216566Y-108264295D01*
G75*
G02*
X153128178Y-108264295I-44194J44194D01*
G01*
X152650881Y-107786998D01*
G75*
G02*
X152650881Y-107698610I44194J44194D01*
G01*
X152739270Y-107610221D01*
G75*
G02*
X152827658Y-107610221I44194J-44194D01*
G01*
G37*
G36*
G01*
X153181212Y-107256668D02*
X153658509Y-107733965D01*
G75*
G02*
X153658509Y-107822353I-44194J-44194D01*
G01*
X153570120Y-107910742D01*
G75*
G02*
X153481732Y-107910742I-44194J44194D01*
G01*
X153004435Y-107433445D01*
G75*
G02*
X153004435Y-107345057I44194J44194D01*
G01*
X153092824Y-107256668D01*
G75*
G02*
X153181212Y-107256668I44194J-44194D01*
G01*
G37*
G36*
G01*
X153534765Y-106903115D02*
X154012062Y-107380412D01*
G75*
G02*
X154012062Y-107468800I-44194J-44194D01*
G01*
X153923673Y-107557189D01*
G75*
G02*
X153835285Y-107557189I-44194J44194D01*
G01*
X153357988Y-107079892D01*
G75*
G02*
X153357988Y-106991504I44194J44194D01*
G01*
X153446377Y-106903115D01*
G75*
G02*
X153534765Y-106903115I44194J-44194D01*
G01*
G37*
G36*
G01*
X154351473Y-107988524D02*
X154694420Y-108331471D01*
G75*
G02*
X154694420Y-108674417I-171473J-171473D01*
G01*
X154351473Y-109017364D01*
G75*
G02*
X154008527Y-109017364I-171473J171473D01*
G01*
X153665580Y-108674417D01*
G75*
G02*
X153665580Y-108331471I171473J171473D01*
G01*
X154008527Y-107988524D01*
G75*
G02*
X154351473Y-107988524I171473J-171473D01*
G01*
G37*
G36*
G01*
X155200001Y-108837052D02*
X155542948Y-109179999D01*
G75*
G02*
X155542948Y-109522945I-171473J-171473D01*
G01*
X155200001Y-109865892D01*
G75*
G02*
X154857055Y-109865892I-171473J171473D01*
G01*
X154514108Y-109522945D01*
G75*
G02*
X154514108Y-109179999I171473J171473D01*
G01*
X154857055Y-108837052D01*
G75*
G02*
X155200001Y-108837052I171473J-171473D01*
G01*
G37*
G36*
G01*
X156048529Y-109685580D02*
X156391476Y-110028527D01*
G75*
G02*
X156391476Y-110371473I-171473J-171473D01*
G01*
X156048529Y-110714420D01*
G75*
G02*
X155705583Y-110714420I-171473J171473D01*
G01*
X155362636Y-110371473D01*
G75*
G02*
X155362636Y-110028527I171473J171473D01*
G01*
X155705583Y-109685580D01*
G75*
G02*
X156048529Y-109685580I171473J-171473D01*
G01*
G37*
G36*
G01*
X153502945Y-108837052D02*
X153845892Y-109179999D01*
G75*
G02*
X153845892Y-109522945I-171473J-171473D01*
G01*
X153502945Y-109865892D01*
G75*
G02*
X153159999Y-109865892I-171473J171473D01*
G01*
X152817052Y-109522945D01*
G75*
G02*
X152817052Y-109179999I171473J171473D01*
G01*
X153159999Y-108837052D01*
G75*
G02*
X153502945Y-108837052I171473J-171473D01*
G01*
G37*
G36*
G01*
X154351473Y-109685580D02*
X154694420Y-110028527D01*
G75*
G02*
X154694420Y-110371473I-171473J-171473D01*
G01*
X154351473Y-110714420D01*
G75*
G02*
X154008527Y-110714420I-171473J171473D01*
G01*
X153665580Y-110371473D01*
G75*
G02*
X153665580Y-110028527I171473J171473D01*
G01*
X154008527Y-109685580D01*
G75*
G02*
X154351473Y-109685580I171473J-171473D01*
G01*
G37*
G36*
G01*
X155200001Y-110534108D02*
X155542948Y-110877055D01*
G75*
G02*
X155542948Y-111220001I-171473J-171473D01*
G01*
X155200001Y-111562948D01*
G75*
G02*
X154857055Y-111562948I-171473J171473D01*
G01*
X154514108Y-111220001D01*
G75*
G02*
X154514108Y-110877055I171473J171473D01*
G01*
X154857055Y-110534108D01*
G75*
G02*
X155200001Y-110534108I171473J-171473D01*
G01*
G37*
G36*
G01*
X152654417Y-109685580D02*
X152997364Y-110028527D01*
G75*
G02*
X152997364Y-110371473I-171473J-171473D01*
G01*
X152654417Y-110714420D01*
G75*
G02*
X152311471Y-110714420I-171473J171473D01*
G01*
X151968524Y-110371473D01*
G75*
G02*
X151968524Y-110028527I171473J171473D01*
G01*
X152311471Y-109685580D01*
G75*
G02*
X152654417Y-109685580I171473J-171473D01*
G01*
G37*
G36*
G01*
X153502945Y-110534108D02*
X153845892Y-110877055D01*
G75*
G02*
X153845892Y-111220001I-171473J-171473D01*
G01*
X153502945Y-111562948D01*
G75*
G02*
X153159999Y-111562948I-171473J171473D01*
G01*
X152817052Y-111220001D01*
G75*
G02*
X152817052Y-110877055I171473J171473D01*
G01*
X153159999Y-110534108D01*
G75*
G02*
X153502945Y-110534108I171473J-171473D01*
G01*
G37*
G36*
G01*
X154351473Y-111382636D02*
X154694420Y-111725583D01*
G75*
G02*
X154694420Y-112068529I-171473J-171473D01*
G01*
X154351473Y-112411476D01*
G75*
G02*
X154008527Y-112411476I-171473J171473D01*
G01*
X153665580Y-112068529D01*
G75*
G02*
X153665580Y-111725583I171473J171473D01*
G01*
X154008527Y-111382636D01*
G75*
G02*
X154351473Y-111382636I171473J-171473D01*
G01*
G37*
D11*
X161880000Y-103620000D03*
X161880000Y-102670000D03*
X161880000Y-101720000D03*
X164080000Y-101720000D03*
X164080000Y-103620000D03*
G36*
G01*
X166975000Y-112025000D02*
X166425000Y-112025000D01*
G75*
G02*
X166225000Y-111825000I0J200000D01*
G01*
X166225000Y-111425000D01*
G75*
G02*
X166425000Y-111225000I200000J0D01*
G01*
X166975000Y-111225000D01*
G75*
G02*
X167175000Y-111425000I0J-200000D01*
G01*
X167175000Y-111825000D01*
G75*
G02*
X166975000Y-112025000I-200000J0D01*
G01*
G37*
G36*
G01*
X166975000Y-110375000D02*
X166425000Y-110375000D01*
G75*
G02*
X166225000Y-110175000I0J200000D01*
G01*
X166225000Y-109775000D01*
G75*
G02*
X166425000Y-109575000I200000J0D01*
G01*
X166975000Y-109575000D01*
G75*
G02*
X167175000Y-109775000I0J-200000D01*
G01*
X167175000Y-110175000D01*
G75*
G02*
X166975000Y-110375000I-200000J0D01*
G01*
G37*
G36*
G01*
X166425000Y-114225000D02*
X166975000Y-114225000D01*
G75*
G02*
X167175000Y-114425000I0J-200000D01*
G01*
X167175000Y-114825000D01*
G75*
G02*
X166975000Y-115025000I-200000J0D01*
G01*
X166425000Y-115025000D01*
G75*
G02*
X166225000Y-114825000I0J200000D01*
G01*
X166225000Y-114425000D01*
G75*
G02*
X166425000Y-114225000I200000J0D01*
G01*
G37*
G36*
G01*
X166425000Y-112575000D02*
X166975000Y-112575000D01*
G75*
G02*
X167175000Y-112775000I0J-200000D01*
G01*
X167175000Y-113175000D01*
G75*
G02*
X166975000Y-113375000I-200000J0D01*
G01*
X166425000Y-113375000D01*
G75*
G02*
X166225000Y-113175000I0J200000D01*
G01*
X166225000Y-112775000D01*
G75*
G02*
X166425000Y-112575000I200000J0D01*
G01*
G37*
D12*
X162350000Y-113050000D03*
X162350000Y-112550000D03*
X162350000Y-112050000D03*
X162350000Y-111550000D03*
X165250000Y-111550000D03*
X165250000Y-112050000D03*
X165250000Y-112550000D03*
X165250000Y-113050000D03*
D13*
X163475000Y-112675000D03*
X163475000Y-111925000D03*
X164125000Y-112675000D03*
X164125000Y-111925000D03*
D14*
X152746333Y-89560000D03*
D15*
X153726333Y-89560000D03*
D16*
X154606333Y-89560000D03*
D17*
X155731333Y-89560000D03*
X152721333Y-62240000D03*
D16*
X153846333Y-62240000D03*
D15*
X154726333Y-62240000D03*
D14*
X155706333Y-62240000D03*
M02*
