<?xml version="1.0" encoding="UTF-8" standalone="no"?>
<svg
   xmlns:dc="http://purl.org/dc/elements/1.1/"
   xmlns:cc="http://creativecommons.org/ns#"
   xmlns:rdf="http://www.w3.org/1999/02/22-rdf-syntax-ns#"
   xmlns:svg="http://www.w3.org/2000/svg"
   xmlns="http://www.w3.org/2000/svg"
   xmlns:sodipodi="http://sodipodi.sourceforge.net/DTD/sodipodi-0.dtd"
   xmlns:inkscape="http://www.inkscape.org/namespaces/inkscape"
   width="210mm"
   height="297mm"
   viewBox="0 0 210 297"
   version="1.1"
   id="svg8"
   inkscape:version="1.0.1 (3bc2e813f5, 2020-09-07)"
   sodipodi:docname="board-mockup.svg">
  <defs
     id="defs2">
        
    
            
            
            
            
            
            
            
        
                
            
                
            
                
            
                
            
        
    
            
            
            
            
            
            
            
        
                
            
                
            
                
            
                
            <pattern
   id="EMFhbasepattern"
   patternUnits="userSpaceOnUse"
   width="6"
   height="6"
   x="0"
   y="0" />
</defs>
  <sodipodi:namedview
     id="base"
     pagecolor="#ffffff"
     bordercolor="#666666"
     borderopacity="1.0"
     inkscape:pageopacity="0.0"
     inkscape:pageshadow="2"
     inkscape:zoom="1.1051656"
     inkscape:cx="476.48693"
     inkscape:cy="677.9174"
     inkscape:document-units="mm"
     inkscape:current-layer="layer2"
     inkscape:document-rotation="0"
     showgrid="false"
     inkscape:snap-nodes="false"
     inkscape:snap-others="false"
     inkscape:window-width="1252"
     inkscape:window-height="1010"
     inkscape:window-x="-5"
     inkscape:window-y="0"
     inkscape:window-maximized="0" />
  <metadata
     id="metadata5">
    <rdf:RDF>
      <cc:Work
         rdf:about="">
        <dc:format>image/svg+xml</dc:format>
        <dc:type
           rdf:resource="http://purl.org/dc/dcmitype/StillImage" />
        <dc:title></dc:title>
      </cc:Work>
    </rdf:RDF>
  </metadata>
  <g
     inkscape:label="Layer 1"
     inkscape:groupmode="layer"
     id="layer1"
     style="display:inline" />
  <g
     inkscape:groupmode="layer"
     id="layer3"
     inkscape:label="Board"
     style="display:inline">
    <circle
       style="opacity:0.922449;fill:#e6e6e6;fill-opacity:1;stroke:none;stroke-width:2;stroke-linecap:round;stroke-linejoin:round;stroke-miterlimit:1.41421;stroke-dasharray:none;stroke-opacity:1;paint-order:stroke fill markers"
       id="path3982"
       cx="121.15031"
       cy="180.91411"
       r="16.796999" />
    <path
       id="path1265"
       style="color:#000000;font-style:normal;font-variant:normal;font-weight:normal;font-stretch:normal;font-size:medium;line-height:normal;font-family:sans-serif;font-variant-ligatures:normal;font-variant-position:normal;font-variant-caps:normal;font-variant-numeric:normal;font-variant-alternates:normal;font-variant-east-asian:normal;font-feature-settings:normal;font-variation-settings:normal;text-indent:0;text-align:start;text-decoration:none;text-decoration-line:none;text-decoration-style:solid;text-decoration-color:#000000;letter-spacing:normal;word-spacing:normal;text-transform:none;writing-mode:lr-tb;direction:ltr;text-orientation:mixed;dominant-baseline:auto;baseline-shift:baseline;text-anchor:start;white-space:normal;shape-padding:0;shape-margin:0;inline-size:0;clip-rule:evenodd;display:inline;overflow:visible;visibility:visible;opacity:1;isolation:auto;mix-blend-mode:normal;color-interpolation:sRGB;color-interpolation-filters:linearRGB;solid-color:#000000;solid-opacity:1;vector-effect:none;fill:#333333;fill-opacity:1;fill-rule:evenodd;stroke:none;stroke-width:7.55906;stroke-linecap:round;stroke-linejoin:round;stroke-miterlimit:1.41421;stroke-dasharray:none;stroke-dashoffset:0;stroke-opacity:1;color-rendering:auto;image-rendering:auto;shape-rendering:auto;text-rendering:auto;enable-background:accumulate;stop-color:#000000;stop-opacity:1"
       d="m 457.89062,620.28516 c -34.98873,0 -63.48437,28.49555 -63.48437,63.48437 0,26.95624 16.92166,50.03813 40.6875,59.22266 v 52.63086 h 45.59961 v -52.63282 c 23.76282,-9.18605 40.68164,-32.26672 40.68164,-59.2207 0,-34.98871 -28.49563,-63.48437 -63.48438,-63.48437 z"
       transform="scale(0.26458333)" />
    <path
       id="path1265-8"
       style="color:#000000;font-style:normal;font-variant:normal;font-weight:normal;font-stretch:normal;font-size:medium;line-height:normal;font-family:sans-serif;font-variant-ligatures:normal;font-variant-position:normal;font-variant-caps:normal;font-variant-numeric:normal;font-variant-alternates:normal;font-variant-east-asian:normal;font-feature-settings:normal;font-variation-settings:normal;text-indent:0;text-align:start;text-decoration:none;text-decoration-line:none;text-decoration-style:solid;text-decoration-color:#000000;letter-spacing:normal;word-spacing:normal;text-transform:none;writing-mode:lr-tb;direction:ltr;text-orientation:mixed;dominant-baseline:auto;baseline-shift:baseline;text-anchor:start;white-space:normal;shape-padding:0;shape-margin:0;inline-size:0;clip-rule:evenodd;display:inline;overflow:visible;visibility:visible;opacity:1;isolation:auto;mix-blend-mode:normal;color-interpolation:sRGB;color-interpolation-filters:linearRGB;solid-color:#000000;solid-opacity:1;vector-effect:none;fill:#333333;fill-opacity:1;fill-rule:evenodd;stroke:none;stroke-width:2;stroke-linecap:round;stroke-linejoin:round;stroke-miterlimit:1.41421;stroke-dasharray:none;stroke-dashoffset:0;stroke-opacity:1;color-rendering:auto;image-rendering:auto;shape-rendering:auto;text-rendering:auto;enable-background:accumulate;stop-color:#000000;stop-opacity:1"
       d="m 90.906392,102.58349 c -9.25743,0 -16.79691,7.53945 -16.79691,16.79691 0,7.13217 4.47719,13.23925 10.76524,15.66933 v 13.92524 h 12.06489 v -13.92576 c 6.287248,-2.43048 10.763688,-8.53724 10.763688,-15.66881 0,-9.25743 -7.53947,-16.79691 -16.796908,-16.79691 z" />
  </g>
  <g
     inkscape:groupmode="layer"
     id="layer2"
     inkscape:label="Lines"
     style="display:inline">
    <path
       id="path3949"
       style="fill:#000000;stroke-width:0.999992"
       d="m 120.5477,166.3821 c 0.11373,0.0301 0.22427,0.0683 0.33336,0.11834 -0.10919,-0.0501 -0.21952,-0.0882 -0.33336,-0.11834 z m 0.33387,0.11884 c 0.0995,0.0457 0.19917,0.10253 0.30012,0.16669 -0.10087,-0.0641 -0.20065,-0.12097 -0.30012,-0.16669 z m -1.01419,0.14654 c -0.24464,3.9e-4 -0.48993,0.0202 -0.59068,0.0584 -0.39209,0.14821 -0.64818,0.30991 -0.93563,0.5917 -0.17097,0.16761 -0.33086,0.34216 -0.35551,0.38774 -0.0409,0.0756 -0.062,0.078 -0.23567,0.0286 -0.10475,-0.0297 -0.36125,-0.0853 -0.57004,-0.12387 -0.51343,-0.0951 -0.95026,-0.0324 -1.5117,0.21754 -0.76261,0.33946 -1.41345,1.0875 -1.6789,1.93017 -0.0463,0.14685 -0.14672,0.304 -0.30213,0.47234 -0.41883,0.45362 -0.67293,1.11112 -0.67479,1.74586 -9.5e-4,0.34785 0.12255,0.88815 0.25784,1.129 0.10361,0.18447 0.0659,0.28553 -0.10677,0.28553 -0.26669,0 -0.90114,0.36334 -1.2584,0.72061 -0.33313,0.33312 -0.62986,0.82962 -0.75334,1.26042 -0.12761,0.44519 -0.14403,0.56711 -0.14403,1.08015 0,0.57064 0.0539,0.87581 0.22762,1.29215 0.11386,0.27292 0.14989,0.34128 0.29962,0.56601 0.51444,0.77204 1.35203,1.25579 2.18296,1.26092 0.13768,9.7e-4 0.25027,0.0125 0.25027,0.0257 0,0.0132 -0.0798,0.14149 -0.17725,0.28502 -0.0975,0.14354 -0.18743,0.32435 -0.19992,0.40134 -0.0212,0.1302 -0.011,0.14418 0.14453,0.19991 0.15697,0.0562 0.32779,0.13 0.79865,0.34495 0.10775,0.0492 0.2448,0.13458 0.30466,0.18985 0.0598,0.0553 0.47101,0.4031 0.91397,0.77297 0.44295,0.36986 0.81541,0.6834 0.82737,0.69693 0.0119,0.0136 0.12965,0.11248 0.26135,0.21956 0.13168,0.10708 0.24886,0.20497 0.26084,0.21804 0.0119,0.013 0.36733,0.3113 0.7896,0.66269 0.42227,0.35139 0.79466,0.6645 0.82735,0.69544 0.0327,0.031 0.15177,0.13065 0.26488,0.22156 0.11311,0.091 0.23083,0.18863 0.26135,0.21754 0.0305,0.0289 0.16313,0.14062 0.29459,0.24826 0.13145,0.10764 0.28787,0.2382 0.34796,0.29005 0.47641,0.41097 1.11486,0.92909 1.14512,0.92909 0.0203,0 0.13753,-0.0836 0.26084,-0.18531 0.12333,-0.10172 0.25181,-0.2103 0.28502,-0.24121 0.0332,-0.0309 0.40559,-0.34405 0.82786,-0.69543 0.42228,-0.35139 0.77762,-0.64911 0.78959,-0.66219 0.012,-0.0131 0.12966,-0.11174 0.26135,-0.21905 0.13171,-0.10732 0.26459,-0.21884 0.2951,-0.24775 0.0305,-0.0289 0.14771,-0.12715 0.26084,-0.21805 0.11314,-0.091 0.21565,-0.17648 0.22761,-0.19035 0.0119,-0.0138 0.34518,-0.29396 0.74024,-0.62241 0.70977,-0.59006 0.85638,-0.73959 1.19698,-1.21963 0.13097,-0.18459 0.27663,-0.31158 0.58766,-0.51264 0.22747,-0.14702 0.60268,-0.39009 0.83341,-0.54033 l 0.41947,-0.27343 0.0927,0.0861 c 0.0509,0.0475 0.2212,0.24222 0.37868,0.43256 0.15746,0.19036 0.30404,0.33522 0.3258,0.32178 0.0554,-0.0343 0.0498,-0.58543 -0.008,-0.76391 -0.089,-0.27469 -0.21987,-0.53889 -0.34747,-0.70046 -0.0698,-0.0883 -0.12689,-0.1816 -0.12689,-0.20696 0,-0.0252 0.0771,-0.0458 0.17172,-0.0458 0.3391,0 0.94365,-0.16649 1.3556,-0.37314 1.10577,-0.55474 1.82882,-1.92074 1.65169,-3.12061 -0.1885,-1.27687 -0.93211,-2.1704 -2.17641,-2.61602 -0.26393,-0.0945 -0.28524,-0.11256 -0.34948,-0.29307 -0.16222,-0.45589 -0.42833,-0.88945 -0.74577,-1.21561 l -0.19035,-0.19589 0.0151,-0.58918 c 0.0178,-0.67786 -0.0144,-0.84872 -0.25883,-1.3697 -0.10677,-0.2276 -0.40855,-0.64848 -0.54788,-0.76391 -0.39404,-0.32642 -0.77916,-0.50244 -1.24079,-0.56702 -0.33144,-0.0464 -0.37247,-0.0627 -0.41897,-0.16567 -0.0971,-0.21513 -0.47918,-0.68003 -0.69089,-0.84045 -0.51935,-0.39352 -0.93483,-0.53521 -1.55955,-0.53227 -0.57445,0.003 -1.00083,0.14479 -1.43919,0.4794 -0.23865,0.18216 -0.31132,0.18417 -0.47134,0.0146 -0.20878,-0.22121 -0.60363,-0.46674 -0.98447,-0.61284 -0.0985,-0.0378 -0.34251,-0.0568 -0.58716,-0.0564 z m -1.30473,0.0141 c -0.11089,0.0655 -0.19883,0.13222 -0.31977,0.24323 0.12098,-0.11103 0.20884,-0.17771 0.31977,-0.24323 z m -1.77105,0.53984 c -0.062,1.8e-4 -0.12415,0.003 -0.18682,0.008 0.12534,-0.009 0.24944,-0.01 0.37112,-9.7e-4 -0.0608,-0.004 -0.12237,-0.007 -0.1843,-0.007 z m -0.75384,0.10574 c -0.25136,0.068 -0.49907,0.16753 -0.73218,0.29409 0.23312,-0.12656 0.48082,-0.22605 0.73218,-0.29409 z m 9.36986,0.0509 c 0.0873,0.0884 0.16918,0.17745 0.23517,0.25782 -0.066,-0.0803 -0.14794,-0.16951 -0.23517,-0.25782 z m 0.42904,0.55493 c 0.0361,0.0482 0.0808,0.0729 0.16971,0.0941 -0.0891,-0.0212 -0.13363,-0.0462 -0.16971,-0.0941 z m 0.16971,0.0941 c 0.0365,0.009 0.0866,0.0173 0.14049,0.0262 -0.0538,-0.009 -0.10401,-0.0174 -0.14049,-0.0262 z m 0.23315,0.0458 c 0.16876,0.0312 0.33156,0.0809 0.48845,0.14552 -0.15684,-0.0647 -0.31971,-0.11426 -0.48845,-0.14552 z m -5.24012,0.26185 c 0.45582,-9.8e-4 0.90849,0.0656 1.30475,0.20092 0.84418,0.28891 1.65056,0.88007 2.28468,1.67486 0.21661,0.27152 0.35936,0.40528 0.52974,0.49703 0.60519,0.32589 1.09826,0.88189 1.34906,1.52076 0.0641,0.16351 0.0686,0.16595 0.32379,0.17978 0.16456,0.008 0.32156,0.0488 0.43005,0.10977 0.34854,0.19576 0.82315,0.6348 1.40545,1.29921 0.32936,0.37577 0.66082,0.75162 0.73673,0.83542 0.7388,0.81562 1.13911,1.58282 1.27905,2.45085 0.12004,0.74453 -0.17443,1.33047 -0.77298,1.5389 -0.2658,0.0926 -0.71914,0.0746 -0.95828,-0.0377 -0.75865,-0.35661 -1.64872,-1.94556 -1.92111,-3.4298 -0.0242,-0.13168 -0.0652,-0.34381 -0.0906,-0.47134 -0.0255,-0.12754 -0.0464,-0.34877 -0.0464,-0.49198 0,-0.24643 -0.0695,-0.81008 -0.11733,-0.95174 -0.0331,-0.0981 -0.0864,0.0653 -0.12186,0.37365 -0.0162,0.14156 -0.0695,0.37327 -0.11834,0.51515 -0.0781,0.22694 -0.0831,0.29251 -0.0418,0.54435 0.112,0.68343 0.13871,1.03028 0.13849,1.78816 -1.3e-4,0.44296 -0.0205,0.97182 -0.0453,1.17533 -0.12882,1.0537 -0.22449,1.50947 -0.495,2.35165 -0.52918,1.64735 -1.43831,3.00615 -2.54855,3.80948 -0.6908,0.49982 -1.4533,0.79112 -2.13512,0.81578 l -0.283,0.01 -0.0121,-0.59924 c -0.009,-0.45776 8.3e-4,-0.6034 0.0434,-0.61536 0.0306,-0.008 0.20262,-0.038 0.3822,-0.0655 0.63977,-0.0978 1.0449,-0.32594 1.0449,-0.58867 0,-0.0973 -0.28266,-0.0896 -0.42904,0.0116 -0.34546,0.23913 -1.15382,0.33505 -1.74788,0.20748 -0.3387,-0.0727 -0.42093,-0.10254 -0.57256,-0.20748 -0.14639,-0.10128 -0.42852,-0.1089 -0.42852,-0.0116 0,0.26187 0.36725,0.47217 1.02274,0.58565 0.1676,0.029 0.32993,0.0598 0.36055,0.0685 0.0425,0.012 0.0526,0.15765 0.0433,0.61536 -0.0137,0.67923 0.0129,0.64122 -0.40386,0.57658 v 5e-4 c -0.91174,-0.14139 -1.76555,-0.60649 -2.55057,-1.38934 -0.35835,-0.35735 -0.91044,-1.0342 -0.91044,-1.11641 0,-0.0145 -0.0418,-0.0853 -0.0932,-0.15711 -0.1043,-0.1465 -0.60327,-1.11818 -0.60327,-1.17482 0,-0.02 -0.0372,-0.11956 -0.0831,-0.22106 -0.0865,-0.19141 -0.21358,-0.56411 -0.30767,-0.9029 -0.03,-0.10774 -0.0694,-0.24481 -0.0876,-0.30466 -0.0633,-0.20822 -0.14799,-0.65395 -0.2689,-1.41502 -0.0874,-0.55017 -0.0723,-2.40171 0.0251,-3.05513 0.0727,-0.4883 0.0738,-0.54882 0.0111,-0.7619 -0.0374,-0.1273 -0.0842,-0.3084 -0.10374,-0.40235 -0.0196,-0.0939 -0.0551,-0.17674 -0.0785,-0.1843 -0.0442,-0.0142 -0.32531,0.54982 -0.32531,0.65262 0,0.032 -0.0134,0.0712 -0.0292,0.0871 -0.0454,0.0454 -0.20041,0.48786 -0.40638,1.16072 -0.15835,0.5173 -0.3495,1.1026 -0.39128,1.19748 -0.0422,0.0959 -0.1747,0.49986 -0.26386,0.8052 -0.0315,0.10774 -0.0695,0.21574 -0.0851,0.2397 -0.0156,0.024 -0.0548,0.11207 -0.0871,0.19588 -0.2543,0.66037 -0.82791,0.91172 -1.45128,0.636 -0.6289,-0.27811 -0.91216,-0.85117 -0.7896,-1.59781 0.12693,-0.7732 0.47356,-1.4209 1.11641,-2.08678 0.23568,-0.24411 0.97695,-0.92746 1.25539,-1.15719 0.55616,-0.45887 0.91784,-0.82369 1.01016,-1.01872 0.13518,-0.28562 0.33042,-0.50949 0.59571,-0.68283 0.14571,-0.0952 0.32632,-0.25989 0.40134,-0.36559 0.27355,-0.38534 0.6125,-0.68506 1.04038,-0.92153 0.11025,-0.0609 0.27903,-0.21691 0.38623,-0.35653 0.59719,-0.77769 1.5734,-1.51291 2.36324,-1.7801 0.40744,-0.13782 0.86605,-0.20766 1.32186,-0.20898 z m 6.58615,0.46933 c 0.14368,0.15021 0.28919,0.32774 0.38623,0.47133 -0.097,-0.1437 -0.2425,-0.32104 -0.38623,-0.47133 z m 0.38623,0.47133 c 0.0485,0.0718 0.0846,0.135 0.10273,0.18229 0.006,0.0159 0.0216,0.0349 0.0342,0.0534 -0.0125,-0.0183 -0.0277,-0.0376 -0.0337,-0.0534 -0.0181,-0.0473 -0.0548,-0.11049 -0.10323,-0.18229 z m 0.15812,0.26941 c 0.0249,0.0301 0.0539,0.0585 0.0816,0.0781 -0.0277,-0.0195 -0.0568,-0.0481 -0.0816,-0.0781 z m -14.65831,0.39429 c -0.0154,0.0189 -0.0302,0.0391 -0.0463,0.0564 -0.10017,0.10801 -0.20026,0.22578 -0.22258,0.26135 0.0223,-0.0356 0.12291,-0.15334 0.22309,-0.26135 0.016,-0.0172 0.0305,-0.0375 0.0458,-0.0564 z m 14.98362,0.42602 c -0.0337,0 -0.047,0.099 -0.0408,0.30466 0.0102,0.33732 -0.0338,0.27312 0.50709,0.73117 0.46802,0.39634 1.21562,1.16895 1.54645,1.59782 0.0831,0.10774 0.16158,0.20557 0.17424,0.21755 0.0221,0.0209 0.14585,0.19351 0.49148,0.68534 0.0881,0.12546 0.16013,0.23981 0.16013,0.25431 0,0.0146 0.0395,0.082 0.0876,0.14956 0.0812,0.1141 0.20187,0.32937 0.42653,0.76089 0.09,0.17302 0.32921,0.69433 0.40436,0.88174 0.0216,0.0539 0.0578,0.14201 0.0806,0.19588 0.0728,0.17211 0.38124,1.13525 0.43206,1.34956 0.14645,0.61764 0.20686,0.92912 0.26387,1.36064 0.0759,0.57451 0.13357,1.28478 0.13345,1.64163 -1.8e-4,0.4572 -0.12833,1.72596 -0.21704,2.14569 -0.0202,0.0958 -0.06,0.29142 -0.0886,0.43509 -0.0285,0.14365 -0.067,0.31026 -0.0857,0.37012 -0.0186,0.0599 -0.0587,0.19691 -0.0892,0.30465 -0.53478,1.89939 -1.61458,3.74747 -3.00176,5.13839 -0.25033,0.251 -0.88529,0.81912 -1.01317,0.90643 -0.0537,0.0367 -0.10738,0.0778 -0.11935,0.0911 -0.0392,0.0437 -0.36539,0.28783 -0.58363,0.4366 l -0.21402,0.14553 0.19236,0.16618 c 0.10558,0.0912 0.2196,0.16645 0.2533,0.16718 0.0336,6.6e-4 0.17074,-0.0815 0.30465,-0.18279 1.01389,-0.76675 2.00318,-1.73269 2.67092,-2.60748 0.17992,-0.23569 0.74459,-1.07757 0.78506,-1.17028 0.0157,-0.0359 0.0876,-0.1633 0.15963,-0.28301 0.13258,-0.22012 0.31234,-0.5772 0.47083,-0.93562 0.0477,-0.10776 0.13085,-0.29422 0.18482,-0.41394 0.054,-0.11972 0.11371,-0.26644 0.13243,-0.3263 0.0186,-0.0598 0.0771,-0.22646 0.12992,-0.37012 0.0528,-0.14368 0.11176,-0.31995 0.13093,-0.39179 0.41167,-1.5425 0.51976,-2.30168 0.52019,-3.6589 3e-4,-0.95786 -0.0504,-1.50698 -0.22258,-2.41411 -0.12837,-0.67616 -0.38782,-1.54658 -0.67478,-2.26353 -0.21649,-0.54091 -0.7195,-1.52888 -0.9311,-1.82844 -0.0422,-0.0598 -0.11942,-0.18451 -0.17121,-0.27697 -0.0844,-0.15078 -0.38647,-0.56763 -0.76089,-1.04993 -0.3006,-0.38722 -1.02939,-1.14405 -1.5112,-1.56962 -0.35104,-0.31005 -0.85952,-0.69492 -0.918,-0.69492 z m -10.17003,0.32631 c -0.63259,0 -1.35978,0.3048 -1.81586,0.76089 -0.20443,0.20443 -0.49903,0.64248 -0.49903,0.74175 0,0.0699 0.11001,0.089 0.14905,0.0257 0.0132,-0.0213 0.14676,-0.0973 0.2966,-0.16869 0.491,-0.23421 1.12214,-0.41798 1.81788,-0.52975 0.71388,-0.1147 0.87654,-0.13332 1.17885,-0.13395 0.17761,-3.3e-4 0.35177,-0.0187 0.38673,-0.0408 0.24138,-0.15265 -0.91997,-0.65514 -1.51422,-0.65514 z m 5.4773,0 c -0.45178,0 -0.99962,0.1731 -1.40093,0.44264 -0.3175,0.21324 -0.34084,0.25379 -0.14452,0.25379 0.27898,0 1.45666,0.13665 1.93722,0.22459 0.64812,0.11859 1.24422,0.29769 1.63507,0.49148 0.11841,0.0588 0.22205,0.10751 0.23064,0.10877 0.008,9.6e-4 0.003,-0.0498 -0.0131,-0.1133 -0.0958,-0.38152 -0.74893,-0.99543 -1.28661,-1.20957 -0.26171,-0.10424 -0.71635,-0.1984 -0.95778,-0.1984 z m -11.05329,0.63398 c -0.0429,-0.0264 -0.94257,0.89512 -1.25136,1.28159 -0.31812,0.39809 -0.84427,1.12969 -0.87672,1.21913 -0.013,0.0359 -0.0569,0.11388 -0.0982,0.17373 -0.17491,0.25423 -0.62515,1.11077 -0.75484,1.43668 -0.0429,0.10768 -0.10314,0.25498 -0.13446,0.32681 -0.13283,0.30454 -0.33022,0.87806 -0.45674,1.3274 -0.0303,0.10774 -0.0706,0.2448 -0.0886,0.30466 -0.0625,0.20554 -0.19269,0.88081 -0.25632,1.3279 -0.13815,0.9709 -0.16943,1.8948 -0.0911,2.68653 0.0933,0.94384 0.1512,1.29912 0.3525,2.15678 0.17023,0.72529 0.66296,2.03536 0.96181,2.55762 0.0275,0.0479 0.10175,0.18493 0.16568,0.30465 0.69802,1.30704 1.81682,2.67624 2.95946,3.62165 0.38815,0.32114 0.83685,0.66592 0.86664,0.66622 0.009,10e-5 0.10209,-0.0637 0.20545,-0.14151 0.22098,-0.16636 0.23615,-0.24765 0.0655,-0.34847 -0.2713,-0.16027 -1.09701,-0.86041 -1.55148,-1.3153 -0.70514,-0.70583 -1.44586,-1.66185 -1.91305,-2.469 -0.22424,-0.38738 -0.76391,-1.52069 -0.76391,-1.60436 0,-0.0236 -0.0188,-0.0768 -0.0418,-0.11834 -0.0692,-0.1244 -0.34378,-0.99647 -0.43508,-1.38178 -0.10909,-0.46037 -0.12362,-0.53752 -0.26789,-1.41502 -0.0688,-0.41793 -0.0733,-2.44401 -0.007,-2.82955 0.0269,-0.15563 0.0704,-0.42972 0.0971,-0.60931 0.15175,-1.02578 0.59593,-2.38921 1.09929,-3.37389 0.50151,-0.98106 1.16855,-1.94562 1.83651,-2.65582 0.31572,-0.33568 0.32732,-0.35619 0.32983,-0.566 9.6e-4,-0.1197 0.0199,-0.29079 0.0408,-0.3807 0.0209,-0.0899 0.0243,-0.17214 0.008,-0.1823 z m 7.55198,0.35804 -0.58917,0.0277 c -0.98365,0.047 -1.76195,0.18001 -2.61351,0.44716 -0.33064,0.10373 -0.81604,0.36259 -1.02426,0.54587 -0.21373,0.18812 -0.3253,0.39922 -0.3253,0.61535 0,0.26781 0.12569,0.72904 0.28905,1.06101 0.33878,0.68849 1.09663,1.26077 1.82241,1.37625 0.24471,0.039 1.0001,-0.0131 1.19698,-0.0826 0.45306,-0.15992 0.68042,-0.30376 1.02526,-0.64859 0.54413,-0.54414 0.73094,-0.99256 0.7342,-1.76551 0.003,-0.58537 -0.0916,-0.93796 -0.35552,-1.33546 z m 1.77206,0.0529 c -0.29022,0 -0.31603,0.008 -0.39178,0.11986 -0.32846,0.48495 -0.49518,1.17632 -0.40739,1.69047 0.20185,1.18222 0.99605,2.00486 2.13663,2.21268 0.21176,0.0386 0.93885,-0.0148 1.13051,-0.0826 0.77098,-0.27322 1.4088,-0.88097 1.64616,-1.56811 0.13804,-0.39956 0.19431,-0.85449 0.13495,-1.09022 -0.0986,-0.39159 -0.64906,-0.70348 -1.71413,-0.97088 -0.61131,-0.15346 -1.89705,-0.3112 -2.53495,-0.3112 z m -3.03047,0.78356 c 0.29117,0 0.53086,0.11429 0.69795,0.33336 0.10599,0.13898 0.12186,0.19947 0.12186,0.45371 0,0.26248 -0.0136,0.31073 -0.13345,0.45876 -0.22528,0.27832 -0.53795,0.39163 -0.89282,0.32379 -0.38965,-0.0745 -0.6496,-0.38703 -0.6496,-0.78154 0,-0.23699 0.0426,-0.34302 0.21754,-0.54133 0.14685,-0.16635 0.35509,-0.24675 0.63852,-0.24675 z m 3.9802,0 c 0.12462,0 0.44542,0.12869 0.56852,0.22811 0.13657,0.11033 0.2548,0.37942 0.2548,0.58012 0,0.38566 -0.2606,0.6994 -0.66168,0.79664 -0.24351,0.059 -0.18129,0.0635 -0.47033,-0.0358 -0.41503,-0.14265 -0.6283,-0.50466 -0.54839,-0.93059 0.0603,-0.32125 0.48607,-0.63852 0.85708,-0.63852 z m 9.06267,0.9593 c 0.0208,0.0348 0.0318,0.058 0.0318,0.0674 0,0.0146 0.0369,0.0784 0.082,0.14201 0.0295,0.0416 0.0679,0.10316 0.1128,0.17977 -0.0446,-0.0763 -0.0829,-0.13829 -0.11229,-0.17977 -0.0451,-0.0636 -0.0821,-0.12739 -0.0821,-0.14201 0,-0.01 -0.0115,-0.0326 -0.0323,-0.0674 z m 0.37769,0.65816 c 0.21899,0.40294 0.49515,0.95536 0.65513,1.30977 -0.16001,-0.35445 -0.43625,-0.907 -0.65513,-1.30977 z m -22.64791,0.22056 c -0.29328,0.55542 -0.59818,1.25368 -0.81729,1.86319 0.21908,-0.60945 0.52402,-1.3078 0.81729,-1.86319 z m 23.39872,1.3128 c 0.0227,0.0584 0.0353,0.099 0.0353,0.11632 0,0.0236 0.0187,0.0768 0.0418,0.11834 0.0435,0.078 0.25236,0.70945 0.34896,1.05497 0.0301,0.10775 0.07,0.24478 0.0886,0.30465 0.0187,0.0598 0.0571,0.22648 0.0857,0.37012 0.0285,0.14368 0.0684,0.33983 0.0887,0.43559 -0.0203,-0.0958 -0.0596,-0.29191 -0.0881,-0.43559 -0.0285,-0.14364 -0.0669,-0.31028 -0.0856,-0.37012 -0.0187,-0.0598 -0.0586,-0.1969 -0.0887,-0.30465 -0.0966,-0.34552 -0.30552,-0.97692 -0.34898,-1.05497 -0.0231,-0.0415 -0.0418,-0.0947 -0.0418,-0.11834 0,-0.0173 -0.0131,-0.0579 -0.0358,-0.11632 z m 0.68887,2.39999 c 0.0426,0.20186 0.10542,0.62633 0.17123,1.15569 -0.0658,-0.52936 -0.12863,-0.95383 -0.17123,-1.15569 z m -5.88215,2.63265 -0.19085,0.13093 c -0.10484,0.0722 -0.20066,0.13092 -0.21351,0.13092 -0.0129,0 -0.24956,0.14875 -0.52573,0.33034 -0.45472,0.29899 -0.53192,0.37003 -0.81779,0.74981 -0.25083,0.33321 -0.46045,0.54008 -1.01972,1.00815 -0.38716,0.324 -0.74958,0.6284 -0.80571,0.67628 -0.0561,0.0479 -0.20959,0.17536 -0.34092,0.283 -0.1313,0.10764 -0.26356,0.21933 -0.29408,0.24827 -0.0305,0.0289 -0.14825,0.12664 -0.26135,0.21754 -0.11309,0.091 -0.23219,0.19062 -0.26488,0.22156 -0.0327,0.0309 -0.40509,0.34411 -0.82735,0.69593 -0.42228,0.35186 -0.80717,0.67639 -0.85506,0.72111 -0.048,0.0448 -0.13094,0.11086 -0.18481,0.14705 -0.16138,0.10833 -0.13703,0.15567 0.22358,0.43658 0.12484,0.0974 0.26736,0.12843 0.2951,0.0644 0.008,-0.0183 0.12167,-0.12133 0.25278,-0.22861 0.13112,-0.1073 0.26588,-0.22035 0.29912,-0.25129 0.0332,-0.031 0.40559,-0.34352 0.82787,-0.69491 0.42227,-0.35139 0.77762,-0.64964 0.78959,-0.66271 0.0119,-0.013 0.12965,-0.11174 0.26135,-0.21904 0.13168,-0.10731 0.26456,-0.21833 0.29509,-0.24725 0.0305,-0.029 0.14792,-0.12715 0.26085,-0.21805 0.11293,-0.091 0.27404,-0.22653 0.35804,-0.30163 0.70429,-0.62943 1.18647,-0.98654 1.64313,-1.21561 0.29291,-0.14693 0.53549,-0.30052 0.60428,-0.38271 0.0632,-0.0756 0.27396,-0.31034 0.46832,-0.5217 0.19439,-0.21136 0.38089,-0.42912 0.41443,-0.48393 0.07,-0.11436 0.0469,-0.16018 -0.23113,-0.46076 z m -14.28367,0.10624 c -0.029,-0.003 -0.0295,0.0195 -0.0126,0.0801 0.0425,0.15125 0.19951,0.45516 0.27999,0.54183 0.0399,0.0431 0.0844,0.10881 0.0987,0.14654 0.0145,0.0377 0.38552,0.37015 0.82484,0.73823 0.43932,0.36808 0.80884,0.68038 0.82081,0.69392 0.012,0.0135 0.12915,0.11197 0.26085,0.21905 0.1317,0.10708 0.24939,0.20549 0.26135,0.21854 0.0119,0.0131 0.36734,0.31131 0.7896,0.66269 0.42227,0.35139 0.79466,0.66398 0.82735,0.69493 0.0327,0.0309 0.15179,0.13066 0.26488,0.22157 0.11312,0.091 0.23083,0.18913 0.26135,0.21804 0.0305,0.0289 0.1629,0.14045 0.29458,0.24775 0.13169,0.10731 0.24938,0.2055 0.26135,0.21856 0.012,0.0131 0.36732,0.31131 0.7896,0.66269 0.42228,0.35139 0.79468,0.66446 0.82736,0.69542 0.0328,0.0309 0.15177,0.13068 0.26487,0.22157 0.11311,0.091 0.23082,0.18924 0.26135,0.21855 0.0305,0.0292 0.14813,0.12839 0.26186,0.22057 l 0.20696,0.16768 v 0.35804 c 0,0.3991 -0.0218,0.36427 0.48948,0.7765 0.11274,0.091 0.22982,0.18861 0.26034,0.21753 0.0305,0.0289 0.16341,0.14075 0.29509,0.24827 0.1317,0.10753 0.26365,0.21842 0.29357,0.24674 0.0299,0.0283 0.0554,0.1561 0.0569,0.28351 0.005,0.42041 0.02,0.43829 1.21662,1.43415 0.61057,0.50814 1.12004,0.93548 1.13202,0.94923 0.012,0.0137 0.11446,0.0994 0.2276,0.19035 0.11313,0.091 0.23033,0.18862 0.26086,0.21754 0.0305,0.0289 0.16312,0.14063 0.29458,0.24826 0.13144,0.10765 0.28838,0.23815 0.34846,0.29005 0.0601,0.0518 0.43994,0.37035 0.84398,0.70751 l 0.7342,0.61335 h 0.33941 0.3394 l 0.53378,-0.64255 c 0.2937,-0.35316 0.57165,-0.6844 0.61738,-0.73622 0.0775,-0.0876 0.0791,-0.1153 0.0267,-0.39882 -0.064,-0.34642 -0.0728,-0.36117 -0.35351,-0.58666 -0.11313,-0.0909 -0.23082,-0.18862 -0.26135,-0.21754 -0.0305,-0.0289 -0.16288,-0.14044 -0.29457,-0.24775 -0.13168,-0.1073 -0.24938,-0.20575 -0.26136,-0.21855 -0.0119,-0.0129 -0.50158,-0.42314 -1.0882,-0.91196 -0.58661,-0.48884 -1.07624,-0.89999 -1.08821,-0.91347 -0.0119,-0.0135 -0.11447,-0.099 -0.22762,-0.18985 -0.11313,-0.091 -0.23082,-0.18862 -0.26135,-0.21754 -0.0305,-0.0289 -0.16312,-0.14063 -0.29458,-0.24825 -0.13144,-0.10764 -0.28787,-0.23811 -0.34797,-0.28955 -0.0601,-0.0516 -0.21728,-0.18461 -0.34896,-0.2961 l -0.2392,-0.20243 -0.32682,0.006 c -0.42872,0.007 -0.40618,0.011 -0.50306,-0.0766 -0.0464,-0.0419 -0.19209,-0.16451 -0.3238,-0.27192 -0.13167,-0.10742 -0.24937,-0.20523 -0.26135,-0.21754 -0.0283,-0.029 -0.52371,-0.44261 -0.61233,-0.51112 -0.0472,-0.0365 -0.11409,-0.0411 -0.21754,-0.0146 -0.31361,0.0806 -0.55138,0.0952 -0.61234,0.0372 -0.0327,-0.0311 -0.16743,-0.14446 -0.29912,-0.25178 -0.1317,-0.10731 -0.24938,-0.206 -0.26135,-0.21906 -0.0119,-0.0131 -0.3673,-0.3113 -0.7896,-0.66269 -0.42225,-0.35138 -0.79415,-0.66398 -0.82684,-0.69492 -0.0327,-0.031 -0.15228,-0.13066 -0.26538,-0.22157 -0.1131,-0.0909 -0.23032,-0.18913 -0.26085,-0.21805 -0.0305,-0.0288 -0.16341,-0.14044 -0.2951,-0.24775 -0.13169,-0.1073 -0.24937,-0.20549 -0.26135,-0.21854 -0.0119,-0.0131 -0.36681,-0.31132 -0.78908,-0.6627 -0.42227,-0.35139 -0.79472,-0.66438 -0.82736,-0.69542 -0.0327,-0.0311 -0.16693,-0.14448 -0.29862,-0.25179 -0.13168,-0.10731 -0.24937,-0.20548 -0.26135,-0.21854 -0.012,-0.0131 -0.36454,-0.30963 -0.78355,-0.65918 -0.419,-0.34956 -0.82049,-0.68829 -0.89232,-0.75232 -0.0718,-0.064 -0.19919,-0.15085 -0.283,-0.19286 -0.0838,-0.042 -0.20151,-0.10276 -0.26135,-0.13497 -0.22019,-0.11851 -0.26595,-0.13418 -0.30869,-0.10775 -0.0241,0.0148 -0.0673,0.008 -0.0962,-0.0137 -0.0288,-0.0222 -0.0879,-0.0533 -0.13143,-0.069 -0.0164,-0.006 -0.0291,-0.01 -0.0388,-0.0106 z m -5.4652,0.18532 c 0.007,0.15819 0.0165,0.29878 0.0302,0.40588 0.023,0.17958 0.0633,0.51279 0.0896,0.74024 0.0159,0.1374 0.0332,0.26231 0.0513,0.38573 -0.0181,-0.12326 -0.035,-0.2485 -0.0509,-0.38573 -0.0263,-0.22745 -0.0667,-0.56066 -0.0896,-0.74024 -0.0137,-0.10709 -0.0241,-0.24768 -0.0307,-0.40588 z m 5.17616,0.1546 c -0.0167,-0.002 -0.0307,-7e-5 -0.0383,0.008 -0.0262,0.0262 0.0719,0.6691 0.12691,0.83139 0.10947,0.32303 0.33549,0.71017 0.53529,0.91649 0.0926,0.0956 0.44341,0.31232 0.61032,0.37718 l 0.17424,0.0674 0.0267,0.38624 c 0.0298,0.42543 0.0636,0.55573 0.23617,0.90844 0.12322,0.25185 0.55551,0.69337 0.78354,0.80016 0.0708,0.0331 0.16856,0.0783 0.21704,0.10021 0.11386,0.0514 0.63938,0.0655 0.89131,0.0242 l 0.19589,-0.0317 0.14251,0.29659 c 0.313,0.65124 0.92271,1.10894 1.66429,1.24986 0.37406,0.0711 0.36316,0.0708 0.6929,0.0151 0.30739,-0.052 0.36571,-0.0791 0.31725,-0.14855 -0.017,-0.0243 -0.25937,-0.23463 -0.53881,-0.46731 -0.27941,-0.23271 -0.53413,-0.44773 -0.56601,-0.47788 -0.0319,-0.0301 -0.15076,-0.12915 -0.26387,-0.22007 -0.11309,-0.0909 -0.23031,-0.1891 -0.26085,-0.21803 -0.0305,-0.0289 -0.1634,-0.14044 -0.29509,-0.24776 -0.13169,-0.10731 -0.24939,-0.20547 -0.26135,-0.21855 -0.0119,-0.0131 -0.36681,-0.3113 -0.78909,-0.66269 -0.42227,-0.35139 -0.7947,-0.66497 -0.82735,-0.69643 -0.0327,-0.0314 -0.11224,-0.0978 -0.17676,-0.14754 -0.0645,-0.0498 -0.22093,-0.17977 -0.34796,-0.28906 -0.12704,-0.10927 -0.57028,-0.48186 -0.98498,-0.82786 -0.57809,-0.4823 -0.79935,-0.69607 -0.94721,-0.91649 -0.10609,-0.15813 -0.19287,-0.30569 -0.19287,-0.32782 0,-0.0335 -0.074,-0.0765 -0.12387,-0.0831 z m 20.66033,0.0362 c -0.007,0.21525 -0.0181,0.39558 -0.0327,0.50709 -0.0685,0.52832 -0.10829,0.82942 -0.14403,1.05094 0.0357,-0.22151 0.0761,-0.52287 0.14452,-1.05094 0.0145,-0.11151 0.0251,-0.29185 0.0323,-0.50709 z m -5.33781,0.21502 c -0.0534,0 -1.04994,1.10041 -1.04994,1.15921 0,0.0442 0.20046,-0.0424 0.37616,-0.16266 0.23759,-0.16271 0.50763,-0.47357 0.6209,-0.71456 0.0988,-0.21031 0.11212,-0.28199 0.0529,-0.28199 z m -1.59933,1.55602 c -0.16231,-0.0313 -0.58973,0.23769 -1.24885,0.78607 -0.36377,0.30266 -0.67137,0.5605 -0.68333,0.57356 -0.012,0.013 -0.12967,0.11173 -0.26135,0.21904 -0.13171,0.10731 -0.26407,0.21884 -0.29459,0.24776 -0.0305,0.0289 -0.14823,0.12715 -0.26135,0.21805 -0.1131,0.0909 -0.23218,0.19012 -0.26488,0.22106 -0.0327,0.031 -0.40508,0.34439 -0.82735,0.69644 -1.33921,1.11654 -1.30588,1.08583 -1.22669,1.13755 0.0658,0.0431 0.20058,0.0308 0.51111,-0.0474 0.16046,-0.0403 0.19842,-0.0349 0.30516,0.0448 0.16587,0.12371 0.27551,0.11613 0.60076,-0.0408 0.37191,-0.17939 0.78776,-0.59696 0.98044,-0.98498 0.0808,-0.16259 0.15248,-0.30374 0.15913,-0.31321 0.007,-0.009 0.0858,0.0303 0.17625,0.0881 0.33644,0.21551 0.58139,0.29912 0.87419,0.29912 0.59781,0 1.2237,-0.41913 1.49711,-1.0026 0.21515,-0.45916 0.23048,-0.52807 0.23063,-1.04339 1.3e-4,-0.50067 -0.0757,-0.8792 -0.21301,-1.06706 -0.0123,-0.0168 -0.0302,-0.0278 -0.0534,-0.0323 z m 6.707,0.078 c -0.0186,0.0893 -0.0392,0.17699 -0.0644,0.2815 -0.0203,0.0838 -0.06,0.25039 -0.0881,0.37012 -0.1874,0.79541 -0.51832,1.66561 -0.98498,2.58984 -0.19451,0.38524 -0.3088,0.60801 -0.42249,0.80419 0.11369,-0.19615 0.22848,-0.41844 0.423,-0.80368 0.46666,-0.92424 0.79757,-1.79494 0.98497,-2.59035 0.0281,-0.11973 0.0678,-0.28632 0.0881,-0.37012 0.0252,-0.10451 0.0454,-0.19226 0.0639,-0.2815 z m -25.2599,0.39429 c 0.0374,0.15673 0.0807,0.32642 0.13144,0.51817 0.054,0.20387 0.28333,0.9186 0.33537,1.0449 0.201,0.48803 0.34182,0.81864 0.46479,1.08368 -0.1229,-0.26506 -0.26328,-0.59565 -0.46429,-1.08368 -0.052,-0.1263 -0.28139,-0.84103 -0.33538,-1.0449 -0.0508,-0.19175 -0.0944,-0.36147 -0.13193,-0.51817 z m 1.10785,3.0068 c 0.058,0.11122 0.11669,0.21743 0.18179,0.33034 0.0517,0.0898 0.13426,0.23361 0.18279,0.31926 -0.0485,-0.0856 -0.13055,-0.22951 -0.18229,-0.31926 -0.0651,-0.11291 -0.12435,-0.21911 -0.18229,-0.33034 z m 0.36458,0.6496 c 0.13538,0.23899 0.59885,0.92149 0.84045,1.23726 0.0883,0.11543 0.17832,0.22881 0.26992,0.34041 -0.0916,-0.11159 -0.18109,-0.22498 -0.26941,-0.34041 -0.2416,-0.31577 -0.70558,-0.99827 -0.84096,-1.23726 z m 10.23902,0.14855 c -0.0348,0 -0.1594,0.0809 -0.27696,0.17927 -0.18411,0.15415 -0.23341,0.17499 -0.35451,0.15107 -0.0774,-0.0153 -0.24116,-0.0394 -0.36408,-0.0534 l -0.22308,-0.0257 -0.53831,0.4512 c -0.2961,0.24812 -0.56595,0.47698 -0.59925,0.5086 -0.18695,0.17751 -0.25081,0.19251 -0.57004,0.13546 -0.28623,-0.0512 -0.31291,-0.0486 -0.40385,0.0312 -0.0536,0.047 -0.27348,0.23116 -0.48897,0.4094 -0.21548,0.17825 -0.40194,0.3341 -0.41393,0.34645 -0.012,0.0124 -0.12918,0.11048 -0.26084,0.21755 -0.1317,0.10708 -0.24939,0.20551 -0.26136,0.21905 -0.012,0.0135 -0.3844,0.32716 -0.82736,0.69693 -0.44295,0.36977 -0.83008,0.69621 -0.8606,0.72514 -0.0305,0.0289 -0.14824,0.12663 -0.26135,0.21754 -0.11309,0.091 -0.23149,0.18993 -0.26336,0.22006 -0.0319,0.0301 -0.2866,0.24507 -0.56601,0.47738 -0.66739,0.55483 -0.73644,0.6285 -0.77398,0.82535 -0.0836,0.43815 -0.0869,0.43075 0.54888,1.20654 l 0.58767,0.71708 0.34847,0.003 c 0.32103,0.002 0.35849,-0.007 0.47888,-0.11683 v -5e-4 c 0.0718,-0.0658 0.23795,-0.20769 0.36963,-0.31523 0.13169,-0.10751 0.26646,-0.22074 0.29911,-0.25178 0.0326,-0.0311 0.40457,-0.34404 0.82686,-0.69543 0.42227,-0.35138 0.77763,-0.64963 0.78959,-0.6627 0.0119,-0.0131 0.12966,-0.11174 0.26135,-0.21905 0.13169,-0.1073 0.26595,-0.22021 0.29862,-0.25127 0.0326,-0.0311 0.40509,-0.34404 0.82735,-0.69543 0.42229,-0.35138 0.77762,-0.65016 0.7896,-0.6637 0.0119,-0.0135 0.11489,-0.0995 0.22862,-0.19135 l 0.20646,-0.16719 v -0.30113 c 0,-0.33466 0.0111,-0.35134 0.45875,-0.71205 0.11856,-0.0955 0.26472,-0.21879 0.3248,-0.27444 0.0601,-0.0555 0.22187,-0.19111 0.35955,-0.30063 l 0.25027,-0.1989 v -0.36106 -0.36056 l 0.28653,-0.25329 0.28653,-0.2528 -0.22811,-0.20696 c -0.12561,-0.11373 -0.25687,-0.20697 -0.29157,-0.20697 z m 11.80863,0.13798 c -0.0664,0.10207 -0.14257,0.21479 -0.23819,0.35502 -0.44021,0.64562 -0.89668,1.21297 -1.40243,1.73629 0.50586,-0.5234 0.96265,-1.09057 1.40294,-1.73629 0.0956,-0.14023 0.17136,-0.25296 0.23768,-0.35502 z m -7.33344,1.39034 c 0.0958,-8.9e-4 0.21068,0.0522 0.3253,0.15913 0.0718,0.0668 0.47611,0.40919 0.89837,0.76089 0.42228,0.35171 0.79468,0.665 0.82735,0.69593 0.0327,0.031 0.15179,0.13066 0.26488,0.22157 0.11312,0.091 0.23083,0.18862 0.26135,0.21754 0.0305,0.0289 0.1629,0.14071 0.29459,0.24825 0.13169,0.10754 0.26073,0.21516 0.28653,0.23921 0.0258,0.0241 0.36359,0.30648 0.75081,0.62794 0.67766,0.56256 0.70399,0.59066 0.70399,0.74578 0,0.21787 -0.16115,0.33929 -0.32883,0.24725 v -5.1e-4 c -0.0733,-0.0401 -1.47339,-1.19301 -1.63608,-1.34703 -0.0327,-0.0309 -0.15177,-0.13017 -0.26488,-0.22107 -0.11311,-0.091 -0.23083,-0.18912 -0.26135,-0.21804 -0.0305,-0.0289 -0.16339,-0.14045 -0.29509,-0.24776 -0.13168,-0.10732 -0.24887,-0.20598 -0.26085,-0.21905 -0.0119,-0.0131 -0.36453,-0.30964 -0.78354,-0.65916 -1.09805,-0.91594 -1.06531,-0.87982 -0.99303,-1.08721 0.0377,-0.10816 0.11467,-0.16276 0.21048,-0.16366 z m -7.75895,0.21402 c 0.0893,-0.003 0.15858,0.0407 0.20495,0.13042 0.11069,0.21405 0.17832,0.14295 -1.37171,1.43719 -0.58661,0.48978 -1.09142,0.91412 -1.12194,0.94317 -0.0305,0.029 -0.14793,0.12714 -0.26086,0.21805 -0.11293,0.091 -0.27402,0.22676 -0.35803,0.30164 -0.59062,0.52649 -1.38421,1.14813 -1.46589,1.14813 -0.0523,0 -0.13619,-0.0517 -0.18581,-0.11481 -0.15337,-0.19497 -0.12774,-0.24305 0.3384,-0.635 0.20717,-0.17422 0.40204,-0.34031 0.43256,-0.36912 0.0305,-0.0288 0.14774,-0.12714 0.26084,-0.21804 0.11313,-0.091 0.2327,-0.19064 0.26539,-0.22158 0.0327,-0.031 0.40458,-0.34352 0.82686,-0.69491 0.42227,-0.35138 0.77762,-0.64962 0.78958,-0.66269 0.0119,-0.0131 0.12965,-0.11176 0.26135,-0.21905 0.13169,-0.10732 0.2646,-0.21833 0.2951,-0.24726 0.0305,-0.0289 0.1477,-0.12713 0.26084,-0.21805 0.11314,-0.0909 0.21565,-0.17552 0.22762,-0.18783 0.24747,-0.25436 0.45198,-0.38581 0.60075,-0.39026 z m -5.56441,0.0167 c 0.19106,0.21685 0.39052,0.42798 0.60126,0.636 -0.21072,-0.20799 -0.41021,-0.41917 -0.60126,-0.636 z m 0.60126,0.636 c 0.21072,0.208 0.43258,0.41302 0.66824,0.61738 -0.23567,-0.20438 -0.4575,-0.40936 -0.66824,-0.61738 z m 12.40436,9.7e-4 c 0.0748,-0.002 0.15661,0.0305 0.23013,0.0967 0.0598,0.0539 0.20131,0.17194 0.31422,0.26286 0.11293,0.091 0.23032,0.18911 0.26084,0.21804 0.0305,0.0289 0.16341,0.14044 0.2951,0.24776 0.13169,0.10731 0.24887,0.20547 0.26084,0.21854 0.0119,0.0131 0.36732,0.3113 0.7896,0.66269 0.42227,0.35138 0.79466,0.66449 0.82735,0.69543 0.0328,0.0309 0.15178,0.13067 0.26488,0.22157 0.11311,0.091 0.23083,0.18862 0.26135,0.21754 0.0305,0.0289 0.16339,0.14062 0.29509,0.24826 0.13168,0.10764 0.27243,0.22543 0.31271,0.26135 0.0403,0.0359 0.18193,0.1531 0.31473,0.26085 0.27047,0.21941 0.33116,0.35234 0.23769,0.51968 -0.10348,0.18521 -0.25076,0.16637 -0.54285,-0.0695 -0.28705,-0.2318 -1.07256,-0.88954 -1.10633,-0.92657 -0.012,-0.0131 -0.11397,-0.0984 -0.22711,-0.18934 -0.11313,-0.091 -0.23082,-0.18899 -0.26135,-0.21804 -0.0305,-0.029 -0.53533,-0.4531 -1.12195,-0.94217 -0.58662,-0.48909 -1.07623,-0.89999 -1.0882,-0.91348 -0.0119,-0.0134 -0.13474,-0.11908 -0.27243,-0.23466 -0.28092,-0.23582 -0.33856,-0.36786 -0.23215,-0.53025 0.0453,-0.0692 0.113,-0.10537 0.18784,-0.10726 z m -7.06807,0.21603 c 0.0774,-0.005 0.13426,0.0331 0.1838,0.10877 0.0427,0.0653 0.0603,0.14969 0.0448,0.212 -0.0162,0.0648 -0.30817,0.33849 -0.7775,0.72866 -0.41332,0.34362 -0.7762,0.64891 -0.80672,0.67831 -0.0305,0.0293 -0.14825,0.12763 -0.26135,0.21855 -0.11311,0.091 -0.23219,0.19061 -0.26488,0.22156 -0.0327,0.0309 -0.40509,0.34354 -0.82735,0.69492 -0.42228,0.35138 -0.77762,0.64962 -0.7896,0.6627 -0.012,0.0131 -0.12966,0.11146 -0.26135,0.21854 -0.13168,0.1071 -0.24888,0.20471 -0.26084,0.21704 -0.26811,0.27639 -0.47088,0.35855 -0.61435,0.24927 -0.0882,-0.0672 -0.13609,-0.21474 -0.10022,-0.30818 0.0151,-0.0395 0.31418,-0.31115 0.66471,-0.60378 0.35053,-0.29263 0.64719,-0.54265 0.65917,-0.55543 0.012,-0.0129 0.12966,-0.11074 0.26135,-0.21804 0.13168,-0.10731 0.26406,-0.21885 0.29459,-0.24776 0.0305,-0.0289 0.14824,-0.12714 0.26135,-0.21805 0.11309,-0.091 0.23218,-0.19062 0.26487,-0.22157 0.0328,-0.0309 0.40509,-0.34437 0.82736,-0.69643 0.42226,-0.35207 0.81685,-0.68247 0.87671,-0.7347 0.30977,-0.27026 0.49646,-0.39806 0.62543,-0.40638 z m 12.68988,0.002 c -0.39929,0.37753 -0.83111,0.73543 -1.30928,1.0877 0.47829,-0.35234 0.90989,-0.71008 1.30928,-1.0877 z m -6.42349,0.27796 c 0.0821,-0.008 0.16813,0.0424 0.29559,0.16366 0.0332,0.0317 0.16844,0.1455 0.30012,0.2528 0.13168,0.10731 0.24939,0.20549 0.26135,0.21854 0.012,0.0131 0.36733,0.31131 0.7896,0.66269 0.42227,0.35139 0.79417,0.66447 0.82685,0.69543 0.0327,0.0309 0.15227,0.13066 0.26538,0.22157 0.11311,0.091 0.23032,0.18862 0.26085,0.21754 0.0305,0.0289 0.16342,0.14045 0.29508,0.24775 0.13171,0.10731 0.24939,0.20572 0.26136,0.21856 0.0119,0.0129 0.25195,0.21486 0.53328,0.44917 0.46284,0.38545 0.51112,0.44008 0.51112,0.56954 0,0.2155 -0.15456,0.32894 -0.34797,0.25531 -0.036,-0.0136 -0.075,-0.0372 -0.0871,-0.0523 -0.012,-0.0151 -0.36732,-0.31534 -0.78959,-0.66673 -0.42227,-0.35138 -0.79421,-0.66387 -0.82686,-0.69492 -0.0326,-0.031 -0.16743,-0.14448 -0.29912,-0.25179 -0.13168,-0.1073 -0.24937,-0.20597 -0.26135,-0.21905 -0.0119,-0.013 -0.36455,-0.30965 -0.78354,-0.65916 -0.41903,-0.34951 -0.8036,-0.67179 -0.85457,-0.71658 -0.0509,-0.0448 -0.19235,-0.16003 -0.31472,-0.2558 -0.12236,-0.0958 -0.23494,-0.21806 -0.24977,-0.27194 -0.0411,-0.14942 0.0121,-0.2934 0.13193,-0.35753 0.0279,-0.0149 0.0547,-0.0241 0.0821,-0.0267 z m -5.57096,0.19388 c 0.18593,-0.019 0.33336,0.0995 0.33336,0.26789 0,0.11455 -0.207,0.3296 -0.63551,0.66069 -0.0696,0.0538 -0.15315,0.12362 -0.18581,0.15509 -0.0326,0.0314 -0.40509,0.34453 -0.82736,0.69593 -0.42227,0.35138 -0.7771,0.64962 -0.78908,0.66269 -0.0119,0.0131 -0.12967,0.11174 -0.26136,0.21905 -0.13169,0.10732 -0.26456,0.21833 -0.29509,0.24726 -0.0305,0.0289 -0.14821,0.12714 -0.26135,0.21804 -0.11314,0.091 -0.21513,0.17622 -0.22711,0.18934 -0.0518,0.0568 -0.85909,0.7268 -0.95677,0.79412 -0.13343,0.092 -0.21556,0.0937 -0.33991,0.007 v -5e-4 c -0.0606,-0.0424 -0.0967,-0.1131 -0.0967,-0.18884 0,-0.12722 0.1277,-0.26442 0.60982,-0.65715 0.1317,-0.10727 0.24889,-0.20603 0.26085,-0.21956 0.0119,-0.0135 0.38441,-0.32739 0.82736,-0.69693 0.44295,-0.36957 0.81488,-0.68178 0.82686,-0.69442 0.0119,-0.0127 0.12965,-0.11125 0.26135,-0.21855 0.13167,-0.10732 0.26456,-0.21834 0.29509,-0.24725 0.0305,-0.029 0.1482,-0.12714 0.26135,-0.21805 0.11312,-0.091 0.21514,-0.17638 0.22711,-0.18983 0.0892,-0.10028 0.93298,-0.782 0.97289,-0.78607 z m 10.68467,0.61586 c -0.11299,0.0832 -0.20621,0.17241 -0.20696,0.1984 -2.5e-4,0.0124 0.006,0.0271 0.0197,0.0469 -0.0141,-0.0198 -0.0194,-0.0344 -0.0191,-0.0469 7.5e-4,-0.026 0.0936,-0.11526 0.20646,-0.1984 z m -10.95811,1.00965 c -0.0547,0.006 -0.11846,0.0357 -0.18783,0.0892 -0.19612,0.15118 -0.33738,0.2777 -0.33738,0.30214 0,0.0112 0.083,0.0454 0.1848,0.076 0.10181,0.0305 0.23423,0.0713 0.29409,0.0906 0.29849,0.0961 1.10486,0.26534 1.63256,0.34292 0.88922,0.13069 2.01303,0.16764 2.75702,0.0906 0.56521,-0.0586 1.07971,-0.12718 1.29165,-0.17221 0.0958,-0.0204 0.28173,-0.0592 0.41343,-0.0866 0.58079,-0.12032 0.95778,-0.23421 0.95778,-0.28955 0,-0.0279 -0.0896,-0.1239 -0.19891,-0.21351 -0.215,-0.1762 -0.26353,-0.18037 -0.75887,-0.0665 -0.60896,0.14007 -1.05598,0.20591 -1.80679,0.26539 -0.62993,0.05 -1.89971,0.0251 -2.329,-0.0453 -0.13168,-0.0215 -0.38646,-0.0615 -0.56601,-0.0886 -0.17959,-0.0271 -0.39509,-0.0669 -0.4789,-0.0881 -0.33184,-0.0845 -0.72325,-0.18179 -0.81627,-0.20344 -0.016,-0.004 -0.0331,-0.005 -0.0514,-0.003 z m 11.98589,0.27445 c 0.0625,0.0563 0.11061,0.10449 0.14755,0.14854 -0.0369,-0.044 -0.0852,-0.0923 -0.14755,-0.14854 z m 0.22862,0.27292 c 0.0184,0.0403 0.0297,0.0811 0.0367,0.12589 0.0144,0.0915 0.0445,0.23673 0.0675,0.3233 0.0409,0.15445 0.0581,0.23893 -0.0156,0.38069 0.0737,-0.14176 0.0571,-0.22624 0.0161,-0.38069 -0.0229,-0.0865 -0.0531,-0.23179 -0.0674,-0.3233 -0.007,-0.045 -0.0186,-0.0855 -0.0372,-0.12589 z m 0.0886,0.82988 c -0.0368,0.0708 -0.0962,0.15609 -0.18632,0.27143 0.0904,-0.11566 0.14948,-0.20054 0.18632,-0.27143 z m -18.23465,-0.76542 c -0.0361,0.0294 -0.0894,0.17109 -0.11883,0.31474 -0.0293,0.14367 -0.0724,0.33602 -0.0962,0.42752 0.0238,-0.0915 0.0673,-0.28385 0.0967,-0.42752 0.0293,-0.14365 0.0827,-0.28531 0.11884,-0.31474 -6e-5,5e-5 -4.5e-4,-4e-5 -5.1e-4,0 z m -0.21501,0.74226 c -0.0229,0.0886 -0.0273,0.14325 -0.0131,0.18733 -0.0141,-0.044 -0.01,-0.0991 0.0131,-0.18733 z m 5.74619,-0.46127 c 0.39552,0.12175 0.76748,0.22139 1.16575,0.30013 -0.39852,-0.0787 -0.77006,-0.17834 -1.16575,-0.30013 z m 1.16575,0.30013 c 0.18708,0.0369 0.38978,0.0688 0.59724,0.10021 -0.2073,-0.0314 -0.41031,-0.0632 -0.59724,-0.10021 z m 5.78347,-0.14503 c -0.5178,0.13549 -1.06269,0.24024 -1.60437,0.31171 0.54164,-0.0714 1.08656,-0.17624 1.60437,-0.31171 z m -2.67545,0.4094 c -0.34584,0.017 -0.68097,0.018 -0.99808,0.004 0.31709,0.0145 0.65227,0.0134 0.99808,-0.004 z m -10.02198,0.10877 c 0.005,0.009 0.009,0.0182 0.0156,0.0267 0.0788,0.0997 1.14927,1.38029 1.26395,1.51221 9e-5,1.1e-4 4.1e-4,-1.1e-4 5e-4,0 -0.11468,-0.13192 -1.18511,-1.41253 -1.26395,-1.51221 -0.007,-0.009 -0.0113,-0.0176 -0.0161,-0.0267 z m 18.26486,0.0831 c -0.0904,0.11566 -0.21197,0.26131 -0.37264,0.45371 -0.33937,0.40633 -0.6578,0.77509 -0.70751,0.8193 1.1e-4,-1e-4 3.9e-4,1e-4 5e-4,0 0.0497,-0.0442 0.36815,-0.41297 0.70751,-0.8193 0.16049,-0.19217 0.28173,-0.33811 0.37214,-0.45371 z m -15.92328,1.46638 c -0.0548,0.0421 -0.0996,0.066 -0.17625,0.0795 0.0769,-0.0134 0.12154,-0.0375 0.17625,-0.0795 z" />
    <path
       style="display:inline;fill:#000000;stroke-width:0.999995"
       d="m 122.33944,150.02905 c -0.11769,-0.13538 -1.2161,-1.44951 -1.29704,-1.55181 -0.0442,-0.0557 -0.0476,-0.11632 -0.0143,-0.24485 0.0244,-0.0939 0.0689,-0.2914 0.099,-0.43884 0.0301,-0.14741 0.085,-0.29271 0.12196,-0.32287 0.037,-0.0301 0.11928,-0.10111 0.18293,-0.15765 0.0636,-0.0566 0.36698,-0.31333 0.67409,-0.57061 0.3071,-0.25729 0.59861,-0.50508 0.64778,-0.55065 0.0492,-0.0455 0.13463,-0.11321 0.18992,-0.15033 0.14023,-0.0941 0.12595,-0.16772 -0.0605,-0.31218 -1.09122,-0.84518 -1.91318,-1.65655 -2.63823,-2.60419 -0.24793,-0.32405 -0.72386,-1.02445 -0.86279,-1.2697 -0.0498,-0.0879 -0.13403,-0.23528 -0.18716,-0.32742 -0.26723,-0.46346 -0.43211,-0.81884 -0.84465,-1.82048 -0.0534,-0.12961 -0.28887,-0.86298 -0.34428,-1.07219 -0.2085,-0.78711 -0.29337,-1.21569 -0.36717,-1.854 -0.027,-0.23341 -0.0683,-0.57518 -0.0919,-0.75947 -0.0563,-0.43961 -0.0542,-1.42644 0.004,-1.93827 0.14249,-1.25141 0.22372,-1.69772 0.48877,-2.68553 0.22094,-0.8234 0.77098,-2.12322 1.23829,-2.92619 0.83019,-1.42654 1.73635,-2.50392 3.00676,-3.57488 0.15972,-0.13463 0.30915,-0.27473 0.33208,-0.3113 0.0229,-0.0365 0.12582,-0.15721 0.22862,-0.26805 0.12003,-0.12941 0.22339,-0.30519 0.2888,-0.49113 0.15041,-0.42759 0.34997,-0.76522 0.7028,-1.18902 0.67604,-0.812 1.86139,-1.28811 2.83698,-1.13946 0.20271,0.0309 0.42504,0.0777 0.49406,0.10394 0.11794,0.0448 0.14217,0.0313 0.40207,-0.22522 0.34458,-0.34008 0.43904,-0.41202 0.74238,-0.56525 0.39915,-0.20164 0.65918,-0.26143 1.14248,-0.26269 0.64551,-0.002 1.08191,0.14988 1.62142,0.56321 l 0.23651,0.18118 0.12089,-0.0873 c 0.42827,-0.3092 0.98492,-0.47144 1.61747,-0.47144 0.65203,0 1.0165,0.10425 1.56362,0.44731 0.28976,0.18169 0.81089,0.70914 0.91279,0.92388 0.0747,0.15765 0.1116,0.17808 0.4051,0.22485 0.45342,0.0723 0.87094,0.26301 1.23023,0.562 0.26592,0.2213 0.64104,0.67916 0.71549,0.87328 0.0203,0.0531 0.0834,0.1292 0.14015,0.16927 1.20843,0.85312 2.0504,1.59027 2.7582,2.41479 0.46311,0.53948 1.20934,1.53422 1.20934,1.61209 0,0.015 0.0378,0.0804 0.0841,0.14565 0.24222,0.34164 1.07747,2.01081 1.07747,2.15321 0,0.0242 0.0194,0.0789 0.0431,0.12152 0.0446,0.0801 0.25866,0.72819 0.35779,1.08276 0.0309,0.11057 0.0718,0.25129 0.091,0.31273 0.0192,0.0614 0.0585,0.2323 0.0878,0.37971 0.0292,0.14744 0.07,0.34848 0.0908,0.44675 0.0437,0.20715 0.10817,0.64297 0.17569,1.1862 0.0603,0.48448 0.0618,2.07343 0.002,2.53114 -0.14055,1.08434 -0.16518,1.23698 -0.26884,1.66595 -0.0208,0.086 -0.0615,0.25687 -0.0903,0.37973 -0.19232,0.81626 -0.53213,1.70969 -1.01102,2.65814 -0.39923,0.79068 -0.47002,0.91282 -0.86248,1.48841 -0.90351,1.32508 -1.87333,2.3286 -3.1822,3.29282 -0.11595,0.0854 -0.21144,0.1771 -0.21221,0.20377 -9.8e-4,0.051 0.0886,0.13624 0.49049,0.46468 0.1349,0.11023 0.25532,0.21102 0.2676,0.22398 0.0122,0.013 0.13291,0.11311 0.26806,0.22255 0.39058,0.3163 0.48408,0.42784 0.51294,0.61196 0.0148,0.0939 0.0461,0.24337 0.0696,0.33221 0.0841,0.31701 0.0692,0.34555 -0.59036,1.13533 -0.34826,0.41698 -0.67494,0.79529 -0.72595,0.84067 -0.0801,0.0713 -0.15393,0.0803 -0.54258,0.0662 l -0.44984,-0.0163 -0.51826,-0.43436 c -0.28505,-0.2389 -0.545,-0.45975 -0.57767,-0.49079 -0.0327,-0.031 -0.16999,-0.14653 -0.30513,-0.25665 -0.13515,-0.11012 -0.25576,-0.21083 -0.26805,-0.22377 -0.0123,-0.013 -0.13291,-0.11349 -0.26804,-0.22338 -0.13515,-0.1099 -0.25578,-0.21081 -0.26806,-0.22428 -0.0122,-0.0134 -0.11706,-0.10101 -0.23283,-0.19446 -0.24051,-0.19425 -0.12003,-0.20183 -1.17442,0.0741 -1.41741,0.37089 -3.03162,0.51807 -4.25785,0.38816 -1.3435,-0.14231 -2.10093,-0.29204 -3.08303,-0.60938 -0.17984,-0.0582 -0.35072,-0.0918 -0.37974,-0.0751 -0.0592,0.0344 -0.46652,0.36346 -0.56042,0.45275 -0.0335,0.0319 -0.41547,0.35297 -0.84882,0.71356 -0.43333,0.3606 -0.79793,0.66659 -0.81022,0.68001 -0.0122,0.0134 -0.1329,0.11429 -0.26805,0.22419 -0.13514,0.10988 -0.25576,0.21082 -0.26804,0.22429 -0.0123,0.0135 -0.0804,0.0691 -0.15122,0.12347 -0.11263,0.0866 -0.18342,0.099 -0.56154,0.099 -0.40398,0 -0.439,-0.007 -0.52825,-0.10993 z m 1.03998,-0.28138 c 0.0737,-0.0675 0.24459,-0.21314 0.37972,-0.3235 0.13514,-0.11033 0.27313,-0.2267 0.30664,-0.25856 0.0335,-0.0319 0.41547,-0.35298 0.84882,-0.71357 0.43334,-0.36059 0.79794,-0.6666 0.81022,-0.68001 0.0122,-0.0134 0.13291,-0.11448 0.26805,-0.2246 0.13514,-0.11012 0.27313,-0.22629 0.30665,-0.25816 0.0335,-0.0319 0.41547,-0.35297 0.8488,-0.71357 0.43335,-0.36059 0.79795,-0.66701 0.81024,-0.6809 0.0122,-0.0139 0.11782,-0.10237 0.23453,-0.19668 l 0.21221,-0.17139 v -0.30885 c 0,-0.34343 0.0111,-0.36056 0.47045,-0.73072 0.12166,-0.098 0.27164,-0.22494 0.33329,-0.28204 0.0617,-0.057 0.22768,-0.19576 0.36896,-0.30815 l 0.25688,-0.20431 v -0.37026 -0.37026 l 0.29414,-0.25976 0.29415,-0.25976 -0.23437,-0.21221 c -0.1289,-0.11671 -0.2635,-0.21221 -0.29911,-0.21221 -0.0357,0 -0.16344,0.0827 -0.28408,0.18364 -0.18893,0.15819 -0.23931,0.17969 -0.36359,0.15514 -0.0794,-0.0157 -0.24748,-0.0403 -0.37362,-0.0547 l -0.22934,-0.0263 -0.55245,0.46297 c -0.30386,0.25463 -0.58041,0.48949 -0.61458,0.52194 -0.19185,0.18216 -0.25734,0.19774 -0.58494,0.13919 -0.29373,-0.0525 -0.32121,-0.0503 -0.41454,0.0316 -0.055,0.0482 -0.28088,0.23749 -0.50202,0.4204 -0.22113,0.18292 -0.41211,0.34294 -0.42441,0.35561 -0.0123,0.0127 -0.13291,0.11297 -0.26804,0.22285 -0.13514,0.10989 -0.25576,0.21118 -0.26805,0.22507 -0.0123,0.0139 -0.39425,0.33573 -0.84882,0.71519 -0.45456,0.37946 -0.8521,0.71422 -0.88342,0.74391 -0.0313,0.0297 -0.15193,0.1303 -0.268,0.22359 -0.11606,0.0934 -0.23779,0.19492 -0.2705,0.22584 -0.0327,0.0309 -0.2941,0.25126 -0.58083,0.48965 -0.68488,0.56938 -0.75587,0.64506 -0.7944,0.84706 -0.0858,0.44964 -0.0891,0.44228 0.56342,1.23841 l 0.60312,0.73581 0.35739,0.003 c 0.32945,0.002 0.36788,-0.007 0.49143,-0.12017 z m -0.32512,-0.34836 c -0.0622,-0.0435 -0.0993,-0.11605 -0.0993,-0.19377 0,-0.13056 0.13068,-0.27149 0.62544,-0.67451 0.13515,-0.11008 0.25576,-0.21152 0.26804,-0.2254 0.0122,-0.0139 0.39427,-0.33554 0.84883,-0.71477 0.45456,-0.37925 0.83652,-0.70014 0.84881,-0.71311 0.0122,-0.013 0.13291,-0.11368 0.26806,-0.2238 0.13512,-0.11013 0.27133,-0.22451 0.30266,-0.25418 0.0313,-0.0297 0.15194,-0.1303 0.26805,-0.22358 0.11609,-0.0934 0.22113,-0.18092 0.23342,-0.19474 0.0915,-0.10289 0.95711,-0.80246 0.99806,-0.80665 0.19081,-0.0195 0.34219,0.10216 0.34219,0.27493 0,0.11754 -0.21224,0.33823 -0.65198,0.67799 -0.0714,0.0552 -0.15725,0.12673 -0.19076,0.15902 -0.0335,0.0322 -0.41549,0.35371 -0.84882,0.71432 -0.43334,0.36059 -0.79794,0.66659 -0.81023,0.68 -0.0122,0.0134 -0.1329,0.11448 -0.26804,0.2246 -0.13514,0.11012 -0.27134,0.22449 -0.30267,0.25418 -0.0313,0.0297 -0.15194,0.13028 -0.26804,0.22357 -0.11611,0.0934 -0.22115,0.18063 -0.23344,0.1941 -0.0532,0.0583 -0.88136,0.74609 -0.9816,0.81519 -0.13693,0.0944 -0.22108,0.096 -0.34869,0.007 z m -0.90811,-0.38996 c -0.0905,-0.069 -0.13991,-0.22049 -0.1031,-0.31638 0.0155,-0.0405 0.32258,-0.3194 0.6823,-0.6197 0.35971,-0.3003 0.66406,-0.55673 0.67635,-0.56984 0.0123,-0.0132 0.13292,-0.11392 0.26806,-0.22404 0.13513,-0.11012 0.27133,-0.22451 0.30266,-0.25418 0.0313,-0.0297 0.15192,-0.13029 0.26799,-0.22358 0.11606,-0.0934 0.23848,-0.19559 0.27203,-0.22735 0.0336,-0.0317 0.41553,-0.35333 0.84887,-0.71461 0.43333,-0.3613 0.83814,-0.70074 0.89957,-0.75434 0.50862,-0.44374 0.6948,-0.5122 0.83037,-0.3053 0.0438,0.067 0.0623,0.15382 0.0464,0.21777 -0.0166,0.0665 -0.31628,0.34713 -0.79791,0.74753 -0.42415,0.35262 -0.79681,0.66581 -0.82813,0.69598 -0.0313,0.0301 -0.15193,0.13118 -0.26799,0.22447 -0.11607,0.0934 -0.23849,0.19559 -0.27203,0.22735 -0.0336,0.0317 -0.41554,0.35277 -0.84887,0.71337 -0.43334,0.36059 -0.79794,0.66659 -0.81023,0.68001 -0.0123,0.0134 -0.13291,0.11428 -0.26805,0.22417 -0.13513,0.1099 -0.25576,0.21018 -0.26804,0.22284 -0.27513,0.28363 -0.48288,0.36797 -0.63011,0.25583 z m -0.30481,-1.04312 c -0.15739,-0.20008 -0.13102,-0.24955 0.34733,-0.65177 0.2126,-0.17878 0.41219,-0.34924 0.44351,-0.3788 0.0313,-0.0296 0.15191,-0.13009 0.26798,-0.22338 0.11608,-0.0934 0.23849,-0.19559 0.27203,-0.22734 0.0336,-0.0318 0.41554,-0.35278 0.84888,-0.71338 0.43334,-0.36059 0.79794,-0.66659 0.81022,-0.68001 0.0122,-0.0134 0.1329,-0.11447 0.26805,-0.22459 0.13514,-0.11013 0.27135,-0.22449 0.30265,-0.25418 0.0313,-0.0297 0.15195,-0.13029 0.26806,-0.22359 0.1161,-0.0933 0.22115,-0.17992 0.23343,-0.19255 0.40633,-0.41765 0.69978,-0.51243 0.82669,-0.26703 0.11359,0.21966 0.18319,0.14672 -1.40746,1.47488 -0.60199,0.50263 -1.12015,0.93829 -1.15147,0.9681 -0.0313,0.0298 -0.15177,0.13055 -0.26766,0.22384 -0.11589,0.0934 -0.28124,0.23249 -0.36746,0.30933 -0.6061,0.54029 -1.42068,1.17818 -1.5045,1.17818 -0.0537,0 -0.13935,-0.053 -0.19028,-0.11771 z m 17.20088,1.02237 c 0.3014,-0.36241 0.58643,-0.70245 0.63336,-0.75562 0.0795,-0.0899 0.0813,-0.11849 0.0275,-0.40944 -0.0657,-0.3555 -0.0746,-0.37027 -0.36264,-0.60167 -0.11611,-0.0933 -0.23672,-0.19389 -0.26804,-0.22356 -0.0313,-0.0297 -0.16753,-0.14407 -0.30268,-0.2542 -0.13513,-0.11011 -0.25575,-0.21096 -0.26804,-0.2241 -0.0122,-0.0132 -0.51487,-0.43432 -1.11687,-0.93595 -0.60198,-0.50165 -1.10457,-0.9234 -1.11686,-0.93724 -0.0122,-0.0138 -0.11733,-0.10153 -0.23343,-0.19477 -0.1161,-0.0934 -0.23671,-0.1939 -0.26804,-0.22357 -0.0313,-0.0297 -0.16732,-0.14434 -0.30222,-0.25479 -0.13489,-0.11046 -0.29573,-0.24404 -0.3574,-0.29683 -0.0617,-0.0529 -0.2227,-0.18959 -0.35784,-0.304 l -0.24571,-0.20801 -0.33506,0.006 c -0.43996,0.007 -0.41708,0.0109 -0.5165,-0.0789 -0.0476,-0.043 -0.19717,-0.16838 -0.33232,-0.27861 -0.13513,-0.11023 -0.25575,-0.21075 -0.26804,-0.22338 -0.029,-0.0298 -0.53747,-0.45427 -0.62841,-0.52458 -0.0484,-0.0375 -0.11722,-0.042 -0.22338,-0.0148 -0.32183,0.0827 -0.56591,0.0973 -0.62847,0.0378 -0.0336,-0.0319 -0.17158,-0.14809 -0.30672,-0.25822 -0.13515,-0.11012 -0.25576,-0.21119 -0.26804,-0.22459 -0.0122,-0.0134 -0.37689,-0.31941 -0.81024,-0.68001 -0.43333,-0.36059 -0.81533,-0.68162 -0.84888,-0.71337 -0.0336,-0.0318 -0.15594,-0.13406 -0.27201,-0.22735 -0.11607,-0.0933 -0.23666,-0.1939 -0.26799,-0.22357 -0.0313,-0.0296 -0.16753,-0.14407 -0.30266,-0.25419 -0.13515,-0.11011 -0.25576,-0.21119 -0.26805,-0.22459 -0.0122,-0.0134 -0.37688,-0.31941 -0.81023,-0.68 -0.43333,-0.3606 -0.81531,-0.68171 -0.84881,-0.71357 -0.0335,-0.0319 -0.1715,-0.14805 -0.30664,-0.25817 -0.13513,-0.11012 -0.25576,-0.21118 -0.26805,-0.22459 -0.0123,-0.0134 -0.37415,-0.31787 -0.80414,-0.67658 -0.42999,-0.35872 -0.84211,-0.70598 -0.91582,-0.77169 -0.0737,-0.0657 -0.20439,-0.15478 -0.29039,-0.1979 -0.086,-0.0431 -0.20663,-0.10546 -0.26804,-0.13851 -0.22596,-0.12162 -0.27264,-0.13795 -0.3165,-0.11084 -0.0247,0.0152 -0.0691,0.008 -0.0987,-0.0139 -0.0296,-0.0228 -0.0903,-0.0546 -0.13499,-0.0707 -0.0672,-0.024 -0.0762,-0.0117 -0.053,0.0712 0.0436,0.15522 0.2049,0.46722 0.28749,0.55617 0.0409,0.0442 0.0866,0.11183 0.10133,0.15055 0.0149,0.0387 0.39572,0.37943 0.84655,0.75715 0.45083,0.37773 0.82976,0.69815 0.84204,0.71204 0.0123,0.0139 0.1329,0.11518 0.26805,0.22506 0.13515,0.10989 0.25576,0.21078 0.26804,0.22417 0.0122,0.0134 0.37689,0.31942 0.81022,0.68002 0.43335,0.3606 0.81534,0.68161 0.84889,0.71337 0.0336,0.0317 0.15595,0.13406 0.27201,0.22735 0.11608,0.0934 0.23667,0.1939 0.26799,0.22357 0.0313,0.0297 0.16753,0.14406 0.30267,0.25418 0.13513,0.11012 0.25576,0.21119 0.26805,0.22459 0.0123,0.0134 0.37688,0.31943 0.81022,0.68002 0.43335,0.3606 0.81533,0.6816 0.84887,0.71337 0.0336,0.0317 0.15596,0.13406 0.27203,0.22734 0.11607,0.0934 0.23666,0.19423 0.26799,0.2243 0.0313,0.03 0.15244,0.13208 0.26915,0.22667 l 0.21221,0.17199 v 0.36717 c 0,0.40956 -0.0225,0.37383 0.5022,0.79686 0.1157,0.0934 0.23601,0.19389 0.26732,0.22357 0.0313,0.0297 0.16753,0.14425 0.30266,0.25459 0.13515,0.11035 0.27085,0.22443 0.30156,0.25349 0.0307,0.029 0.0569,0.15983 0.0584,0.29058 0.005,0.43143 0.0204,0.45009 1.24836,1.47205 0.62657,0.52145 1.14925,0.95964 1.16154,0.97375 0.0123,0.0141 0.11733,0.10195 0.23344,0.19528 0.11609,0.0934 0.23671,0.1939 0.26804,0.22357 0.0313,0.0297 0.16732,0.14434 0.30222,0.25479 0.13489,0.11047 0.29572,0.24444 0.35738,0.29771 0.0617,0.0532 0.45138,0.37996 0.86601,0.72596 l 0.75387,0.62909 h 0.34807 0.34808 z m -1.34466,0.26898 c -0.0369,-0.014 -0.077,-0.0382 -0.0894,-0.0537 -0.0123,-0.0155 -0.37689,-0.32328 -0.81023,-0.68388 -0.43334,-0.36059 -0.81531,-0.6817 -0.84882,-0.71356 -0.0335,-0.0318 -0.1715,-0.14804 -0.30664,-0.25816 -0.13513,-0.11012 -0.25575,-0.21118 -0.26804,-0.2246 -0.0122,-0.0134 -0.37415,-0.31783 -0.80414,-0.6765 -0.43,-0.35867 -0.82459,-0.68974 -0.87689,-0.7357 -0.0522,-0.046 -0.19781,-0.16399 -0.32339,-0.26228 -0.12557,-0.0983 -0.24077,-0.22393 -0.25599,-0.27922 -0.0422,-0.15334 0.0121,-0.30103 0.13515,-0.36684 0.1145,-0.0612 0.21346,-0.0253 0.38786,0.14059 0.0341,0.0325 0.17268,0.14923 0.30782,0.25934 0.13513,0.11012 0.25576,0.2112 0.26804,0.22459 0.0123,0.0134 0.37689,0.31943 0.81023,0.68002 0.43334,0.3606 0.81533,0.6816 0.84887,0.71337 0.0336,0.0317 0.15595,0.13406 0.27203,0.22735 0.11607,0.0934 0.23666,0.19389 0.26799,0.22357 0.0313,0.0297 0.16752,0.14406 0.30265,0.25418 0.13515,0.11012 0.25576,0.21101 0.26805,0.22418 0.0122,0.0132 0.25856,0.2207 0.54726,0.46115 0.47497,0.39555 0.52494,0.45115 0.52494,0.584 0,0.22115 -0.15891,0.33769 -0.35739,0.26213 z m 0.6882,-0.62258 c -0.29458,-0.23787 -1.10029,-0.91297 -1.13495,-0.95097 -0.0123,-0.0135 -0.11732,-0.1008 -0.23343,-0.19411 -0.1161,-0.0934 -0.23672,-0.19401 -0.26805,-0.22382 -0.0313,-0.0298 -0.54948,-0.46488 -1.15147,-0.96678 -0.602,-0.5019 -1.10458,-0.92387 -1.11687,-0.93771 -0.0122,-0.0138 -0.13793,-0.12222 -0.27923,-0.24083 -0.28828,-0.242 -0.34762,-0.37746 -0.23842,-0.54411 0.0931,-0.14203 0.27829,-0.1467 0.42916,-0.0109 0.0614,0.0553 0.20645,0.17684 0.32232,0.27014 0.11589,0.0934 0.23633,0.19388 0.26765,0.22357 0.0313,0.0297 0.16752,0.14404 0.30266,0.25417 0.13515,0.11012 0.25576,0.21119 0.26805,0.22461 0.0122,0.0134 0.37688,0.3194 0.81023,0.68 0.43334,0.36059 0.81533,0.68161 0.84888,0.71337 0.0336,0.0317 0.15595,0.13406 0.27202,0.22734 0.11607,0.0934 0.23666,0.1939 0.26798,0.22358 0.0313,0.0297 0.16752,0.14434 0.30267,0.2548 0.13513,0.11046 0.27954,0.23098 0.32088,0.26784 0.0413,0.0368 0.18669,0.15748 0.32298,0.26805 0.27755,0.22516 0.33984,0.36128 0.24392,0.533 -0.10619,0.19007 -0.25724,0.17074 -0.55698,-0.0713 z m 0.49298,-0.78662 c -0.0752,-0.0412 -1.51179,-1.22394 -1.67874,-1.382 -0.0336,-0.0317 -0.15596,-0.13406 -0.27203,-0.22734 -0.11608,-0.0934 -0.23667,-0.1939 -0.26799,-0.22358 -0.0313,-0.0297 -0.16752,-0.14406 -0.30266,-0.25418 -0.13514,-0.11013 -0.25576,-0.21119 -0.26805,-0.2246 -0.0122,-0.0134 -0.37415,-0.31783 -0.80414,-0.67651 -1.12682,-0.93994 -1.09292,-0.9028 -1.01875,-1.11562 0.0775,-0.222 0.31441,-0.22432 0.54967,-0.005 0.0737,0.0686 0.48857,0.42002 0.9219,0.78094 0.43335,0.36093 0.81535,0.68222 0.84888,0.71396 0.0336,0.0318 0.15597,0.13407 0.27203,0.22737 0.11608,0.0934 0.23667,0.19389 0.26799,0.22357 0.0313,0.0297 0.16752,0.14423 0.30266,0.25459 0.13514,0.11035 0.26738,0.22083 0.29386,0.24551 0.0265,0.0247 0.37326,0.31477 0.77064,0.64465 0.69542,0.57731 0.72248,0.60598 0.72248,0.76517 0,0.22358 -0.16569,0.34793 -0.33775,0.25348 z m -7.08583,0.0121 c 0.58002,-0.0601 1.10802,-0.13042 1.32551,-0.17663 0.0983,-0.0209 0.28926,-0.0608 0.42441,-0.0889 0.59601,-0.12347 0.98283,-0.24045 0.98283,-0.29724 0,-0.0286 -0.0918,-0.12713 -0.20406,-0.21909 -0.22064,-0.18081 -0.27045,-0.18518 -0.77877,-0.0683 -0.62492,0.14374 -1.08351,0.21103 -1.854,0.27207 -0.64644,0.0513 -1.94955,0.0261 -2.39009,-0.0462 -0.13513,-0.0221 -0.39649,-0.063 -0.58075,-0.0909 -0.1843,-0.0278 -0.40543,-0.0686 -0.49143,-0.0903 -0.34054,-0.0867 -0.74228,-0.18686 -0.83774,-0.20908 -0.0657,-0.0153 -0.1508,0.0152 -0.24571,0.0883 -0.20127,0.15514 -0.34614,0.28487 -0.34614,0.30995 0,0.0115 0.0854,0.0467 0.18987,0.0781 0.10447,0.0313 0.24013,0.0732 0.30155,0.093 0.30632,0.0986 1.13377,0.27249 1.6753,0.3521 0.91253,0.13412 2.06573,0.17201 2.82922,0.093 z m 6.4813,-2.37793 c 1.04046,-0.78684 2.05579,-1.77798 2.74103,-2.67569 0.18463,-0.24187 0.76423,-1.10562 0.80576,-1.20076 0.0161,-0.0368 0.0898,-0.16753 0.16377,-0.29037 0.13605,-0.22589 0.32058,-0.59269 0.48323,-0.96051 0.0489,-0.11058 0.13423,-0.30156 0.18961,-0.42441 0.0554,-0.12286 0.11642,-0.27363 0.13563,-0.33506 0.0191,-0.0614 0.0793,-0.2323 0.13357,-0.37973 0.0542,-0.14744 0.11475,-0.32836 0.13443,-0.40208 0.42246,-1.58293 0.53321,-2.36218 0.53365,-3.75498 3.1e-4,-0.98295 -0.0517,-1.54622 -0.22836,-2.47711 -0.13174,-0.69389 -0.39811,-1.58737 -0.69259,-2.32311 -0.22216,-0.55509 -0.73853,-1.56888 -0.95567,-1.8763 -0.0433,-0.0614 -0.12236,-0.1893 -0.17551,-0.28418 -0.0866,-0.15474 -0.39675,-0.58256 -0.78098,-1.07751 -0.30848,-0.39736 -1.05618,-1.17409 -1.55062,-1.61081 -0.36024,-0.31818 -0.88189,-0.71314 -0.94191,-0.71314 -0.0346,0 -0.0481,0.10163 -0.0418,0.31272 0.0105,0.34616 -0.0351,0.28038 0.51996,0.75044 0.48028,0.40672 1.24774,1.19954 1.58725,1.63965 0.0853,0.11057 0.16571,0.21109 0.1787,0.22338 0.0227,0.0215 0.14964,0.19844 0.50432,0.70316 0.0904,0.12874 0.1645,0.24627 0.1645,0.26115 0,0.015 0.0405,0.0839 0.0899,0.1533 0.0833,0.11709 0.20736,0.33822 0.4379,0.78105 0.0924,0.17756 0.33762,0.71234 0.41474,0.90466 0.0222,0.0553 0.0595,0.14575 0.0829,0.20104 0.0747,0.17662 0.39107,1.16498 0.44322,1.38491 0.15029,0.63382 0.21225,0.95325 0.27075,1.39608 0.0779,0.58956 0.13722,1.31866 0.13709,1.68486 -1.8e-4,0.46918 -0.13211,1.77109 -0.22315,2.20182 -0.0207,0.0983 -0.0616,0.29932 -0.0909,0.44675 -0.0292,0.14742 -0.0688,0.3183 -0.0878,0.37973 -0.0191,0.0615 -0.0601,0.20215 -0.0914,0.31272 -0.5488,1.94917 -1.65658,3.84564 -3.08011,5.27302 -0.25689,0.25758 -0.90866,0.84059 -1.0399,0.93019 -0.0551,0.0377 -0.11022,0.0797 -0.1225,0.0934 -0.0402,0.0448 -0.37512,0.2953 -0.59908,0.44797 l -0.21936,0.14952 0.19702,0.1703 c 0.10835,0.0936 0.22531,0.1709 0.25989,0.17164 0.0345,6.9e-4 0.17531,-0.0836 0.31273,-0.18761 z m -14.62138,-0.0456 c 0.22677,-0.17072 0.24256,-0.25456 0.0674,-0.35802 -0.27842,-0.16447 -1.12601,-0.88288 -1.59239,-1.34971 -0.72362,-0.72432 -1.48356,-1.70507 -1.963,-2.53337 -0.23011,-0.39754 -0.78388,-1.56085 -0.78388,-1.64671 0,-0.0242 -0.0194,-0.0789 -0.043,-0.12153 -0.071,-0.12766 -0.3526,-1.02239 -0.4463,-1.4178 -0.11195,-0.47244 -0.12692,-0.55143 -0.27497,-1.45193 -0.0706,-0.42888 -0.0755,-2.5082 -0.007,-2.90384 0.0276,-0.15971 0.0725,-0.44116 0.0999,-0.62545 0.15573,-1.05267 0.61163,-2.45179 1.12818,-3.46228 0.51466,-1.00677 1.19892,-1.99633 1.88438,-2.72514 0.324,-0.34448 0.33624,-0.36547 0.33882,-0.58078 9.8e-4,-0.12284 0.0202,-0.29885 0.0417,-0.39112 0.0215,-0.0922 0.0252,-0.17631 0.008,-0.18672 -0.044,-0.0271 -0.96768,0.91839 -1.28457,1.31498 -0.32645,0.40853 -0.86611,1.1591 -0.89941,1.25089 -0.0133,0.0368 -0.0588,0.11727 -0.10112,0.17869 -0.1795,0.26089 -0.64107,1.13993 -0.77416,1.47438 -0.044,0.11051 -0.10626,0.26123 -0.1384,0.33494 -0.13632,0.31252 -0.33892,0.90146 -0.46875,1.36258 -0.0311,0.11056 -0.0719,0.25129 -0.0905,0.31272 -0.0641,0.21093 -0.19798,0.90377 -0.26327,1.36258 -0.14177,0.99634 -0.17403,1.94457 -0.0937,2.75705 0.0957,0.96857 0.15523,1.33284 0.36181,2.21298 0.17469,0.7443 0.68021,2.08869 0.9869,2.62463 0.0282,0.0492 0.10481,0.18986 0.17042,0.31272 0.71631,1.3413 1.86435,2.74618 3.03694,3.71637 0.39832,0.32955 0.85856,0.68357 0.88913,0.68388 0.009,1e-4 0.10475,-0.0652 0.21082,-0.14499 z m 5.59758,-3.56787 c 0.31544,-0.0534 0.37542,-0.0814 0.32569,-0.15268 -0.0174,-0.0249 -0.26624,-0.2407 -0.553,-0.47948 -0.28673,-0.23881 -0.54811,-0.45949 -0.58083,-0.49043 -0.0327,-0.0309 -0.15444,-0.13254 -0.27051,-0.22583 -0.11606,-0.0933 -0.23666,-0.19389 -0.26799,-0.22358 -0.0313,-0.0297 -0.16752,-0.14405 -0.30266,-0.25418 -0.13514,-0.11012 -0.25577,-0.21118 -0.26804,-0.2246 -0.0122,-0.0134 -0.37689,-0.31939 -0.81023,-0.67999 -0.43334,-0.3606 -0.81531,-0.68205 -0.84882,-0.71433 -0.0335,-0.0322 -0.11509,-0.10049 -0.1813,-0.15157 -0.0662,-0.0511 -0.22703,-0.18462 -0.35739,-0.29677 -0.13037,-0.11214 -0.58521,-0.49439 -1.01077,-0.84946 -0.59324,-0.49494 -0.81993,-0.71438 -0.97167,-0.94058 -0.10887,-0.16227 -0.19793,-0.31362 -0.19793,-0.33633 0,-0.0459 -0.13538,-0.10907 -0.16658,-0.0778 -0.0269,0.0269 0.0739,0.68694 0.13036,0.85349 0.11234,0.33149 0.3443,0.72855 0.54934,0.94028 0.095,0.0981 0.4548,0.32061 0.62609,0.38717 l 0.17869,0.0694 0.0277,0.39607 c 0.0306,0.43658 0.0654,0.57065 0.2425,0.93259 0.12645,0.25845 0.56996,0.71128 0.80398,0.82087 0.0727,0.034 0.17273,0.0802 0.22248,0.10268 0.11684,0.0528 0.65618,0.0677 0.91472,0.0253 l 0.20103,-0.033 0.14635,0.30451 c 0.3212,0.6683 0.94664,1.13811 1.70765,1.28272 0.38386,0.073 0.37273,0.0726 0.71112,0.0154 z m 3.91333,-0.0879 c 0.38166,-0.18408 0.80821,-0.61273 1.00594,-1.01092 0.0829,-0.16685 0.15624,-0.31133 0.16307,-0.32106 0.007,-0.009 0.0881,0.0308 0.18084,0.0901 0.34525,0.22116 0.59665,0.30725 0.89713,0.30725 0.61348,0 1.25582,-0.43019 1.53639,-1.02896 0.22079,-0.47119 0.23641,-0.54192 0.23656,-1.07074 1.3e-4,-0.51378 -0.0774,-0.90258 -0.21833,-1.09537 -0.1006,-0.13752 -0.5635,0.13043 -1.33651,0.77357 -0.37332,0.31059 -0.68881,0.57567 -0.70109,0.58907 -0.0123,0.0134 -0.13291,0.11444 -0.26805,0.22457 -0.13515,0.11011 -0.27134,0.2245 -0.30266,0.25418 -0.0313,0.0297 -0.15191,0.13029 -0.26799,0.22357 -0.11607,0.0933 -0.23848,0.1956 -0.27203,0.22735 -0.0336,0.0318 -0.41553,0.35334 -0.84887,0.71462 -1.3743,1.1458 -1.34032,1.11429 -1.25906,1.16737 0.0675,0.0442 0.20628,0.0312 0.52495,-0.049 0.16466,-0.0413 0.20319,-0.0358 0.31273,0.046 0.17021,0.12695 0.28321,0.11932 0.61698,-0.0417 z m -1.62383,-0.25411 c 0.008,-0.0188 0.12498,-0.12444 0.25953,-0.23455 0.13455,-0.1101 0.27253,-0.22616 0.30664,-0.25791 0.0341,-0.0318 0.41655,-0.35277 0.84989,-0.71337 0.43334,-0.3606 0.79795,-0.6666 0.81023,-0.68001 0.0122,-0.0133 0.1329,-0.11448 0.26805,-0.2246 0.13513,-0.11012 0.27133,-0.22449 0.30266,-0.25417 0.0313,-0.0297 0.15177,-0.13029 0.26766,-0.22357 0.11589,-0.0934 0.28125,-0.23265 0.36745,-0.30972 0.72275,-0.64592 1.21783,-1.01203 1.68646,-1.24711 0.30058,-0.15078 0.54957,-0.30851 0.62017,-0.39286 0.0649,-0.0776 0.28118,-0.31841 0.48063,-0.53531 0.19948,-0.2169 0.39084,-0.44037 0.42526,-0.49661 0.0718,-0.11736 0.048,-0.16463 -0.23729,-0.47309 l -0.16497,-0.1783 -0.1956,0.13457 c -0.10759,0.0741 -0.20638,0.13458 -0.21957,0.13458 -0.0132,0 -0.25581,0.15248 -0.53921,0.33883 -0.46664,0.30683 -0.54585,0.37946 -0.83922,0.7692 -0.2574,0.34195 -0.47238,0.55458 -1.04632,1.03491 -0.3973,0.3325 -0.76949,0.64476 -0.82709,0.6939 -0.0576,0.0492 -0.21499,0.17972 -0.34976,0.29018 -0.13475,0.11046 -0.27065,0.22511 -0.30197,0.2548 -0.0313,0.0297 -0.15193,0.13028 -0.26799,0.22356 -0.11606,0.0934 -0.23848,0.19561 -0.27202,0.22736 -0.0336,0.0317 -0.41555,0.35315 -0.84888,0.71419 -0.43334,0.36107 -0.82809,0.69403 -0.87724,0.73992 -0.0492,0.046 -0.13458,0.1138 -0.18986,0.15092 -0.16561,0.11117 -0.14066,0.15992 0.2294,0.4482 0.12811,0.0999 0.2745,0.13174 0.30296,0.0661 z m -0.61964,-0.78095 c 0.12668,-0.10447 0.25821,-0.21585 0.29232,-0.24761 0.0341,-0.0317 0.41656,-0.35278 0.8499,-0.71337 0.43334,-0.36059 0.79793,-0.66659 0.81021,-0.68001 0.0123,-0.0134 0.13291,-0.11447 0.26805,-0.22459 0.13515,-0.11013 0.27135,-0.2245 0.30266,-0.25417 0.0313,-0.0297 0.15195,-0.1303 0.26805,-0.22358 0.11611,-0.0934 0.22116,-0.18125 0.23344,-0.19548 0.0122,-0.0142 0.35404,-0.30163 0.75946,-0.63869 0.72837,-0.60553 0.87902,-0.75901 1.22855,-1.25164 0.1344,-0.18942 0.28392,-0.31987 0.60311,-0.5262 0.23342,-0.15088 0.61814,-0.40047 0.85492,-0.55464 l 0.43051,-0.28028 0.0951,0.0885 c 0.0522,0.0487 0.22729,0.24839 0.3889,0.44372 0.16159,0.19534 0.31206,0.34386 0.33439,0.33007 0.0568,-0.0352 0.0508,-0.60062 -0.008,-0.78377 -0.0913,-0.28189 -0.22579,-0.55305 -0.35672,-0.71885 -0.0716,-0.0906 -0.13025,-0.18618 -0.13025,-0.21221 0,-0.0259 0.0794,-0.0473 0.17651,-0.0473 0.34799,0 0.96829,-0.17068 1.39104,-0.38275 1.13475,-0.56927 1.87666,-1.97107 1.69489,-3.20238 -0.19344,-1.31034 -0.95632,-2.22748 -2.23323,-2.68478 -0.27085,-0.097 -0.29301,-0.11558 -0.35893,-0.30083 -0.16647,-0.46783 -0.43924,-0.91259 -0.765,-1.2473 l -0.19566,-0.20104 0.0159,-0.60458 c 0.0183,-0.69563 -0.0149,-0.87114 -0.26568,-1.40577 -0.10956,-0.23356 -0.41936,-0.66538 -0.56235,-0.78383 -0.40437,-0.33498 -0.79959,-0.51558 -1.27332,-0.58185 -0.34013,-0.0476 -0.38227,-0.0643 -0.42999,-0.17001 -0.0997,-0.22077 -0.49194,-0.69795 -0.7092,-0.86257 -0.53296,-0.40383 -0.95909,-0.54931 -1.60018,-0.54629 -0.58951,0.003 -1.02725,0.14856 -1.4771,0.49194 -0.24491,0.18694 -0.31952,0.18931 -0.48373,0.0153 -0.21426,-0.22701 -0.6192,-0.47928 -1.01002,-0.62921 -0.2022,-0.0776 -1.00194,-0.0764 -1.20872,0.002 -0.40237,0.15209 -0.66528,0.31846 -0.96026,0.60763 -0.17545,0.17201 -0.3397,0.35099 -0.365,0.39777 -0.042,0.0776 -0.0632,0.0802 -0.24145,0.0296 -0.10749,-0.0305 -0.37073,-0.0878 -0.58499,-0.12746 -0.52688,-0.0976 -0.97551,-0.0329 -1.55167,0.22357 -0.7826,0.34836 -1.45012,1.11591 -1.72253,1.98067 -0.0475,0.1507 -0.15058,0.31185 -0.31007,0.4846 -0.42981,0.46551 -0.69049,1.13999 -0.69239,1.79137 -9.8e-4,0.35696 0.12554,0.91187 0.26437,1.15904 0.10633,0.1893 0.0674,0.29289 -0.10979,0.29289 -0.27368,0 -0.92451,0.37265 -1.29114,0.73928 -0.34186,0.34186 -0.64637,0.85132 -0.77309,1.29341 -0.13095,0.45686 -0.14764,0.58222 -0.14764,1.10871 0,0.58559 0.0551,0.8988 0.2334,1.32605 0.11685,0.28008 0.15398,0.35016 0.30764,0.58078 0.52792,0.79227 1.38723,1.28868 2.23994,1.29396 0.14129,9.8e-4 0.25689,0.0128 0.25689,0.0264 0,0.0136 -0.0819,0.14531 -0.18188,0.2926 -0.10006,0.1473 -0.19235,0.33247 -0.20517,0.41148 -0.0217,0.13361 -0.0113,0.14798 0.14836,0.20517 0.16109,0.0577 0.33625,0.13336 0.81945,0.35394 0.11057,0.0505 0.2513,0.13821 0.31273,0.19492 0.0614,0.0567 0.4836,0.41369 0.93817,0.79325 0.45456,0.37956 0.83653,0.70147 0.8488,0.71536 0.0122,0.0139 0.13291,0.11518 0.26806,0.22506 0.13513,0.10989 0.25576,0.21078 0.26805,0.22419 0.0122,0.0133 0.37688,0.3194 0.81021,0.68 0.43334,0.3606 0.81533,0.68162 0.84888,0.71337 0.0336,0.0318 0.15596,0.13406 0.27203,0.22735 0.11607,0.0934 0.23666,0.1939 0.26798,0.22357 0.0313,0.0297 0.16732,0.14434 0.30222,0.2548 0.1349,0.11046 0.29573,0.24435 0.3574,0.29756 0.4889,0.42174 1.14401,0.95313 1.17505,0.95313 0.0208,0 0.14155,-0.0854 0.26822,-0.18986 z m -0.92906,-1.41945 c -0.93564,-0.14511 -1.81187,-0.62239 -2.61747,-1.42575 -0.36774,-0.36672 -0.93417,-1.06149 -0.93417,-1.14584 0,-0.0149 -0.0429,-0.0875 -0.0956,-0.16127 -0.10704,-0.15034 -0.61921,-1.14766 -0.61921,-1.20578 0,-0.0205 -0.0385,-0.12256 -0.0856,-0.22672 -0.0888,-0.19642 -0.2191,-0.57884 -0.31566,-0.92651 -0.0308,-0.11057 -0.0711,-0.2513 -0.0898,-0.31271 -0.065,-0.21368 -0.15185,-0.67092 -0.27593,-1.45193 -0.0897,-0.5646 -0.074,-2.46486 0.026,-3.1354 0.0746,-0.5011 0.0756,-0.56314 0.0113,-0.78181 -0.0384,-0.13064 -0.0864,-0.31638 -0.10647,-0.41279 -0.0201,-0.0964 -0.0564,-0.18162 -0.0805,-0.18938 -0.0453,-0.0146 -0.33419,0.56438 -0.33419,0.66988 0,0.0328 -0.0133,0.073 -0.0296,0.0893 -0.0466,0.0466 -0.20563,0.50097 -0.417,1.19146 -0.1625,0.53086 -0.35876,1.13118 -0.40163,1.22854 -0.0433,0.0984 -0.17914,0.51314 -0.27064,0.82648 -0.0323,0.11057 -0.0718,0.22114 -0.0878,0.24572 -0.016,0.0246 -0.0562,0.11502 -0.0894,0.20103 -0.26096,0.67768 -0.84947,0.93563 -1.48918,0.6527 -0.64538,-0.28541 -0.93588,-0.87336 -0.8101,-1.63957 0.13025,-0.79347 0.48587,-1.45829 1.14557,-2.14162 0.24185,-0.25051 1.00255,-0.95163 1.28829,-1.18738 0.57074,-0.4709 0.94177,-0.84506 1.03651,-1.0452 0.13873,-0.29311 0.33942,-0.52311 0.61168,-0.701 0.14952,-0.0977 0.33486,-0.26639 0.41186,-0.37486 0.28071,-0.39544 0.62808,-0.70337 1.06717,-0.94604 0.11314,-0.0625 0.28651,-0.22241 0.39652,-0.36569 0.61284,-0.79808 1.61445,-1.5526 2.425,-1.82679 0.83623,-0.28286 1.88251,-0.28575 2.69578,-0.008 0.86631,0.29648 1.69348,0.90285 2.34422,1.71847 0.22229,0.27863 0.3688,0.41616 0.54365,0.5103 0.62105,0.33443 1.12702,0.90471 1.3844,1.56032 0.0658,0.16779 0.0707,0.17048 0.3326,0.18467 0.16887,0.008 0.32967,0.0503 0.441,0.11282 0.35767,0.20089 0.8448,0.65105 1.44237,1.33287 0.33799,0.38563 0.67825,0.77151 0.75615,0.8575 0.75818,0.837 1.16903,1.62417 1.31264,2.51495 0.12318,0.76404 -0.17891,1.36563 -0.79315,1.57952 -0.27277,0.095 -0.73835,0.0767 -0.98376,-0.0387 -0.77853,-0.36594 -1.69183,-1.99656 -1.97135,-3.5197 -0.0248,-0.13513 -0.0666,-0.35278 -0.0927,-0.48365 -0.0262,-0.13088 -0.0476,-0.35819 -0.0476,-0.50516 0,-0.25288 -0.0713,-0.83149 -0.12036,-0.97686 -0.034,-0.1007 -0.0888,0.0672 -0.12517,0.38365 -0.0166,0.14527 -0.0714,0.38325 -0.1215,0.52884 -0.0801,0.23289 -0.0853,0.29999 -0.0429,0.55843 0.11493,0.70134 0.14253,1.05724 0.1423,1.83499 -1.3e-4,0.45457 -0.0211,0.99736 -0.0466,1.2062 -0.1322,1.08132 -0.23068,1.54883 -0.50828,2.41309 -0.54305,1.69052 -1.47596,3.08507 -2.6153,3.90946 -0.70891,0.51292 -1.49137,0.8119 -2.19106,0.83721 l -0.29039,0.0105 -0.0125,-0.61519 c -0.009,-0.46975 0.001,-0.61899 0.0446,-0.63126 0.0314,-0.008 0.20788,-0.0391 0.39217,-0.0673 0.65654,-0.10038 1.07218,-0.33469 1.07218,-0.60431 0,-0.0999 -0.28961,-0.0918 -0.43983,0.0121 -0.35451,0.24538 -1.18429,0.34388 -1.79391,0.21296 -0.34758,-0.0746 -0.43205,-0.10527 -0.58765,-0.21296 -0.15023,-0.10394 -0.43984,-0.11198 -0.43984,-0.0121 0,0.26874 0.37718,0.48473 1.04985,0.60118 0.17199,0.0298 0.33841,0.0614 0.36983,0.0703 0.0436,0.0123 0.0542,0.16168 0.0446,0.63138 -0.0141,0.69704 0.0131,0.65816 -0.4145,0.59183 z m -1.40726,-9.18152 c 0.46494,-0.16411 0.69846,-0.31183 1.05234,-0.6657 0.55839,-0.5584 0.74966,-1.0186 0.753,-1.81181 0.003,-0.60071 -0.0937,-0.96261 -0.36456,-1.37052 l -0.16434,-0.24751 -0.60471,0.0288 c -1.00943,0.0482 -1.80819,0.1848 -2.68207,0.45895 -0.3393,0.10645 -0.8372,0.37163 -1.05086,0.55971 -0.21934,0.19306 -0.33406,0.41007 -0.33406,0.63187 0,0.27483 0.12892,0.7482 0.29656,1.08887 0.34766,0.70653 1.12535,1.29381 1.87015,1.41232 0.25112,0.04 1.02651,-0.0137 1.22855,-0.085 z m -0.22709,-1.62629 c -0.39987,-0.0764 -0.66639,-0.39721 -0.66639,-0.80206 0,-0.2432 0.0438,-0.35189 0.22336,-0.5554 0.1507,-0.1707 0.36417,-0.25322 0.65503,-0.25322 0.2988,0 0.54466,0.11753 0.71613,0.34234 0.10878,0.14262 0.12544,0.20444 0.12544,0.46534 0,0.26936 -0.0144,0.31867 -0.13733,0.47058 -0.23119,0.28562 -0.55207,0.40204 -0.91624,0.33242 z m 5.85447,1.6291 c 0.79118,-0.28038 1.44599,-0.90402 1.68957,-1.60917 0.14166,-0.41003 0.19947,-0.87689 0.13856,-1.11879 -0.10122,-0.40186 -0.66651,-0.72198 -1.7595,-0.99639 -0.62733,-0.15749 -1.94669,-0.31957 -2.60131,-0.31957 -0.29782,0 -0.32426,0.008 -0.402,0.12286 -0.33706,0.49766 -0.50803,1.2074 -0.41794,1.73502 0.20714,1.21321 1.02221,2.05717 2.19269,2.27043 0.21731,0.0396 0.96324,-0.0148 1.15993,-0.0844 z m -1.87472,-1.62953 c -0.4259,-0.14639 -0.6448,-0.51781 -0.5628,-0.9549 0.0619,-0.32967 0.49905,-0.65535 0.87978,-0.65535 0.12789,0 0.45671,0.132 0.58303,0.23403 0.14015,0.11322 0.26152,0.38963 0.26152,0.59559 0,0.39577 -0.26714,0.71742 -0.67873,0.8172 -0.24989,0.0605 -0.18618,0.0654 -0.4828,-0.0365 z m -6.7265,-1.91813 c 0.0135,-0.0219 0.15042,-0.0999 0.30419,-0.17318 0.50387,-0.24034 1.15155,-0.42916 1.86552,-0.54386 0.73259,-0.11771 0.89963,-0.13665 1.20986,-0.1373 0.18227,-3.4e-4 0.36075,-0.0193 0.39663,-0.042 0.2477,-0.15665 -0.9438,-0.67214 -1.55363,-0.67214 -0.64917,0 -1.39533,0.31258 -1.86336,0.78062 -0.20979,0.20979 -0.51259,0.65963 -0.51259,0.76151 0,0.0717 0.11331,0.0912 0.15338,0.0263 z m 10.14637,-0.12339 c -0.0983,-0.39152 -0.7684,-1.0217 -1.32017,-1.24145 -0.26857,-0.10697 -0.73508,-0.2036 -0.98283,-0.2036 -0.46362,0 -1.02615,0.17773 -1.43798,0.45433 -0.32582,0.21883 -0.34947,0.26045 -0.148,0.26045 0.28629,0 1.49491,0.13994 1.98806,0.23019 0.66511,0.1217 1.27664,0.30555 1.67774,0.50442 0.12151,0.0603 0.22812,0.11056 0.23693,0.11186 0.008,9.8e-4 0.003,-0.051 -0.0137,-0.1162 z m 2.10377,10.56745 c 0.24381,-0.16698 0.52099,-0.4859 0.63723,-0.73321 0.10143,-0.21582 0.1153,-0.28937 0.0545,-0.28937 -0.0548,0 -1.07778,1.12927 -1.07778,1.18961 0,0.0454 0.20577,-0.0436 0.38608,-0.16703 z"
       id="path3949-5" />
  </g>
</svg>
