<?xml version="1.0" encoding="UTF-8" standalone="no"?>
<svg
   xmlns:dc="http://purl.org/dc/elements/1.1/"
   xmlns:cc="http://creativecommons.org/ns#"
   xmlns:rdf="http://www.w3.org/1999/02/22-rdf-syntax-ns#"
   xmlns:svg="http://www.w3.org/2000/svg"
   xmlns="http://www.w3.org/2000/svg"
   xmlns:sodipodi="http://sodipodi.sourceforge.net/DTD/sodipodi-0.dtd"
   xmlns:inkscape="http://www.inkscape.org/namespaces/inkscape"
   width="100.0mm"
   height="100.0mm"
   viewBox="0 0 100.0 100.0"
   version="1.1"
   id="svg1923"
   sodipodi:docname="pcb-layers.svg"
   inkscape:version="1.0.1 (3bc2e813f5, 2020-09-07)">
  <defs
     id="defs1917" />
  <sodipodi:namedview
     id="base"
     pagecolor="#ffffff"
     bordercolor="#666666"
     borderopacity="1.0"
     inkscape:pageopacity="0.0"
     inkscape:pageshadow="2"
     inkscape:zoom="1.7242897"
     inkscape:cx="179.74844"
     inkscape:cy="257.77968"
     inkscape:document-units="mm"
     inkscape:current-layer="g2493"
     inkscape:document-rotation="0"
     showgrid="false"
     inkscape:window-width="1252"
     inkscape:window-height="1010"
     inkscape:window-x="-5"
     inkscape:window-y="0"
     inkscape:window-maximized="1" />
  <metadata
     id="metadata1920">
    <rdf:RDF>
      <cc:Work
         rdf:about="">
        <dc:format>image/svg+xml</dc:format>
        <dc:type
           rdf:resource="http://purl.org/dc/dcmitype/StillImage" />
        <dc:title></dc:title>
      </cc:Work>
    </rdf:RDF>
  </metadata>
  <g
     inkscape:label="[fixed] BG"
     inkscape:groupmode="layer"
     id="g2491"
     style="display:inline">
    <rect
       x="0"
       y="0"
       width="100"
       height="100"
       style="fill:#ffffff;fill-opacity:1;stroke:none"
       id="rect2489" />
  </g>
  <g
     inkscape:label="B.Mask"
     inkscape:groupmode="layer"
     id="g2493"
     style="display:inline;opacity:0.998">
    <path
       id="path2590"
       style="color:#000000;font-style:normal;font-variant:normal;font-weight:normal;font-stretch:normal;font-size:medium;line-height:normal;font-family:sans-serif;font-variant-ligatures:normal;font-variant-position:normal;font-variant-caps:normal;font-variant-numeric:normal;font-variant-alternates:normal;font-variant-east-asian:normal;font-feature-settings:normal;font-variation-settings:normal;text-indent:0;text-align:start;text-decoration:none;text-decoration-line:none;text-decoration-style:solid;text-decoration-color:#000000;letter-spacing:normal;word-spacing:normal;text-transform:none;writing-mode:lr-tb;direction:ltr;text-orientation:mixed;dominant-baseline:auto;baseline-shift:baseline;text-anchor:start;white-space:normal;shape-padding:0;shape-margin:0;inline-size:0;clip-rule:evenodd;display:inline;overflow:visible;visibility:visible;opacity:0.74702;isolation:auto;mix-blend-mode:normal;color-interpolation:sRGB;color-interpolation-filters:linearRGB;solid-color:#000000;solid-opacity:1;vector-effect:none;fill:#999999;fill-opacity:1;fill-rule:evenodd;stroke:none;stroke-width:8.20158;stroke-linecap:round;stroke-linejoin:round;stroke-miterlimit:1.41421;stroke-dasharray:none;stroke-dashoffset:0;stroke-opacity:1;color-rendering:auto;image-rendering:auto;shape-rendering:auto;text-rendering:auto;enable-background:accumulate;stop-color:#000000"
       transform="scale(0.26458333)"
       d="m 214.98242,132.60156 c -4.70689,0 -9.2756,0.59177 -13.64258,1.69532 a 14.23599,14.23599 0 0 0 -0.59375,4.06835 14.23599,14.23599 0 0 0 14.23633,14.23633 14.23599,14.23599 0 0 0 14.23633,-14.23633 14.23599,14.23599 0 0 0 -0.59375,-4.06835 c -4.36698,-1.10355 -8.93568,-1.69532 -13.64258,-1.69532 z m -28.47851,7.85547 c -7.91884,4.73492 -14.56386,11.38012 -19.29883,19.29883 a 14.23599,14.23599 0 0 0 2.44922,3.28125 14.23599,14.23599 0 0 0 20.13281,0 14.23599,14.23599 0 0 0 0,-20.13281 14.23599,14.23599 0 0 0 -3.2832,-2.44727 z m 56.95507,0 a 14.23599,14.23599 0 0 0 -3.28125,2.44727 14.23599,14.23599 0 0 0 0,20.13281 14.23599,14.23599 0 0 0 20.13282,0 14.23599,14.23599 0 0 0 2.44922,-3.28125 c -4.73526,-7.91919 -11.38131,-14.56386 -19.30079,-19.29883 z m -78.49804,33.54102 a 14.23599,14.23599 0 0 0 -3.91602,0.59375 c -1.10332,4.36634 -1.69531,8.93438 -1.69531,13.64062 0,4.70772 0.59328,9.27687 1.69727,13.64453 a 14.23599,14.23599 0 0 0 4.0664,0.5918 14.23599,14.23599 0 0 0 14.23633,-14.23633 14.23599,14.23599 0 0 0 -14.23633,-14.23437 14.23599,14.23599 0 0 0 -0.15234,0 z m 99.73828,0 a 14.23599,14.23599 0 0 0 -14.08399,14.23437 14.23599,14.23599 0 0 0 14.23633,14.23633 14.23599,14.23599 0 0 0 4.06836,-0.59375 c 1.10362,-4.36698 1.69531,-8.93568 1.69531,-13.64258 0,-4.7069 -0.59169,-9.27568 -1.69531,-13.64258 a 14.23599,14.23599 0 0 0 -4.06836,-0.59179 14.23599,14.23599 0 0 0 -0.15234,0 z m -85.05469,35.26172 a 14.23599,14.23599 0 0 0 -9.99023,4.16992 14.23599,14.23599 0 0 0 -2.44922,3.28125 c 4.7352,7.91883 11.38179,14.56386 19.30078,19.29883 a 14.23599,14.23599 0 0 0 3.28125,-2.44727 14.23599,14.23599 0 0 0 0,-20.13281 14.23599,14.23599 0 0 0 -10.14258,-4.16992 z m 70.52344,0 a 14.23599,14.23599 0 0 0 -9.99024,4.16992 14.23599,14.23599 0 0 0 0,20.13281 14.23599,14.23599 0 0 0 3.28321,2.44727 c 7.91835,-4.73491 14.56392,-11.38048 19.29883,-19.29883 a 14.23599,14.23599 0 0 0 -2.44922,-3.28125 14.23599,14.23599 0 0 0 -10.14258,-4.16992 z" />
    <path
       style="color:#000000;font-style:normal;font-variant:normal;font-weight:normal;font-stretch:normal;font-size:medium;line-height:normal;font-family:sans-serif;font-variant-ligatures:normal;font-variant-position:normal;font-variant-caps:normal;font-variant-numeric:normal;font-variant-alternates:normal;font-variant-east-asian:normal;font-feature-settings:normal;font-variation-settings:normal;text-indent:0;text-align:start;text-decoration:none;text-decoration-line:none;text-decoration-style:solid;text-decoration-color:#000000;letter-spacing:normal;word-spacing:normal;text-transform:none;writing-mode:lr-tb;direction:ltr;text-orientation:mixed;dominant-baseline:auto;baseline-shift:baseline;text-anchor:start;white-space:normal;shape-padding:0;shape-margin:0;inline-size:0;clip-rule:evenodd;display:inline;overflow:visible;visibility:visible;opacity:0.74702;isolation:auto;mix-blend-mode:normal;color-interpolation:sRGB;color-interpolation-filters:linearRGB;solid-color:#000000;solid-opacity:1;vector-effect:none;fill:#999999;fill-opacity:1;fill-rule:evenodd;stroke:none;stroke-width:2.17;stroke-linecap:round;stroke-linejoin:round;stroke-miterlimit:1.41421;stroke-dasharray:none;stroke-dashoffset:0;stroke-opacity:1;color-rendering:auto;image-rendering:auto;shape-rendering:auto;text-rendering:auto;enable-background:accumulate;stop-color:#000000"
       d="m 59.529969,50.385416 a 3.7666057,3.7666057 0 0 0 -2.649205,-1.088916 3.7666057,3.7666057 0 0 0 -3.766621,3.76662 3.7666057,3.7666057 0 0 0 0.156395,1.072108 c 2.367282,0.595585 4.853904,0.595585 7.221185,0 a 3.7666057,3.7666057 0 0 0 0.155664,-1.072106 3.7666057,3.7666057 0 0 0 -1.117418,-2.677706 z"
       id="path2684-8" />
  </g>
  <g
     inkscape:label="F.Cu"
     inkscape:groupmode="layer"
     id="g2495"
     style="display:none">
    <path
       id="path1265-5"
       style="color:#000000;font-style:normal;font-variant:normal;font-weight:normal;font-stretch:normal;font-size:medium;line-height:normal;font-family:sans-serif;font-variant-ligatures:normal;font-variant-position:normal;font-variant-caps:normal;font-variant-numeric:normal;font-variant-alternates:normal;font-variant-east-asian:normal;font-feature-settings:normal;font-variation-settings:normal;text-indent:0;text-align:start;text-decoration:none;text-decoration-line:none;text-decoration-style:solid;text-decoration-color:#000000;letter-spacing:normal;word-spacing:normal;text-transform:none;writing-mode:lr-tb;direction:ltr;text-orientation:mixed;dominant-baseline:auto;baseline-shift:baseline;text-anchor:start;white-space:normal;shape-padding:0;shape-margin:0;inline-size:0;clip-rule:evenodd;display:inline;overflow:visible;visibility:visible;opacity:1;isolation:auto;mix-blend-mode:normal;color-interpolation:sRGB;color-interpolation-filters:linearRGB;solid-color:#000000;solid-opacity:1;vector-effect:none;fill:#333333;fill-opacity:1;fill-rule:evenodd;stroke:none;stroke-width:7.55906;stroke-linecap:round;stroke-linejoin:round;stroke-miterlimit:1.41421;stroke-dasharray:none;stroke-dashoffset:0;stroke-opacity:1;color-rendering:auto;image-rendering:auto;shape-rendering:auto;text-rendering:auto;enable-background:accumulate;stop-color:#000000;stop-opacity:1"
       d="m 214.97852,124.75195 c -34.98873,0 -63.48438,28.49556 -63.48438,63.48438 0,26.95624 16.92167,50.03812 40.6875,59.22265 v 4.39544 h 45.59961 v -4.39739 c 23.76282,-9.18605 40.68164,-32.26672 40.68164,-59.2207 0,-34.98871 -28.49562,-63.48438 -63.48437,-63.48438 z m 0.004,7.84961 c 30.69517,1e-5 55.63281,24.93569 55.63281,55.63086 0,30.69517 -24.93764,55.63281 -55.63281,55.63281 -30.69513,0 -55.63281,-24.93764 -55.63281,-55.63281 0,-30.69517 24.93768,-55.63086 55.63281,-55.63086 z m 0,1.72852 c -29.75954,0 -53.9043,24.14276 -53.9043,53.90234 0,29.75955 24.14476,53.9043 53.9043,53.9043 29.75955,0 53.9043,-24.14475 53.9043,-53.9043 0,-29.75958 -24.14471,-53.90234 -53.9043,-53.90234 z m -0.002,1.50781 h 0.002 c 8.391,3.1e-4 16.32545,1.98103 23.36133,5.49609 0.68996,0.34334 0.61967,1.34967 -0.11133,1.59375 l -40.34765,13.53125 -0.008,13.81055 9.66993,-3.24219 c 0.56078,-0.18913 1.14149,0.22851 1.14062,0.82032 v 41.0957 L 221.58,204.73047 v -41.78711 c -3e-4,-0.37184 0.23725,-0.70221 0.58984,-0.82031 l 30.00781,-10.0625 c 0.31944,-0.10791 0.67247,-0.0202 0.9043,0.22461 3.48102,3.68821 6.43099,7.88296 8.73242,12.45898 0.23584,0.4695 0.002,1.03908 -0.49609,1.20703 l -34.33984,11.48438 0.0234,13.77148 9.76758,-3.26562 c 0.56,-0.18888 1.14016,0.22737 1.14063,0.81836 v 46.04492 c 7e-5,0.33402 -0.19232,0.63818 -0.49414,0.78125 -6.80307,3.23209 -14.41109,5.04297 -22.43555,5.04297 -7.66348,0 -14.94983,-1.64942 -21.51563,-4.61329 -0.31049,-0.13968 -0.51006,-0.4486 -0.50976,-0.78906 v -0.93945 c -5e-5,-0.36784 0.2327,-0.69542 0.58008,-0.81641 l 39.07422,-13.56054 0.0254,-13.85547 -38.5293,13.37304 c -0.56111,0.19374 -1.14604,-0.22278 -1.14649,-0.8164 v -77.3711 c -6.5e-4,-0.34 0.19809,-0.64881 0.50782,-0.78906 6.56527,-2.96361 13.85094,-4.613 21.51367,-4.61328 z m 0.002,1.72852 c -7.22082,5.5e-4 -14.07639,1.53585 -20.29297,4.26171 v 75.56836 l 38.53125,-13.37109 c 0.56174,-0.19546 1.14846,0.22163 1.14844,0.81641 l -0.0273,15.68359 c -2.4e-4,0.36835 -0.23388,0.69609 -0.58203,0.81641 l -38.71289,13.43554 c 6.12476,2.63034 12.85092,4.12305 19.9375,4.12305 7.57576,0 14.74645,-1.68992 21.20117,-4.67383 v -44.26562 l -9.76758,3.26562 c -0.55936,0.18717 -1.13775,-0.22852 -1.13867,-0.81836 l -0.0254,-15.59179 c -0.001,-0.37205 0.23539,-0.70326 0.58789,-0.82227 l 33.91406,-11.3418 c -2.06885,-3.91604 -4.60889,-7.53807 -7.58984,-10.76367 l -28.85547,9.67774 v 41.79101 c -5.4e-4,0.3734 -0.2408,0.70425 -0.59571,0.82031 l -14.62109,4.7793 c -0.559,0.18262 -1.13323,-0.23419 -1.13281,-0.82226 v -41.08594 l -9.67188,3.24414 c -0.56014,0.18743 -1.13908,-0.22965 -1.13867,-0.82031 l 0.008,-15.63672 c -3e-4,-0.37185 0.23725,-0.70222 0.58985,-0.82032 l 38.79687,-13.00976 c -6.29349,-2.80818 -13.22402,-4.43887 -20.55859,-4.43945 h -0.002 z m -36.96875,13.88281 c 0.49247,-0.0216 0.90331,0.37228 0.90235,0.86523 v 71.83789 c -6.5e-4,0.77578 -0.94382,1.15802 -1.48438,0.60157 -9.18237,-9.43911 -14.8457,-22.32823 -14.8457,-36.52149 0,-14.19326 5.66334,-27.08238 14.8457,-36.52148 0.15352,-0.15829 0.36174,-0.25191 0.58203,-0.26172 z m -0.82617,3.14258 c -7.97972,8.95536 -12.87305,20.71082 -12.87305,33.64062 0,12.92961 4.89356,24.68722 12.87305,33.64258 z m 88.54883,23.71484 c 0.41176,0.009 0.75995,0.30738 0.83203,0.71289 0.53167,2.99184 0.81055,6.07025 0.81055,9.21289 0,14.2046 -5.67183,27.10374 -14.86719,36.54492 -0.54121,0.55712 -1.48547,0.17321 -1.48438,-0.60351 v -40.37891 c 5.4e-4,-0.37113 0.23794,-0.70049 0.58985,-0.81836 l 13.82617,-4.625 c 0.0943,-0.0317 0.19346,-0.0469 0.29297,-0.0449 z M 265,180.32227 l -12.24414,4.0957 v 37.48047 c 7.99167,-8.95813 12.89453,-20.72537 12.89453,-33.66602 0,-2.69552 -0.2442,-5.32881 -0.65039,-7.91015 z"
       transform="scale(0.26458333)"
       sodipodi:nodetypes="ssccccsssssssssssscsccccccccccccccccccccsccccccccccscscccccccscccccccccccccccccccscsccccscccsccscscccccsscccsc" />
  </g>
  <g
     inkscape:label="F.Mask"
     inkscape:groupmode="layer"
     id="g2497"
     style="display:none">
    <path
       id="path1241-1"
       style="color:#000000;font-style:normal;font-variant:normal;font-weight:normal;font-stretch:normal;font-size:medium;line-height:normal;font-family:sans-serif;font-variant-ligatures:normal;font-variant-position:normal;font-variant-caps:normal;font-variant-numeric:normal;font-variant-alternates:normal;font-variant-east-asian:normal;font-feature-settings:normal;font-variation-settings:normal;text-indent:0;text-align:start;text-decoration:none;text-decoration-line:none;text-decoration-style:solid;text-decoration-color:#000000;letter-spacing:normal;word-spacing:normal;text-transform:none;writing-mode:lr-tb;direction:ltr;text-orientation:mixed;dominant-baseline:auto;baseline-shift:baseline;text-anchor:start;white-space:normal;shape-padding:0;shape-margin:0;inline-size:0;clip-rule:evenodd;display:inline;overflow:visible;visibility:visible;isolation:auto;mix-blend-mode:normal;color-interpolation:sRGB;color-interpolation-filters:linearRGB;solid-color:#000000;solid-opacity:1;vector-effect:none;fill:#999999;fill-opacity:1;fill-rule:evenodd;stroke:none;stroke-width:2.17;stroke-linecap:round;stroke-linejoin:round;stroke-miterlimit:1.41421;stroke-dasharray:none;stroke-dashoffset:0;stroke-opacity:1;color-rendering:auto;image-rendering:auto;shape-rendering:auto;text-rendering:auto;enable-background:accumulate;stop-color:#000000"
       d="m 56.88081,35.084089 c -8.12142,0 -14.719659,6.59783 -14.719659,14.719261 0,8.121431 6.598239,14.719261 14.719659,14.719261 8.12143,0 14.71926,-6.59783 14.71926,-14.71926 0,-8.121431 -6.59783,-14.719261 -14.71926,-14.719262 z m 0,0.45734 c 7.87389,0 14.26193,6.388031 14.26193,14.261921 0,7.87388 -6.38805,14.261923 -14.26193,14.261923 -7.87388,0 -14.26233,-6.388043 -14.26233,-14.261923 0,-7.87389 6.38845,-14.261921 14.26233,-14.261921 z m 0,0.39888 c -2.02762,0 -3.95546,0.43676 -5.69267,1.22095 a 0.22870098,0.22870098 0 0 0 -0.1346,0.208301 v 20.47161 a 0.22870098,0.22870098 0 0 0 0.30379,0.2157 l 10.19403,-3.5381 -0.007,3.66571 -10.3381,3.587921 a 0.22870098,0.22870098 0 0 0 -0.15355,0.216109 v 0.248642 a 0.22870098,0.22870098 0 0 0 0.13461,0.208709 c 1.7372,0.78419 3.66504,1.22052 5.69267,1.22052 2.12314,0 4.13638,-0.478981 5.93636,-1.33414 A 0.22870098,0.22870098 0 0 0 62.94684,62.12559 V 49.9429 a 0.22870098,0.22870098 0 0 0 -0.30132,-0.21694 l -2.58473,0.86446 -0.006,-3.6439 9.085463,-3.03878 a 0.22870098,0.22870098 0 0 0 0.13172,-0.31944 c -0.608921,-1.21074 -1.389554,-2.320211 -2.310574,-3.296052 a 0.22870098,0.22870098 0 0 0 -0.23917,-0.0597 l -7.939839,2.662531 a 0.22870098,0.22870098 0 0 0 -0.15602,0.21694 V 54.16804 l -3.41131,1.11474 V 44.40954 A 0.22870098,0.22870098 0 0 0 54.91332,44.1926 l -2.5584,0.85787 0.002,-3.65419 10.67565,-3.580101 a 0.22870098,0.22870098 0 0 0 0.0293,-0.421519 c -1.861721,-0.930101 -3.961401,-1.45435 -6.181711,-1.45435 z m 0,0.45735 c 1.94099,0 3.77488,0.4317 5.44033,1.17483 l -10.26483,3.4422 A 0.22870098,0.22870098 0 0 0 51.9003,41.23163 l -0.002,4.13705 a 0.22870098,0.22870098 0 0 0 0.30132,0.21694 l 2.5588,-0.85828 v 10.87077 a 0.22870098,0.22870098 0 0 0 0.29968,0.21735 l 3.868671,-1.26418 a 0.22870098,0.22870098 0 0 0 0.15766,-0.21735 V 43.27669 l 7.6344,-2.560451 c 0.78871,0.85344 1.460639,1.812071 2.00802,2.848191 l -8.97266,3.0009 a 0.22870098,0.22870098 0 0 0 -0.15602,0.21735 l 0.007,4.12553 a 0.22870098,0.22870098 0 0 0 0.30133,0.21653 l 2.58432,-0.86405 v 11.71176 c -1.70781,0.789491 -3.6051,1.236601 -5.60952,1.236601 -1.87499,0 -3.65474,-0.39493 -5.275251,-1.090872 L 61.84906,58.5632 a 0.22870098,0.22870098 0 0 0 0.15395,-0.2157 l 0.007,-4.14981 a 0.22870098,0.22870098 0 0 0 -0.303792,-0.21613 l -10.19443,3.53812 V 37.525159 c 1.6451,-0.72135 3.45904,-1.1275 5.36993,-1.1275 z m -9.78155,3.673531 a 0.22870098,0.22870098 0 0 0 -0.153959,0.0691 c -2.4295,2.49743 -3.927931,5.9077 -3.927931,9.663 0,3.7553 1.49843,7.16557 3.927931,9.662999 A 0.22870098,0.22870098 0 0 0 47.33802,59.30699 V 40.299619 A 0.22870098,0.22870098 0 0 0 47.09926,40.07115 Z m -0.218589,0.83112 V 58.7044 C 44.76943,56.33496 43.47471,53.22431 43.47471,49.80335 c 0,-3.42101 1.294661,-6.5316 3.405961,-8.90104 z m 23.428899,6.27473 a 0.22870098,0.22870098 0 0 0 -0.0778,0.0119 l -3.657902,1.22342 a 0.22870098,0.22870098 0 0 0 -0.156009,0.21694 v 10.683469 a 0.22870098,0.22870098 0 0 0 0.392301,0.159721 c 2.432939,-2.497981 3.933701,-5.910881 3.933701,-9.669181 0,-0.83149 -0.0738,-1.64618 -0.214471,-2.43777 a 0.22870098,0.22870098 0 0 0 -0.219811,-0.18854 z m -0.19513,0.53308 c 0.107471,0.68298 0.172072,1.38004 0.172072,2.09323 0,3.42388 -1.296861,6.53704 -3.411322,8.90721 v -9.91657 z" />
  </g>
  <g
     inkscape:label="F.SilkS"
     inkscape:groupmode="layer"
     id="g2499"
     style="display:none" />
  <g
     inkscape:label="Edge.Cuts"
     inkscape:groupmode="layer"
     id="g2716"
     style="display:none" />
</svg>
